<svg xmlns="http://www.w3.org/2000/svg" xmlns:xlink="http://www.w3.org/1999/xlink" fill="none" version="1.1" width="16" height="16" viewBox="0 0 16 16"><defs><clipPath id="master_svg0_411_15286"><rect x="0" y="0" width="16" height="16" rx="0"/></clipPath><linearGradient x1="0.5" y1="0" x2="0.5" y2="1" id="master_svg1_107_1591"><stop offset="0%" stop-color="#F8FEFF" stop-opacity="1"/><stop offset="100%" stop-color="#0066EC" stop-opacity="1"/></linearGradient></defs><g clip-path="url(#master_svg0_411_15286)"><g></g><g><path d="M8,15C3.97143,12.2,2,9.48235,2,6.76471C2,3.55294,4.65714,1,8,1C11.34286,1,14,3.55294,14,6.76471C14,9.48235,12.0286,12.2,8,15ZM8,12.6941C10.82857,10.63529,12.2857,8.65882,12.2857,6.76471C12.2857,4.458819999999999,10.4,2.6470599999999997,8,2.6470599999999997C5.6,2.6470599999999997,3.71429,4.458819999999999,3.71429,6.76471C3.71429,8.65882,5.17143,10.63529,8,12.6941ZM8,9.23529C6.54286,9.23529,5.428570000000001,8.1647,5.428570000000001,6.76471C5.428570000000001,5.36471,6.54286,4.2941199999999995,8,4.2941199999999995C9.457139999999999,4.2941199999999995,10.57143,5.36471,10.57143,6.76471C10.57143,8.1647,9.457139999999999,9.23529,8,9.23529ZM8,7.58823C8.514289999999999,7.58823,8.857140000000001,7.25882,8.857140000000001,6.76471C8.857140000000001,6.27059,8.514289999999999,5.94118,8,5.94118C7.48571,5.94118,7.14286,6.27059,7.14286,6.76471C7.14286,7.25882,7.48571,7.58823,8,7.58823Z" fill="url(#master_svg1_107_1591)" fill-opacity="1"/></g></g></svg>