<svg xmlns="http://www.w3.org/2000/svg" xmlns:xlink="http://www.w3.org/1999/xlink" fill="none" version="1.1" width="16" height="16" viewBox="0 0 16 16"><defs><clipPath id="master_svg0_411_15295"><rect x="0" y="0" width="16" height="16" rx="0"/></clipPath><linearGradient x1="0.5" y1="-3.0616171314629196e-17" x2="0.5" y2="1" id="master_svg1_107_2714"><stop offset="0%" stop-color="#FFFFFF" stop-opacity="1"/><stop offset="27.959829568862915%" stop-color="#E8FDFF" stop-opacity="1"/><stop offset="100%" stop-color="#0066EC" stop-opacity="1"/></linearGradient></defs><g clip-path="url(#master_svg0_411_15295)"><g></g><g><path d="M7.999921953125,14.66661298828125C4.3179219531249995,14.66661298828125,1.333251953125,11.68201298828125,1.333251953125,7.99998298828125C1.333251953125,4.3179829882812495,4.3179219531249995,1.33331298828125,7.999921953125,1.33331298828125C11.681951953125,1.33331298828125,14.666551953125,4.3179829882812495,14.666551953125,7.99998298828125C14.666551953125,11.68201298828125,11.681951953125,14.66661298828125,7.999921953125,14.66661298828125ZM7.999921953125,13.33331298828125C9.414401953125,13.33331298828125,10.770961953125,12.77141298828125,11.771151953125,11.77121298828125C12.771351953125,10.77102298828125,13.333251953125,9.41446298828125,13.333251953125,7.99998298828125C13.333251953125,6.58549298828125,12.771351953125,5.22893298828125,11.771151953125,4.22874298828125C10.770961953125,3.2285529882812503,9.414401953125,2.66664298828125,7.999921953125,2.66664298828125C6.585431953125,2.66664298828125,5.228871953125,3.2285529882812503,4.228681953125,4.22874298828125C3.2284919531250003,5.22893298828125,2.666581953125,6.58549298828125,2.666581953125,7.99998298828125C2.666581953125,9.41446298828125,3.2284919531250003,10.77102298828125,4.228681953125,11.77121298828125C5.228871953125,12.77141298828125,6.585431953125,13.33331298828125,7.999921953125,13.33331298828125C7.999921953125,13.33331298828125,7.999921953125,13.33331298828125,7.999921953125,13.33331298828125ZM8.666581953125,7.99998298828125C8.666581953125,7.99998298828125,11.333251953125,7.99998298828125,11.333251953125,7.99998298828125C11.333251953125,7.99998298828125,11.333251953125,9.33331298828125,11.333251953125,9.33331298828125C11.333251953125,9.33331298828125,7.333251953125,9.33331298828125,7.333251953125,9.33331298828125C7.333251953125,9.33331298828125,7.333251953125,4.66664298828125,7.333251953125,4.66664298828125C7.333251953125,4.66664298828125,8.666581953125,4.66664298828125,8.666581953125,4.66664298828125C8.666581953125,4.66664298828125,8.666581953125,7.99998298828125,8.666581953125,7.99998298828125Z" fill="url(#master_svg1_107_2714)" fill-opacity="1"/></g></g></svg>