<svg xmlns="http://www.w3.org/2000/svg" xmlns:xlink="http://www.w3.org/1999/xlink" fill="none" version="1.1" width="16" height="16" viewBox="0 0 16 16"><defs><linearGradient x1="0.5" y1="0" x2="0.5" y2="1" id="master_svg0_107_3144"><stop offset="0%" stop-color="#FFFFFF" stop-opacity="1"/><stop offset="100%" stop-color="#1372ED" stop-opacity="1"/></linearGradient></defs><g><g></g><g><g></g><g><path d="M11.2099,2.8819025541534424L10.9684,4.048508554153442C10.93623,4.203888554153442,10.8487,4.3421385541534425,10.72217,4.437408554153443C10.68961,4.461928554153443,10.65483,4.483318554153442,10.61828,4.501308554153443Q11.3506,4.742508554153442,11.9388,5.3329185541534425Q12.3587,5.7544885541534425,12.6011,6.249788554153443C12.6013,6.044948554153443,12.6975,5.8522285541534425,12.8609,5.729238554153442C12.9443,5.666398554153442,13.0417,5.624648554153442,13.1446,5.607548554153443L14.3113,5.4136485541534425C14.5499,5.3739985541534425,14.7909,5.470998554153443,14.9359,5.665098554153442C15.151,5.953008554153442,15.0928,6.360638554153442,14.8057,6.576808554153442C14.7222,6.6396485541534425,14.6249,6.681388554153442,14.522,6.698498554153442L13.3552,6.892388554153443C13.1434,6.927598554153442,12.9278,6.855248554153443,12.7798,6.699288554153442Q12.932,7.187928554153443,12.932,7.739788554153442Q12.932,7.882948554153442,12.9218,8.021868554153443C13.0904,7.922498554153442,13.2948,7.904688554153442,13.4778,7.973418554153443L14.492,8.354328554153442C14.608,8.397908554153442,14.7091,8.473888554153444,14.7834,8.573278554153443C14.9985,8.861188554153443,14.9402,9.268818554153443,14.6531,9.484988554153443C14.476,9.618318554153444,14.2433,9.651958554153442,14.0361,9.574148554153442L13.022,9.193268554153441C12.9059,9.149658554153444,12.8048,9.073688554153442,12.7306,8.974288554153443C12.7306,8.974288554153443,12.7187,8.957828554153442,12.7187,8.957828554153442Q12.4717,9.611618554153441,11.9388,10.146648554153442C11.8628,10.222898554153442,11.7691,10.279088554153443,11.6661,10.310188554153443C11.6702,10.371678554153442,11.6722,10.433288554153442,11.6722,10.494908554153442C11.6722,12.016428554153443,10.44368,13.249928554153442,8.92811,13.250028554153442L4.73945,13.250028554153442L3.43945,13.250028554153442C2.09216,13.249928554153442,1,12.153528554153443,1,10.800968554153442C1,9.683658554153443,1.752761,8.708428554153443,2.83048,8.429528554153443C2.8713699999999998,6.684308554153442,4.2924299999999995,5.290848554153442,6.0313,5.290848554153442C6.3745,5.290848554153442,6.71551,5.346248554153442,7.04118,5.454928554153442C7.06803,5.4105985541534425,7.10008,5.369638554153442,7.13665,5.3329185541534425Q7.65069,4.816868554153443,8.27494,4.5675985541534425C8.249780000000001,4.566968554153442,8.224689999999999,4.564868554153442,8.19978,4.561308554153442C8.02948,4.536978554153443,7.87576,4.445688554153442,7.77261,4.307608554153442C7.7532,4.281628554153443,7.73575,4.254218554153443,7.72042,4.225618554153442L7.25924,3.365328554153442C7.10696,3.0812675541534422,7.18442,2.7289705541534426,7.44154,2.5353725541534424C7.57923,2.4316995541534423,7.75236,2.3870995541534423,7.92266,2.411428554153442C8.09296,2.4357575541534424,8.24668,2.5270485541534424,8.34983,2.665126554153442C8.36924,2.691109554153442,8.38669,2.7185155541534423,8.40202,2.747115554153442L8.86322,3.6074385541534424C9.01513,3.890828554153442,8.9384,4.242298554153443,8.68242,4.436208554153442Q9.08909,4.334688554153443,9.5377,4.334688554153443Q9.6943,4.334688554153443,9.8458,4.347068554153442C9.83465,4.334348554153443,9.82401,4.321208554153442,9.81389,4.307658554153442C9.70223,4.158198554153442,9.66001,3.9678685541534424,9.6979,3.7848485541534425L9.93943,2.6182405541534424C9.97162,2.4627375541534424,10.05916,2.3244885541534424,10.18568,2.2292205541534424C10.32337,2.1255474541534425,10.4965,2.0809474541534425,10.6668,2.1052763241534422C10.83711,2.129605154153442,10.99082,2.2208955541534423,11.094,2.358974554153442C11.2056,2.5084305541534424,11.2479,2.6987585541534425,11.2099,2.8819025541534424ZM13.6119,4.413328554153442L12.6973,5.178548554153442C12.6887,5.1857485541534425,12.68,5.1926685541534425,12.6711,5.199358554153442C12.5334,5.3030285541534425,12.3603,5.3476285541534425,12.1899,5.3232985541534426C12.0196,5.298968554153443,11.8659,5.207678554153443,11.7628,5.069598554153442C11.5555,4.792108554153442,11.6012,4.400958554153442,11.8669,4.178648554153442L12.7815,3.4133685541534424C12.7902,3.4061585541534427,12.7989,3.3992385541534427,12.8078,3.3925485541534424C12.9454,3.2888785541534427,13.1186,3.2442785541534427,13.2889,3.2686085541534426C13.4592,3.2929385541534426,13.6129,3.3842285541534425,13.716,3.5223085541534425C13.9233,3.7997985541534423,13.8776,4.190948554153442,13.6119,4.413328554153442ZM11.632,7.739788554153442Q11.632,8.449088554153441,11.2262,8.989298554153443C10.76116,8.273828554153443,9.99136,7.815248554153443,9.143,7.748298554153442C8.99258,7.124958554153443,8.65993,6.561178554153442,8.1877,6.1292085541534425Q8.7609,5.634688554153442,9.5377,5.634688554153442Q10.40445,5.634688554153442,11.0177,6.2503585541534425Q11.632,6.8670785541534425,11.632,7.739788554153442ZM3.45231,11.950008554153442L3.43945,11.949938554153443Q2.96894,11.949938554153443,2.63552,11.615218554153442Q2.3,11.278378554153443,2.3,10.800968554153442Q2.3,10.406528554153443,2.54027,10.095248554153443Q2.77928,9.785608554153441,3.15618,9.688068554153443C3.71885,9.542448554153442,4.1165,9.041038554153442,4.13012,8.459978554153443Q4.14842,7.679018554153442,4.7043099999999995,7.133918554153443Q5.25814,6.5908485541534425,6.0313,6.5908485541534425Q6.68827,6.5908485541534425,7.20516,6.999048554153442Q7.7237,7.408568554153442,7.87928,8.053258554153443C8.01124,8.600088554153443,8.47994,9.000008554153442,9.04072,9.044268554153442Q9.6031,9.088648554153442,9.98676,9.505278554153442Q10.37225,9.923898554153443,10.37225,10.494908554153442Q10.37225,11.099088554153443,9.94745,11.525578554153443Q9.52476,11.949958554153442,8.92802,11.950008554153442L3.45231,11.950008554153442Z" fill-rule="evenodd" fill="url(#master_svg0_107_3144)" fill-opacity="1"/></g></g></g></svg>