<svg xmlns="http://www.w3.org/2000/svg" xmlns:xlink="http://www.w3.org/1999/xlink" fill="none" version="1.1" width="16" height="15" viewBox="0 0 16 15"><g><g><path d="M15.0069,4.07169L16,4.07169L12.8736,0L2.97931,0L0,4.02573L0.993103,4.02573L0.993103,13.0147L0,13.0147L0,15L15.9448,15L15.9448,13.0147L14.9517,13.0147L14.9517,4.07169L15.0069,4.07169ZM8,13.1618C6.55632,13.1618,5.37012,11.9669,5.37012,10.5331C5.37012,9.39338,6.11494,8.40073,7.16322,8.05147L7.16322,7.70221L6.76782,7.70221L6.76782,6.01103L9.25058,6.01103L9.25058,7.70221L8.85517,7.70221L8.85517,8.05147C9.89425,8.40073,10.6943,9.39338,10.6943,10.5331C10.6299,11.9669,9.44368,13.1618,8,13.1618ZM13.0207,13.0147L12.0276,13.0147L12.0276,5.01838L4.02759,5.01838L4.02759,13.0147L3.03448,13.0147L3.03448,4.02573L13.0759,4.02573L13.0759,13.0147L13.0207,13.0147Z" fill="#FFFFFF" fill-opacity="1" style="mix-blend-mode:passthrough"/></g><g><path d="M8.496582115631103,8.593781801452637C8.395432115631102,8.547821801452637,8.294292115631103,8.547821801452637,8.202332115631103,8.547821801452637L8.202332115631103,7.049659801452637L8.597732115631104,7.049659801452637L8.597732115631104,6.599291801452637L7.3103821156311035,6.599291801452637L7.3103821156311035,7.049659801452637L7.705782115631104,7.049659801452637L7.705782115631104,8.538631801452636C7.604632115631103,8.538631801452636,7.503482115631104,8.584581801452636,7.411532115631104,8.584581801452636C6.565553115631103,8.832751801452638,5.9678521156311035,9.577231801452637,5.9678521156311035,10.468781801452636C5.9678521156311035,11.562521801452636,6.859806115631104,12.454071801452637,7.954062115631103,12.454071801452637C9.048312115631104,12.454071801452637,9.940262115631104,11.562531801452636,9.940262115631104,10.468781801452636C9.986242115631104,9.586421801452637,9.342562115631104,8.841941801452636,8.496582115631103,8.593781801452637Z" fill="#FFFFFF" fill-opacity="1" style="mix-blend-mode:passthrough"/></g></g></svg>