<?xml version="1.0" encoding="UTF-8"?>
<svg width="96px" height="96px" viewBox="0 0 96 96" version="1.1" xmlns="http://www.w3.org/2000/svg" xmlns:xlink="http://www.w3.org/1999/xlink">
    <title>报告审核</title>
    <defs>
        <linearGradient x1="0%" y1="0%" x2="100%" y2="100%" id="linearGradient-1">
            <stop stop-color="#2AFADF" offset="0%"></stop>
            <stop stop-color="#4C83FF" offset="100%"></stop>
        </linearGradient>
    </defs>
    <g id="页面-1" stroke="none" stroke-width="1" fill="none" fill-rule="evenodd">
        <g id="菜单页" transform="translate(-76.000000, -396.000000)">
            <g id="编组-12" transform="translate(76.000000, 396.000000)">
                <g id="编组-12" transform="translate(0.000000, 0.000000)">
                    <rect id="矩形备份-3" fill="url(#linearGradient-1)" x="0" y="0" width="96" height="96" rx="24"></rect>
                    <g id="批准通过备份" transform="translate(28.000000, 27.000000)" fill="#FFFFFF" fill-rule="nonzero" stroke="#FFFFFF">
                        <path d="M29.3184716,0 C33.831055,0 35.2277988,1.53836898 35.2277988,5.86051463 L35.2277988,5.86051463 L35.2277988,13.7821911 C35.2277988,16.0921938 32.2975415,15.8284513 32.2975415,13.7821911 L32.2975415,13.7821911 L32.2975415,5.86051463 C32.2975415,3.68968789 31.5918649,2.93030028 29.3257763,2.93030028 L29.3257763,2.93030028 L5.88384669,2.93030028 C3.45662512,2.93030028 2.95358937,3.25995692 2.95358937,5.86051463 L2.95358937,5.86051463 L2.95358937,35.1507128 C2.95358937,36.7574451 3.83268805,38.0809701 5.88384669,38.0809701 L5.88384669,38.0809701 L16.7443221,38.0809829 C18.5317812,38.0809829 18.6612462,41.0234004 16.7394666,41.0234004 L16.7394666,41.0234004 L15.8850029,41.0239388 C15.8001199,41.0240226 15.7120687,41.0241145 15.6210376,41.0242136 L15.0406001,41.0248844 C14.7340094,41.0252534 14.4039909,41.0256662 14.0556312,41.0260924 L13.3359636,41.0269538 C12.9654094,41.0273846 12.5799048,41.0278086 12.1845362,41.0281955 L11.3821542,41.0289111 C11.2467343,41.0290192 11.1105951,41.0291209 10.973925,41.0292151 L7.29217294,41.0291243 C6.37541134,41.0282056 5.51571651,41.0264259 4.77770462,41.0234004 C2.72769755,41.0745634 0.890055178,39.7662278 0.267570449,37.8123419 C0.0995224798,37.2583538 0.0171582511,36.6819273 0.02300906,36.1030303 L0.02300906,36.1030303 L0.02300906,5.73104964 C0.02300906,0.35161369 3.0097496,0 5.88384669,0 Z M13.5464298,17.5546025 C15.8808818,17.5570517 15.560979,20.5117153 13.5464298,20.5239184 L13.5464298,20.5239184 L8.82630715,20.5239184 C6.6286249,20.5239184 6.72139454,17.5546025 8.82630715,17.5546025 L8.82630715,17.5546025 Z M26.4077651,8.76877192 C28.7421741,8.77117818 28.4223143,11.7380879 26.4077651,11.7380879 L26.4077651,11.7380879 L8.82630715,11.7380879 C6.6286249,11.7380879 6.72139454,8.76877192 8.82630715,8.76877192 L8.82630715,8.76877192 Z" id="形状结合" stroke-width="2"></path>
                        <g id="审核" transform="translate(15.227799, 17.000000)">
                            <path d="M23.2918438,20.7222493 L18.7940417,16.1120409 C19.8549327,14.4742593 20.4171537,12.562702 20.4147088,10.6120345 C20.4147088,5.0973757 16.0587037,0.624022835 10.685799,0.624022835 C5.31289432,0.624022835 0.956889255,5.0973757 0.956889255,10.6120345 C0.956889255,16.1266932 5.31289432,20.5975969 10.685799,20.5975969 C12.5998012,20.5975969 14.4673585,20.0182614 16.0464576,18.9353746 L20.536912,23.5480323 L20.536912,23.5480323 C21.0825384,24.1096431 21.9801352,24.1226068 22.541746,23.5769785 C22.5515335,23.5674696 22.5611832,23.5578199 22.5706921,23.5480323 L23.2893582,22.8098112 L23.2893583,22.8098111 C23.8487261,22.2263721 23.8487261,21.3056925 23.2893581,20.7222536 L23.2918438,20.7222493 Z M15.941386,13.1786898 C15.3742752,14.4058014 14.4013842,15.4031373 13.1889379,16.0020278 C12.4116022,16.3931393 11.5560461,16.5960285 10.6882697,16.6009184 C7.46160073,16.6009184 4.85091527,13.9193602 4.85091527,10.612013 C4.85091527,7.29978881 7.46402847,4.61820912 10.6882697,4.61820912 C13.9100532,4.61820912 16.5256242,7.29976732 16.5256242,10.6095638 C16.5256242,11.5335648 16.3056239,12.3989006 15.9414032,13.176232 L15.941386,13.1786898 Z" id="形状"></path>
                        </g>
                    </g>
                </g>
            </g>
        </g>
    </g>
</svg>