<?xml version="1.0" encoding="UTF-8"?>
<svg width="96px" height="96px" viewBox="0 0 96 96" version="1.1" xmlns="http://www.w3.org/2000/svg" xmlns:xlink="http://www.w3.org/1999/xlink">
    <title>标养台账</title>
    <defs>
        <linearGradient x1="0%" y1="0%" x2="100%" y2="100%" id="linearGradient-1">
            <stop stop-color="#EE9AE5" offset="0%"></stop>
            <stop stop-color="#5961F9" offset="100%"></stop>
        </linearGradient>
    </defs>
    <g id="页面-1" stroke="none" stroke-width="1" fill="none" fill-rule="evenodd">
        <g id="菜单页" transform="translate(-300.000000, -1432.000000)">
            <g id="编组-24" transform="translate(300.000000, 1432.000000)">
                <g id="编组-13" transform="translate(0.000000, 0.000000)">
                    <rect id="矩形备份-4" fill="url(#linearGradient-1)" x="0" y="0" width="96" height="96" rx="24"></rect>
                    <g id="台账" transform="translate(23.000000, 26.000000)" fill="#FFFFFF" fill-rule="nonzero">
                        <path d="M15.3428179,25.0360304 C14.1328164,24.7940301 13.3342155,23.6324288 13.5762158,22.4224274 L13.5762158,22.3982273 C13.8424161,21.1882259 15.0282175,20.413825 16.2382189,20.6800253 C17.4482203,20.9220256 18.2468212,22.083627 18.004821,23.2936284 L18.004821,23.3178284 C17.7628207,24.5278298 16.5528193,25.3022307 15.3428179,25.0360304 M17.5934205,16.5902206 C17.8596208,15.3802192 19.0454222,14.6058183 20.2554236,14.8720186 C21.465425,15.1140189 22.2640259,16.2756202 22.0220256,17.4856216 L22.0220256,17.5098217 C21.7558253,18.7198231 20.5700239,19.494224 19.3600225,19.2280237 C18.1500211,18.9860234 17.3514202,17.824422 17.5934205,16.5902206 M21.5864251,10.7822138 C21.8526254,9.57221242 23.0384268,8.79781152 24.2484282,9.06401183 C25.4584296,9.30601211 26.2570306,10.4676135 26.0150303,11.6776149 L26.0150303,11.7018149 C25.74883,12.9118163 24.5630286,13.6862172 23.3530272,13.4200169 C22.1430258,13.1780166 21.3686249,11.9922152 21.5864251,10.7822138 M45.2782527,19.0102234 L34.6302403,35.0790421 C33.9526395,36.0954433 30.0322349,41.7824499 27.2008317,43.3312517 C24.6356287,44.8316534 21.489625,44.8558535 18.900222,43.3796518 C18.8518219,43.3554517 18.7792219,43.3070517 18.7308218,43.2828516 L2.25060262,31.9088384 C2.17800253,31.8604384 2.12960248,31.8120383 2.08120242,31.7636382 C-0.0968001126,29.7066358 -0.411400479,26.6332323 0.435600507,23.5356287 C0.701800817,22.7128277 1.62140189,22.2530272 2.44420284,22.5192275 C2.58940301,22.5676275 2.71040315,22.6402276 2.83140329,22.7128277 L5.78380673,24.67303 L5.7596067,24.69723 C5.7596067,24.69723 11.156213,28.4240344 13.0438152,29.5130356 C14.4716168,30.3358366 17.23042,31.7394382 18.924422,32.5622392 C19.6746229,32.9252396 19.9892233,33.7964406 19.6746229,34.5466415 C19.2390224,35.5146426 19.1422223,36.6036439 19.4326226,37.6200451 L19.4326225,37.6200448 C19.6001553,38.0746646 19.8643714,38.4875024 20.2070234,38.8300463 C20.2796235,38.9026463 20.3280236,38.9752464 20.3764236,39.0478465 C20.8604242,39.6770472 21.538025,40.1368478 22.2882259,40.3788481 C25.3858295,41.4436493 29.7660346,34.8854417 29.7660346,34.8854417 L42.9550499,15.6706193 C43.4390505,14.9688185 43.2696503,14.0008174 42.5436494,13.5168168 C42.4710493,13.4684167 42.3984493,13.4200167 42.3258492,13.3958167 L24.2000281,4.82900669 C23.4982273,4.49020629 22.6270263,4.73220657 22.1914257,5.38560733 L10.9868127,22.2288269 C10.6722123,22.9064277 9.89781144,23.2452281 9.19601062,23.0516279 C7.42940857,22.253027 8.66361,20.4864249 9.07501048,19.8330241 L21.1508245,1.92500331 C21.2718247,1.73140308 21.4654249,1.56200288 21.6590251,1.44100274 C22.3608259,1.00540224 23.1836269,0.811802011 24.0064279,0.908602124 C24.127428,0.932802152 24.2484281,0.95700218 24.3694283,1.00540224 L44.8910522,9.83841251 C50.747459,12.3552154 48.0854559,14.8478183 45.2782526,19.0102232 L45.2782527,19.0102234 Z M35.4530413,18.8408232 L29.5482344,16.1546201 C28.5560332,15.6948195 28.1204327,14.5332182 28.5560332,13.541017 L28.5560332,13.516817 L28.6044333,13.4200169 C29.0884338,12.4278157 30.2742352,11.9922152 31.2664364,12.4520158 L37.1712433,15.1624189 C38.1634444,15.6222195 38.5990449,16.7838208 38.1634444,17.776022 L38.1634444,17.800222 L38.1150444,17.8970221 C37.6310438,18.8650232 36.4452424,19.3006237 35.4530413,18.8408232 M31.1696363,25.0844305 L25.3858295,22.1562271 C24.4178284,21.6722265 24.0064279,20.4864251 24.5146285,19.494224 L24.5146285,19.4700239 L24.5630286,19.3974239 C25.0712292,18.4294227 26.2812306,18.0422223 27.2734317,18.5504229 L33.0572385,21.4786263 C34.0252396,21.9626268 34.4366401,23.1484282 33.9284395,24.1406294 L33.9284395,24.1648294 L33.8800394,24.2616295 C33.3476388,25.1812306 32.1618374,25.568431 31.1696363,25.0844305 M26.8620313,31.3522378 L21.1508246,28.2788342 C20.1828235,27.7706336 19.8198231,26.5606322 20.3522237,25.6168311 L20.3522237,25.5926311 L20.4006237,25.520031 C20.9572244,24.5520298 22.1672258,24.2132295 23.1352269,24.7456301 L28.8464336,27.8190337 C29.8144347,28.3272342 30.1774351,29.5372357 29.6450345,30.4810367 L29.6450345,30.5052368 L29.5966344,30.5778369 C29.0642338,31.521638 27.8300324,31.8846384 26.8620313,31.3522378" id="形状"></path>
                    </g>
                </g>
            </g>
        </g>
    </g>
</svg>