<?xml version="1.0" encoding="UTF-8"?>
<svg width="96px" height="96px" viewBox="0 0 96 96" version="1.1" xmlns="http://www.w3.org/2000/svg">
    <title>使用登记</title>
    <defs>
        <linearGradient x1="0%" y1="0%" x2="100%" y2="100%" id="usageGradient">
            <stop stop-color="#60A5FA" offset="0%"></stop>
            <stop stop-color="#2563EB" offset="100%"></stop>
        </linearGradient>
    </defs>
    <g stroke="none" stroke-width="1" fill="none" fill-rule="evenodd">
        <rect fill="url(#usageGradient)" x="0" y="0" width="96" height="96" rx="22"></rect>
        <g transform="translate(22, 22)">
            <!-- 文档图标 - 圆润 -->
            <rect x="6" y="4" width="32" height="40" rx="6" stroke="#FFFFFF" stroke-width="3" fill="none"></rect>
            <line x1="14" y1="14" x2="30" y2="14" stroke="#FFFFFF" stroke-width="2.5" stroke-linecap="round"></line>
            <line x1="14" y1="22" x2="26" y2="22" stroke="#FFFFFF" stroke-width="2.5" stroke-linecap="round" opacity="0.7"></line>
            <!-- 使用标记 - 手形/触摸图标 -->
            <circle cx="40" cy="40" r="10" fill="#FFFFFF" opacity="0.95"></circle>
            <path d="M38 44V38C38 36.8954 38.8954 36 40 36C41.1046 36 42 36.8954 42 38V44" stroke="#2563EB" stroke-width="2" stroke-linecap="round" fill="none"></path>
            <path d="M42 44V40C42 38.8954 42.8954 38 44 38C45.1046 38 46 38.8954 46 40V44" stroke="#2563EB" stroke-width="2" stroke-linecap="round" fill="none"></path>
            <path d="M38 44H46" stroke="#2563EB" stroke-width="2" stroke-linecap="round"></path>
        </g>
    </g>
</svg>
