<svg xmlns="http://www.w3.org/2000/svg" xmlns:xlink="http://www.w3.org/1999/xlink" fill="none" version="1.1" width="40" height="40" viewBox="0 0 40 40"><defs><linearGradient x1="-5.275942349669549e-9" y1="0.05000000074505806" x2="0.9374999403953552" y2="1" id="master_svg0_3140_017758"><stop offset="0%" stop-color="#FFC453" stop-opacity="1"/><stop offset="100%" stop-color="#FF8237" stop-opacity="1"/></linearGradient><clipPath id="master_svg1_3170_020602"><rect x="8" y="8" width="24" height="24" rx="0"/></clipPath></defs><g><g><rect x="0" y="0" width="40" height="40" rx="8" fill="url(#master_svg0_3140_017758)" fill-opacity="1"/></g><g clip-path="url(#master_svg1_3170_020602)"><g><path d="M28.691406,30.999924L11.3089569,30.999924C10.59501392,31.007467,10.0095477011,30.4412,10,29.733896L10,10.2650026C10.010152994,9.55813038,10.59544134,8.9925293997,11.3089572,9.000074519703L28.682152,9.000074519703C29.031199,8.999346442,29.366549,9.13458635,29.61585,9.37661979C29.86268,9.61385483,30.001373,9.9404313,29.999989,10.2811352L29.999989,29.733896C29.990444,30.441055,29.405203,31.007267,28.691406,30.999924ZM13.1460125,25.500237C12.839432,25.500237,12.590899499999999,25.746466,12.590899,26.050205L12.590899,26.416851C12.590899499999999,26.720591,12.8394315,26.96682,13.1460125,26.96682L20.547522999999998,26.96682C20.854104,26.96682,21.102636,26.720591,21.102636,26.416851L21.102636,26.050205C21.102635,25.746466,20.854104,25.500237,20.547522999999998,25.500237L13.1460125,25.500237ZM13.1460125,22.200422C12.839432,22.200426999999998,12.590899499999999,22.446652,12.590899,22.750393000000003L12.590899,23.117038C12.5908997,23.420779,12.839432500000001,23.667006999999998,13.1460125,23.667006999999998L22.397902000000002,23.667006999999998C22.70448,23.667006,22.953012,23.420776,22.953012,23.117038L22.953012,22.750393000000003C22.953012,22.446652,22.70448,22.200422,22.397902000000002,22.200422L13.1460125,22.200422ZM22.985208999999998,17.5165224C23.059596,17.5165224,23.133240999999998,17.5322886,23.200964,17.562720300000002L25.801116,18.625993700000002C25.849225,18.641393700000002,25.898815,18.6494589,25.949146,18.6494589C26.004047,18.6510906,26.058298,18.6373672,26.105688,18.6098614C26.174688,18.5473557,26.210161,18.4564409,26.201538,18.3642073L26.201538,10.3112L20.050883,10.3112L20.050883,18.4107752C20.059224999999998,18.4860544,20.092546,18.5564632,20.145623,18.6109629C20.190030999999998,18.6391954,20.242581,18.6527605,20.295504,18.6498289C20.32548,18.6498289,20.355824,18.6472607,20.385432,18.6424952L22.76983,17.562355C22.83745,17.5318308,22.910905,17.516077,22.985213,17.5161581L22.985208999999998,17.5165224Z" fill="#FFFFFF" fill-opacity="1" style="mix-blend-mode:passthrough"/></g></g></g></svg>