<?xml version="1.0" encoding="UTF-8"?>
<svg width="96px" height="96px" viewBox="0 0 96 96" version="1.1" xmlns="http://www.w3.org/2000/svg" xmlns:xlink="http://www.w3.org/1999/xlink">
    <title>温湿度</title>
    <defs>
        <linearGradient x1="11.6759566%" y1="8.45154044%" x2="93.100359%" y2="85.4955684%" id="linearGradient-1">
            <stop stop-color="#46E3E1" offset="0%"></stop>
            <stop stop-color="#2BA857" offset="100%"></stop>
        </linearGradient>
    </defs>
    <g id="页面-1" stroke="none" stroke-width="1" fill="none" fill-rule="evenodd">
        <g id="首页" transform="translate(-235.000000, -1247.000000)">
            <g id="编组-11" transform="translate(235.000000, 1247.000000)">
                <rect id="矩形备份-2" fill="url(#linearGradient-1)" x="0" y="0" width="96" height="96" rx="24"></rect>
                <g id="任务" transform="translate(26.000000, 24.000000)" fill="#FFFFFF" fill-rule="nonzero">
                    <path d="M32.8035919,0 C38.7702695,0 43.6071556,4.83693336 43.6071556,10.8035637 L43.6071556,37.5964453 C43.6071556,43.563123 38.7702223,48.4000091 32.8035919,48.4000091 L11.1964172,48.4000091 C5.2297395,48.4000091 0.392853408,43.5630757 0.392853408,37.5964453 L0.392853408,10.8035637 C0.392853408,4.8368861 5.22978677,0 11.1964172,0 L32.8035919,0 Z M32.8035924,5.4018055 L11.1964172,5.4018055 C8.24293133,5.4018055 5.8430117,7.77211318 5.79532063,10.7142316 L5.79461841,10.8035775 L5.79461841,37.596459 C5.79461841,40.5499448 8.16492609,42.9498645 11.1070445,42.9975555 L11.1963904,42.9982578 L32.8035651,42.9982578 C35.7570509,42.9982578 38.1569706,40.6279501 38.2046616,37.6858317 L38.2053638,37.5964858 L38.2053638,10.8036042 C38.2053638,7.85011843 35.8350562,5.4501988 32.8929377,5.40250773 L32.8035924,5.4018055 Z M18.4348252,23.5223234 C19.9264781,23.5223234 21.1357232,24.7315686 21.1357232,26.2232214 C21.1357232,27.7148743 19.9264781,28.9241195 18.4348252,28.9241195 L13.4651698,28.9241195 C11.9735169,28.9241195 10.7642718,27.7148743 10.7642718,26.2232214 C10.7642718,24.7315686 11.9735169,23.5223234 13.4651698,23.5223234 L18.4348252,23.5223234 Z M24.0526821,12.5714136 C25.544335,12.5714136 26.7535801,13.7806588 26.7535801,15.2723117 C26.7535801,16.7639645 25.544335,17.9732097 24.0526821,17.9732097 L13.2491184,17.9732097 C11.7574655,17.9732097 10.5482203,16.7639645 10.5482203,15.2723117 C10.5482203,13.7806588 11.7574655,12.5714136 13.2491184,12.5714136 L24.0526821,12.5714136 Z" id="形状结合"></path>
                </g>
            </g>
        </g>
    </g>
</svg>