<svg xmlns="http://www.w3.org/2000/svg" xmlns:xlink="http://www.w3.org/1999/xlink" fill="none" version="1.1" width="40" height="40" viewBox="0 0 40 40"><defs><linearGradient x1="-5.275942349669549e-9" y1="0.05000000074505806" x2="0.9374999403953552" y2="1" id="master_svg0_0_67200"><stop offset="0%" stop-color="#FFC453" stop-opacity="1"/><stop offset="100%" stop-color="#FF8237" stop-opacity="1"/></linearGradient></defs><g><g><rect x="0" y="0" width="40" height="40" rx="8" fill="url(#master_svg0_0_67200)" fill-opacity="1"/></g><g><path d="M20.9268,7.500924864L20.9268,12.75049C20.9268,14.7235,22.4741,16.34996,24.445,16.448610000000002L24.6301,16.453229999999998L30,16.453229999999998L30,28.7973C30,29.1527,29.9491,29.4962,29.8556,29.8211L27.9095,27.8975C28.2649,27.3196,28.4528,26.6542,28.452,25.9758C28.452,23.9254,26.767,22.2628,24.6894,22.2628C22.6109,22.2628,20.9268,23.9254,20.9268,25.9748C20.9268,28.0262,22.611800000000002,29.6887,24.6894,29.6887C25.5226,29.6887,26.292,29.4212,26.916,28.9694L27.0827,28.8408L29.2704,31.0032C28.5724,31.9456,27.4686,32.501000000000005,26.2957,32.5L13.70336,32.5C11.65805,32.5,10.000000273715,30.8422,10,28.7973L10,11.203669999999999C9.999999726285,9.1587,11.65805,7.500924864,13.70336,7.500924727L20.9268,7.500924864ZM24.6894,23.9133C25.843899999999998,23.9133,26.779,24.8372,26.779,25.9767C26.779,27.1153,25.843899999999998,28.0391,24.6894,28.0391C23.5349,28.0391,22.5988,27.1162,22.5988,25.9767C22.5988,24.8381,23.5349,23.9143,24.6894,23.9143L24.6894,23.9133ZM19.34265,21.9009L15.18008,21.9009L15.18008,23.8745L19.34358,23.8745L19.34358,21.9009L19.34265,21.9009ZM24.8199,18.238L15.17915,18.238L15.17915,20.2115L24.8199,20.2115L24.8199,18.238ZM22.322,7.5L29.3306,13.777999999999999C29.7084,14.11588,29.9463,14.5778,29.9991,15.07581L23.021,15.076740000000001L22.939500000000002,15.07211C22.6214,15.03875,22.367800000000003,14.79131,22.3266,14.47412L22.322,14.39451L22.322,7.500924864L22.322,7.5Z" fill="#FFFFFF" fill-opacity="1" style="mix-blend-mode:passthrough"/></g></g></svg>