<?xml version="1.0" encoding="UTF-8"?>
<svg width="96px" height="96px" viewBox="0 0 96 96" version="1.1" xmlns="http://www.w3.org/2000/svg" xmlns:xlink="http://www.w3.org/1999/xlink">
    <title>设备授权</title>
    <defs>
        <linearGradient x1="12.2225356%" y1="17.2208647%" x2="90.4283151%" y2="82.935083%" id="linearGradient-1">
            <stop stop-color="#59C6FF" offset="0%"></stop>
            <stop stop-color="#1965FA" offset="100%"></stop>
        </linearGradient>
    </defs>
    <g id="页面-1" stroke="none" stroke-width="1" fill="none" fill-rule="evenodd">
        <g id="菜单页" transform="translate(-524.000000, -958.000000)">
            <g id="编组-15" transform="translate(524.000000, 958.000000)">
                <rect id="矩形备份-6" fill="url(#linearGradient-1)" x="0" y="0" width="96" height="96" rx="24"></rect>
                <g id="授权-" transform="translate(27.000000, 23.000000)" fill="#FFFFFF" fill-rule="nonzero" stroke="#FFFFFF" stroke-width="2">
                    <path d="M31.5857891,23.4286351 C35.9857942,23.4286351 39.91435,25.6286248 41.9572113,29.2429153 L41.9572113,29.2429153 L39.1286354,30.8143445 C37.7143603,28.1429097 34.728626,26.5714806 31.5857633,26.5714806 L31.5857633,26.5714806 L11.6286034,26.5714806 C6.91429867,26.5714806 3.14286694,30.0286213 3.14286694,34.4286351 L3.14286694,34.4286351 L3.14289272,39.1429311 C3.14289272,41.8143487 5.50004937,43.85721 8.32862532,43.85721 L8.32862532,43.85721 L19.9572287,43.85721 L19.9572287,47.0000727 L8.32862532,47.0000727 C3.77145751,47.0000727 2.578128e-05,43.5429319 2.578128e-05,39.1429268 L2.578128e-05,39.1429268 L2.578128e-05,34.4286479 C2.578128e-05,28.3000509 5.18575838,23.4286351 11.6286292,23.4286351 L11.6286292,23.4286351 Z M41.4859467,33.9571603 C42.1145201,33.485732 43.2145214,33.6428732 43.6859493,34.2714465 C44.1573772,34.8999946 44.000236,35.9999959 43.3716626,36.4714238 L43.3716626,36.4714238 L29.5430566,47.0000258 L24.0430502,41.3428825 C23.4144769,40.7143092 23.4144769,39.7714534 24.0430502,39.14288 C24.6716236,38.5143066 25.6144794,38.5143066 26.2430528,39.14288 L26.2430528,39.14288 L29.8573433,42.7571705 Z M20.4286136,-4.29688e-05 C25.6143505,-4.29688e-05 29.8572144,4.24282525 29.8572144,9.42855785 C29.8572144,14.6142947 25.6143462,18.8571587 20.4286136,18.8571587 C15.2428767,18.8571587 11.0000128,14.6142904 11.0000128,9.42855785 C11.0000128,4.24282095 15.242881,-4.29688e-05 20.4286136,-4.29688e-05 Z M20.4286136,3.14286694 C16.9714557,3.14286694 14.1428797,5.97145578 14.1428797,9.42860082 C14.1428797,12.8857587 16.9714686,15.7143347 20.4286136,15.7143347 C23.8857715,15.7143347 26.7143475,12.8857459 26.7143475,9.42860082 C26.7143475,5.97144289 23.8857587,3.14286694 20.4286136,3.14286694 Z" id="形状结合"></path>
                </g>
            </g>
        </g>
    </g>
</svg>