<svg xmlns="http://www.w3.org/2000/svg" xmlns:xlink="http://www.w3.org/1999/xlink" fill="none" version="1.1" width="40" height="40" viewBox="0 0 40 40"><defs><linearGradient x1="-5.275942349669549e-9" y1="0.05000000074505806" x2="0.9374999403953552" y2="1" id="master_svg0_3140_017758"><stop offset="0%" stop-color="#FFC453" stop-opacity="1"/><stop offset="100%" stop-color="#FF8237" stop-opacity="1"/></linearGradient><clipPath id="master_svg1_3140_019444"><rect x="8" y="8" width="24" height="24" rx="0"/></clipPath></defs><g><g><g><rect x="0" y="0" width="40" height="40" rx="8" fill="url(#master_svg0_3140_017758)" fill-opacity="1"/></g><g clip-path="url(#master_svg1_3140_019444)"><g></g><g><path d="M12.1010938,29.056924671875L21.647969,30.235051671875L21.647562999999998,30.234643671875C22.501883,30.340604671875,23.256023,29.674447671875,23.256312,28.813581671875L23.256312,11.187207571875C23.256268,10.326179681875,22.502045000000003,9.659759059875,21.647562999999998,9.765738639875L12.1006877,10.944269771875C11.38289446,11.033063171875,10.843815956119,11.642880471875,10.84375,12.366144871875L10.84375,27.635049671875C10.843840999609,28.358451671875,11.38313937,28.968320671875,12.1010938,29.056924671875ZM19.662841800000002,20.873310671875C19.662841800000002,21.221077671875,19.9447622,21.502998671874998,20.2925291,21.502998671874998C20.6402969,21.502998671874998,20.922216,21.221077671875,20.922216,20.873310671875L20.922216,19.128466571875002C20.922216,18.780699771875,20.6402969,18.498779271875,20.2925291,18.498779271875C19.9447622,18.498779271875,19.662841800000002,18.780699771875,19.662841800000002,19.128466571875002L19.662841800000002,20.873310671875Z" fill-rule="evenodd" fill="#FFFFFF" fill-opacity="1" style="mix-blend-mode:passthrough"/></g><g><path d="M27.646364734375,18.05366226703125L27.644333334375,18.58991230703125C27.643216634375,18.80675030703125,27.467116834375,18.98194260703125,27.250270834375,18.98194360703125L25.006552754375,18.98194360703125C24.824817364375,18.98194360703125,24.677490234375,19.12926970703125,24.677490234375,19.31100610703125L24.677490234375,20.816974907031252C24.677490234375,20.99864480703125,24.824882824375,21.14585470703125,25.006552754375,21.14563060703125L30.667646934375,21.14563060703125C31.099085334375,21.14563060703125,31.318053234375,20.62644290703125,31.017022134375,20.31728720703125L28.484459634375,17.71485017703125C28.179772134375,17.40325659703125,27.649209034375,17.61735016503125,27.646364734375,18.05366226703125Z" fill="#FFFFFF" fill-opacity="1" style="mix-blend-mode:passthrough"/></g><g><path d="M25.015009795625,17.85500619765625L26.546979065625,17.85500619765625C26.590293765625,17.47799019765625,26.767627465625,17.129087897656248,27.046666365625,16.87188149765625C27.213229165625002,16.716694397656248,27.410666965625,16.59888169765625,27.625979665625,16.52575639765625L27.625979665625,12.80978779765625C27.625979665625,11.57353309765625,26.623797665625,10.57135034561159,25.387541885625,10.57135009765625L25.026385995625,10.57135009765625C24.836218115625,10.57157424927625,24.682110900905,10.72568072765625,24.6818867492677,10.91585007765625L24.6818867492677,17.89441299765625C24.791020825625,17.86842729765625,24.902826855625,17.85533859765625,25.015011755625,17.855412997656252L25.015009795625,17.85500619765625ZM25.015009795625,22.25753809765625C24.902824865625,22.25761209765625,24.791018845625,22.24452309765625,24.681884765625,22.218537097656252L24.681884765625,29.08578909765625C24.682106933615,29.27589009765625,24.836279615625,29.42988209765625,25.026383995625,29.42988209765625L25.387539865625,29.42988209765625C26.623795665625,29.42988209765625,27.625977565625,28.42770209765625,27.625977565625,27.19144609765625L27.625977565625,22.25753809765625L25.015009795625,22.25753809765625Z" fill="#FFFFFF" fill-opacity="1" style="mix-blend-mode:passthrough"/></g></g></g></g></svg>