<svg xmlns="http://www.w3.org/2000/svg" xmlns:xlink="http://www.w3.org/1999/xlink" fill="none" version="1.1" width="40" height="40" viewBox="0 0 40 40"><defs><linearGradient x1="1.037500023841858" y1="1" x2="0" y2="2.220446049250313e-16" id="master_svg0_0_67188"><stop offset="0%" stop-color="#2CAB60" stop-opacity="1"/><stop offset="100%" stop-color="#42DCB7" stop-opacity="1"/></linearGradient></defs><g><g><g><rect x="0" y="0" width="40" height="40" rx="8" fill="url(#master_svg0_0_67188)" fill-opacity="1"/></g><g><path d="M8,10.31579C8,9.03682,9.03682,8,10.31579,8C10.31579,8,27.6842,8,27.6842,8C28.9632,8,30,9.03682,30,10.31579C30,10.31579,30,27.6842,30,27.6842C30,28.9632,28.9632,30,27.6842,30C27.6842,30,10.31579,30,10.31579,30C9.03682,30,8,28.9632,8,27.6842C8,27.6842,8,10.31579,8,10.31579ZM23.6316,9.15789C23.311799999999998,9.15789,23.052599999999998,9.4171,23.052599999999998,9.73684C23.052599999999998,9.73684,23.052599999999998,28.2632,23.052599999999998,28.2632C23.052599999999998,28.5829,23.311799999999998,28.8421,23.6316,28.8421C23.9513,28.8421,24.2105,28.5829,24.2105,28.2632C24.2105,28.2632,24.2105,9.73684,24.2105,9.73684C24.2105,9.4171,23.9513,9.15789,23.6316,9.15789ZM13.549669999999999,13.549669999999999C13.097480000000001,14.001850000000001,13.097480000000001,14.73499,13.549669999999999,15.18718C13.549669999999999,15.18718,16.20459,17.842109999999998,16.20459,17.842109999999998C16.20459,17.842109999999998,13.549669999999999,20.497,13.549669999999999,20.497C13.097480000000001,20.949199999999998,13.097480000000001,21.6824,13.549669999999999,22.1345C14.001850000000001,22.5867,14.73499,22.5867,15.18718,22.1345C15.18718,22.1345,18.660899999999998,18.660899999999998,18.660899999999998,18.660899999999998C19.113,18.2087,19.113,17.475540000000002,18.660899999999998,17.02335C18.660899999999998,17.02335,15.18718,13.549669999999999,15.18718,13.549669999999999C14.73499,13.097480000000001,14.001850000000001,13.097480000000001,13.549669999999999,13.549669999999999Z" fill="#FFFFFF" fill-opacity="1"/></g></g></g></svg>