<?xml version="1.0" encoding="UTF-8"?>
<svg width="96px" height="96px" viewBox="0 0 96 96" version="1.1" xmlns="http://www.w3.org/2000/svg" xmlns:xlink="http://www.w3.org/1999/xlink">
    <title>设备外出管理</title>
    <defs>
        <linearGradient x1="11.6759566%" y1="8.45154044%" x2="93.100359%" y2="85.4955684%" id="linearGradient-1">
            <stop stop-color="#46E3E1" offset="0%"></stop>
            <stop stop-color="#2BA857" offset="100%"></stop>
        </linearGradient>
    </defs>
    <g id="页面-1" stroke="none" stroke-width="1" fill="none" fill-rule="evenodd">
        <g id="菜单页" transform="translate(-300.000000, -958.000000)">
            <g id="编组-18" transform="translate(300.000000, 958.000000)">
                <g id="设备外出管理" transform="translate(0.000000, 0.000000)">
                    <rect id="矩形备份-5" fill="url(#linearGradient-1)" x="0" y="0" width="96" height="96" rx="24"></rect>
                    <g id="外出管理" transform="translate(22.000000, 25.000000)" fill="#FFFFFF" fill-rule="nonzero" stroke="#FFFFFF" stroke-width="2.288">
                        <path d="M15.8125321,0.858003661 C13.206068,0.858003661 11.0935118,2.97054512 11.0935118,5.57700915 L11.0935118,12.1431218 C11.0935118,13.0119448 11.7977054,13.7161237 12.6665284,13.7161237 C13.5353514,13.7161237 14.2395302,13.0119448 14.2395302,12.1431218 L14.2395302,5.57700915 C14.2395302,4.70818617 14.9437091,4.00400732 15.8125321,4.00400732 L36.4088773,4.00400732 L31.5425356,6.83541062 C28.396532,8.35597741 27.0332653,9.03761318 26.8235301,12.340917 L26.8235301,41.7560513 L15.8125173,41.7560513 C14.9436943,41.7560513 14.2395155,41.0518724 14.2395155,40.1830494 L14.2395155,33.6169367 C14.2395155,32.7481138 13.5353366,32.0439349 12.6665137,32.0439349 C11.7976907,32.0439349 11.0935118,32.7481138 11.0935118,33.6169367 L11.0935118,40.1830494 C11.0935118,42.7895135 13.2060533,44.9020549 15.8125173,44.9020549 L39.4075448,44.9020549 C42.0140088,44.9020549 44.1265503,42.7895135 44.1265503,40.1830494 L44.1265503,5.57700915 C44.1265503,2.97054512 42.0140088,0.858003661 39.4075448,0.858003661 L15.8125321,0.858003661 Z M40.9805776,40.1830494 C40.9805776,41.0518724 40.2763825,41.7560513 39.4075595,41.7560513 L29.9695485,41.7560513 L29.9695485,12.550667 C29.9695485,11.7641661 30.0744152,10.5057646 31.5425504,9.98142902 L40.921328,4.62167107 C40.95908,4.72391619 40.9805776,4.83402632 40.9805776,4.94885545 L40.9805776,40.1830642 L40.9805776,40.1830494 Z M5.41238468,24.4530311 L20.5315376,24.4530311 C21.4003605,24.4530311 22.1045394,23.7488523 22.1045394,22.8800293 C22.1045394,22.0112063 21.4003605,21.3070275 20.5315376,21.3070275 L5.449596,21.3070275 L8.34444534,18.4121781 C8.95896309,17.7976604 8.95896309,16.8019502 8.34444534,16.1874276 C7.7299276,15.5729098 6.73421744,15.5729098 6.11969478,16.1874276 L0.521381269,21.7862818 C-0.0931364741,22.4007995 -0.0931364741,23.3965097 0.521381269,24.0110323 L6.08297502,29.5726261 L6.08297488,29.572626 C6.37755045,29.868166 6.77781403,30.0340454 7.19508718,30.0335168 C7.59777565,30.0335168 8.00046412,29.8798858 8.30719947,29.572626 C8.92171722,28.9586293 8.92171722,27.9623981 8.30719947,27.3478754 L5.41235013,24.4530261 L5.41238468,24.4530311 Z" id="形状"></path>
                    </g>
                </g>
            </g>
        </g>
    </g>
</svg>