<?xml version="1.0" encoding="UTF-8"?>
<svg width="96px" height="96px" viewBox="0 0 96 96" version="1.1" xmlns="http://www.w3.org/2000/svg" xmlns:xlink="http://www.w3.org/1999/xlink">
    <title>设备综合管理</title>
    <defs>
        <linearGradient x1="0%" y1="0%" x2="100%" y2="100%" id="linearGradient-1">
            <stop stop-color="#EE9AE5" offset="0%"></stop>
            <stop stop-color="#5961F9" offset="100%"></stop>
        </linearGradient>
    </defs>
    <g id="页面-1" stroke="none" stroke-width="1" fill="none" fill-rule="evenodd">
        <g id="菜单页" transform="translate(-76.000000, -958.000000)">
            <g id="编组-17" transform="translate(76.000000, 958.000000)">
                <g id="编组-13" transform="translate(0.000000, 0.000000)">
                    <rect id="矩形备份-4" fill="url(#linearGradient-1)" x="0" y="0" width="96" height="96" rx="24"></rect>
                    <g id="设备管理" transform="translate(26.000000, 27.000000)" fill="#FFFFFF" fill-rule="nonzero" stroke="#FFFFFF">
                        <path d="M43.5415741,30.6250368 L40.4469053,30.6250368 L40.4469053,22.6023751 L23.9468861,22.6023751 L23.9468861,17.333369 L37.5832496,17.333369 L37.5832496,17.333369 C38.0895123,17.333369 38.4999159,16.9229628 38.4999159,16.4167027 C38.4999159,16.4167027 38.4999159,16.4167027 38.4999159,16.4167026 L38.4999159,1.29168505 L38.4999159,1.29168505 C38.4999159,0.785422347 38.0895097,0.375018745 37.5832496,0.375018745 C37.5832496,0.375018745 37.5832496,0.375018745 37.5832496,0.375018745 L6.41656094,0.375018745 L6.4165609,0.375018745 C5.9102982,0.375018745 5.49990107,0.785424925 5.49990107,1.29168505 C5.49990107,1.29168505 5.49990107,1.29168505 5.49990107,1.29168505 L5.49990107,16.4167026 C5.49990107,16.9227032 5.9105616,17.3333689 6.4165609,17.3333689 L20.0529244,17.3333689 L20.0529244,22.6060274 L3.55290523,22.6060274 L3.55290523,30.6250368 L0.458236391,30.6250368 L0.458236371,30.6250368 C0.205105451,30.6250368 -9.89284121e-05,30.8302398 -9.89284121e-05,31.0833721 L-9.89284121e-05,41.1667314 C-9.89284121e-05,41.4197317 0.205234787,41.6250667 0.458236371,41.6250667 L10.5415958,41.6250667 L10.5415957,41.6250667 C10.7947267,41.6250667 10.999931,41.4198637 10.999931,41.1667314 C10.999931,41.1667314 10.999931,41.1667314 10.999931,41.1667314 L10.999931,31.083372 L10.999931,31.083372 C10.999931,30.8302411 10.7947279,30.6250367 10.5415957,30.6250367 L7.4469269,30.6250367 L7.4469269,26.5000319 L20.0565939,26.5000319 L20.0565939,30.6250367 L16.9619251,30.6250367 L16.9619251,30.6250367 C16.7087941,30.6250367 16.5035898,30.8302398 16.5035898,31.083372 L16.5035898,41.1667314 C16.5035898,41.4197317 16.7089235,41.6250667 16.9619251,41.6250667 L27.0452845,41.6250667 L27.0452844,41.6250667 C27.2969823,41.6230531 27.4999588,41.4184388 27.4999502,41.1667314 L27.4999502,31.083372 L27.4999502,31.083372 C27.4999502,30.8302411 27.2947471,30.6250367 27.0416149,30.6250367 L23.9469461,30.6250367 L23.9469461,26.5000319 L36.5566131,26.5000319 L36.5566131,30.6250367 L33.4619442,30.6250367 L33.4619443,30.6250367 C33.2088215,30.6230117 33.0019847,30.8265664 32.9999566,31.0796896 C32.9999468,31.0809167 32.9999419,31.0821438 32.9999419,31.0833709 L32.9999419,41.1667303 C32.9999419,41.4197306 33.2052757,41.6250667 33.4582772,41.6250667 L43.5416366,41.6250667 L43.5416366,41.6250667 C43.7947675,41.6250667 43.9999719,41.4198625 43.9999719,41.1667303 L43.9999719,31.0833709 L43.9999719,31.0833709 C43.9999719,30.83024 43.7947688,30.6250356 43.5416366,30.6250356 L43.5415741,30.6250368 Z M7.33318431,37.8043928 L7.33318431,37.8043928 C7.33318431,37.8894448 7.26423615,37.958393 7.17918414,37.958393 L3.81318022,37.958393 L3.81318022,37.958393 C3.72815227,37.9604181 3.65758203,37.8931311 3.65555691,37.8081032 C3.65551325,37.8068666 3.65551325,37.8056297 3.65551325,37.8043928 L3.65551325,34.4420541 C3.65551325,34.354054 3.72884682,34.2843874 3.81317997,34.2843874 L7.17551865,34.2843874 C7.25985222,34.2843874 7.32951882,34.357721 7.32951882,34.4420541 L7.32951882,37.8043928 L7.33318431,37.8043928 Z M23.8332035,37.8043928 L23.8332035,37.8043928 C23.8332035,37.8894448 23.7642553,37.958393 23.6792033,37.958393 L20.3131994,37.958393 L20.3131994,37.958393 C20.2281715,37.9604181 20.1576012,37.8931311 20.1555761,37.8081032 C20.1555325,37.8068666 20.1555325,37.8056297 20.1555325,37.8043928 L20.1555325,34.4420541 C20.1555325,34.354054 20.228866,34.2843874 20.3131992,34.2843874 L23.6755378,34.2843874 C23.7598714,34.2843874 23.829538,34.357721 23.829538,34.4420541 L23.829538,37.8043928 L23.8332035,37.8043928 Z M9.1665341,13.6667124 L9.1665341,4.04170118 L34.8332163,4.04170118 L34.8332163,13.6667124 L9.1665341,13.6667124 Z M40.3332227,37.8043928 L40.3332227,37.8043928 C40.3332227,37.8894448 40.2642745,37.958393 40.1792225,37.958393 L36.8168839,37.958393 L36.8168839,37.958393 C36.7318559,37.960418 36.6612857,37.8931311 36.6592606,37.8081032 C36.6592169,37.8068666 36.6592169,37.8056297 36.6592169,37.8043928 L36.6592169,34.4420542 C36.6592169,34.3540541 36.7325505,34.2843875 36.8168836,34.2843875 L40.1792223,34.2843875 C40.2635559,34.2843875 40.3332227,34.357721 40.3332227,34.4420542 L40.3332227,37.8043928 L40.3332227,37.8043928 Z M13.2915389,8.85235912 L13.2915389,8.85235947 C13.2915389,10.1180141 14.3175565,11.1440274 15.5832068,11.1440274 C16.8488614,11.1440274 17.8748747,10.1180098 17.8748747,8.85235947 L17.8748747,8.85235947 C17.8748747,7.58670487 16.8488614,6.56069157 15.5832068,6.56069157 C14.3175522,6.56069157 13.2915389,7.58670487 13.2915389,8.85235947 L13.2915389,8.85235912 Z" id="形状"></path>
                    </g>
                </g>
            </g>
        </g>
    </g>
</svg>