<svg xmlns="http://www.w3.org/2000/svg" xmlns:xlink="http://www.w3.org/1999/xlink" fill="none" version="1.1" width="40" height="40" viewBox="0 0 40 40"><defs><linearGradient x1="0.06250002980232239" y1="0.04999998211860657" x2="1" y2="0.9999999999999999" id="master_svg0_0_69279"><stop offset="0%" stop-color="#50B8FF" stop-opacity="1"/><stop offset="100%" stop-color="#2272FB" stop-opacity="1"/></linearGradient><clipPath id="master_svg1_2777_95083"><rect x="8" y="8" width="24" height="24" rx="0"/></clipPath><clipPath id="master_svg2_2777_95084"><rect x="8" y="8" width="24" height="24" rx="0"/></clipPath></defs><g><g><rect x="0" y="0" width="40" height="40" rx="8" fill="url(#master_svg0_0_69279)" fill-opacity="1"/></g><g clip-path="url(#master_svg1_2777_95083)"><g clip-path="url(#master_svg2_2777_95084)"><g><g><path d="M28.7586,15.42892L30,15.42892L26.092,10L13.72414,10L10,15.367650000000001L11.24138,15.367650000000001L11.24138,27.3529L10,27.3529L10,30L29.931,30L29.931,27.3529L28.6897,27.3529L28.6897,15.42892L28.7586,15.42892ZM20,27.549C18.1954,27.549,16.71264,25.9559,16.71264,24.0441C16.71264,22.5245,17.64368,21.201,18.95402,20.735300000000002L18.95402,20.2696L18.45977,20.2696L18.45977,18.01471L21.563200000000002,18.01471L21.563200000000002,20.2696L21.069000000000003,20.2696L21.069000000000003,20.735300000000002C22.367800000000003,21.201,23.367800000000003,22.5245,23.367800000000003,24.0441C23.287399999999998,25.9559,21.8046,27.549,20,27.549ZM26.2759,27.3529L25.0345,27.3529L25.0345,16.69118L15.03448,16.69118L15.03448,27.3529L13.793099999999999,27.3529L13.793099999999999,15.367650000000001L26.3448,15.367650000000001L26.3448,27.3529L26.2759,27.3529Z" fill="#FFFFFF" fill-opacity="1" style="mix-blend-mode:passthrough"/></g><g><path d="M20.54481,20.725270000000002C20.44302,20.66248,20.34123,20.66248,20.24869,20.66248L20.24869,18.615385L20.6466,18.615385L20.6466,18L19.35106,18L19.35106,18.615385L19.74898,18.615385L19.74898,20.64992C19.64719,20.64992,19.54539,20.71272,19.45286,20.71272C18.601501,21.05181,18,22.06907,18,23.28728C18,24.78179,18.897624,26,19.99883,26C21.10004,26,21.99767,24.78179,21.99767,23.28728C22.04394,22.08163,21.39617,21.06436,20.54481,20.725270000000002Z" fill="#FFFFFF" fill-opacity="1" style="mix-blend-mode:passthrough"/></g></g></g></g></g></svg>