<?xml version="1.0" encoding="UTF-8"?>
<svg width="96px" height="96px" viewBox="0 0 96 96" version="1.1" xmlns="http://www.w3.org/2000/svg" xmlns:xlink="http://www.w3.org/1999/xlink">
    <title>试件出入库</title>
    <defs>
        <linearGradient x1="0%" y1="0%" x2="100%" y2="100%" id="linearGradient-1">
            <stop stop-color="#52E5E7" offset="0%"></stop>
            <stop stop-color="#130CB7" offset="100%"></stop>
        </linearGradient>
    </defs>
    <g id="页面-1" stroke="none" stroke-width="1" fill="none" fill-rule="evenodd">
        <g id="菜单页" transform="translate(-524.000000, -1239.000000)">
            <g id="编组" transform="translate(524.000000, 1239.000000)">
                <g id="设备外出管理" fill="url(#linearGradient-1)">
                    <rect id="矩形备份-5" x="0" y="0" width="96" height="96" rx="24"></rect>
                </g>
                <g transform="translate(26.000000, 30.000000)">
                    <path d="M44,24 L44,24 L44,32 C44,34.209139 42.209139,36 40,36 L4,36 C1.790861,36 0,34.209139 0,32 L0,4 C0,1.790861 1.790861,0 4,0 L29.5,0 L29.5,0" id="路径" stroke="#FFFFFF" stroke-width="4.5" stroke-linecap="round"></path>
                    <rect id="矩形" fill="#FFFFFF" x="7.3" y="21.6" width="7.2" height="7.2" rx="0.9"></rect>
                    <rect id="矩形备份-3" fill="#FFFFFF" x="7.3" y="9" width="7.2" height="7.2" rx="0.9"></rect>
                    <rect id="矩形备份" fill="#FFFFFF" x="19" y="21.6" width="7.2" height="7.2" rx="0.9"></rect>
                    <rect id="矩形备份-2" fill="#FFFFFF" x="31" y="21.6" width="7.2" height="7.2" rx="0.9"></rect>
                    <path d="M19.9,9 L25.3,9 C25.7970563,9 26.2,9.40294373 26.2,9.9 L26.2,15.3 C26.2,15.7970563 25.7970563,16.2 25.3,16.2 L19.9,16.2 C19.4029437,16.2 19,15.7970563 19,15.3 L19,9.9 C19,9.40294373 19.4029437,9 19.9,9 Z" id="矩形备份-4" fill="#FFFFFF"></path>
                </g>
                <path d="M73.0539628,38.8104644 L57.8983644,38.8104644 C57.1328731,38.8502809 56.4405869,38.3581767 56.2266246,37.6221154 L56.2266246,37.5012665 C55.9719746,36.8139289 56.1108293,36.0425152 56.5891712,35.4871198 L62.5913454,29.6662568 C63.3609676,28.962159 64.5408182,28.962159 65.3104453,29.6662566 C65.6224479,30.0311027 65.7938786,30.4953911 65.7938408,30.9754545 C65.762625,31.4494017 65.5947204,31.9041401 65.3104452,32.2846477 L62.5913452,34.9030387 L73.0338464,34.9030387 C74.061648,34.9527065 74.8867461,35.7691162 74.9472966,36.7963365 C74.9486213,37.8705601 74.1067017,38.7567822 73.0338322,38.8104854 L73.0539628,38.8104644 Z" id="路径" fill="#FFFFFF"></path>
                <path d="M57.8983644,41.1338088 L73.0539628,41.1338088 C73.8151672,41.1084937 74.4994514,41.5949149 74.7257028,42.3221578 C74.8076047,42.5550505 74.8484938,42.8003826 74.8466795,43.0472512 C74.8476929,43.5513247 74.6266353,44.0302821 74.2423072,44.3564483 L69.5090747,49.0896808 C69.267377,49.5730764 68.9048303,49.6939252 68.1998768,49.6939252 C67.7216475,49.684001 67.2606086,49.5137702 66.8906791,49.2105297 C66.1865813,48.4409075 66.1865813,47.2610569 66.8906789,46.4914298 L68.42143,44.9405388 L57.9789288,44.9405388 C56.9277259,45.0488179 55.9877817,44.2844298 55.8795054,43.2332269 C55.7712264,42.182024 56.5356145,41.2420797 57.5868174,41.1338035 C57.7171771,41.1203759 57.848571,41.1203759 57.9789302,41.1338035 L57.8983644,41.1338088 Z" id="路径" fill="#FFFFFF"></path>
            </g>
        </g>
    </g>
</svg>