<svg width="108" height="108" viewBox="0 0 108 108" fill="none" xmlns="http://www.w3.org/2000/svg">
<rect width="108" height="108" rx="18" fill="url(#paint0_linear_278_7375)"/>
<path d="M80.6385 81.9331L80.6385 81.9332L80.6404 81.935C80.7036 81.9933 80.7594 82.0592 80.8064 82.1312L80.8587 82.097L80.8103 82.1365C81.1753 82.5845 81.3587 83.1534 81.3241 83.7303C81.2894 84.3072 81.0394 84.85 80.6234 85.2512L80.6227 85.2519C80.1838 85.6889 79.5903 85.9353 78.971 85.9375C78.4435 85.9382 77.9321 85.7567 77.523 85.4237L77.5232 85.4234L77.5177 85.4198C77.4457 85.3728 77.3799 85.317 77.3216 85.2538L77.3216 85.2538L77.3198 85.252L73.2088 81.141L73.1758 81.108L73.1348 81.1303C70.9933 82.2929 68.5296 82.721 66.1214 82.3488C63.7133 81.9767 61.4937 80.8249 59.8031 79.07C58.1125 77.3151 57.0442 75.0541 56.7621 72.6338C56.48 70.2134 56.9997 67.7674 58.2414 65.6707C59.4831 63.5741 61.3783 61.9427 63.6363 61.0267C65.8943 60.1107 68.3904 59.9606 70.7419 60.5996C73.0933 61.2386 75.1703 62.6313 76.6541 64.5641C78.138 66.4969 78.9469 68.8632 78.9567 71.2999C78.9648 73.6979 78.1883 76.0328 76.7458 77.9484L76.7132 77.9917L76.7514 78.0301L80.6385 81.9331Z" fill="white" stroke="white" stroke-width="0.125"/>
<path fill-rule="evenodd" clip-rule="evenodd" d="M33 26C31.8954 26 31 26.8954 31 28V80C31 81.1046 31.8954 82 33 82H51.1356C49.7692 79.2921 49 76.2317 49 73C49 61.9543 57.9543 53 69 53C71.839 53 74.5469 53.5938 77 54.6653V28C77 26.8954 76.1046 26 75 26H33ZM27 28C27 24.6863 29.6863 22 33 22H75C78.3137 22 81 24.6863 81 28V57.1284C81 58.9708 78.5176 60.006 76.9172 59.093C74.5827 57.761 71.8802 57 69 57C60.1634 57 53 64.1634 53 73C53 76.125 53.8959 79.0407 55.4448 81.5044C56.4787 83.1489 55.4049 86 53.4623 86H33C29.6863 86 27 83.3137 27 80V28Z" fill="white"/>
<rect x="39" y="34" width="31" height="5" rx="2" fill="white"/>
<rect x="39" y="46" width="22" height="5" rx="2" fill="white"/>
<rect x="39" y="58" width="8" height="5" rx="2" fill="white"/>
<defs>
<linearGradient id="paint0_linear_278_7375" x1="4.5" y1="3.5" x2="101.5" y2="103" gradientUnits="userSpaceOnUse">
<stop stop-color="#53C1FF"/>
<stop offset="1" stop-color="#0764FC"/>
</linearGradient>
</defs>
</svg>
