<?xml version="1.0" encoding="UTF-8"?>
<svg width="96px" height="96px" viewBox="0 0 96 96" version="1.1" xmlns="http://www.w3.org/2000/svg" xmlns:xlink="http://www.w3.org/1999/xlink">
    <title>温湿度</title>
    <defs>
        <linearGradient x1="0%" y1="0%" x2="100%" y2="100%" id="linearGradient-1">
            <stop stop-color="#65FDF0" offset="0%"></stop>
            <stop stop-color="#1D6FA3" offset="100%"></stop>
        </linearGradient>
    </defs>
    <g id="页面-1" stroke="none" stroke-width="1" fill="none" fill-rule="evenodd">
        <g id="菜单页" transform="translate(-76.000000, -1713.000000)">
            <g id="编组-26" transform="translate(76.000000, 1713.000000)">
                <g id="编组-14" transform="translate(0.000000, 0.000000)">
                    <rect id="矩形备份-5" fill="url(#linearGradient-1)" x="0" y="0" width="96" height="96" rx="24"></rect>
                    <g id="温湿度" transform="translate(26.000000, 22.000000)" fill="#FFFFFF" fill-rule="nonzero" stroke="#FFFFFF">
                        <path d="M13.6502111,0.980929213 C18.5523374,0.980929213 22.5790839,4.9201378 22.7213331,9.7894373 L22.7252217,10.0559398 L22.7266262,30.2067151 C24.9815723,32.4996117 26.3728088,35.6443399 26.3728088,39.1135564 C26.3728088,46.1302411 20.6844787,51.8185712 13.667794,51.8185712 C6.65110925,51.8185712 0.962779192,46.1302411 0.962779192,39.1135564 C0.962779192,35.6608615 2.34016598,32.5302552 4.57539293,30.2405724 L4.57520058,10.0559398 C4.57520058,5.06468397 8.65895534,0.980929213 13.6502111,0.980929213 Z M13.6842424,4.60412718 C10.7625317,4.60412718 8.35908454,6.93631312 8.24358129,9.83100461 L8.2392361,10.0491335 L8.23877919,27.6249292 L8.25681893,27.6160852 L8.25681893,31.8280245 C6.03344134,33.4825123 4.59278342,36.1301467 4.59278342,39.1141236 C4.59278342,44.1263654 8.65555221,48.1891341 13.667794,48.1891341 C18.6800357,48.1891341 22.7428045,44.1263654 22.7428045,39.1141236 C22.7428045,38.4860813 22.6790136,37.8729867 22.5575589,37.2809455 C22.4405115,36.7426486 22.2851253,36.2215511 22.0866887,35.722251 L22.0717792,35.6859292 L22.0622967,35.6604049 C22.0539643,35.6398932 22.0454624,35.6194688 22.0368881,35.5990823 L22.0427792,35.6149292 L22.0197792,35.5609292 L22.0368881,35.5990823 L22.0127792,35.5439292 L21.8976386,35.2848844 C21.3176354,34.0406979 20.4637266,32.9499217 19.4134476,32.089815 L19.1468316,31.8796386 L19.1467792,31.8509292 L19.1292488,31.8376667 L19.1292488,10.0491335 C19.1292488,7.05438003 16.6789959,4.60412718 13.6842424,4.60412718 Z M40.8933928,15.4879008 C40.8933928,15.4879008 51.8372884,30.2455695 51.8372884,36.2600328 C51.8372884,42.274496 46.961739,48.1709841 40.9472757,48.1709841 C34.9328125,48.1709841 30.057263,42.2177772 30.057263,36.2033139 C30.057263,30.1888507 40.8933928,15.4879008 40.8933928,15.4879008 Z M40.9115429,22.0309834 C40.9115429,22.0309834 33.6872673,32.1331717 33.6872673,36.266839 C33.6872673,40.4005063 36.9378226,44.4916345 40.9472757,44.4916345 C44.9567288,44.4916345 48.2072842,40.4390751 48.2072842,36.305975 C48.2072842,32.1728749 40.9115429,22.0309834 40.9115429,22.0309834 Z M13.676869,19.1303831 C14.6751201,19.1303831 15.4918711,19.9471341 15.4918711,20.9453853 L15.4929617,36.574437 C16.5773707,37.2022373 17.3068732,38.3750169 17.3068732,39.7181795 L17.3068732,39.7181795 L17.3018415,39.9109651 C17.201626,41.8261352 15.6169928,43.3481837 13.676869,43.3481837 C11.6720744,43.3481837 10.0468648,41.7229741 10.0468648,39.7181795 L10.0468648,39.7181795 L10.0518964,39.5253939 C10.1179573,38.2629367 10.8290405,37.1713022 11.8617804,36.5738559 L11.8618669,20.9453853 C11.8618669,19.9471341 12.6786178,19.1303831 13.676869,19.1303831 Z M44.0282418,34.0803289 C45.0306391,34.0803289 45.8432439,34.8929337 45.8432439,35.8953311 L45.8432439,35.8953311 L45.8372272,36.0441894 C45.8292569,36.1423755 45.8134719,36.2383522 45.7904951,36.3314969 L45.7519266,36.4625189 C44.957296,38.8759046 43.5211756,39.9166948 42.4559962,40.3647735 C41.7231891,40.6727567 40.999457,40.7844927 40.3347125,40.7844927 C38.9604156,40.7844927 37.8407862,40.3074875 37.4290076,40.1050013 L37.3946452,40.0884519 C36.8119171,39.7863951 36.4137408,39.1777153 36.4137408,38.4760372 L36.4137408,38.4760372 L36.4197574,38.3271789 C36.4954757,37.3944109 37.2764654,36.6610351 38.2287429,36.6610351 C38.4793422,36.6610351 38.7180795,36.7118229 38.9352233,36.803667 L39.0284782,36.8465053 C39.4447943,37.0512602 40.3386828,37.3172715 41.0482352,37.0189305 C41.5844297,36.7934915 42.0058048,36.2275342 42.3005863,35.3378789 C42.5360181,34.6079605 43.220513,34.0803289 44.0282418,34.0803289 Z" id="形状结合"></path>
                    </g>
                </g>
            </g>
        </g>
    </g>
</svg>