<svg xmlns="http://www.w3.org/2000/svg" xmlns:xlink="http://www.w3.org/1999/xlink" fill="none" version="1.1" width="40" height="40" viewBox="0 0 40 40"><defs><linearGradient x1="0.06250002980232239" y1="0.04999998211860657" x2="1" y2="0.9999999999999999" id="master_svg0_0_69279"><stop offset="0%" stop-color="#50B8FF" stop-opacity="1"/><stop offset="100%" stop-color="#2272FB" stop-opacity="1"/></linearGradient><clipPath id="master_svg1_2777_94872"><rect x="8" y="8" width="24" height="24" rx="0"/></clipPath></defs><g><g><g><rect x="0" y="0" width="40" height="40" rx="8" fill="url(#master_svg0_0_69279)" fill-opacity="1"/></g><g clip-path="url(#master_svg1_2777_94872)"><g></g><g><path d="M26.6449,28.7662Q26.2893,29.0357,25.9131,29.2755Q25.5369,29.5154,25.1425,29.7239Q24.7481,29.9325,24.3381,30.1085Q23.9281,30.2844,23.5051,30.4266Q23.0822,30.5688,22.6492,30.6762Q22.2162,30.7837,21.7759,30.8557Q21.3356,30.9277,20.890900000000002,30.9639Q20.446199999999997,31,20,31Q19.73,31,19.4603,30.9867Q19.1905,30.9735,18.92181,30.947Q18.65308,30.9206,18.38596,30.8809Q18.118850000000002,30.8413,17.854,30.7886Q17.58916,30.736,17.32722,30.6703Q17.065269999999998,30.6047,16.80687,30.5263Q16.54846,30.448,16.29421,30.357Q16.03996,30.266,15.790479999999999,30.1627Q15.541,30.0593,15.296890000000001,29.9439Q15.05279,29.8284,14.81464,29.7011Q14.57649,29.5738,14.34487,29.435Q14.11325,29.2962,13.888729999999999,29.1462Q13.664200000000001,28.9961,13.44731,28.8353Q13.23041,28.6744,13.02167,28.5031Q12.81293,28.3318,12.61285,28.1505Q12.41277,27.9691,12.22183,27.7782Q12.03088,27.5872,11.849540000000001,27.3871Q11.66819,27.1871,11.49688,26.9783Q11.32558,26.7696,11.164719999999999,26.5527Q11.00386,26.3358,10.85383,26.1113Q10.70381,25.8867,10.56499,25.6551Q10.42616,25.4235,10.29887,25.1854Q10.17157,24.947200000000002,10.05612,24.7031Q9.940663,24.459,9.837325,24.2095Q9.733986999999999,23.96,9.643015,23.7058Q9.552043,23.4515,9.473656,23.1931Q9.395269,22.9347,9.329656,22.672800000000002Q9.264043000000001,22.410800000000002,9.211362,22.146Q9.158681,21.8811,9.119058,21.614Q9.079436,21.346899999999998,9.052968,21.078200000000002Q9.0265,20.8095,9.01325,20.5397Q9,20.27,9,20Q9,19.73,9.01325,19.4603Q9.0265,19.1905,9.052968,18.92181Q9.079436,18.65308,9.119058,18.38596Q9.158681,18.118850000000002,9.211362,17.854Q9.264043000000001,17.58916,9.329656,17.32722Q9.395269,17.065269999999998,9.473656,16.80687Q9.552043,16.54846,9.643015,16.29421Q9.733986999999999,16.03996,9.837325,15.790479999999999Q9.940663,15.541,10.05612,15.296890000000001Q10.17157,15.05279,10.29887,14.81464Q10.42616,14.57649,10.56499,14.34487Q10.70381,14.11325,10.85383,13.888729999999999Q11.00386,13.664200000000001,11.164719999999999,13.44731Q11.32558,13.23041,11.49688,13.02167Q11.66819,12.81293,11.849540000000001,12.61285Q12.03088,12.41277,12.22183,12.22183Q12.41277,12.03088,12.61285,11.849540000000001Q12.81293,11.66819,13.02167,11.49688Q13.23041,11.32558,13.44731,11.164719999999999Q13.664200000000001,11.00386,13.888729999999999,10.85383Q14.11325,10.70381,14.34487,10.56499Q14.57649,10.42616,14.81464,10.29887Q15.05279,10.17157,15.296890000000001,10.05612Q15.541,9.940663,15.790479999999999,9.837325Q16.03996,9.733986999999999,16.29421,9.643015Q16.54846,9.552043,16.80687,9.473656Q17.065269999999998,9.395269,17.32722,9.329656Q17.58916,9.264043000000001,17.854,9.211362Q18.118850000000002,9.158681,18.38596,9.119058Q18.65308,9.079436,18.92181,9.052968Q19.1905,9.0265,19.4603,9.01325Q19.73,9,20,9Q20.27,9,20.5397,9.01325Q20.8095,9.0265,21.078200000000002,9.052968Q21.346899999999998,9.079436,21.614,9.119058Q21.8811,9.158681,22.146,9.211362Q22.410800000000002,9.264043000000001,22.672800000000002,9.329656Q22.9347,9.395269,23.1931,9.473656Q23.4515,9.552043,23.7058,9.643015Q23.96,9.733986999999999,24.2095,9.837325Q24.459,9.940663,24.7031,10.05612Q24.947200000000002,10.17157,25.1854,10.29887Q25.4235,10.42616,25.6551,10.56499Q25.8867,10.70381,26.1113,10.85383Q26.3358,11.00386,26.5527,11.164719999999999Q26.7696,11.32558,26.9783,11.49688Q27.1871,11.66819,27.3871,11.849540000000001Q27.5872,12.03088,27.7782,12.22183Q27.9691,12.41277,28.1505,12.61285Q28.3318,12.81293,28.5031,13.02167Q28.6744,13.23041,28.8353,13.44731Q28.9961,13.664200000000001,29.1462,13.888729999999999Q29.2962,14.11325,29.435,14.34487Q29.5738,14.57649,29.7011,14.81464Q29.8284,15.05279,29.9439,15.296890000000001Q30.0593,15.541,30.1627,15.790479999999999Q30.266,16.03996,30.357,16.29421Q30.448,16.54846,30.5263,16.80687Q30.6047,17.065269999999998,30.6703,17.32722Q30.736,17.58916,30.7886,17.854Q30.8413,18.118850000000002,30.8809,18.38596Q30.9206,18.65308,30.947,18.92181Q30.9735,19.1905,30.9867,19.4603Q31,19.73,31,20Q31,20.446199999999997,30.9639,20.890900000000002Q30.9277,21.3356,30.8557,21.7759Q30.7837,22.2162,30.6762,22.6492Q30.5688,23.0822,30.4266,23.5051Q30.2844,23.928,30.1085,24.338Q29.9325,24.747999999999998,29.7239,25.1425Q29.5154,25.5369,29.2755,25.9131Q29.0357,26.2893,28.7662,26.6448L31.4246,29.3033Q31.5291,29.4078,31.6112,29.5306Q31.6932,29.6534,31.7498,29.7899Q31.8063,29.9264,31.8351,30.0713Q31.864,30.2162,31.864,30.3639Q31.864,30.5117,31.8351,30.6566Q31.8063,30.8015,31.7498,30.938Q31.6932,31.0745,31.6112,31.1973Q31.5291,31.3201,31.4246,31.4246Q31.3725,31.4767,31.3156,31.5235Q31.2586,31.5702,31.1973,31.6111Q31.136,31.6521,31.0711,31.6868Q31.0061,31.7216,30.938,31.7498Q30.8699,31.778,30.7994,31.7994Q30.7289,31.8207,30.6566,31.8351Q30.5843,31.8495,30.511,31.8567Q30.4377,31.8639,30.364,31.8639Q30.2903,31.8639,30.2169,31.8567Q30.1436,31.8495,30.0713,31.8351Q29.9991,31.8207,29.9285,31.7994Q29.858,31.778,29.7899,31.7498Q29.7219,31.7216,29.6569,31.6868Q29.5919,31.6521,29.5306,31.6111Q29.4693,31.5702,29.4124,31.5235Q29.3554,31.4767,29.3033,31.4246L26.6449,28.7662ZM14.78955,17.105249999999998Q14.78955,17.04837,14.79513,16.99176Q14.800699999999999,16.93515,14.8118,16.87936Q14.8229,16.82357,14.83941,16.76913Q14.855920000000001,16.7147,14.877690000000001,16.66214Q14.899460000000001,16.60959,14.926269999999999,16.55942Q14.95309,16.50926,14.98469,16.46196Q15.01629,16.414659999999998,15.05238,16.37069Q15.088470000000001,16.32672,15.128689999999999,16.2865Q15.16891,16.24627,15.21289,16.21019Q15.25686,16.1741,15.30415,16.1425Q15.35145,16.11089,15.401620000000001,16.08408Q15.45178,16.05726,15.50434,16.0355Q15.55689,16.01373,15.611329999999999,15.99722Q15.665759999999999,15.980699999999999,15.72155,15.96961Q15.777339999999999,15.95851,15.83395,15.95293Q15.89056,15.94736,15.94745,15.94736L20.579,15.94736Q20.6359,15.94736,20.692500000000003,15.95293Q20.7491,15.95851,20.8049,15.96961Q20.8607,15.980699999999999,20.915100000000002,15.99722Q20.9696,16.01373,21.022100000000002,16.0355Q21.0747,16.05726,21.1249,16.08408Q21.175,16.11089,21.2223,16.1425Q21.2696,16.1741,21.3136,16.21019Q21.357599999999998,16.24627,21.3978,16.2865Q21.438000000000002,16.32672,21.4741,16.37069Q21.510199999999998,16.414659999999998,21.541800000000002,16.46196Q21.5734,16.50926,21.6002,16.55942Q21.627000000000002,16.60959,21.6488,16.66214Q21.6705,16.7147,21.6871,16.76913Q21.7036,16.82357,21.7147,16.87936Q21.7258,16.93515,21.731299999999997,16.99176Q21.7369,17.04837,21.7369,17.105249999999998Q21.7369,17.16214,21.731299999999997,17.21875Q21.7258,17.27535,21.7147,17.33115Q21.7036,17.38694,21.6871,17.44137Q21.6705,17.49581,21.6488,17.548360000000002Q21.627000000000002,17.60091,21.6002,17.65108Q21.5734,17.70125,21.541800000000002,17.74854Q21.510199999999998,17.79584,21.4741,17.83981Q21.438000000000002,17.883789999999998,21.3978,17.924010000000003Q21.357599999999998,17.96423,21.3136,18.000320000000002Q21.2696,18.0364,21.2223,18.06801Q21.175,18.09961,21.1249,18.12642Q21.0747,18.15324,21.022100000000002,18.17501Q20.9696,18.19678,20.915100000000002,18.21329Q20.8607,18.229799999999997,20.8049,18.2409Q20.7491,18.252000000000002,20.692500000000003,18.25757Q20.6359,18.26315,20.579,18.26315L15.94745,18.26315Q15.89056,18.26315,15.83395,18.25757Q15.777339999999999,18.252000000000002,15.72155,18.2409Q15.665759999999999,18.229799999999997,15.611329999999999,18.21329Q15.55689,18.19678,15.50434,18.17501Q15.45178,18.15324,15.401620000000001,18.12642Q15.35145,18.09961,15.30415,18.06801Q15.25686,18.0364,15.21289,18.000320000000002Q15.16891,17.96423,15.128689999999999,17.924010000000003Q15.088470000000001,17.883789999999998,15.05238,17.83981Q15.01629,17.79584,14.98469,17.74854Q14.95309,17.70125,14.926269999999999,17.65108Q14.899460000000001,17.60091,14.877690000000001,17.548360000000002Q14.855920000000001,17.4958,14.83941,17.44137Q14.8229,17.38694,14.8118,17.33115Q14.800699999999999,17.27535,14.79513,17.21875Q14.78955,17.16214,14.78955,17.105249999999998ZM14.78955,21.736800000000002Q14.78955,21.68,14.79513,21.6234Q14.800699999999999,21.5667,14.8118,21.5109Q14.8229,21.455199999999998,14.83941,21.4007Q14.855920000000001,21.3463,14.877690000000001,21.2937Q14.899460000000001,21.2412,14.926269999999999,21.191000000000003Q14.95309,21.1408,14.98469,21.093600000000002Q15.01629,21.046300000000002,15.05238,21.002299999999998Q15.088470000000001,20.9583,15.128689999999999,20.918100000000003Q15.16891,20.8779,15.21289,20.8418Q15.25686,20.8057,15.30415,20.7741Q15.35145,20.7425,15.401620000000001,20.7157Q15.45178,20.6889,15.50434,20.667099999999998Q15.55689,20.6453,15.611329999999999,20.6288Q15.665759999999999,20.612299999999998,15.72155,20.6012Q15.777339999999999,20.5901,15.83395,20.5845Q15.89056,20.5789,15.94745,20.5789L24.0527,20.5789Q24.1096,20.5789,24.1662,20.5845Q24.2228,20.5901,24.2786,20.6012Q24.334400000000002,20.612299999999998,24.3888,20.6288Q24.4433,20.6453,24.4958,20.667099999999998Q24.5484,20.6889,24.5985,20.7157Q24.648699999999998,20.7425,24.695999999999998,20.7741Q24.743299999999998,20.8057,24.787300000000002,20.8418Q24.831200000000003,20.8779,24.871499999999997,20.918100000000003Q24.9117,20.9583,24.9478,21.002299999999998Q24.9839,21.046300000000002,25.0155,21.093600000000002Q25.0471,21.1408,25.0739,21.191000000000003Q25.1007,21.2412,25.1225,21.2937Q25.1442,21.3463,25.1607,21.4007Q25.1773,21.455199999999998,25.1884,21.5109Q25.1995,21.5667,25.205,21.6234Q25.2106,21.68,25.2106,21.736800000000002Q25.2106,21.7937,25.205,21.8503Q25.1995,21.9069,25.1884,21.962699999999998Q25.1773,22.0185,25.1607,22.073Q25.1442,22.1274,25.1225,22.1799Q25.1007,22.2325,25.0739,22.2827Q25.0471,22.3328,25.0155,22.3801Q24.9839,22.4274,24.9478,22.4714Q24.9117,22.5154,24.871499999999997,22.5556Q24.831200000000003,22.5958,24.787300000000002,22.6319Q24.743299999999998,22.668,24.695999999999998,22.6996Q24.648699999999998,22.7312,24.5985,22.758Q24.5484,22.7848,24.4958,22.8066Q24.4433,22.828400000000002,24.3888,22.844900000000003Q24.334400000000002,22.8614,24.2786,22.872500000000002Q24.2228,22.8836,24.1662,22.889200000000002Q24.1096,22.8947,24.0527,22.8947L15.94745,22.8947Q15.89056,22.8947,15.83395,22.889200000000002Q15.777339999999999,22.8836,15.72155,22.872500000000002Q15.665759999999999,22.8614,15.611329999999999,22.844900000000003Q15.55689,22.828400000000002,15.50434,22.8066Q15.45178,22.7848,15.401620000000001,22.758Q15.35145,22.7312,15.30415,22.6996Q15.25686,22.668,15.21289,22.6319Q15.16891,22.5958,15.128689999999999,22.5556Q15.088470000000001,22.5154,15.05238,22.4714Q15.01629,22.4274,14.98469,22.3801Q14.95309,22.3328,14.926269999999999,22.2827Q14.899460000000001,22.2325,14.877690000000001,22.1799Q14.855920000000001,22.1274,14.83941,22.073Q14.8229,22.0185,14.8118,21.962699999999998Q14.800699999999999,21.9069,14.79513,21.8503Q14.78955,21.7937,14.78955,21.736800000000002Z" fill-rule="evenodd" fill="#FFFFFF" fill-opacity="1"/></g></g></g></g></svg>