<?xml version="1.0" encoding="UTF-8"?>
<svg width="96px" height="96px" viewBox="0 0 96 96" version="1.1" xmlns="http://www.w3.org/2000/svg" xmlns:xlink="http://www.w3.org/1999/xlink">
    <title>样品出入库</title>
    <defs>
        <linearGradient x1="12.2225356%" y1="17.2208647%" x2="84.5297622%" y2="82.9415693%" id="linearGradient-1">
            <stop stop-color="#B4A7FF" offset="0%"></stop>
            <stop stop-color="#001CFF" offset="100%"></stop>
        </linearGradient>
    </defs>
    <g id="页面-1" stroke="none" stroke-width="1" fill="none" fill-rule="evenodd">
        <g id="菜单页" transform="translate(-300.000000, -1239.000000)">
            <g id="编组-21" transform="translate(300.000000, 1239.000000)">
                <g id="编组" transform="translate(0.000000, 0.000000)">
                    <g id="设备外出管理" fill="url(#linearGradient-1)">
                        <rect id="矩形备份-5" x="0" y="0" width="96" height="96" rx="24"></rect>
                    </g>
                    <g id="出入库" transform="translate(24.000000, 21.000000)" fill="#FFFFFF" fill-rule="nonzero" stroke="#FFFFFF">
                        <path d="M47.0006141,20.5644466 L46.7186336,20.2623244 L46.2755212,19.7587889 C45.9129745,19.3559596 45.4094391,18.8524222 44.885759,18.3086022 L28.5912939,2.01413715 L28.5912938,2.01413708 C25.997325,-0.583277462 21.7888644,-0.586070863 19.1914735,2.0079009 C19.1893934,2.0099783 19.1873146,2.01205707 19.1852372,2.01413723 L2.81023142,18.3086023 C2.26641141,18.8524223 1.78301585,19.3559578 1.42046918,19.758789 C1.05792298,20.1616183 1.0780643,20.141477 0.957215412,20.2824691 L0.735659428,20.5644495 L0.735659455,20.5644495 C0.21356748,21.3559511 0.314218801,22.4044126 0.977357236,23.0821315 L0.977357176,23.0821315 C1.36872315,23.4817699 1.90865178,23.7006596 2.4678284,23.6863759 L5.63003947,23.6863759 L5.63003947,41.672716 L5.63003956,41.6727057 C5.59666238,45.3211672 8.52726977,48.3058767 12.1757218,48.3392462 C12.1959549,48.3394313 12.2161886,48.3395235 12.2364227,48.3395227 L25.3485368,48.3395227 L25.3485366,48.3395226 C26.4275459,48.6099485 27.5214817,47.9544605 27.7919076,46.8754493 C28.0623335,45.79644 27.4068455,44.7025042 26.3278343,44.4320783 C26.0063728,44.3515125 25.67,44.3515125 25.3485366,44.4320782 L12.2364698,44.4320782 L12.2364698,44.4320782 C10.7458757,44.4321197 9.53748134,43.2237878 9.5374388,41.7331984 C9.53743862,41.7264595 9.53746367,41.7197206 9.53751396,41.7129818 L9.53751396,21.7729149 L9.53751396,21.7729148 C9.53751396,20.6605312 8.63575096,19.7587682 7.52336736,19.7587682 C7.52336733,19.7587682 7.52336734,19.7587682 7.52336731,19.7587682 L6.83855851,19.7587682 L21.964805,4.63252172 L21.9648052,4.63252151 C23.0245301,3.58292564 24.7319603,3.58292564 25.7916852,4.63252192 L40.9179317,19.7587684 L40.1525538,19.7587684 L40.1525537,19.7587684 C39.0401701,19.7587685 38.1384071,20.6605314 38.1384071,21.772915 C38.1384071,21.7729151 38.1384071,21.7729151 38.1384071,21.7729151 L38.1384071,21.7729148 C38.1384069,22.8852984 39.0401701,23.7870614 40.1525537,23.7870614 L45.2886316,23.7870614 L45.2886316,23.7870614 C45.8448115,23.7855169 46.3788617,23.5690111 46.7790981,23.1828169 L46.7790981,23.1828169 C47.4905222,22.48501 47.5847133,21.3718513 47.0006541,20.5644258 L47.0006141,20.5644466 Z M46.0539628,32.8104644 L23.8983644,32.8104644 L23.8983644,32.8104644 C23.1328731,32.8502809 22.4405869,32.3581767 22.2266246,31.6221154 L22.2266246,31.5012665 L22.2266246,31.5012664 C21.9719746,30.8139289 22.1108293,30.0425152 22.5891712,29.4871198 L28.5913454,23.6662568 L28.5913453,23.6662569 C29.3609676,22.962159 30.5408182,22.962159 31.3104453,23.6662566 L31.3104452,23.6662566 C31.6224479,24.0311027 31.7938786,24.4953911 31.7938408,24.9754545 L31.7938408,24.9754545 C31.762625,25.4494017 31.5947204,25.9041401 31.3104452,26.2846477 L28.5913452,28.9030387 L46.0338464,28.9030387 L46.0338464,28.9030387 C47.061648,28.9527065 47.8867461,29.7691162 47.9472856,30.7963365 L47.9472856,30.7963483 C47.9486213,31.8705601 47.1067017,32.7567822 46.0338322,32.8104854 L46.0539628,32.8104644 Z M23.8983644,36.1338088 L46.0539628,36.1338088 L46.0539629,36.1338088 C46.8151672,36.1084937 47.4994514,36.5949149 47.7257028,37.3221578 L47.7257028,37.3221579 C47.8076047,37.5550505 47.8484938,37.8003826 47.8466177,38.0472512 L47.8466177,38.0472504 C47.8476929,38.5513247 47.6266353,39.0302821 47.2423072,39.3564483 L42.5090747,44.0896808 C42.267377,44.5730764 41.9048303,44.6939252 41.1998768,44.6939252 L41.199877,44.6939252 C40.7216475,44.684001 40.2606086,44.5137702 39.8906791,44.2105297 L39.8906792,44.2105298 C39.1865813,43.4409075 39.1865813,42.2610569 39.8906789,41.4914298 L41.42143,39.9405388 L23.9789288,39.9405388 L23.9789288,39.9405389 C22.9277259,40.0488179 21.9877817,39.2844298 21.8795054,38.2332269 C21.7712264,37.182024 22.5356145,36.2420797 23.5868174,36.1338035 C23.7171771,36.1203759 23.848571,36.1203759 23.9789302,36.1338035 L23.8983644,36.1338088 Z" id="形状"></path>
                    </g>
                </g>
            </g>
        </g>
    </g>
</svg>