<?xml version="1.0" encoding="UTF-8"?>
<svg width="96px" height="96px" viewBox="0 0 96 96" version="1.1" xmlns="http://www.w3.org/2000/svg" xmlns:xlink="http://www.w3.org/1999/xlink">
    <title>样品流转</title>
    <defs>
        <linearGradient x1="0%" y1="0%" x2="100%" y2="100%" id="linearGradient-1">
            <stop stop-color="#FFF6B7" offset="0%"></stop>
            <stop stop-color="#F6416C" offset="100%"></stop>
        </linearGradient>
    </defs>
    <g id="页面-1" stroke="none" stroke-width="1" fill="none" fill-rule="evenodd">
        <g id="菜单页" transform="translate(-524.000000, -677.000000)">
            <g id="编组-16" transform="translate(524.000000, 677.000000)">
                <rect id="矩形备份-7" fill="url(#linearGradient-1)" x="0" y="0" width="96" height="96" rx="24"></rect>
                <g id="流转" transform="translate(24.000000, 27.000000)" fill="#FFFFFF" fill-rule="nonzero">
                    <g id="形状">
                        <path d="M27.3337018,26.7801423 C26.3271121,26.1575095 25.0610921,26.9323416 25.0610921,28.1672312 L25.0610921,30.8272556 L15.5417418,30.8272556 C10.3081806,30.8272556 6.05003704,26.3097222 6.05003704,20.7509813 C6.05003704,18.5198804 6.73839085,16.3925517 8.04246202,14.607671 L8.04246201,14.607671 C9.06083958,13.193804 8.8246688,11.2352185 7.4993892,10.1039603 L7.49938914,10.1039603 C6.25304932,9.07802277 4.41100881,9.2566973 3.38506723,10.5030339 C3.33840949,10.5597149 3.29390381,10.6181338 3.25164504,10.678166 L3.25164458,10.6781666 C1.12295382,13.6039246 -0.0161804662,17.1328339 -5.34539131e-05,20.7509953 C-5.34539131e-05,29.8448798 6.97705205,37.243833 15.5486303,37.243833 L25.0610895,37.243833 L25.0610895,39.9003997 C25.0610895,41.1352881 26.3201901,41.9101213 27.3336993,41.2909463 L36.9153128,35.4174434 L36.9153128,35.4174435 C37.6823348,34.9184008 37.8995753,33.8920498 37.4005327,33.1250278 C37.274424,32.9312009 37.1091401,32.7659167 36.9153128,32.639808 L27.3336992,26.7801279 L27.3337018,26.7801423 Z M32.8785793,4.26503472 L23.3626746,4.26503472 L23.3626746,1.60846808 C23.3626746,0.373579684 22.1001123,-0.401253604 21.0900649,0.217921482 L11.5049652,6.08797873 L11.5049653,6.08797867 C10.7379433,6.5870213 10.5207028,7.6133723 11.0197455,8.3803943 C11.1458541,8.57422119 11.311138,8.73950547 11.5049653,8.86561416 L21.0865789,14.739117 C22.0966263,15.3617498 23.3626463,14.5834588 23.3626463,13.3485704 L23.3626463,10.688546 L32.8785511,10.688546 C38.1121122,10.688546 42.3771469,15.2060794 42.3771469,20.754443 L42.3771471,20.7544946 C42.3872427,22.9648045 41.6889676,25.1202207 40.3846897,26.904696 L40.3846898,26.9046959 C39.3641476,28.3192114 39.6004319,30.2802454 40.9277627,31.4118521 C41.4812127,31.8649918 42.1280617,32.0829133 42.7783644,32.0829133 L42.7783645,32.0829133 C43.7308144,32.0760212 44.6222251,31.6129471 45.1755008,30.8376476 C47.302862,27.9146906 48.4270588,24.4314209 48.4270588,20.7544012 C48.4270588,11.6570306 41.4501258,4.26156349 32.8785475,4.26156349 L32.8785793,4.26503472 Z"></path>
                    </g>
                </g>
            </g>
        </g>
    </g>
</svg>