<svg xmlns="http://www.w3.org/2000/svg" xmlns:xlink="http://www.w3.org/1999/xlink" fill="none" version="1.1" width="40" height="40" viewBox="0 0 40 40"><defs><linearGradient x1="0.06250002980232239" y1="0.04999998211860657" x2="1" y2="0.9999999999999999" id="master_svg0_0_69279"><stop offset="0%" stop-color="#50B8FF" stop-opacity="1"/><stop offset="100%" stop-color="#2272FB" stop-opacity="1"/></linearGradient><clipPath id="master_svg1_2777_95205"><rect x="8" y="8" width="24" height="24" rx="0"/></clipPath><clipPath id="master_svg2_2777_95206"><rect x="8" y="8" width="24" height="24" rx="0"/></clipPath></defs><g><g><rect x="0" y="0" width="40" height="40" rx="8" fill="url(#master_svg0_0_69279)" fill-opacity="1"/></g><g clip-path="url(#master_svg1_2777_95205)"><g clip-path="url(#master_svg2_2777_95206)"><g><g><path d="M24.173047634506226,14.30976C24.768747634506227,14.30976,25.298347634506225,13.7037,25.298347634506225,12.895620000000001L25.298347634506225,11.41414C25.298347634506225,10.673401,24.768747634506227,10,24.173047634506226,10C23.577257634506225,10,23.047687634506225,10.606061,23.047687634506225,11.41414L23.047687634506225,12.962959999999999C23.047687634506225,13.7037,23.577257634506225,14.30976,24.173047634506226,14.30976ZM14.706977634506226,14.30976C15.302747634506225,14.30976,15.832317634506225,13.7037,15.832317634506225,12.895620000000001L15.832317634506225,11.41414C15.832317634506225,10.673401,15.368937634506226,10,14.706977634506226,10C14.045020634506226,10,13.581647634506226,10.606061,13.581647634506226,11.41414L13.581647634506226,12.962959999999999C13.581647634506226,13.7037,14.111216634506226,14.30976,14.706977634506226,14.30976Z" fill="#FFFFFF" fill-opacity="1" style="mix-blend-mode:passthrough"/></g><g><path d="M27.8138,12.96296487133026Q27.8138,11.616161471330262,26.6223,11.683501581330262L26.0265,11.683501581330262L26.0265,13.90572487133026Q26.0265,14.84848487133026,25.099800000000002,14.84848487133026L23.246299999999998,14.84848487133026Q22.2533,14.84848487133026,22.319499999999998,13.90572487133026L22.319499999999998,11.683501581330262L16.62667,11.683501581330262L16.62667,13.90572487133026Q16.62667,14.915824871330262,15.699919999999999,14.84848487133026L13.84643,14.84848487133026Q12.91969,14.84848487133026,12.91969,13.90572487133026L12.91969,11.683501581330262L12.25773,11.683501581330262Q11.0661961,11.683501581330262,11,12.96296487133026L11,16.80134487133026L27.8138,16.80134487133026L27.8138,12.96296487133026ZM20.53224,25.89229487133026C20.53224,22.79459487133026,22.9815,20.30303487133026,26.0265,20.30303487133026C26.688499999999998,20.30303487133026,27.2842,20.43771487133026,27.88,20.639734871330262L27.88,17.609424871330262L11,17.609424871330262L11,28.98989487133026C11,29.52859487133026,11.463373,29.999994871330262,11.992942,29.999994871330262L22.2533,29.999994871330262C21.194200000000002,29.05719487133026,20.53224,27.57579487133026,20.53224,25.89229487133026ZM12.91969,19.62963487133026L21.128,19.62963487133026C21.3928,19.62963487133026,21.657600000000002,19.898984871330264,21.657600000000002,20.168354871330262C21.657600000000002,20.43771487133026,21.3928,20.707074871330263,21.128,20.707074871330263L12.91969,20.707074871330263C12.6549,20.707074871330263,12.39012,20.43771487133026,12.39012,20.168354871330262C12.39012,19.898984871330264,12.6549,19.62963487133026,12.91969,19.62963487133026ZM17.42102,26.63299487133026L12.91969,26.63299487133026C12.6549,26.63299487133026,12.39012,26.36359487133026,12.39012,26.094294871330263C12.39012,25.82489487133026,12.6549,25.55559487133026,12.91969,25.55559487133026L17.42102,25.55559487133026C17.68581,25.55559487133026,17.95059,25.82489487133026,17.95059,26.094294871330263C17.95059,26.36359487133026,17.752,26.63299487133026,17.42102,26.63299487133026ZM17.42102,23.66999487133026L12.91969,23.66999487133026C12.6549,23.66999487133026,12.39012,23.40069487133026,12.39012,23.13129487133026C12.39012,22.86199487133026,12.6549,22.592594871330263,12.91969,22.592594871330263L17.42102,22.592594871330263C17.68581,22.592594871330263,17.95059,22.86199487133026,17.95059,23.13129487133026C17.95059,23.40069487133026,17.752,23.66999487133026,17.42102,23.66999487133026Z" fill="#FFFFFF" fill-opacity="1" style="mix-blend-mode:passthrough"/></g><g><path d="M25.9603175592041,21.78451156616211C23.7096475592041,21.78451156616211,21.9223575592041,23.67003156616211,21.9223575592041,25.89225156616211C21.9223575592041,28.11448156616211,23.775847559204102,30.000001566162112,25.9603175592041,30.000001566162112C28.210987559204103,30.000001566162112,29.9982775592041,28.11448156616211,29.9982775592041,25.89225156616211C30.0644775592041,23.67003156616211,28.210987559204103,21.78451156616211,25.9603175592041,21.78451156616211ZM28.1447875592041,26.49831156616211L25.4307475592041,26.49831156616211L25.4307475592041,23.73737156616211L26.5560875592041,23.73737156616211L26.5560875592041,25.42087156616211L28.210987559204103,25.42087156616211L28.210987559204103,26.49831156616211L28.1447875592041,26.49831156616211Z" fill="#FFFFFF" fill-opacity="1" style="mix-blend-mode:passthrough"/></g></g></g></g></g></svg>