<svg xmlns="http://www.w3.org/2000/svg" xmlns:xlink="http://www.w3.org/1999/xlink" fill="none" version="1.1" width="68" height="68" viewBox="0 0 68 68"><defs><linearGradient x1="0.9238280653953552" y1="0.044921811670064926" x2="0.06250003725290294" y2="0.9374999999999999" id="master_svg0_965_90429"><stop offset="0%" stop-color="#2ECCFE" stop-opacity="1"/><stop offset="100%" stop-color="#181FEA" stop-opacity="1"/></linearGradient></defs><g><g><g><path d="M0,20L0,48C0,59.0457,8.95431,68,20,68L48,68C59.0457,68,68,59.0457,68,48L68,20C68,8.95431,59.0457,0,48,0L20,0C8.95431,0,0,8.95431,0,20Z" fill="url(#master_svg0_965_90429)" fill-opacity="1"/></g></g><g><g><path d="M41.95494490142822,40.55967715423584C41.95494490142822,40.55967715423584,41.95494490142822,39.49649715423584,41.95494490142822,39.49649715423584C41.95494490142822,39.49649715423584,35.21323490142822,39.49649715423584,35.21323490142822,39.49649715423584C35.21323490142822,39.49649715423584,35.21323490142822,40.55967715423584,35.21323490142822,40.55967715423584C35.21323490142822,40.55967715423584,36.493284901428225,40.76354715423584,36.493284901428225,40.76354715423584C36.493284901428225,40.76354715423584,36.493284901428225,52.31589715423584,36.493284901428225,52.31589715423584C36.493284901428225,52.31589715423584,35.21323490142822,52.51359715423584,35.21323490142822,52.51359715423584C35.21323490142822,52.51359715423584,35.21323490142822,53.57579715423584,35.21323490142822,53.57579715423584C35.21323490142822,53.57579715423584,41.95494490142822,53.57579715423584,41.95494490142822,53.57579715423584C41.95494490142822,53.57579715423584,41.95494490142822,52.51359715423584,41.95494490142822,52.51359715423584C41.95494490142822,52.51359715423584,40.67387490142822,52.30769715423584,40.67387490142822,52.30769715423584C40.67387490142822,52.30769715423584,40.67387490142822,40.75845715423584,40.67387490142822,40.75845715423584C40.67387490142822,40.75845715423584,41.95494490142822,40.55967715423584,41.95494490142822,40.55967715423584Z" fill="#9ABBFC" fill-opacity="1"/></g><g><path d="M41.39969282623291,40.30781558197022C41.39969282623291,40.30781558197022,41.39969282623291,39.244635581970215,41.39969282623291,39.244635581970215C41.39969282623291,39.244635581970215,34.65798282623291,39.244635581970215,34.65798282623291,39.244635581970215C34.65798282623291,39.244635581970215,34.65798282623291,40.30781558197022,34.65798282623291,40.30781558197022C34.65798282623291,40.30781558197022,35.93803282623291,40.51168558197021,35.93803282623291,40.51168558197021C35.93803282623291,40.51168558197021,35.93803282623291,52.06403558197022,35.93803282623291,52.06403558197022C35.93803282623291,52.06403558197022,34.65798282623291,52.261735581970214,34.65798282623291,52.261735581970214C34.65798282623291,52.261735581970214,34.65798282623291,53.32393558197022,34.65798282623291,53.32393558197022C34.65798282623291,53.32393558197022,41.39969282623291,53.32393558197022,41.39969282623291,53.32393558197022C41.39969282623291,53.32393558197022,41.39969282623291,52.261735581970214,41.39969282623291,52.261735581970214C41.39969282623291,52.261735581970214,40.11862282623291,52.055835581970214,40.11862282623291,52.055835581970214C40.11862282623291,52.055835581970214,40.11862282623291,40.50659558197022,40.11862282623291,40.50659558197022C40.11862282623291,40.50659558197022,41.39969282623291,40.30781558197022,41.39969282623291,40.30781558197022Z" fill="#FFFFFF" fill-opacity="1"/></g><g><g><path d="M15.964854056186676,52.43775110656738C15.964854056186676,52.43775110656738,15.964854056186676,44.25391010656738,15.964854056186676,44.25391010656738C15.964854056186676,44.25391010656738,15.964854056186676,43.58368110656738,15.964854056186676,43.58368110656738C15.964854056186676,43.58368110656738,11.743522056186675,43.58368110656738,11.743522056186675,43.58368110656738C11.743522056186675,43.58368110656738,11.334869056186676,43.58368110656738,11.334869056186676,43.58368110656738C11.334869056186676,43.58368110656738,11.334869056186676,44.25391010656738,11.334869056186676,44.25391010656738C11.334869056186676,44.25391010656738,11.743522056186675,44.25391010656738,11.743522056186675,44.25391010656738C11.743522056186675,44.25391010656738,11.743522056186675,52.43775110656738,11.743522056186675,52.43775110656738C11.743522056186675,52.43775110656738,10.858284056186676,52.43775110656738,10.858284056186676,52.43775110656738C10.858284056186676,52.43775110656738,10.858284056186676,53.51052110656738,10.858284056186676,53.51052110656738C10.858284056186676,53.51052110656738,16.305574056186675,53.51052110656738,16.305574056186675,53.51052110656738C16.305574056186675,53.51052110656738,16.305574056186675,52.43775110656738,16.305574056186675,52.43775110656738C16.305574056186675,52.43775110656738,15.964854056186676,52.43775110656738,15.964854056186676,52.43775110656738Z" fill="#9ABBFC" fill-opacity="1"/></g><g><path d="M15.898285730381012,40.22932894683838Q15.898285730381012,40.32820894683838,15.888445730381012,40.42660894683838Q15.878605730381011,40.525008946838376,15.859025730381012,40.62198894683838Q15.839435730381012,40.71896894683838,15.810305730381012,40.81359894683838Q15.781165730381012,40.90821894683838,15.742745730381012,40.99956894683838Q15.704335730381011,41.09092894683838,15.657015730381012,41.17812894683838Q15.609695730381013,41.265338946838376,15.553935730381012,41.34754894683838Q15.498165730381011,41.42976894683838,15.434485730381013,41.50619894683838Q15.370805730381012,41.58263894683838,15.299825730381013,41.652558946838376Q15.228845730381012,41.72247894683838,15.151255730381012,41.78520894683838Q15.073655730381013,41.84792894683838,14.990195730381012,41.90286894683838Q14.906735730381012,41.95779894683838,14.818205730381012,42.00441894683838Q14.729685730381012,42.05102894683838,14.636945730381012,42.08886894683838Q14.544205730381012,42.12670894683838,14.448155730381012,42.15540894683838Q14.352095730381013,42.18411894683838,14.253645730381011,42.20340894683838Q14.155195730381012,42.22269894683838,14.055295730381012,42.23238894683838Q13.955405730381012,42.242078946838376,13.855025730381012,42.242078946838376Q13.754645730381013,42.242078946838376,13.654745730381013,42.23238894683838Q13.554855730381012,42.22269894683838,13.456405730381013,42.20340894683838Q13.357955730381011,42.18410894683838,13.261895730381012,42.15540894683838Q13.165845730381012,42.12670894683838,13.073105730381013,42.08886894683838Q12.980365730381012,42.05102894683838,12.891835730381011,42.00441894683838Q12.803312730381013,41.95779894683838,12.719850730381012,41.90286894683838Q12.636388730381013,41.84792894683838,12.558794730381011,41.78520894683838Q12.481200730381012,41.72247894683838,12.410222730381012,41.652558946838376Q12.339243730381012,41.58263894683838,12.275563730381013,41.50619894683838Q12.211884730381012,41.42976894683838,12.156116730381012,41.34754894683838Q12.100349730381012,41.265338946838376,12.053030730381012,41.17812894683838Q12.005712730381012,41.09092894683838,11.967299730381011,40.99956894683838Q11.928885730381012,40.90821894683838,11.899747730381012,40.81359894683838Q11.870609330381011,40.71896894683838,11.851026330381012,40.62198894683838Q11.831443430381013,40.525008946838376,11.821604580381011,40.42660894683838Q11.811765730381012,40.32820894683838,11.811765730381012,40.22932894683838Q11.811765730381012,40.13043894683838,11.821604580381011,40.03203894683838Q11.831443430381013,39.93363894683838,11.851026330381012,39.83665894683838Q11.870609330381011,39.73967894683838,11.899747730381012,39.64504894683838Q11.928885730381012,39.55042894683838,11.967299730381011,39.45907894683838Q12.005712730381012,39.36771894683838,12.053030730381012,39.28051894683838Q12.100349730381012,39.193312946838375,12.156116730381012,39.11109694683838Q12.211884730381012,39.02888094683838,12.275563730381013,38.95244594683838Q12.339243730381012,38.87600994683838,12.410222730381012,38.80609094683838Q12.481200730381012,38.73617194683838,12.558794730381011,38.67344294683838Q12.636388730381013,38.61071394683838,12.719850730381012,38.55577894683838Q12.803312730381013,38.50084394683838,12.891835730381011,38.45423294683838Q12.980365730381012,38.40762094683838,13.073105730381013,38.36978094683838Q13.165845730381012,38.33194094683838,13.261895730381012,38.30323754683838Q13.357955730381011,38.274534046838376,13.456405730381013,38.25524344683838Q13.554855730381012,38.23595284683838,13.654745730381013,38.22626091683838Q13.754645730381013,38.21656894683838,13.855025730381012,38.21656894683838Q13.955405730381012,38.21656894683838,14.055295730381012,38.22626091683838Q14.155195730381012,38.23595284683838,14.253645730381011,38.25524344683838Q14.352095730381013,38.274534046838376,14.448155730381012,38.30323754683838Q14.544205730381012,38.33194094683838,14.636945730381012,38.36978094683838Q14.729685730381012,38.40762094683838,14.818205730381012,38.45423294683838Q14.906735730381012,38.50084394683838,14.990195730381012,38.55577894683838Q15.073655730381013,38.61071394683838,15.151255730381012,38.67344294683838Q15.228845730381012,38.73617194683838,15.299825730381013,38.80609094683838Q15.370805730381012,38.87600994683838,15.434485730381013,38.95244594683838Q15.498165730381011,39.02888094683838,15.553935730381012,39.11109694683838Q15.609695730381013,39.193312946838375,15.657015730381012,39.28051894683838Q15.704335730381011,39.36771894683838,15.742745730381012,39.45907894683838Q15.781165730381012,39.55042894683838,15.810305730381012,39.64504894683838Q15.839435730381012,39.73967894683838,15.859025730381012,39.83665894683838Q15.878605730381011,39.93363894683838,15.888445730381012,40.03203894683838Q15.898285730381012,40.13043894683838,15.898285730381012,40.22932894683838Z" fill="#9ABBFC" fill-opacity="1"/></g></g><g><g><path d="M15.409600967712402,52.18588953430176C15.409600967712402,52.18588953430176,15.409600967712402,44.00204853430176,15.409600967712402,44.00204853430176C15.409600967712402,44.00204853430176,15.409600967712402,43.33181953430176,15.409600967712402,43.33181953430176C15.409600967712402,43.33181953430176,11.188268967712402,43.33181953430176,11.188268967712402,43.33181953430176C11.188268967712402,43.33181953430176,10.779615967712402,43.33181953430176,10.779615967712402,43.33181953430176C10.779615967712402,43.33181953430176,10.779615967712402,44.00204853430176,10.779615967712402,44.00204853430176C10.779615967712402,44.00204853430176,11.188268967712402,44.00204853430176,11.188268967712402,44.00204853430176C11.188268967712402,44.00204853430176,11.188268967712402,52.18588953430176,11.188268967712402,52.18588953430176C11.188268967712402,52.18588953430176,10.303030967712402,52.18588953430176,10.303030967712402,52.18588953430176C10.303030967712402,52.18588953430176,10.303030967712402,53.258659534301756,10.303030967712402,53.258659534301756C10.303030967712402,53.258659534301756,15.750320967712401,53.258659534301756,15.750320967712401,53.258659534301756C15.750320967712401,53.258659534301756,15.750320967712401,52.18588953430176,15.750320967712401,52.18588953430176C15.750320967712401,52.18588953430176,15.409600967712402,52.18588953430176,15.409600967712402,52.18588953430176Z" fill="#FFFFFF" fill-opacity="1"/></g><g><path d="M15.343032641906738,39.977467374572754Q15.343032641906738,40.076347374572755,15.333192641906738,40.17474737457275Q15.323352641906737,40.27314737457275,15.303772641906738,40.37012737457275Q15.284182641906739,40.467107374572755,15.255052641906738,40.56173737457276Q15.225912641906739,40.65635737457276,15.187492641906738,40.747707374572755Q15.149082641906737,40.83906737457276,15.101762641906738,40.92626737457275Q15.05444264190674,41.01347737457275,14.998682641906738,41.095687374572755Q14.942912641906737,41.177907374572754,14.87923264190674,41.254337374572756Q14.815552641906738,41.330777374572754,14.744572641906739,41.40069737457275Q14.673592641906739,41.470617374572754,14.596002641906738,41.533347374572756Q14.51840264190674,41.596067374572755,14.434942641906739,41.65100737457276Q14.351482641906738,41.705937374572756,14.262952641906738,41.75255737457275Q14.174432641906739,41.799167374572754,14.081692641906738,41.83700737457276Q13.988952641906739,41.87484737457275,13.892902641906739,41.90354737457275Q13.79684264190674,41.93225737457276,13.698392641906738,41.951547374572755Q13.599942641906738,41.97083737457275,13.500042641906738,41.98052737457275Q13.400152641906738,41.99021737457275,13.299772641906738,41.99021737457275Q13.199392641906739,41.99021737457275,13.099492641906739,41.98052737457275Q12.999602641906739,41.97083737457275,12.901152641906739,41.951547374572755Q12.802702641906738,41.93224737457275,12.706642641906738,41.90354737457275Q12.610592641906738,41.87484737457275,12.517852641906739,41.83700737457276Q12.425112641906738,41.799167374572754,12.336582641906737,41.75255737457275Q12.248059641906739,41.705937374572756,12.164597641906738,41.65100737457276Q12.081135641906739,41.596067374572755,12.003541641906738,41.533347374572756Q11.925947641906738,41.470617374572754,11.854969641906738,41.40069737457275Q11.783990641906739,41.330777374572754,11.720310641906739,41.254337374572756Q11.656631641906738,41.177907374572754,11.600863641906738,41.095687374572755Q11.545096641906738,41.01347737457275,11.497777641906739,40.92626737457275Q11.450459641906738,40.83906737457276,11.412046641906738,40.747707374572755Q11.373632641906738,40.65635737457276,11.344494641906739,40.56173737457276Q11.315356241906738,40.467107374572755,11.295773241906739,40.37012737457275Q11.276190341906739,40.27314737457275,11.266351491906738,40.17474737457275Q11.256512641906738,40.076347374572755,11.256512641906738,39.977467374572754Q11.256512641906738,39.87857737457276,11.266351491906738,39.78017737457275Q11.276190341906739,39.681777374572754,11.295773241906739,39.58479737457275Q11.315356241906738,39.48781737457276,11.344494641906739,39.393187374572754Q11.373632641906738,39.298567374572755,11.412046641906738,39.20721737457276Q11.450459641906738,39.115857374572755,11.497777641906739,39.02865737457275Q11.545096641906738,38.94145137457275,11.600863641906738,38.859235374572755Q11.656631641906738,38.77701937457275,11.720310641906739,38.700584374572756Q11.783990641906739,38.624148374572755,11.854969641906738,38.554229374572756Q11.925947641906738,38.48431037457276,12.003541641906738,38.42158137457275Q12.081135641906739,38.358852374572756,12.164597641906738,38.303917374572755Q12.248059641906739,38.248982374572755,12.336582641906737,38.202371374572756Q12.425112641906738,38.15575937457275,12.517852641906739,38.11791937457276Q12.610592641906738,38.080079374572755,12.706642641906738,38.05137597457276Q12.802702641906738,38.02267247457275,12.901152641906739,38.00338187457275Q12.999602641906739,37.984091274572755,13.099492641906739,37.97439934457275Q13.199392641906739,37.964707374572754,13.299772641906738,37.964707374572754Q13.400152641906738,37.964707374572754,13.500042641906738,37.97439934457275Q13.599942641906738,37.984091274572755,13.698392641906738,38.00338187457275Q13.79684264190674,38.02267247457275,13.892902641906739,38.05137597457276Q13.988952641906739,38.080079374572755,14.081692641906738,38.11791937457276Q14.174432641906739,38.15575937457275,14.262952641906738,38.202371374572756Q14.351482641906738,38.248982374572755,14.434942641906739,38.303917374572755Q14.51840264190674,38.358852374572756,14.596002641906738,38.42158137457275Q14.673592641906739,38.48431037457276,14.744572641906739,38.554229374572756Q14.815552641906738,38.624148374572755,14.87923264190674,38.700584374572756Q14.942912641906737,38.77701937457275,14.998682641906738,38.859235374572755Q15.05444264190674,38.94145137457275,15.101762641906738,39.02865737457275Q15.149082641906737,39.115857374572755,15.187492641906738,39.20721737457276Q15.225912641906739,39.298567374572755,15.255052641906738,39.393187374572754Q15.284182641906739,39.48781737457276,15.303772641906738,39.58479737457275Q15.323352641906737,39.681777374572754,15.333192641906738,39.78017737457275Q15.343032641906738,39.87857737457276,15.343032641906738,39.977467374572754Z" fill="#FFFFFF" fill-opacity="1"/></g></g><g><path d="M32.64340181427002,49.85719715423584C32.64340181427002,49.85719715423584,30.890501814270017,51.58399715423584,30.890501814270017,51.58399715423584C30.890501814270017,51.58399715423584,23.87872181427002,51.58399715423584,23.87872181427002,51.58399715423584C23.87872181427002,51.58399715423584,23.87872181427002,40.55967715423584,23.87872181427002,40.55967715423584C23.87872181427002,40.55967715423584,25.29432181427002,40.55967715423584,25.29432181427002,40.55967715423584C25.29432181427002,40.55967715423584,25.29432181427002,39.49649715423584,25.29432181427002,39.49649715423584C25.29432181427002,39.49649715423584,18.55260181427002,39.49649715423584,18.55260181427002,39.49649715423584C18.55260181427002,39.49649715423584,18.55260181427002,40.55967715423584,18.55260181427002,40.55967715423584C18.55260181427002,40.55967715423584,19.69916181427002,40.55967715423584,19.69916181427002,40.55967715423584C19.69916181427002,40.55967715423584,19.69916181427002,51.58399715423584,19.69916181427002,51.58399715423584C19.69916181427002,51.58399715423584,19.69916181427002,52.39949715423584,19.69916181427002,52.39949715423584C19.69916181427002,52.39949715423584,18.61986291427002,52.51359715423584,18.61986291427002,52.51359715423584C18.61986291427002,52.51359715423584,18.61986291427002,53.57579715423584,18.61986291427002,53.57579715423584C18.61986291427002,53.57579715423584,19.69916181427002,53.57579715423584,19.69916181427002,53.57579715423584C19.69916181427002,53.57579715423584,26.30533181427002,53.57579715423584,26.30533181427002,53.57579715423584C26.30533181427002,53.57579715423584,32.37340181427002,53.57579715423584,32.37340181427002,53.57579715423584C32.37340181427002,53.57579715423584,33.18260181427002,49.98969715423584,33.18260181427002,49.98969715423584C33.18260181427002,49.98969715423584,32.64340181427002,49.85719715423584,32.64340181427002,49.85719715423584Z" fill="#9ABBFC" fill-opacity="1"/></g><g><path d="M32.08815736846924,49.605335581970216C32.08815736846924,49.605335581970216,30.335257368469236,51.33213558197021,30.335257368469236,51.33213558197021C30.335257368469236,51.33213558197021,23.323477368469238,51.33213558197021,23.323477368469238,51.33213558197021C23.323477368469238,51.33213558197021,23.323477368469238,40.30781558197022,23.323477368469238,40.30781558197022C23.323477368469238,40.30781558197022,24.73907736846924,40.30781558197022,24.73907736846924,40.30781558197022C24.73907736846924,40.30781558197022,24.73907736846924,39.244635581970215,24.73907736846924,39.244635581970215C24.73907736846924,39.244635581970215,17.99735736846924,39.244635581970215,17.99735736846924,39.244635581970215C17.99735736846924,39.244635581970215,17.99735736846924,40.30781558197022,17.99735736846924,40.30781558197022C17.99735736846924,40.30781558197022,19.14391736846924,40.30781558197022,19.14391736846924,40.30781558197022C19.14391736846924,40.30781558197022,19.14391736846924,51.33213558197021,19.14391736846924,51.33213558197021C19.14391736846924,51.33213558197021,19.14391736846924,52.14763558197021,19.14391736846924,52.14763558197021C19.14391736846924,52.14763558197021,18.064618468469238,52.261735581970214,18.064618468469238,52.261735581970214C18.064618468469238,52.261735581970214,18.064618468469238,53.32393558197022,18.064618468469238,53.32393558197022C18.064618468469238,53.32393558197022,19.14391736846924,53.32393558197022,19.14391736846924,53.32393558197022C19.14391736846924,53.32393558197022,25.750087368469238,53.32393558197022,25.750087368469238,53.32393558197022C25.750087368469238,53.32393558197022,31.818157368469237,53.32393558197022,31.818157368469237,53.32393558197022C31.818157368469237,53.32393558197022,32.62735736846924,49.73783558197022,32.62735736846924,49.73783558197022C32.62735736846924,49.73783558197022,32.08815736846924,49.605335581970216,32.08815736846924,49.605335581970216Z" fill="#FFFFFF" fill-opacity="1"/></g><g><path d="M54.803540921325684,40.57522759735107C52.118300921325684,38.91557859735107,49.13940092132568,38.406087597351075,46.698020921325686,40.19038759735108C43.67061092132568,42.40302759735108,44.30573092132568,46.611477597351076,49.13940092132568,47.790177597351075C55.38952092132568,49.112657597351074,53.778470921325685,51.710057597351074,50.653450921325685,51.710057597351074C48.70033092132569,51.710057597351074,46.80642092132568,50.162557597351075,46.30740092132568,49.521757597351076C46.30740092132568,49.521757597351076,45.72143192132568,49.521757597351076,45.72143192132568,49.521757597351076C45.72143192132568,49.521757597351076,44.940176121325685,53.08115759735107,44.940176121325685,53.08115759735107C46.112060921325686,52.503957597351075,47.83080092132568,53.716057597351075,51.19020092132568,53.562157597351074C55.38942092132568,53.369757597351075,56.78442092132568,51.44175759735107,56.659020921325684,49.521757597351076C56.512820921325684,47.284867597351074,55.682420921325686,45.673797597351076,50.897230921325686,44.711807597351076C45.965880921325684,43.72043759735107,48.13929092132568,39.93555959735107,51.434700921325685,41.320557597351076C53.43701092132568,42.162087597351075,53.68079092132568,42.667307597351076,55.38952092132568,43.34070759735108C55.38952092132568,43.34070759735108,55.87772092132568,40.19038759735108,55.87772092132568,40.19038759735108C55.87772092132568,40.19038759735108,55.38952092132568,40.19038759735108,55.38952092132568,40.19038759735108C55.38952092132568,40.19038759735108,54.803540921325684,40.57522759735107,54.803540921325684,40.57522759735107Z" fill="#9ABBFC" fill-opacity="1"/></g><g><path d="M54.24828884613037,40.32337365447998C51.56304884613037,38.66372465447998,48.58414884613037,38.15423365447998,46.14276884613037,39.93853365447998C43.11535884613037,42.15117365447998,43.75047884613037,46.35962365447998,48.58414884613037,47.53832365447998C54.83426884613037,48.86080365447998,53.22321884613037,51.45820365447998,50.09819884613037,51.45820365447998C48.145078846130374,51.45820365447998,46.25116884613037,49.91070365447998,45.75214884613037,49.26990365447998C45.75214884613037,49.26990365447998,45.16617984613037,49.26990365447998,45.16617984613037,49.26990365447998C45.16617984613037,49.26990365447998,44.38492404613037,52.82930365447998,44.38492404613037,52.82930365447998C45.55680884613037,52.25210365447998,47.27554884613037,53.46420365447998,50.63494884613037,53.31030365447998C54.83416884613037,53.11790365447998,56.22916884613037,51.18990365447998,56.10376884613037,49.26990365447998C55.95756884613037,47.03301365447998,55.127168846130374,45.42194365447998,50.341978846130374,44.45995365447998C45.41062884613037,43.46858365447998,47.58403884613037,39.68370565447998,50.87944884613037,41.06870365447998C52.88175884613037,41.91023365447998,53.12553884613037,42.41545365447998,54.83426884613037,43.08885365447998C54.83426884613037,43.08885365447998,55.32246884613037,39.93853365447998,55.32246884613037,39.93853365447998C55.32246884613037,39.93853365447998,54.83426884613037,39.93853365447998,54.83426884613037,39.93853365447998C54.83426884613037,39.93853365447998,54.24828884613037,40.32337365447998,54.24828884613037,40.32337365447998Z" fill="#FFFFFF" fill-opacity="1"/></g><g><path d="M33.298853895874025,40.97056508150101C34.61678389587402,40.81626508150101,33.96147389587402,39.500465081501005,33.466073895874025,38.035465081501C30.196853895874025,28.376265081501007,34.010593895874024,23.949265081501007,40.275233895874024,24.217965081501006C43.72483389587403,24.575565081501008,45.54063389587402,26.632565081501006,45.72253389587402,30.388965081501006C45.858333895874026,32.266965081501006,45.17793389587402,36.022665081501,42.04573389587402,37.49906508150101C40.66293389587402,38.149765081501,41.851233895874024,39.129765081501006,43.81413389587402,40.08316508150101C44.19073389587402,40.25286508150101,44.62183389587402,40.26166508150101,45.005533895874024,40.107865081501004C50.76123389587403,37.901565081501005,50.538533895874025,32.22976508150101,49.943933895874025,29.315265081501007C48.03013389587402,21.21376508150101,38.08873389587402,12.822975081501006,36.01833389587402,11.192182381501008C35.92373389587402,11.119484881501007,35.796033895874025,11.104237181501007,35.68653389587402,11.152559781501006C35.57707389587402,11.200882381501007,35.503653895874024,11.304861081501008,35.49574389587402,11.422799081501006C35.380783895874025,13.230675081501007,34.56973389587402,18.76755508150101,29.110943895874023,25.02196508150101C23.438953895874022,31.518365081501006,24.716116895874023,39.120565081501006,33.298853895874025,40.97056508150101Z" fill="#9ABBFC" fill-opacity="1"/></g><g><path d="M32.375832579345705,40.1489309677124C33.6937625793457,39.9946309677124,33.0384525793457,38.6788309677124,32.543052579345705,37.2138309677124C29.273832579345704,27.554630967712402,33.087572579345704,23.127630967712403,39.352212579345704,23.3963309677124C42.80181257934571,23.753930967712403,44.6176125793457,25.8109309677124,44.7995125793457,29.5673309677124C44.935312579345705,31.4453309677124,44.2549125793457,35.2010309677124,41.1227125793457,36.677430967712404C39.7399125793457,37.3281309677124,40.928212579345704,38.3081309677124,42.8911125793457,39.2615309677124C43.2677125793457,39.4312309677124,43.6988125793457,39.4400309677124,44.0825125793457,39.2862309677124C49.83821257934571,37.0799309677124,49.615512579345705,31.408130967712403,49.020912579345705,28.493630967712402C47.1071125793457,20.392130967712404,37.1657125793457,12.001340967712402,35.0953125793457,10.370548267712403C35.0007125793457,10.297850767712402,34.873012579345705,10.282603067712403,34.7635125793457,10.330925667712402C34.6540525793457,10.379248267712402,34.5806325793457,10.483226967712403,34.5727225793457,10.601164967712402C34.457762579345705,12.409040967712402,33.6467125793457,17.945920967712404,28.187922579345702,24.200330967712404C22.5159325793457,30.6967309677124,23.793095579345703,38.2989309677124,32.375832579345705,40.1489309677124Z" fill="#FFFFFF" fill-opacity="1"/></g></g></g></svg>