<svg xmlns="http://www.w3.org/2000/svg" xmlns:xlink="http://www.w3.org/1999/xlink" fill="none" version="1.1" width="16" height="16" viewBox="0 0 16 16"><g><g></g><g><path d="M1.538462,14C1.241078,14,1.000000231083,13.7558,1.000000231083,13.4545C1.000000231083,13.1533,1.241078,12.9091,1.538462,12.9091L2.0769200000000003,12.9091L2.0769200000000003,5.27273L1.538462,5.27273C1.241078,5.27273,1.000000231083,5.02852,1.00000030811,4.72727L1.00000030811,2.545455C1.000000231083,2.244208,1.241078,2.000000156056,1.538462,2L14.4615,2C14.7589,2.000000156056,15,2.244208,15,2.545455L15,4.72727C15,5.02852,14.7589,5.27273,14.4615,5.27273L13.9231,5.27273L13.9231,12.9091L14.4615,12.9091C14.7589,12.9091,15,13.1533,15,13.4545C15,13.7558,14.7589,14,14.4615,14L1.538462,14ZM12.8462,5.27273L3.15385,5.27273L3.15385,12.9091L12.8462,12.9091L12.8462,5.27273ZM7.99246,6.78909C8.289850000000001,6.78909,8.53092,7.0333,8.53092,7.33455L8.53092,8.42545L9.60785,8.42545C9.90523,8.42545,10.14631,8.66966,10.14631,8.97091C10.14631,9.27216,9.90523,9.516359999999999,9.60785,9.516359999999999L8.53092,9.516359999999999L8.53092,10.60727C8.53092,10.90852,8.289850000000001,11.15273,7.99246,11.15273C7.69508,11.15273,7.454,10.90852,7.454,10.60727L7.45292,9.516359999999999L6.37708,9.516359999999999C6.07969,9.516359999999999,5.83862,9.27216,5.83862,8.97091C5.83862,8.66966,6.07969,8.42545,6.37708,8.42545L7.454,8.42545L7.454,7.33455C7.454,7.0333,7.69508,6.78909,7.99246,6.78909ZM13.9231,3.09091L2.0769200000000003,3.09091L2.0769200000000003,4.18182L13.9231,4.18182L13.9231,3.09091Z" fill="#0066EC" fill-opacity="1" style="mix-blend-mode:passthrough"/></g></g></svg>