<svg xmlns="http://www.w3.org/2000/svg" xmlns:xlink="http://www.w3.org/1999/xlink" fill="none" version="1.1" width="26" height="27" viewBox="0 0 26 27"><defs><filter id="master_svg0_306_37098" filterUnits="objectBoundingBox" color-interpolation-filters="sRGB" x="-0.5714285714285714" y="-0.42857142857142855" width="2.142857142857143" height="2.142857142857143"><feFlood flood-opacity="0" result="BackgroundImageFix"/><feColorMatrix in="SourceAlpha" type="matrix" values="0 0 0 0 0 0 0 0 0 0 0 0 0 0 0 0 0 0 127 0"/><feOffset dy="2" dx="0"/><feGaussianBlur stdDeviation="2"/><feColorMatrix type="matrix" values="0 0 0 0 0.6117647290229797 0 0 0 0 0.6705882549285889 0 0 0 0 0.7450980544090271 0 0 0 0.30000001192092896 0"/><feBlend mode="normal" in2="BackgroundImageFix" result="effect1_dropShadow"/><feBlend mode="normal" in="SourceGraphic" in2="effect1_dropShadow" result="shape"/></filter></defs><g><g><ellipse cx="13" cy="12" rx="12" ry="12" fill="#FFFFFF" fill-opacity="1"/></g><g filter="url(#master_svg0_306_37098)"><path d="M10.375,5.525L10.375,7.45C8.8,8.325,7.75,10.075,7.75,12C7.75,14.8875,10.1125,17.25,13,17.25C15.8875,17.25,18.25,14.8875,18.25,12C18.25,10.075,17.2,8.325,15.625,7.45L15.625,5.525C18.1625,6.575,20,9.1125,20,12C20,15.85,16.85,19,13,19C9.15,19,6,15.85,6,12C6,9.025,7.8375,6.575,10.375,5.525ZM12.125,5L13.875,5L13.875,9.375L12.125,9.375L12.125,5Z" fill="#0066EC" fill-opacity="1" style="mix-blend-mode:passthrough"/></g></g></svg>