<svg xmlns="http://www.w3.org/2000/svg" xmlns:xlink="http://www.w3.org/1999/xlink" fill="none" version="1.1" width="16" height="16" viewBox="0 0 16 16"><defs><clipPath id="master_svg0_178_25509"><rect x="1" y="1" width="14" height="14" rx="0"/></clipPath></defs><g><g></g><g clip-path="url(#master_svg0_178_25509)"><g><path d="M11.745,7.3408959375L4.26523,7.3408959375C2.46507,7.3408959375,1,5.9201259375,1,4.1741559375C1,2.4281959375,2.46507,1.0068359375,4.26523,1.0068359375L11.7444,1.0068359375C13.5452,1.0068359375,15.0102,2.4276159374999997,15.0102,4.1741559375C15.0102,5.9207059375,13.5452,7.3408959375,11.745,7.3408959375ZM4.26523,2.1723659375C3.10611,2.1723659375,2.1632,3.0704059375,2.1632,4.1741559375C2.1632,5.2779159375,3.10611,6.1759559375,4.26523,6.1759559375L11.7444,6.1759559375C12.903,6.1759559375,13.8459,5.2779159375,13.8459,4.1741559375C13.8459,3.0704059375,12.9035,2.1723659375,11.745,2.1723659375L4.26523,2.1723659375Z" fill="#0066EC" fill-opacity="1" style="mix-blend-mode:passthrough"/></g><g><path d="M10.85804,3.5078125L12.558,3.5078125L12.558,4.7461825L10.85804,4.7461825L10.85804,3.5078125ZM1,11.8261925C1,10.0796425,2.46507,8.6582825,4.26581,8.6582825L11.745,8.6582825C13.5457,8.6582825,15.0108,10.0790625,15.0108,11.8261925C15.0108,13.5721125,13.5457,14.9929125,11.745,14.9929125L4.26581,14.9929125C2.46507,14.9929125,1,13.5727125,1,11.8261925ZM4.26581,9.8243925C3.10669,9.8243925,2.16378,10.7224325,2.16378,11.8267725C2.16378,12.9299425,3.10669,13.8274125,4.26581,13.8274125L11.745,13.8274125C12.9035,13.8274125,13.847,12.9299425,13.847,11.8261925C13.847,10.7218525,12.9035,9.823812499999999,11.745,9.823812499999999L4.26581,9.823812499999999L4.26581,9.8243925Z" fill="#0066EC" fill-opacity="1" style="mix-blend-mode:passthrough"/></g><g><path d="M3.427734375,11.16064453125L5.1276543750000005,11.16064453125L5.1276543750000005,12.39901453125L3.427734375,12.39901453125L3.427734375,11.16064453125Z" fill="#0066EC" fill-opacity="1" style="mix-blend-mode:passthrough"/></g></g></g></svg>