<svg xmlns="http://www.w3.org/2000/svg" xmlns:xlink="http://www.w3.org/1999/xlink" fill="none" version="1.1" width="400" height="400" viewBox="0 0 400 400"><defs><linearGradient x1="0.5" y1="0" x2="0.5" y2="1" id="master_svg0_148_34972"><stop offset="0%" stop-color="#FFFFFF" stop-opacity="0.5"/><stop offset="100%" stop-color="#FFFFFF" stop-opacity="0.20000000298023224"/></linearGradient><linearGradient x1="1.4458807706832886" y1="0.6441398859024048" x2="0.2951573657675687" y2="0.6451867898362593" id="master_svg1_207_28642"><stop offset="0%" stop-color="#FFFFFF" stop-opacity="0"/><stop offset="100%" stop-color="#FFFFFF" stop-opacity="0.5"/></linearGradient><linearGradient x1="1.4458807706832886" y1="0.6700169444084167" x2="0.29515618974804425" y2="0.6714734959511759" id="master_svg2_207_28694"><stop offset="0%" stop-color="#E0E5EF" stop-opacity="0"/><stop offset="100%" stop-color="#FFFFFF" stop-opacity="0.5"/></linearGradient><linearGradient x1="0.9251821637153625" y1="0.9879999756813049" x2="0.4086787342713883" y2="1.0146567596323548" id="master_svg3_207_28754"><stop offset="0%" stop-color="#E0E5EF" stop-opacity="0"/><stop offset="100%" stop-color="#FFFFFF" stop-opacity="0.5"/></linearGradient><linearGradient x1="0.9251821637153625" y1="0.9879999756813049" x2="0.4086787342713883" y2="1.0146567596323548" id="master_svg4_207_28890"><stop offset="0%" stop-color="#FFFFFF" stop-opacity="0"/><stop offset="100%" stop-color="#FFFFFF" stop-opacity="0.5"/></linearGradient><linearGradient x1="0.9203914403915405" y1="0.9879999756813049" x2="0.40974950317592906" y2="1.0149583431983276" id="master_svg5_207_28774"><stop offset="0%" stop-color="#E0E5EF" stop-opacity="0"/><stop offset="100%" stop-color="#FFFFFF" stop-opacity="0.5"/></linearGradient><linearGradient x1="0.6282235980033875" y1="-0.07520012557506561" x2="0.6282235980033875" y2="1" id="master_svg6_207_29448"><stop offset="0%" stop-color="#FFFFFF" stop-opacity="0.699999988079071"/><stop offset="100%" stop-color="#FFFFFF" stop-opacity="0.20000000298023224"/></linearGradient><linearGradient x1="1" y1="0.5" x2="0.35094547271728516" y2="0.5" id="master_svg7_207_27912"><stop offset="0%" stop-color="#A2ABB9" stop-opacity="1"/><stop offset="100%" stop-color="#E7EAF0" stop-opacity="1"/></linearGradient><linearGradient x1="0.5" y1="0.9999999403953552" x2="0.9253519206116724" y2="-0.30064941877386697" id="master_svg8_207_31035"><stop offset="0%" stop-color="#FFFFFF" stop-opacity="1"/><stop offset="100%" stop-color="#FFFFFF" stop-opacity="1"/></linearGradient></defs><g><g></g><g><g style="opacity:0.6015942096710205;"><path d="M197.912,49C231.935,49,263.30600000000004,60.1748,288.445,78.9991C288.445,78.9991,278.333,79,278.333,79C273.547,79,269.66700000000003,82.8802,269.66700000000003,87.66669999999999C269.66700000000003,87.66669999999999,269.66700000000003,88.33330000000001,269.66700000000003,88.33330000000001C269.66700000000003,93.1198,273.547,97,278.333,97C278.333,97,308.452,96.9995,308.452,96.9995C314.166,103.15729999999999,319.356,109.7941,323.953,116.8418C323.953,116.8418,338.251,116.8419,338.251,116.8419C343.406,116.8419,347.585,121.0205,347.585,126.1752C347.585,126.1752,347.585,126.6961,347.585,126.6961C347.585,130.9547,344.733,134.5471,340.834,135.6674C340.834,135.6674,327.667,135.6667,327.667,135.6667C321.776,135.6667,317,140.4423,317,146.3333C317,146.3333,317,149.667,317,149.667C317,155.558,321.776,160.333,327.667,160.333C327.667,160.333,372.934,160.333,372.934,160.333C377.568,161.494,381,165.687,381,170.68099999999998C381,170.68099999999998,381,171.276,381,171.276C381,177.167,376.224,181.943,370.333,181.943C370.333,181.943,346.88,181.942,346.88,181.942C347.346,186.677,347.585,191.478,347.585,196.333C347.585,277.703,280.574,343.667,197.912,343.667C131.793,343.667,75.6877,301.464,55.8789,242.932C55.8789,242.932,50.2616,242.932,50.2616,242.932C47.9908,242.932,46.15,241.091,46.15,238.82C46.15,237.088,47.2215,235.606,48.737899999999996,235C48.737899999999996,235,55.6667,235,55.6667,235C60.4531,235,64.33330000000001,231.12,64.33330000000001,226.333C64.33330000000001,226.333,64.33330000000001,225.667,64.33330000000001,225.667C64.33330000000001,220.88,60.4531,217,55.6667,217C55.6667,217,49.6994,217,49.6994,217C49.6943,216.965,49.6892,216.929,49.684200000000004,216.893C49.684200000000004,216.893,34.902699999999996,216.891,34.902699999999996,216.891C31.1181,216.891,28.05,213.823,28.05,210.039C28.05,206.254,31.1181,203.186,34.902699999999996,203.186C34.902699999999996,203.186,48.3975,203.187,48.3975,203.187C48.2919,200.916,48.2385,198.631,48.2385,196.333C48.2385,174.57999999999998,53.0277,153.928,61.625,135.3426C61.625,135.3426,37.6667,135.3442,37.6667,135.3442C27.35735,135.3442,19,126.9868,19,116.6775C19,116.6775,19,115.6357,19,115.6357C19,105.68719999999999,26.78257,97.5564,36.5916,96.99940000000001C36.5916,96.99940000000001,121,97,121,97C124.682,97,127.667,94.0152,127.667,90.33330000000001C127.667,86.6514,124.682,83.66669999999999,121,83.66669999999999C121,83.66669999999999,101.461,83.666,101.461,83.666C101.6236,83.5309,101.7866,83.3962,101.9498,83.2618C101.9498,83.2618,92.232,83.2636,92.232,83.2636C85.2364,83.2636,79.5654,77.5925,79.5654,70.5969C79.5654,70.5969,79.5654,69.8899,79.5654,69.8899C79.5654,62.8943,85.2364,57.223259999999996,92.232,57.223259999999996C92.232,57.223259999999996,148.487,57.2221,148.487,57.2221C163.96,51.8957,180.592,49,197.912,49Z" fill-rule="evenodd" fill="url(#master_svg0_148_34972)" fill-opacity="1"/></g><g><path d="M142.3342765625,111.62431562500001C142.3342765625,116.83271562499999,137.03737656250001,120.99931562500001,130.34647656250002,120.99931562500001C130.34647656250002,120.99931562500001,93.2676765625,120.99931562500001,93.2676765625,120.99931562500001C86.5767265625,120.58271562499999,81.0009765625,116.62431562500001,81.0009765625,111.20771562499999C81.0009765625,107.666015625,83.5100665625,104.541015625,87.1343065625,102.874315625C86.8555165625,102.249315625,86.5767365625,101.624315625,86.5767365625,100.999315625C86.5767365625,97.457685625,90.2009765625,94.332685625,94.9403765625,94.332685625C96.8918765625,94.332685625,98.56457656250001,94.957685625,99.9585765625,95.791015625C103.3039765625,90.999345625,109.43737656249999,87.666015625,116.6857765625,87.666015625C126.72217656250001,87.666015625,134.80707656250001,94.12435562499999,134.80707656250001,102.041015625C134.80707656250001,102.041015625,134.80707656250001,102.874315625,134.80707656250001,102.874315625C139.26767656250001,104.33271562499999,142.3342765625,107.666015625,142.3342765625,111.62431562500001Z" fill="url(#master_svg1_207_28642)" fill-opacity="1"/></g><g><path d="M296.58756875,105.87431562500001C296.58756875,109.83271562499999,292.88096875,112.99931562500001,288.19876875,112.99931562500001C288.19876875,112.99931562500001,262.25189875,112.99931562500001,262.25189875,112.99931562500001C257.56974875,112.682715625,253.66796875,109.67431562499999,253.66796875,105.557715625C253.66796875,102.866015625,255.42377875,100.491015625,257.95993875,99.224315625C257.76484875,98.749315625,257.56976875,98.274315625,257.56976875,97.799315625C257.56976875,95.107685625,260.10590875,92.732685625,263.42242875,92.732685625C264.78806875,92.732685625,265.95856875,93.207685625,266.93406875,93.841015625C269.27506875,90.199345625,273.56706875,87.666015625,278.63936875,87.666015625C285.66266875,87.666015625,291.32016875,92.574345625,291.32016875,98.591015625C291.32016875,98.591015625,291.32016875,99.224315625,291.32016875,99.224315625C294.44166875,100.332715625,296.58756875,102.866015625,296.58756875,105.87431562500001Z" fill="url(#master_svg2_207_28694)" fill-opacity="1"/></g><g><g><path d="M119.69047656250001,259.9243C119.7684765625,260.236,119.8660765625,260.5671,119.9830765625,260.9177C119.9830765625,260.9177,120.21727656249999,261.8526,120.21727656249999,261.8526C120.29527656249999,262.1642,120.33427656250001,262.4174,120.33427656250001,262.61220000000003C120.33427656250001,263.703,120.0416765625,264.6671,119.4563765625,265.5047C118.8709765625,266.3422,118.1100765625,266.9557,117.1735765625,267.3453C116.8223765625,267.3842,116.4516765625,267.4037,116.06147656249999,267.4037C115.7493765625,267.4427,115.3981765625,267.4622,115.0079765625,267.4622C115.0079765625,267.4622,113.8957765625,267.4622,113.8957765625,267.4622C113.8957765625,267.4622,104.7648765625,267.579,104.7648765625,267.579C104.7648765625,267.579,104.7648765625,277.3373,104.7648765625,277.3373C104.7648765625,278.7787,104.7941765625,280.2298,104.8526765625,281.6906C104.9111765625,283.1514,104.9794765625,284.4661,105.0574765625,285.6348C105.1355765625,287.0372,105.2330765625,288.3811,105.3501765625,289.6667C105.3501765625,289.6667,96.92157656250001,289.6667,96.92157656250001,289.6667C96.92157656250001,289.6667,97.0971765625,287.38779999999997,97.0971765625,287.38779999999997C97.1362765625,286.4918,97.1752765625,285.2745,97.2142765625,283.7357C97.2532765625,282.197,97.2727765625,280.1421,97.2727765625,277.5711C97.2727765625,277.5711,97.2727765625,268.6308,97.2727765625,268.6308C96.60947656249999,269.2151,95.8680765625,269.5073,95.0485765625,269.5073C94.3852765625,269.5073,93.8096765625,269.3515,93.3218765625,269.0398C92.8341765625,268.7282,92.4341765625,268.29970000000003,92.1219765625,267.7543C92.1219765625,267.7543,85.5079265625,267.4037,85.5079265625,267.4037C84.2202265625,267.0921,83.1471365625,266.4396,82.2886765625,265.4462C81.4302095625,264.4529,81.0009765625,263.2745,81.0009765625,261.911C81.0009765625,261.6773,81.0204871625,261.463,81.0595082625,261.2683C81.0985294625,261.0735,81.1570615625,260.8787,81.2351035625,260.6839C81.2351035625,260.6839,82.6983965625,257.2948,82.6983965625,257.2948C82.7764365625,256.4378,83.0203265625,255.6392,83.4300465625,254.8991C83.8397665625,254.1589,84.3567965625,253.5162,84.9811365625,252.9708C84.9811365625,252.9708,94.1705765625,235.9668,94.1705765625,235.9668C94.1705765625,235.9668,94.2291765625,235.9668,94.2291765625,235.9668C94.9705765625,234.60336,95.8485765625,233.43471,96.8630765625,232.46082C97.8776765625,231.486941,99.1848765625,231,100.7846765625,231C102.1894765625,231,103.4478765625,231.370075,104.5599765625,232.11023C105.6720765625,232.85038,106.5012765625,233.82426,107.0475765625,235.03187C107.0475765625,235.03187,114.4225765625,249.4648,114.4225765625,249.4648C115.7493765625,249.9323,116.8418765625,250.7503,117.7003765625,251.919C118.55887656249999,253.0877,118.9880765625,254.4316,118.9880765625,255.9509C118.9880765625,256.5742,118.8905765625,257.2364,118.6954765625,257.9376C118.6954765625,257.9376,119.69047656250001,259.9243,119.69047656250001,259.9243Z" fill="url(#master_svg3_207_28754)" fill-opacity="1"/></g><g><path d="M326.3584453125,259.9243C326.4364453125,260.236,326.5340453125,260.5671,326.6510453125,260.9177C326.6510453125,260.9177,326.8852453125,261.8526,326.8852453125,261.8526C326.9632453125,262.1642,327.0022453125,262.4174,327.0022453125,262.61220000000003C327.0022453125,263.703,326.7096453125,264.6671,326.1243453125,265.5047C325.5390453125,266.3422,324.7780453125,266.9557,323.8415453125,267.3453C323.4903453125,267.3842,323.1196453125,267.4037,322.7294453125,267.4037C322.4172453125,267.4427,322.0661453125,267.4622,321.6758453125,267.4622C321.6758453125,267.4622,320.5637453125,267.4622,320.5637453125,267.4622C320.5637453125,267.4622,311.4328453125,267.579,311.4328453125,267.579C311.4328453125,267.579,311.4328453125,277.3373,311.4328453125,277.3373C311.4328453125,278.7787,311.4621453125,280.2298,311.5206453125,281.6906C311.5791453125,283.1514,311.6474453125,284.4661,311.7254453125,285.6348C311.8035453125,287.0372,311.9010453125,288.3811,312.0181453125,289.6667C312.0181453125,289.6667,303.5895453125,289.6667,303.5895453125,289.6667C303.5895453125,289.6667,303.7651453125,287.38779999999997,303.7651453125,287.38779999999997C303.80424531250003,286.4918,303.8432453125,285.2745,303.8822453125,283.7357C303.9212453125,282.197,303.9407453125,280.1421,303.9407453125,277.5711C303.9407453125,277.5711,303.9407453125,268.6308,303.9407453125,268.6308C303.2774453125,269.2151,302.5360453125,269.5073,301.7165453125,269.5073C301.0532453125,269.5073,300.4776453125,269.3515,299.9898453125,269.0398C299.5021453125,268.7282,299.1021453125,268.29970000000003,298.7899453125,267.7543C298.7899453125,267.7543,292.1758853125,267.4037,292.1758853125,267.4037C290.8881853125,267.0921,289.8151153125,266.4396,288.9566453125,265.4462C288.0981783125,264.4529,287.6689453125,263.2745,287.6689453125,261.911C287.6689453125,261.6773,287.6884567125,261.463,287.7274780125,261.2683C287.7664987125,261.0735,287.8250343125,260.8787,287.9030763125,260.6839C287.9030763125,260.6839,289.3663753125,257.2948,289.3663753125,257.2948C289.4444153125,256.4378,289.6883053125,255.6392,290.0980253125,254.8991C290.5077453125,254.1589,291.0247753125,253.5162,291.6491053125,252.9708C291.6491053125,252.9708,300.8385453125,235.9668,300.8385453125,235.9668C300.8385453125,235.9668,300.8971453125,235.9668,300.8971453125,235.9668C301.6385453125,234.60336,302.5165453125,233.43471,303.5310453125,232.46082C304.5456453125,231.486941,305.8528453125,231,307.4526453125,231C308.8574453125,231,310.1158453125,231.370075,311.2279453125,232.11023C312.3400453125,232.85038,313.1692453125,233.82426,313.7155453125,235.03187C313.7155453125,235.03187,321.0905453125,249.4648,321.0905453125,249.4648C322.4173453125,249.9323,323.5098453125,250.7503,324.36834531249997,251.919C325.2268453125,253.0877,325.6560453125,254.4316,325.6560453125,255.9509C325.6560453125,256.5742,325.5584453125,257.2364,325.3633453125,257.9376C325.3633453125,257.9376,326.3584453125,259.9243,326.3584453125,259.9243Z" fill="url(#master_svg4_207_28890)" fill-opacity="1"/></g><g><path d="M301.83218046875,266.34678046875C301.89298046875,266.59108046875,301.96908046875,266.85078046875,302.06038046875,267.12568046875C302.06038046875,267.12568046875,302.24288046875,267.85868046875,302.24288046875,267.85868046875C302.30368046875,268.10308046875,302.33418046875,268.30158046875,302.33418046875,268.45428046874997C302.33418046875,269.30958046875,302.10598046875,270.06558046875,301.64958046875,270.72228046875C301.19328046875,271.37898046875,300.59998046875,271.86008046874997,299.86988046875,272.16548046875C299.59608046875,272.19598046875,299.30698046875,272.21128046875,299.00278046875,272.21128046875C298.75938046875,272.24188046875,298.48558046875,272.25708046875,298.18138046875,272.25708046875C298.18138046875,272.25708046875,297.31428046875,272.25708046875,297.31428046875,272.25708046875C297.31428046875,272.25708046875,290.19528046875,272.34878046875,290.19528046875,272.34878046875C290.19528046875,272.34878046875,290.19528046875,280.00018046875,290.19528046875,280.00018046875C290.19528046875,281.13028046875,290.21808046875,282.26808046875,290.26368046875,283.41348046875C290.30938046875,284.55888046875,290.36258046875,285.58978046875,290.42348046875,286.50608046875C290.48428046875,287.60568046875,290.56038046875,288.65948046875,290.65158046875,289.66748046875C290.65158046875,289.66748046875,284.08018046875,289.66748046875,284.08018046875,289.66748046875C284.08018046875,289.66748046875,284.21708046875,287.88058046875,284.21708046875,287.88058046875C284.24748046875,287.17808046875,284.27788046875,286.22358046875,284.30838046875,285.01708046875C284.33878046875,283.81058046875,284.35398046875,282.19938046875,284.35398046875,280.18338046875C284.35398046875,280.18338046875,284.35398046875,273.17348046875,284.35398046875,273.17348046875C283.83678046875,273.63158046875,283.25878046875,273.86068046875,282.61988046875,273.86068046875C282.10268046875,273.86068046875,281.65393046875,273.73848046875,281.27364046875,273.49418046875C280.89335046875,273.24978046875,280.58150046875,272.91378046875,280.33811046875,272.48618046875C280.33811046875,272.48618046875,275.18137046875,272.21128046875,275.18137046875,272.21128046875C274.17741046875,271.96698046875,273.34076046875,271.45528046875,272.67145046875,270.67648046875C272.00213546875,269.89758046875,271.66748046875,268.97358046875,271.66748046875,267.90448046875C271.66748046875,267.72128046875,271.68269106875,267.55328046875,271.71311436875,267.40058046875C271.74353776875,267.24778046875,271.78916946875,267.09508046875,271.85001646875,266.94238046875C271.85001646875,266.94238046875,272.99088046875,264.28498046875,272.99088046875,264.28498046875C273.05173046875,263.61298046875,273.24187046875,262.98688046875,273.56132046875,262.40648046875C273.88076046875,261.82618046875,274.28388046875,261.32218046875,274.77065046875,260.89458046875C274.77065046875,260.89458046875,281.93538046875,247.56190046875,281.93538046875,247.56190046875C281.93538046875,247.56190046875,281.98098046875,247.56190046875,281.98098046875,247.56190046875C282.55898046875,246.49284046875,283.24358046875,245.57651046875,284.03458046875,244.81290046875C284.82558046875,244.04928646875,285.84468046874997,243.66748046875,287.09208046875,243.66748046875C288.18728046875,243.66748046875,289.16848046875,243.95765246875,290.03558046875,244.53799746875C290.90258046875,245.11834046875,291.54908046875,245.88195046875,291.97498046875,246.82883046875C291.97498046875,246.82883046875,297.72498046875,258.14558046875,297.72498046875,258.14558046875C298.75938046875,258.51208046875,299.61128046875,259.15358046875,300.28058046875,260.06988046875C300.94988046875,260.98618046875,301.28458046875,262.03998046875,301.28458046875,263.23118046875C301.28458046875,263.71998046875,301.20848046875,264.23918046875,301.05638046875,264.78898046875C301.05638046875,264.78898046875,301.83218046875,266.34678046875,301.83218046875,266.34678046875Z" fill="url(#master_svg5_207_28774)" fill-opacity="1"/></g></g><g><path d="M189.333984375,274.333984375C230.253984375,274.333984375,267.10198437500003,277.671844375,292.858984375,283.003254375C318.050984375,283.170914375,338.333984375,290.716684375,338.333984375,300.000684375C338.333984375,307.358384375,325.593984375,313.624384375,307.766984375,315.991084375C303.511984375,317.249984375,298.72198437500003,318.436584375,293.461984375,319.539284375C293.598984375,320.241784375,293.66698437499997,320.951584375,293.66698437499997,321.667284375C293.66698437499997,337.867684375,258.446984375,351.000684375,215.000984375,351.000684375C175.912984375,351.000684375,143.483084375,340.370384375,137.369984375,326.44008437499997C85.21358437500001,322.47948437499997,48.333984375,312.731484375,48.333984375,301.333984375C48.333984375,286.422284375,111.46178437500001,274.333984375,189.333984375,274.333984375Z" fill-rule="evenodd" fill="#FFFFFF" fill-opacity="0.5"/></g><g><path d="M253.6679765625,307.19662125Q253.6679765625,307.30300125,253.6019765625,307.40925125Q253.5369765625,307.51550125,253.4059765625,307.62136125Q253.2749765625,307.72723125,253.0799765625,307.83245125Q252.88397656249998,307.93768125,252.6239765625,308.04201125Q252.3629765625,308.14635125,252.0389765625,308.24954125Q251.7149765625,308.35273125,251.3279765625,308.45452125Q250.9409765625,308.55632125,250.49197656249999,308.65648125Q250.0419765625,308.75664125,249.5319765625,308.85492125Q249.02097656249998,308.95320125,248.4509765625,309.04936125Q247.8809765625,309.14553125,247.2519765625,309.23934125Q246.6229765625,309.33316125,245.9379765625,309.42440125Q245.2519765625,309.51565125,244.51077656249998,309.60410125Q243.7697765625,309.69255125,242.9752765625,309.77799125Q242.1806765625,309.86343125,241.3345765625,309.94566125Q240.48837656249998,310.02789125,239.5926765625,310.10671125Q238.6968765625,310.18554125,237.75377656249998,310.26076125Q236.8105765625,310.33598125,235.82237656249998,310.40741125Q234.8340765625,310.47885125,233.80297656250002,310.54634125Q232.77197656250002,310.61382125,231.7005765625,310.67719125Q230.6292765625,310.74056125,229.5202765625,310.79966125Q228.4112765625,310.85876125,227.2671765625,310.91345125Q226.12317656250002,310.96814125,224.9468765625,311.01829125Q223.7705765625,311.06843125,222.56477656250001,311.11391125Q221.35907656249998,311.15940125,220.1267765625,311.20011125Q218.89447656250002,311.24081125,217.6386765625,311.27665125Q216.3827765625,311.31249125,215.1064765625,311.34337125Q213.83007656249998,311.37425125,212.5361765625,311.40010125Q211.2423765625,311.42594125,209.9341765625,311.44670125Q208.6259765625,311.46745125,207.3066765625,311.48306125Q205.9872765625,311.49867125,204.65987656250002,311.50910125Q203.3324765625,311.51952125,202.0002765625,311.52474125Q200.6680765625,311.52996125,199.3342765625,311.52996125Q198.0004765625,311.52996125,196.6682765625,311.52474125Q195.3360765625,311.51952125,194.0086765625,311.50910125Q192.6812765625,311.49867125,191.3619765625,311.48306125Q190.04257656250002,311.46745125,188.73437656250002,311.44670125Q187.4261765625,311.42594125,186.13237656249999,311.40010125Q184.8385765625,311.37425125,183.56217656249999,311.34337125Q182.2857765625,311.31249125,181.0299765625,311.27665125Q179.7740765625,311.24081125,178.5418765625,311.20011125Q177.3095765625,311.15940125,176.1037765625,311.11391125Q174.8980765625,311.06843125,173.7217765625,311.01829125Q172.5454765625,310.96814125,171.4013765625,310.91345125Q170.25737656249999,310.85876125,169.1482765625,310.79966125Q168.0392765625,310.74056125,166.96797656249998,310.67719125Q165.8966765625,310.61382125,164.8655765625,310.54634125Q163.8345765625,310.47885125,162.8462765625,310.40741125Q161.8579765625,310.33598125,160.9148765625,310.26076125Q159.9716765625,310.18554125,159.0759765625,310.10671125Q158.1802765625,310.02789125,157.3340765625,309.94566125Q156.4878765625,309.86343125,155.6933765625,309.77799125Q154.8988165625,309.69255125,154.1577965625,309.60410125Q153.4167665625,309.51565125,152.7310565625,309.42440125Q152.0453365625,309.33316125,151.4165865625,309.23934125Q150.7878365625,309.14553125,150.2175565625,309.04936125Q149.6472765625,308.95320125,149.1368565625,308.85492125Q148.6264265625,308.75664125,148.1770865625,308.65648125Q147.7277365625,308.55632125,147.3405465625,308.45452125Q146.9533665625,308.35273125,146.6292765625,308.24954125Q146.3051865625,308.14635125,146.0449765625,308.04201125Q145.7847625625,307.93768125,145.5890525625,307.83245125Q145.3933425625,307.72723125,145.2626065625,307.62136125Q145.1318705625,307.51550125,145.0664234625,307.40925125Q145.0009765625,307.30300125,145.0009765625,307.19662125Q145.0009765625,307.09024125,145.0664234625,306.98399125Q145.1318705625,306.87774125,145.2626065625,306.77188125Q145.3933425625,306.66601125,145.5890525625,306.56079125Q145.7847625625,306.45556125,146.0449765625,306.35123125Q146.3051865625,306.24689125,146.6292765625,306.14371125Q146.9533665625,306.04052125,147.3405465625,305.93872125Q147.7277365625,305.83692125,148.1770765625,305.73676125Q148.6264265625,305.63660125,149.1368565625,305.53832125Q149.6472765625,305.44004125,150.2175565625,305.34388125Q150.7878365625,305.24771125,151.4165865625,305.15390125Q152.0453365625,305.06008125,152.7310565625,304.96884125Q153.4167665625,304.87760125,154.1577965625,304.78915125Q154.8988165625,304.70070125,155.6933765625,304.61525125000003Q156.4878765625,304.52981125,157.3340765625,304.44758125Q158.1802765625,304.36535125,159.0759765625,304.28653125Q159.9716765625,304.20771125,160.9148765625,304.13249125Q161.8579765625,304.05727125,162.8462765625,303.98583125Q163.8345765625,303.91439125,164.8655765625,303.84690425Q165.8966765625,303.77941925,166.96797656249998,303.71605025Q168.0392765625,303.65268125,169.1482765625,303.59358125Q170.25737656249999,303.53448025,171.4013765625,303.47979125Q172.5454765625,303.42510225,173.7217765625,303.37495625Q174.8980765625,303.32481025,176.1037765625,303.27932825Q177.3095765625,303.23384625,178.5418765625,303.19313725Q179.7740765625,303.15242825,181.0299765625,303.11659025Q182.2857765625,303.08075325,183.56217656249999,303.04987325Q184.8385765625,303.01899325,186.13237656249999,302.99314625Q187.4261765625,302.96729825,188.73437656250002,302.94654515Q190.04257656250002,302.92579195,191.3619765625,302.91018315Q192.6812765625,302.89457425,194.0086765625,302.88414745Q195.3360765625,302.87372065,196.6682765625,302.86850095Q198.0004765625,302.86328125,199.3342765625,302.86328125Q200.6680765625,302.86328125,202.0002765625,302.86850095Q203.3324765625,302.87372065,204.65987656250002,302.88414745Q205.9872765625,302.89457425,207.3066765625,302.91018315Q208.6259765625,302.92579195,209.9341765625,302.94654515Q211.2423765625,302.96729825,212.5361765625,302.99314625Q213.83007656249998,303.01899325,215.1064765625,303.04987325Q216.3827765625,303.08075325,217.6386765625,303.11659025Q218.89447656250002,303.15242825,220.1267765625,303.19313725Q221.35907656249998,303.23384625,222.56477656250001,303.27932825Q223.7705765625,303.32481025,224.9468765625,303.37495625Q226.12317656250002,303.42510225,227.2671765625,303.47979125Q228.4112765625,303.53448025,229.5202765625,303.59358125Q230.6292765625,303.65268125,231.7005765625,303.71605025Q232.77197656250002,303.77941925,233.80297656250002,303.84690425Q234.8340765625,303.91439125,235.82237656249998,303.98583125Q236.8105765625,304.05727125,237.75377656249998,304.13249125Q238.6968765625,304.20771125,239.5926765625,304.28653125Q240.48837656249998,304.36535125,241.3345765625,304.44758125Q242.1806765625,304.52981125,242.9752765625,304.61525125000003Q243.7697765625,304.70070125,244.51077656249998,304.78915125Q245.2519765625,304.87760125,245.9379765625,304.96884125Q246.6229765625,305.06008125,247.2519765625,305.15390125Q247.8809765625,305.24771125,248.4509765625,305.34388125Q249.02097656249998,305.44004125,249.5319765625,305.53832125Q250.0419765625,305.63660125,250.49197656249999,305.73676125Q250.9409765625,305.83692125,251.3279765625,305.93872125Q251.7149765625,306.04052125,252.0389765625,306.14371125Q252.3629765625,306.24689125,252.6239765625,306.35123125Q252.88397656249998,306.45556125,253.0799765625,306.56079125Q253.2749765625,306.66601125,253.4059765625,306.77188125Q253.5369765625,306.87774125,253.6019765625,306.98399125Q253.6679765625,307.09024125,253.6679765625,307.19662125Z" fill="#FFFFFF" fill-opacity="0.5"/></g><g><g><path d="M249.6548,292.6669921875C249.6548,292.6669921875,163.0119,292.6669921875,163.0119,292.6669921875C156.37688,292.6669921875,151,287.30999218750003,151,280.7009921875C151,280.7009921875,151,162.6333921875,151,162.6333921875C151,156.02350218750001,156.37688,150.6669921875,163.0119,150.6669921875C163.0119,150.6669921875,249.6548,150.6669921875,249.6548,150.6669921875C256.29,150.6669921875,261.66700000000003,156.02350218750001,261.66700000000003,162.6333921875C261.66700000000003,162.6333921875,261.66700000000003,280.7009921875,261.66700000000003,280.7009921875C261.66700000000003,287.30999218750003,256.29,292.6669921875,249.6548,292.6669921875Z" fill="url(#master_svg6_207_29448)" fill-opacity="1"/></g><g><path d="M244.36548046874998,296.00049609375003C244.36548046874998,296.00049609375003,161.63618046875,296.00049609375003,161.63618046875,296.00049609375003C155.02502046875,296.00049609375003,149.66748046875,290.62149609375,149.66748046875,283.98549609375C149.66748046875,283.98549609375,149.66748046875,167.34829609375,149.66748046875,167.34829609375C149.66748046875,160.71166609375,155.02502046875,155.33349609375,161.63618046875,155.33349609375C161.63618046875,155.33349609375,244.36548046874998,155.33349609375,244.36548046874998,155.33349609375C250.97648046875,155.33349609375,256.33448046875003,160.71166609375,256.33448046875003,167.34829609375C256.33448046875003,167.34829609375,256.33448046875003,283.98949609375,256.33448046875003,283.98949609375C256.33448046875003,290.62149609375,250.97648046875,296.00049609375003,244.36548046874998,296.00049609375003Z" fill="#FFFFFF" fill-opacity="1"/></g><g><path d="M243.30877265625,281.33399218750003C243.30877265625,281.33399218750003,164.02687265625,281.33399218750003,164.02687265625,281.33399218750003C163.09188565625,281.33399218750003,162.33447265625,280.5779921875,162.33447265625,279.6449921875C162.33447265625,279.6449921875,162.33447265625,166.3555621875,162.33447265625,166.3555621875C162.33447265625,165.4226891875,163.09188565625,164.6669921875,164.02687265625,164.6669921875C164.02687265625,164.6669921875,243.30877265625,164.6669921875,243.30877265625,164.6669921875C244.24377265625,164.6669921875,245.00117265625,165.4226891875,245.00117265625,166.3555621875C245.00117265625,166.3555621875,245.00117265625,279.6449921875,245.00117265625,279.6449921875C244.99747265625,280.5779921875,244.24007265625,281.33399218750003,243.30877265625,281.33399218750003Z" fill="#F1F6FF" fill-opacity="1"/></g><g><path d="M199.48966875000002,280.6669921875C192.10526875,280.1649921875,151.48926875,277.08399218750003,126.33966975,256.7214921875C125.09628575,255.71259218749998,125.67821805,253.6403921875,127.27220875,253.49519218749998C166.30506875,249.9604921875,161.55196875000001,180.1012921875,161.82666875,166.7065221875C161.84836875,165.5706251875,162.57126875,164.6669921875,163.70266875,164.6669921875C163.70266875,164.6669921875,242.51696875,164.6669921875,242.51696875,164.6669921875C243.52096875,164.6669921875,244.33496875,165.4835281875,244.33496875,166.4924021875C244.33496875,166.4924021875,240.20696875,241.5120921875,240.20696875,241.5120921875C240.05496875,241.9257921875,239.76596875,242.7277921875,239.47996875,243.0616921875C239.47996875,243.0616921875,209.57046875,279.2069921875,209.57046875,279.2069921875C209.19816874999998,279.6429921875,200.06076875,280.7059921875,199.48966875000002,280.6669921875Z" fill="#FFFFFF" fill-opacity="1"/></g><g><path d="M210.712453125,254.6378C215.241853125,254.9225,228.736553125,255.027,240.335253125,242C237.586653125,255.7045,219.936753125,280.4973,197.001953125,280.6667C210.180053125,273.8703,209.676353125,261.2865,209.259053125,255.6432C209.212253125,254.9802,210.054153125,254.5946,210.712453125,254.6378Z" fill="url(#master_svg7_207_27912)" fill-opacity="1"/></g><g><g><path d="M181.66936492919922,181.99972534179688C181.66936492919922,181.99972534179688,231.00266492919923,181.99972534179688,231.00266492919923,181.99972534179688C232.10726492919923,181.99972534179688,233.00266492919923,182.89515634179688,233.00266492919923,183.99972534179688C233.00266492919923,185.10429534179687,232.10726492919923,185.99972534179688,231.00266492919923,185.99972534179688C231.00266492919923,185.99972534179688,181.66936492919922,185.99972534179688,181.66936492919922,185.99972534179688C180.56479592919922,185.99972534179688,179.66936492919922,185.10429534179687,179.66936492919922,183.99972534179688C179.66936492919922,182.89515634179688,180.56479592919922,181.99972534179688,181.66936492919922,181.99972534179688Z" fill="#E7F4FF" fill-opacity="1"/></g><g><path d="M180.33440399169922,195.33322143554688C180.33440399169922,195.33322143554688,229.66770399169923,195.33322143554688,229.66770399169923,195.33322143554688C230.77230399169923,195.33322143554688,231.66770399169923,196.22865243554688,231.66770399169923,197.33322143554688C231.66770399169923,198.43779143554687,230.77230399169923,199.33322143554688,229.66770399169923,199.33322143554688C229.66770399169923,199.33322143554688,180.33440399169922,199.33322143554688,180.33440399169922,199.33322143554688C179.22983499169922,199.33322143554688,178.33440399169922,198.43779143554687,178.33440399169922,197.33322143554688C178.33440399169922,196.22865243554688,179.22983499169922,195.33322143554688,180.33440399169922,195.33322143554688Z" fill="#E7F4FF" fill-opacity="1"/></g><g><path d="M179.00188446044922,208.66671752929688C179.00188446044922,208.66671752929688,201.6685844604492,208.66671752929688,201.6685844604492,208.66671752929688C202.7730844604492,208.66671752929688,203.6685844604492,209.56215452929686,203.6685844604492,210.66672752929688C203.6685844604492,211.77130752929688,202.7730844604492,212.66674752929688,201.6685844604492,212.66674752929688C201.6685844604492,212.66674752929688,179.00188446044922,212.66674752929688,179.00188446044922,212.66674752929688C177.89731546044922,212.66674752929688,177.00188446044922,211.77130752929688,177.00188446044922,210.66672752929688C177.00188446044922,209.56215452929686,177.89731546044922,208.66671752929688,179.00188446044922,208.66671752929688Z" fill="#E7F4FF" fill-opacity="1"/></g><g><path d="M211.66887664794922,210.66672752929688Q211.66887664794922,210.7649875292969,211.65924664794923,210.8627675292969Q211.64961664794922,210.9605475292969,211.6304466479492,211.05691752929687Q211.6112766479492,211.15327752929687,211.58275664794922,211.24730752929688Q211.5542366479492,211.34132752929688,211.5166366479492,211.43210752929687Q211.47903664794921,211.52287752929686,211.4327166479492,211.6095375292969Q211.38640664794923,211.69618752929688,211.3318166479492,211.7778775292969Q211.27722664794922,211.85957752929687,211.21489664794922,211.93552752929688Q211.15256664794921,212.01147752929688,211.08308664794922,212.08095752929688Q211.01361664794922,212.15043752929688,210.93766664794921,212.21276752929688Q210.8617166479492,212.2750975292969,210.78001664794922,212.32968752929688Q210.69832664794922,212.38426752929686,210.61166664794922,212.43058752929687Q210.52501664794923,212.47690752929688,210.4342466479492,212.51450752929688Q210.3434666479492,212.55210752929688,210.2494466479492,212.58062752929686Q210.1554266479492,212.60914752929688,210.0590566479492,212.62831752929688Q209.96269664794923,212.64748752929688,209.86491664794923,212.65711752929687Q209.76712664794923,212.66674752929688,209.66887664794922,212.66674752929688Q209.5706266479492,212.66674752929688,209.4728466479492,212.65711752929687Q209.3750666479492,212.64748752929688,209.27869664794923,212.62831752929688Q209.18232664794922,212.60914752929688,209.08830664794922,212.58062752929686Q208.99428664794922,212.55210752929688,208.90350664794923,212.51450752929688Q208.8127366479492,212.47690752929688,208.72608664794922,212.43058752929687Q208.6394316479492,212.38426752929686,208.5577366479492,212.32968752929688Q208.47604164794922,212.2750975292969,208.4000906479492,212.21276752929688Q208.3241396479492,212.15043752929688,208.25466364794923,212.08095752929688Q208.18518764794922,212.01147752929688,208.12285564794922,211.93552752929688Q208.06052464794922,211.85957752929687,208.00593764794922,211.7778775292969Q207.95135064794923,211.69618752929688,207.9050346479492,211.60952752929688Q207.85871764794922,211.52287752929686,207.82111764794922,211.43210752929687Q207.78351764794922,211.34132752929688,207.75499604794922,211.24730752929688Q207.72647444794922,211.15327752929687,207.70730614794923,211.05691752929687Q207.6881377479492,210.9605475292969,207.67850719794922,210.8627675292969Q207.66887664794922,210.7649875292969,207.66887664794922,210.66672752929688Q207.66887664794922,210.56847752929687,207.67850719794922,210.47069752929687Q207.6881377479492,210.37291752929687,207.70730614794923,210.27654752929686Q207.72647444794922,210.18017752929688,207.75499604794922,210.08615752929688Q207.78351764794922,209.99213752929688,207.82111764794922,209.9013575292969Q207.85871764794922,209.81058752929687,207.9050346479492,209.72392752929687Q207.95135064794923,209.63727952929688,208.00593764794922,209.55558352929688Q208.06052464794922,209.4738885292969,208.12285564794922,209.39793652929689Q208.18518764794922,209.32198452929688,208.25466364794923,209.25250852929688Q208.3241396479492,209.18303152929687,208.4000906479492,209.12070052929687Q208.47604164794922,209.05836852929687,208.5577366479492,209.00378052929688Q208.6394316479492,208.94919352929688,208.72608664794922,208.90287652929686Q208.8127366479492,208.85655952929687,208.90350664794923,208.81895952929688Q208.99428664794922,208.78135952929688,209.08830664794922,208.75283752929687Q209.18232664794922,208.72431572929688,209.27869664794923,208.70514722929687Q209.3750666479492,208.68597872929686,209.4728466479492,208.67634814929687Q209.5706266479492,208.66671752929688,209.66887664794922,208.66671752929688Q209.76712664794923,208.66671752929688,209.86491664794923,208.67634814929687Q209.96269664794923,208.68597872929686,210.0590566479492,208.70514722929687Q210.1554266479492,208.72431572929688,210.2494466479492,208.75283752929687Q210.3434666479492,208.78135952929688,210.4342466479492,208.81895952929688Q210.52501664794923,208.85655952929687,210.61166664794922,208.90287652929686Q210.69832664794922,208.94919352929688,210.78001664794922,209.00378052929688Q210.8617166479492,209.05836852929687,210.93766664794921,209.12069952929687Q211.01361664794922,209.18303152929687,211.08309664794922,209.25250852929688Q211.15256664794921,209.32198452929688,211.21489664794922,209.39793652929689Q211.27722664794922,209.4738885292969,211.3318166479492,209.55558352929688Q211.38640664794923,209.63727952929688,211.4327166479492,209.72392752929687Q211.47903664794921,209.81058752929687,211.5166366479492,209.9013575292969Q211.5542366479492,209.99213752929688,211.58275664794922,210.08615752929688Q211.6112766479492,210.18017752929688,211.6304466479492,210.27654752929686Q211.64961664794922,210.37291752929687,211.65924664794923,210.47069752929687Q211.66887664794922,210.56847752929687,211.66887664794922,210.66672752929688Z" fill="#E7F4FF" fill-opacity="1"/></g><g transform="matrix(0.9993908405303955,0.03498826548457146,-0.03489942103624344,0.9993908405303955,7.821890072072847,-5.991369077543283)"><path d="M177.08831024169922,221.07052612304688C177.08831024169922,221.07052612304688,226.42161024169923,221.07052612304688,226.42161024169923,221.07052612304688C227.52621024169923,221.07052612304688,228.42161024169923,221.96595712304688,228.42161024169923,223.07052612304688C228.42161024169923,224.17509612304687,227.52621024169923,225.07052612304688,226.42161024169923,225.07052612304688C226.42161024169923,225.07052612304688,177.08831024169922,225.07052612304688,177.08831024169922,225.07052612304688C175.98374124169922,225.07052612304688,175.08831024169922,224.17509612304687,175.08831024169922,223.07052612304688C175.08831024169922,221.96595712304688,175.98374124169922,221.07052612304688,177.08831024169922,221.07052612304688Z" fill="#E7F4FF" fill-opacity="1"/></g><g transform="matrix(0.9975640773773193,0.06975658237934113,-0.06975634396076202,0.9975640773773193,16.703601336841075,-11.374078849849298)"><path d="M173.20696258544922,233.47775268554688C173.20696258544922,233.47775268554688,222.54026258544923,233.47775268554688,222.54026258544923,233.47775268554688C223.64486258544923,233.47775268554688,224.54026258544923,234.37318368554688,224.54026258544923,235.47775268554688C224.54026258544923,236.58232268554687,223.64486258544923,237.47775268554688,222.54026258544923,237.47775268554688C222.54026258544923,237.47775268554688,173.20696258544922,237.47775268554688,173.20696258544922,237.47775268554688C172.10239358544922,237.47775268554688,171.20696258544922,236.58232268554687,171.20696258544922,235.47775268554688C171.20696258544922,234.37318368554688,172.10239358544922,233.47775268554688,173.20696258544922,233.47775268554688Z" fill="#E7F4FF" fill-opacity="1"/></g><g transform="matrix(0.9925461411476135,0.12186913192272186,-0.12186955660581589,0.9925461411476135,31.291875979221686,-18.47860134203313)"><path d="M168.70745086669922,246.56906127929688C168.70745086669922,246.56906127929688,191.3741508666992,246.56906127929688,191.3741508666992,246.56906127929688C192.4786508666992,246.56906127929688,193.3741508666992,247.46449027929688,193.3741508666992,248.56906127929688C193.3741508666992,249.67362127929687,192.4786508666992,250.56905127929687,191.3741508666992,250.56905127929687C191.3741508666992,250.56905127929687,168.70745086669922,250.56905127929687,168.70745086669922,250.56905127929687C167.60288186669922,250.56905127929687,166.70745086669922,249.67362127929687,166.70745086669922,248.56906127929688C166.70745086669922,247.46449027929688,167.60288186669922,246.56906127929688,168.70745086669922,246.56906127929688Z" fill="#E7F4FF" fill-opacity="1"/></g><g transform="matrix(0.9925462603569031,0.12186820060014725,-0.12187046557664871,0.992546021938324,31.974360985820795,-22.159925898552444)"><path d="M201.14495086669922,252.30585768554687Q201.14495086669922,252.40411768554688,201.13532086669923,252.50189768554688Q201.12569086669922,252.59967768554688,201.1065208666992,252.69603768554688Q201.0873608666992,252.79240768554686,201.05883086669922,252.88642768554686Q201.0303108666992,252.98044768554686,200.9927108666992,253.07121768554688Q200.95511086669921,253.16199768554688,200.9088008666992,253.24864768554687Q200.86248086669923,253.33529768554686,200.8078908666992,253.41698768554687Q200.75331086669922,253.49868768554688,200.69097086669922,253.57463768554686Q200.62864086669921,253.65058768554687,200.55917086669922,253.72005768554686Q200.48969086669922,253.78953768554686,200.41374086669921,253.85186768554686Q200.3377908666992,253.91419768554687,200.25609086669922,253.96878768554689Q200.17440086669922,254.02336768554687,200.08775086669922,254.06968768554688Q200.00109086669923,254.11600768554686,199.9103208666992,254.1536076855469Q199.8195408666992,254.19120768554689,199.7255208666992,254.21972768554687Q199.6315008666992,254.2482476855469,199.5351308666992,254.2674176855469Q199.43877086669923,254.28658768554686,199.34099086669923,254.29621768554688Q199.24321086669923,254.30584768554687,199.14495086669922,254.30584768554687Q199.0467008666992,254.30584768554687,198.9489208666992,254.29621768554688Q198.8511408666992,254.28658768554686,198.75477086669923,254.2674176855469Q198.65840086669922,254.2482476855469,198.56438086669922,254.21972768554687Q198.47036086669922,254.19120768554689,198.37958086669923,254.1536076855469Q198.2888108666992,254.11600768554686,198.20216086669922,254.06968768554688Q198.1155058666992,254.02336768554687,198.0338108666992,253.96878768554689Q197.95211586669922,253.91419768554687,197.8761648666992,253.85186768554686Q197.8002138666992,253.78953768554686,197.73073786669923,253.72005768554686Q197.66126186669922,253.65058768554687,197.59892986669922,253.57463768554686Q197.53659886669922,253.49868768554688,197.48201186669922,253.41698768554687Q197.42742486669923,253.33529768554686,197.3811088666992,253.24864768554687Q197.33479186669922,253.16199768554688,197.29719186669922,253.07121768554688Q197.25959186669922,252.98044768554686,197.23107026669922,252.88642768554686Q197.20254866669922,252.79240768554686,197.18338036669923,252.69603768554688Q197.1642119666992,252.59967768554688,197.15458141669922,252.50189768554688Q197.14495086669922,252.40411768554688,197.14495086669922,252.30585768554687Q197.14495086669922,252.20760768554686,197.15458141669922,252.10982768554686Q197.1642119666992,252.01204768554686,197.18338036669923,251.91568768554689Q197.20254866669922,251.81931768554688,197.23107026669922,251.72529768554688Q197.25959186669922,251.63127768554688,197.29719186669922,251.54049768554688Q197.33479186669922,251.44972768554686,197.3811088666992,251.36307768554687Q197.42742486669923,251.2764236855469,197.48201186669922,251.19472968554686Q197.53659886669922,251.11303568554686,197.59892986669922,251.0370846855469Q197.66126186669922,250.96113468554688,197.73073786669923,250.89165868554687Q197.8002138666992,250.82218368554686,197.8761648666992,250.7598526855469Q197.95211586669922,250.6975216855469,198.0338108666992,250.6429356855469Q198.1155058666992,250.5883496855469,198.20216086669922,250.54203268554687Q198.2888108666992,250.49571668554688,198.37958086669923,250.45811768554688Q198.47036086669922,250.42051768554688,198.56438086669922,250.39199628554687Q198.65840086669922,250.36347498554687,198.75477086669923,250.34430678554688Q198.8511408666992,250.32513858554688,198.9489208666992,250.3155081455469Q199.0467008666992,250.30587768554688,199.14495086669922,250.30587768554688Q199.24321086669923,250.30587768554688,199.34099086669923,250.3155081455469Q199.43877086669923,250.32513858554688,199.5351308666992,250.34430678554688Q199.6315008666992,250.36347498554687,199.7255208666992,250.39199628554687Q199.8195408666992,250.42051768554688,199.9103208666992,250.45811768554688Q200.00109086669923,250.49571668554688,200.08775086669922,250.54203268554687Q200.17440086669922,250.5883496855469,200.25609086669922,250.6429356855469Q200.3377908666992,250.6975216855469,200.41374086669921,250.7598526855469Q200.48969086669922,250.82218368554686,200.55917086669922,250.89165868554687Q200.62864086669921,250.96113468554688,200.69097086669922,251.0370846855469Q200.75331086669922,251.11303568554686,200.8078908666992,251.19472968554686Q200.86248086669923,251.2764236855469,200.9088008666992,251.36307768554687Q200.95511086669921,251.44972768554686,200.9927108666992,251.54049768554688Q201.0303108666992,251.63127768554688,201.05883086669922,251.72529768554688Q201.0873608666992,251.81931768554688,201.1065208666992,251.91568768554689Q201.12569086669922,252.01204768554686,201.13532086669923,252.10982768554686Q201.14495086669922,252.20760768554686,201.14495086669922,252.30585768554687Z" fill="#E7F4FF" fill-opacity="1"/></g></g><g><g><path d="M187.00123596191406,155.666015625C187.00123596191406,155.666015625,221.66793596191405,155.666015625,221.66793596191405,155.666015625C221.66793596191405,155.666015625,221.66793596191405,167.666015625,221.66793596191405,167.666015625C221.66793596191405,167.666015625,187.00123596191406,167.666015625,187.00123596191406,167.666015625C187.00123596191406,167.666015625,187.00123596191406,155.666015625,187.00123596191406,155.666015625Z" fill="#FFFFFF" fill-opacity="0.6000000238418579"/></g><g><path d="M189.66692939941407,150.6669921875C189.66692939941407,150.6669921875,224.33355939941407,150.6669921875,224.33355939941407,150.6669921875C224.33355939941407,150.6669921875,221.66695939941405,155.3336621875,221.66695939941405,155.3336621875C221.66695939941405,155.3336621875,187.00025939941406,155.3336621875,187.00025939941406,155.3336621875C187.00025939941406,155.3336621875,189.66692939941407,150.6669921875,189.66692939941407,150.6669921875Z" fill-rule="evenodd" fill="#FFFFFF" fill-opacity="0.6000000238418579"/></g><g><path d="M205.66725158691406,140C208.98095158691407,140,211.66725158691406,142.68629,211.66725158691406,146C211.66725158691406,149.3137,208.98095158691407,152,205.66725158691406,152C202.35354158691408,152,199.66725158691406,149.3137,199.66725158691406,146C199.66725158691406,142.68629,202.35354158691408,140,205.66725158691406,140ZM205.66725158691406,142.66666C203.82630158691407,142.66666,202.33391158691407,144.15905,202.33391158691407,146C202.33391158691407,147.84094,203.82630158691407,149.33333,205.66725158691406,149.33333C207.50819158691405,149.33333,209.00058158691405,147.84094,209.00058158691405,146C209.00058158691405,144.15905,207.50819158691405,142.66666,205.66725158691406,142.66666Z" fill-rule="evenodd" fill="#FFFFFF" fill-opacity="1"/></g></g></g><g><path d="M180.23836875,124.513293625Q178.27226875,124.552369625,176.23506875,124.671167625L176.29326875,125.669471625Q176.73716875,125.643585625,177.17766875,125.621519625L177.19516875,125.969703625Q179.22316875,125.868097625,181.17776874999998,125.847805625L181.16736875,124.847859625Q180.70836875,124.852625625,180.24526875,124.861829625L180.23836875,124.513293625ZM188.27886875000002,124.707609625Q186.31696875,124.566594625,184.27196874999998,124.518731625L184.24856875,125.518458625Q184.70616875,125.529168625,185.15956875,125.544595625L185.14766875,125.893002625Q187.17876875,125.962127625,189.12366875,126.126320625L189.20776875,125.129861625Q188.73336875,125.089810725,188.25396875,125.055346425L188.27886875000002,124.707609625ZM172.22946875,124.975388125Q170.25747875,125.158803625,168.22303875,125.412124625L168.34659875,126.404460625Q168.77746875,126.350810625,169.20544875,126.300330625L169.24629875,126.646610625Q171.27266875,126.407570625,173.23476875,126.239610625L173.14956875000001,125.243255625Q172.70726875,125.281113625,172.26176875,125.322550625L172.22946875,124.975388125ZM196.27366875,125.733460625Q194.32956875,125.363399625,192.28716875,125.103840625L192.16106875,126.095860625Q192.63026875,126.155490625,193.09416875,126.221030625L193.04536875,126.566320625Q195.06406875,126.851560625,196.98076875,127.249220625L197.18386875,126.270070625Q196.69936875,126.169540625,196.20846875,126.076100625L196.27366875,125.733460625ZM160.08847775,126.658430625L160.23642775,127.494020625L160.72886795,127.406830625L160.75528305,127.555770625Q161.03203175,127.506690625,161.30770575,127.458780625L161.36785575,127.802650625L161.57225875,127.766900625Q163.47810875,127.438220625,165.33335875,127.165670625L165.18800875,126.17629062500001Q164.76127875,126.238980625,164.33192875,126.304610625L164.27922875,125.959895625Q162.45368875,126.238950625,160.58065445,126.571140625L160.08847775,126.658430625ZM204.06926875,127.797200625Q202.18166875,127.140250625,200.17786875000002,126.613970625L199.92386875,127.581160625Q200.40546875,127.707660625,200.88016875,127.841820625L200.78526875,128.177570625Q202.74326875,128.730990625,204.58236875,129.415580625L204.93126875000002,128.478400625Q204.44686875,128.298100625,203.95456875,128.126760625L204.06926875,127.797200625ZM211.42176875,131.097050625Q209.67766875,130.112680625,207.80286875000002,129.274990625L207.39486875,130.188000625Q207.88496874999998,130.406980625,208.36586875,130.636180625L208.21576875,130.951170625Q210.01386875,131.808150625,211.68186875,132.808940625L212.19636875,131.951460625Q211.72826874999998,131.670610625,211.25026875,131.400860625L211.42176875,131.097050625ZM217.48866875,135.29254062500002Q216.21316875,134.221860625,214.84296875,133.25726062500001L214.26726875,134.074960625Q214.72776875,134.399110625,215.17726875,134.735530625L214.96836875,135.014640625Q215.81486875000002,135.648340625,216.62096875,136.324940625L217.11756875,136.743640625L217.60896875,137.161840625L217.85356875,137.371940625L218.07146875,137.559040625L218.72306875,136.800440625L218.50516875,136.613340625L218.26046875,136.403240625L217.81086875,136.020640625L218.03606875,135.754740625L217.98916875,135.715040625L217.73956875,135.503640625L217.48866875,135.29254062500002ZM221.17606875,138.495940625L221.11406875,138.44064062500001L220.44816875,139.186640625L220.51016875,139.241940625L220.99946875,139.683540625L221.24836875,139.910040625L221.01906875,140.172140625L221.01116875,140.165040625L221.50696875,140.617940625L222.00876875,141.079840625L222.77646875,141.792940625L223.56566875,142.533140625L223.83596875,142.788640625L223.97776875,142.92264062499999L224.66456875,142.19574062499998L224.52286875,142.061840625L224.25246875,141.806340625L223.71866875,141.305640625L223.95716875,141.051340625L223.69536875,140.805840625L222.92246875,140.088040625L222.16656875,139.393440625L221.66946875,138.941140625L221.17606875,138.495940625ZM228.29136875,145.190740625L226.86446875000001,143.817540625L226.17106875000002,144.538040625L227.02776875,145.362440625L226.78696875,145.612240625L227.29166874999999,146.098940625L228.77976875000002,147.533440625L229.58566875,148.305840625L229.71436875,148.429140625L230.40626874999998,147.707140625L230.27756875,147.583840625L229.56916875000002,146.904940625L229.81126875,146.653440625L228.29136875,145.190740625ZM232.89596875,149.580740625L232.64356875,149.346640625L231.96356874999998,150.079840625L232.21596875,150.313940625L232.47886875,150.557740625L232.90976875,150.953140625L232.67416875,151.210040625L232.75756875000002,151.286540625L233.25726874999998,151.739540625L233.58506875,152.033640625Q234.67506874999998,153.007240625,235.69426875,153.856540625L236.33446874999998,153.088340625Q235.89996875,152.726340625,235.45196875,152.340940625L235.67926875,152.076640625Q235.09396875,151.573140625,234.48446875000002,151.028640625L233.99596875,150.589540625L233.66566875,150.289540625L233.15876874999998,149.824540625L232.89596875,149.580740625ZM241.97986874999998,156.810940625Q240.38686875000002,155.806940625,238.74476875,154.562640625L238.14076875,155.359740625Q238.60486874999998,155.711440625,239.06546874999998,156.044440625L238.86096874999998,156.327040625Q240.55176875,157.550040625,242.22166875,158.539440625L242.73136875,157.679040625Q242.26366875,157.401940625,241.79396875,157.10584062499998L241.97986874999998,156.810940625ZM247.56736875,159.719540625Q246.46216875,159.256940625,245.40556875,158.73434062500002L244.96226875000002,159.630640625Q245.44396875,159.868940625,245.93526875,160.094940625L245.78956875,160.411740625Q246.40976875,160.697040625,247.04676875,160.963740625Q248.26466875,161.473540625,249.53356875,161.90634062499998L249.85636875,160.959940625Q249.37006875,160.794040625,248.89166875,160.616640625L249.01286875,160.289640625Q248.28126874999998,160.018340625,247.56736875,159.719540625ZM256.65116875,162.310340625Q254.64046875,161.963440625,252.77446874999998,161.473640625L252.52056875,162.440940625Q253.00016875,162.566740625,253.48886875,162.683340625L253.40796875,163.022540625Q255.31736875,163.478140625,257.37156875,163.794340625L257.52366875,162.806040625Q257.05396874999997,162.733740625,256.59196875,162.653940625L256.65116875,162.310340625ZM264.50296875,163.114440625Q262.47096875,163.029040625,260.58556875,162.840740625L260.48616875,163.835840625Q260.95896875,163.882940625,261.43996875,163.923740625L261.40996875,164.271240625Q263.32896875,164.433940625,265.39096875,164.496140625L265.42096875,163.496540625Q264.95096875,163.482340625,264.48796875,163.462940625L264.50296875,163.114440625ZM272.58496875000003,163.47754062500002Q270.57696875,163.294340625,268.56696875,163.221040625L268.52996874999997,164.220340625Q268.99296875,164.237240625,269.45696875,164.260040625L269.43896875,164.60834062499998Q271.42196875,164.706040625,273.39996874999997,164.912440625L273.50396875,163.917840625Q273.02896875,163.868240625,272.55296875,163.824840625L272.58496875000003,163.47754062500002ZM280.54796875,164.642240625Q278.57496875,164.243440625,276.58296875,163.952040625L276.43796875,164.94154062500002Q276.91996875,165.012040625,277.40096875,165.088940625L277.34596875,165.433240625Q279.31396875,165.747940625,281.26196875,166.169540625L281.47396875,165.192140625Q280.97696874999997,165.084740625,280.47896875000004,164.984140625L280.54796875,164.642240625ZM288.36796875,166.671040625Q286.43796875,166.056240625,284.47296875,165.54674062499998L284.22196875,166.514740625Q284.71196875,166.641740625,285.19996875,166.775340625L285.10696874999996,167.111740625Q287.03696875,167.640540625,288.92796875,168.272940625L289.24496875,167.324540625Q288.75496875,167.160440625,288.26196875,167.003340625L288.36796875,166.671040625ZM295.89796875,169.539240625Q294.05496875,168.716540625,292.15696875000003,167.994340625L291.80096875000004,168.928940625Q292.28496874999996,169.113140625,292.76596875,169.304140625L292.63796875,169.628240625Q294.50496875,170.369940625,296.31296875,171.210540625L296.73496875,170.303740625Q296.24796875000004,170.077240625,295.75596874999997,169.857640625L295.89796875,169.539240625ZM300.70596875,171.910540625Q300.11696875,171.591240625,299.51996875,171.282040625L299.05996875,172.170340625Q299.53696875,172.416840625,300.00796875000003,172.669940625L299.84196875,172.976740625L300.06296875,173.095740625L300.29996875,173.225240625L300.77596875,173.488340625Q301.47896875000004,173.881640625,302.16296875,174.287740625L302.61596875,174.55884062500002L303.06296875,174.83184062499998L303.26796875,174.959740625L303.79696875,174.111040625L303.59096875,173.983140625L303.13696875,173.705540625L302.88096874999997,173.552240625L303.06096875000003,173.252540625Q301.90496874999997,172.560440625,300.70596875,171.910540625ZM306.81896875,175.696940625L306.42496875,175.42094062500001L305.85096875,176.239840625L306.24496875,176.515840625L306.64596875,176.802440625L306.80296875,176.916640625L306.59896875000004,177.199340625L306.61596875,177.21114062499998L307.00296875000004,177.495640625L307.38296875000003,177.780740625L307.75796875000003,178.067540625Q308.76396875,178.844440625,309.66796875,179.627540625L310.32196875,178.871840625Q309.89096875,178.497740625,309.43696875,178.125140625L309.65596875,177.854240625L309.16696875,177.458840625L308.79496875,177.165240625Q308.41796875,176.870140625,308.02396875,176.574940625L307.62896875,176.28144062500002L307.22696874999997,175.988740625L306.81896875,175.696940625ZM312.76696875,180.694240625L312.65596875,180.581640625L311.94296875,181.282840625L312.05396874999997,181.395440625Q312.43096875000003,181.784540625,312.77296875,182.16494062499999L312.51496875,182.398840625L312.54296875,182.429940625Q314.04396875,184.109640625,314.79196875,185.559440625L315.68096875000003,185.100840625Q315.38996875,184.537240625,314.99796875000004,183.946240625L315.28696875,183.754340625Q314.31196875,182.287040625,312.76696875,180.694240625Z" fill-rule="evenodd" fill="#FFFFFF" fill-opacity="1"/></g><g transform="matrix(-0.8829475045204163,0.4694717228412628,0.46947142481803894,0.8829476237297058,236.9640783961513,-59.08180738778901)"><g><path d="M167.2996265625,122.3854C167.2996265625,122.3854,176.3130265625,126.2988,176.3130265625,126.2988C176.3130265625,126.2988,180.6989265625,97,180.6989265625,97C180.6989265625,97,150.0322265625,115.0778,150.0322265625,115.0778C150.0322265625,115.0778,158.0788865625,118.88759999999999,158.0788865625,118.88759999999999C158.0788865625,118.88759999999999,177.5218265625,101.15592,177.5218265625,101.15592C177.5218265625,101.15592,161.9119265625,120.6884,161.9119265625,120.6884C161.9119265625,120.6884,161.7047265625,129,161.7047265625,129C161.7047265625,129,167.2996265625,122.3854,167.2996265625,122.3854Z" fill="url(#master_svg8_207_31035)" fill-opacity="1"/></g></g></g></g></svg>