<svg xmlns="http://www.w3.org/2000/svg" xmlns:xlink="http://www.w3.org/1999/xlink" fill="none" version="1.1" width="504" height="36" viewBox="0 0 504 36"><defs><clipPath id="master_svg0_178_78125"><rect x="0" y="0" width="504" height="36" rx="0"/></clipPath><linearGradient x1="1" y1="0.5" x2="0" y2="0.5" id="master_svg1_154_36803"><stop offset="0%" stop-color="#224059" stop-opacity="1"/><stop offset="100%" stop-color="#224059" stop-opacity="0"/></linearGradient><linearGradient x1="1" y1="0.5" x2="0" y2="0.5" id="master_svg2_154_36803"><stop offset="0%" stop-color="#224059" stop-opacity="1"/><stop offset="100%" stop-color="#224059" stop-opacity="0"/></linearGradient></defs><g clip-path="url(#master_svg0_178_78125)"><g><rect x="0" y="16" width="40" height="4" rx="2" fill="url(#master_svg1_154_36803)" fill-opacity="1"/></g><g><path d="M57.484,14.6C59.136,16.784,60.928,19.388,62.496,21.88C60.872,24.932,58.884,27.312,56.7,28.768C57.176,29.132,57.82,29.888,58.128,30.364C60.228,28.824,62.132,26.668,63.7,23.896C64.568,25.408,65.29599999999999,26.78,65.8,27.956L67.48,26.556C66.864,25.212,65.94,23.532,64.82,21.74C66.304,18.492,67.424,14.6,68.012,10.036L66.724,9.616L66.36,9.7L57.4,9.7L57.4,11.604L65.8,11.604C65.324,14.572,64.512,17.316,63.504,19.724C62.048,17.568,60.452,15.356,58.968,13.452L57.484,14.6ZM71.316,6.508C70.756,10.596,69.776,14.516,67.956,17.008C68.432,17.26,69.328,17.876,69.664,18.212C70.672,16.728,71.456,14.796,72.1,12.64L80.136,12.64C79.77199999999999,14.124,79.352,15.664,78.932,16.7L80.612,17.232C81.28399999999999,15.692,82.012,13.2,82.51599999999999,11.044L81.116,10.652L80.78,10.708L72.604,10.708C72.884,9.448,73.136,8.132,73.332,6.788L71.316,6.508ZM73.696,14.32L73.696,16.28C73.696,20.424,73.164,26.444,65.996,30.84C66.472,31.176,67.172,31.848,67.48,32.296C71.904,29.524,73.94800000000001,26.108,74.9,22.832C76.21600000000001,27.172,78.316,30.448,81.76,32.24C82.068,31.708,82.712,30.868,83.188,30.476C78.904,28.516,76.69200000000001,23.896,75.628,18.184L75.684,16.308L75.684,14.32L73.696,14.32ZM85.904,9.42C87.64,10.512,89.79599999999999,12.108,90.832,13.2L92.20400000000001,11.744C91.14,10.68,88.956,9.168,87.19200000000001,8.16L85.904,9.42ZM91.02799999999999,16.28L85.344,16.28L85.344,18.24L88.98400000000001,18.24L88.98400000000001,27.2C87.78,27.732,86.436,28.936,85.092,30.392L86.492,32.212C87.892,30.364,89.292,28.712,90.21600000000001,28.712C90.86,28.712,91.84,29.636,92.96000000000001,30.336C94.892,31.54,97.21600000000001,31.876,100.632,31.876C103.628,31.876,108.388,31.736,110.292,31.596C110.348,30.98,110.656,29.972,110.908,29.412C108.05199999999999,29.72,103.88,29.944,100.688,29.944C97.58,29.944,95.256,29.748,93.38,28.572C92.25999999999999,27.9,91.616,27.312,91.02799999999999,27.06L91.02799999999999,16.28ZM101.388,8.552L101.388,28.656L103.32,28.656L103.32,10.372L107.828,10.372L107.828,23C107.828,23.336,107.71600000000001,23.448,107.408,23.448C107.044,23.476,105.952,23.504,104.72,23.448C104.97200000000001,23.952,105.28,24.764,105.364,25.268C107.072,25.268,108.19200000000001,25.24,108.864,24.932C109.592,24.596,109.788,24.064,109.788,23.028L109.788,8.552L101.388,8.552ZM93.604,25.604C94.136,25.212,94.976,24.876,100.856,22.916C100.77199999999999,22.468,100.688,21.628,100.71600000000001,21.04L95.928,22.496L95.928,10.316C97.77600000000001,9.644,99.708,8.86,101.22,7.964L99.68,6.424C98.336,7.376,96.012,8.468,93.968,9.196L93.968,21.74C93.968,22.972,93.1,23.728,92.596,24.008C92.932,24.4,93.436,25.156,93.604,25.604ZM128.772,6.592L128.772,9.588L120.988,9.588L120.988,11.52L128.772,11.52L128.772,14.264L121.8,14.264L121.8,22.02L128.632,22.02C128.436,23.56,128.01600000000002,25.016,127.12,26.332C125.636,25.296,124.432,24.036,123.564,22.58L121.8,23.168C122.836,24.96,124.208,26.472,125.86,27.732C124.572,28.908,122.668,29.888,119.952,30.588C120.4,31.036,120.988,31.848,121.24,32.324C124.152,31.456,126.168,30.28,127.596,28.908C130.424,30.616,133.952,31.736,137.95600000000002,32.296C138.236,31.68,138.768,30.868,139.216,30.392C135.184,29.944,131.656,28.964,128.828,27.424C129.94799999999998,25.772,130.452,23.952,130.676,22.02L138.012,22.02L138.012,14.264L130.816,14.264L130.816,11.52L138.936,11.52L138.936,9.588L130.816,9.588L130.816,6.592L128.772,6.592ZM123.76,16.028L128.772,16.028L128.772,18.968L128.744,20.228L123.76,20.228L123.76,16.028ZM130.816,16.028L135.99599999999998,16.028L135.99599999999998,20.228L130.788,20.228L130.816,18.968L130.816,16.028ZM119.78399999999999,6.424C118.132,10.68,115.416,14.824,112.588,17.512C112.952,18.016,113.53999999999999,19.108,113.76400000000001,19.584C114.828,18.52,115.864,17.288,116.844,15.916L116.844,32.352L118.86,32.352L118.86,12.864C119.952,10.988,120.96,9.028,121.744,7.04L119.78399999999999,6.424ZM144.284,8.44L144.284,18.604C144.284,22.552,144.00400000000002,27.508,140.89600000000002,31.008C141.372,31.26,142.212,31.96,142.51999999999998,32.38C144.676,30,145.628,26.78,146.048,23.644L153.076,23.644L153.076,31.988L155.204,31.988L155.204,23.644L162.764,23.644L162.764,29.384C162.764,29.888,162.56799999999998,30.056,162.00799999999998,30.084C161.476,30.112,159.572,30.14,157.612,30.056C157.892,30.616,158.228,31.54,158.34,32.072C160.97199999999998,32.1,162.596,32.072,163.548,31.736C164.5,31.4,164.836,30.756,164.836,29.384L164.836,8.44L144.284,8.44ZM146.356,10.456L153.076,10.456L153.076,14.964L146.356,14.964L146.356,10.456ZM162.764,10.456L162.764,14.964L155.204,14.964L155.204,10.456L162.764,10.456ZM146.356,16.952L153.076,16.952L153.076,21.656L146.244,21.656C146.328,20.592,146.356,19.556,146.356,18.604L146.356,16.952ZM162.764,16.952L162.764,21.656L155.204,21.656L155.204,16.952L162.764,16.952ZM172.39600000000002,33.0096C175.336,31.9709,177.24,29.6697,177.24,26.64C177.24,24.68,176.4,23.42,174.86,23.42C173.712,23.42,172.732,24.12,172.732,25.436C172.732,26.752,173.684,27.424,174.832,27.424L175.308,27.368C175.168,29.3048,173.936,30.6239,171.78,31.5221L172.39600000000002,33.0096ZM213.22,10.652L219.044,10.652L219.044,16.616L213.22,16.616L213.22,10.652ZM211.26,8.748L211.26,18.52L221.088,18.52L221.088,8.748L211.26,8.748ZM203.532,26.696L216.58,26.696L216.58,29.468L203.532,29.468L203.532,26.696ZM203.532,25.044L203.532,22.412L216.58,22.412L216.58,25.044L203.532,25.044ZM201.46,20.676L201.46,32.24L203.532,32.24L203.532,31.204L216.58,31.204L216.58,32.184L218.708,32.184L218.708,20.676L201.46,20.676ZM200.536,6.396C199.92,8.496,198.8,10.596,197.4,12.024C197.876,12.248,198.688,12.752,199.08,13.06C199.696,12.36,200.284,11.492,200.844,10.512L203.224,10.512L203.224,12.164L203.168,13.172L197.4,13.172L197.4,14.908L202.804,14.908C202.188,16.616,200.704,18.464,197.12,19.864C197.596,20.228,198.212,20.872,198.492,21.32C201.432,20.004,203.112,18.408,204.064,16.784C205.464,17.736,207.564,19.248,208.404,19.92L209.86,18.492C209.048,17.932,205.856,15.972,204.708,15.356L204.848,14.908L210.084,14.908L210.084,13.172L205.184,13.172L205.212,12.164L205.212,10.512L209.356,10.512L209.356,8.804L201.712,8.804C201.992,8.16,202.244,7.46,202.468,6.788L200.536,6.396ZM231.84,25.632L231.84,29.272C231.84,31.344,232.68,31.876,235.816,31.876C236.46,31.876,241.248,31.876,241.948,31.876C244.384,31.876,245.028,31.148,245.308,28.096C244.72,27.984,243.908,27.704,243.46,27.396C243.32,29.748,243.096,30.084,241.78,30.084C240.688,30.084,236.684,30.084,235.9,30.084C234.192,30.084,233.94,29.972,233.94,29.244L233.94,25.632L231.84,25.632ZM236.012,25.632C237.384,26.472,238.98,27.732,239.708,28.656L241.052,27.452C240.268,26.528,238.644,25.324,237.272,24.54L236.012,25.632ZM245.672,26.164C246.82,27.788,248.08,30.028,248.556,31.428L250.572,30.756C250.068,29.356,248.78,27.2,247.576,25.604L245.672,26.164ZM228.34,25.856C227.836,27.368,226.94,29.3,225.932,30.476L227.752,31.512C228.76,30.224,229.572,28.152,230.132,26.584L228.34,25.856ZM228.956,19.836L228.956,21.236L245.476,21.236L245.476,22.972L227.892,22.972L227.892,24.428L247.52,24.428L247.52,16.756L228.06,16.756L228.06,18.212L245.476,18.212L245.476,19.836L228.956,19.836ZM225.876,13.452L225.876,14.824L230.692,14.824L230.692,16.336L232.624,16.336L232.624,14.824L236.992,14.824L236.992,13.452L232.624,13.452L232.624,12.08L236.236,12.08L236.236,10.708L232.624,10.708L232.624,9.336L236.6,9.336L236.6,7.936L232.624,7.936L232.624,6.48L230.692,6.48L230.692,7.936L226.212,7.936L226.212,9.336L230.692,9.336L230.692,10.708L226.8,10.708L226.8,12.08L230.692,12.08L230.692,13.452L225.876,13.452ZM242.844,6.48L242.844,7.936L238.364,7.936L238.364,9.336L242.844,9.336L242.844,10.708L238.98,10.708L238.98,12.08L242.844,12.08L242.844,13.508L238.056,13.508L238.056,14.88L242.844,14.88L242.844,16.336L244.804,16.336L244.804,14.88L249.984,14.88L249.984,13.508L244.804,13.508L244.804,12.08L249.032,12.08L249.032,10.708L244.804,10.708L244.804,9.336L249.48,9.336L249.48,7.936L244.804,7.936L244.804,6.48L242.844,6.48ZM264.46000000000004,13.9L274.036,13.9L274.036,16.644L264.46000000000004,16.644L264.46000000000004,13.9ZM264.46000000000004,9.504L274.036,9.504L274.036,12.22L264.46000000000004,12.22L264.46000000000004,9.504ZM262.5,7.712L262.5,18.436L276.08000000000004,18.436L276.08000000000004,7.712L262.5,7.712ZM254.744,8.328C256.50800000000004,9.112,258.748,10.4,259.84000000000003,11.352L261.01599999999996,9.644C259.89599999999996,8.72,257.628,7.51512,255.864,6.81075L254.744,8.328ZM253.064,15.944C254.884,16.756,257.124,18.072,258.244,18.996L259.392,17.288C258.244,16.364,255.976,15.132,254.184,14.432L253.064,15.944ZM253.792,30.448L255.584,31.7666C257.152,29.16,259,25.632,260.4,22.692L258.832,21.432C257.32,24.596,255.22,28.292,253.792,30.448ZM259.168,29.552L259.168,31.428L278.93600000000004,31.428L278.93600000000004,29.552L277.03200000000004,29.552L277.03200000000004,20.816L261.548,20.816L261.548,29.552L259.168,29.552ZM263.48,29.552L263.48,22.664L266.196,22.664L266.196,29.552L263.48,29.552ZM267.848,29.552L267.848,22.664L270.592,22.664L270.592,29.552L267.848,29.552ZM272.272,29.552L272.272,22.664L275.044,22.664L275.044,29.552L272.272,29.552ZM292.124,13.956L302.876,13.956L302.876,16.784L292.124,16.784L292.124,13.956ZM292.124,9.448L302.876,9.448L302.876,12.248L292.124,12.248L292.124,9.448ZM290.13599999999997,7.684L290.13599999999997,18.548L304.91999999999996,18.548L304.91999999999996,7.684L290.13599999999997,7.684ZM288.932,21.684C290.052,23.672,291.06,26.388,291.39599999999996,28.152L293.244,27.48C292.88,25.744,291.844,23.084,290.64,21.068L288.932,21.684ZM304.304,20.928C303.688,22.944,302.48400000000004,25.8,301.53200000000004,27.564L303.072,28.152C304.08000000000004,26.472,305.34000000000003,23.784,306.32,21.572L304.304,20.928ZM282.60400000000004,8.328C284.34000000000003,9.14,286.41200000000003,10.428,287.41999999999996,11.38L288.624,9.672C287.58799999999997,8.72,285.488,7.51512,283.752,6.81119L282.60400000000004,8.328ZM281.06399999999996,15.72C282.828,16.504,284.956,17.792,285.99199999999996,18.744L287.224,17.064C286.132,16.112,283.976,14.908,282.26800000000003,14.18L281.06399999999996,15.72ZM281.82,30.448L283.668,31.6822C284.98400000000004,29.076,286.524,25.576,287.644,22.636L285.99199999999996,21.432C284.76,24.596,283.024,28.264,281.82,30.448ZM298.9,19.472L298.9,29.552L296.044,29.552L296.044,19.472L294.11199999999997,19.472L294.11199999999997,29.552L287.28,29.552L287.28,31.428L306.908,31.428L306.908,29.552L300.86,29.552L300.86,19.472L298.9,19.472ZM318.808,11.968L318.808,14.404L314.3,14.404L314.3,16.14L318.808,16.14L318.808,20.788L329.7,20.788L329.7,16.14L334.236,16.14L334.236,14.404L329.7,14.404L329.7,11.968L327.628,11.968L327.628,14.404L320.824,14.404L320.824,11.968L318.808,11.968ZM327.628,16.14L327.628,19.108L320.824,19.108L320.824,16.14L327.628,16.14ZM329.196,24.316C327.964,25.7746,326.228,26.9244,324.212,27.8217C322.224,26.8964,320.6,25.7186,319.424,24.316L329.196,24.316ZM314.692,22.58L314.692,24.316L318.332,24.316L317.38,24.7089C318.528,26.2795,320.068,27.5972,321.916,28.691C319.284,29.5323,316.344,30.0372,313.376,30.2896C313.684,30.7661,314.076,31.5794,314.216,32.0843C317.716,31.6918,321.132,30.9905,324.128,29.8127C326.9,31.0465,330.176,31.8318,333.704,32.2527C333.956,31.7198,334.488,30.8785,334.936,30.4296C331.856,30.1492,328.972,29.5883,326.48,28.719C328.944,27.4008,330.988,25.6062,332.276,23.196L330.96,22.496L330.596,22.58L314.692,22.58ZM321.244,6.83569C321.636,7.56631,322.056,8.46537,322.364,9.252L311.528,9.252L311.528,16.896C311.528,21.068,311.332,27.0644,309.036,31.2989C309.568,31.4674,310.49199999999996,31.9158,310.91200000000003,32.2527C313.264,27.8217,313.628,21.348,313.628,16.868L313.628,11.24L334.544,11.24L334.544,9.252L324.744,9.252C324.408,8.35294,323.848,7.229,323.344,6.32994L321.244,6.83569ZM341.908,17.736L341.908,32.268L344.036,32.268L344.036,31.316L357.588,31.316L357.588,32.212L359.66,32.212L359.66,25.296L344.036,25.296L344.036,23.364L358.176,23.364L358.176,17.736L341.908,17.736ZM357.588,29.664L344.036,29.664L344.036,26.948L357.588,26.948L357.588,29.664ZM348.32,12.556C348.628,13.116,348.936,13.76,349.188,14.348L338.828,14.348L338.828,18.968L340.872,18.968L340.872,16L359.492,16L359.492,18.968L361.62,18.968L361.62,14.348L351.344,14.348C351.092,13.648,350.616,12.808,350.196,12.164L348.32,12.556ZM344.036,19.36L356.132,19.36L356.132,21.768L344.036,21.768L344.036,19.36ZM340.676,6.368C339.976,8.804,338.744,11.184,337.204,12.752C337.736,13.004,338.604,13.48,339.024,13.76C339.836,12.836,340.592,11.632,341.292,10.316L343.224,10.316C343.84,11.352,344.456,12.612,344.708,13.424L346.5,12.808C346.276,12.136,345.8,11.184,345.268,10.316L349.552,10.316L349.552,8.776L341.992,8.776C342.272,8.104,342.524,7.432,342.72,6.76L340.676,6.368ZM352.52,6.424C352.016,8.468,351.036,10.428,349.776,11.772C350.28,12.024,351.148,12.472,351.512,12.752C352.1,12.08,352.66,11.268,353.136,10.344L355.124,10.344C355.964,11.38,356.776,12.696,357.14,13.508L358.848,12.752C358.54,12.08,357.952,11.184,357.308,10.344L362.32,10.344L362.32,8.776L353.864,8.776C354.144,8.132,354.368,7.46,354.564,6.788L352.52,6.424ZM377.328,14.88L381.612,14.88L381.612,18.492L377.328,18.492L377.328,14.88ZM383.432,14.88L387.716,14.88L387.716,18.492L383.432,18.492L383.432,14.88ZM377.328,9.616L381.612,9.616L381.612,13.172L377.328,13.172L377.328,9.616ZM383.432,9.616L387.716,9.616L387.716,13.172L383.432,13.172L383.432,9.616ZM372.904,29.384L372.904,31.316L391.076,31.316L391.076,29.384L383.6,29.384L383.6,25.52L390.124,25.52L390.124,23.616L383.6,23.616L383.6,20.312L389.732,20.312L389.732,7.768L375.396,7.768L375.396,20.312L381.444,20.312L381.444,23.616L375.06,23.616L375.06,25.52L381.444,25.52L381.444,29.384L372.904,29.384ZM364.98,27.2L365.512,29.328C367.976,28.516,371.196,27.424,374.22,26.416L373.856,24.372L370.776,25.408L370.776,18.436L373.604,18.436L373.604,16.476L370.776,16.476L370.776,10.344L374.024,10.344L374.024,8.384L365.288,8.384L365.288,10.344L368.76,10.344L368.76,16.476L365.568,16.476L365.568,18.436L368.76,18.436L368.76,26.052C367.332,26.5,366.044,26.892,364.98,27.2ZM400.008,23.728C398.524,25.744,396.2,27.816,393.96,29.16C394.52,29.468,395.388,30.168,395.808,30.56C397.936,29.048,400.428,26.752,402.108,24.484L400.008,23.728ZM409.808,24.68C412.132,26.472,415.016,29.048,416.416,30.616L418.208,29.356C416.696,27.76,413.812,25.296,411.46,23.588L409.808,24.68ZM410.592,17.568C411.32,18.24,412.104,19.024,412.86,19.836L400.54,20.648C404.74,18.576,409.024,16,413.168,12.864L411.544,11.52C410.144,12.668,408.604,13.76,407.12,14.796L400.26,15.132C402.276,13.704,404.32,11.912,406.196,9.952C409.836,9.588,413.28,9.084,415.94,8.44L414.484,6.676C409.948,7.824,401.8,8.58,394.996,8.916C395.22,9.392,395.472,10.232,395.528,10.736C397.992,10.624,400.624,10.456,403.228,10.232C401.408,12.136,399.336,13.816,398.608,14.292C397.768,14.908,397.096,15.328,396.536,15.412C396.76,15.944,397.068,16.868,397.124,17.288C397.712,17.064,398.58,16.952,404.264,16.616C401.884,18.1,399.84,19.22,398.86,19.668C397.124,20.536,395.864,21.068,394.968,21.18C395.22,21.74,395.528,22.72,395.612,23.14C396.396,22.832,397.488,22.692,405.188,22.104L405.188,29.44C405.188,29.748,405.104,29.86,404.628,29.888C404.18,29.916,402.64,29.916,400.96,29.832C401.296,30.42,401.66,31.316,401.772,31.932C403.816,31.932,405.216,31.904,406.14,31.568C407.092,31.232,407.316,30.644,407.316,29.468L407.316,21.936L414.288,21.432C415.1,22.356,415.772,23.224,416.248,23.952L417.928,22.944C416.78,21.236,414.372,18.66,412.216,16.728L410.592,17.568ZM439.544,20.144L439.544,28.992C439.544,31.064,440.02,31.68,441.98,31.68C442.372,31.68,444.052,31.68,444.444,31.68C446.18,31.68,446.684,30.616,446.824,26.808C446.292,26.668,445.452,26.332,445.032,25.94C444.948,29.328,444.836,29.832,444.22,29.832C443.884,29.832,442.568,29.832,442.316,29.832C441.7,29.832,441.616,29.748,441.616,28.992L441.616,20.144L439.544,20.144ZM434.28,20.2C434.112,25.744,433.468,28.74,428.876,30.448C429.352,30.84,429.94,31.624,430.192,32.1604C435.26,30.084,436.128,26.472,436.352,20.2L434.28,20.2ZM421.176,28.516L421.652,30.588C424.172,29.776,427.476,28.74,430.612,27.704L430.276,25.884C426.888,26.892,423.444,27.928,421.176,28.516ZM436.66,6.91838C437.192,8.06944,437.892,9.58581,438.172,10.54L431.396,10.54L431.396,12.444L436.436,12.444C435.176,14.18,433.244,16.756,432.6,17.372C432.068,17.876,431.368,18.072,430.836,18.212C431.06,18.66,431.452,19.724,431.536,20.256C432.32,19.92,433.496,19.78,443.66,18.828C444.108,19.584,444.528,20.312,444.808,20.872L446.572,19.892C445.732,18.268,443.912,15.636,442.4,13.676L440.748,14.516C441.364,15.328,442.008,16.252,442.596,17.176L434.896,17.82C436.156,16.28,437.752,14.096,438.928,12.444L446.544,12.444L446.544,10.54L438.48,10.54L440.272,9.97869C439.936,9.0805,439.236,7.53613,438.592,6.41306L436.66,6.91838ZM421.68,18.156C422.1,17.96,422.744,17.82,426.104,17.344C424.9,19.108,423.808,20.48,423.304,21.012C422.408,22.048,421.764,22.748,421.148,22.86C421.4,23.42,421.736,24.456,421.848,24.904C422.436,24.54,423.388,24.232,430.332,22.72C430.276,22.272,430.248,21.46,430.304,20.872L425.012,21.908C427.14,19.444,429.24,16.448,431.004,13.424L429.128,12.304C428.596,13.34,428.008,14.404,427.364,15.384L423.92,15.748C425.656,13.34,427.392,10.2876,428.68,7.33969L426.552,6.35706C425.32,9.75425,423.248,13.368,422.576,14.292C421.96,15.244,421.428,15.888,420.924,16C421.204,16.588,421.54,17.708,421.68,18.156Z" fill="#224059" fill-opacity="1"/></g><g transform="matrix(-1,0,0,1,1008,0)"><rect x="504" y="16" width="40" height="4" rx="2" fill="url(#master_svg2_154_36803)" fill-opacity="1"/></g></g></svg>