<svg xmlns="http://www.w3.org/2000/svg" xmlns:xlink="http://www.w3.org/1999/xlink" fill="none" version="1.1" width="32" height="32" viewBox="0 0 32 32"><g><g></g><g><g><rect x="7" y="12.714285850524902" width="18.000001907348633" height="12.285714149475098" rx="1" fill-opacity="0" stroke-opacity="1" stroke="#224059" fill="none" stroke-width="2"/></g><g><path d="M11.252283149475097,6.966569Q9.285714149475098,8.93314,9.285714149475098,11.71429L11.285714149475098,11.71429Q11.285714149475098,9.761569999999999,12.666494149475097,8.38078Q14.047284149475097,7,16.000004149475096,7Q17.9527241494751,7,19.333504149475097,8.38078Q20.714314149475097,9.761569999999999,20.714314149475097,11.71429L22.714314149475097,11.71429Q22.714314149475097,8.93314,20.747714149475097,6.966569Q18.781144149475097,5,16.000004149475096,5Q13.218854149475098,5,11.252283149475097,6.966569Z" fill-rule="evenodd" fill="#224059" fill-opacity="1"/></g><g transform="matrix(0,1,-1,0,33.42996788024902,1.427175521850586)"><path d="M16.00139617919922,16.428571701049805L18.85853617919922,16.428571701049805Q18.957026179199218,16.428571701049805,19.05362617919922,16.447786701049804Q19.15022617919922,16.467001701049803,19.24122617919922,16.504692701049805Q19.332216179199218,16.542383701049804,19.41410617919922,16.597101701049805Q19.49600617919922,16.651820701049804,19.56564617919922,16.721464701049804Q19.63528617919922,16.791108701049804,19.69000617919922,16.873001701049805Q19.74472617919922,16.954893701049805,19.782416179199217,17.045888701049805Q19.820106179199218,17.136882701049803,19.83932617919922,17.233481701049804Q19.85853617919922,17.330080301049804,19.85853617919922,17.428571701049805Q19.85853617919922,17.527063101049805,19.83932617919922,17.623661701049805Q19.820106179199218,17.720260701049806,19.782416179199217,17.811254701049805Q19.74472617919922,17.902249701049804,19.69000617919922,17.984141701049804Q19.63528617919922,18.066034701049805,19.56564617919922,18.135678701049805Q19.49600617919922,18.205322701049806,19.41410617919922,18.260041701049804Q19.332216179199218,18.314759701049805,19.24122617919922,18.352450701049804Q19.15022617919922,18.390141701049806,19.05362617919922,18.409356701049806Q18.957026179199218,18.428571701049805,18.85853617919922,18.428571701049805L16.00139617919922,18.428571701049805Q15.902904779199218,18.428571701049805,15.806306179199218,18.409356701049806Q15.709707179199219,18.390141701049806,15.618713179199219,18.352450701049804Q15.52771817919922,18.314759701049805,15.44582617919922,18.260041701049804Q15.363933179199218,18.205322701049806,15.294289179199218,18.135678701049805Q15.224645179199218,18.066034701049805,15.16992617919922,17.984141701049804Q15.115208179199218,17.902249701049804,15.07751717919922,17.811254701049805Q15.039826179199219,17.720260701049806,15.020611179199218,17.623661701049805Q15.001396179199219,17.527063101049805,15.001396179199219,17.428571701049805Q15.001396179199219,17.330080301049804,15.020611179199218,17.233481701049804Q15.039826179199219,17.136882701049803,15.07751717919922,17.045888701049805Q15.115208179199218,16.954893701049805,15.16992617919922,16.873001701049805Q15.224645179199218,16.791108701049804,15.294289179199218,16.721464701049804Q15.363933179199218,16.651820701049804,15.44582617919922,16.597101701049805Q15.52771817919922,16.542383701049804,15.618713179199219,16.504692701049805Q15.709707179199219,16.467001701049803,15.806306179199218,16.447786701049804Q15.902904779199218,16.428571701049805,16.00139617919922,16.428571701049805Z" fill-rule="evenodd" fill="#224059" fill-opacity="1"/></g></g></g></svg>