<svg xmlns="http://www.w3.org/2000/svg" xmlns:xlink="http://www.w3.org/1999/xlink" fill="none" version="1.1" width="32" height="32" viewBox="0 0 32 32"><g><g></g><g><g><g><path d="M7.142857313156128 8C7.142857313156128 6.8954305003384135 8.038287813494541 6 9.142857313156128 6L14.642857313156128 6C15.747426812817714 6 16.642857313156128 6.8954305003384135 16.642857313156128 8L16.642857313156128 26C16.642857313156128 26 16.642857313156128 26 16.642857313156128 26L7.142857313156128 26C7.142857313156128 26 7.142857313156128 26 7.142857313156128 26Z" fill-opacity="0" stroke-opacity="1" stroke="#224059" fill="none" stroke-width="2"/></g><g><path d="M16,27.0000141494751L16,11.285714149475098L24.282,13.086144149475098C25.20138,13.286014149475097,25.85714,14.099654149475098,25.85714,15.040504149475098L25.85714,27.0000141494751L16,27.0000141494751ZM18,25.0000141494751L18,13.767214149475098L23.85714,15.040504149475098L23.85714,25.0000141494751L18,25.0000141494751Z" fill-rule="evenodd" fill="#224059" fill-opacity="1"/></g><g><path d="M4.5,25.214284896850586L27.5,25.214284896850586Q27.5985,25.214284896850586,27.6951,25.233499896850585Q27.7917,25.252714896850584,27.8827,25.290405896850586Q27.9737,25.328096896850585,28.0556,25.382814896850586Q28.1375,25.437533896850585,28.2071,25.507177896850585Q28.2767,25.576821896850586,28.3315,25.658714896850586Q28.3862,25.740606896850586,28.4239,25.831601896850586Q28.4616,25.922595896850584,28.4808,26.019194896850586Q28.5,26.115793496850586,28.5,26.214284896850586Q28.5,26.312776296850586,28.4808,26.409374896850586Q28.4616,26.505973896850588,28.4239,26.596967896850586Q28.3862,26.687962896850586,28.3315,26.769854896850585Q28.2767,26.851747896850586,28.2071,26.921391896850587Q28.1375,26.991035896850587,28.0556,27.045754896850585Q27.9737,27.100472896850587,27.8827,27.138163896850585Q27.7917,27.175854896850588,27.6951,27.195069896850587Q27.5985,27.214284896850586,27.5,27.214284896850586L4.5,27.214284896850586Q4.4015086,27.214284896850586,4.30491,27.195069896850587Q4.208311,27.175854896850588,4.117317,27.138163896850585Q4.026322,27.100472896850587,3.94443,27.045754896850585Q3.862537,26.991035896850587,3.792893,26.921391896850587Q3.723249,26.851747896850586,3.66853,26.769854896850585Q3.6138120000000002,26.687962896850586,3.576121,26.596967896850586Q3.53843,26.505973896850588,3.519215,26.409374896850586Q3.5,26.312776296850586,3.5,26.214284896850586Q3.5,26.115793496850586,3.519215,26.019194896850586Q3.53843,25.922595896850584,3.576121,25.831601896850586Q3.6138120000000002,25.740606896850586,3.66853,25.658714896850586Q3.723249,25.576821896850586,3.792893,25.507177896850585Q3.862537,25.437533896850585,3.94443,25.382814896850586Q4.026322,25.328096896850585,4.117317,25.290405896850586Q4.208311,25.252714896850584,4.30491,25.233499896850585Q4.4015086,25.214284896850586,4.5,25.214284896850586Z" fill-rule="evenodd" fill="#224059" fill-opacity="1"/></g></g></g></g></svg>