<svg xmlns="http://www.w3.org/2000/svg" xmlns:xlink="http://www.w3.org/1999/xlink" fill="none" version="1.1" width="260" height="260" viewBox="0 0 260 260"><defs><filter id="master_svg0_178_78133" filterUnits="objectBoundingBox" color-interpolation-filters="sRGB" x="-0.2" y="-0.18" width="1.4" height="1.4"><feFlood flood-opacity="0" result="BackgroundImageFix"/><feColorMatrix in="SourceAlpha" type="matrix" values="0 0 0 0 0 0 0 0 0 0 0 0 0 0 0 0 0 0 127 0"/><feOffset dy="4" dx="0"/><feGaussianBlur stdDeviation="10"/><feColorMatrix type="matrix" values="0 0 0 0 0 0 0 0 0 0.18523003160953522 0 0 0 0 0.4285714328289032 0 0 0 0.10000000149011612 0"/><feBlend mode="normal" in2="BackgroundImageFix" result="effect1_dropShadow"/><feBlend mode="normal" in="SourceGraphic" in2="effect1_dropShadow" result="shape"/></filter><linearGradient x1="0.5" y1="0" x2="0.5" y2="1" id="master_svg1_148_17317"><stop offset="0%" stop-color="#0066EC" stop-opacity="1"/><stop offset="100%" stop-color="#38ABFF" stop-opacity="1"/></linearGradient><filter id="master_svg2_178_78134" filterUnits="objectBoundingBox" color-interpolation-filters="sRGB" x="-0.2777777777777778" y="-0.11428571428571428" width="1.5555555555555556" height="1.2857142857142858"><feFlood flood-opacity="0" result="BackgroundImageFix"/><feColorMatrix in="SourceAlpha" type="matrix" values="0 0 0 0 0 0 0 0 0 0 0 0 0 0 0 0 0 0 127 0"/><feOffset dy="4" dx="0"/><feGaussianBlur stdDeviation="5"/><feColorMatrix type="matrix" values="0 0 0 0 0 0 0 0 0 0.4000000059604645 0 0 0 0 0.9254902005195618 0 0 0 1 0"/><feBlend mode="normal" in2="BackgroundImageFix" result="effect1_dropShadow"/><feBlend mode="normal" in="SourceGraphic" in2="effect1_dropShadow" result="shape"/></filter></defs><g><g filter="url(#master_svg0_178_78133)"><ellipse cx="130" cy="126" rx="100" ry="100" fill="url(#master_svg1_148_17317)" fill-opacity="1"/></g><g filter="url(#master_svg2_178_78134)"><g><g><path d="M111.01112,105.88856812011718C111.01112,105.88856812011718,138.2643,102.30204812011719,147.4952,111.71669812011719C158.0448,120.90709812011718,156.9876,148.8954981201172,135.1873,162.82459812011717C116.9453,174.4808981201172,102,180.08479812011717,102,180.08479812011717C102,180.08479812011717,122.2201,176.49829812011717,140.68189999999998,169.10109812011717C133.6488,174.70499812011718,124.8575,180.08479812011717,110.57156,186.3611981201172C123.9783,184.34379812011719,132.5499,180.5330981201172,134.3082,180.08479812011717C133.20929999999998,181.87799812011718,128.5938,186.1369981201172,128.5938,186.1369981201172C128.5938,186.1369981201172,138.2643,184.34379812011719,140.2423,183.22299812011718C142.22039999999998,182.10219812011718,122.4399,195.7757981201172,119.3629,195.9999981201172C126.8355,194.20669812011718,162.6602,180.9813981201172,171.8912,150.0475981201172C180.0231,121.35549812011719,162.88,106.11272812011718,150.3524,101.18125812011719C138.7038,95.80147812011718,118.0442,97.59473612011719,111.01112,105.88856812011718Z" fill="#FFFFFF" fill-opacity="1"/></g><g><path d="M115.95649804793702,96.47290000000001C115.95649804793702,96.5603,116.16089694793702,96.5603,116.17628194793701,96.47290000000001C116.77848794793701,92.8505,119.06204194793702,73.8195,123.20935194793701,73.6088C127.60499194793701,73.3847,129.143491947937,94.23140000000001,129.143491947937,94.23140000000001C129.143491947937,94.23140000000001,130.46219194793701,112.6123,128.484191947937,130.3207C126.813791947937,145.2833,124.30827194793702,167.083,124.30827194793702,167.083C124.30827194793702,167.083,124.74783194793702,167.531,125.18740194793702,165.289C125.62697194793701,163.048,128.147891947937,151.1988,128.484191947937,149.8225C128.78939194793702,148.6516,129.232191947937,147.5227,129.802891947937,146.4601C129.802891947937,146.4601,132.879791947937,120.9061,132.440291947937,106.56C133.099591947937,113.28479999999999,132.65999194793702,126.5101,132.220491947937,131.44150000000002C131.78089194793702,136.373,129.58309194793702,155.4264,128.70389194793702,158.789C128.70389194793702,158.789,128.70389194793702,160.358,128.70389194793702,160.358C128.70389194793702,160.358,129.802891947937,158.565,130.46219194793701,153.8573C131.12159194793702,149.15,131.78089194793702,146.23590000000002,131.78089194793702,146.23590000000002C131.78089194793702,146.23590000000002,132.65999194793702,144.6668,131.78089194793702,150.9433C130.932591947937,156.99599999999998,130.24239194793702,163.94400000000002,130.24239194793702,163.94400000000002C130.24239194793702,163.94400000000002,130.46219194793701,164.16899999999998,130.46219194793701,164.16899999999998C130.46219194793701,164.16899999999998,131.561091947937,160.358,132.000691947937,157.44400000000002C132.440291947937,154.5298,133.539191947937,146.23590000000002,133.758991947937,143.3219C133.97869194793702,140.4078,134.638091947937,133.90730000000002,134.638091947937,133.90730000000002C134.638091947937,133.90730000000002,134.418291947937,146.6843,134.19849194793701,148.70170000000002C135.077691947937,148.92579999999998,136.835891947937,133.2348,137.05569194793702,129.2C137.286491947937,124.941,139.58979194793702,93.2316,135.297491947937,72.0397C131.12159194793702,51.41722,125.62697194793701,56.572848,125.62697194793701,56.572848C125.62697194793701,56.572848,120.35217194793701,61.28016,118.37411194793701,75.4021C116.50815494793702,88.7193,115.82462794793702,94.88810000000001,115.95649804793702,96.47290000000001Z" fill="#FFFFFF" fill-opacity="1"/></g></g></g></g></svg>