<svg xmlns="http://www.w3.org/2000/svg" xmlns:xlink="http://www.w3.org/1999/xlink" fill="none" version="1.1" width="80" height="80" viewBox="0 0 80 80"><defs><filter id="master_svg0_182_32821" filterUnits="objectBoundingBox" color-interpolation-filters="sRGB" x="0" y="0" width="1" height="1"><feFlood flood-opacity="0" result="BackgroundImageFix"/><feBlend mode="normal" in="SourceGraphic" in2="BackgroundImageFix" result="shape"/><feColorMatrix in="SourceAlpha" type="matrix" result="hardAlpha" values="0 0 0 0 0 0 0 0 0 0 0 0 0 0 0 0 0 0 127 0"/><feOffset dy="0" dx="0"/><feGaussianBlur stdDeviation="1"/><feComposite in2="hardAlpha" operator="arithmetic" k2="-1" k3="1"/><feColorMatrix type="matrix" values="0 0 0 0 1 0 0 0 0 1 0 0 0 0 1 0 0 0 1 0"/><feBlend mode="normal" in2="shape" result="effect1_innerShadow"/><feGaussianBlur in="BackgroundImageFix" stdDeviation="2"/><feComposite in2="SourceAlpha" operator="in" result="effect2_foregroundBlur"/><feBlend mode="normal" in="SourceGraphic" in2="effect2_foregroundBlur" result="shape"/></filter><filter id="master_svg1_182_32836" filterUnits="objectBoundingBox" color-interpolation-filters="sRGB" x="0" y="0" width="1" height="1"><feFlood flood-opacity="0" result="BackgroundImageFix"/><feBlend mode="normal" in="SourceGraphic" in2="BackgroundImageFix" result="shape"/><feColorMatrix in="SourceAlpha" type="matrix" result="hardAlpha" values="0 0 0 0 0 0 0 0 0 0 0 0 0 0 0 0 0 0 127 0"/><feOffset dy="0" dx="0"/><feGaussianBlur stdDeviation="0.5"/><feComposite in2="hardAlpha" operator="arithmetic" k2="-1" k3="1"/><feColorMatrix type="matrix" values="0 0 0 0 0.9469026327133179 0 0 0 0 0.9698514938354492 0 0 0 0 1 0 0 0 1 0"/><feBlend mode="normal" in2="shape" result="effect1_innerShadow"/></filter><filter id="master_svg2_182_32838" filterUnits="objectBoundingBox" color-interpolation-filters="sRGB" x="0" y="0" width="1" height="1"><feFlood flood-opacity="0" result="BackgroundImageFix"/><feBlend mode="normal" in="SourceGraphic" in2="BackgroundImageFix" result="shape"/><feColorMatrix in="SourceAlpha" type="matrix" result="hardAlpha" values="0 0 0 0 0 0 0 0 0 0 0 0 0 0 0 0 0 0 127 0"/><feOffset dy="0" dx="0"/><feGaussianBlur stdDeviation="0.5"/><feComposite in2="hardAlpha" operator="arithmetic" k2="-1" k3="1"/><feColorMatrix type="matrix" values="0 0 0 0 0.9469026327133179 0 0 0 0 0.9698514938354492 0 0 0 0 1 0 0 0 1 0"/><feBlend mode="normal" in2="shape" result="effect1_innerShadow"/></filter></defs><g><g></g><g><g><rect x="12.464912414550781" y="8" width="64.03508758544922" height="49.91999816894531" rx="8" fill="#0066EC" fill-opacity="1"/></g><g filter="url(#master_svg0_182_32821)"><path d="M3.5,24.960000038146973L3.5,58.87990003814697C3.5,63.29820003814697,7.0817499999999995,66.88000003814697,11.50005,66.87990003814697L15.5,66.87990003814697L19.111800000000002,70.48970003814696C19.9298,71.30720003814697,21.2686,71.26260003814697,22.0304,70.39240003814697L25.1055,66.87990003814697L59.5351,66.88000003814697C63.9534,66.88000003814697,67.5351,63.29830003814697,67.5351,58.880000038146974L67.5351,24.960000038146973C67.5351,20.541720038146973,63.9534,16.960000038146973,59.5351,16.960000038146973L11.5,16.960000038146973C7.08172,16.960000038146973,3.5,20.541720038146973,3.5,24.960000038146973Z" fill="#FFFFFF" fill-opacity="0.10000000149011612"/><path d="M59.5351,66.88000003814697L25.1055,66.87990003814697L22.0304,70.39240003814697C21.2686,71.26260003814697,19.9298,71.30720003814697,19.111800000000002,70.48970003814696L15.5,66.87990003814697L11.50005,66.87990003814697C7.0817499999999995,66.88000003814697,3.5,63.29820003814697,3.5,58.87990003814697L3.5,24.960000038146973C3.5,20.541720038146973,7.08172,16.960000038146973,11.5,16.960000038146973L59.5351,16.960000038146973C63.9534,16.960000038146973,67.5351,20.541720038146973,67.5351,24.960000038146973L67.5351,58.880000038146974C67.5351,63.29830003814697,63.9534,66.88000003814697,59.5351,66.88000003814697ZM4,24.960000038146973L4,58.87990003814697Q4,61.986600038146975,6.19672,64.18330003814697Q8.39345,66.38000003814697,11.50005,66.37990003814697L15.5,66.37990003814697Q15.5994,66.37990003814697,15.6913,66.41800003814697Q15.7831,66.45600003814698,15.8535,66.52630003814697L19.4653,70.13600003814697Q19.9254,70.59590003814697,20.5756,70.57420003814697Q21.2257,70.55260003814698,21.6542,70.06310003814697L24.7293,66.55060003814697Q24.8005,66.46920003814697,24.8989,66.42460003814696Q24.9974,66.37990003814697,25.1055,66.37990003814697L59.5351,66.38000003814697Q62.6417,66.38000003814697,64.83840000000001,64.18330003814697Q67.0351,61.986600038146975,67.0351,58.880000038146974L67.0351,24.960000038146973Q67.0351,21.853410038146972,64.83840000000001,19.656700038146973Q62.6417,17.45999903814697,59.5351,17.460000038146973L11.5,17.460000038146973Q8.3934,17.460000038146973,6.1967,19.656700038146973Q4,21.853400038146972,4,24.960000038146973Z" fill-rule="evenodd" fill="#FFFFFF" fill-opacity="0.5"/></g><g filter="url(#master_svg1_182_32836)"><rect x="16.30701732635498" y="29.760000228881836" width="30.73684310913086" height="5.119999885559082" rx="2.559999942779541" fill="#FFFFFF" fill-opacity="1"/></g><g filter="url(#master_svg2_182_32838)"><rect x="16.30701732635498" y="40" width="15.36842155456543" height="5.119999885559082" rx="2.559999942779541" fill="#FFFFFF" fill-opacity="1"/></g></g></g></svg>