<svg xmlns="http://www.w3.org/2000/svg" xmlns:xlink="http://www.w3.org/1999/xlink" fill="none" version="1.1" width="16" height="16" viewBox="0 0 16 16"><defs><clipPath id="master_svg0_178_26801"><rect x="1" y="1" width="14" height="14" rx="0"/></clipPath></defs><g><g></g><g clip-path="url(#master_svg0_178_26801)"><g><path d="M13.078334375,6.8241559375L13.078334375,4.3376859375C13.078334375,3.1715559375,12.133234375,2.2264159375,10.967034375,2.2264159375L10.739114375,2.2264159375L10.739114375,1.7214359375C10.739114375,1.4303759375,10.503074375,1.1943359375,10.211104375,1.1943359375C9.919994375,1.1943358874321,9.684004375,1.4303269375,9.684004375,1.7214359375L9.684004375,2.2264159375L4.758034374999999,2.2264159375L4.758034374999999,1.7214359375C4.758034374999999,1.4303759375,4.521084375,1.1943359375,4.230024375,1.1943359375C3.937984375,1.1943359375,3.702014375,1.4303759375,3.702014375,1.7214359375L3.702014375,2.2264159375L3.226504375,2.2264159375C2.060304375,2.2264159375,1.115234375,3.1715559375,1.115234375,4.3376859375L1.115234375,12.4299359375C1.115234375,13.5961359375,2.060304375,14.5411359375,3.226504375,14.5411359375L7.242334375,14.5411359375C7.581704375,14.6452359375,7.924914375,14.3911359375,7.924484375,14.0362359375C7.924484375,13.7757359375,7.735344375,13.5591359375,7.486354375,13.5163359375C7.480424375,13.5131359375,7.474244375,13.5104359375,7.467874375,13.5081359375Q7.307504375,13.4559359375,3.226574375,13.4851359375C2.644454375,13.4851359375,2.1714643750000002,13.0121359375,2.1714643750000002,12.4299359375L2.1714643750000002,6.8236659375L12.674234375,6.8236659375M3.226504375,3.2815259375L3.702014375,3.2815259375L3.702014375,4.1843159375C3.701744375,4.4760359375,3.938304375,4.7125959375,4.230024375,4.7123259375C4.521604375,4.7122459375000005,4.757954375000001,4.4758959375,4.758034374999999,4.1843159375L4.758034374999999,3.2815259375L9.684004375,3.2815259375L9.684004375,4.1843159375C9.684004375,4.4763559375,9.920044375,4.7123259375,10.211104375,4.7123259375C10.502824375,4.7125959375,10.739384375,4.4760359375,10.739114375,4.1843159375L10.739114375,3.2815259375L10.967034375,3.2815259375C11.549134375,3.2815259375,12.023134375,3.7554959375,12.023134375,4.3376159375L12.023134375,5.7675059375L2.171324375,5.7675059375L2.171324375,4.3376859375C2.171324375,3.7555659375,2.644384375,3.2815259375,3.226504375,3.2815259375Z" fill="#0066EC" fill-opacity="1" style="mix-blend-mode:passthrough"/></g><g><path d="M11.441958125,7.52734375C9.498688125,7.52734375,7.923828125,9.10304375,7.923828125,11.04547375C7.923828125,12.988743750000001,9.498618125,14.56451375,11.441958125,14.56451375C13.385228125000001,14.56451375,14.960998125,12.98881375,14.960998125,11.04547375C14.960998125,9.10304375,13.385298125,7.52734375,11.441958125,7.52734375ZM11.441958125,13.508353750000001C10.084588125,13.508353750000001,8.979008125,12.40375375,8.979008125,11.04540375C8.979008125,9.68789375,10.084518125,8.58336375,11.441958125,8.58336375C12.800308125,8.58336375,13.904908125,9.68789375,13.904908125,11.04540375C13.904908125,12.40375375,12.800378125,13.508353750000001,11.441958125,13.508353750000001Z" fill="#0066EC" fill-opacity="1" style="mix-blend-mode:passthrough"/></g><g><path d="M12.498399375,11.39824703125L11.442309375,11.39824703125L11.442309375,10.342227031250001C11.442189375,10.14802703125,11.284829375000001,9.990597031250001,11.090629374999999,9.99040703125C10.896419375,9.990597031250001,10.739029375000001,10.14801703125,10.738879375,10.342227031250001L10.738879375,11.74999703125C10.738999374999999,11.94421703125,10.896409375000001,12.10162703125,11.090629374999999,12.10174703125L12.498399375,12.10174703125C12.692599375,12.10159703125,12.849999375,11.944197031249999,12.850149375,11.74999703125C12.849989375,11.55579703125,12.692599375,11.39840703125,12.498399375,11.39824703125ZM5.812979374999999,8.23095703125L3.701779375,8.23095703125C3.507281375,8.230956497192,3.349609375,8.38862803125,3.349609375,8.58312703125C3.349609375,8.77762503125,3.507281375,8.93529703125,3.701779375,8.93529703125L5.813049375,8.93529703125C6.007239375,8.93514303125,6.164619375,8.77773803125,6.164729375,8.58354703125C6.1649593750000005,8.38904903125,6.007479375,8.23118881225,5.812979374999999,8.23095703125ZM5.812979374999999,10.69383703125L3.701779375,10.69383703125C3.507242375,10.69410703125,3.349758644,10.85202703125,3.350029411,11.04656703125C3.350183487,11.24075703125,3.507588375,11.39813703125,3.701779375,11.39824703125L5.813049375,11.39824703125C6.007229375,11.39813703125,6.164619375,11.24074703125,6.164729375,11.04656703125C6.164999375,10.85202703125,6.007519375,10.69410703125,5.812979374999999,10.69383703125Z" fill="#0066EC" fill-opacity="1" style="mix-blend-mode:passthrough"/></g></g></g></svg>