<svg xmlns="http://www.w3.org/2000/svg" xmlns:xlink="http://www.w3.org/1999/xlink" fill="none" version="1.1" width="80" height="80" viewBox="0 0 80 80"><defs><filter id="master_svg0_182_33387" filterUnits="objectBoundingBox" color-interpolation-filters="sRGB" x="0" y="0" width="1" height="1"><feFlood flood-opacity="0" result="BackgroundImageFix"/><feBlend mode="normal" in="SourceGraphic" in2="BackgroundImageFix" result="shape"/><feColorMatrix in="SourceAlpha" type="matrix" result="hardAlpha" values="0 0 0 0 0 0 0 0 0 0 0 0 0 0 0 0 0 0 127 0"/><feOffset dy="0" dx="0"/><feGaussianBlur stdDeviation="1"/><feComposite in2="hardAlpha" operator="arithmetic" k2="-1" k3="1"/><feColorMatrix type="matrix" values="0 0 0 0 1 0 0 0 0 1 0 0 0 0 1 0 0 0 1 0"/><feBlend mode="normal" in2="shape" result="effect1_innerShadow"/><feGaussianBlur in="BackgroundImageFix" stdDeviation="2"/><feComposite in2="SourceAlpha" operator="in" result="effect2_foregroundBlur"/><feBlend mode="normal" in="SourceGraphic" in2="effect2_foregroundBlur" result="shape"/></filter></defs><g><g></g><g><g><rect x="13.166666984558105" y="5.5" width="61.333335876464844" height="61.333335876464844" rx="8" fill="#8E2CFF" fill-opacity="1"/></g><g filter="url(#master_svg0_182_33387)"><path d="M5.5,23.722222328186035L5.5,66.50002232818603C5.5,70.91832232818604,9.08172,74.50002232818603,13.5,74.50002232818603L56.2778,74.50002232818603C60.6961,74.50002232818603,64.2778,70.91832232818604,64.2778,66.50002232818603L64.2778,23.722222328186035C64.2778,19.303942328186036,60.6961,15.722222328186035,56.2778,15.722222328186035L13.5,15.722222328186035C9.08172,15.722222328186035,5.5,19.303942328186036,5.5,23.722222328186035Z" fill="#FFFFFF" fill-opacity="0.10000000149011612"/><path d="M5.5,23.722222328186035L5.5,66.50002232818603C5.5,70.91832232818604,9.08172,74.50002232818603,13.5,74.50002232818603L56.2778,74.50002232818603C60.6961,74.50002232818603,64.2778,70.91832232818604,64.2778,66.50002232818603L64.2778,23.722222328186035C64.2778,19.303942328186036,60.6961,15.722222328186035,56.2778,15.722222328186035L13.5,15.722222328186035C9.08172,15.722222328186035,5.5,19.303942328186036,5.5,23.722222328186035ZM6,23.722222328186035L6,66.50002232818603Q6,69.60662232818603,8.1967,71.80332232818603Q10.39341,74.00002232818603,13.5,74.00002232818603L56.2778,74.00002232818603Q59.3844,74.00002232818603,61.5811,71.80332232818603Q63.7778,69.60662232818603,63.7778,66.50002232818603L63.7778,23.722222328186035Q63.7778,20.615642328186034,61.5811,18.418922328186035Q59.3844,16.222223328186036,56.2778,16.222223328186036L13.5,16.222222328186035Q10.3934,16.222222328186035,8.1967,18.418922328186035Q6,20.615622328186035,6,23.722222328186035Z" fill-rule="evenodd" fill="#FFFFFF" fill-opacity="0.5"/></g><g><path d="M38.79473396911621,36.38012515197754Q38.79473396911621,34.80286515197754,37.658833969116216,33.68416515197754Q36.51333396911621,32.55605515197754,34.88873396911621,32.55605515197754Q30.98273396911621,32.55605515197754,30.98273396911621,36.38012515197754Q30.98273396911621,38.58121515197754,32.92693396911621,39.68685515197754Q32.99103396911621,39.723285151977535,33.05123396911621,39.76581515197754Q33.11143396911621,39.80834515197754,33.16713396911621,39.85656515197754Q33.22283396911621,39.90479515197754,33.273533969116215,39.958245151977536Q33.32423396911621,40.01169515197754,33.36953396911621,40.06986515197754Q33.41473396911621,40.12803515197754,33.45403396911621,40.19035515197754Q33.49343396911621,40.25268515197754,33.52643396911621,40.31855515197754Q33.55943396911621,40.38443515197754,33.58583396911621,40.45323515197754Q33.61223396911621,40.52202515197754,33.631833969116215,40.59307515197754Q33.65133396911621,40.66413515197754,33.66383396911621,40.73675515197754Q33.676333969116214,40.80938515197754,33.68163396911621,40.88288515197754Q33.68693396911621,40.95638515197754,33.68493396911621,41.03004515197754Q33.68303396911621,41.10366515197754,33.67393396911621,41.17686515197754Q33.66473396911621,41.24996515197754,33.64843396911621,41.32186515197754Q33.632233969116214,41.39366515197754,33.60903396911621,41.46366515197754Q33.58573396911621,41.53356515197754,33.55573396911621,41.60086515197754Q33.52583396911621,41.66816515197754,33.48933396911621,41.73226515197754Q33.484533969116214,41.74086515197754,33.47953396911621,41.74936515197754L28.067983969116213,50.98036515197754Q27.96875396911621,51.149665151977544,27.82932396911621,51.287665151977535Q27.68988396911621,51.425765151977544,27.51963396911621,51.52326515197754Q27.34938396911621,51.62086515197754,27.15977396911621,51.671265151977536Q26.97016396911621,51.721765151977536,26.77395396911621,51.721765151977536L23.83333396911621,51.721765151977536Q22.33333396911621,51.721765151977536,22.33333396911621,53.221765151977536L22.33333396911621,53.61066515197754Q22.33333396911621,55.11066515197754,23.83333396911621,55.11066515197754L45.94443396911621,55.11066515197754Q47.44443396911621,55.11066515197754,47.44443396911621,53.61066515197754L47.44443396911621,53.221765151977536Q47.44443396911621,51.721765151977536,45.94443396911621,51.721765151977536L43.002933969116214,51.721765151977536Q42.80673396911621,51.721765151977536,42.61713396911621,51.671265151977536Q42.42753396911621,51.62086515197754,42.25733396911621,51.52326515197754Q42.087033969116206,51.425765151977544,41.94763396911621,51.287665151977535Q41.80813396911621,51.149665151977544,41.70893396911621,50.98036515197754L36.29753396911621,41.749565151977535Q36.26033396911621,41.68606515197754,36.229433969116215,41.61906515197754Q36.19853396911621,41.55216515197754,36.17443396911621,41.48256515197754Q36.150233969116215,41.41296515197754,36.13303396911621,41.34126515197754Q36.11583396911621,41.26966515197754,36.10573396911621,41.19666515197754Q36.09563396911621,41.12366515197754,36.09273396911621,41.05001515197754Q36.08983396911621,40.97638515197754,36.094133969116214,40.902815151977535Q36.09853396911621,40.82925515197754,36.11003396911621,40.75647515197754Q36.121533969116214,40.68368515197754,36.140133969116214,40.61238515197754Q36.15873396911621,40.54108515197754,36.18423396911621,40.471945151977536Q36.209733969116215,40.40280515197754,36.24193396911621,40.33649515197754Q36.27403396911621,40.27019515197754,36.31253396911621,40.20735515197754Q36.35103396911621,40.14452515197754,36.395533969116215,40.08576515197754Q36.440033969116215,40.02700515197754,36.49003396911621,39.972885151977536Q36.54003396911621,39.91877515197754,36.59513396911621,39.86981515197754Q36.65013396911621,39.82086515197754,36.70983396911621,39.77754515197754Q36.76943396911621,39.73422515197754,36.83293396911621,39.69695515197754Q36.84153396911621,39.69193515197754,36.85023396911621,39.68701515197754Q38.79473396911621,38.58143515197754,38.79473396911621,36.38012515197754ZM41.79473396911621,36.38012515197754Q41.79473396911621,40.32674515197754,38.33293396911621,42.294965151977536L37.59163396911621,40.99098515197754L38.88563396911621,40.23238515197754L44.297033969116214,49.463165151977535L43.002933969116214,50.221765151977536L43.002933969116214,48.721765151977536L45.94443396911621,48.721765151977536Q47.80843396911621,48.721765151977536,49.126433969116206,50.03976515197754Q50.44443396911621,51.357865151977535,50.44443396911621,53.221765151977536L50.44443396911621,53.61066515197754Q50.44443396911621,55.47466515197754,49.126433969116206,56.79266515197754Q47.80843396911621,58.11066515197754,45.94443396911621,58.11066515197754L23.83333396911621,58.11066515197754Q21.969373969116212,58.11066515197754,20.65135396911621,56.79266515197754Q19.33333396911621,55.47466515197754,19.33333396911621,53.61066515197754L19.33333396911621,53.221765151977536Q19.33333396911621,51.357865151977535,20.65135396911621,50.03976515197754Q21.969373969116212,48.721765151977536,23.83333396911621,48.721765151977536L26.77395396911621,48.721765151977536L26.77395396911621,50.221765151977536L25.47991396911621,49.463165151977535L30.89143396911621,40.23215515197754L32.18543396911621,40.99076515197754L31.44393396911621,42.29466515197754Q27.98274396911621,40.32635515197754,27.98274396911621,36.38012515197754Q27.98274396911621,33.54678515197754,30.01359396911621,31.54671415197754Q32.03483396911621,29.55605515197754,34.88873396911621,29.55605515197754Q37.74253396911621,29.55605515197754,39.763833969116206,31.54671415197754Q41.79473396911621,33.54678515197754,41.79473396911621,36.38012515197754Z" fill="#FFFFFF" fill-opacity="1"/></g></g></g></svg>