<svg xmlns="http://www.w3.org/2000/svg" xmlns:xlink="http://www.w3.org/1999/xlink" fill="none" version="1.1" width="42" height="50" viewBox="0 0 42 50"><g><g><path d="M30.1875,26.31591796875C23.66364,26.31591573263,18.375,31.61780796875,18.375,38.15801796875C18.375,44.69821796875,23.66364,50.000117968750004,30.1875,50.000117968750004C36.7114,50.000117968750004,42,44.69821796875,42,38.15801796875C42,31.61780796875,36.7114,26.31591796875,30.1875,26.31591796875ZM34.558099999999996,40.28961796875L29.4551,40.28961796875C28.6462,40.28961796875,27.990380000000002,39.63211796875,27.990380000000002,38.82121796875L27.990380000000002,34.39223796875C27.990380000000002,33.58124796875,28.6462,32.92380796875,29.4551,32.92380796875C30.2641,32.92380796875,30.9199,33.58124796875,30.9199,34.39223796875L30.9199,37.32911796875L34.558099999999996,37.32911796875C35.3018,37.42361796875,35.8594,38.05781796875,35.8594,38.80931796875C35.8594,39.56091796875,35.3018,40.19511796875,34.558099999999996,40.28961796875Z" fill="#0066EC" fill-opacity="1" style="mix-blend-mode:passthrough"/></g><g><path d="M30.6797,4.45382L24.2578,4.45382C23.2051,1.76821,20.6044,0,17.707,0C14.8096,-5.50378e-7,12.2089,1.76821,11.1562,4.45382L4.6875,4.45382C2.09867,4.45382,0.00000110641,6.54176,0,9.11736L0,41.3891C-0.00000221282,43.9647,2.09866,46.0526,4.6875,46.0526L18.9141,46.0526C15.5166,41.7086,14.9231,35.8116,17.3872,30.8836C19.8514,25.9556,24.9369,22.8693,30.4687,22.9448C32.1438,22.9423,33.8127,23.146,35.4375,23.551L35.4375,9.07073C35.4118,6.48585,33.2777,4.41492,30.6797,4.45382ZM17.7187,4.45382C19.0132,4.45382,20.0625,5.49779,20.0625,6.78559C20.0625,8.0734,19.0132,9.11737,17.7187,9.11737C16.4243,9.11737,15.375,8.0734,15.375,6.78559C15.375,5.49779,16.4243,4.45382,17.7187,4.45382ZM12.9141,34.487C12.623,34.9695,12.0968,35.2623,11.5312,35.2565L8.46094,35.2565C7.87884,35.2793,7.33064,34.9842,7.03125,34.487C6.73822,34.0029,6.73549,33.3979,7.02415,32.9111C7.31281,32.4244,7.8464,32.1342,8.41406,32.1553L11.5312,32.1553C12.0989,32.1342,12.6325,32.4244,12.9212,32.9111C13.2098,33.3979,13.2071,34.0029,12.9141,34.487ZM14.625,26.0227L8.46094,26.0227C7.60662,26.0227,6.91406,25.3337,6.91406,24.4837C6.91406,23.6338,7.60662,22.9448,8.46094,22.9448L14.625,22.9448C15.4793,22.9448,16.1719,23.6338,16.1719,24.4837C16.1719,25.3337,15.4793,26.0227,14.625,26.0227ZM27,16.6956L8.46094,16.6956C7.60603,16.6965,6.91255,16.0072,6.91255,15.1567C6.91255,14.3061,7.60603,13.6169,8.46094,13.6177L27,13.6177C27.8537,13.6185,28.5454,14.3073,28.5454,15.1567C28.5454,16.006,27.8537,16.6948,27,16.6956Z" fill="#0066EC" fill-opacity="1" style="mix-blend-mode:passthrough"/></g></g></svg>