<svg xmlns="http://www.w3.org/2000/svg" xmlns:xlink="http://www.w3.org/1999/xlink" fill="none" version="1.1" width="16" height="16" viewBox="0 0 16 16"><defs><clipPath id="master_svg0_176_75834"><rect x="0" y="0" width="16" height="16" rx="0"/></clipPath></defs><g clip-path="url(#master_svg0_176_75834)"><g><path d="M8.38217,3.136364C8.17834,2.9545454,7.84713,2.9545454,7.64331,3.136364C7.49045,3.272727,4,6.47727,4,8.909089999999999C4,11.31818,5.6560500000000005,13,8,13C10.34395,13,12,11.31818,12,8.909089999999999C12,6.47727,8.50955,3.272727,8.38217,3.136364ZM7.92357,11.5C7.18471,11.34091,6.6242,11,6.29299,10.5C5.6305700000000005,9.47727,6.08917,8.18182,6.11465,8.11364L6.47134,8.20454L6.82803,8.295449999999999Q6.44586,9.38636,6.92994,10.13636C7.1592400000000005,10.47727,7.5159199999999995,10.70454,8.05096,10.81818L7.92357,11.5Z" fill="#519CFF" fill-opacity="1" style="mix-blend-mode:passthrough"/></g></g></svg>