<svg xmlns="http://www.w3.org/2000/svg" xmlns:xlink="http://www.w3.org/1999/xlink" fill="none" version="1.1" width="16" height="16" viewBox="0 0 16 16"><g><g></g><g><g><path d="M8.000000143051148,14C10.430050143051147,14,12.400000143051148,12.1256,12.400000143051148,9.81339Q12.400000143051148,7.71064,8.761070143051146,2.970519Q8.398590143051148,2.49834,8.000000143051148,2Q7.601410143051147,2.498345,7.238930143051148,2.97052Q3.6000001430511475,7.71064,3.6000001430511475,9.81339C3.6000001430511475,12.1256,5.569950143051147,14,8.000000143051148,14ZM8.000000143051148,3.9486600000000003Q4.800000143051148,8.149989999999999,4.800000143051148,9.81339Q4.800000143051148,11.03293,5.7159201430511475,11.90442Q6.657140143051148,12.8,8.000000143051148,12.8Q9.342860143051148,12.8,10.284080143051147,11.90442Q11.200000143051147,11.03293,11.200000143051147,9.81339Q11.200000143051147,8.149989999999999,8.000000143051148,3.9486600000000003ZM10.200000143051147,9.6C10.200000143051147,9.26863,9.931370143051147,9,9.600000143051147,9L6.400000143051147,9C6.068630143051148,9,5.800000143051148,9.26863,5.800000143051148,9.6C5.800000143051148,9.931370000000001,6.068630143051148,10.2,6.400000143051147,10.2L9.600000143051147,10.2C9.931370143051147,10.2,10.200000143051147,9.931370000000001,10.200000143051147,9.6Z" fill-rule="evenodd" fill="#0066EC" fill-opacity="1"/></g></g></g></svg>