<svg xmlns="http://www.w3.org/2000/svg" xmlns:xlink="http://www.w3.org/1999/xlink" fill="none" version="1.1" width="16" height="16" viewBox="0 0 16 16"><g><g></g><g><g><path d="M8.154879904632569,5.470219999999999L8.155499904632569,5.4711300000000005C8.261459904632568,5.62462,8.436979904632569,5.7164,8.624579904632569,5.7164C8.938509904632568,5.7164,9.192999904632568,5.4640699999999995,9.192999904632568,5.152810000000001C9.192999904632568,5.0392,9.158369904632568,4.92825,9.093629904632568,4.83447L9.093249904632568,4.8339099999999995Q8.371689904632568,3.78866,7.412139904632569,2.569419L6.964009904632569,2L6.515869904632568,2.569419Q2.5999999046325684,7.54509,2.5999999046325684,9.76605Q2.5999999046325684,11.52395,3.8832399046325685,12.7649Q5.160529904632568,14,6.964009904632569,14Q7.848319904632568,14,8.65720990463257,13.6694L8.658189904632568,13.669C8.87098990463257,13.5819,9.009839904632567,13.3762,9.009839904632567,13.148C9.009839904632567,12.8367,8.755349904632569,12.5844,8.441419904632568,12.5844C8.36704990463257,12.5844,8.293409904632568,12.5989,8.224659904632569,12.627Q7.623579904632568,12.8728,6.964009904632569,12.8728Q5.623119904632569,12.8728,4.676999904632568,11.95792Q3.7368399046325687,11.04878,3.7368399046325687,9.76605Q3.7368399046325687,8.048259999999999,6.963879904632568,3.83968Q7.6263899046325685,4.70468,8.154879904632569,5.470219999999999ZM10.26438990463257,12.779C11.996069904632568,12.779,13.399899904632568,11.44382,13.399899904632568,9.79681Q13.399899904632568,8.36262,11.022319904632567,5.20596Q10.669529904632569,4.73757,10.26438990463257,4.23125Q9.859249904632568,4.73757,9.506459904632568,5.20596Q7.128909904632568,8.36262,7.128909904632568,9.79681C7.128909904632568,11.44382,8.532709904632569,12.779,10.26438990463257,12.779ZM10.26438990463257,6.19129Q8.328909904632567,8.79044,8.328909904632567,9.79681Q8.328909904632567,10.51731,8.874269904632568,11.036Q9.445159904632568,11.57898,10.26438990463257,11.57898Q11.083619904632569,11.57898,11.654509904632569,11.036Q12.199869904632568,10.51731,12.199869904632568,9.79681Q12.199869904632568,8.79044,10.26438990463257,6.19129Z" fill-rule="evenodd" fill="#0066EC" fill-opacity="1"/></g></g></g></svg>