<svg xmlns="http://www.w3.org/2000/svg" xmlns:xlink="http://www.w3.org/1999/xlink" fill="none" version="1.1" width="16" height="16" viewBox="0 0 16 16"><g><g></g><g><g><path d="M13.49999988079071,7.4999998807907104Q13.49999988079071,7.64728988079071,13.492799880790711,7.794399880790711Q13.48549988079071,7.94151988079071,13.47109988079071,8.088099880790711Q13.45669988079071,8.234679880790711,13.43509988079071,8.38037988079071Q13.41339988079071,8.52607988079071,13.384699880790711,8.67053988079071Q13.35599988079071,8.814999880790712,13.32019988079071,8.95787988079071Q13.28439988079071,9.100759880790712,13.24159988079071,9.241709880790712Q13.19889988079071,9.38265988079071,13.14929988079071,9.52133988079071Q13.099599880790711,9.66001988079071,13.04329988079071,9.79609988079071Q12.98689988079071,9.932179880790711,12.92389988079071,10.06532988079071Q12.860999880790711,10.19847988079071,12.79149988079071,10.32837988079071Q12.72209988079071,10.45827988079071,12.64639988079071,10.58460988079071Q12.570599880790711,10.71094988079071,12.48879988079071,10.83341988079071Q12.40699988079071,10.95588988079071,12.31919988079071,11.07418988079071Q12.231499880790711,11.192499880790711,12.13809988079071,11.30635988079071Q12.044599880790711,11.420219880790711,11.94569988079071,11.529399880790711Q11.84679988079071,11.638499880790711,11.74259988079071,11.74259988079071Q11.638499880790711,11.84679988079071,11.52929988079071,11.94569988079071Q11.420209880790711,12.044599880790711,11.30635988079071,12.13809988079071Q11.192499880790711,12.231499880790711,11.07418988079071,12.31919988079071Q10.95588988079071,12.40699988079071,10.83341988079071,12.48879988079071Q10.71094988079071,12.570599880790711,10.58460988079071,12.64639988079071Q10.45827988079071,12.72209988079071,10.32837988079071,12.79149988079071Q10.19847988079071,12.860999880790711,10.06532988079071,12.92389988079071Q9.932179880790711,12.98689988079071,9.79609988079071,13.04329988079071Q9.66001988079071,13.099599880790711,9.521329880790711,13.14929988079071Q9.38264988079071,13.19889988079071,9.24169988079071,13.24159988079071Q9.100759880790712,13.28439988079071,8.95787988079071,13.32019988079071Q8.814999880790712,13.35599988079071,8.67053988079071,13.384699880790711Q8.52607988079071,13.41339988079071,8.38037988079071,13.43509988079071Q8.234679880790711,13.45669988079071,8.088099880790711,13.47109988079071Q7.94151988079071,13.48549988079071,7.794399880790711,13.492799880790711Q7.64728988079071,13.49999988079071,7.4999998807907104,13.49999988079071Q7.3527098807907105,13.49999988079071,7.20558988079071,13.492799880790711Q7.058479880790711,13.48549988079071,6.911899880790711,13.47109988079071Q6.765309880790711,13.45669988079071,6.619619880790711,13.43509988079071Q6.47391988079071,13.41339988079071,6.3294598807907105,13.384699880790711Q6.18498988079071,13.35599988079071,6.04211988079071,13.32019988079071Q5.89923988079071,13.28439988079071,5.75828988079071,13.24159988079071Q5.617339880790711,13.19889988079071,5.47865988079071,13.14929988079071Q5.339979880790711,13.099599880790711,5.20389988079071,13.04329988079071Q5.067819880790711,12.98689988079071,4.934669880790711,12.92389988079071Q4.8015198807907105,12.860999880790711,4.67161988079071,12.79149988079071Q4.54171988079071,12.72209988079071,4.41537988079071,12.64639988079071Q4.28904988079071,12.570599880790711,4.16657988079071,12.48879988079071Q4.04410988079071,12.40699988079071,3.9257998807907106,12.31919988079071Q3.8074998807907106,12.231499880790711,3.6936398807907103,12.13809988079071Q3.5797798807907104,12.044599880790711,3.4706498807907105,11.94569988079071Q3.3615098807907104,11.84679988079071,3.2573598807907107,11.74259988079071Q3.1532098807907105,11.638499880790711,3.0542898807907104,11.529399880790711Q2.9553798807907103,11.420219880790711,2.86193988079071,11.30635988079071Q2.7684998807907104,11.192499880790711,2.68074988079071,11.07418988079071Q2.5930098807907105,10.95588988079071,2.5111798807907104,10.83341988079071Q2.4293508807907105,10.71094988079071,2.3536278807907105,10.58460988079071Q2.2779048807907105,10.45827988079071,2.2084718807907104,10.32837988079071Q2.1390388807907104,10.19847988079071,2.0760638807907106,10.06532988079071Q2.0130888807907104,9.932179880790711,1.9567228807907104,9.79609988079071Q1.9003568807907105,9.66001988079071,1.8507348807907105,9.52133988079071Q1.8011138807907106,9.38265988079071,1.7583578807907103,9.241709880790712Q1.7156008807907104,9.100759880790712,1.6798118807907105,8.95787988079071Q1.6440228807907105,8.814999880790712,1.6152878807907105,8.67053988079071Q1.5865529807907104,8.52607988079071,1.5649407807907105,8.38037988079071Q1.5433285807907104,8.234679880790711,1.5288914807907104,8.088099880790711Q1.5144543807907105,7.94151988079071,1.5072271407907105,7.794399880790711Q1.4999998807907104,7.64728988079071,1.4999998807907104,7.4999998807907104Q1.4999998807907104,7.3527098807907105,1.5072271407907105,7.20558988079071Q1.5144543807907105,7.058479880790711,1.5288914807907104,6.911899880790711Q1.5433285807907104,6.765309880790711,1.5649407807907105,6.619619880790711Q1.5865529807907104,6.47391988079071,1.6152878807907105,6.3294598807907105Q1.6440228807907105,6.18499988079071,1.6798118807907105,6.04211988079071Q1.7156008807907104,5.89923988079071,1.7583578807907103,5.75828988079071Q1.8011138807907106,5.617339880790711,1.8507348807907105,5.47865988079071Q1.9003568807907105,5.339979880790711,1.9567228807907104,5.20389988079071Q2.0130888807907104,5.067819880790711,2.0760638807907106,4.934669880790711Q2.1390388807907104,4.8015198807907105,2.2084718807907104,4.67161988079071Q2.2779048807907105,4.54171988079071,2.3536278807907105,4.41537988079071Q2.4293508807907105,4.28904988079071,2.5111798807907104,4.16657988079071Q2.5930098807907105,4.04410988079071,2.68074988079071,3.9257998807907106Q2.7684998807907104,3.8074998807907106,2.86193988079071,3.6936398807907103Q2.9553798807907103,3.5797798807907104,3.0542898807907104,3.4706498807907105Q3.1532098807907105,3.3615098807907104,3.2573598807907107,3.2573598807907107Q3.3615098807907104,3.1532098807907105,3.4706498807907105,3.0542898807907104Q3.5797798807907104,2.9553798807907103,3.6936398807907103,2.86193988079071Q3.8074998807907106,2.7684998807907104,3.9257998807907106,2.68074988079071Q4.04410988079071,2.5930098807907105,4.16657988079071,2.5111798807907104Q4.28904988079071,2.4293508807907105,4.41537988079071,2.3536278807907105Q4.54171988079071,2.2779048807907105,4.67161988079071,2.2084718807907104Q4.8015198807907105,2.1390388807907104,4.934669880790711,2.0760638807907106Q5.067819880790711,2.0130888807907104,5.20389988079071,1.9567228807907104Q5.339979880790711,1.9003568807907105,5.47865988079071,1.8507348807907105Q5.617339880790711,1.8011138807907106,5.75828988079071,1.7583578807907103Q5.89923988079071,1.7156008807907104,6.04211988079071,1.6798118807907105Q6.18499988079071,1.6440228807907105,6.3294598807907105,1.6152878807907105Q6.47391988079071,1.5865529807907104,6.619619880790711,1.5649407807907105Q6.765309880790711,1.5433285807907104,6.911899880790711,1.5288914807907104Q7.058479880790711,1.5144543807907105,7.20558988079071,1.5072271407907105Q7.3527098807907105,1.4999998807907104,7.4999998807907104,1.4999998807907104Q7.64728988079071,1.4999998807907104,7.794399880790711,1.5072271407907105Q7.94151988079071,1.5144543807907105,8.088099880790711,1.5288914807907104Q8.234679880790711,1.5433285807907104,8.38037988079071,1.5649407807907105Q8.52607988079071,1.5865529807907104,8.67053988079071,1.6152878807907105Q8.814999880790712,1.6440228807907105,8.95787988079071,1.6798118807907105Q9.100759880790712,1.7156008807907104,9.24169988079071,1.7583578807907103Q9.38264988079071,1.8011138807907106,9.52133988079071,1.8507348807907105Q9.66001988079071,1.9003568807907105,9.79609988079071,1.9567228807907104Q9.932179880790711,2.0130888807907104,10.06532988079071,2.0760638807907106Q10.19847988079071,2.1390388807907104,10.32837988079071,2.2084718807907104Q10.45827988079071,2.2779048807907105,10.58460988079071,2.3536278807907105Q10.71094988079071,2.4293508807907105,10.83341988079071,2.5111798807907104Q10.95588988079071,2.5930098807907105,11.07418988079071,2.68074988079071Q11.192499880790711,2.7684998807907104,11.30635988079071,2.86193988079071Q11.420209880790711,2.9553798807907103,11.52929988079071,3.0542898807907104Q11.638499880790711,3.1532098807907105,11.74259988079071,3.2573598807907107Q11.84679988079071,3.3615098807907104,11.94569988079071,3.4706498807907105Q12.044599880790711,3.5797798807907104,12.13809988079071,3.6936398807907103Q12.231499880790711,3.8074998807907106,12.31919988079071,3.9257998807907106Q12.40699988079071,4.04410988079071,12.48879988079071,4.16657988079071Q12.570599880790711,4.28904988079071,12.64639988079071,4.41537988079071Q12.72209988079071,4.54171988079071,12.79149988079071,4.67161988079071Q12.860999880790711,4.8015198807907105,12.92389988079071,4.934669880790711Q12.98689988079071,5.067819880790711,13.04329988079071,5.20389988079071Q13.099599880790711,5.339979880790711,13.14929988079071,5.47865988079071Q13.19889988079071,5.617339880790711,13.24159988079071,5.75828988079071Q13.28439988079071,5.89923988079071,13.32019988079071,6.04211988079071Q13.35599988079071,6.18499988079071,13.384699880790711,6.3294598807907105Q13.41339988079071,6.47391988079071,13.43509988079071,6.619619880790711Q13.45669988079071,6.765309880790711,13.47109988079071,6.911899880790711Q13.48549988079071,7.058479880790711,13.492799880790711,7.20558988079071Q13.49999988079071,7.3527098807907105,13.49999988079071,7.4999998807907104ZM12.49999988079071,7.4999998807907104Q12.49999988079071,7.37725988079071,12.49399988079071,7.254659880790711Q12.48799988079071,7.13206988079071,12.47589988079071,7.00990988079071Q12.463899880790711,6.8877598807907106,12.44589988079071,6.7663498807907105Q12.42789988079071,6.64492988079071,12.40389988079071,6.52454988079071Q12.379999880790711,6.4041598807907105,12.35019988079071,6.28509988079071Q12.32029988079071,6.166029880790711,12.284699880790711,6.048579880790711Q12.24909988079071,5.93111988079071,12.207699880790711,5.8155498807907104Q12.16639988079071,5.6999798807907105,12.119399880790711,5.58657988079071Q12.07239988079071,5.473179880790711,12.01989988079071,5.362219880790711Q11.96749988079071,5.25126988079071,11.90959988079071,5.14301988079071Q11.85169988079071,5.03476988079071,11.788599880790711,4.92948988079071Q11.72549988079071,4.82420988079071,11.65729988079071,4.7221498807907105Q11.58919988079071,4.62008988079071,11.51599988079071,4.52149988079071Q11.442919880790711,4.42290988079071,11.36504988079071,4.3280298807907105Q11.28717988079071,4.233149880790711,11.204749880790711,4.14219988079071Q11.12231988079071,4.0512598807907105,11.03552988079071,3.9644698807907104Q10.948739880790711,3.8776698807907106,10.85778988079071,3.7952398807907106Q10.76684988079071,3.7128098807907106,10.67195988079071,3.6349498807907104Q10.577079880790711,3.5570798807907105,10.478489880790711,3.48395988079071Q10.379909880790711,3.4108398807907108,10.277849880790711,3.3426498807907103Q10.17578988079071,3.2744598807907104,10.070509880790711,3.2113598807907104Q9.96522988079071,3.1482498807907104,9.85697988079071,3.0903898807907106Q9.74872988079071,3.0325298807907104,9.63776988079071,2.9800498807907108Q9.52680988079071,2.9275698807907107,9.41340988079071,2.8805998807907107Q9.30000988079071,2.8336298807907108,9.18444988079071,2.7922798807907103Q9.06887988079071,2.7509298807907108,8.95141988079071,2.7152998807907105Q8.833959880790712,2.6796698807907102,8.71489988079071,2.6498398807907106Q8.59582988079071,2.6200198807907107,8.47544988079071,2.5960698807907105Q8.355069880790712,2.5721298807907105,8.233649880790711,2.5541198807907106Q8.11223988079071,2.5361098807907103,7.99007988079071,2.5240798807907106Q7.867929880790711,2.5120498807907103,7.74533988079071,2.5060198807907104Q7.622739880790711,2.4999998807907104,7.4999998807907104,2.4999998807907104Q7.37725988079071,2.4999998807907104,7.254659880790711,2.5060198807907104Q7.13206988079071,2.5120498807907103,7.00990988079071,2.5240798807907106Q6.8877598807907106,2.5361098807907103,6.7663498807907105,2.5541198807907106Q6.64492988079071,2.5721298807907105,6.52454988079071,2.5960698807907105Q6.4041598807907105,2.6200198807907107,6.28509988079071,2.6498398807907106Q6.166029880790711,2.6796698807907102,6.04856988079071,2.7152998807907105Q5.93111988079071,2.7509298807907108,5.8155498807907104,2.7922798807907103Q5.6999798807907105,2.8336298807907108,5.58657988079071,2.8805998807907107Q5.473179880790711,2.9275698807907107,5.362219880790711,2.9800498807907108Q5.251259880790711,3.0325298807907104,5.14301988079071,3.0903898807907106Q5.03476988079071,3.1482498807907104,4.92948988079071,3.2113598807907104Q4.82420988079071,3.2744598807907104,4.7221498807907105,3.3426498807907103Q4.62008988079071,3.4108398807907108,4.52149988079071,3.48395988079071Q4.42290988079071,3.5570798807907105,4.3280298807907105,3.6349498807907104Q4.233149880790711,3.7128098807907106,4.14219988079071,3.7952398807907106Q4.0512598807907105,3.8776698807907106,3.9644698807907104,3.9644698807907104Q3.8776698807907106,4.0512598807907105,3.7952398807907106,4.14219988079071Q3.7128098807907106,4.233149880790711,3.6349498807907104,4.3280298807907105Q3.5570798807907105,4.42290988079071,3.48395988079071,4.52149988079071Q3.4108398807907108,4.62008988079071,3.3426498807907103,4.7221498807907105Q3.2744598807907104,4.82420988079071,3.2113598807907104,4.92948988079071Q3.1482498807907104,5.03476988079071,3.0903898807907106,5.14301988079071Q3.0325298807907104,5.25126988079071,2.9800498807907108,5.362219880790711Q2.9275698807907107,5.473179880790711,2.8805998807907107,5.58657988079071Q2.8336298807907108,5.6999798807907105,2.7922798807907103,5.8155498807907104Q2.7509298807907108,5.93111988079071,2.7152998807907105,6.048579880790711Q2.6796698807907102,6.166029880790711,2.6498398807907106,6.28509988079071Q2.6200198807907107,6.4041598807907105,2.5960698807907105,6.52454988079071Q2.5721298807907105,6.64492988079071,2.5541198807907106,6.7663498807907105Q2.5361098807907103,6.8877598807907106,2.5240798807907106,7.00990988079071Q2.5120498807907103,7.13206988079071,2.5060198807907104,7.254659880790711Q2.4999998807907104,7.37725988079071,2.4999998807907104,7.4999998807907104Q2.4999998807907104,7.622739880790711,2.5060198807907104,7.74533988079071Q2.5120498807907103,7.867929880790711,2.5240798807907106,7.99007988079071Q2.5361098807907103,8.11223988079071,2.5541198807907106,8.233649880790711Q2.5721298807907105,8.355069880790712,2.5960698807907105,8.47544988079071Q2.6200198807907107,8.59582988079071,2.6498398807907106,8.71489988079071Q2.6796698807907102,8.833959880790712,2.7152998807907105,8.95141988079071Q2.7509298807907108,9.06887988079071,2.7922798807907103,9.18444988079071Q2.8336298807907108,9.30000988079071,2.8805998807907107,9.41340988079071Q2.9275698807907107,9.52680988079071,2.9800498807907108,9.63776988079071Q3.0325298807907104,9.74872988079071,3.0903898807907106,9.85697988079071Q3.1482498807907104,9.96522988079071,3.2113598807907104,10.070509880790711Q3.2744598807907104,10.17578988079071,3.3426498807907103,10.277849880790711Q3.4108398807907108,10.379909880790711,3.48395988079071,10.478489880790711Q3.5570798807907105,10.577079880790711,3.6349498807907104,10.67195988079071Q3.7128098807907106,10.76684988079071,3.7952398807907106,10.85778988079071Q3.8776698807907106,10.948739880790711,3.9644698807907104,11.03552988079071Q4.0512598807907105,11.12231988079071,4.14219988079071,11.204749880790711Q4.233149880790711,11.28717988079071,4.3280298807907105,11.36504988079071Q4.42290988079071,11.442919880790711,4.52149988079071,11.51599988079071Q4.62008988079071,11.58919988079071,4.7221498807907105,11.65729988079071Q4.82419988079071,11.72549988079071,4.92948988079071,11.788599880790711Q5.03476988079071,11.85169988079071,5.14301988079071,11.90959988079071Q5.251259880790711,11.96749988079071,5.362219880790711,12.01989988079071Q5.473179880790711,12.07239988079071,5.58657988079071,12.119399880790711Q5.6999798807907105,12.16639988079071,5.8155498807907104,12.207699880790711Q5.93111988079071,12.24909988079071,6.048579880790711,12.284699880790711Q6.166029880790711,12.32029988079071,6.28509988079071,12.35019988079071Q6.4041598807907105,12.379999880790711,6.52454988079071,12.40389988079071Q6.64492988079071,12.42789988079071,6.7663498807907105,12.44589988079071Q6.8877598807907106,12.463899880790711,7.00990988079071,12.47589988079071Q7.13206988079071,12.48799988079071,7.254659880790711,12.49399988079071Q7.37725988079071,12.49999988079071,7.4999998807907104,12.49999988079071Q7.622739880790711,12.49999988079071,7.74533988079071,12.49399988079071Q7.867929880790711,12.48799988079071,7.99007988079071,12.47589988079071Q8.11223988079071,12.463899880790711,8.233649880790711,12.44589988079071Q8.355069880790712,12.42789988079071,8.47544988079071,12.40389988079071Q8.59582988079071,12.379999880790711,8.71489988079071,12.35019988079071Q8.833959880790712,12.32029988079071,8.95141988079071,12.284699880790711Q9.06887988079071,12.24909988079071,9.18444988079071,12.207699880790711Q9.30000988079071,12.16639988079071,9.41340988079071,12.119399880790711Q9.52680988079071,12.07239988079071,9.63776988079071,12.01989988079071Q9.74872988079071,11.96749988079071,9.85697988079071,11.90959988079071Q9.96522988079071,11.85169988079071,10.070509880790711,11.788599880790711Q10.17578988079071,11.72549988079071,10.277849880790711,11.65729988079071Q10.37989988079071,11.58919988079071,10.478489880790711,11.51599988079071Q10.577079880790711,11.442919880790711,10.67195988079071,11.36504988079071Q10.76683988079071,11.28717988079071,10.85778988079071,11.204749880790711Q10.948739880790711,11.12231988079071,11.03552988079071,11.03552988079071Q11.12231988079071,10.948739880790711,11.204749880790711,10.85778988079071Q11.28717988079071,10.76684988079071,11.36504988079071,10.67195988079071Q11.442919880790711,10.577079880790711,11.51599988079071,10.478489880790711Q11.58919988079071,10.379909880790711,11.65729988079071,10.277849880790711Q11.72549988079071,10.17578988079071,11.788599880790711,10.070509880790711Q11.85169988079071,9.96522988079071,11.90959988079071,9.85697988079071Q11.96749988079071,9.74872988079071,12.01989988079071,9.63776988079071Q12.07239988079071,9.52680988079071,12.119399880790711,9.41340988079071Q12.16639988079071,9.30000988079071,12.207699880790711,9.18444988079071Q12.24909988079071,9.06887988079071,12.284699880790711,8.95141988079071Q12.32029988079071,8.833959880790712,12.35019988079071,8.71489988079071Q12.379999880790711,8.59582988079071,12.40389988079071,8.47544988079071Q12.42789988079071,8.355069880790712,12.44589988079071,8.233649880790711Q12.463899880790711,8.11223988079071,12.47589988079071,7.99007988079071Q12.48799988079071,7.867929880790711,12.49399988079071,7.74533988079071Q12.49999988079071,7.622739880790711,12.49999988079071,7.4999998807907104Z" fill="#59768F" fill-opacity="1"/></g><g transform="matrix(0.8289305567741394,0.5593514442443848,-0.5593514442443848,0.8289305567741394,9.005332736583135,-5.074383803596312)"><path d="M12.86795596804657,11.69016131804657L15.61774056804657,12.07525231804657Q15.66216056804657,12.08147431804657,15.70477056804657,12.09550411804657Q15.74738056804657,12.10953421804657,15.786810568046569,12.13092471804657Q15.82624056804657,12.152315218046569,15.86124056804657,12.18038290804657Q15.896230568046569,12.20845061804657,15.92567056804657,12.24229901804657Q15.95511056804657,12.27614741804657,15.97805056804657,12.314695318046569Q16.000990568046568,12.35324331804657,16.01671056804657,12.39525931804657Q16.032420568046568,12.43727631804657,16.04041056804657,12.48141831804657Q16.04839056804657,12.52556131804657,16.04839056804657,12.570420318046569Q16.04839056804657,12.61966631804657,16.03878056804657,12.66796531804657Q16.02918056804657,12.71626531804657,16.01033056804657,12.76176231804657Q15.99149056804657,12.80725931804657,15.96413056804657,12.84820531804657Q15.936770568046569,12.88915131804657,15.90195056804657,12.92397331804657Q15.86712056804657,12.958795318046569,15.82618056804657,12.98615531804657Q15.78523056804657,13.01351431804657,15.73973056804657,13.03236031804657Q15.69424056804657,13.05120531804657,15.64594056804657,13.06081331804657Q15.59764056804657,13.070420318046569,15.54839056804657,13.070420318046569Q15.51355056804657,13.070420318046569,15.47905056804657,13.06558831804657L12.72926516804657,12.68049731804657Q12.68483956804657,12.67427531804657,12.64223056804657,12.66024531804657Q12.59962256804657,12.64621531804657,12.56019156804657,12.62482531804657Q12.520760568046569,12.60343431804657,12.485767568046569,12.57536731804657Q12.45077456804657,12.54729931804657,12.421335568046569,12.51345031804657Q12.39189756804657,12.47960231804657,12.36895356804657,12.44105431804657Q12.34601056804657,12.40250631804657,12.33029556804657,12.360490318046569Q12.31458056804657,12.31847331804657,12.30659556804657,12.27433101804657Q12.29861056804657,12.23018841804657,12.29861056804657,12.18532931804657Q12.29861056804657,12.13608361804657,12.30821756804657,12.08778421804657Q12.317825568046569,12.03948431804657,12.33667056804657,11.99398731804657Q12.35551656804657,11.94849031804657,12.38287556804657,11.90754431804657Q12.41023556804657,11.86659831804657,12.44505756804657,11.83177631804657Q12.47987956804657,11.79695431804657,12.52082556804657,11.76959431804657Q12.56177156804657,11.74223531804657,12.60726856804657,11.72338931804657Q12.65276556804657,11.704544318046569,12.70106546804657,11.69493631804657Q12.74936486804657,11.68532931804657,12.79861056804657,11.68532931804657Q12.83345156804657,11.68532931804657,12.86795596804657,11.69016131804657Z" fill-rule="evenodd" fill="#59768F" fill-opacity="1"/></g></g></g></svg>