<svg xmlns="http://www.w3.org/2000/svg" xmlns:xlink="http://www.w3.org/1999/xlink" fill="none" version="1.1" width="80" height="80" viewBox="0 0 80 80"><defs><filter id="master_svg0_182_32842" filterUnits="objectBoundingBox" color-interpolation-filters="sRGB" x="0" y="0" width="1" height="1"><feFlood flood-opacity="0" result="BackgroundImageFix"/><feBlend mode="normal" in="SourceGraphic" in2="BackgroundImageFix" result="shape"/><feColorMatrix in="SourceAlpha" type="matrix" result="hardAlpha" values="0 0 0 0 0 0 0 0 0 0 0 0 0 0 0 0 0 0 127 0"/><feOffset dy="0" dx="0"/><feGaussianBlur stdDeviation="1"/><feComposite in2="hardAlpha" operator="arithmetic" k2="-1" k3="1"/><feColorMatrix type="matrix" values="0 0 0 0 1 0 0 0 0 1 0 0 0 0 1 0 0 0 1 0"/><feBlend mode="normal" in2="shape" result="effect1_innerShadow"/><feGaussianBlur in="BackgroundImageFix" stdDeviation="2"/><feComposite in2="SourceAlpha" operator="in" result="effect2_foregroundBlur"/><feBlend mode="normal" in="SourceGraphic" in2="effect2_foregroundBlur" result="shape"/></filter><filter id="master_svg1_182_32872" filterUnits="objectBoundingBox" color-interpolation-filters="sRGB" x="0" y="0" width="1" height="1"><feFlood flood-opacity="0" result="BackgroundImageFix"/><feBlend mode="normal" in="SourceGraphic" in2="BackgroundImageFix" result="shape"/><feColorMatrix in="SourceAlpha" type="matrix" result="hardAlpha" values="0 0 0 0 0 0 0 0 0 0 0 0 0 0 0 0 0 0 127 0"/><feOffset dy="0" dx="0"/><feGaussianBlur stdDeviation="1"/><feComposite in2="hardAlpha" operator="arithmetic" k2="-1" k3="1"/><feColorMatrix type="matrix" values="0 0 0 0 1 0 0 0 0 1 0 0 0 0 1 0 0 0 0.30000001192092896 0"/><feBlend mode="normal" in2="shape" result="effect1_innerShadow"/><feGaussianBlur in="BackgroundImageFix" stdDeviation="2"/><feComposite in2="SourceAlpha" operator="in" result="effect2_foregroundBlur"/><feBlend mode="normal" in="SourceGraphic" in2="effect2_foregroundBlur" result="shape"/></filter><filter id="master_svg2_182_32844" filterUnits="objectBoundingBox" color-interpolation-filters="sRGB" x="0" y="0" width="1" height="1"><feFlood flood-opacity="0" result="BackgroundImageFix"/><feBlend mode="normal" in="SourceGraphic" in2="BackgroundImageFix" result="shape"/><feColorMatrix in="SourceAlpha" type="matrix" result="hardAlpha" values="0 0 0 0 0 0 0 0 0 0 0 0 0 0 0 0 0 0 127 0"/><feOffset dy="0" dx="0"/><feGaussianBlur stdDeviation="0.5"/><feComposite in2="hardAlpha" operator="arithmetic" k2="-1" k3="1"/><feColorMatrix type="matrix" values="0 0 0 0 0.9469026327133179 0 0 0 0 0.9698514938354492 0 0 0 0 1 0 0 0 1 0"/><feBlend mode="normal" in2="shape" result="effect1_innerShadow"/></filter><filter id="master_svg3_182_32989" filterUnits="objectBoundingBox" color-interpolation-filters="sRGB" x="0" y="0" width="1" height="1"><feFlood flood-opacity="0" result="BackgroundImageFix"/><feBlend mode="normal" in="SourceGraphic" in2="BackgroundImageFix" result="shape"/><feColorMatrix in="SourceAlpha" type="matrix" result="hardAlpha" values="0 0 0 0 0 0 0 0 0 0 0 0 0 0 0 0 0 0 127 0"/><feOffset dy="0" dx="0"/><feGaussianBlur stdDeviation="0.5"/><feComposite in2="hardAlpha" operator="arithmetic" k2="-1" k3="1"/><feColorMatrix type="matrix" values="0 0 0 0 0.9469026327133179 0 0 0 0 0.9698514938354492 0 0 0 0 1 0 0 0 1 0"/><feBlend mode="normal" in2="shape" result="effect1_innerShadow"/></filter><filter id="master_svg4_182_32861" filterUnits="objectBoundingBox" color-interpolation-filters="sRGB" x="0" y="0" width="1" height="1"><feFlood flood-opacity="0" result="BackgroundImageFix"/><feBlend mode="normal" in="SourceGraphic" in2="BackgroundImageFix" result="shape"/><feColorMatrix in="SourceAlpha" type="matrix" result="hardAlpha" values="0 0 0 0 0 0 0 0 0 0 0 0 0 0 0 0 0 0 127 0"/><feOffset dy="0" dx="0"/><feGaussianBlur stdDeviation="0.5"/><feComposite in2="hardAlpha" operator="arithmetic" k2="-1" k3="1"/><feColorMatrix type="matrix" values="0 0 0 0 0.9469026327133179 0 0 0 0 0.9698514938354492 0 0 0 0 1 0 0 0 1 0"/><feBlend mode="normal" in2="shape" result="effect1_innerShadow"/></filter><filter id="master_svg5_182_32862" filterUnits="objectBoundingBox" color-interpolation-filters="sRGB" x="0" y="0" width="1" height="1"><feFlood flood-opacity="0" result="BackgroundImageFix"/><feBlend mode="normal" in="SourceGraphic" in2="BackgroundImageFix" result="shape"/><feColorMatrix in="SourceAlpha" type="matrix" result="hardAlpha" values="0 0 0 0 0 0 0 0 0 0 0 0 0 0 0 0 0 0 127 0"/><feOffset dy="0" dx="0"/><feGaussianBlur stdDeviation="0.5"/><feComposite in2="hardAlpha" operator="arithmetic" k2="-1" k3="1"/><feColorMatrix type="matrix" values="0 0 0 0 0.9469026327133179 0 0 0 0 0.9698514938354492 0 0 0 0 1 0 0 0 1 0"/><feBlend mode="normal" in2="shape" result="effect1_innerShadow"/></filter></defs><g><g></g><g><g><rect x="8" y="5" width="52.70588302612305" height="60" rx="8" fill="#FFA846" fill-opacity="1"/></g><g filter="url(#master_svg0_182_32842)"><path d="M16.784314155578613,20.5L16.784314155578613,62C16.784314155578613,66.4183,20.366034155578614,70,24.784314155578613,70L56.470614155578616,70C60.88891415557861,70,64.47061415557862,66.4183,64.47061415557862,62L64.47061415557862,20.5C64.47061415557862,16.08172,60.88891415557861,12.5,56.470614155578616,12.5L24.784314155578613,12.5C20.366034155578614,12.5,16.784314155578613,16.08172,16.784314155578613,20.5Z" fill="#FFFFFF" fill-opacity="0.10000000149011612"/><path d="M16.784314155578613,20.5L16.784314155578613,62C16.784314155578613,66.4183,20.366034155578614,70,24.784314155578613,70L56.470614155578616,70C60.88891415557861,70,64.47061415557862,66.4183,64.47061415557862,62L64.47061415557862,20.5C64.47061415557862,16.08172,60.88891415557861,12.5,56.470614155578616,12.5L24.784314155578613,12.5C20.366034155578614,12.5,16.784314155578613,16.08172,16.784314155578613,20.5ZM17.284314155578613,20.5L17.284314155578613,62Q17.284314155578613,65.1066,19.481014155578613,67.30330000000001Q21.677724155578613,69.5,24.784314155578613,69.5L56.470614155578616,69.5Q59.577214155578616,69.5,61.773914155578616,67.30330000000001Q63.970614155578616,65.1066,63.970614155578616,62L63.970614155578616,20.5Q63.970614155578616,17.39341,61.773914155578616,15.1967Q59.577214155578616,13,56.470614155578616,13.000001L24.784314155578613,13Q21.677714155578613,13,19.481014155578613,15.1967Q17.284314155578613,17.3934,17.284314155578613,20.5Z" fill-rule="evenodd" fill="#FFFFFF" fill-opacity="0.5"/></g><g filter="url(#master_svg1_182_32872)"><ellipse cx="59.450982093811035" cy="62.5" rx="12.549019813537598" ry="12.5" fill="#FFFFFF" fill-opacity="0.10000000149011612"/><ellipse cx="59.450982093811035" cy="62.5" rx="12.299019813537598" ry="12.25" fill-opacity="0" stroke-opacity="0.5" stroke="#FFFFFF" fill="none" stroke-width="0.5"/></g><g filter="url(#master_svg2_182_32844)"><rect x="25.568628311157227" y="22.5" width="12.549019813537598" height="3.75" rx="1.875" fill="#FFFFFF" fill-opacity="1"/></g><g filter="url(#master_svg3_182_32989)"><path d="M58.81617736816406,65Q58.724067368164064,65,58.632397368164064,64.99097Q58.54072736816406,64.98194,58.450387368164066,64.96397Q58.360037368164065,64.946,58.27189736816406,64.91926Q58.18374736816406,64.89252,58.098647368164066,64.85727Q58.01354736816406,64.82202,57.932308368164065,64.7786Q57.85107236816406,64.73518,57.77448336816406,64.684Q57.697894368164064,64.63283,57.62669036816406,64.57439Q57.555485368164064,64.51596,57.49035236816406,64.45082Q57.42521836816406,64.38569,57.36678236816406,64.31449Q57.308347368164064,64.24328,57.257171368164066,64.16669Q57.205996368164065,64.0901,57.16257536816406,64.00887Q57.11915336816406,63.92763,57.083903368164066,63.84253Q57.04865336816406,63.75743,57.02191426816406,63.66928Q56.99517526816406,63.58114,56.97720496816406,63.49079Q56.959234668164065,63.40045,56.95020600816406,63.30878Q56.94117736816406,63.21711,56.94117736816406,63.125L56.94118096539406,63.12133L56.94117736816406,63.11765L56.94117736816406,58.13235Q56.94117736816406,58.03988,56.95024140816406,57.94785Q56.95930546816406,57.85582,56.97734626816406,57.76512Q56.995387068164064,57.67443,57.022230868164065,57.58593Q57.049074368164064,57.49744,57.084463368164066,57.41201Q57.11985136816406,57.32657,57.16344336816406,57.245018Q57.207035368164064,57.163463,57.25841136816406,57.086574Q57.30978736816406,57.009684,57.36845136816406,56.938201Q57.427116368164064,56.866717,57.49250536816406,56.801328Q57.557894368164064,56.735939,57.62937836816406,56.677274Q57.70086136816406,56.618609,57.77775136816406,56.567234Q57.85464036816406,56.515858,57.936195368164064,56.472266Q58.01774736816406,56.428674,58.103187368164065,56.393286Q58.18861736816406,56.357897,58.27710736816406,56.3310535Q58.36560736816406,56.3042097,58.456297368164066,56.2861689Q58.546997368164064,56.2681281,58.639027368164065,56.25906404Q58.73105736816406,56.25,58.823527368164065,56.25Q58.91600736816406,56.25,59.00803736816406,56.25906404Q59.10005736816406,56.2681281,59.190757368164064,56.2861689Q59.28145736816406,56.3042097,59.36994736816406,56.3310535Q59.45843736816406,56.357897,59.54387736816406,56.393286Q59.62930736816406,56.428674,59.71086736816406,56.472266Q59.79241736816406,56.515858,59.869307368164066,56.567234Q59.946197368164064,56.618609,60.017677368164065,56.677274Q60.08916736816406,56.735939,60.15455736816406,56.801328Q60.219947368164064,56.866717,60.27860736816406,56.938201Q60.33727736816406,57.009684,60.388647368164065,57.086574Q60.44002736816406,57.163463,60.48361736816406,57.245018Q60.52720736816406,57.32657,60.56259736816406,57.41201Q60.59798736816406,57.49744,60.62482736816406,57.58593Q60.651677368164066,57.67443,60.669717368164065,57.76512Q60.687757368164064,57.85582,60.69681736816406,57.94785Q60.70588736816406,58.03988,60.70588736816406,58.13235L60.70588736816406,61.25L63.85048736816406,61.25Q63.94260736816406,61.25,64.03427736816406,61.25903Q64.12594736816406,61.26806,64.21628736816406,61.28603Q64.30662736816406,61.304,64.39477736816406,61.33074Q64.48291736816407,61.35748,64.56801736816406,61.39273Q64.65312736816406,61.42798,64.73435736816407,61.4714Q64.81559736816406,61.51482,64.89218736816406,61.56599Q64.96877736816407,61.61717,65.03997736816406,61.6756Q65.11118736816407,61.73404,65.17631736816406,61.799170000000004Q65.24144736816406,61.86431,65.29988736816406,61.93551Q65.35831736816407,62.00672,65.40949736816407,62.08331Q65.46066736816407,62.15989,65.50409736816407,62.24113Q65.54751736816407,62.32237,65.58276736816407,62.40747Q65.61801736816406,62.49257,65.64475736816406,62.58072Q65.67149736816407,62.66886,65.68946736816406,62.7592Q65.70743736816407,62.84955,65.71646736816406,62.94122Q65.72548736816407,63.03289,65.72548736816407,63.125Q65.72548736816407,63.21711,65.71645736816406,63.30878Q65.70743736816407,63.40045,65.68946736816406,63.49079Q65.67149736816407,63.58114,65.64475736816406,63.66928Q65.61801736816406,63.75743,65.58276736816407,63.84253Q65.54751736816407,63.92763,65.50409736816407,64.00887Q65.46066736816407,64.0901,65.40949736816407,64.16669Q65.35831736816407,64.24328,65.29988736816406,64.31449Q65.24144736816406,64.38569,65.17631736816406,64.45082Q65.11118736816407,64.51596,65.03997736816406,64.57439Q64.96877736816407,64.63283,64.89218736816406,64.684Q64.81559736816406,64.73518,64.73435736816407,64.7786Q64.65312736816406,64.82202,64.56801736816406,64.85727Q64.48291736816407,64.89252,64.39477736816406,64.91926Q64.30662736816406,64.946,64.21628736816406,64.96397Q64.12594736816406,64.98194,64.03427736816406,64.99097Q63.94260736816406,65,63.85048736816406,65L58.81617736816406,65Z" fill-rule="evenodd" fill="#FFFFFF" fill-opacity="1"/></g><g filter="url(#master_svg4_182_32861)"><rect x="25.568628311157227" y="31.25" width="21.33333396911621" height="3.75" rx="1.875" fill="#FFFFFF" fill-opacity="1"/></g><g filter="url(#master_svg5_182_32862)"><rect x="25.568628311157227" y="40" width="28.86274528503418" height="3.75" rx="1.875" fill="#FFFFFF" fill-opacity="1"/></g></g></g></svg>