<svg xmlns="http://www.w3.org/2000/svg" xmlns:xlink="http://www.w3.org/1999/xlink" fill="none" version="1.1" width="44" height="44" viewBox="0 0 44 44"><g><g></g><g><path d="M40.593957074737546,37.531457074737546C37.96215707473755,33.099957074737546,30.632557074737548,29.71425707473755,21.999957074737548,29.71425707473755C13.36735707473755,29.71425707473755,6.037707074737549,33.20285707473755,3.4059080747375488,37.63425707473755C2.617225074737549,38.95425707473755,3.697377074737549,40.85715707473755,5.3776170747375485,40.85715707473755C5.3776170747375485,40.85715707473755,38.63085707473755,40.85715707473755,38.63085707473755,40.85715707473755C40.30255707473755,40.85715707473755,41.38265707473755,38.85995707473755,40.593957074737546,37.531457074737546ZM21.999957074737548,28.85715707473755C29.09805707473755,28.85715707473755,34.85885707473755,23.09715707473755,34.85885707473755,15.99995707473755C34.85885707473755,8.902857074737549,29.09805707473755,3.142857074737549,21.999957074737548,3.142857074737549C14.90185707473755,3.142857074737549,9.140997074737548,8.902857074737549,9.140997074737548,15.99995707473755C9.140997074737548,23.09715707473755,14.90185707473755,28.85715707473755,21.999957074737548,28.85715707473755ZM16.79635707473755,18.38285707473755C17.345057074737547,18.245757074737547,17.93655707473755,18.45995707473755,18.210857074737547,18.94855707473755C18.93955707473755,20.251457074737548,20.32825707473755,21.14285707473755,21.931357074737548,21.14285707473755C23.525857074737548,21.14285707473755,24.90605707473755,20.25995707473755,25.643357074737548,18.96575707473755C25.917657074737548,18.477157074737548,26.51775707473755,18.262857074737546,27.06635707473755,18.40855707473755C27.872257074737547,18.62285707473755,28.30085707473755,19.539957074737547,27.88935707473755,20.268557074737547C26.70635707473755,22.33425707473755,24.48605707473755,23.722857074737547,21.93995707473755,23.722857074737547C19.38525707473755,23.722857074737547,17.15645707473755,22.32575707473755,15.981957074737549,20.24285707473755C15.55335707473755,19.51425707473755,15.981957074737549,18.58855707473755,16.79635707473755,18.38285707473755C16.79635707473755,18.38285707473755,16.79635707473755,18.38285707473755,16.79635707473755,18.38285707473755Z" fill="#0066EC" fill-opacity="1"/></g></g></svg>