<svg xmlns="http://www.w3.org/2000/svg" xmlns:xlink="http://www.w3.org/1999/xlink" fill="none" version="1.1" width="44" height="44" viewBox="0 0 44 44"><defs><clipPath id="master_svg0_178_78598"><rect x="0" y="0" width="44" height="44" rx="0"/></clipPath></defs><g clip-path="url(#master_svg0_178_78598)"><g><path d="M30.865778125,18.043097656249998C37.419378125,18.043097656249998,42.732078125,23.35579765625,42.732078125,29.90929765625C42.732078125,36.46289765625,37.419378125,41.77559765625,30.865778125,41.77559765625C24.312278125,41.77559765625,18.999578125,36.46289765625,18.999578125,29.90929765625C18.999578125,23.35579765625,24.312278125,18.043097656249998,30.865778125,18.043097656249998ZM23.663578125,2.22509765625C25.814078125,2.22509765625,27.560278125,3.94109765625,27.618078125,6.07509765625L32.760578124999995,6.07509765625C34.279378125,6.07509765625,35.510578125,7.30631765625,35.510578125,8.82509765625L35.513278125,16.739597656249998C29.487478125,14.41329765625,22.654478125,16.585597656250002,19.078178125,21.96449765625C15.501978125,27.34339765625,16.142678125,34.48469765625,20.619278125,39.14109765625L4.017578125,39.13829765625C2.498798125,39.13829765625,1.267578125,37.90709765625,1.267578125,36.38829765625L1.267578125,8.82784765625C1.267577961087,7.30906765625,2.498798125,6.07784765625,4.017578125,6.07784765625L9.165578125,6.07784765625L9.179328125,5.80009765625C9.371828125,3.79259765625,11.060328125,2.22509765625,13.117278125,2.22509765625L23.663578125,2.22509765625ZM27.601578125,30.77559765625L24.802078125,30.77559765625C24.662478125,30.77929765625,24.539778125,30.86919765625,24.494078125,31.00109765625L24.477578125,31.10279765625L24.477578125,35.98129765625C24.477578125,36.11879765625,24.573778125,36.24529765625,24.703078125,36.28929765625L24.802078125,36.30579765625L27.601578125,36.30579765625C27.739078125,36.30579765625,27.865578125,36.20959765625,27.909578125,36.08309765625L27.926078125,35.98129765625L27.926078125,31.10279765625C27.923178125,30.92439765625,27.779978125,30.77999765625,27.601578125,30.77559765625ZM32.243578125,23.51009765625L29.356078125,23.51009765625C29.217478125,23.51499765625,29.096178125,23.60459765625,29.050778125,23.73559765625L29.031578125,23.83729765625L29.031578125,35.91809765625C29.031578125,36.05559765625,29.130578125,36.17929765625,29.257078125,36.22609765625L29.358778125,36.24259765625L32.243578125,36.24259765625C32.381078125,36.24259765625,32.504778125,36.14359765625,32.551578125,36.01709765625L32.568078125,35.91809765625L32.568078125,23.83729765625C32.565178125,23.65889765625,32.421978124999995,23.51449765625,32.243578125,23.51009765625ZM36.926778125,27.73959765625L34.171278125,27.73959765625C34.031778125,27.74329765625,33.909078125,27.83319765625,33.863278125,27.96509765625L33.846778125,28.06409765625L33.846778125,35.91809765625C33.846778125,36.05559765625,33.943078125,36.17929765625,34.072278125,36.22609765625L34.171278125,36.24259765625L36.904778125,36.24259765625C37.036678125,36.23759765625,37.155078125,36.16049765625,37.212878125,36.04179765625L37.251278125,35.91809765625L37.251278125,28.06409765625C37.246978125,27.88669765625,37.104178125,27.74389765625,36.926778125,27.73959765625ZM15.058778125,19.45109765625L6.525578125,19.45109765625C5.849328125,19.45999765625,5.289178125,19.97849765625,5.228268125,20.65209765625C5.167358125,21.32569765625,5.625388125,21.93629765625,6.289078125,22.06629765625L6.525578125,22.08839765625L15.058778125,22.08839765625C15.763678125,22.05619765625,16.318578125000002,21.47529765625,16.318578125000002,20.76969765625C16.318578125000002,20.06409765625,15.763678125,19.48329765625,15.058778125,19.45109765625ZM21.823778125,12.77129765625L6.525578125,12.77129765625C5.849328125,12.78019765625,5.289188125,13.29879765625,5.228278125,13.97239765625C5.167368124999999,14.64589765625,5.625388125,15.25649765625,6.289078125,15.38659765625L6.525578125,15.40859765625L21.823778125,15.40859765625C22.528678125,15.37639765625,23.083578125,14.79559765625,23.083578125,14.08999765625C23.083578125,13.38439765625,22.528678125,12.80349765625,21.823778125,12.77129765625ZM21.741278125,4.86234765625L15.039578125,4.86234765625C14.363278125,4.871227656249999,13.803178125,5.38978765625,13.742278125,6.06334765625C13.681378125,6.73690765625,14.139378125,7.34754765625,14.803078125,7.47759765625L15.039578125,7.49959765625L21.741278125,7.49959765625C22.493178125,7.53393765625,23.121578125,6.93362765625,23.121578125,6.18096765625C23.121578125,5.42831765625,22.493178125,4.82800765625,21.741278125,4.86234765625Z" fill="#0066EC" fill-opacity="1" style="mix-blend-mode:passthrough"/></g></g></svg>