<svg xmlns="http://www.w3.org/2000/svg" xmlns:xlink="http://www.w3.org/1999/xlink" fill="none" version="1.1" width="44" height="44" viewBox="0 0 44 44"><g><g></g><g><path d="M42.25239101715088,22.427691973876954Q42.30429101715088,22.479991973876952,42.34799101715088,22.539291973876953Q42.391691017150876,22.598591973876953,42.42619101715088,22.663591973876954Q42.46079101715088,22.728691973876952,42.48539101715088,22.798091973876954Q42.50999101715088,22.86749197387695,42.524191017150876,22.939791973876954Q42.53839101715088,23.012091973876952,42.54189101715088,23.085691973876955Q42.54529101715088,23.159291973876954,42.537891017150876,23.232491973876954Q42.530591017150876,23.305791973876953,42.51249101715088,23.377291973876954Q42.49449101715088,23.448691973876954,42.46619101715088,23.516691973876952Q42.43789101715088,23.584691973876954,42.39989101715088,23.647791973876952Q42.36199101715088,23.710891973876954,42.31519101715088,23.767791973876953Q42.268391017150876,23.824691973876952,42.21369101715088,23.874091973876954Q42.15909101715088,23.923491973876953,42.09779101715088,23.964391973876953Q42.03649101715088,24.005291973876954,41.96989101715088,24.036691973876952Q41.90329101715088,24.068191973876953,41.83279101715088,24.089491973876953Q41.76229101715088,24.110891973876953,41.68949101715088,24.121691973876953Q41.61659101715088,24.132391973876953,41.54299101715088,24.132391973876953L37.34089101715088,24.132391973876953L37.34089101715088,38.96919197387695Q37.34089101715088,39.06739197387695,37.33129101715088,39.16519197387695Q37.321691017150876,39.26299197387695,37.30249101715088,39.35939197387695Q37.28329101715088,39.45569197387695,37.25479101715088,39.54979197387695Q37.22629101715088,39.64379197387695,37.18869101715088,39.73459197387695Q37.151091017150875,39.82529197387695,37.10479101715088,39.91199197387695Q37.05849101715088,39.998591973876955,37.00389101715088,40.08029197387695Q36.94929101715088,40.16199197387695,36.886991017150876,40.23799197387695Q36.82459101715088,40.313891973876956,36.75509101715088,40.383391973876954Q36.68569101715088,40.45289197387695,36.60969101715088,40.51519197387695Q36.53379101715088,40.57749197387695,36.45209101715088,40.63209197387695Q36.37039101715088,40.686691973876954,36.28369101715088,40.732991973876956Q36.19709101715088,40.77929197387695,36.10629101715088,40.816891973876956Q36.01549101715088,40.85459197387695,35.92149101715088,40.88309197387695Q35.82749101715088,40.91159197387695,35.73109101715088,40.93079197387695Q35.63469101715088,40.94989197387695,35.53699101715088,40.959591973876954Q35.439191017150875,40.96919197387695,35.34089101715088,40.96919197387695L29.64299101715088,40.96919197387695L29.64299101715088,29.713991973876954Q29.64299101715088,28.057191973876954,28.47139101715088,26.885591973876952Q27.29979101715088,25.713991973876954,25.64299101715088,25.713991973876954L19.25769101715088,25.713991973876954Q17.60089101715088,25.713991973876954,16.42929101715088,26.885591973876952Q15.25769101715088,28.057191973876954,15.25769101715088,29.713991973876954L15.25769101715088,40.96919197387695L9.544811017150879,40.96919197387695Q9.446561017150879,40.96919197387695,9.348781017150879,40.959591973876954Q9.251001017150879,40.94989197387695,9.15463101715088,40.93079197387695Q9.05827101715088,40.91159197387695,8.96424101715088,40.88309197387695Q8.870221017150879,40.85459197387695,8.77945101715088,40.816891973876956Q8.68867101715088,40.77929197387695,8.602021017150879,40.732991973876956Q8.51537101715088,40.686691973876954,8.433671017150878,40.63209197387695Q8.35198101715088,40.57749197387695,8.276031017150878,40.51519197387695Q8.200081017150879,40.45289197387695,8.130601017150878,40.383391973876954Q8.061131017150878,40.313891973876956,7.998791017150879,40.23799197387695Q7.9364610171508785,40.16199197387695,7.881871017150879,40.08029197387695Q7.827291017150879,39.998591973876955,7.780971017150879,39.91199197387695Q7.734661017150879,39.82529197387695,7.697051017150879,39.73459197387695Q7.659461017150879,39.64379197387695,7.630931017150879,39.54979197387695Q7.602411017150879,39.45569197387695,7.583241017150879,39.35939197387695Q7.564081017150879,39.26299197387695,7.554451017150879,39.16519197387695Q7.544811017150879,39.06739197387695,7.544811017150879,38.96919197387695L7.544811017150879,24.132391973876953L3.341635017150879,24.132391973876953Q3.267975017150879,24.132391973876953,3.1951110171508788,24.121691973876953Q3.1222470171508787,24.110891973876953,3.051750017150879,24.089491973876953Q2.981254017150879,24.068191973876953,2.914647017150879,24.036691973876952Q2.848040017150879,24.005291973876954,2.786760017150879,23.964391973876953Q2.7254810171508788,23.923491973876953,2.670851017150879,23.874091973876954Q2.616222017150879,23.824691973876952,2.569421017150879,23.767791973876953Q2.522621017150879,23.710891973876954,2.484660017150879,23.647791973876952Q2.446699017150879,23.584691973876954,2.418397017150879,23.516691973876952Q2.390095017150879,23.448691973876954,2.372062717150879,23.377291973876954Q2.354030517150879,23.305791973876953,2.346657367150879,23.232491973876954Q2.339284187150879,23.159291973876954,2.342729207150879,23.085691973876955Q2.346174227150879,23.012091973876952,2.3603631171508788,22.939791973876954Q2.374551917150879,22.86749197387695,2.399178317150879,22.798091973876954Q2.423804817150879,22.728691973876952,2.4583370171508787,22.663591973876954Q2.492870017150879,22.598591973876953,2.536563017150879,22.539291973876953Q2.580255017150879,22.479991973876952,2.6321660171508787,22.427691973876954L21.73279101715088,3.1987799738769533Q21.87359101715088,3.057040973876953,22.05809101715088,2.980278673876953Q22.24249101715088,2.903516623576953,22.44229101715088,2.903516623576953Q22.64209101715088,2.903516623576953,22.82649101715088,2.980278673876953Q23.01099101715088,3.057040973876953,23.151791017150877,3.1987799738769533L42.25239101715088,22.427691973876954ZM17.25769101715088,40.96919197387695L27.64299101715088,40.96919197387695L27.64299101715088,29.713991973876954Q27.64299101715088,28.885591973876952,27.057191017150878,28.299791973876953Q26.47139101715088,27.713991973876954,25.64299101715088,27.713991973876954L19.25769101715088,27.713991973876954Q18.429291017150877,27.713991973876954,17.84349101715088,28.299791973876953Q17.25769101715088,28.885591973876952,17.25769101715088,29.713991973876954L17.25769101715088,40.96919197387695Z" fill-rule="evenodd" fill="#707C8C" fill-opacity="1"/></g></g></svg>