<svg xmlns="http://www.w3.org/2000/svg" xmlns:xlink="http://www.w3.org/1999/xlink" fill="none" version="1.1" width="16" height="16" viewBox="0 0 16 16"><defs><clipPath id="master_svg0_178_88513"><rect x="0" y="0" width="16" height="16" rx="0"/></clipPath></defs><g clip-path="url(#master_svg0_178_88513)"><g><path d="M8.485828125000001,9.84904L8.485828125000001,5.55727C8.485828125000001,5.29636,8.273348125,5.08388,8.012428125,5.08388L7.974938125,5.08388C7.720278125,5.08388,7.515608125,5.29011,7.515608125,5.54321L7.515608125,9.84904C6.809428125,10.0537,6.292288125,10.6849,6.292288125,11.4379C6.292288125,12.3582,7.056278125,13.1034,8.001498125000001,13.1034C8.945158124999999,13.1034,9.709138124999999,12.3566,9.709138124999999,11.4379C9.707578125000001,10.6849,9.190438125,10.0553,8.485828125000001,9.84904ZM10.999638125,7.94766C10.893398125000001,7.86017,10.830908125,7.74143,10.830908125,7.61957L10.830908125,2.76692C10.830908125,1.2405,9.560718125000001,0,7.999938125,0C6.439148125,0,5.168958125,1.2405,5.168958125,2.76692L5.168958125,7.48208C5.168958125,7.68675,5.084598125,7.87579,4.9392981250000005,7.99922C3.915958125,8.8632,3.330078125,10.1178,3.330078125,11.4395C3.330078125,13.9533,5.425188125,16,8.001498125000001,16C10.577808125,16,12.672918125,13.9549,12.672918125,11.4395C12.671348125,10.0865,12.062038125,8.8132,10.999638125,7.94766ZM7.999938125,14.5517C6.234478125,14.5517,4.8002481249999995,13.155,4.8002481249999995,11.4379C4.8002481249999995,10.3677,5.359568125,9.38346,6.295418124999999,8.80695L6.521958124999999,8.6679C6.5953881249999995,8.6226,6.6406881250000005,8.54135,6.6406881250000005,8.45542L6.6406881250000005,2.76692C6.6406881250000005,2.03886,7.251568125,1.44673,8.001498125000001,1.44673C8.751418125,1.44673,9.362298124999999,2.03886,9.362298124999999,2.76692L9.362298124999999,8.45543C9.362298124999999,8.54135,9.407608125,8.6226,9.481038125000001,8.66791L9.707578125000001,8.80695C10.643428125,9.38346,11.201188125,10.3662,11.201188125,11.4379C11.199618125,13.155,9.763828125,14.5517,7.999938125,14.5517Z" fill="#F68844" fill-opacity="1" style="mix-blend-mode:passthrough"/></g></g></svg>