<svg xmlns="http://www.w3.org/2000/svg" xmlns:xlink="http://www.w3.org/1999/xlink" fill="none" version="1.1" width="16" height="16" viewBox="0 0 16 16"><defs><clipPath id="master_svg0_176_75814"><rect x="0" y="0" width="16" height="16" rx="0"/></clipPath></defs><g clip-path="url(#master_svg0_176_75814)"><g><path d="M7.8628800000000005,9.38678L7.8628800000000005,6.16795C7.8628800000000005,5.97227,7.70368,5.8129100000000005,7.50819,5.8129100000000005L7.4801,5.8129100000000005C7.2893,5.8129100000000005,7.135949999999999,5.96758,7.135949999999999,6.15741L7.135949999999999,9.38678C6.60686,9.54028,6.2194,10.01367,6.2194,10.57846C6.2194,11.26863,6.79181,11.82756,7.5,11.82756C8.20702,11.82756,8.77943,11.26746,8.77943,10.57846C8.77826,10.01367,8.390799999999999,9.541450000000001,7.8628800000000005,9.38678ZM9.74632,7.96075C9.66672,7.89513,9.619900000000001,7.80607,9.619900000000001,7.71468L9.619900000000001,4.07519C9.619900000000001,2.930378,8.668230000000001,2,7.49883,2C6.32943,2,5.37776,2.930378,5.37776,4.07519L5.37776,7.61156C5.37776,7.76506,5.3145500000000006,7.90685,5.20569,7.99941C4.438963,8.647400000000001,4,9.58832,4,10.57963C4,12.465,5.56973,14,7.5,14C9.43027,14,11,12.4662,11,10.57963C10.99883,9.56489,10.54231,8.6099,9.74632,7.96075ZM7.49883,12.9138C6.17609,12.9138,5.1015,11.86623,5.1015,10.57846C5.1015,9.7758,5.52057,9.03759,6.2217400000000005,8.60522L6.39147,8.50093C6.44649,8.46695,6.48043,8.40602,6.48043,8.34157L6.48043,4.07519C6.48043,3.52915,6.93813,3.08505,7.5,3.08505C8.061869999999999,3.08505,8.51957,3.52915,8.51957,4.07519L8.51957,8.34157C8.51957,8.40602,8.55351,8.46695,8.60853,8.50093L8.77826,8.60522C9.47943,9.037600000000001,9.89733,9.77463,9.89733,10.57846C9.896149999999999,11.86623,8.8204,12.9138,7.49883,12.9138Z" fill="#F68844" fill-opacity="1" style="mix-blend-mode:passthrough"/></g></g></svg>