<svg xmlns="http://www.w3.org/2000/svg" xmlns:xlink="http://www.w3.org/1999/xlink" fill="none" version="1.1" width="16" height="16" viewBox="0 0 16 16"><g><g></g><g><g></g><g><path d="M2.4114500000000003,1.46578C2.62594,1.1823239,3.03273,1.1356021,3.30551,1.363093C3.57891,1.586554,3.62358,1.9885549999999999,3.40592,2.26694L2.13145,3.88184C1.917014,4.16465,1.510999,4.21133,1.238358,3.98453C0.9649527,3.76107,0.9202923,3.35907,1.137945,3.0806899999999997L2.41242,1.46578L2.4114500000000003,1.46578ZM12.6922,1.363093C12.9646,1.1356906,13.3711,1.1824298,13.5853,1.46578L14.8597,3.0806899999999997C15.0807,3.35813,15.0357,3.76271,14.7593,3.98453C14.4867,4.212619999999999,14.0794,4.16585,13.8653,3.88184L12.5908,2.26694C12.3717,1.988766,12.417,1.585453,12.6922,1.363093ZM2.90869,8.32259C2.90869,5.46866,5.18922,3.1572199999999997,7.99884,3.1572199999999997C10.80847,3.1572199999999997,13.089,5.46866,13.089,8.32259C13.089,11.17653,10.8104,13.49185,7.99884,13.49185C5.18632,13.49185,2.90869,11.17653,2.90869,8.32259ZM7.99884,1.867812C4.4844,1.867812,1.634217,4.75953,1.634217,8.3255C1.634216,11.89245,4.48536,14.78125,7.99981,14.78125C11.5143,14.78125,14.3635,11.88855,14.3635,8.32259C14.3635,4.75759,11.5133,1.867812,7.99981,1.867812L7.99884,1.867812ZM8.63415,5.41731C8.634689999999999,5.06393,8.35102,4.7762899999999995,7.99884,4.77309C7.64933,4.77309,7.36354,5.06372,7.36354,5.41731L7.36354,8.01938L5.68356,9.44053C5.41421,9.67091,5.37775,10.07503,5.60149,10.35019C5.82452,10.62144,6.22714,10.66019,6.49844,10.43253L8.407250000000001,8.81762C8.55367,8.69406,8.63784,8.51165,8.637039999999999,8.31969L8.637039999999999,5.41731L8.63415,5.41731Z" fill="#0066EC" fill-opacity="1" style="mix-blend-mode:passthrough"/></g></g></g></svg>