<svg xmlns="http://www.w3.org/2000/svg" xmlns:xlink="http://www.w3.org/1999/xlink" fill="none" version="1.1" width="16" height="16" viewBox="0 0 16 16"><g transform="matrix(-1,0,0,1,32,0)"><g></g><g><g><path d="M23.945294094085693,11.200000071525574C25.712604094085695,11.200000071525574,27.145294094085692,9.767310071525575,27.145294094085692,8.000000071525573C27.145294094085692,6.232690071525574,25.712604094085695,4.800000071525574,23.945294094085693,4.800000071525574C22.177984094085694,4.800000071525574,20.745294094085693,6.232690071525574,20.745294094085693,8.000000071525573C20.745294094085693,9.767310071525575,22.177984094085694,11.200000071525574,23.945294094085693,11.200000071525574ZM23.945294094085693,9.800000071525574C22.951184094085693,9.800000071525574,22.145294094085692,8.994110071525574,22.145294094085692,8.000000071525573C22.145294094085692,7.005890071525574,22.951184094085693,6.200000071525574,23.945294094085693,6.200000071525574C24.939404094085695,6.200000071525574,25.745294094085693,7.005890071525574,25.745294094085693,8.000000071525573C25.745294094085693,8.994110071525574,24.939404094085695,9.800000071525574,23.945294094085693,9.800000071525574Z" fill-rule="evenodd" fill="#0066EC" fill-opacity="1"/></g><g><path d="M23.145318563685716,3.200000023841858L23.145318563685716,2.4000000238418577Q23.145318563685716,2.321207023841858,23.160688563685717,2.2439280238418577Q23.176058563685714,2.166649023841858,23.206208563685713,2.093853023841858Q23.236368563685716,2.021058023841858,23.280138563685714,1.955544023841858Q23.323918563685716,1.890030023841858,23.379628563685714,1.834315023841858Q23.435348563685714,1.7785990238418579,23.500858563685714,1.734824023841858Q23.566378563685717,1.691049223841858,23.639168563685715,1.660896423841858Q23.711968563685716,1.630743523841858,23.789248563685717,1.615371823841858Q23.866528563685716,1.600000023841858,23.945318563685717,1.600000023841858L23.945318563685717,1.600000023841858Q24.024108563685715,1.600000023841858,24.101388563685717,1.615371823841858Q24.178668563685715,1.630743523841858,24.251468563685716,1.660896423841858Q24.324258563685717,1.691049223841858,24.389768563685713,1.734824023841858Q24.455288563685716,1.7785990238418579,24.510998563685714,1.834315023841858Q24.566718563685715,1.890030023841858,24.610488563685713,1.955544023841858Q24.654268563685715,2.021058023841858,24.684418563685714,2.093853023841858Q24.714578563685716,2.166649023841858,24.729948563685717,2.2439280238418577Q24.745318563685714,2.321207023841858,24.745318563685714,2.4000000238418577L24.745318563685714,3.200000023841858Q24.745318563685714,3.278790023841858,24.729948563685717,3.356070023841858Q24.714578563685716,3.433350023841858,24.684418563685714,3.506150023841858Q24.654268563685715,3.5789400238418576,24.610488563685713,3.644460023841858Q24.566718563685715,3.709970023841858,24.510998563685714,3.765690023841858Q24.455288563685716,3.821400023841858,24.389768563685713,3.865180023841858Q24.324258563685717,3.9089500238418577,24.251468563685716,3.939100023841858Q24.178668563685715,3.969260023841858,24.101388563685717,3.984630023841858Q24.024108563685715,4.000000023841858,23.945318563685717,4.000000023841858L23.945318563685717,4.000000023841858Q23.866528563685716,4.000000023841858,23.789248563685717,3.984630023841858Q23.711968563685716,3.969260023841858,23.639168563685715,3.939100023841858Q23.566378563685717,3.9089500238418577,23.500858563685714,3.865180023841858Q23.435348563685714,3.821400023841858,23.379628563685714,3.765690023841858Q23.323918563685716,3.709970023841858,23.280138563685714,3.644460023841858Q23.236368563685716,3.5789400238418576,23.206208563685713,3.506150023841858Q23.176058563685714,3.433350023841858,23.160688563685717,3.356070023841858Q23.145318563685716,3.278790023841858,23.145318563685716,3.200000023841858ZM23.145318563685716,13.600400023841859L23.145318563685716,12.800400023841858Q23.145318563685716,12.721600023841859,23.160688563685717,12.644300023841858Q23.176058563685714,12.567000023841858,23.206208563685713,12.494200023841858Q23.236368563685716,12.421400023841858,23.280138563685714,12.355900023841858Q23.323918563685716,12.290400023841858,23.379628563685714,12.234700023841858Q23.435348563685714,12.179000023841859,23.500858563685714,12.135200023841858Q23.566378563685717,12.091400023841858,23.639168563685715,12.061300023841858Q23.711968563685716,12.031100023841859,23.789248563685717,12.015800023841859Q23.866528563685716,12.000400023841857,23.945318563685717,12.000400023841857L23.945318563685717,12.000400023841857Q24.024108563685715,12.000400023841857,24.101388563685717,12.015800023841859Q24.178668563685715,12.031100023841859,24.251468563685716,12.061300023841858Q24.324258563685717,12.091400023841858,24.389768563685713,12.135200023841858Q24.455288563685716,12.179000023841859,24.510998563685714,12.234700023841858Q24.566718563685715,12.290400023841858,24.610488563685713,12.355900023841858Q24.654268563685715,12.421400023841858,24.684418563685714,12.494200023841858Q24.714578563685716,12.567000023841858,24.729948563685717,12.644300023841858Q24.745318563685714,12.721600023841859,24.745318563685714,12.800400023841858L24.745318563685714,13.600400023841859Q24.745318563685714,13.679200023841858,24.729948563685717,13.756500023841857Q24.714578563685716,13.833700023841859,24.684418563685714,13.906500023841858Q24.654268563685715,13.979300023841859,24.610488563685713,14.044800023841859Q24.566718563685715,14.110400023841859,24.510998563685714,14.166100023841858Q24.455288563685716,14.221800023841858,24.389768563685713,14.265600023841857Q24.324258563685717,14.309300023841859,24.251468563685716,14.339500023841858Q24.178668563685715,14.369600023841858,24.101388563685717,14.385000023841858Q24.024108563685715,14.400400023841858,23.945318563685717,14.400400023841858L23.945318563685717,14.400400023841858Q23.866528563685716,14.400400023841858,23.789248563685717,14.385000023841858Q23.711968563685716,14.369600023841858,23.639168563685715,14.339500023841858Q23.566378563685717,14.309300023841859,23.500858563685714,14.265600023841857Q23.435348563685714,14.221800023841858,23.379628563685714,14.166100023841858Q23.323918563685716,14.110400023841859,23.280138563685714,14.044800023841859Q23.236368563685716,13.979300023841859,23.206208563685713,13.906500023841858Q23.176058563685714,13.833700023841859,23.160688563685717,13.756500023841857Q23.145318563685716,13.679200023841858,23.145318563685716,13.600400023841859ZM27.700108563685717,4.900000023841858L28.392878563685713,4.500000023841858Q28.461178563685714,4.460600023841858,28.535778563685717,4.435280023841858Q28.610378563685714,4.4099500238418585,28.688478563685713,4.399660023841857Q28.766578563685716,4.389380023841857,28.845278563685717,4.394530023841858Q28.923878563685715,4.399690023841858,28.999978563685715,4.420080023841858Q29.076078563685716,4.440470023841858,29.146778563685714,4.475320023841858Q29.217378563685713,4.510170023841858,29.279978563685717,4.558140023841858Q29.342478563685717,4.606100023841858,29.394378563685713,4.665340023841858Q29.446378563685716,4.724580023841858,29.485778563685713,4.792820023841858L29.485778563685713,4.792820023841858Q29.525178563685714,4.861060023841858,29.550478563685715,4.935670023841858Q29.575778563685716,5.010280023841858,29.586078563685717,5.088400023841858Q29.596378563685715,5.1665200238418585,29.591178563685716,5.2451400238418575Q29.586078563685717,5.323770023841858,29.565678563685715,5.399880023841858Q29.545278563685713,5.475990023841858,29.510378563685713,5.546650023841858Q29.475578563685715,5.617320023841858,29.427578563685714,5.679830023841858Q29.379678563685715,5.742340023841858,29.320378563685715,5.7942900238418575Q29.261178563685718,5.846250023841858,29.192878563685717,5.885640023841858L28.500078563685715,6.285640023841858Q28.431878563685714,6.325040023841858,28.357278563685718,6.350370023841858Q28.282648563685715,6.3757000238418575,28.204528563685713,6.385980023841858Q28.126408563685715,6.396260023841858,28.047778563685718,6.391110023841858Q27.969158563685717,6.385960023841858,27.893048563685717,6.365560023841858Q27.816938563685717,6.345170023841858,27.746268563685717,6.310320023841858Q27.675608563685714,6.275470023841858,27.613098563685718,6.227510023841858Q27.550578563685715,6.179540023841858,27.498628563685713,6.120300023841858Q27.446678563685715,6.061060023841858,27.407278563685715,5.992820023841858L27.407278563685715,5.992820023841858Q27.367888563685717,5.924590023841858,27.342558563685714,5.849970023841858Q27.317228563685717,5.775360023841858,27.306948563685715,5.697240023841858Q27.296658563685718,5.619120023841858,27.301818563685714,5.540500023841858Q27.306968563685714,5.461880023841858,27.327358563685713,5.385770023841857Q27.347758563685716,5.309660023841857,27.382608563685714,5.238990023841858Q27.417458563685713,5.168320023841858,27.465418563685716,5.105810023841858Q27.513388563685716,5.043300023841858,27.572628563685715,4.991350023841858Q27.631868563685714,4.939400023841857,27.700108563685717,4.900000023841858ZM18.693267563685716,10.099220023841857L19.386088563685714,9.699220023841859Q19.454328563685714,9.659820023841858,19.528938563685713,9.634490023841858Q19.603548563685717,9.609170023841857,19.681668563685715,9.598880023841858Q19.759788563685714,9.588600023841858,19.838408563685714,9.593750023841858Q19.917038563685715,9.598900023841857,19.993148563685715,9.619300023841857Q20.069258563685715,9.639690023841858,20.139918563685715,9.674540023841859Q20.210588563685715,9.709390023841857,20.273098563685714,9.757360023841859Q20.335608563685714,9.805320023841858,20.387558563685715,9.864560023841857Q20.439518563685716,9.923800023841858,20.478908563685714,9.992040023841858L20.478908563685714,9.992040023841858Q20.518308563685714,10.060280023841857,20.543638563685715,10.134890023841859Q20.568958563685715,10.209500023841859,20.579248563685717,10.287620023841859Q20.589528563685715,10.365740023841857,20.584378563685714,10.444360023841858Q20.579228563685714,10.522990023841858,20.558828563685715,10.599100023841858Q20.538438563685716,10.675200023841859,20.503588563685714,10.745870023841858Q20.468738563685715,10.816540023841858,20.420778563685715,10.879050023841858Q20.372808563685716,10.941560023841857,20.313568563685713,10.993510023841857Q20.254328563685714,11.045470023841858,20.186088563685715,11.084860023841857L19.493268563685714,11.484860023841858Q19.425028563685714,11.524260023841858,19.350418563685714,11.549590023841859Q19.275808563685715,11.574910023841857,19.197689563685714,11.585200023841859Q19.119570563685716,11.595480023841858,19.040945563685714,11.590330023841858Q18.962321563685716,11.585180023841858,18.886212563685714,11.564780023841857Q18.810104563685716,11.544390023841858,18.739436563685715,11.509540023841858Q18.668769563685714,11.474690023841857,18.606258563685714,11.426730023841857Q18.543747563685717,11.378760023841858,18.491795563685717,11.319520023841857Q18.439843563685717,11.260280023841858,18.400447563685717,11.192040023841859L18.400447563685717,11.192040023841859Q18.361050463685714,11.123810023841857,18.335723163685714,11.049190023841858Q18.310395963685714,10.974580023841858,18.300111353685715,10.896460023841858Q18.289826773685714,10.818340023841857,18.294980103685717,10.739720023841858Q18.300133433685716,10.661090023841858,18.320526663685715,10.584990023841858Q18.340919863685716,10.508880023841858,18.375769163685714,10.438210023841858Q18.410618563685716,10.367540023841858,18.458584563685715,10.305030023841859Q18.506551563685715,10.242520023841857,18.565791563685714,10.190570023841858Q18.625030563685716,10.138620023841858,18.693267563685716,10.099220023841857ZM19.391308563685715,6.3003900238418575L18.698490563685716,5.900390023841858Q18.630253563685717,5.8609900238418575,18.571013563685714,5.809040023841858Q18.511773563685715,5.757090023841858,18.463807563685716,5.694580023841858Q18.415841563685714,5.632070023841858,18.380991963685716,5.561400023841857Q18.346142663685715,5.4907300238418575,18.325749463685714,5.414620023841858Q18.305356263685717,5.338520023841857,18.300202903685715,5.259890023841858Q18.295049573685716,5.181270023841858,18.305334163685714,5.103150023841858Q18.315618763685716,5.0250300238418575,18.340945963685716,4.950420023841858Q18.366273263685716,4.875810023841858,18.405669563685716,4.807570023841858L18.405669563685716,4.807570023841858Q18.445066563685714,4.739330023841858,18.497018563685714,4.680090023841858Q18.548970563685714,4.620850023841857,18.611481563685714,4.5728900238418575Q18.673992563685715,4.524920023841858,18.744659563685715,4.490070023841858Q18.815327563685717,4.455220023841858,18.891435563685715,4.434830023841858Q18.967544563685713,4.414430023841858,19.046168563685715,4.409280023841858Q19.124793563685714,4.404130023841858,19.202912563685715,4.414410023841858Q19.281031563685715,4.424700023841858,19.355638563685716,4.450020023841859Q19.430258563685715,4.475350023841858,19.498488563685715,4.514750023841858L20.191318563685716,4.914750023841858Q20.259548563685716,4.9541500238418585,20.318788563685715,5.006100023841858Q20.378028563685714,5.058050023841858,20.425998563685717,5.120560023841858Q20.473958563685716,5.183070023841858,20.508808563685715,5.253740023841858Q20.543658563685714,5.324410023841859,20.564058563685716,5.400510023841858Q20.584448563685715,5.476620023841858,20.589598563685716,5.555250023841857Q20.594758563685716,5.633870023841858,20.584468563685714,5.7119900238418575Q20.574188563685716,5.790110023841858,20.548858563685716,5.8647200238418575Q20.523528563685716,5.939330023841858,20.484138563685715,6.007570023841858L20.484138563685715,6.007570023841858Q20.444738563685714,6.075810023841858,20.392788563685716,6.135050023841858Q20.340838563685715,6.194290023841858,20.278318563685716,6.242250023841858Q20.215808563685716,6.290220023841858,20.145148563685716,6.325070023841858Q20.074478563685716,6.359920023841858,19.998368563685716,6.380310023841858Q19.922258563685716,6.4007100238418575,19.843638563685715,6.405860023841858Q19.765008563685715,6.4110100238418575,19.686888563685716,6.400730023841858Q19.608768563685715,6.390440023841858,19.534158563685715,6.3651200238418575Q19.459548563685715,6.339790023841858,19.391308563685715,6.3003900238418575ZM28.398178563685715,11.499610023841857L27.705328563685715,11.099610023841858Q27.637088563685715,11.060210023841858,27.577848563685713,11.008260023841858Q27.518608563685717,10.956310023841858,27.470638563685718,10.893800023841857Q27.422678563685714,10.831290023841857,27.387828563685716,10.760620023841858Q27.352978563685717,10.689950023841858,27.332588563685714,10.613840023841858Q27.312188563685716,10.537730023841858,27.307038563685715,10.459110023841857Q27.301888563685715,10.380490023841858,27.312168563685717,10.302370023841858Q27.322458563685714,10.224250023841858,27.347778563685715,10.149640023841858Q27.373108563685715,10.075030023841858,27.412508563685716,10.006790023841859L27.412508563685716,10.006790023841859Q27.451898563685717,9.938550023841858,27.503858563685718,9.879310023841859Q27.555808563685716,9.820070023841858,27.618318563685715,9.772100023841858Q27.680828563685715,9.724140023841858,27.751498563685715,9.689290023841858Q27.822158563685715,9.654440023841858,27.898268563685715,9.634050023841858Q27.974378563685715,9.613650023841858,28.053008563685715,9.608500023841858Q28.131628563685716,9.603350023841857,28.209748563685714,9.613630023841857Q28.287868563685713,9.623920023841858,28.362478563685713,9.649240023841857Q28.437078563685716,9.674570023841857,28.505278563685714,9.713970023841858L29.198178563685715,10.113970023841858Q29.266378563685713,10.153360023841858,29.325578563685717,10.205320023841859Q29.384878563685717,10.257270023841858,29.432878563685716,10.319780023841858Q29.480778563685718,10.382290023841858,29.515678563685714,10.452960023841857Q29.550478563685715,10.523620023841858,29.570878563685717,10.599730023841857Q29.591278563685716,10.675840023841857,29.596478563685714,10.754470023841858Q29.601578563685713,10.833090023841859,29.591278563685716,10.911210023841859Q29.580978563685715,10.989330023841857,29.555678563685717,11.063940023841857Q29.530378563685716,11.138550023841859,29.490978563685715,11.206790023841858L29.490978563685715,11.206790023841858Q29.451578563685715,11.275030023841857,29.399578563685715,11.334270023841858Q29.347678563685715,11.393500023841858,29.285178563685715,11.441470023841857Q29.222678563685715,11.489440023841858,29.151978563685716,11.524290023841857Q29.081278563685714,11.559140023841858,29.005178563685718,11.579530023841858Q28.929078563685714,11.599920023841857,28.850478563685716,11.605100023841858Q28.771878563685718,11.610200023841857,28.693678563685715,11.599940023841858Q28.615578563685716,11.589660023841859,28.540978563685716,11.564330023841858Q28.466378563685716,11.539010023841858,28.398178563685715,11.499610023841857Z" fill="#0066EC" fill-opacity="1"/></g></g></g></svg>