<svg xmlns="http://www.w3.org/2000/svg" xmlns:xlink="http://www.w3.org/1999/xlink" fill="none" version="1.1" width="16" height="16" viewBox="0 0 16 16"><g><g></g><g><path d="M3.4496517,9.362587000000001L10.1606359,2.53093469C10.8555813,1.82349396,11.9823093,1.82349402,12.677255,2.53093469C13.3722,3.2383758,13.3722,4.3853633,12.677255,5.092804L5.9662704,11.9244566L3.8329768,12.234692C3.4315958,12.293063,3.0875559,11.9428368,3.1448964999999998,11.5342388L3.4496517,9.362587000000001ZM11.5803518,5.158752L12.161195,4.5674648Q12.468644,4.254487,12.468644,3.8118696Q12.468644,3.3692517,12.161194,3.0562735Q11.8537445,2.74329638,11.4189453,2.74329638Q10.9841461,2.74329638,10.6766968,3.0562742L10.0958529,3.6475613L11.5803518,5.158752ZM4.1377325,9.7128134L3.890317,11.4758673L5.622231,11.2240038L11.064291,5.6840916L9.579792999999999,4.1729007L4.1377325,9.7128134ZM2.3649067,13.257812L13.635094,13.257812C13.836626,13.257812,14,13.424128,14,13.629287C14,13.834446,13.836626,14.000761,13.635094,14.000761L2.3649067,14.000761C2.16337427,14.000761,2,13.834446,2,13.629287C2,13.424128,2.16337427,13.257812,2.3649067,13.257812Z" fill-rule="evenodd" fill="#1E1E1E" fill-opacity="1"/></g></g></svg>