<svg xmlns="http://www.w3.org/2000/svg" xmlns:xlink="http://www.w3.org/1999/xlink" fill="none" version="1.1" width="16" height="16" viewBox="0 0 16 16"><g><g></g><g><g><path d="M2.6666667461395264,12.666667L2.6666667461395264,3.3333334C2.6666667461395264,2.59695363,3.263620376139526,2,4.000000146139526,2L12.000000746139527,2C12.736380746139526,2,13.333333746139527,2.59695363,13.333333746139527,3.3333334L13.333333746139527,12.666667C13.333333746139527,13.403048,12.736380746139526,14,12.000000746139527,14L4.000000146139526,14C3.263620376139526,14,2.6666667461395264,13.403048,2.6666667461395264,12.666667ZM3.466666816139526,12.666667Q3.466666816139526,13.200001,4.000000146139526,13.200001L12.000000746139527,13.200001Q12.533333546139527,13.200001,12.533333546139527,12.666667L12.533333546139527,3.3333334Q12.533333546139527,2.80000007,12.000000746139527,2.80000007L4.000000146139526,2.80000007Q3.466666816139526,2.80000007,3.466666816139526,3.3333334L3.466666816139526,12.666667Z" fill-rule="evenodd" fill="#151515" fill-opacity="1"/></g><g><path d="M5.3333336753302,5.6000001430511475L10.6666672353302,5.6000001430511475C10.8875816353302,5.6000001430511475,11.0666678353302,5.779086233051148,11.0666678353302,6.000000183051148C11.0666678353302,6.2209141230511475,10.8875816353302,6.400000213051148,10.6666672353302,6.400000213051148L5.3333336753302,6.400000213051148C5.1124197253302,6.400000213051148,4.9333336353302,6.2209141230511475,4.9333336353302,6.000000183051148C4.9333336353302,5.779086233051148,5.1124197253302,5.6000001430511475,5.3333336753302,5.6000001430511475Z" fill-rule="evenodd" fill="#151515" fill-opacity="1"/></g><g><path d="M5.3333336753302,8.933333396911621L8.3333337353302,8.933333396911621C8.5542476353302,8.933333396911621,8.733333635330201,9.112419486911621,8.733333635330201,9.333333436911621C8.733333635330201,9.55424737691162,8.5542476353302,9.73333346691162,8.3333337353302,9.73333346691162L5.3333336753302,9.73333346691162C5.1124197253302,9.73333346691162,4.9333336353302,9.55424737691162,4.9333336353302,9.333333436911621C4.9333336353302,9.112419486911621,5.1124197253302,8.933333396911621,5.3333336753302,8.933333396911621Z" fill-rule="evenodd" fill="#151515" fill-opacity="1"/></g></g></g></svg>