<svg xmlns="http://www.w3.org/2000/svg" xmlns:xlink="http://www.w3.org/1999/xlink" fill="none" version="1.1" width="16" height="16" viewBox="0 0 16 16"><g transform="matrix(-1,0,0,1,32,0)"><g></g><g><path d="M22.2772436,3.34883723C22.2772436,3.46044773,22.2226744,3.5653197199999997,22.130442600000002,3.63096231L19.4526072,5.5368116L26.1872654,5.5369346Q27.7665596,5.536963699999999,28.88328,6.6299002Q30,7.7228365,30,9.268467399999999Q30,10.814120299999999,28.883256,11.9070597Q27.766511,13,26.1871948,13L18.35646003,13C18.15960647,13,18.000025140123,12.8438206,18.000025140123,12.6511631C18.000025140123,12.5586452,18.037578039,12.4699173,18.10442263,12.4044971C18.17126712,12.3390789,18.26192769,12.3023252,18.35646003,12.3023252L26.1871948,12.3023252Q27.4712296,12.3023252,28.379179999999998,11.4137287Q29.287129,10.5251327,29.287129,9.268467399999999Q29.287129,8.0118189,28.379201000000002,7.1232257Q27.4712706,6.2346325,26.187253,6.2346089L18.35645339,6.2344656C18.24241428,6.2344635,18.13526116,6.1810579,18.068190157,6.0907936C17.952412616,5.9349802,17.987619233,5.7168128,18.14682628,5.6035032000000005L21.711175,3.066712067C21.772095,3.023354623,21.8454835,3,21.9208088,3C22.1176624,3,22.2772436,3.15617971,22.2772436,3.34883723Z" fill-rule="evenodd" fill="#1E1E1E" fill-opacity="1"/></g></g></svg>