<svg xmlns="http://www.w3.org/2000/svg" xmlns:xlink="http://www.w3.org/1999/xlink" fill="none" version="1.1" width="16" height="16" viewBox="0 0 16 16"><g><g></g><g><path d="M6.2772436,3.34883723C6.2772436,3.46044773,6.2226744,3.5653197199999997,6.1304426,3.63096231L3.4526072,5.5368116L10.1872654,5.5369346Q11.7665596,5.536963699999999,12.88328,6.6299002Q14,7.7228365,14,9.268467399999999Q14,10.814120299999999,12.883256,11.9070597Q11.766511,13,10.1871948,13L2.35646003,13C2.15960647,13,2.000025140123,12.8438206,2.000025140123,12.6511631C2.000025140123,12.5586452,2.037578039,12.4699173,2.10442263,12.4044971C2.17126712,12.3390789,2.26192769,12.3023252,2.35646003,12.3023252L10.1871948,12.3023252Q11.4712296,12.3023252,12.37918,11.4137287Q13.287129,10.5251327,13.287129,9.268467399999999Q13.287129,8.0118189,12.379201,7.1232257Q11.4712706,6.2346325,10.187253,6.2346089L2.35645339,6.2344656C2.24241428,6.2344635,2.1352611599999998,6.1810579,2.068190157,6.0907936C1.952412616,5.9349802,1.987619233,5.7168128,2.14682628,5.6035032000000005L5.711175,3.066712067C5.772095,3.023354623,5.8454835,3,5.9208088,3C6.1176624,3,6.2772436,3.15617971,6.2772436,3.34883723Z" fill-rule="evenodd" fill="#1E1E1E" fill-opacity="1"/></g></g></svg>