<svg xmlns="http://www.w3.org/2000/svg" xmlns:xlink="http://www.w3.org/1999/xlink" fill="none" version="1.1" width="16" height="16" viewBox="0 0 16 16"><g><g></g><g><g><path d="M5.09890079498291,7.0913978L5.09890079498291,4.2956989C5.09890079498291,2.7516769,6.36168719498291,1.5,7.91941359498291,1.5L8.08058599498291,1.5C9.638311894982909,1.5,10.90109869498291,2.7516769,10.90109869498291,4.2956989L10.90109869498291,7.0913978C10.90109869498291,8.6354194,9.638311894982909,9.8870964,8.08058599498291,9.8870964L7.91941359498291,9.8870964C6.36168719498291,9.8870964,5.09890079498291,8.6354194,5.09890079498291,7.0913978ZM5.94505465498291,7.0913973Q5.94505465498291,7.902009,6.52333079498291,8.4751978Q7.10160709498291,9.0483866,7.91941359498291,9.0483866L8.08058599498291,9.0483866Q8.89839199498291,9.0483866,9.47666789498291,8.4751978Q10.054944994982911,7.902009,10.054944994982911,7.0913978L10.054944994982911,4.2956989Q10.054944994982911,3.4850874999999997,9.47666789498291,2.9118984Q8.89839199498291,2.33870971,8.08058599498291,2.33870971L7.91941359498291,2.33870971Q7.10160709498291,2.33870971,6.52333079498291,2.9118984Q5.94505465498291,3.4850873,5.94505465498291,4.2956989L5.94505465498291,7.0913973Z" fill-rule="evenodd" fill="#1E1E1E" fill-opacity="1"/></g><g><path d="M2.92307693,6.6720428466796875C2.68941796,6.6720428466796875,2.5,6.859794396679687,2.5,7.091397706679688Q2.5,9.291629346679688,4.0696069,10.847426846679689Q5.6392143,12.403225446679688,7.858974,12.403225446679688L8.1410255,12.403225446679688Q10.360784500000001,12.403225446679688,11.9303923,10.847426846679689Q13.499723,9.291902346679688,13.499999,7.092171936679687L13.5,7.091397706679688C13.5,6.859794396679687,13.310582,6.6720428466796875,13.076923,6.6720428466796875C12.843265,6.6720428466796875,12.653846,6.859794306679688,12.653846,7.091397706679688Q12.653846,8.944224846679688,11.3320713,10.254369746679687Q10.010298299999999,11.564515546679687,8.1410255,11.564515546679687L7.858974,11.564515546679687Q5.9897025,11.564515146679687,4.667928,10.254369746679687Q3.3461538600000003,8.944224146679687,3.3461538600000003,7.091397706679688C3.3461538600000003,6.859794396679687,3.1567359,6.6720428466796875,2.92307693,6.6720428466796875Z" fill-rule="evenodd" fill="#1E1E1E" fill-opacity="1"/></g><g transform="matrix(0,1,-1,0,19.988301277160645,3.140730857849121)"><path d="M8.843140069655762,11.564516067504883L10.939914209655761,11.564516067504883C11.171517609655762,11.564516067504883,11.35926890965576,11.753934027504883,11.35926890965576,11.987592997504883C11.35926890965576,12.221251967504882,11.171517609655762,12.410669927504882,10.939914209655761,12.410669927504882L8.843140069655762,12.410669927504882C8.611536759655761,12.410669927504882,8.423785209655762,12.221251967504882,8.423785209655762,11.987592997504883C8.423785209655762,11.753934027504883,8.611536759655761,11.564516067504883,8.843140069655762,11.564516067504883Z" fill-rule="evenodd" fill="#1E1E1E" fill-opacity="1"/></g><g transform="matrix(-0.0003255208139307797,1,-1,-0.0003255208139307797,11.576863550897327,-3.821499405814408)"><path d="M8.117914144210205,3.875798225402832L10.214688284210204,3.875798225402832C10.446291684210205,3.875798225402832,10.634042984210204,4.065216185402832,10.634042984210204,4.298875155402832C10.634042984210204,4.532534125402832,10.446291684210205,4.721952085402832,10.214688284210204,4.721952085402832L8.117914144210205,4.721952085402832C7.886310834210205,4.721952085402832,7.698559284210205,4.532534125402832,7.698559284210205,4.298875155402832C7.698559284210205,4.065216185402832,7.886310834210205,3.875798225402832,8.117914144210205,3.875798225402832Z" fill-rule="evenodd" fill="#1E1E1E" fill-opacity="1"/></g></g></g></svg>