<svg xmlns="http://www.w3.org/2000/svg" xmlns:xlink="http://www.w3.org/1999/xlink" fill="none" version="1.1" width="16" height="16" viewBox="0 0 16 16"><g><g></g><g><path d="M6,6.5L2.66666681,6.5C2.29847687,6.5,2,6.7686296,2,7.1000004L2,13.400001C2,13.731371,2.29847687,14,2.66666681,14L13.333335,14C13.701525,14,14.000003,13.731371,14.000003,13.400001L14.000003,7.1000004C14.000003,6.7686296,13.701525,6.5,13.333335,6.5L10,6.5L10,2.60000002C10,2.26862919,9.7015238,2,9.3333335,2L6.666667,2C6.2984776,2,6,2.26862919,6,2.60000002L6,6.5ZM2.80000013,7.2200007L2.80000013,9.440000999999999L13.200001,9.440000999999999L13.200001,7.2200007L9.2000008,7.2200007L9.2000008,2.72000003L6.8000002,2.72000003L6.8000002,7.2200007L2.80000013,7.2200007ZM2.80000013,10.1599998L2.80000013,13.280002L4.3428574,13.280002L4.3428574,12.200001C4.3428574,12.001177,4.5219436,11.8400002,4.7428577,11.8400002C4.963771599999999,11.8400002,5.1428576,12.001177,5.1428578,12.200001L5.1428578,13.280002L7.4285727,13.280002L7.4285727,11.300643L7.4285722,11.3000002C7.4285722,11.1011772,7.6076584,10.9399996,7.8285723,10.9399996C8.0494866,10.9399996,8.228572400000001,11.1011772,8.228572400000001,11.3000002L8.228572400000001,13.280002L10.5142879,13.280002L10.5142879,12.200001C10.514286,12.104523,10.5564289,12.012955,10.631443,11.9454412C10.706459,11.8779278,10.8082008,11.8400002,10.9142876,11.8400002C11.1352005,11.8400002,11.3142872,12.001177,11.3142872,12.200001L11.3142872,13.280002L13.200001,13.280002L13.200001,10.1599998L2.80000013,10.1599998Z" fill-rule="evenodd" fill="#1E1E1E" fill-opacity="1"/></g></g></svg>