<svg xmlns="http://www.w3.org/2000/svg" xmlns:xlink="http://www.w3.org/1999/xlink" fill="none" version="1.1" width="16" height="16" viewBox="0 0 16 16"><g><g></g><g><g><path d="M2,8L2,2.75C2,2.3357864,2.29682776,2,2.6629834199999998,2L9.955801000000001,2C10.3219566,2,10.6187849,2.3357864,10.6187849,2.75L10.6187849,8C10.6187849,8.414214099999999,10.3219566,8.75,9.955801000000001,8.75L2.6629834199999998,8.75C2.29682776,8.75,2,8.414214099999999,2,8ZM9.8232045,7.8500004L2.79558015,7.8500004L2.79558015,2.9000000999999997L9.8232045,2.9000000999999997L9.8232045,7.8500004Z" fill-rule="evenodd" fill="#1E1E1E" fill-opacity="1"/></g><g><path d="M2,13.25L2,11.75C2,11.3357864,2.29682776,11,2.6629834199999998,11L13.270719,11C13.636873,11,13.933702,11.3357864,13.933702,11.75L13.933702,13.25C13.933702,13.6642137,13.636873,14,13.270719,14L2.6629834199999998,14C2.29682776,14,2,13.6642137,2,13.25ZM13.138121,13.0999999L2.79558015,13.0999999L2.79558015,11.9000001L13.138121,11.9000001L13.138121,13.0999999Z" fill-rule="evenodd" fill="#1E1E1E" fill-opacity="1"/></g><g><path d="M10.465190230834962,6.097507626601982L12.820628380834961,7.429802626601982Q12.95287418083496,7.5046040266019824,13.078647180834961,7.416669526601982Q13.20442008083496,7.3287355266019825,13.20442008083496,7.1614748266019825L13.20442008083496,3.213525726601982Q13.20442008083496,3.046264726601982,13.078647180834961,2.9583304366019822Q12.952874680834961,2.870396356601982,12.82062938083496,2.945197506601982L10.465190230834962,4.277492426601983L10.109395980834961,3.472507926601982L12.46483488083496,2.140213176601982Q12.993817080834962,1.841007386601982,13.496908380834961,2.192744686601982Q13.99999998083496,2.544481916601982,13.99999998083496,3.213525726601982L13.99999998083496,7.1614748266019825Q13.99999998083496,7.830518426601982,13.496908380834961,8.182254526601982Q12.99381638083496,8.533992426601982,12.464834180834961,8.234786626601982L10.109395980834961,6.902492226601982L10.465190230834962,6.097507626601982Z" fill-rule="evenodd" fill="#1E1E1E" fill-opacity="1"/></g></g></g></svg>