<svg xmlns="http://www.w3.org/2000/svg" xmlns:xlink="http://www.w3.org/1999/xlink" fill="none" version="1.1" width="16" height="16" viewBox="0 0 16 16"><g><g><path d="M8.400000286534882,2.6373038865348817C10.927398686534882,2.8258863865348816,12.980096686534882,4.753493986534882,13.327008686534882,7.264062586534882L15.333333686534882,7.264062586534882L15.333333686534882,8.064062786534882L13.377247686534881,8.064062786534882C13.344097686534882,10.854146686534882,11.18254668653488,13.155422686534882,8.400000286534882,13.363043686534882L8.400000286534882,15.333333686534882L7.600000086534882,15.333333686534882L7.600000086534882,13.363066686534882C4.817326286534882,13.155595686534882,2.6556004865348815,10.854263686534882,2.6224498865348815,8.064062786534882L0.6666666865348816,8.064062786534882L0.6666666865348816,7.264062586534882L2.6726881865348817,7.264062586534882C3.0196162865348817,4.753380486534882,5.072477486534882,2.8257290865348814,7.600000086534882,2.6372813865348816L7.600000086534882,0.6666666865348816L8.400000286534882,0.6666666865348816L8.400000286534882,2.6373038865348817ZM7.9998480865348816,3.422395886534882C10.528085386534881,3.422395886534882,12.577626686534881,5.471936886534881,12.577626686534881,8.000173786534882C12.577626686534881,10.528410586534882,10.528085386534881,12.577951686534881,7.9998480865348816,12.577951686534881C5.471611186534882,12.577951686534881,3.4220701865348815,10.528410586534882,3.4220701865348815,8.000173786534882C3.4220701865348815,5.471936886534881,5.471611186534882,3.422395886534882,7.9998480865348816,3.422395886534882Z" fill-rule="evenodd" fill="#1E1E1E" fill-opacity="1"/></g><g><path d="M8,10C9.1045699,10,10,9.1045699,10,8C10,6.89543045,9.1045699,6,8,6C6.89543045,6,6,6.89543045,6,8C6,9.1045699,6.89543045,10,8,10ZM8,6.80000007C8.6627419,6.80000007,9.2000003,7.3372583,9.2000003,8C9.2000003,8.6627419,8.6627419,9.2000003,8,9.2000003C7.3372583,9.2000003,6.80000007,8.6627419,6.80000007,8C6.80000007,7.3372583,7.3372583,6.80000007,8,6.80000007Z" fill-rule="evenodd" fill="#000000" fill-opacity="1"/></g><g></g></g></svg>