<svg xmlns="http://www.w3.org/2000/svg" xmlns:xlink="http://www.w3.org/1999/xlink" fill="none" version="1.1" width="16" height="16" viewBox="0 0 16 16"><g><g></g><g><g><g><path d="M2.5,13.288637L2.5,3.4200410000000003C2.5,2.63577408,3.11560857,2,3.8750001000000003,2L12.125001,2C12.884392,2,13.5,2.63577408,13.5,3.4200410999999997L13.5,13.288637C13.5,13.886498,12.828259,14.216702,12.3789673,13.839694L8.4335322,10.5290194C8.1809425,10.3170681,7.819057,10.3170681,7.5664678,10.5290194L3.6210324,13.839694C3.17174113,14.216702,2.5,13.886498,2.5,13.288637ZM3.32500005,12.990291L3.32500005,3.4200410000000003Q3.32500005,2.85202461,3.8750001000000003,2.85202461L12.125001,2.85202461Q12.675,2.85202461,12.675,3.4200410999999997L12.675,12.99029L8.953769699999999,9.867749700000001Q7.999999,9.0674305,7.0462294,9.8677506L3.32500005,12.990291Z" fill-rule="evenodd" fill="#151515" fill-opacity="1"/></g><g><path d="M5.593750115367432,4.414069890975952L10.406249995367432,4.414069890975952C10.634067495367432,4.414069890975952,10.818749895367432,4.6048020709759525,10.818749895367432,4.840082200975952C10.818749895367432,5.075362320975952,10.634067495367432,5.266094500975952,10.406249995367432,5.266094500975952L5.593750115367432,5.266094500975952C5.3659326253674315,5.266094500975952,5.181250095367432,5.075362320975952,5.181250095367432,4.840082200975952C5.181250095367432,4.6048020709759525,5.3659326253674315,4.414069890975952,5.593750115367432,4.414069890975952Z" fill-rule="evenodd" fill="#151515" fill-opacity="1"/></g><g><path d="M5.593750115367432,7.254151344299316L10.406249995367432,7.254151344299316C10.634067495367432,7.254151344299316,10.818749895367432,7.444883524299317,10.818749895367432,7.680163654299316C10.818749895367432,7.915443774299316,10.634067495367432,8.106175954299317,10.406249995367432,8.106175954299317L5.593750115367432,8.106175954299317C5.3659326253674315,8.106175954299317,5.181250095367432,7.915443774299316,5.181250095367432,7.680163654299316C5.181250095367432,7.444883524299317,5.3659326253674315,7.254151344299316,5.593750115367432,7.254151344299316Z" fill-rule="evenodd" fill="#151515" fill-opacity="1"/></g></g></g></g></svg>