<svg xmlns="http://www.w3.org/2000/svg" xmlns:xlink="http://www.w3.org/1999/xlink" fill="none" version="1.1" width="26" height="28" viewBox="0 0 26 28"><defs><clipPath id="master_svg0_1220_13080"><rect x="12" y="4" width="10" height="10" rx="0"/></clipPath></defs><g><g><path d="M0,0L26,28L26,4.0000005C26,1.7908611,24.209139,0,22,0L0,0Z" fill="#D8D8D8" fill-opacity="1"/></g><g clip-path="url(#master_svg0_1220_13080)"><g><path d="M14.8604450125,10.613515825L13.9414452125,11.533015725C13.7861310125,11.677742025,13.781815012500001,11.922421025,13.9319281125,12.072533625C14.0820411125,12.222647625,14.3267202125,12.218329425,14.4714453125,12.063015925L15.3904455125,11.143516025C15.5457609125,10.998791225,15.5500779125,10.754112724999999,15.3999643125,10.603998625C15.249850712499999,10.453884625,15.0051706125,10.458200425000001,14.8604450125,10.613515825ZM14.6114452125,9.989516225C14.6114454125,9.782409625,14.4435522125,9.614516225,14.2364454125,9.614515825L13.1779454125,9.614515825C12.9708383125,9.614516225,12.8029452525,9.782410125,12.8029452525,9.989516725C12.8029452525,10.196623825,12.9708384825,10.364516725,13.1779454125,10.364515825L14.235945212499999,10.364515825C14.4432471125,10.364793325,14.6114454125,10.196819325,14.6114452125,9.989516225ZM16.0099454125,11.388515425C15.8028390125,11.388515425,15.634945612500001,11.556409325,15.6349454125,11.763515425L15.6349454125,12.821517025C15.634945612500001,13.028624525,15.8028390125,13.196516025,16.0099459125,13.196516025C16.2170524125,13.196516025,16.3849459125,13.028624525,16.3849454125,12.821517025L16.3849454125,11.763515425C16.3849459125,11.556409325,16.2170524125,11.388515425,16.0099454125,11.388515425ZM18.8794451125,7.500015925C18.9789348125,7.500261325,19.0743761125,7.460644025000001,19.144445412499998,7.390016125L20.0634456125,6.470515925C20.214175212500002,6.324793325,20.2161550125,6.083797925,20.0678367125,5.935620325C19.9195194125,5.7874425249999994,19.6785269125,5.789648625,19.532945112500002,5.940516125L18.6139450125,6.860016325C18.5067706125,6.967324025,18.4747844125,7.128622525,18.5328975125,7.268708725C18.5910110125,7.408795125,18.7277827125,7.5000849249999995,18.8794451125,7.500015925ZM17.989945912499998,6.611016025C18.1970529125,6.611016025,18.364945912499998,6.443122625,18.364945912499998,6.236015825L18.364945912499998,5.178015725C18.364945912499998,4.970909055,18.1970529125,4.803015765,17.9899464125,4.803015765C17.7828398125,4.803015765,17.6149464125,4.970908825,17.6149454125,5.178015725L17.6149454125,6.236015825C17.6149454125,6.443015625,17.7829461125,6.611016025,17.989945912499998,6.611016025ZM19.3884449125,8.009515725C19.3884449125,8.216515525,19.5564451125,8.384515725,19.7634454125,8.384515725L20.8214455125,8.384515725C21.0285520125,8.384516224999999,21.196446412500002,8.216623325,21.196446412500002,8.009515725C21.196446412500002,7.8024094250000005,21.028553012499998,7.634515725,20.8214455125,7.634515524999999L19.7634454125,7.634515524999999C19.5563388125,7.634515725,19.3884458125,7.802408925,19.3884449125,8.009515725ZM21.4914455125,10.309015725L19.9789448125,8.796515925C19.8324518125,8.650022025,19.5949383125,8.650022025,19.4484453125,8.796515424999999C19.3019514125,8.943009425,19.3019514125,9.180522425,19.4484453125,9.327015925000001L20.9609451125,10.839516125C21.0779457125,10.956516225,21.1429453125,11.113515825,21.1429453125,11.281515625C21.1429453125,11.449515824999999,21.0784464125,11.606016125,20.9609451125,11.723516025L19.7234459125,12.961516425C19.4787874125,13.204298025,19.0841036125,13.204298025,18.8394456125,12.961516425L17.3269462125,11.449015124999999C17.1804862125,11.302329525000001,16.9428148125,11.302236525,16.7962413125,11.448810125C16.6496677125,11.595384625000001,16.6497593125,11.833055524999999,16.7964463125,11.979516024999999L18.3089461125,13.492015825C18.5769453125,13.760016425,18.9289455125,13.894014325,19.2809458125,13.894014325C19.6329455125,13.894014325,19.9849458125,13.760016425,20.2529459125,13.492015825L21.490445112499998,12.254014925C21.7494449125,11.995016525,21.891945812499998,11.650015325,21.891945812499998,11.282016325C21.891945812499998,10.914015724999999,21.7504454125,10.568015625000001,21.4914455125,10.309015725ZM17.2024455125,6.550515925C17.3490062125,6.4040501249999995,17.3490062125,6.166481924999999,17.2024455125,6.020015725L15.6899457125,4.508015665C15.172445312499999,3.989515615,14.2629452125,3.989515615,13.7454452125,4.508015665L12.5084453225,5.745515425C12.2494453025,6.004015925,12.1064453125,6.349515725,12.1064453125,6.717515925C12.1064453125,7.085515525,12.2494453025,7.4310159250000005,12.5084453225,7.689516325L14.0209451125,9.202016324999999C14.1671243125,9.348796325,14.404765812499999,9.348796325,14.5509450125,9.202016324999999C14.6975050125,9.055550625,14.6975050125,8.817982225,14.5509450125,8.671515925L13.0384453525,7.159515825C12.9214452525,7.042016025000001,12.8564453125,6.885515724999999,12.8564453125,6.717515925C12.8564453125,6.549515725,12.9209454025,6.393016125,13.0384453525,6.275516025L14.2759454125,5.038015785C14.510945512500001,4.803515675,14.9249453125,4.803515675,15.1599455125,5.038015785L16.6724453125,6.550015925C16.818486212499998,6.696934425,17.056127512499998,6.697158625,17.2024455125,6.550515925Z" fill="#FFFFFF" fill-opacity="1" style="mix-blend-mode:passthrough"/></g></g></g></svg>