<svg xmlns="http://www.w3.org/2000/svg" xmlns:xlink="http://www.w3.org/1999/xlink" fill="none" version="1.1" width="28" height="28" viewBox="0 0 28 28"><g><path d="M5.9717278,16.169744L5.9717278,15.084872L9.3964367,15.084872L10.274126,14.206645L10.274126,12.93235L8.6564236,12.93235L8.6564236,11.847478L10.274126,11.847478L10.274126,9.7121792L8.6564236,9.7121792L8.6564236,8.6273069L10.274126,8.6273069L10.274126,6.4747849L8.6564236,6.4747849L8.6564236,5.3899145L10.274126,5.3899145L10.274126,3.2546127L5.9717278,3.2546127L5.9717278,2.1697419L10.274126,2.1697419L10.274126,0.55104566C10.274126,0.2583026,10.033191,0.01722024,9.7406282,0.01722024L2.2028275,0.01722024C1.9102645,0.01722024,1.6693301,0.2583026,1.6693301,0.55104566L1.6693301,22.816732L8.329442,16.152525L5.9717278,16.152525L5.9717278,16.169744ZM26.950216,17.237392L25.332516,17.237392L25.332516,21.542437L24.248312,21.542437L24.248312,17.237392L22.097111,17.237392L22.097111,18.856091L21.012909,18.856091L21.012909,17.237392L18.878918,17.237392L18.878918,18.856091L17.794716,18.856091L17.794716,17.237392L15.643517,17.237392L15.643517,18.856091L14.576522,18.856091L14.576522,17.237392L12.425324,17.237392L12.425324,21.542437L11.341119,21.542437L11.341119,18.115623L28.000002,1.4464945L26.554398,0L10.274126,16.273066L1.6693301,24.883152L0,26.553509L1.4456056,28.000002L3.6140137,25.847485L26.95022,25.847485C27.242781,25.847485,27.483715,25.6064,27.483715,25.313656L27.483715,17.771217C27.483715,17.478474,27.242783,17.237392,26.950216,17.237392Z" fill="#D8D8D8" fill-opacity="1" style="mix-blend-mode:passthrough"/></g></svg>