<svg xmlns="http://www.w3.org/2000/svg" xmlns:xlink="http://www.w3.org/1999/xlink" fill="none" version="1.1" width="33" height="29" viewBox="0 0 33 29"><g><path d="M33,15.252038C33,15.123589,32.965614,14.995142,32.896835,14.816975L29.238766,5.3367629L29.230169,5.320189C28.972254,4.6820989,28.344664,4.2677536,27.631105,4.2677536L17.933567,4.2677536L17.933567,2.8755538L17.972252,2.8755538C18.496677,2.8755538,18.896446,2.428061,18.82337,1.9267037L18.69441,1.0648665C18.604141,0.45163602,18.058224,0,17.41774,0L15.612348,0C14.97186,0,14.425945,0.4557794,14.335674,1.0648665L14.206719,1.926704C14.133643,2.4280612,14.53341,2.8755543,15.057831,2.8755543L15.096518,2.8755543L15.096518,4.2677522L5.3688946,4.2677522C4.6553345,4.2677522,4.0277462,4.6820974,3.7698324,5.320189L0.10316528,14.816975C0.030089831,14.999286,0,15.123589,0,15.252038C0.13325518,17.999142,2.4845638,20.182745,5.3645949,20.182745C8.244627,20.182745,10.595937,17.999142,10.733489,15.252038L10.72919,15.247894C10.72919,15.119446,10.694804,14.990999,10.626024,14.812831L7.6127391,6.9982853L15.096521,6.9982853L15.096521,26.265326L7.1871819,26.265326C6.4091434,26.265326,5.7686596,26.878555,5.7686596,27.632666C5.7686596,28.38677,6.4048457,29.000002,7.1871819,29.000002L25.842909,29.000002C26.620947,29.000002,27.261429,28.38677,27.261429,27.632666C27.261429,26.878555,26.620947,26.265326,25.842909,26.265326L17.933571,26.265326L17.933571,6.9982853L25.39156,6.9982853L22.378275,14.812831C22.305199,14.995142,22.275108,15.119446,22.275108,15.247894C22.412663,17.990854,24.763973,20.174456,27.644005,20.174456C30.524036,20.174456,32.866745,17.999142,33,15.252038ZM2.9402108,14.576654L5.3645949,8.2868986L7.78898,14.576654L2.9402108,14.576654ZM27.635403,8.2868986L30.059786,14.576654L25.20672,14.576654L27.635403,8.2868986Z" fill="#0066EC" fill-opacity="1" style="mix-blend-mode:passthrough"/></g></svg>