<svg xmlns="http://www.w3.org/2000/svg" xmlns:xlink="http://www.w3.org/1999/xlink" fill="none" version="1.1" width="29" height="29" viewBox="0 0 29 29"><g><path d="M25.807339,29L3.1926606,29C1.4633026,29,0,27.543379,0,25.689497L0,18.141552L29,18.141552L29,25.689497C29,27.543379,27.536697,29,25.807339,29ZM18.091743,21.849314L3.5917432,21.849314L3.5917432,25.424658L18.091743,25.424658L18.091743,21.849314ZM25.408257,21.849314L21.816511,21.849314L21.816511,25.424658L25.408257,25.424658L25.408257,21.849314ZM0,3.3105023C0,1.4566208,1.4633026,0,3.1926606,0L25.807339,0C27.536697,0,29,1.4566208,29,3.3105023L29,16.28767L0,16.28767L0,3.3105023ZM5.8532104,13.242009L8.5137615,8.7397251L14.633028,12.844748L17.958715,7.6803656L24.477062,11.388126L25.940367,8.7397251L16.894495,3.0456619L13.834863,8.3424664L7.1834865,4.7671232L3.1926606,11.785387L5.8532104,13.242009Z" fill="#D8D8D8" fill-opacity="1" style="mix-blend-mode:passthrough"/></g></svg>