<svg xmlns="http://www.w3.org/2000/svg" xmlns:xlink="http://www.w3.org/1999/xlink" fill="none" version="1.1" width="16" height="16" viewBox="0 0 16 16"><defs><clipPath id="master_svg0_1456_23083"><rect x="0" y="0" width="16" height="16" rx="0"/></clipPath></defs><g clip-path="url(#master_svg0_1456_23083)"><g><path d="M3.1306666625,2.33203125L12.8772300625,2.33203125C13.2900420625,2.33187499999,13.6366040625,2.6434375,13.6803540625,3.0540625500000003L14.3692610625,9.51484395C14.3936060625,9.742599049999999,14.3200490625,9.96997305,14.1669170625,10.14031315C14.0138140625,10.310632250000001,13.7956220625,10.40797325,13.5666040625,10.40812585L2.4416041325,10.40812585C2.2125128524999997,10.40820505,1.9941722125,10.31096225,1.8409791725,10.14062505C1.6877571125,9.970262049999999,1.6140908805,9.74284605,1.6383229066,9.515000350000001L2.3275417125,3.05421877C2.3712916925,2.6434375,2.7176979625,2.33187499999,3.1306666625,2.33203125ZM6.5655102625,6.3014066500000006L7.9920725625,7.72843745C8.0690054625,7.80548475,8.173827662499999,7.84814595,8.282698162500001,7.84671925C8.3916039625,7.84531255,8.4951982625,7.80000015,8.5703544625,7.72125005C8.6336359625,7.70187525,8.6912917625,7.66718765,8.737853962500001,7.62015675L11.3076982625,5.05046895C11.4126977625,4.94906255,11.4547300625,4.79890635,11.4176978625,4.65781255C11.3807878625,4.51663565,11.2705726625,4.40636135,11.1294164625,4.36937495C10.9881667625,4.33234385,10.8381671625,4.37453155,10.7367610625,4.47953125L8.311135262499999,6.90515665L6.8501982625,5.44421885C6.7693543625,5.36297205,6.6577887625,5.31991335,6.5433230625,5.32578135C6.4287915625,5.33156275,6.3222288625,5.38578125,6.2500414625,5.47484375L4.2512915625000005,7.47359415C4.093635362500001,7.63140635,4.0937917625,7.88703105,4.2514479625,8.04484365C4.4092604625,8.202500350000001,4.6648852625,8.20234395,4.8225417625,8.04468775L6.5653543625,6.30187485L6.5653543625,6.3014066500000006L6.5655102625,6.3014066500000006ZM6.6578540625,11.21562485L9.5312919625,11.21562485C9.8791036625,11.21562485,10.1878538625,11.43812465,10.2976980625,11.76796915L10.5670728625,12.57562525C10.6490888625,12.82196025,10.6076946625,13.09270425,10.4558229625,13.30328225C10.3039941625,13.51380225,10.0602254625,13.63850725,9.8006667625,13.63843825L6.3886351625,13.63843825C6.1289477625,13.63843825,5.8851981625,13.51375125,5.7333230625,13.30328225C5.5815255624999995,13.09267525,5.5401375625,12.82196825,5.6220729625,12.57562525L5.8914480625,11.76796915C6.0014476625,11.43796925,6.3100414625,11.21562485,6.6578540625,11.21562485Z" fill="#151515" fill-opacity="1" style="mix-blend-mode:passthrough"/></g></g></svg>