<svg xmlns="http://www.w3.org/2000/svg" xmlns:xlink="http://www.w3.org/1999/xlink" fill="none" version="1.1" width="16" height="16" viewBox="0 0 16 16"><defs><clipPath id="master_svg0_1456_23066"><rect x="0" y="0" width="16" height="16" rx="0"/></clipPath></defs><g clip-path="url(#master_svg0_1456_23066)"><g><path d="M5.008238071875,3.098084805L5.008238071875,4.3768614249999995L11.026462071874999,4.3768614249999995L11.026462071874999,3.098084805L12.199388471875,3.098084805C12.531167971875,3.098084805,12.799951571875,3.3899437150000002,12.799951571875,3.754932025L12.799951571875,12.943545625C12.799951571875,13.305898625,12.532967571875,13.600390625,12.199988371875,13.600390625L3.799913701875,13.600390625C3.468734351875,13.600390625,3.199951171875,13.308532625,3.199951171875,12.943545625L3.199951171875,3.754931925C3.199951171875,3.392579015,3.466934501875,3.098084805,3.799913701875,3.098084805L5.008238071875,3.098084805ZM5.610000371875,2.400390625L10.424698871875,2.400390625L10.424698871875,3.718037925L5.610000371875,3.718037925L5.610000371875,2.400390625ZM5.008238071875,7.012156025L5.008238071875,7.670980025L11.026462071874999,7.670980025L11.026462071874999,7.012156025L5.008238071875,7.012156025ZM5.008238071875,9.647450424999999L5.008238071875,10.306273925L11.026462071874999,10.306273925L11.026462071874999,9.647450424999999L5.008238071875,9.647450424999999Z" fill="#151515" fill-opacity="1" style="mix-blend-mode:passthrough"/></g></g></svg>