<svg xmlns="http://www.w3.org/2000/svg" xmlns:xlink="http://www.w3.org/1999/xlink" fill="none" version="1.1" width="60" height="60" viewBox="0 0 60 60"><defs><clipPath id="master_svg0_1348_23178"><rect x="0" y="0" width="60" height="60" rx="0"/></clipPath></defs><g clip-path="url(#master_svg0_1348_23178)"><g style="opacity:0.4000000059604645;"><path d="M7.0735383,51.410468875C7.4711533,51.410468875,7.7347794,51.675834875,7.7347794,52.073447875C7.7347794,52.471057875,7.4711533,52.736426875,7.0735383,52.736426875L0.66124099,52.736426875C0.26449645,52.736426875,0,52.471057875,0,52.073447875C0,51.675834875,0.26449639,51.410468875,0.66124099,51.410468875L7.0735383,51.410468875ZM56.329899,46.368507875C56.727512,46.368507875,56.991138,46.633872875,56.991138,47.032355875C56.991138,47.429969875,56.727512,47.695335875,56.329899,47.695335875L45.1558,47.695335875L45.1558,49.419784875C45.1558,51.277347875,43.702812,52.736426875,41.852203,52.736426875L39.868481,52.736426875C39.868481,53.134910875,39.669239,53.532527875,39.404743,53.864017875C38.743504,54.527869875,37.75164,54.527869875,37.090401,53.864017875L36.032413,52.736426875L10.379744,52.736426875C9.9829988,52.736426875,9.718503,52.471057875,9.718503,52.073447875C9.718503,51.675834875,9.9829988,51.410468875,10.379744,51.410468875L13.290074,51.410468875C12.866488,50.832599875,12.635181,50.136245875,12.628834,49.419787875L12.628834,16.252459875C12.628834,14.394894575,14.082693,12.934944675,15.934169,12.934944675L18.049269,12.934944675L18.049269,11.210497375C18.049269,9.352932175,19.504,7.893851775,21.355474,7.893851775L47.33876,7.893851775C49.190239,7.893851775,50.644966,9.353801975,50.644966,11.210497375L50.644966,44.378688875C50.644966,45.107795875,50.38047,45.837771875,49.983727,46.368503875L56.329899,46.368507875ZM45.884037,46.368507875L47.272644,46.368507875C48.396751,46.368507875,49.256367,45.507152875,49.256367,44.378692875L49.256367,11.210497375C49.256367,10.082907174999999,48.396755,9.220683775,47.272644,9.220683775L21.288479,9.220683775C20.165239,9.220683775,19.304756,10.082036975000001,19.304756,11.210497375L19.304756,12.934943675L41.917458,12.934943675C43.768932,12.934943675,45.22366,14.394893675,45.22366,16.252459875L45.22366,46.368507875L45.884899,46.368507875L45.884037,46.368507875ZM30.347481,44.710185875C31.427874,43.627055875,32.034306,42.159473875,32.033646,40.629630875C32.033646,39.100074875,31.426348,37.632297875,30.347481,36.550819875C29.276178,35.484853875,27.825182,34.888307874999995,26.31391,34.892495875C24.793056,34.892495875,23.338324,35.490224874999996,22.280338,36.550819875C21.200577,37.632972875,20.594173,39.100169875,20.594175,40.630504875C20.594175,42.161796875,21.201471,43.628707875,22.280338,44.711051875C23.35162,45.776942875,24.802704,46.373210875,26.31391,46.368507875C27.768639,46.368507875,29.223372,45.770782875,30.347481,44.710185875ZM23.404449,38.607627875C23.536697,38.672881875,23.602823,38.872993875,23.536697,39.071368875C23.07383,39.867465875,23.007708,40.928935875,23.338327,41.791156875C23.404449,41.991267875,23.338327,42.122645875,23.140825,42.255767875L23.007708,42.255767875C22.86838,42.258349875,22.739885,42.180919875,22.677088,42.056521875C22.280344,40.995059875,22.346468,39.735221875,22.875458,38.739879875C23.011866,38.598048875,23.217348,38.546676875,23.404449,38.607627875ZM43.90205,49.419787875L43.90205,16.252459875C43.90205,15.123999575,43.042439,14.262645675,41.918327,14.262645675L15.868915,14.262645675C14.743934,14.262645675,13.88432,15.123999575,13.88432,16.252459875L13.88432,49.419787875C13.88432,50.547378875,14.743934,51.410468875,15.868044,51.410468875L34.7108,51.410468875L32.859329,49.552035875C32.410118,49.100040875,32.256329,48.432281875,32.462582,47.829326875L30.809481,46.103141875C29.554142,47.170024875,27.961365,47.757567875,26.313911,47.761462875C24.396313,47.761462875,22.677088,47.032359875,21.288479,45.705527875C19.955032,44.379836875,19.20562,42.576926875,19.20644,40.696628875C19.20644,38.815570875,19.956425,37.011949875,21.288479,35.688596875C22.61183,34.360894875,24.396313,33.630918875,26.31391,33.630918875C28.230639,33.630918875,29.950735,34.361764875,31.33847,35.688596875C33.917309,38.275268875,34.049557,42.454135875,31.801338,45.240913875L33.520569,46.965362875C34.115681,46.766120875,34.77692,46.833114875,35.239792,47.363845875L39.337749,51.476588875L41.917458,51.476588875C42.974571,51.410468875,43.90118,50.547370875,43.90118,49.419787875L43.90205,49.419787875ZM19.966867,21.094309875C19.570993,21.094309875,19.305626,20.828942875,19.305626,20.431328875C19.305626,20.032844875000002,19.57099,19.767477875,19.966867,19.767477875L31.537716,19.767477875C31.934458,19.767477875,32.198956,20.032844875000002,32.198956,20.431328875C32.198956,20.828942875,31.934462,21.094309875,31.537716,21.094309875L19.965998,21.094309875L19.966867,21.094309875ZM35.372913,24.014209875C35.769653,24.014209875,36.034153,24.278705875,36.034153,24.677192875C36.034153,25.074805875,35.769657,25.340173875,35.372913,25.340173875L20.166111,25.340173875C19.768497,25.340173875,19.504869,25.074807875,19.504869,24.677192875C19.504869,24.278707875,19.768494,24.013341875,20.165239,24.013341875L35.372913,24.013341875L35.372913,24.014209875ZM27.966141,28.257461875C28.362886,28.257461875,28.627382,28.523700875,28.627382,28.921311875C28.627382,29.318927875,28.362888,29.584294875,27.967014,29.584294875L19.83375,29.584294875C19.437006,29.584294875,19.172508,29.318929875,19.172508,28.921311875C19.172508,28.523698875,19.437006,28.257461875,19.83375,28.257461875L27.966141,28.257461875ZM4.0335698,14.991751675C4.0335698,15.722596875,3.438453,16.318583875,2.7110877,16.318583875C1.9801968,16.315709875,1.3890791,15.722648875,1.3886058,14.991751675C1.3886058,14.262645675,1.9845927,13.664050075,2.7110877,13.664050075C3.4384527,13.664050075,4.0335698,14.262645675,4.0335698,14.991751675ZM5.3560524,14.991751675C5.354629,13.530156575,4.1726713,12.344310275,2.7110879,12.338087075C1.2497036,12.344784775,0.068022676,13.530351675,0.066123962,14.991750675C0.067546748,16.453346875,1.249505,17.639193875,2.7110879,17.645414875C4.1726713,17.639193875,5.354629,16.453346875,5.3560524,14.991751675ZM57.388752,18.109155875C57.388752,17.711540875,57.653248,17.446173875,58.049992,17.446173875C58.446739,17.446173875,58.711231,17.711540875,58.711231,18.109155875C58.711231,18.507639875000002,58.446739,18.773006875,58.049992,18.773006875C57.653248,18.773006875,57.388752,18.507639875000002,57.388752,18.109155875ZM56.066269,18.109155875C56.066269,19.237614875,56.92588,20.098967875,58.049992,20.098967875C59.174103,20.098967875,60.033718,19.237614875,60.033718,18.109155875C60.033718,16.981565875,59.174976,16.119341875,58.049992,16.119341875C56.925884,16.119341875,56.066269,16.980695875000002,56.066269,18.109155875ZM9.718503,9.220684075C9.718503,9.618298575,9.9829988,9.883665075,10.379744,9.883665075C10.777358,9.883665075,11.040984,9.618298575,11.040984,9.220684075L11.040984,8.424584675L11.834474,8.424584675C12.231218,8.424584675,12.495714,8.159218075,12.495714,7.761603375C12.495714,7.363118675,12.231218,7.097752075,11.834474,7.097752075L11.040984,7.097752075L11.040984,6.301652965C11.040984,5.903168235,10.777358,5.638671875,10.379744,5.638671875C9.9829988,5.638671875,9.718503,5.903168265,9.718503,6.301652965L9.718503,7.097752375L8.9250135,7.097752375C8.5291395,7.097752375,8.263772,7.363118775,8.263772,7.7616035750000005C8.263772,8.159218075,8.5291395,8.424584675,8.9250135,8.424584675L9.7193727,8.424584675L9.7193727,9.220684075L9.718503,9.220684075ZM7.3397751,27.794595875L7.3397751,26.998494875C7.3397751,26.600009875,7.0752783,26.335513875,6.6785345,26.335513875C6.2817898,26.335513875,6.0172935,26.600009875,6.0172935,26.998494875L6.0172935,27.794595875L5.223804,27.794595875C4.8270597,27.794595875,4.5625629,28.059959875,4.5625634,28.458446875C4.5625634,28.856059875,4.8270597,29.121427875,5.223804,29.121427875L6.0172935,29.121427875L6.0172935,29.916656875C6.0172935,30.315141875,6.2817898,30.580506875,6.6785345,30.580506875C7.0752783,30.580506875,7.3397751,30.315141875,7.3397751,29.916656875L7.3397751,29.121427875L8.1332645,29.121427875C8.5300083,29.121427875,8.7945051,28.856061875,8.7945051,28.458446875C8.7945051,28.059959875,8.5300083,27.794595875,8.1332645,27.794595875L7.3397751,27.794595875Z" fill="#97C4FF" fill-opacity="1" style="mix-blend-mode:passthrough"/></g></g></svg>