<svg xmlns="http://www.w3.org/2000/svg" xmlns:xlink="http://www.w3.org/1999/xlink" fill="none" version="1.1" width="20" height="20" viewBox="0 0 20 20"><defs><clipPath id="master_svg0_1348_24035"><rect x="0" y="0" width="20" height="20" rx="0"/></clipPath></defs><g clip-path="url(#master_svg0_1348_24035)"><g><path d="M12.363636,2C12.664882,2,12.909091,2.24420825,12.909091,2.54545456C12.909091,2.84670085,12.664882,3.0909091,12.363636,3.0909091L7.6363635,3.0909091C7.3351178,3.0909091,7.090909,2.84670085,7.090909,2.54545456C7.090909,2.24420825,7.3351178,2,7.6363635,2L12.363636,2ZM2.54545456,5.2727273C2.24420825,5.2727273,2,5.0285189,2,4.7272727C2,4.4260266,2.24420825,4.1818182,2.54545456,4.1818182L17.454545,4.1818182C17.755792,4.1818182,18,4.4260266,18,4.7272727C18,5.0285189,17.755792,5.2727273,17.454545,5.2727273L16.545454,5.2727273L16.545454,15.818181C16.545454,17.023167,15.568621,18,14.363636,18L5.6363635,18C4.4313784,18,3.4545453999999998,17.023167,3.4545453999999998,15.818181L3.4545453999999998,5.2727273L2.54545456,5.2727273ZM8,8Q9,8,9,8.5625L9,13.4375Q9,14,8,14Q7,14,7,13.4375L7,8.5625Q7,8,8,8ZM13,8.5625Q13,8,12,8Q11,8,11,8.5625L11,13.4375Q11,14,12,14Q13,14,13,13.4375L13,8.5625Z" fill-rule="evenodd" fill="#FFFFFF" fill-opacity="1" style="mix-blend-mode:passthrough"/></g></g></svg>