<svg xmlns="http://www.w3.org/2000/svg" xmlns:xlink="http://www.w3.org/1999/xlink" fill="none" version="1.1" width="16" height="16" viewBox="0 0 16 16"><defs><clipPath id="master_svg0_1456_23091"><rect x="0" y="0" width="16" height="16" rx="0"/></clipPath></defs><g clip-path="url(#master_svg0_1456_23091)"><g><path d="M2.03646132625,4.217791275C1.79546426625,4.217791275,1.60009765625,4.022424475,1.60009765625,3.781427575C1.60009765625,3.540430675,1.79546426625,3.345064075,2.03646132625,3.345064075L13.96373365625,3.345064075C14.20473065625,3.345064075,14.40009765625,3.540430675,14.40009765625,3.781427575C14.40009765625,4.022424475,14.20473065625,4.217791275,13.96373365625,4.217791275L13.23646065625,4.217791275L13.23646065625,12.654154375C13.23646065625,13.618143375,12.45499465625,14.399609375,11.49100685625,14.399609375L4.5091884562499995,14.399609375C3.54520035625,14.399609375,2.7637339562500003,13.618143375,2.7637339562500003,12.654154375L2.7637339562500003,4.217791275L2.03646132625,4.217791275ZM9.89100645625,1.599609375C10.13200285625,1.599609375,10.32737065625,1.794975985,10.32737065625,2.035973045C10.32737065625,2.276970085,10.13200285625,2.472336705,9.89100645625,2.472336705L6.10918855625,2.472336705C5.86819215625,2.472336705,5.67282485625,2.276970085,5.67282485625,2.035973045C5.67282485625,1.794975985,5.86819215625,1.599609375,6.10918855625,1.599609375L9.89100645625,1.599609375Z" fill="#131415" fill-opacity="1" style="mix-blend-mode:passthrough"/></g><g><path d="M6.40009766625,6.400390625Q7.20009765625,6.400390625,7.20009765625,6.850390645L7.20009765625,10.750390525Q7.20009765625,11.200390825,6.40009766625,11.200390825Q5.60009765625,11.200390825,5.60009765625,10.750390525L5.60009765625,6.850390645Q5.60009765625,6.400390625,6.40009766625,6.400390625Z" fill="#FFFFFF" fill-opacity="1" style="mix-blend-mode:passthrough"/></g><g><path d="M9.5998046975,6.400390625Q10.3998046875,6.400390625,10.3998046875,6.850390645L10.3998046875,10.750390525Q10.3998046875,11.200390825,9.5998046975,11.200390825Q8.7998046875,11.200390825,8.7998046875,10.750390525L8.7998046875,6.850390645Q8.7998046875,6.400390625,9.5998046975,6.400390625Z" fill="#FFFFFF" fill-opacity="1" style="mix-blend-mode:passthrough"/></g></g></svg>