<svg xmlns="http://www.w3.org/2000/svg" xmlns:xlink="http://www.w3.org/1999/xlink" fill="none" version="1.1" width="16" height="16" viewBox="0 0 16 16"><defs><clipPath id="master_svg0_1456_23074"><rect x="0" y="0" width="16" height="16" rx="0"/></clipPath></defs><g clip-path="url(#master_svg0_1456_23074)"><g><path d="M11.85886284375,7.556843300000001L13.59990234375,7.556843300000001L13.59990234375,8.4512711L11.85886284375,8.4512711L11.85886284375,7.556843300000001ZM11.83814244375,7.556843300000001L4.16838224375,7.556843300000001L4.16838224375,4.8086370800000005C4.16838224375,4.35765532,4.51782224375,4,4.94286224375,4L11.05694194375,4C11.48870274375,4,11.83142184375,4.36519086,11.83142184375,4.8086370800000005L11.83814144375,7.556263400000001L11.83814244375,7.556843300000001ZM11.05750274375,12L4.94286224375,12C4.51110244375,12,4.16838224375,11.6348085,4.16838224375,11.1913619L4.16838224375,8.4506917L11.83142184375,8.4506917L11.83142184375,11.1913619C11.83142184375,11.6353884,11.48870274375,12,11.05694194375,12L11.05750274375,12ZM2.39990234375,7.556843300000001L4.11350234375,7.556843300000001L4.11350234375,8.4512711L2.39990234375,8.4512711L2.39990234375,7.556843300000001Z" fill="#151515" fill-opacity="1" style="mix-blend-mode:passthrough"/></g><g><path d="M3.26358527375,4.999910625L2.399920653921,4.999910625L2.399920653921,2.836070625C2.399920653921,2.594150635,2.59297512375,2.400390625,2.83457541375,2.400390625L4.970028843750001,2.400390625L4.970028843750001,3.264470695L3.26358527375,3.264470695L3.26358527375,4.999910625ZM13.59256534375,4.999910625L12.72890034375,4.999910625L12.72890034375,3.264470695L10.96036244375,3.264470695L10.96036244375,2.400390625L13.16411834375,2.400390625C13.40628434375,2.400390625,13.59990234375,2.594150635,13.59990234375,2.836070625L13.59990234375,4.999910625L13.59256534375,4.999910625ZM4.970028843750001,13.600390625L2.83513999375,13.600390625C2.59322348375,13.600399625,2.39772426105,13.404695625,2.39992067411,13.164710625L2.39992067411,10.994151125L3.2635853837499997,10.994151125L3.2635853837499997,12.729030625L4.96269084375,12.729030625L4.96269084375,13.600390625L4.970028843750001,13.600390625ZM13.16411834375,13.600390625L10.96036244375,13.600390625L10.96036244375,12.736311625L12.72890034375,12.736311625L12.72890034375,11.000870725L13.59256534375,11.000870725L13.59256534375,13.171991625C13.59256534375,13.407191625,13.39951034375,13.600390625,13.16411834375,13.600390625Z" fill="#151515" fill-opacity="1" style="mix-blend-mode:passthrough"/></g></g></svg>