<svg xmlns="http://www.w3.org/2000/svg" xmlns:xlink="http://www.w3.org/1999/xlink" fill="none" version="1.1" width="31.9999942779541" height="32" viewBox="0 0 31.9999942779541 32"><defs><clipPath id="master_svg0_1456_23212"><rect x="0" y="0" width="31.9999942779541" height="32" rx="0"/></clipPath></defs><g clip-path="url(#master_svg0_1456_23212)"><g><path d="M25.462801,4C26.346096,3.9999990844729,27.062149,4.71604955,27.062149,5.5993433L27.062149,26.375311C27.061773,27.258329,26.345833,27.973961,25.462801,27.973961L6.2868119,27.973961C5.403799,27.973948,4.68787872299,27.258316,4.6875,26.375311L4.6875,5.5993433C4.687516479487,4.71604544,5.403548,3.99999969482431,6.2868119,4L25.463493,4L25.462801,4ZM10.2821541,13.5886545C9.3992972,13.5901432,8.6828103,12.8748569,8.6828103,11.991997699999999L8.6828103,5.5986557999999995L6.2868106,5.5986557999999995L6.2868106,26.375334L25.466805,26.375334L25.466805,5.5993433L23.069529,5.5993433L23.069529,11.9893408C23.069508,12.8726225,22.353464,13.5886545,21.470181,13.5886545L10.2821541,13.5886545ZM10.2821541,11.991997699999999L21.469492,11.991997699999999L21.469492,5.5986557999999995L10.2821541,5.5986557999999995L10.2821541,11.991997699999999ZM21.466837,18.382652C21.920206,18.363516,22.298414,18.725493,22.29917,19.179268999999998C22.299927,19.633043,21.922928,19.996277,21.469492,19.978650000000002L10.2821541,19.978650000000002C9.841432099999999,19.978652,9.484154199999999,19.621377000000003,9.484154199999999,19.180653C9.484154199999999,18.73993,9.841432099999999,18.382652,10.2821541,18.382652L21.466837,18.382652Z" fill="#FFFFFF" fill-opacity="1" style="mix-blend-mode:passthrough"/><path d="M26.735132,4.32701457Q26.208359,3.80024335,25.463493,3.8000001L25.462803,3.79999998L6.2868121,3.80000037Q5.54152018,3.79999992,5.01451546,4.32701495Q4.4875139,4.85402673,4.48749998,5.5993434L4.48749974,26.375399Q4.4878194,27.12047,5.01477587,27.647209Q5.54173398,28.173952,6.2868121,28.173962L25.462803,28.173962Q26.207893,28.173962,26.734863,27.647223Q27.261833,27.12048,27.262152,26.375313L27.262152,5.5993434Q27.262152,4.85403073,26.735132,4.32701457ZM25.463493,4.20000002L25.462803,4.20000002L6.2868118,4.20000039Q5.7072078,4.20000005,5.2973609,4.60985494Q4.88751082,5.019713,4.88750002,5.5993434L4.88749973,26.375227Q4.88774838,26.954664,5.29756039,27.364307Q5.7073747,27.773954,6.2868121,27.773962L25.462803,27.773962Q26.042257,27.773962,26.452082,27.364317Q26.861904,26.954672,26.862152,26.375313L26.862152,5.5993434Q26.862152,5.0197155,26.452291,4.60985786Q26.042677,4.20024355,25.463493,4.20000002ZM22.45966,12.9788055Q22.049801,13.3886547,21.470181,13.3886547L10.2821546,13.3886547Q9.7026167,13.3896313,9.292713599999999,12.9804163Q8.8828111,12.5712013,8.8828111,11.991997699999999L8.8828106,5.3986559L6.0868107,5.3986559L6.0868107,26.575335L25.666805,26.575335L25.666805,5.3993435000000005L22.86953,5.3993435000000005L22.86953,11.9893413Q22.869516,12.5689573,22.45966,12.9788055ZM21.669493,5.3986559L10.0821548,5.3986559L10.0821548,12.1919985L21.669493,12.1919985L21.669493,5.3986559ZM10.2821546,13.7886553L21.470181,13.7886553Q22.215485,13.7886553,22.7425,13.261651Q23.269512,12.7346497,23.269529,11.9893413L23.269529,5.7993435L25.266806,5.7993435L25.266806,26.175335L6.4868108,26.175335L6.4868108,5.7986559L8.4828105,5.7986559L8.4828112,11.991997699999999Q8.4828107,12.7370844,9.010108500000001,13.2634974Q9.5374074,13.7899113,10.2821546,13.7886553ZM10.4821548,5.7986559L21.269493,5.7986559L21.269493,11.7919984L10.4821548,11.7919984L10.4821548,5.7986559ZM21.462826,18.182651999999997L10.2821546,18.182651999999997Q9.868770099999999,18.182651999999997,9.5764623,18.474961Q9.2841544,18.767268,9.2841544,19.180654Q9.2841544,19.59404,9.5764627,19.886346Q9.868770600000001,20.178654,10.2821546,20.17865L21.465727,20.17865Q21.888405,20.19364,22.19342,19.899763Q22.499882,19.604494000000003,22.49917,19.178936999999998Q22.498463,18.753379000000002,22.191023,18.459131Q21.885183,18.166417,21.462826,18.182651999999997ZM9.8593049,18.757804Q10.0344567,18.582652,10.2821546,18.582652L21.471056,18.582652L21.475271,18.582475000000002Q21.730148,18.571717,21.914448,18.748106999999997Q22.098745,18.924497000000002,22.099171,19.179602Q22.099596,19.434708,21.915886,19.611710000000002Q21.732176,19.788712,21.477261,19.778801L21.473379,19.77865L10.2821546,19.77865Q10.0344543,19.778652,9.8593044,19.603503Q9.6841545,19.428353,9.6841545,19.180654Q9.6841545,18.932955,9.8593049,18.757804Z" fill-rule="evenodd" fill="#FFFFFF" fill-opacity="1"/></g></g></svg>