<svg xmlns="http://www.w3.org/2000/svg" xmlns:xlink="http://www.w3.org/1999/xlink" fill="none" version="1.1" width="36" height="36" viewBox="0 0 36 36"><g><g></g><g><g><path d="M32.002877999999995,17.54323L24.978975,17.54323L24.978975,27.932854C24.978975,28.48374,24.532598,28.930321,23.981966,28.930321L12.0178642,28.930321C11.4672308,28.930321,11.0208559,28.48374,11.0208559,27.932854L11.0208559,17.54323L3.99695337,17.54323C3.59395176,17.54323,3.23058064,17.300505,3.076101474,16.928116C2.921622306,16.555726,3.0064175692,16.126915,3.29098889,15.841426L17.293952,1.7932809C17.481006999999998,1.60562341,17.735016,1.50015493637,17.999917,1.50015494751C18.264815,1.50015495869,18.518826,1.60562348,18.705879,1.7932809L32.708841,15.841426C32.993414,16.126914,33.078210999999996,16.555726,32.923731000000004,16.928115C32.769253,17.300504,32.405879999999996,17.54323,32.002877999999995,17.54323ZM24.978975,15.548299L29.60058,15.548299L17.999915,3.9102049L6.3992529000000005,15.548299L11.0208559,15.548299C12.1221209,15.548299,13.014873,16.441461,13.014873,17.54323L13.014873,26.935389L22.984957,26.935389L22.984957,17.54323C22.984957,16.441461,23.877708,15.548299,24.978975,15.548299ZM4.0419304,32.505859L31.958168,32.505859C32.508801,32.505859,32.955177,32.952439999999996,32.955177,33.503326C32.955177,34.054211,32.508801,34.500793,31.958168,34.500793L4.0419304,34.500793C3.49129775,34.500793,3.044921875,34.054211,3.044921875,33.503326C3.044921875,32.952439999999996,3.49129775,32.505859,4.0419304,32.505859Z" fill-rule="evenodd" fill="#FFFFFF" fill-opacity="1"/></g></g></g></svg>