<svg xmlns="http://www.w3.org/2000/svg" xmlns:xlink="http://www.w3.org/1999/xlink" fill="none" version="1.1" width="32" height="32" viewBox="0 0 32 32"><g><g></g><g><g><path d="M15.99999503088379,29.33332403088379C23.36379203088379,29.33332403088379,29.33332403088379,23.36379203088379,29.33332403088379,15.99999503088379C29.33332403088379,8.636200930883788,23.36379203088379,2.666666030883789,15.99999503088379,2.666666030883789C8.636200930883788,2.666666030883789,2.666666030883789,8.636200930883788,2.666666030883789,15.99999503088379C2.666666030883789,23.36379203088379,8.636200930883788,29.33332403088379,15.99999503088379,29.33332403088379ZM15.99999503088379,4.444443330883789C22.381952030883788,4.444443330883789,27.55554603088379,9.618040130883788,27.55554603088379,15.99999503088379C27.55554603088379,22.381952030883788,22.381952030883788,27.55554603088379,15.99999503088379,27.55554603088379C9.618040130883788,27.55554603088379,4.444443330883789,22.381952030883788,4.444443330883789,15.99999503088379C4.444443330883789,9.618040130883788,9.618040130883788,4.444443330883789,15.99999503088379,4.444443330883789Z" fill-rule="evenodd" fill="#FFFFFF" fill-opacity="1"/></g><g transform="matrix(-1,0,0,1,31.999990463256836,0)"><path d="M25.777770031628418,15.999997359255982C25.777770031628418,21.40011265925598,21.400110731628416,25.77777365925598,15.999995284610304,25.77777365925598Q15.999561204018418,23.55555265925598,15.999995231628418,15.999997359255982Q15.999965190896418,9.333331559255981,15.999995284610304,6.2222206592559814C21.400110731628416,6.2222206592559814,25.777770031628418,10.599880459255981,25.777770031628418,15.999997359255982Z" fill="#FFFFFF" fill-opacity="1"/></g></g></g></svg>