<svg xmlns="http://www.w3.org/2000/svg" xmlns:xlink="http://www.w3.org/1999/xlink" fill="none" version="1.1" width="24" height="24" viewBox="0 0 24 24"><defs><clipPath id="master_svg0_1456_23048"><rect x="0" y="0" width="24" height="24" rx="0"/></clipPath><clipPath id="master_svg1_1456_23049/58_05579"><rect x="0" y="0" width="24" height="24" rx="0"/></clipPath></defs><g clip-path="url(#master_svg0_1456_23048)"><g><g clip-path="url(#master_svg1_1456_23049/58_05579)"><g><path d="M17.679222098937988,4.132440015678405C17.679222098937988,4.132440015678405,17.679222098937988,2.0619041056784058,17.679222098937988,2.0619041056784058C17.679222098937988,1.8824397956784058,17.472972098937987,1.7833325486784057,17.33368609893799,1.8931539916784057C17.33368609893799,1.8931539916784057,5.258683918937988,11.324404615678406,5.258683918937988,11.324404615678406C5.156089948937988,11.404189915678407,5.073074668937989,11.506353215678406,5.015970244937988,11.623102115678405C4.958865811937988,11.739850915678407,4.929181098937987,11.868100015678406,4.929181098937988,11.998066015678406C4.929181098937987,12.128033015678406,4.958865811937988,12.256282015678405,5.015970244937988,12.373030015678406C5.073074668937989,12.489778015678406,5.156089948937988,12.591942015678406,5.258683918937988,12.671726015678406C5.258683918937988,12.671726015678406,17.33368609893799,22.102978015678406,17.33368609893799,22.102978015678406C17.47565009893799,22.212799015678407,17.679222098937988,22.113693015678408,17.679222098937988,21.934229015678405C17.679222098937988,21.934229015678405,17.679222098937988,19.863691015678405,17.679222098937988,19.863691015678405C17.679222098937988,19.732441015678404,17.617616098937987,19.606550015678405,17.51583009893799,19.526192015678404C17.51583009893799,19.526192015678404,7.872970098937989,11.999405015678406,7.872970098937989,11.999405015678406C7.872970098937989,11.999405015678406,17.51583009893799,4.469939815678406,17.51583009893799,4.469939815678406C17.617616098937987,4.389582515678406,17.679222098937988,4.263690115678406,17.679222098937988,4.132440015678405C17.679222098937988,4.132440015678405,17.679222098937988,4.132440015678405,17.679222098937988,4.132440015678405Z" fill="#FFFFFF" fill-opacity="1"/></g></g></g></g></svg>