<svg xmlns="http://www.w3.org/2000/svg" xmlns:xlink="http://www.w3.org/1999/xlink" fill="none" version="1.1" width="32" height="32" viewBox="0 0 32 32"><g><g></g><g><path d="M26.673827241531374,23.962821974243163C28.25796624153137,21.855853974243164,29.23347024153137,19.259477974243165,29.32966324153137,16.426275974243165C29.579263241531372,9.074691774243163,23.813994241531372,2.9123713042431643,16.452570241531372,2.662348821743164C13.107001241531371,2.548720304243164,10.007525241531372,3.675808274243164,7.598037441531372,5.629426974243164L8.452650341531372,7.230746774243164C10.576247441531372,5.401403674243165,13.368282241531372,4.334470274243164,16.392311241531374,4.437178174243164C22.64673524153137,4.649602574243164,27.571715241531372,9.786449874243164,27.559211241531372,15.991220974243165L22.218783241531373,15.991220974243165L26.663226241531373,23.991220974243163L26.670798241531372,23.957145974243165L26.673827241531374,23.962821974243163ZM5.2196784415313715,8.129669674243164L5.223755341531373,8.137309074243163L5.2265145415313725,8.124363374243163L9.770565241531372,15.982643974243164L4.442028141531372,15.982750974243164C4.443749141531372,22.175490974243164,9.363533241531371,27.297839974243164,15.608941241531372,27.509961974243165C18.57281624153137,27.610623974243165,21.313823241531374,26.587729974243164,23.42107324153137,24.824668974243163L24.27337424153137,26.421658974243165C21.882865241531373,28.311221974243164,18.83446424153137,29.396390974243165,15.548682241531372,29.284795974243163C8.187259441531372,29.034770974243163,2.421988341531372,22.872447974243165,2.671590104731372,15.520864974243164C2.765583101531372,12.752463974243165,3.6991206415313718,10.210191774243164,5.2196784415313715,8.129669674243164Z" fill-rule="evenodd" fill="#FFFFFF" fill-opacity="1"/></g></g></svg>