<svg xmlns="http://www.w3.org/2000/svg" xmlns:xlink="http://www.w3.org/1999/xlink" fill="none" version="1.1" width="32" height="32" viewBox="0 0 32 32"><g><g></g><g><g><path d="M3.5555546283721924,12.108095046946715L3.5555546283721924,8.456443146946716C3.5555546283721924,6.492764246946717,5.147430228372192,4.900887846946716,7.111108528372192,4.900887846946716L10.672221428372193,4.900887846946716C12.635897828372192,4.900887846946716,14.227774628372192,6.492764246946717,14.227774628372192,8.456443146946716L14.227774628372192,12.108095046946715C14.227774628372192,14.071773846946716,12.635897828372192,15.663649846946717,10.672221428372193,15.663649846946717L7.111108528372192,15.663649846946717C5.147430228372192,15.663649846946717,3.5555546283721924,14.071773846946716,3.5555546283721924,12.108095046946715ZM5.333331628372193,12.108095046946715Q5.333331628372193,12.844476546946716,5.854030628372192,13.365172746946715Q6.3747298283721925,13.885872246946716,7.111108528372192,13.885872246946716L10.672221428372193,13.885872246946716Q11.408601028372193,13.885872246946716,11.929300528372192,13.365172746946715Q12.449999128372193,12.844476146946716,12.449999128372193,12.108095046946715L12.449999128372193,8.456443146946716Q12.449999128372193,7.720064046946716,11.929300528372192,7.1993645469467165Q11.408601028372193,6.678665546946716,10.672221428372193,6.678665546946716L7.111108528372192,6.678665546946716Q6.374728928372193,6.678665546946716,5.854030628372192,7.199364346946716Q5.333331628372193,7.720063546946717,5.333331628372193,8.456443146946716L5.333331628372193,12.108095046946715Z" fill-rule="evenodd" fill="#FFFFFF" fill-opacity="1"/></g><g><path d="M3.5555546283721924,24.88887929625244L3.5555546283721924,21.237227396252443C3.5555546283721924,19.27354849625244,5.147430228372192,17.68167209625244,7.111108528372192,17.68167209625244L10.672221428372193,17.68167209625244C12.635897828372192,17.68167209625244,14.227774628372192,19.27354849625244,14.227774628372192,21.237227396252443L14.227774628372192,24.88887929625244C14.227774628372192,26.85255809625244,12.635897828372192,28.444434096252444,10.672221428372193,28.444434096252444L7.111108528372192,28.444434096252444C5.147430228372192,28.444434096252444,3.5555546283721924,26.85255809625244,3.5555546283721924,24.88887929625244ZM5.333331628372193,24.88887929625244Q5.333331628372193,25.62526079625244,5.854030628372192,26.14595699625244Q6.3747298283721925,26.666656496252443,7.111108528372192,26.666656496252443L10.672221428372193,26.666656496252443Q11.408601028372193,26.666656496252443,11.929300528372192,26.14595699625244Q12.449999128372193,25.625260396252443,12.449999128372193,24.88887929625244L12.449999128372193,21.237227396252443Q12.449999128372193,20.500848296252443,11.929300528372192,19.980148796252443Q11.408601028372193,19.459449796252443,10.672221428372193,19.459449796252443L7.111108528372192,19.459449796252443Q6.374728928372193,19.459449796252443,5.854030628372192,19.98014859625244Q5.333331628372193,20.50084779625244,5.333331628372193,21.237227396252443L5.333331628372193,24.88887929625244Z" fill-rule="evenodd" fill="#FFFFFF" fill-opacity="1"/></g><g><path d="M16.895832300186157,24.88887929625244L16.895832300186157,21.237227396252443C16.895832300186157,19.27354849625244,18.48770790018616,17.68167209625244,20.451386200186157,17.68167209625244L24.012499100186158,17.68167209625244C25.97617550018616,17.68167209625244,27.568052300186157,19.27354849625244,27.568052300186157,21.237227396252443L27.568052300186157,24.88887929625244C27.568052300186157,26.85255809625244,25.97617550018616,28.444434096252444,24.012499100186158,28.444434096252444L20.451386200186157,28.444434096252444C18.48770790018616,28.444434096252444,16.895832300186157,26.85255809625244,16.895832300186157,24.88887929625244ZM18.673609300186158,24.88887929625244Q18.673609300186158,25.62526079625244,19.194308300186158,26.14595699625244Q19.715007500186157,26.666656496252443,20.451386200186157,26.666656496252443L24.012499100186158,26.666656496252443Q24.748878700186157,26.666656496252443,25.269578200186157,26.14595699625244Q25.790276800186156,25.625260396252443,25.790276800186156,24.88887929625244L25.790276800186156,21.237227396252443Q25.790276800186156,20.500848296252443,25.269578200186157,19.980148796252443Q24.748878700186157,19.459449796252443,24.012499100186158,19.459449796252443L20.451386200186157,19.459449796252443Q19.715006600186157,19.459449796252443,19.194308300186158,19.98014859625244Q18.673609300186158,20.50084779625244,18.673609300186158,21.237227396252443L18.673609300186158,24.88887929625244Z" fill-rule="evenodd" fill="#FFFFFF" fill-opacity="1"/></g><g transform="matrix(0.704113781452179,-0.7100871205329895,0.704113781452179,0.7100871801376343,-2.5542383169417775,13.99779624096432)"><path d="M15.561805009841919,15.59689764581909L15.561805009841919,13.722609245819092C15.561805009841919,11.758929245819091,17.153680409841918,10.167052745819092,19.11735920984192,10.167052745819092L21.31708690984192,10.167052745819092C23.280765809841917,10.167052745819092,24.87263990984192,11.758929245819091,24.87263990984192,13.722609245819092L24.87263990984192,15.59689764581909C24.87263990984192,17.56057734581909,23.280765809841917,19.152452945819093,21.31708690984192,19.152452945819093L19.11735920984192,19.152452945819093C17.153680409841918,19.152452945819093,15.561805009841919,17.56057734581909,15.561805009841919,15.59689764581909ZM17.33958210984192,15.59689764581909Q17.33958210984192,16.33327724581909,17.86028150984192,16.85397624581909Q18.38098000984192,17.37467574581909,19.11735920984192,17.37467574581909L21.31708690984192,17.37467574581909Q22.05346650984192,17.37467574581909,22.57416510984192,16.85397624581909Q23.09486270984192,16.333278645819092,23.09486270984192,15.59689764581909L23.09486270984192,13.722609245819092Q23.09486270984192,12.986227945819092,22.57416510984192,12.465529945819092Q22.05346650984192,11.944831045819091,21.31708690984192,11.944831045819091L19.11735920984192,11.944831045819091Q18.38097930984192,11.944831045819091,17.86028100984192,12.465530345819092Q17.33958210984192,12.986229445819092,17.33958210984192,13.722609245819092L17.33958210984192,15.59689764581909Z" fill-rule="evenodd" fill="#FFFFFF" fill-opacity="1"/></g></g></g></svg>