<svg xmlns="http://www.w3.org/2000/svg" xmlns:xlink="http://www.w3.org/1999/xlink" fill="none" version="1.1" width="24" height="24" viewBox="0 0 24 24"><defs><clipPath id="master_svg0_1370_22984"><rect x="24" y="0" width="24" height="24" rx="0"/></clipPath></defs><g transform="matrix(-1,0,0,1,48,0)" clip-path="url(#master_svg0_1370_22984)"><g></g><g><path d="M28,4.5L43.999998000000005,4.5C44.414211,4.5,44.749998000000005,4.8357864,44.749998000000005,5.25C44.749998000000005,5.6642136999999995,44.414211,6,43.999998000000005,6L28,6C27.5857864,6,27.25,5.6642136999999995,27.25,5.25C27.25,4.8357864,27.5857864,4.5,28,4.5Z" fill-rule="evenodd" fill="#AFAFB6" fill-opacity="1"/></g><g><path d="M36,9L43.999999,9C44.4142122,9,44.749999,9.3357864,44.749999,9.75C44.749999,10.1642137,44.4142122,10.5,43.999999,10.5L36,10.5C35.5857864,10.5,35.25,10.1642137,35.25,9.75C35.25,9.3357864,35.5857864,9,36,9Z" fill-rule="evenodd" fill="#AFAFB6" fill-opacity="1"/></g><g><path d="M36,13.5L43.999999,13.5C44.4142122,13.5,44.749999,13.8357864,44.749999,14.25C44.749999,14.6642137,44.4142122,15,43.999999,15L36,15C35.5857864,15,35.25,14.6642137,35.25,14.25C35.25,13.8357864,35.5857864,13.5,36,13.5Z" fill-rule="evenodd" fill="#AFAFB6" fill-opacity="1"/></g><g><path d="M28,18L43.999998000000005,18C44.414211,18,44.749998000000005,18.3357864,44.749998000000005,18.75C44.749998000000005,19.1642137,44.414211,19.5,43.999998000000005,19.5L28,19.5C27.5857864,19.5,27.25,19.1642137,27.25,18.75C27.25,18.3357864,27.5857864,18,28,18Z" fill-rule="evenodd" fill="#AFAFB6" fill-opacity="1"/></g><g transform="matrix(-1,0,0,-1,64,29.000001907348633)"><path d="M32,14.500000953674316C32,14.500000953674316,36,17.000001153674315,36,17.000001153674315C36,17.000001153674315,32,19.500001453674315,32,19.500001453674315C32,19.500001453674315,32,14.500000953674316,32,14.500000953674316Z" fill="#AFAFB6" fill-opacity="1"/></g><g transform="matrix(-1,0,0,-1,65.5,30.500001907348633)"><path d="M32.75,21.000001453674315L32.75,16.000000953674316C32.75,15.585787353674316,33.0857864,15.250000953674316,33.5,15.250000953674316C33.6405648,15.250000953674316,33.7783005,15.289503037674317,33.8974992,15.364002223674316L37.8974991,17.864002453674317C38.2487516,18.083535153674315,38.3555312,18.546247953674317,38.1359987,18.897500553674316C38.0756383,18.994077253674316,37.9940758,19.075639453674317,37.8974991,19.135999953674315L33.8974992,21.636000153674317C33.54624677,21.855532653674317,33.08353406,21.748753053674317,32.86400127,21.397500553674316C32.789502084,21.278301753674317,32.75,21.140565853674318,32.75,21.000001453674315ZM36.084903,18.500001153674315L34.25,19.646815253674315L34.25,17.353186653674317L36.084903,18.500001153674315Z" fill-rule="evenodd" fill="#AFAFB6" fill-opacity="1"/></g></g></svg>