<svg xmlns="http://www.w3.org/2000/svg" xmlns:xlink="http://www.w3.org/1999/xlink" fill="none" version="1.1" width="36" height="36" viewBox="0 0 36 36"><g><g><path d="M9.599999809265137,7.199999809265137L26.399999809265136,7.199999809265137Q28.799999809265138,7.199999809265137,28.799999809265138,9.599999809265137L28.799999809265138,19.199999809265137Q28.799999809265138,21.599999809265135,26.399999809265136,21.599999809265135L9.599999809265137,21.599999809265135Q7.199999809265137,21.599999809265135,7.199999809265137,19.199999809265137L7.199999809265137,9.599999809265137Q7.199999809265137,7.199999809265137,9.599999809265137,7.199999809265137Z" fill="#FFFFFF" fill-opacity="1" style="mix-blend-mode:passthrough"/></g><g><g><path d="M32.4,28.8L3.6,28.8C1.61177,28.8,0,27.1882,0,25.2L0,3.6C0,1.61177,1.61177,0,3.6,0L32.4,0C34.3882,0,36,1.61177,36,3.6L36,25.2C36,27.1882,34.3882,28.8,32.4,28.8ZM3.6,2.4C2.93726,2.4,2.4,2.93726,2.4,3.6L2.4,25.2C2.4,25.8627,2.93726,26.4,3.6,26.4L32.4,26.4C33.0627,26.4,33.6,25.8627,33.6,25.2L33.6,3.6C33.6,2.93726,33.0627,2.4,32.4,2.4L3.6,2.4Z" fill="#FFFFFF" fill-opacity="1" style="mix-blend-mode:passthrough"/></g><g><path d="M16.762599427795408,27.000389099121094L19.237699427795413,27.000389099121094L19.23749942779541,33.524999099121096L16.76249942779541,33.524999099121096L16.762599427795408,27.000389099121094ZM9.33749942779541,33.524999099121096L26.66249942779541,33.524999099121096C27.34599942779541,33.524999099121096,27.89999942779541,34.07904909912109,27.89999942779541,34.762499099121094C27.89999942779541,35.445949099121094,27.34599942779541,35.9999990991211,26.66249942779541,35.9999990991211L9.33749942779541,35.9999990991211C8.65404742779541,35.9999990991211,8.09999942779541,35.445949099121094,8.09999942779541,34.762499099121094C8.09999942779541,34.07904909912109,8.65404642779541,33.524999099121096,9.33749942779541,33.524999099121096Z" fill="#FFFFFF" fill-opacity="1" style="mix-blend-mode:passthrough"/></g></g></g></svg>