<svg xmlns="http://www.w3.org/2000/svg" xmlns:xlink="http://www.w3.org/1999/xlink" fill="none" version="1.1" width="41" height="41" viewBox="0 0 41 41"><g><g><path d="M24.1036,21.2174C20.8407,23.4964,18.6793,27.3089,18.6793,31.6599C18.6793,33.9805,19.2914,36.1354,20.3513,38L1.38671,38C0.611538,38,0,37.337,0,36.467L0,34.5607C0,34.4366,0.0405385,34.2709,0.0815714,34.1051C0.489428,32.8207,1.34568,31.7016,2.65132,30.707C3.67071,29.9611,4.93482,29.298,6.44414,28.7596C8.76867,27.9308,11.2158,27.5992,12.0315,27.5164C12.0721,27.5164,11.991,25.3615,12.0315,25.3198Q12.0315,24.5327,11.5831,24.0349Q11.5831,23.9937,11.5426,23.9937C10.1964,22.8334,9.05492,21.2174,8.2392,19.2695C8.19866,19.2283,8.15763,19.1866,8.11709,19.1866C6.93406,19.0208,5.87363,17.7359,5.50681,16.0371C5.09895,14.1721,5.54735,12.3904,6.64881,11.6862C6.68935,11.6445,6.73038,11.6033,6.73038,11.5204C6.68984,7.95654,7.50556,5.09741,9.25909,3.06658C11.4205,0.538975,14.4386,0,16.6411,0C18.8024,0,21.8616,0.538975,24.1046,3.14946C25.8176,5.17979,26.6743,7.99773,26.6333,11.6028C26.6333,11.644,26.6743,11.7274,26.7149,11.7685C27.7753,12.4728,28.2647,14.2133,27.8569,16.1195C27.4895,17.8183,26.3886,19.1032,25.2466,19.269C25.206,19.269,25.124,19.3102,25.124,19.3519C24.7972,20.0154,24.4704,20.6373,24.1036,21.2174Z" fill="#FFFFFF" fill-opacity="1" style="mix-blend-mode:passthrough"/></g><g><path d="M31.499850000000002,41C26.23149,41,22,36.727199999999996,22,31.5C22,26.23155,26.27272,22,31.499850000000002,22C36.727000000000004,22,40.999700000000004,26.27279,40.999700000000004,31.5C41.0409,36.7684,36.7682,41,31.499850000000002,41ZM35.4824,30.172449999999998L32.8691,30.172449999999998L32.8691,27.5586C32.8691,26.81185,32.2883,26.23105,31.54159,26.23105C30.79486,26.23105,30.21406,26.81185,30.21406,27.5586L30.21406,30.172449999999998L27.55901,30.172449999999998C26.81228,30.172449999999998,26.23149,30.75325,26.23149,31.5C26.23149,32.246700000000004,26.81228,32.8275,27.55901,32.8275L30.21406,32.8275L30.21406,35.4826C30.21406,36.2294,30.79486,36.8102,31.54159,36.8102C32.2883,36.8102,32.8691,36.2294,32.8691,35.4826L32.8691,32.8275L35.4824,32.8275C36.2292,32.8275,36.81,32.246700000000004,36.81,31.5C36.81,30.75325,36.2292,30.172449999999998,35.4824,30.172449999999998Z" fill="#FFFFFF" fill-opacity="1" style="mix-blend-mode:passthrough"/></g></g></svg>