<svg xmlns="http://www.w3.org/2000/svg" xmlns:xlink="http://www.w3.org/1999/xlink" fill="none" version="1.1" width="16" height="16" viewBox="0 0 16 16"><defs><linearGradient x1="0.5" y1="0" x2="0.5" y2="1" id="master_svg0_107_1613"><stop offset="0%" stop-color="#F4FCFF" stop-opacity="1"/><stop offset="100%" stop-color="#086BED" stop-opacity="1"/></linearGradient></defs><g><g></g><g><path d="M2.75806,12.7788L9.8871,12.7788L9.8871,3.22079L2.75806,3.22079L2.75806,12.7788ZM2.129032,2L10.51566,2C10.8631,2,11.14469,2.273149,11.14469,2.61017L11.14469,13.3885C11.14469,13.7255,10.8631,13.9986,10.51566,13.9986L2.129032,13.9986C1.7815940000000001,13.9986,1.5,13.7255,1.5,13.3885L1.5,2.61017C1.500466482,2.273149,1.7815940000000001,2,2.129032,2ZM11.14516,12.7788L13.2419,12.7788L13.2419,8.10169L11.14516,8.10169L11.14516,12.7788ZM10.51613,6.88136L13.871,6.88136C14.2184,6.88136,14.5,7.15451,14.5,7.49153L14.5,13.3889C14.5,13.7259,14.2184,13.9991,13.871,13.9991L10.51613,13.9991C10.16869,13.9991,9.8871,13.7259,9.8871,13.3889L9.8871,7.49153C9.8871,7.15451,10.16869,6.88136,10.51613,6.88136ZM5.90322,10.33898L5.90322,12.7797L6.74193,12.7797L6.74193,10.33898L5.90322,10.33898ZM5.48387,9.11864L7.16129,9.11864C7.62454,9.11864,8,9.48284,8,9.9322L8,13.1864C8,13.6358,7.62454,14,7.16129,14L5.48387,14C5.02062,14,4.645160000000001,13.6358,4.645160000000001,13.1864L4.645160000000001,9.9322C4.645160000000001,9.48284,5.02062,9.11864,5.48387,9.11864ZM4.43548,5.67551L4.43548,4.45517L8.209679999999999,4.45517L8.209679999999999,5.67551L4.43548,5.67551ZM4.43548,7.73387L4.43548,6.51353L8.209679999999999,6.51353L8.209679999999999,7.73387L4.43548,7.73387Z" fill="url(#master_svg0_107_1613)" fill-opacity="1"/></g></g></svg>