<svg xmlns="http://www.w3.org/2000/svg" xmlns:xlink="http://www.w3.org/1999/xlink" fill="none" version="1.1" width="95" height="70" viewBox="0 0 95 70"><defs><linearGradient x1="0.9251821637153625" y1="0.9879999756813049" x2="0.40792229771614075" y2="1" id="master_svg0_118_20404"><stop offset="0%" stop-color="#0077FE" stop-opacity="0"/><stop offset="100%" stop-color="#0077FE" stop-opacity="1"/></linearGradient><linearGradient x1="0.9251821637153625" y1="0.9879999756813049" x2="0.40792229771614075" y2="1" id="master_svg1_118_20404"><stop offset="0%" stop-color="#0077FE" stop-opacity="0"/><stop offset="100%" stop-color="#0077FE" stop-opacity="1"/></linearGradient><linearGradient x1="0.9203914403915405" y1="0.9879999756813049" x2="0.4089598059654236" y2="1" id="master_svg2_118_20360"><stop offset="0%" stop-color="#0077FE" stop-opacity="0"/><stop offset="100%" stop-color="#0077FE" stop-opacity="1"/></linearGradient><linearGradient x1="0.6282235980033875" y1="-0.07520012557506561" x2="0.6282235980033875" y2="1" id="master_svg3_118_20880"><stop offset="0%" stop-color="#3392FF" stop-opacity="1"/><stop offset="100%" stop-color="#56A5FF" stop-opacity="1"/></linearGradient><linearGradient x1="1" y1="0.5" x2="0.35094547271728516" y2="0.5" id="master_svg4_118_20872"><stop offset="0%" stop-color="#56A5FF" stop-opacity="1"/><stop offset="100%" stop-color="#C4E0FF" stop-opacity="1"/></linearGradient></defs><g><g><g><path d="M23.375079232788085,40.20878622314453C23.400679232788086,40.31072622314453,23.432679232788086,40.41903622314453,23.470979232788086,40.53371622314453C23.470979232788086,40.53371622314453,23.547679232788084,40.83956622314453,23.547679232788084,40.83956622314453C23.573279232788085,40.94146622314453,23.586079232788087,41.02426622314453,23.586079232788087,41.087966223144534C23.586079232788087,41.44476622314453,23.490179232788087,41.76016622314453,23.298479232788086,42.03416622314453C23.106679232788085,42.30806622314453,22.857379232788084,42.508766223144534,22.550679232788085,42.63616622314453C22.435579232788086,42.648966223144534,22.314179232788085,42.65536622314453,22.186279232788088,42.65536622314453C22.084079232788085,42.668066223144535,21.968979232788087,42.674466223144535,21.841179232788086,42.674466223144535C21.841179232788086,42.674466223144535,21.476879232788086,42.674466223144535,21.476879232788086,42.674466223144535C21.476879232788086,42.674466223144535,18.485699232788086,42.71266622314453,18.485699232788086,42.71266622314453C18.485699232788086,42.71266622314453,18.485699232788086,45.90466622314453,18.485699232788086,45.90466622314453C18.485699232788086,46.376066223144534,18.495289232788085,46.85076622314453,18.514469232788088,47.328566223144534C18.533639232788087,47.80646622314453,18.556009232788085,48.23646622314453,18.581569232788084,48.61876622314453C18.607139232788086,49.077466223144526,18.639099232788084,49.51706622314453,18.677449232788085,49.93756622314453C18.677449232788085,49.93756622314453,15.916359232788086,49.93756622314453,15.916359232788086,49.93756622314453C15.916359232788086,49.93756622314453,15.973879232788086,49.19216622314453,15.973879232788086,49.19216622314453C15.986669232788085,48.89906622314453,15.999449232788086,48.50086622314453,16.012229232788087,47.99756622314453C16.025019232788086,47.494266223144535,16.031409232788086,46.82206622314453,16.031409232788086,45.98106622314453C16.031409232788086,45.98106622314453,16.031409232788086,43.05666622314453,16.031409232788086,43.05666622314453C15.814099232788086,43.24786622314453,15.571229232788086,43.34336622314453,15.302789232788086,43.34336622314453C15.085479232788085,43.34336622314453,14.896929232788086,43.29246622314453,14.737149232788086,43.19046622314453C14.577359232788087,43.08856622314453,14.446339232788086,42.94836622314453,14.344079232788086,42.76996622314453C14.344079232788086,42.76996622314453,12.177389232788085,42.65536622314453,12.177389232788085,42.65536622314453C11.755559232788086,42.55336622314453,11.404033232788086,42.33996622314453,11.122811232788086,42.01496622314453C10.841590232788086,41.690066223144534,10.700979232788086,41.30466622314453,10.700979232788086,40.85866622314453C10.700979232788086,40.78216622314453,10.707370632788086,40.71210622314453,10.720153432788086,40.64839622314453C10.732936232788086,40.58468622314453,10.752110432788086,40.52097622314453,10.777676032788087,40.45725622314453C10.777676032788087,40.45725622314453,11.257031232788085,39.34867622314453,11.257031232788085,39.34867622314453C11.282596232788086,39.06834622314453,11.362489232788086,38.80712622314453,11.496708232788086,38.56501622314453C11.630928232788087,38.32291622314453,11.800299232788086,38.11266622314453,12.004829232788087,37.93426622314453C12.004829232788087,37.93426622314453,15.015169232788086,32.372216223144534,15.015169232788086,32.372216223144534C15.015169232788086,32.372216223144534,15.034349232788086,32.372216223144534,15.034349232788086,32.372216223144534C15.277219232788086,31.92623622314453,15.564829232788085,31.543965223144532,15.897189232788087,31.22540522314453C16.229539232788085,30.90684622314453,16.657759232788088,30.74756622314453,17.181859232788085,30.74756622314453C17.642039232788086,30.74756622314453,18.054289232788086,30.86861922314453,18.418599232788086,31.11072422314453C18.782899232788086,31.352829223144532,19.054539232788088,31.67138922314453,19.233499232788084,32.06640622314453C19.233499232788084,32.06640622314453,21.649479232788085,36.78745622314453,21.649479232788085,36.78745622314453C22.084079232788085,36.94036622314453,22.441979232788086,37.207956223144535,22.723179232788084,37.59022622314453C23.004379232788086,37.97249622314453,23.145079232788085,38.412106223144534,23.145079232788085,38.909066223144535C23.145079232788085,39.11293622314453,23.11307923278809,39.32956622314453,23.049179232788084,39.55892622314453C23.049179232788084,39.55892622314453,23.375079232788085,40.20878622314453,23.375079232788085,40.20878622314453Z" fill="url(#master_svg0_118_20404)" fill-opacity="1"/></g><g><path d="M91.07666309509277,40.20878622314453C91.10226309509278,40.31072622314453,91.13426309509278,40.41903622314453,91.17256309509277,40.53371622314453C91.17256309509277,40.53371622314453,91.24926309509277,40.83956622314453,91.24926309509277,40.83956622314453C91.27486309509277,40.94146622314453,91.28766309509277,41.02426622314453,91.28766309509277,41.087966223144534C91.28766309509277,41.44476622314453,91.19176309509277,41.76016622314453,91.00006309509277,42.03416622314453C90.80826309509277,42.30806622314453,90.55896309509278,42.508766223144534,90.25226309509277,42.63616622314453C90.13716309509277,42.648966223144534,90.01576309509278,42.65536622314453,89.88786309509277,42.65536622314453C89.78566309509277,42.668066223144535,89.67056309509277,42.674466223144535,89.54276309509277,42.674466223144535C89.54276309509277,42.674466223144535,89.17846309509278,42.674466223144535,89.17846309509278,42.674466223144535C89.17846309509278,42.674466223144535,86.18729309509277,42.71266622314453,86.18729309509277,42.71266622314453C86.18729309509277,42.71266622314453,86.18729309509277,45.90466622314453,86.18729309509277,45.90466622314453C86.18729309509277,46.376066223144534,86.19687309509277,46.85076622314453,86.21605309509278,47.328566223144534C86.23522309509278,47.80646622314453,86.25759309509277,48.23646622314453,86.28315309509277,48.61876622314453C86.30872309509277,49.077466223144526,86.34068309509277,49.51706622314453,86.37903309509278,49.93756622314453C86.37903309509278,49.93756622314453,83.61794309509277,49.93756622314453,83.61794309509277,49.93756622314453C83.61794309509277,49.93756622314453,83.67547309509277,49.19216622314453,83.67547309509277,49.19216622314453C83.68825309509278,48.89906622314453,83.70103309509277,48.50086622314453,83.71381309509277,47.99756622314453C83.72660309509277,47.494266223144535,83.73299309509278,46.82206622314453,83.73299309509278,45.98106622314453C83.73299309509278,45.98106622314453,83.73299309509278,43.05666622314453,83.73299309509278,43.05666622314453C83.51568309509277,43.24786622314453,83.27281309509277,43.34336622314453,83.00437309509277,43.34336622314453C82.78706309509278,43.34336622314453,82.59851309509277,43.29246622314453,82.43873309509277,43.19046622314453C82.27894309509277,43.08856622314453,82.14792309509278,42.94836622314453,82.04566309509278,42.76996622314453C82.04566309509278,42.76996622314453,79.87897309509277,42.65536622314453,79.87897309509277,42.65536622314453C79.45714309509277,42.55336622314453,79.10561709509277,42.33996622314453,78.82439609509278,42.01496622314453C78.54317409509278,41.690066223144534,78.40256309509277,41.30466622314453,78.40256309509277,40.85866622314453C78.40256309509277,40.78216622314453,78.40895475509278,40.71210622314453,78.42173759509278,40.64839622314453C78.43452029509277,40.58468622314453,78.45369569509278,40.52097622314453,78.47926119509277,40.45725622314453C78.47926119509277,40.45725622314453,78.95861709509278,39.34867622314453,78.95861709509278,39.34867622314453C78.98418309509277,39.06834622314453,79.06407609509277,38.80712622314453,79.19829509509277,38.56501622314453C79.33251509509277,38.32291622314453,79.50188309509278,38.11266622314453,79.70641309509277,37.93426622314453C79.70641309509277,37.93426622314453,82.71675309509277,32.372216223144534,82.71675309509277,32.372216223144534C82.71675309509277,32.372216223144534,82.73593309509278,32.372216223144534,82.73593309509278,32.372216223144534C82.97880309509277,31.92623622314453,83.26641309509277,31.543965223144532,83.59877309509277,31.22540522314453C83.93112309509277,30.90684622314453,84.35934309509277,30.74756622314453,84.88344309509277,30.74756622314453C85.34362309509277,30.74756622314453,85.75586309509278,30.86861922314453,86.12017309509277,31.11072422314453C86.48448309509277,31.352829223144532,86.75612309509278,31.67138922314453,86.93508309509278,32.06640622314453C86.93508309509278,32.06640622314453,89.35106309509277,36.78745622314453,89.35106309509277,36.78745622314453C89.78566309509277,36.94036622314453,90.14356309509277,37.207956223144535,90.42476309509277,37.59022622314453C90.70596309509277,37.97249622314453,90.84666309509278,38.412106223144534,90.84666309509278,38.909066223144535C90.84666309509278,39.11293622314453,90.81466309509277,39.32956622314453,90.75076309509278,39.55892622314453C90.75076309509278,39.55892622314453,91.07666309509277,40.20878622314453,91.07666309509277,40.20878622314453Z" fill="url(#master_svg1_118_20404)" fill-opacity="1"/></g><g><path d="M83.04223365905762,42.309583308410645C83.06216365905762,42.38951330841064,83.08708365905761,42.47444330841064,83.11698365905761,42.56436330841065C83.11698365905761,42.56436330841065,83.17680365905761,42.80415330841065,83.17680365905761,42.80415330841065C83.19670365905762,42.884083308410645,83.20670365905761,42.949023308410645,83.20670365905761,42.998983308410644C83.20670365905761,43.278733308410644,83.13193365905762,43.52601330841065,82.98243365905762,43.74082330841065C82.83294365905762,43.95563330841065,82.63860365905762,44.112993308410644,82.39940365905761,44.212903308410645C82.30971365905762,44.22289330841065,82.21504365905761,44.22789330841064,82.11537365905761,44.22789330841064C82.03564365905761,44.237883308410645,81.94595365905762,44.24288330841064,81.84628365905762,44.24288330841064C81.84628365905762,44.24288330841064,81.56225365905762,44.24288330841064,81.56225365905762,44.24288330841064C81.56225365905762,44.24288330841064,79.23014365905762,44.272853308410646,79.23014365905762,44.272853308410646C79.23014365905762,44.272853308410646,79.23014365905762,46.77563330841065,79.23014365905762,46.77563330841065C79.23014365905762,47.14533330841064,79.23762365905762,47.51753330841065,79.25257365905762,47.89213330841064C79.26752365905762,48.26683330841065,79.28496365905761,48.60403330841064,79.30489365905761,48.903733308410644C79.32482365905761,49.26343330841064,79.34974365905762,49.60813330841064,79.37964365905762,49.937833308410646C79.37964365905762,49.937833308410646,77.22693365905762,49.937833308410646,77.22693365905762,49.937833308410646C77.22693365905762,49.937833308410646,77.27178365905762,49.35333330841064,77.27178365905762,49.35333330841064C77.28174365905761,49.12353330841064,77.29171365905762,48.811333308410646,77.30167365905761,48.41673330841064C77.31164365905762,48.02203330841064,77.31662365905761,47.49503330841064,77.31662365905761,46.83563330841064C77.31662365905761,46.83563330841064,77.31662365905761,44.542613308410644,77.31662365905761,44.542613308410644C77.14720365905762,44.692483308410644,76.95784365905762,44.767413308410646,76.74854365905762,44.767413308410646C76.57912365905761,44.767413308410646,76.43212365905762,44.727453308410645,76.30754365905761,44.64752330841064C76.18297365905762,44.56759330841064,76.08081365905761,44.45769330841065,76.00108365905761,44.31781330841064C76.00108365905761,44.31781330841064,74.31180365905762,44.22789330841064,74.31180365905762,44.22789330841064C73.98292065905761,44.147963308410645,73.70884665905761,43.980613308410646,73.48958965905761,43.72583330841064C73.27033165905762,43.47106330841064,73.16070365905762,43.16883330841064,73.16070365905762,42.81913330841064C73.16070365905762,42.759193308410644,73.16568644905762,42.704243308410646,73.17565265905762,42.65428330841065C73.18561895905762,42.60432330841064,73.20056735905762,42.554373308410646,73.22049985905761,42.50441330841065C73.22049985905761,42.50441330841065,73.59423265905761,41.635183308410646,73.59423265905761,41.635183308410646C73.61416565905762,41.41537330841064,73.67645365905761,41.210553308410645,73.78109865905762,41.020723308410645C73.88574465905762,40.830893308410644,74.01779865905762,40.66603330841065,74.17726365905762,40.526163308410645C74.17726365905762,40.526163308410645,76.52431365905761,36.16501330841064,76.52431365905761,36.16501330841064C76.52431365905761,36.16501330841064,76.53926365905761,36.16501330841064,76.53926365905761,36.16501330841064C76.72862365905762,35.81531730841064,76.95286365905761,35.51558230841064,77.21198365905762,35.26580230841064C77.47110365905762,35.016023308410645,77.80497365905762,34.891133308410645,78.21358365905762,34.891133308410645C78.57237365905762,34.891133308410645,78.89378365905762,34.986049508410645,79.17782365905762,35.17588230841064C79.46186365905761,35.365714308410645,79.67364365905762,35.615494308410646,79.81317365905761,35.925223308410644C79.81317365905761,35.925223308410644,81.69679365905762,39.62695330841065,81.69679365905762,39.62695330841065C82.03564365905761,39.74684330841065,82.31470365905761,39.95666330841065,82.53395365905762,40.25640330841065C82.75321365905762,40.556133308410644,82.86284365905762,40.90083330841065,82.86284365905762,41.29048330841064C82.86284365905762,41.450343308410645,82.83793365905761,41.62019330841064,82.78809365905762,41.80003330841065C82.78809365905762,41.80003330841065,83.04223365905762,42.309583308410645,83.04223365905762,42.309583308410645Z" fill="url(#master_svg2_118_20360)" fill-opacity="1"/></g></g><g><path d="M46.1896,44.9221305847168C59.5944,44.9221305847168,71.6655,46.013950584716795,80.1031,47.7578705847168C88.3555,47.8127105847168,95,50.280960584716794,95,53.3177705847168C95,55.724530584716796,90.8266,57.7741305847168,84.9866,58.548330584716794C83.5928,58.9600305847168,82.0238,59.348230584716795,80.3004,59.708930584716796C80.3453,59.938730584716794,80.3678,60.170830584716796,80.3678,60.4050305847168C80.3678,65.7041305847168,68.8301,70.0000305847168,54.5977,70.0000305847168C41.793,70.0000305847168,31.1695,66.5228305847168,29.167,61.966130584716794C12.0812,60.6706305847168,0,57.482030584716796,0,53.753900584716796C0,48.8762505847168,20.6798,44.9221305847168,46.1896,44.9221305847168Z" fill-rule="evenodd" fill="#005EC8" fill-opacity="1"/></g><g><path d="M67.26431834716797,55.67190938110352Q67.26431834716797,55.70669938110352,67.24291834716797,55.74145938110352Q67.22141834716797,55.77620938110351,67.17861834716797,55.81083938110351Q67.13581834716797,55.84546938110351,67.07171834716797,55.87988938110352Q67.00751834716797,55.914309381103514,66.92231834716796,55.94843938110352Q66.83711834716797,55.98256938110352,66.73091834716797,56.016319381103514Q66.62471834716797,56.05006938110351,66.49791834716797,56.083369381103516Q66.37101834716796,56.11666938110351,66.22391834716797,56.149429381103516Q66.07661834716797,56.18218938110351,65.90941834716797,56.214339381103514Q65.74221834716798,56.246489381103515,65.55541834716797,56.277939381103515Q65.36861834716797,56.30939938110352,65.16261834716798,56.34008938110352Q64.95671834716796,56.37077938110352,64.73201834716797,56.40061938110352Q64.50741834716797,56.430469381103514,64.26461834716797,56.459399381103516Q64.02191834716797,56.48832938110352,63.76161834716797,56.516279381103516Q63.50131834716797,56.54422938110351,63.22411834716797,56.57112938110352Q62.94701834716797,56.59801938110351,62.65351834716797,56.62380938110351Q62.36011834716797,56.64958938110352,62.05111834716797,56.67418938110352Q61.74221834716797,56.69879938110351,61.41841834716797,56.72216938110351Q61.09471834716797,56.745529381103516,60.75691834716797,56.76760938110352Q60.41921834716797,56.78967938110352,60.06821834716797,56.81040938110352Q59.71731834716797,56.83113938110352,59.354018347167965,56.850469381103515Q58.99071834716797,56.86979938110352,58.61591834716797,56.88768938110351Q58.24111834716797,56.905579381103514,57.85581834716797,56.92197938110352Q57.470418347167964,56.93838938110352,57.07541834716797,56.953259381103514Q56.68041834716797,56.96813938110351,56.27681834716797,56.98145938110351Q55.87311834716797,56.99476938110352,55.461718347167974,57.00649938110352Q55.05031834716797,57.01821938110351,54.632218347167964,57.028319381103515Q54.21411834716797,57.038419381103516,53.790218347167965,57.046879381103516Q53.366418347167965,57.05532938110352,52.93781834716797,57.062119381103514Q52.50931834716797,57.068909381103516,52.07711834716797,57.074009381103515Q51.64491834716797,57.07911938110352,51.21001834716797,57.08252938110351Q50.775218347167964,57.085939381103515,50.33881834716797,57.08764938110352Q49.902418347167966,57.08935938110351,49.46541834716797,57.08935938110351Q49.02851834716797,57.08935938110351,48.59211834716797,57.08764938110352Q48.15571834716797,57.085939381103515,47.72091834716797,57.08252938110351Q47.28601834716797,57.07911938110352,46.85381834716797,57.074009381103515Q46.42161834716797,57.068909381103516,45.993118347167965,57.062119381103514Q45.56451834716797,57.05532938110352,45.14071834716797,57.046879381103516Q44.71681834716797,57.038419381103516,44.29871834716797,57.028319381103515Q43.88061834716797,57.01821938110351,43.46921834716797,57.00649938110352Q43.05781834716797,56.99476938110352,42.654118347167966,56.98145938110351Q42.250418347167965,56.96813938110351,41.85551834716797,56.95326938110352Q41.46048834716797,56.93838938110352,41.07514834716797,56.921989381103515Q40.68980834716797,56.905579381103514,40.31502834716797,56.88768938110351Q39.94025834716797,56.86979938110352,39.57695834716797,56.850469381103515Q39.21365834716797,56.83113938110352,38.86270834716797,56.81040938110352Q38.51175834716797,56.78967938110352,38.17399834716797,56.76760938110352Q37.83623834716797,56.745529381103516,37.51248834716797,56.72216938110351Q37.18873834716797,56.69879938110351,36.87977834716797,56.67418938110352Q36.57081834716797,56.64958938110352,36.27738834716797,56.62380938110351Q35.98395834716797,56.59801938110351,35.706768347167966,56.57112938110352Q35.42957834716797,56.54422938110351,35.16929834716797,56.516279381103516Q34.90901834716797,56.48832938110352,34.66626834716797,56.459399381103516Q34.42351834716797,56.430469381103514,34.198888347167966,56.40061938110352Q33.97425834716797,56.37077938110352,33.76828834716797,56.34008938110352Q33.56230834716797,56.30939938110352,33.37549834716797,56.277939381103515Q33.18868834716797,56.246489381103515,33.02147834716797,56.214339381103514Q32.85426834716797,56.18218938110351,32.70706834716797,56.149429381103516Q32.55986634716797,56.11666938110351,32.43303034716797,56.083369381103516Q32.30619434716797,56.05006938110351,32.20002734716797,56.016319381103514Q32.09386034716797,55.98256938110352,32.00861834716797,55.94843938110352Q31.92337634716797,55.914309381103514,31.85926434716797,55.87988938110352Q31.795152347167967,55.84546938110351,31.752324647167967,55.81083938110351Q31.709497347167968,55.77620938110351,31.68805784716797,55.74145938110352Q31.66661834716797,55.70669938110352,31.66661834716797,55.67190938110352Q31.66661834716797,55.637109381103514,31.68805784716797,55.60235938110352Q31.709497347167968,55.56759938110351,31.752324647167967,55.53296938110351Q31.795152347167967,55.49833938110351,31.85926434716797,55.463919381103516Q31.92337634716797,55.429509381103514,32.00861834716797,55.39537938110352Q32.09386034716797,55.36124938110351,32.20002734716797,55.327499381103515Q32.30619434716797,55.293739381103514,32.43303034716797,55.26043938110352Q32.55986634716797,55.22714538110352,32.70706834716797,55.19438338110351Q32.85426834716797,55.161621381103515,33.02147834716797,55.129473381103516Q33.18868834716797,55.097325381103516,33.37549834716797,55.065870381103515Q33.56230834716797,55.03441438110352,33.76828834716797,55.00372638110352Q33.97425834716797,54.97303938110352,34.198888347167966,54.94319338110351Q34.42351834716797,54.91334738110351,34.66626834716797,54.884415381103516Q34.90901834716797,54.85548338110352,35.16929834716797,54.82753438110352Q35.42957834716797,54.79958538110352,35.706768347167966,54.772687381103516Q35.98395834716797,54.74578938110351,36.27738834716797,54.720007381103514Q36.57081834716797,54.694225381103514,36.87977834716797,54.66962038110351Q37.18873834716797,54.64501538110351,37.51248834716797,54.621647381103514Q37.83623834716797,54.59827938110352,38.17399834716797,54.57620538110351Q38.51175834716797,54.55413038110352,38.86270834716797,54.533402381103514Q39.21365834716797,54.512674381103515,39.57695834716797,54.49334238110352Q39.94025834716797,54.47401038110352,40.31502834716797,54.456121381103515Q40.689798347167965,54.43823238110352,41.07514834716797,54.421829381103514Q41.46048834716797,54.40542638110352,41.85551834716797,54.39054938110352Q42.250418347167965,54.37567238110351,42.654118347167966,54.36235638110352Q43.05781834716797,54.34904018110352,43.46921834716797,54.33731758110351Q43.88061834716797,54.325595081103515,44.29871834716797,54.31549418110352Q44.71681834716797,54.305393381103514,45.14071834716797,54.29693848110352Q45.56451834716797,54.288483681103514,45.993118347167965,54.28169528110352Q46.42161834716797,54.27490678110352,46.85381834716797,54.269801081103516Q47.28601834716797,54.264695381103515,47.72091834716797,54.26128478110351Q48.15571834716797,54.257874141103514,48.59211834716797,54.256166761103515Q49.02851834716797,54.254459381103516,49.46541834716797,54.254459381103516Q49.902418347167966,54.254459381103516,50.33881834716797,54.256166761103515Q50.775218347167964,54.257874141103514,51.21001834716797,54.26128478110351Q51.64491834716797,54.264695381103515,52.07711834716797,54.269801081103516Q52.50931834716797,54.27490678110352,52.93781834716797,54.28169528110352Q53.366418347167965,54.288483681103514,53.790218347167965,54.29693848110352Q54.21411834716797,54.305393381103514,54.632218347167964,54.31549418110352Q55.05031834716797,54.325595081103515,55.461718347167974,54.33731758110351Q55.87311834716797,54.34904018110352,56.27681834716797,54.36235638110352Q56.68041834716797,54.37567238110351,57.07541834716797,54.39054938110352Q57.470418347167964,54.40542638110352,57.85581834716797,54.421829381103514Q58.24111834716797,54.43823238110352,58.61591834716797,54.456121381103515Q58.99071834716797,54.47401038110352,59.354018347167965,54.49334238110352Q59.71731834716797,54.512674381103515,60.06821834716797,54.533402381103514Q60.41921834716797,54.55413038110352,60.75691834716797,54.57620538110351Q61.09471834716797,54.59827938110352,61.41841834716797,54.621647381103514Q61.74221834716797,54.64501538110351,62.05111834716797,54.66962038110351Q62.36011834716797,54.694225381103514,62.65351834716797,54.720007381103514Q62.94701834716797,54.74578938110351,63.22411834716797,54.772687381103516Q63.50131834716797,54.79958538110352,63.76161834716797,54.82753438110352Q64.02191834716797,54.85548338110352,64.26461834716797,54.884415381103516Q64.50741834716797,54.91334738110351,64.73201834716797,54.94319338110351Q64.95671834716796,54.97303938110352,65.16261834716798,55.00372638110352Q65.36861834716797,55.03441438110352,65.55541834716797,55.065870381103515Q65.74221834716798,55.097325381103516,65.90941834716797,55.129473381103516Q66.07661834716797,55.161621381103515,66.22391834716797,55.19438338110351Q66.37101834716796,55.22714538110352,66.49791834716797,55.26043938110352Q66.62471834716797,55.293739381103514,66.73091834716797,55.327499381103515Q66.83711834716797,55.36124938110351,66.92231834716796,55.39537938110352Q67.00751834716797,55.429509381103514,67.07171834716797,55.463919381103516Q67.13581834716797,55.49833938110351,67.17861834716797,55.53296938110351Q67.22141834716797,55.56759938110351,67.24291834716797,55.60235938110352Q67.26431834716797,55.637109381103514,67.26431834716797,55.67190938110352Z" fill="#439BFF" fill-opacity="1"/></g><g><g><path d="M64.2026885131836,49.93780202255249C64.2026885131836,49.93780202255249,35.819718513183595,49.93780202255249,35.819718513183595,49.93780202255249C33.64617851318359,49.93780202255249,31.884788513183594,48.18570202255249,31.884788513183594,46.02360202255249C31.884788513183594,46.02360202255249,31.884788513183594,7.40343202255249,31.884788513183594,7.40343202255249C31.884788513183594,5.24133202255249,33.64617851318359,3.4892020225524902,35.819718513183595,3.4892020225524902C35.819718513183595,3.4892020225524902,64.2026885131836,3.4892020225524902,64.2026885131836,3.4892020225524902C66.3762885131836,3.4892020225524902,68.13768851318359,5.24133202255249,68.13768851318359,7.40343202255249C68.13768851318359,7.40343202255249,68.13768851318359,46.02360202255249,68.13768851318359,46.02360202255249C68.13768851318359,48.18570202255249,66.3762885131836,49.93780202255249,64.2026885131836,49.93780202255249Z" fill="url(#master_svg3_118_20880)" fill-opacity="1"/></g><g><path d="M62.47007365875244,51.02802786102295C62.47007365875244,51.02802786102295,35.36904365875244,51.02802786102295,35.36904365875244,51.02802786102295C33.20333365875244,51.02802786102295,31.44827365875244,49.26882786102295,31.44827365875244,47.09802786102295C31.44827365875244,47.09802786102295,31.44827365875244,8.94568786102295,31.44827365875244,8.94568786102295C31.44827365875244,6.774847861022949,33.20333365875244,5.015627861022949,35.36904365875244,5.015627861022949C35.36904365875244,5.015627861022949,62.47007365875244,5.015627861022949,62.47007365875244,5.015627861022949C64.63577365875244,5.015627861022949,66.39077365875244,6.774847861022949,66.39077365875244,8.94568786102295C66.39077365875244,8.94568786102295,66.39077365875244,47.099227861022946,66.39077365875244,47.099227861022946C66.39077365875244,49.26882786102295,64.63577365875244,51.02802786102295,62.47007365875244,51.02802786102295Z" fill="#80BBFF" fill-opacity="1"/></g><g><path d="M62.123905976867675,46.23063975524902C62.123905976867675,46.23063975524902,36.15221297686767,46.23063975524902,36.15221297686767,46.23063975524902C35.845923976867674,46.23063975524902,35.597805976867676,45.98343975524902,35.597805976867676,45.678239755249024C35.597805976867676,45.678239755249024,35.597805976867676,8.620974755249023,35.597805976867676,8.620974755249023C35.597805976867676,8.315830755249024,35.845923976867674,8.068639755249023,36.15221297686767,8.068639755249023C36.15221297686767,8.068639755249023,62.123905976867675,8.068639755249023,62.123905976867675,8.068639755249023C62.43010597686768,8.068639755249023,62.67830597686768,8.315830755249024,62.67830597686768,8.620974755249023C62.67830597686768,8.620974755249023,62.67830597686768,45.678239755249024,62.67830597686768,45.678239755249024C62.67710597686768,45.98343975524902,62.42900597686767,46.23063975524902,62.123905976867675,46.23063975524902Z" fill="#56A5FF" fill-opacity="1"/></g><g><path d="M47.76936474609375,46.01253975524902C45.35026474609375,45.84833975524902,32.04506474609375,44.840539755249026,23.80640474609375,38.17993975524902C23.39908874609375,37.849939755249025,23.58972227609375,37.172039755249024,24.11189074609375,37.12463975524902C36.898564746093754,35.96833975524902,35.34146474609375,13.117259755249023,35.43146474609375,8.735773755249024C35.438564746093746,8.364220755249024,35.67536474609375,8.068639755249023,36.04596474609375,8.068639755249023C36.04596474609375,8.068639755249023,61.86436474609375,8.068639755249023,61.86436474609375,8.068639755249023C62.19356474609375,8.068639755249023,62.45996474609375,8.335730755249024,62.45996474609375,8.665736755249023C62.45996474609375,8.665736755249023,61.10776474609375,33.204839755249026,61.10776474609375,33.204839755249026C61.05796474609375,33.34023975524902,60.96326474609375,33.602539755249026,60.86976474609375,33.71173975524903C60.86976474609375,33.71173975524903,51.071664746093745,45.535039755249024,51.071664746093745,45.535039755249024C50.949664746093745,45.677439755249026,47.95646474609375,46.025239755249025,47.76936474609375,46.01253975524902Z" fill="#C4E0FF" fill-opacity="1"/></g><g><path d="M51.44577529418945,37.49834525024414C52.92954529418945,37.59146525024414,57.350195294189454,37.625655250244144,61.14979529418945,33.36447525024414C60.249395294189455,37.84725525024414,54.46752529418946,45.95707525024414,46.95439529418945,46.01247525024414C51.271355294189455,43.78927525024414,51.106355294189456,39.673135250244144,50.969645294189455,37.82721525024414C50.95432529418945,37.61032525024414,51.23010529418946,37.48420525024414,51.44577529418945,37.49834525024414Z" fill="url(#master_svg4_118_20872)" fill-opacity="1"/></g><g><g><path d="M41.9316088057251,13.738224029541016C41.9316088057251,13.738224029541016,58.092536805725096,13.738224029541016,58.092536805725096,13.738224029541016C58.4543368057251,13.738224029541016,58.7477368057251,14.031122029541015,58.7477368057251,14.392430029541016C58.7477368057251,14.753734029541015,58.4543368057251,15.046634029541016,58.092536805725096,15.046634029541016C58.092536805725096,15.046634029541016,41.9316088057251,15.046634029541016,41.9316088057251,15.046634029541016C41.5697678057251,15.046634029541016,41.2764368057251,14.753734029541015,41.2764368057251,14.392430029541016C41.2764368057251,14.031122029541015,41.5697678057251,13.738224029541016,41.9316088057251,13.738224029541016Z" fill="#FFFFFF" fill-opacity="1"/></g><g><path d="M41.4942935801239,18.09964656829834C41.4942935801239,18.09964656829834,57.6552215801239,18.09964656829834,57.6552215801239,18.09964656829834C58.0170215801239,18.09964656829834,58.3104215801239,18.39254456829834,58.3104215801239,18.75385256829834C58.3104215801239,19.11515656829834,58.0170215801239,19.40805656829834,57.6552215801239,19.40805656829834C57.6552215801239,19.40805656829834,41.4942935801239,19.40805656829834,41.4942935801239,19.40805656829834C41.1324525801239,19.40805656829834,40.8391215801239,19.11515656829834,40.8391215801239,18.75385256829834C40.8391215801239,18.39254456829834,41.1324525801239,18.09964656829834,41.4942935801239,18.09964656829834Z" fill="#FFFFFF" fill-opacity="1"/></g><g><path d="M41.05777872569275,22.461069107055664C41.05777872569275,22.461069107055664,48.48306672569275,22.461069107055664,48.48306672569275,22.461069107055664C48.84490672569275,22.461069107055664,49.13823672569275,22.753969107055664,49.13823672569275,23.115279107055663C49.13823672569275,23.476589107055663,48.84490672569275,23.769489107055662,48.48306672569275,23.769489107055662C48.48306672569275,23.769489107055662,41.05777872569275,23.769489107055662,41.05777872569275,23.769489107055662C40.69593772569275,23.769489107055662,40.40260672569275,23.476589107055663,40.40260672569275,23.115279107055663C40.40260672569275,22.753969107055664,40.69593772569275,22.461069107055664,41.05777872569275,22.461069107055664Z" fill="#FFFFFF" fill-opacity="1"/></g><g><path d="M51.75904041442871,23.115279107055663Q51.75904041442871,23.179713107055665,51.74645041442871,23.242909107055663Q51.73386041442871,23.306105107055664,51.70916041442871,23.365634107055666Q51.68447041442871,23.425164107055664,51.64862041442871,23.478739107055663Q51.61277041442871,23.532309107055664,51.567140414428714,23.577879107055665Q51.52151041442871,23.623439107055663,51.46786041442871,23.659239107055665Q51.41420341442871,23.695029107055664,51.35458641442871,23.719689107055665Q51.29497041442871,23.744349107055665,51.231681414428714,23.756919107055666Q51.16839241442871,23.769489107055662,51.10386341442871,23.769489107055662Q51.03933441442871,23.769489107055662,50.97604541442871,23.756919107055666Q50.91275641442871,23.744349107055665,50.85313941442871,23.719689107055665Q50.79352241442871,23.695029107055664,50.73986841442871,23.659239107055665Q50.68621441442871,23.623439107055663,50.64058641442871,23.577879107055665Q50.59495741442871,23.532309107055664,50.55910741442871,23.478739107055663Q50.52325661442871,23.425164107055664,50.49856241442871,23.365634107055666Q50.473868314428714,23.306105107055664,50.46127941442871,23.242909107055663Q50.44869041442871,23.179713107055665,50.44869041442871,23.115279107055663Q50.44869041442871,23.050845107055665,50.46127941442871,22.987649107055663Q50.473868314428714,22.924453107055665,50.49856241442871,22.864924107055664Q50.52325661442871,22.805394107055665,50.55910741442871,22.751819107055663Q50.59495741442871,22.698244107055665,50.64058641442871,22.652683107055665Q50.68621441442871,22.607121107055665,50.73986841442871,22.571323107055665Q50.79352241442871,22.535525707055665,50.85313941442871,22.510867907055665Q50.91275641442871,22.486210007055664,50.97604541442871,22.473639607055663Q51.03933441442871,22.461069107055664,51.10386341442871,22.461069107055664Q51.16839241442871,22.461069107055664,51.231681414428714,22.473639607055663Q51.29497041442871,22.486210007055664,51.35458641442871,22.510867907055665Q51.41420341442871,22.535525707055665,51.46786041442871,22.571323107055665Q51.52151041442871,22.607121107055665,51.567140414428714,22.652683107055665Q51.61277041442871,22.698244107055665,51.64862041442871,22.751819107055663Q51.68447041442871,22.805394107055665,51.70916041442871,22.864924107055664Q51.73386041442871,22.924453107055665,51.74645041442871,22.987649107055663Q51.75904041442871,23.050845107055665,51.75904041442871,23.115279107055663Z" fill="#FFFFFF" fill-opacity="1"/></g><g transform="matrix(0.9993908405303955,0.035016126930713654,-0.03487143665552139,0.9993908405303955,0.9489640858399895,-1.376638646825505)"><path d="M40.43091810710144,26.518388748168945C40.43091810710144,26.518388748168945,56.59184610710144,26.518388748168945,56.59184610710144,26.518388748168945C56.95364610710144,26.518388748168945,57.24704610710144,26.811286748168946,57.24704610710144,27.172594748168944C57.24704610710144,27.533898748168944,56.95364610710144,27.826798748168944,56.59184610710144,27.826798748168944C56.59184610710144,27.826798748168944,40.43091810710144,27.826798748168944,40.43091810710144,27.826798748168944C40.06907710710144,27.826798748168944,39.77574610710144,27.533898748168944,39.77574610710144,27.172594748168944C39.77574610710144,26.811286748168946,40.06907710710144,26.518388748168945,40.43091810710144,26.518388748168945Z" fill="#FFFFFF" fill-opacity="1"/></g><g transform="matrix(0.9975640773773193,0.06965615600347519,-0.06985689699649811,0.9975640773773193,2.2297954806375344,-2.6075766737999757)"><path d="M39.159419195961,30.576824188232422C39.159419195961,30.576824188232422,55.319770195961,30.576824188232422,55.319770195961,30.576824188232422C55.681570195961,30.576824188232422,55.974870195961,30.869733188232424,55.974870195961,31.23105418823242C55.974870195961,31.592374188232423,55.681570195961,31.885284188232422,55.319770195961,31.885284188232422C55.319770195961,31.885284188232422,39.159419195961,31.885284188232422,39.159419195961,31.885284188232422C38.797590195961,31.885284188232422,38.504270195961,31.592374188232423,38.504270195961,31.23105418823242C38.504270195961,30.869733188232424,38.797590195961,30.576824188232422,39.159419195961,30.576824188232422Z" fill="#FFFFFF" fill-opacity="1"/></g><g transform="matrix(0.9925680756568909,0.12176871299743652,-0.1219700425863266,0.9925242066383362,4.5269634430429875,-4.248532135602616)"><path d="M37.68541821296311,34.85902786254883C37.68541821296311,34.85902786254883,45.1101822129631,34.85902786254883,45.1101822129631,34.85902786254883C45.4719922129631,34.85902786254883,45.76530221296311,35.15194586254883,45.76530221296311,35.51327886254883C45.76530221296311,35.87460786254883,45.4719922129631,36.16752786254883,45.1101822129631,36.16752786254883C45.1101822129631,36.16752786254883,37.68541821296311,36.16752786254883,37.68541821296311,36.16752786254883C37.3236022129631,36.16752786254883,37.030292212963104,35.87460786254883,37.030292212963104,35.51327886254883C37.030292212963104,35.15194586254883,37.3236022129631,34.85902786254883,37.68541821296311,34.85902786254883Z" fill="#FFFFFF" fill-opacity="1"/></g><g transform="matrix(0.9925681948661804,0.12176777422428131,-0.12197096645832062,0.9925240874290466,4.750180681024688,-5.453490237576602)"><path d="M48.3114478149414,36.735594419189454Q48.3114478149414,36.800032419189456,48.29885781494141,36.863231419189454Q48.28627781494141,36.926431419189456,48.261577814941404,36.98596341918945Q48.236887814941404,37.045496419189455,48.20103781494141,37.09907841918945Q48.16519781494141,37.152648419189454,48.119567814941405,37.19821841918945Q48.073947814941405,37.243778419189454,48.02029781494141,37.279578419189455Q47.96664281494141,37.31537841918945,47.9070298149414,37.340038419189455Q47.84741781494141,37.36469841918945,47.78413281494141,37.377268419189456Q47.720848814941405,37.38983841918945,47.65632481494141,37.38983841918945Q47.5917998149414,37.38983841918945,47.52851581494141,37.377268419189456Q47.46523081494141,37.36469841918945,47.40561781494141,37.340038419189455Q47.34600581494141,37.31537841918945,47.29235581494141,37.279578419189455Q47.238705814941405,37.243778419189454,47.193079814941406,37.19821841918945Q47.147454814941405,37.152648419189454,47.1116068149414,37.09907841918945Q47.07575871494141,37.045496419189455,47.05106631494141,36.98596341918945Q47.02637391494141,36.926431419189456,47.01378591494141,36.863231419189454Q47.001197814941406,36.800032419189456,47.001197814941406,36.735594419189454Q47.001197814941406,36.671157419189456,47.01378591494141,36.607957419189454Q47.02637391494141,36.544758419189456,47.05106631494141,36.485225419189454Q47.07575871494141,36.42569241918945,47.1116068149414,36.372115419189456Q47.147454814941405,36.318537419189454,47.193079814941406,36.27297241918945Q47.238705814941405,36.22740841918945,47.29235581494141,36.19160841918945Q47.34600581494141,36.155809119189456,47.40561781494141,36.131149919189454Q47.46523081494141,36.10649071918945,47.52851581494141,36.09391961918945Q47.5917998149414,36.08134841918945,47.65632481494141,36.08134841918945Q47.720848814941405,36.08134841918945,47.78413281494141,36.09391961918945Q47.84741781494141,36.10649071918945,47.9070298149414,36.131149919189454Q47.96664281494141,36.155809119189456,48.02029781494141,36.19160841918945Q48.073947814941405,36.22740841918945,48.119567814941405,36.27297241918945Q48.16519781494141,36.318537419189454,48.20103781494141,36.372115419189456Q48.236887814941404,36.42569241918945,48.261577814941404,36.485225419189454Q48.28627781494141,36.544758419189456,48.29885781494141,36.607957419189454Q48.3114478149414,36.671157419189456,48.3114478149414,36.735594419189454Z" fill="#FFFFFF" fill-opacity="1"/></g></g><g><g><path d="M43.896156027913094,5.015628337860107C43.896156027913094,5.015628337860107,55.25245602791309,5.015628337860107,55.25245602791309,5.015628337860107C55.25245602791309,5.015628337860107,55.25245602791309,8.940858337860107,55.25245602791309,8.940858337860107C55.25245602791309,8.940858337860107,43.896156027913094,8.940858337860107,43.896156027913094,8.940858337860107C43.896156027913094,8.940858337860107,43.896156027913094,5.015628337860107,43.896156027913094,5.015628337860107Z" fill="#5EA9FF" fill-opacity="1"/></g><g><path d="M44.551541515625,3.4892022609710693C44.551541515625,3.4892022609710693,55.907878515625,3.4892022609710693,55.907878515625,3.4892022609710693C55.907878515625,3.4892022609710693,55.034278515625,5.01568226097107,55.034278515625,5.01568226097107C55.034278515625,5.01568226097107,43.677978515625,5.01568226097107,43.677978515625,5.01568226097107C43.677978515625,5.01568226097107,44.551541515625,3.4892022609710693,44.551541515625,3.4892022609710693Z" fill-rule="evenodd" fill="#2088FF" fill-opacity="1"/></g><g><path d="M49.79303083374023,0C50.878550833740235,0,51.758540833740234,0.878692,51.758540833740234,1.96261C51.758540833740234,3.04654,50.878550833740235,3.92523,49.79303083374023,3.92523C48.70750183374023,3.92523,47.827510833740234,3.04654,47.827510833740234,1.96261C47.827510833740234,0.878692,48.70750183374023,0,49.79303083374023,0ZM49.79303083374023,0.872273C49.18996083374024,0.872273,48.70107383374023,1.36044,48.70107383374023,1.96261C48.70107383374023,2.56479,49.18996083374024,3.05296,49.79303083374023,3.05296C50.396100833740235,3.05296,50.88498083374024,2.56479,50.88498083374024,1.96261C50.88498083374024,1.36044,50.396100833740235,0.872273,49.79303083374023,0.872273Z" fill-rule="evenodd" fill="#2088FF" fill-opacity="1"/></g></g></g></g></svg>