<svg xmlns="http://www.w3.org/2000/svg" xmlns:xlink="http://www.w3.org/1999/xlink" fill="none" version="1.1" width="16" height="16" viewBox="0 0 16 16"><defs><linearGradient x1="0.5" y1="0" x2="0.5" y2="1" id="master_svg0_137_05937"><stop offset="0%" stop-color="#F4FCFF" stop-opacity="1"/><stop offset="100%" stop-color="#086BED" stop-opacity="1"/></linearGradient></defs><g><g></g><g><g><path d="M8.595690000000001,1.53325C8.3423,1.313063,8.13652,1.13425,8.00061,1.000593782L8,1L7.99941,1.00060916C7.86553,1.13664,7.65802,1.323031,7.40058,1.5542500000000001C5.85266,2.94455,2.5,5.95584,2.5,9.38831C2.5,12.4876,4.96244,15,8,15C11.03756,15,13.5,12.4876,13.5,9.38831C13.5,5.79509,10.15091,2.8847300000000002,8.595690000000001,1.53325ZM8.032720000000001,2.37214C8.6723,2.9265600000000003,9.501280000000001,3.6452,10.35566,4.63694C11.55331,6.02714,12.5,7.65647,12.5,9.38831C12.5,11.9543,10.46642,14,8,14C5.533580000000001,14,3.5,11.9543,3.5,9.38831C3.5,7.7508,4.44648,6.12348,5.65986,4.69827C6.253,4.00156,6.87962,3.38811,7.42463,2.8833599999999997C7.62119,2.7013100000000003,7.82227,2.5202299999999997,8.009360000000001,2.35189L8.032720000000001,2.37214ZM7.56958,8.414290000000001L7.5712,8.414290000000001C7.30102,9.17134,6.59659,9.71118,5.77014,9.71118C4.9683,9.71118,4.2813,9.203,3.99436,8.48131C3.95464,8.712,3.93472,8.94575,3.9348099999999997,9.17994C3.9348099999999997,11.3635,5.64781,13.1336,7.7609,13.1336C9.873999999999999,13.1336,11.58699,11.3635,11.58699,9.17994C11.58712,8.91865,11.5623,8.65796,11.51285,8.401530000000001L11.51011,8.401530000000001C11.1906,7.61808,10.42994,7.06689,9.54242,7.06689C8.650089999999999,7.06689,7.886,7.62407,7.56958,8.414290000000001Z" fill-rule="evenodd" fill="url(#master_svg0_137_05937)" fill-opacity="1"/></g></g></g></svg>