<svg xmlns="http://www.w3.org/2000/svg" xmlns:xlink="http://www.w3.org/1999/xlink" fill="none" version="1.1" width="200" height="78" viewBox="0 0 200 78"><defs><linearGradient x1="0.5" y1="0" x2="0.5" y2="1" id="master_svg0_137_11706"><stop offset="0%" stop-color="#0066EC" stop-opacity="0"/><stop offset="100%" stop-color="#0066EC" stop-opacity="0.20000000298023224"/></linearGradient><linearGradient x1="0.5" y1="0" x2="0.5" y2="1" id="master_svg1_137_11708"><stop offset="0%" stop-color="#0066EC" stop-opacity="0"/><stop offset="100%" stop-color="#0066EC" stop-opacity="0.4000000059604645"/></linearGradient><linearGradient x1="0.5" y1="0" x2="0.5" y2="1" id="master_svg2_137_11716"><stop offset="0%" stop-color="#0066EC" stop-opacity="0"/><stop offset="100%" stop-color="#0066EC" stop-opacity="0.20000000298023224"/></linearGradient><linearGradient x1="0.5" y1="0" x2="0.5" y2="1" id="master_svg3_137_11708"><stop offset="0%" stop-color="#0066EC" stop-opacity="0"/><stop offset="100%" stop-color="#0066EC" stop-opacity="0.4000000059604645"/></linearGradient><filter id="master_svg4_179_20260" filterUnits="objectBoundingBox" color-interpolation-filters="sRGB" x="-4" y="-4" width="70" height="30"><feFlood flood-opacity="0" result="BackgroundImageFix"/><feColorMatrix in="SourceAlpha" type="matrix" values="0 0 0 0 0 0 0 0 0 0 0 0 0 0 0 0 0 0 127 0"/><feOffset dy="0" dx="0"/><feGaussianBlur stdDeviation="1"/><feColorMatrix type="matrix" values="0 0 0 0 0 0 0 0 0 0.14406779408454895 0 0 0 0 0.3333333432674408 0 0 0 1 0"/><feBlend mode="normal" in2="BackgroundImageFix" result="effect1_dropShadow"/><feBlend mode="normal" in="SourceGraphic" in2="effect1_dropShadow" result="shape"/></filter><linearGradient x1="0.5" y1="0" x2="0.5" y2="1" id="master_svg5_107_2087"><stop offset="0%" stop-color="#0066EC" stop-opacity="1"/><stop offset="100%" stop-color="#04A1CF" stop-opacity="1"/></linearGradient><linearGradient x1="0.5" y1="0" x2="0.5" y2="1" id="master_svg6_107_2087"><stop offset="0%" stop-color="#0066EC" stop-opacity="1"/><stop offset="100%" stop-color="#04A1CF" stop-opacity="1"/></linearGradient><linearGradient x1="0.5" y1="0" x2="0.5" y2="1" id="master_svg7_107_2105"><stop offset="0%" stop-color="#1788E7" stop-opacity="1"/><stop offset="100%" stop-color="#096FDB" stop-opacity="1"/></linearGradient><linearGradient x1="0.5" y1="0" x2="0.5" y2="1" id="master_svg8_107_2105"><stop offset="0%" stop-color="#FFFFFF" stop-opacity="1"/><stop offset="100%" stop-color="#FFFFFF" stop-opacity="1"/></linearGradient><mask id="master_svg9_179_20275" style="mask-type:alpha" maskUnits="userSpaceOnUse"><g><path d="M47,2.84217e-15L64.32050000000001,10L64.32050000000001,30L47,40L29.67949,30L29.67949,10L47,2.84217e-15Z" fill="url(#master_svg8_107_2105)" fill-opacity="1"/></g></mask><filter id="master_svga_179_20276" filterUnits="objectBoundingBox" color-interpolation-filters="sRGB" x="-10" y="-10" width="44" height="28"><feFlood flood-opacity="0" result="BackgroundImageFix"/><feBlend mode="normal" in="SourceGraphic" in2="BackgroundImageFix" result="shape"/><feGaussianBlur stdDeviation="2.5" result="effect1_foregroundBlur"/></filter></defs><g><g><path d="M1.28716,72.7228C0.634899,75.2522,2.5426,77.7179,5.15474,77.7216L194.861,77.9927C197.468,77.9964,199.382,75.54480000000001,198.746,73.0164L188.68,33.02373C188.233,31.24605,186.635,30,184.801,30L15.4036,30C13.5792,30,11.9859,31.23453,11.5303,33.00118L1.28716,72.7228Z" fill="url(#master_svg0_137_11706)" fill-opacity="1"/><path d="M1.28716,72.7228C0.634899,75.2522,2.5426,77.7179,5.15474,77.7216L194.861,77.9927C197.468,77.9964,199.382,75.54480000000001,198.746,73.0164L188.68,33.02373C188.233,31.24605,186.635,30,184.801,30L15.4036,30C13.5792,30,11.9859,31.23453,11.5303,33.00118L1.28716,72.7228ZM2.25549,72.9725Q1.88859,74.39529999999999,2.78771,75.5574Q3.68683,76.7196,5.15617,76.7216L194.862,76.9927Q196.329,76.9948,197.231,75.8387Q198.134,74.6827,197.776,73.26050000000001L187.711,33.2678Q187.459,32.26785,186.646,31.63393Q185.833,31,184.801,31L15.4036,31Q13.0791,31,12.4986,33.25089L2.25549,72.9725Z" fill-rule="evenodd" fill="url(#master_svg1_137_11708)" fill-opacity="1"/></g><g><path d="M1.30249,65.993C0.643393,68.5267,2.55564,71,5.17365,71L194.826,71C197.444,71,199.357,68.5267,198.698,65.993L189.593,30.99299C189.134,29.23035,187.543,28,185.722,28L14.2783,28C12.457,28,10.8656,29.23035,10.4071,30.99299L1.30249,65.993Z" fill="url(#master_svg2_137_11716)" fill-opacity="1"/><path d="M1.30249,65.993C0.643393,68.5267,2.55564,71,5.17365,71L194.826,71C197.444,71,199.357,68.5267,198.698,65.993L189.593,30.99299C189.134,29.23035,187.543,28,185.722,28L14.2783,28C12.457,28,10.8656,29.23035,10.4071,30.99299L1.30249,65.993ZM2.27028,66.2447Q1.89954,67.6699,2.80028,68.83500000000001Q3.70102,70,5.17365,70L194.826,70Q196.299,70,197.2,68.83500000000001Q198.1,67.67,197.73,66.2447L188.625,31.24474Q188.041,29,185.722,29L14.2783,29Q11.9588,29,11.3749,31.24474L2.27028,66.2447Z" fill-rule="evenodd" fill="url(#master_svg3_137_11708)" fill-opacity="1"/></g><g filter="url(#master_svg4_179_20260)"><path d="M16,47L31.261499999999998,58L62.4205,58L78,47L62.4205,36L31.261499999999998,36L16,47Z" fill="#0066EC" fill-opacity="0.10000000149011612"/><path d="M16,47L16.427559,47.3082L31.261499999999998,58L62.4205,58L77.5666,47.306L78,47L77.5666,46.694L62.4205,36L31.261499999999998,36L16.427559,46.6918L16,47ZM31.423000000000002,57.5L16.855119,47L31.423000000000002,36.5L62.2618,36.5L77.1331,47L62.2618,57.5L31.423000000000002,57.5Z" fill-rule="evenodd" fill="#0066EC" fill-opacity="0.6000000238418579"/></g><g><path d="M25,43.5L35.830799999999996,51L57.9436,51L69,43.5L57.9436,36L35.830799999999996,36L25,43.5Z" fill="#0066EC" fill-opacity="0.10000000149011612"/><path d="M25,43.5L25.439135,43.80409L35.830799999999996,51L57.9436,51L68.5547,43.80209L69,43.5L68.5547,43.19791L57.9436,36L35.830799999999996,36L25.439135,43.19591L25,43.5ZM35.987,50.5L25.87827,43.5L35.987,36.5L57.79,36.5L68.10929999999999,43.5L57.79,50.5L35.987,50.5Z" fill-rule="evenodd" fill="#0066EC" fill-opacity="0.6000000238418579"/></g><g><path d="M32,40.6875L39.1875,46L54.8125,46L62,40.6875L55.0817,36L38.12019,36L32,40.6875Z" fill="#0066EC" fill-opacity="0.10196078568696976"/><path d="M32,40.6875L32.418464,40.9968L39.1875,46L54.8125,46L61.5737,41.00261L62,40.6875L61.561099999999996,40.39014L55.0817,36L38.12019,36L32,40.6875ZM39.35223,45.5L32.831579,40.68039L38.28967,36.5L54.9283,36.5L61.1348,40.70524L54.647800000000004,45.5L39.35223,45.5Z" fill-rule="evenodd" fill="#0066EC" fill-opacity="0.6000000238418579"/></g><g><path d="M36,39.666669999999996L41.28,44L53.0133,44L58,39.666669999999996L53.6,36L40.10667,36L36,39.666669999999996Z" fill="#0066EC" fill-opacity="0.10000000149011612"/><path d="M36,39.666669999999996L36.391171,39.9877L41.28,44L53.0133,44L57.6177,39.99891L58,39.666669999999996L57.6109,39.3424L53.6,36L40.10667,36L36.377477,39.32963L36,39.666669999999996ZM41.45891,43.5L36.768648,39.65067L40.297399999999996,36.5L53.419,36.5L57.2285,39.67464L52.8264,43.5L41.45891,43.5Z" fill-rule="evenodd" fill="#0066EC" fill-opacity="0.6000000238418579"/></g><g><g><path d="M36.2445,1.43614Q36.3026,1.403557,36.3502,1.356892Q36.3977,1.3102260000000001,36.4314,1.252734Q36.4651,1.195242,36.4826,1.130936Q36.5,1.0666307,36.5,1Q36.5,0.9507543,36.4904,0.9024549Q36.4808,0.854155,36.4619,0.808658Q36.4431,0.763161,36.4157,0.722215Q36.388400000000004,0.681269,36.3536,0.646447Q36.3187,0.611625,36.2778,0.584265Q36.2368,0.556906,36.1913,0.53806Q36.1458,0.519215,36.0975,0.5096069999999999Q36.0492,0.5,36,0.5Q35.8694,0.5,35.7555,0.56386L24.755497,6.73053Q24.697376,6.76311,24.649817,6.80978Q24.602257,6.85644,24.568577,6.91393Q24.534897,6.97143,24.517449,7.03573Q24.5,7.10004,24.5,7.16667L24.5,31.5867Q24.5,31.6522,24.5169,31.7156Q24.5338,31.7789,24.566457,31.8357Q24.599114,31.8926,24.645322,31.9391Q24.691529,31.9856,24.748162,32.0186L35.7479,38.4318L35.7482,38.4319Q35.8649,38.5,36,38.5Q36.0492,38.5,36.0975,38.4904Q36.1458,38.4808,36.1913,38.4619Q36.2368,38.4431,36.2778,38.4157Q36.3187,38.3884,36.3536,38.3535Q36.388400000000004,38.3187,36.4157,38.2778Q36.4431,38.2368,36.4619,38.1913Q36.4808,38.1458,36.4904,38.0975Q36.5,38.0492,36.5,38Q36.5,37.9344,36.4831,37.8711Q36.4662,37.8078,36.4335,37.7509Q36.4009,37.6941,36.3547,37.6476Q36.3085,37.6011,36.2518,37.5681L36.2502,37.5671L25.5,31.2994L25.5,7.45957L36.2445,1.43614L36.2445,1.43614Z" fill-rule="evenodd" fill="url(#master_svg5_107_2087)" fill-opacity="1"/></g><g><ellipse cx="36" cy="38" rx="1" ry="1" fill="#31D0FF" fill-opacity="1"/></g><g><ellipse cx="36" cy="1" rx="1" ry="1" fill="#3798FF" fill-opacity="1"/></g></g><g><g transform="matrix(-1,0,0,1,138,0)"><path d="M80.2445,1.43614Q80.3026,1.403557,80.3502,1.356892Q80.3977,1.3102260000000001,80.4314,1.252734Q80.4651,1.195242,80.4826,1.130936Q80.5,1.0666307,80.5,1Q80.5,0.9507543,80.4904,0.9024549Q80.4808,0.854155,80.4619,0.808658Q80.4431,0.763161,80.4157,0.722215Q80.3884,0.681269,80.3536,0.646447Q80.3187,0.611625,80.2778,0.584265Q80.2368,0.556906,80.1913,0.53806Q80.1458,0.519215,80.0975,0.5096069999999999Q80.0492,0.5,80,0.5Q79.8694,0.5,79.7555,0.56386L68.755497,6.73053Q68.697376,6.76311,68.649817,6.80978Q68.602257,6.85644,68.568577,6.91393Q68.534897,6.97143,68.517449,7.03573Q68.5,7.10004,68.5,7.16667L68.5,31.5867Q68.5,31.6522,68.5169,31.7156Q68.5338,31.7789,68.566457,31.8357Q68.599114,31.8926,68.645322,31.9391Q68.691529,31.9856,68.748162,32.0186L79.7479,38.4318L79.7482,38.4319Q79.8649,38.5,80,38.5Q80.0492,38.5,80.0975,38.4904Q80.1458,38.4808,80.1913,38.4619Q80.2368,38.4431,80.2778,38.4157Q80.3187,38.3884,80.3536,38.3535Q80.3884,38.3187,80.4157,38.2778Q80.4431,38.2368,80.4619,38.1913Q80.4808,38.1458,80.4904,38.0975Q80.5,38.0492,80.5,38Q80.5,37.9344,80.48310000000001,37.8711Q80.4662,37.8078,80.4335,37.7509Q80.40090000000001,37.6941,80.3547,37.6476Q80.3085,37.6011,80.2518,37.5681L80.2502,37.5671L69.5,31.2994L69.5,7.45957L80.2445,1.43614L80.2445,1.43614Z" fill-rule="evenodd" fill="url(#master_svg6_107_2087)" fill-opacity="1"/></g><g><ellipse cx="58" cy="38" rx="1" ry="1" fill="#31D0FF" fill-opacity="1"/></g><g><ellipse cx="58" cy="1" rx="1" ry="1" fill="#3798FF" fill-opacity="1"/></g></g><g><g><path d="M47,2.84217e-15L64.32050000000001,10L64.32050000000001,30L47,40L29.67949,30L29.67949,10L47,2.84217e-15Z" fill="url(#master_svg7_107_2105)" fill-opacity="1"/><path d="M64.32050000000001,10L47,0L29.67949,10L29.67949,30L47,40L64.32050000000001,30L64.32050000000001,10ZM63.3205,10.5773L47,1.1547L30.67949,10.5774L30.67949,29.4226L47,38.8453L63.3205,29.4226L63.3205,10.5773Z" fill-rule="evenodd" fill="#0066EC" fill-opacity="0.6000000238418579"/></g><g mask="url(#master_svg9_179_20275)"><g filter="url(#master_svga_179_20276)"><ellipse cx="48" cy="37" rx="12" ry="4" fill="#31D0FF" fill-opacity="1"/></g></g></g><g><path d="M49.640100000000004,17.38701C50.6398,16.52648,51.2856,15.193539999999999,51.2856,13.69562C51.2856,11.10622,49.3631,9,47,9C44.63659,9,42.71422,11.10622,42.71422,13.69562C42.71422,15.193539999999999,43.36023,16.52648,44.35972,17.38701C41.72506,18.54036,39.857,21.3596,39.857,24.6523L39.857,26.2174C39.857,26.65,40.17654,27,40.5713,27L53.428399999999996,27C53.8233,27,54.142700000000005,26.65,54.142700000000005,26.2174L54.142700000000005,24.6523C54.1428,21.3589,52.2748,18.54036,49.640100000000004,17.38701ZM53.9279,17.10428C54.5125,16.39809,54.8571,15.4695,54.8571,14.47889C54.8571,12.3206,53.2548,10.56518,51.2858,10.56518C51.2264,10.56518,51.1712,10.58128,51.1128,10.5842C51.422399999999996,11.0742,51.6575,11.622160000000001,51.8088,12.20903C51.8091,12.20903,51.809200000000004,12.20917,51.8094,12.20917Q51.8046,12.20966,51.8017,12.20995Q52.7826,15.07371,50.8294,17.32066C51.1549,17.48124,54.8504,19.1619,54.85,24.6523C54.8524,24.6523,54.8548,24.652,54.8571,24.652L54.8571,24.6521L56.2857,24.6521C56.6804,24.6521,57,24.3022,57,23.8697L57,22.659C56.9999,20.2706,55.7876,18.15979,53.9279,17.10428ZM43.16343,17.320639999999997Q41.21034,15.07369,42.19104,12.20993C42.34181,11.622160000000001,42.57747,11.0742,42.8867,10.58432C42.8286,10.58112,42.7734,10.56516,42.71422,10.56516C40.74504,10.56516,39.1428,12.32058,39.1428,14.47887C39.1428,15.469339999999999,39.48749,16.39795,40.07192,17.10425C38.2122,18.15979,37,20.2706,37,22.6589L37,23.8697C37,24.3022,37.319427,24.6521,37.714329,24.6521L39.142830000000004,24.6521C39.14244,19.1619,42.83785,17.481189999999998,43.16343,17.320639999999997Z" fill="#C5ECFF" fill-opacity="1"/></g></g></svg>