<svg xmlns="http://www.w3.org/2000/svg" xmlns:xlink="http://www.w3.org/1999/xlink" fill="none" version="1.1" width="20" height="20" viewBox="0 0 20 20"><defs><clipPath id="master_svg0_137_09853"><rect x="0" y="0" width="20" height="20" rx="0"/></clipPath><filter id="master_svg1_137_09859" filterUnits="objectBoundingBox" color-interpolation-filters="sRGB" x="0" y="0" width="20" height="20"><feFlood flood-opacity="0" result="BackgroundImageFix"/><feBlend mode="normal" in="SourceGraphic" in2="BackgroundImageFix" result="shape"/><feGaussianBlur in="BackgroundImage" stdDeviation="13.591408729553223"/><feComposite in2="SourceAlpha" operator="in" result="effect1_foregroundBlur"/><feBlend mode="normal" in="SourceGraphic" in2="effect1_foregroundBlur" result="shape"/></filter><clipPath id="master_svg2_137_09854"><rect x="0" y="0" width="20" height="20" rx="0"/></clipPath><clipPath id="master_svg3_137_09856"><rect x="0" y="0" width="20" height="20" rx="0"/></clipPath></defs><g clip-path="url(#master_svg0_137_09853)"><g filter="url(#master_svg1_137_09859)"><path d="M0,0C0,0,20,0,20,0C20,0,20,20,20,20C20,20,0,20,0,20C0,20,0,0,0,0Z" fill="#159AFF" fill-opacity="0.10000000149011612"/><path d="M0,20L0,0L20,0L20,20L0,20ZM1,19L1,1L19,1L19,19L1,19Z" fill-rule="evenodd" fill="#0066EC" fill-opacity="1"/></g><g clip-path="url(#master_svg2_137_09854)"><g style="opacity:0.5;" clip-path="url(#master_svg3_137_09856)"><g><path d="M0,0.35C0,0.35,19.65,20,19.65,20C19.65,20,20,19.65,20,19.65C20,19.65,0.35,0,0.35,0C0.35,0,0,0.35,0,0.35Z" fill="#0066EC" fill-opacity="1"/></g><g><path d="M0,19.65C0,19.65,0.35,20,0.35,20C0.35,20,20,0.35,20,0.35C20,0.35,19.65,0,19.65,0C19.65,0,0,19.65,0,19.65Z" fill="#0066EC" fill-opacity="1"/></g></g><g><path d="M6.666015625,6.666015625C6.666015625,6.666015625,13.332685625,6.666015625,13.332685625,6.666015625C13.332685625,6.666015625,13.332685625,13.332685625,13.332685625,13.332685625C13.332685625,13.332685625,6.666015625,13.332685625,6.666015625,13.332685625C6.666015625,13.332685625,6.666015625,6.666015625,6.666015625,6.666015625Z" fill-rule="evenodd" fill="#3BE8FF" fill-opacity="1"/><path d="M6.666015625,13.332685625L6.666015625,6.666015625L13.332685625,6.666015625L13.332685625,13.332685625L6.666015625,13.332685625ZM7.666015625,12.332685625L7.666015625,7.666015625L12.332685625,7.666015625L12.332685625,12.332685625L7.666015625,12.332685625Z" fill-rule="evenodd" fill="#FFFFFF" fill-opacity="1"/></g></g></g></svg>