<svg xmlns="http://www.w3.org/2000/svg" xmlns:xlink="http://www.w3.org/1999/xlink" fill="none" version="1.1" width="16" height="16" viewBox="0 0 16 16"><defs><linearGradient x1="0.5" y1="0" x2="0.5" y2="1" id="master_svg0_107_1613"><stop offset="0%" stop-color="#F4FCFF" stop-opacity="1"/><stop offset="100%" stop-color="#086BED" stop-opacity="1"/></linearGradient></defs><g><g></g><g><path d="M5.52372,3.33342C5.52372,2.07199,6.587619999999999,1.0389333,7.9257100000000005,1.00107682L8,1C9.36735,1,10.47584,2.04467,10.475999999999999,3.33342L10.475999999999999,8.27031L10.548,8.32496C11.44036,9.0188,11.96954,10.04321,11.99857,11.133L12,11.2308C12,13.3125,10.20914,15,8,15C5.79086,15,4,13.3125,4,11.2308C3.999039514,10.10641,4.531643,9.04054,5.452,8.32496L5.52372,8.27031L5.52372,3.33342ZM9.33343,3.33342C9.33343,2.63948,8.73643,2.0769200000000003,8,2.0769200000000003C7.26357,2.0769200000000003,6.66657,2.63948,6.66657,3.33342L6.66657,4.111330000000001L7.1998999999999995,4.111330000000001Q7.7333099999999995,4.111330000000001,7.7333099999999995,4.629849999999999Q7.7333099999999995,5.14837,7.1998999999999995,5.14837L6.66657,5.14837L6.66657,6.18506L7.1998999999999995,6.18506Q7.7333099999999995,6.18506,7.7333099999999995,6.70358Q7.7333099999999995,7.2221,7.1998999999999995,7.2221L6.66657,7.2221L6.66657,8.54412C6.66657,8.72382,6.57152,8.89165,6.41314,8.991579999999999C5.62514,9.48885,5.14286,10.32077,5.14286,11.2308C5.14286,12.7177,6.422000000000001,13.9231,8,13.9231C9.578,13.9231,10.857140000000001,12.7177,10.857140000000001,11.2308C10.85801,10.33103,10.38125,9.4905,9.58686,8.99131C9.42845,8.89133,9.333400000000001,8.7235,9.33343,8.543849999999999L9.33343,3.33342ZM7.23041,10.97462C7.2326999999999995,10.62131,6.98643,10.33349,6.68186,10.3335C6.39479,10.33339,6.1562,10.59005,6.13467,10.92212L6.1333,10.96985C6.1333,12.306,7.04763,13.4009,8.198889999999999,13.4433L8.26663,13.4446L8.26663,12.1719C7.715120000000001,12.1719,7.26024,11.6708,7.2317800000000005,11.0319L7.23041,10.97462Z" fill-rule="evenodd" fill="url(#master_svg0_107_1613)" fill-opacity="1"/></g></g></svg>