<svg xmlns="http://www.w3.org/2000/svg" xmlns:xlink="http://www.w3.org/1999/xlink" fill="none" version="1.1" width="16" height="16" viewBox="0 0 16 16"><defs><clipPath id="master_svg0_137_05613"><rect x="0" y="0" width="16" height="16" rx="0"/></clipPath><linearGradient x1="0.5" y1="-3.0616171314629196e-17" x2="0.5" y2="1" id="master_svg1_107_2714"><stop offset="0%" stop-color="#FFFFFF" stop-opacity="1"/><stop offset="27.959829568862915%" stop-color="#E8FDFF" stop-opacity="1"/><stop offset="100%" stop-color="#0066EC" stop-opacity="1"/></linearGradient></defs><g clip-path="url(#master_svg0_137_05613)"><g></g><g><path d="M8.0000440234375,14.66679609375C4.3180440234374995,14.66679609375,1.3333740234375,11.68219609375,1.3333740234375,8.00016609375C1.3333740234375,4.3181660937499995,4.3180440234374995,1.33349609375,8.0000440234375,1.33349609375C11.6820740234375,1.33349609375,14.6666740234375,4.3181660937499995,14.6666740234375,8.00016609375C14.6666740234375,11.68219609375,11.6820740234375,14.66679609375,8.0000440234375,14.66679609375ZM8.0000440234375,13.33349609375C9.4145240234375,13.33349609375,10.7710840234375,12.77159609375,11.7712740234375,11.77139609375C12.7714740234375,10.77120609375,13.3333740234375,9.41464609375,13.3333740234375,8.00016609375C13.3333740234375,6.58567609375,12.7714740234375,5.22911609375,11.7712740234375,4.22892609375C10.7710840234375,3.2287360937500003,9.4145240234375,2.66682609375,8.0000440234375,2.66682609375C6.5855540234375,2.66682609375,5.2289940234375,3.2287360937500003,4.2288040234375,4.22892609375C3.2286140234375003,5.22911609375,2.6667040234375,6.58567609375,2.6667040234375,8.00016609375C2.6667040234375,9.41464609375,3.2286140234375003,10.77120609375,4.2288040234375,11.77139609375C5.2289940234375,12.77159609375,6.5855540234375,13.33349609375,8.0000440234375,13.33349609375C8.0000440234375,13.33349609375,8.0000440234375,13.33349609375,8.0000440234375,13.33349609375ZM8.6667040234375,8.00016609375C8.6667040234375,8.00016609375,11.3333740234375,8.00016609375,11.3333740234375,8.00016609375C11.3333740234375,8.00016609375,11.3333740234375,9.33349609375,11.3333740234375,9.33349609375C11.3333740234375,9.33349609375,7.3333740234375,9.33349609375,7.3333740234375,9.33349609375C7.3333740234375,9.33349609375,7.3333740234375,4.66682609375,7.3333740234375,4.66682609375C7.3333740234375,4.66682609375,8.6667040234375,4.66682609375,8.6667040234375,4.66682609375C8.6667040234375,4.66682609375,8.6667040234375,8.00016609375,8.6667040234375,8.00016609375Z" fill="url(#master_svg1_107_2714)" fill-opacity="1"/></g></g></svg>