<svg xmlns="http://www.w3.org/2000/svg" xmlns:xlink="http://www.w3.org/1999/xlink" fill="none" version="1.1" width="28" height="28" viewBox="0 0 28 28"><defs><clipPath id="master_svg0_3242_041121/3241_040018"><rect x="0" y="0" width="28" height="28" rx="0"/></clipPath></defs><g clip-path="url(#master_svg0_3242_041121/3241_040018)"><g><path d="M25.385873876953124,14.7871049375L3.664985576953125,14.7871049375C3.110645736953125,14.7871049375,2.663848876953125,14.3192239375,2.663848876953125,13.7400289375C2.663848876953125,13.1604509375,3.110645736953125,12.6921348375,3.664985576953125,12.6921348375L25.385894876953124,12.6923828375M3.664985576953125,22.4682919375L13.524292876953124,22.4682919375C14.078632876953124,22.4682919375,14.525428876953125,22.9365539375,14.525428876953125,23.5157759375C14.525428876953125,24.0949439375,14.078632876953124,24.5632589375,13.524292876953124,24.5632589375L3.664985576953125,24.5632589375C3.110645736953125,24.5632589375,2.663848876953125,24.0949419375,2.663848876953125,23.5157759375C2.663821640015125,22.9365539375,3.110618496953125,22.4682919375,3.664985576953125,22.4682919375ZM3.664985576953125,3.3818359375L19.455070876953126,3.3818359375C20.009437876953125,3.3818359375,20.456204876953127,3.8497147275,20.456204876953127,4.4293202375C20.456204876953127,5.0089256375,20.009437876953125,5.4768307375,19.455070876953126,5.4768307375L3.664985576953125,5.4768307375C3.110645736953125,5.4768307375,2.663848876953125,5.0089247375,2.663848876953125,4.4293189375C2.663821640015125,3.8497133875,3.110618496953125,3.381834602356,3.664985576953125,3.3818359375Z" fill="#070606" fill-opacity="1" style="mix-blend-mode:passthrough"/></g></g></svg>