<svg xmlns="http://www.w3.org/2000/svg" xmlns:xlink="http://www.w3.org/1999/xlink" fill="none" version="1.1" width="20" height="20" viewBox="0 0 20 20"><defs><clipPath id="master_svg0_3242_027953"><rect x="0" y="0" width="20" height="20" rx="0"/></clipPath></defs><g clip-path="url(#master_svg0_3242_027953)"><g><path d="M17.829062999999998,10.6276054L14.493263,16.338131C14.256773,16.745487,13.804233,16.999088,13.312191,17L6.687809,17C6.1957669,16.999088,5.7432277,16.745487,5.5067382,16.338131L2.17093687,10.6276054C1.943021037,10.236866,1.943021037,9.763135,2.17093687,9.3723955L5.5067382,3.66186839C5.743227,3.25451243,6.1957669,3.00091070874,6.687809,3L13.312191,3C13.804233,3.00091070874,14.256773,3.25451243,14.493263,3.66186839L17.829062999999998,9.3723955C18.056978,9.763135,18.056978,10.236866,17.829062999999998,10.6276054ZM16.80487,10.089710700000001C16.837363,10.033902600000001,16.837363,9.9662828,16.80487,9.9104743L13.474922,4.1999476C13.441306,4.1417367,13.376761,4.105444,13.306534,4.1052631L6.6934676,4.1052631C6.623239,4.1054442,6.5586953,4.1417367,6.5250778,4.1999476L3.1951305000000003,9.9104743C3.1626387,9.9662828,3.1626387,10.033902600000001,3.1951305000000003,10.089710700000001L6.5250778,15.800237C6.5587468,15.858377,6.6232805,15.894594,6.6934676,15.894737L13.306532,15.894737C13.376719,15.894594,13.441252,15.858377,13.474921,15.800237L16.80487,10.089710700000001ZM9.9496584,12.8762627C8.225368,12.8762627,6.8277116,11.5567627,6.8277116,9.9288945C6.8277116,8.301026799999999,8.225368,6.9815271,9.9496584,6.9815271C11.6737537,6.9815271,13.071605,8.301026799999999,13.071605,9.9288945C13.071605,11.5567627,11.6737528,12.8762627,9.9496584,12.8762627ZM9.9496584,11.7709999C11.0273151,11.7709999,11.900876,10.946288599999999,11.900876,9.9288945C11.900876,8.9114995,11.0273161,8.0867891,9.9496584,8.0867891C8.8720012,8.0867891,7.9984412,8.9114995,7.9984412,9.9288945C7.9984412,10.946288599999999,8.8720012,11.7709999,9.9496584,11.7709999Z" fill="#0066EC" fill-opacity="1" style="mix-blend-mode:passthrough"/></g></g></svg>