<svg xmlns="http://www.w3.org/2000/svg" xmlns:xlink="http://www.w3.org/1999/xlink" fill="none" version="1.1" width="20" height="20" viewBox="0 0 20 20"><defs><clipPath id="master_svg0_3242_027949"><rect x="0" y="0" width="20" height="20" rx="0"/></clipPath></defs><g clip-path="url(#master_svg0_3242_027949)"><g><path d="M14.421053,7.6834581C14.624525,7.6834571,14.789473,7.848371,14.789474,8.0518036L14.789474,14.745013L15.850158,13.6849146C15.994026,13.5411196,16.227237000000002,13.5411196,16.371105,13.6849146L16.892052,14.205754C17.035876000000002,14.349593,17.035876000000002,14.582758,16.892052,14.726596L14.887841,16.730395C14.632161,16.985913,14.250613,17.068265,13.912271,16.940956C13.573932,16.813648999999998,13.341366,16.500224,13.31763,16.139571L13.315789,16.079163L13.315789,8.0518036C13.315787,7.8483716999999995,13.480736,7.6834571,13.68421,7.6834581L14.421053,7.6834581ZM10.7368422,15.050373C10.9403148,15.050373,11.1052628,15.215286,11.1052628,15.418719L11.1052628,16.15541C11.1052628,16.358843999999998,10.9403148,16.523757,10.7368422,16.523757L3.36842096,16.523757C3.16494757,16.523757,2.99999983135024,16.358843999999998,3,16.15541L3,15.418719C2.99999983135024,15.215286,3.16494757,15.050373,3.36842096,15.050373L10.7368422,15.050373ZM10.7368422,9.5251865C10.9403148,9.5251865,11.1052628,9.6901007,11.1052628,9.8935323L11.1052628,10.6302238C11.1052628,10.833655799999999,10.9403148,10.9985695,10.7368422,10.9985695L3.36842096,10.9985695C3.16494757,10.9985695,2.99999983135024,10.833655799999999,3,10.6302238L3,9.8935323C2.99999983135024,9.6901007,3.16494757,9.5251865,3.36842096,9.5251865L10.7368422,9.5251865ZM16.631577999999998,4.0000001686153C16.835051,4.0000001686153,16.999999000000003,4.16491386,17,4.36834586L17,5.1050372C16.999999000000003,5.3084693000000005,16.835051,5.4733830999999995,16.631577999999998,5.4733830999999995L3.36842096,5.4733830999999995C3.16494757,5.4733830999999995,2.99999983135024,5.3084689,3,5.1050372L3,4.36834586C2.99999983135024,4.16491419,3.16494757,4.0000001686153,3.36842096,4L16.631577999999998,4.0000001686153Z" fill="#0066EC" fill-opacity="1" style="mix-blend-mode:passthrough"/></g></g></svg>