<svg xmlns="http://www.w3.org/2000/svg" xmlns:xlink="http://www.w3.org/1999/xlink" fill="none" version="1.1" width="358" height="66" viewBox="0 0 358 66"><defs><filter id="master_svg0_186_8097" filterUnits="objectBoundingBox" color-interpolation-filters="sRGB" x="0" y="0" width="308.9930419921875" height="66"><feFlood flood-opacity="0" result="BackgroundImageFix"/><feBlend mode="normal" in="SourceGraphic" in2="BackgroundImageFix" result="shape"/><feColorMatrix in="SourceAlpha" type="matrix" result="hardAlpha" values="0 0 0 0 0 0 0 0 0 0 0 0 0 0 0 0 0 0 127 0"/><feOffset dy="0" dx="0"/><feGaussianBlur stdDeviation="5"/><feComposite in2="hardAlpha" operator="arithmetic" k2="-1" k3="1"/><feColorMatrix type="matrix" values="0 0 0 0 0.1725490242242813 0 0 0 0 0.545098066329956 0 0 0 0 1 0 0 0 0.12999999523162842 0"/><feBlend mode="normal" in2="shape" result="effect1_innerShadow"/></filter><radialGradient cx="0" cy="0" r="1" gradientUnits="userSpaceOnUse" id="master_svg1_113_00249" gradientTransform="translate(179.41531372070312 33) rotate(90) scale(33 154.49652099609375)"><stop offset="0%" stop-color="#2C8BFF" stop-opacity="0"/><stop offset="100%" stop-color="#2CF1FF" stop-opacity="0.10000000149011612"/></radialGradient><linearGradient x1="1" y1="0.5" x2="0" y2="0.5" id="master_svg2_113_00251"><stop offset="0%" stop-color="#0073FF" stop-opacity="1"/><stop offset="14.383561909198761%" stop-color="#2C8BFF" stop-opacity="1"/><stop offset="47.26027250289917%" stop-color="#2CF1FF" stop-opacity="1"/><stop offset="80.0000011920929%" stop-color="#2CF1FF" stop-opacity="1"/><stop offset="100%" stop-color="#0073FF" stop-opacity="1"/></linearGradient><linearGradient x1="1" y1="0.5" x2="0" y2="0.5" id="master_svg3_113_00246"><stop offset="0%" stop-color="#2C8BFF" stop-opacity="1"/><stop offset="3.999999910593033%" stop-color="#2C8BFF" stop-opacity="0"/><stop offset="51.428574323654175%" stop-color="#2CF1FF" stop-opacity="0"/><stop offset="96.42857313156128%" stop-color="#2CF1FF" stop-opacity="0"/><stop offset="100%" stop-color="#2C8BFF" stop-opacity="1"/></linearGradient><linearGradient x1="1" y1="0.5" x2="0" y2="0.5" id="master_svg4_113_00243"><stop offset="0%" stop-color="#2C8BFF" stop-opacity="1"/><stop offset="3.999999910593033%" stop-color="#2C8BFF" stop-opacity="0"/><stop offset="51.428574323654175%" stop-color="#2CF1FF" stop-opacity="0"/><stop offset="96.42857313156128%" stop-color="#2CF1FF" stop-opacity="0"/><stop offset="100%" stop-color="#2C8BFF" stop-opacity="1"/></linearGradient></defs><g><g filter="url(#master_svg0_186_8097)"><path d="M24.918792724609375,33L35.67259272460937,66L322.44079272460937,66L333.91179272460937,33.825L322.44079272460937,0L35.67259272460937,0L24.918792724609375,33Z" fill="url(#master_svg1_113_00249)" fill-opacity="1"/><path d="M35.67259272460937,0L24.918792724609375,33L35.67259272460937,66L322.44079272460937,66L333.91179272460937,33.825L322.44079272460937,0L35.67259272460937,0ZM321.7357927246094,65L36.398492724609376,65L25.970552724609377,33L36.398492724609376,1L321.7237927246094,1L332.8527927246094,33.8168L321.7357927246094,65Z" fill-rule="evenodd" fill="url(#master_svg2_113_00251)" fill-opacity="1"/></g><g><g><g><path d="M12.4594,0L0,33L12.4594,66L344.71,66L358,33.825L344.71,0L12.4594,0ZM344.041,65L13.1507,65L1.0689,33L13.1507,1L344.028,1L356.922,33.8156L344.041,65Z" fill-rule="evenodd" fill="url(#master_svg3_113_00246)" fill-opacity="1"/></g></g><g><path d="M23.36560625,0L11.62890625,33L23.36560625,66L336.34390625,66L348.86290625,33.825L336.34390625,0L23.36560625,0ZM335.65990625,65L24.07130625,65L12.69026625,33L24.07130625,1L335.64790625,1L347.79390625,33.8161L335.65990625,65Z" fill-rule="evenodd" fill="url(#master_svg4_113_00243)" fill-opacity="0.5"/></g></g></g></svg>