<svg xmlns="http://www.w3.org/2000/svg" xmlns:xlink="http://www.w3.org/1999/xlink" fill="none" version="1.1" width="340" height="69" viewBox="0 0 340 69"><g><g><rect x="0" y="45.9692497253418" width="134.26870727539062" height="2.1282057762145996" rx="0" fill="#999997" fill-opacity="1"/></g><g><path d="M45.59894196899414,6.411219093475342L45.59894196899414,4.1766040934753415L48.56386196899414,4.1766040934753415L48.56386196899414,6.318109093475342L51.06556196899414,6.318109093475342L51.06556196899414,9.018269093475343L48.56386196899414,9.018269093475343L48.56386196899414,11.718429093475342L50.69486196899414,11.718429093475342L50.69486196899414,22.70525909347534L51.06556196899414,22.70525909347534Q51.714061968994145,22.79835909347534,51.714061968994145,21.960459093475343L51.714061968994145,4.1766040934753415L58.94106196899414,4.1766040934753415L58.94106196899414,22.239759093475342Q58.94106196899414,25.21925909347534,56.43946196899414,25.21925909347534L54.58636196899414,25.21925909347534L54.58636196899414,22.98465909347534Q54.40106196899414,25.21925909347534,52.36266196899414,25.21925909347534L50.69486196899414,25.21925909347534L50.69486196899414,23.170859093475343Q50.50956196899414,25.21925909347534,47.915261968994145,25.31235909347534L43.37525196899414,25.31235909347534L43.37525196899414,11.718429093475342L45.59894196899414,11.718429093475342L45.59894196899414,9.018269093475343L42.81932196899414,9.018269093475343L42.81932196899414,10.228689093475342L40.50298196899414,10.228689093475342Q38.83521196899414,10.508019093475342,38.55724696899414,8.552729093475342L37.72336196899414,4.362822093475342L41.33686196899414,4.362822093475342L41.80013196899414,7.156089093475342Q41.80013196899414,7.807859093475342,42.44871196899414,7.7147490934753415L42.72667196899414,7.7147490934753415L42.72667196899414,6.411219093475342L45.59894196899414,6.411219093475342ZM54.58636196899414,6.783659093475341L54.58636196899414,10.321799093475342L56.06886196899414,10.321799093475342L56.06886196899414,6.783659093475341L54.58636196899414,6.783659093475341ZM38.55724696899414,14.697959093475342L37.72336196899414,11.252889093475343L40.96625196899414,11.252889093475343L41.70748196899414,14.046159093475342Q41.89278196899414,14.511659093475341,42.35605196899414,14.418559093475341L42.63402196899414,14.418559093475341L42.63402196899414,17.02565909347534L40.68828196899414,17.02565909347534Q39.02051196899414,17.39805909347534,38.55724696899414,14.697959093475342ZM54.58636196899414,16.466959093475342L56.06886196899414,16.466959093475342L56.06886196899414,12.835739093475341L54.58636196899414,12.835739093475341L54.58636196899414,16.466959093475342ZM46.34017196899414,22.70525909347534L47.17405196899414,22.70525909347534Q47.72996196899414,22.79835909347534,47.72996196899414,22.146659093475343L47.72996196899414,14.697959093475342L46.34017196899414,14.697959093475342L46.34017196899414,22.70525909347534ZM39.29848196899414,22.146659093475343L40.03971196899414,17.95675909347534L43.09728196899414,17.95675909347534L42.17075196899414,23.636359093475342Q41.80013196899414,25.31235909347534,39.57644196899414,25.31235909347534L37.81601586899414,25.31235909347534L37.81601586899414,22.70525909347534L38.55724696899414,22.70525909347534Q39.11317196899414,22.79835909347534,39.29848196899414,22.146659093475343ZM54.58636196899414,22.70525909347534L55.42026196899414,22.70525909347534Q56.06886196899414,22.70525909347534,56.06886196899414,22.146659093475343L56.06886196899414,19.16715909347534L54.58636196899414,19.16715909347534L54.58636196899414,22.70525909347534ZM68.02116196899414,7.249199093475342L68.02116196899414,3.711059093475342L71.44936196899414,3.711059093475342L71.44936196899414,22.425959093475342Q71.26406196899414,24.84675909347534,68.85506196899414,25.12615909347534L61.72076196899414,25.12615909347534L61.72076196899414,22.332859093475342L67.27996196899414,22.332859093475342Q68.11386196899414,22.51905909347534,68.02116196899414,21.49485909347534L68.02116196899414,10.414909093475341L61.813361968994144,10.414909093475341L61.813361968994144,7.249199093475342L68.02116196899414,7.249199093475342ZM73.02446196899413,22.51905909347534L73.02446196899413,3.711059093475342L76.45266196899414,3.711059093475342L76.45266196899414,7.342309093475341L82.75316196899414,7.342309093475341L82.75316196899414,10.508019093475342L76.45266196899414,10.508019093475342L76.45266196899414,21.58795909347534Q76.26736196899414,22.51905909347534,77.00856196899414,22.332859093475342L82.66046196899414,22.332859093475342L82.66046196899414,25.12615909347534L75.43346196899414,25.12615909347534Q73.02446196899413,25.03305909347534,73.02446196899413,22.51905909347534ZM104.15616196899414,4.083495093475342L107.12106196899414,4.083495093475342L106.37986196899413,7.156089093475342Q106.00926196899414,8.925159093475342,104.24886196899413,8.645839093475342L102.30306196899414,8.645839093475342L102.30306196899414,6.131889093475342L103.04436196899414,6.131889093475342Q103.50756196899414,6.131889093475342,103.69296196899414,5.573239093475342L104.15616196899414,4.083495093475342ZM97.11446196899414,7.342309093475341L96.28056196899414,4.083495093475342L99.43086196899415,4.083495093475342L99.89406196899414,5.573239093475342Q99.89406196899414,6.224999093475342,100.54266196899414,6.131889093475342L101.09856196899415,6.131889093475342L101.09856196899415,8.645839093475342L98.78226196899413,8.645839093475342Q97.39246196899414,8.738949093475341,97.11446196899414,7.342309093475341ZM86.55196196899414,7.249199093475342L85.90336196899415,7.249199093475342L85.90336196899415,4.269713093475342L96.18796196899413,4.269713093475342L96.18796196899413,7.249199093475342L95.53936196899414,7.249199093475342L95.53936196899414,21.30865909347534L96.18796196899413,21.30865909347534L96.18796196899413,24.10195909347534L95.53936196899414,24.10195909347534L95.53936196899414,25.31235909347534L92.29646196899414,25.31235909347534L92.29646196899414,24.10195909347534L85.90336196899415,24.10195909347534L85.90336196899415,21.30865909347534L86.55196196899414,21.30865909347534L86.55196196899414,7.249199093475342ZM92.29646196899414,7.249199093475342L89.79486196899414,7.249199093475342L89.79486196899414,10.135579093475343L92.29646196899414,10.135579093475343L92.29646196899414,7.249199093475342ZM96.55856196899414,12.183979093475342L96.55856196899414,9.483819093475342L106.75046196899414,9.483819093475342L106.75046196899414,12.183979093475342L103.50756196899414,12.183979093475342L103.50756196899414,14.697959093475342L106.75046196899414,14.697959093475342L106.75046196899414,17.39805909347534L103.13696196899414,17.39805909347534L102.67376196899414,18.98095909347534L104.43416196899415,18.98095909347534L105.54596196899413,22.146659093475343Q105.63866196899414,22.70525909347534,106.28726196899414,22.61215909347534L106.84316196899414,22.61215909347534L106.84316196899414,25.21925909347534L104.89736196899415,25.21925909347534Q103.32226196899414,25.21925909347534,103.04436196899414,23.91575909347534L101.93246196899415,21.029359093475342L101.00596196899414,24.10195909347534Q100.72796196899415,25.405459093475343,99.52346196899414,25.31235909347534L96.55856196899414,25.31235909347534L96.55856196899414,22.70525909347534L97.48506196899413,22.70525909347534Q98.04106196899414,22.79835909347534,98.31896196899413,22.053559093475343L99.80146196899415,17.39805909347534L96.55856196899414,17.39805909347534L96.55856196899414,14.697959093475342L100.07946196899414,14.697959093475342L100.07946196899414,12.183979093475342L96.55856196899414,12.183979093475342ZM92.29646196899414,12.835739093475341L89.79486196899414,12.835739093475341L89.79486196899414,15.722159093475343L92.29646196899414,15.722159093475343L92.29646196899414,12.835739093475341ZM89.79486196899414,21.30865909347534L92.29646196899414,21.30865909347534L92.29646196899414,18.42225909347534L89.79486196899414,18.42225909347534L89.79486196899414,21.30865909347534ZM116.84976196899414,17.02565909347534L116.84976196899414,14.139259093475342L129.91396196899416,14.139259093475342L129.91396196899416,16.93255909347534L125.65186196899414,21.40175909347534L126.76376196899415,22.332859093475342Q126.94906196899414,22.70525909347534,127.69026196899414,22.61215909347534L130.19196196899412,22.61215909347534L130.19196196899412,25.12615909347534L126.39306196899415,25.12615909347534Q125.37396196899414,25.12615909347534,125.09596196899415,24.753659093475342L123.61346196899414,23.450159093475342L122.13106196899415,24.753659093475342Q121.66776196899414,25.21925909347534,120.46326196899415,25.21925909347534L116.66446196899415,25.21925909347534L116.66446196899415,22.70525909347534L119.53676196899414,22.70525909347534Q119.99996196899414,22.70525909347534,120.37056196899414,22.425959093475342L121.29716196899415,21.58795909347534L117.68366196899414,17.677359093475342L121.85306196899414,17.677359093475342L123.42816196899415,19.16715909347534L125.55926196899414,17.02565909347534L116.84976196899414,17.02565909347534ZM116.94246196899414,11.159779093475342L117.59096196899414,11.159779093475342Q117.86896196899414,11.159779093475342,117.86896196899414,10.880449093475342L117.86896196899414,4.1766040934753415L129.45066196899415,4.1766040934753415L129.45066196899415,10.601129093475341Q129.45066196899415,10.880449093475342,129.72866196899415,10.880449093475342L130.19196196899412,10.880449093475342L130.19196196899412,13.487509093475342L128.61676196899413,13.487509093475342Q126.20776196899413,13.580609093475342,126.30046196899414,11.718429093475342L126.30046196899414,7.062979093475342L121.01916196899414,7.062979093475342L121.01916196899414,11.718429093475342Q121.01916196899414,13.673719093475341,119.44406196899413,13.580609093475342L116.94246196899414,13.580609093475342L116.94246196899414,11.159779093475342ZM112.58766196899414,5.573239093475342L112.58766196899414,3.804168093475342L115.55256196899414,3.804168093475342L115.55256196899414,5.480129093475342L116.47916196899413,5.480129093475342L116.47916196899413,8.459619093475343L115.64526196899413,8.459619093475343L115.64526196899413,10.042469093475342L116.57176196899414,10.042469093475342L116.57176196899414,12.835739093475341L115.73796196899414,12.835739093475341L115.73796196899414,23.543259093475342Q115.55256196899414,25.03305909347534,113.79216196899414,25.31235909347534L109.80806196899414,25.31235909347534L109.80806196899414,22.70525909347534L112.40236196899414,22.70525909347534Q112.77296196899414,22.79835909347534,112.77296196899414,22.332859093475342L112.77296196899414,18.51535909347534L112.30976196899414,19.53955909347534Q111.93906196899414,20.28445909347534,110.91996196899414,20.19135909347534L109.25216196899414,20.19135909347534L109.25216196899414,17.77055909347534L109.90076196899415,17.77055909347534Q110.27136196899414,17.86365909347534,110.36396196899415,17.584259093475342L112.68036196899413,10.973559093475341L112.68036196899413,8.552729093475342L109.25216196899414,8.552729093475342L109.25216196899414,5.573239093475342L112.58766196899414,5.573239093475342Z" fill="#FFFFFF" fill-opacity="1"/></g><g><path d="M234.258776640625,23.124283552856447L234.258776640625,20.331017552856444L237.964906640625,20.331017552856444L237.964906640625,23.007903552856444L241.09200664062502,23.007903552856444L241.09200664062502,26.383103552856447L237.964906640625,26.383103552856447L237.964906640625,29.758313552856446L240.628706640625,29.758313552856446L240.628706640625,43.491913552856445L241.09200664062502,43.491913552856445Q241.902706640625,43.608313552856444,241.902706640625,42.560813552856445L241.902706640625,20.331017552856444L250.936506640625,20.331017552856444L250.936506640625,42.909913552856445Q250.936506640625,46.63431355285644,247.809406640625,46.63431355285644L245.493106640625,46.63431355285644L245.493106640625,43.841013552856445Q245.261406640625,46.63431355285644,242.713406640625,46.63431355285644L240.628706640625,46.63431355285644L240.628706640625,44.07381355285645Q240.397106640625,46.63431355285644,237.154206640625,46.750713552856446L231.479166640625,46.750713552856446L231.479166640625,29.758313552856446L234.258776640625,29.758313552856446L234.258776640625,26.383103552856447L230.784256640625,26.383103552856447L230.784256640625,27.896123552856444L227.888826640625,27.896123552856444Q225.804116640625,28.245283552856446,225.456666640625,25.801173552856447L224.414306640625,20.563793552856446L228.931186640625,20.563793552856446L229.510266640625,24.055373552856445Q229.510266640625,24.870083552856446,230.320986640625,24.753693552856447L230.668446640625,24.753693552856447L230.668446640625,23.124283552856447L234.258776640625,23.124283552856447ZM245.493106640625,23.589833552856447L245.493106640625,28.012513552856447L247.346106640625,28.012513552856447L247.346106640625,23.589833552856447L245.493106640625,23.589833552856447ZM225.456666640625,33.48261355285645L224.414306640625,29.176373552856447L228.467916640625,29.176373552856447L229.394456640625,32.66791355285645Q229.626086640625,33.24991355285644,230.205176640625,33.13351355285644L230.552626640625,33.13351355285644L230.552626640625,36.39231355285645L228.120466640625,36.39231355285645Q226.035746640625,36.857913552856445,225.456666640625,33.48261355285645ZM245.493106640625,35.69401355285645L247.346106640625,35.69401355285645L247.346106640625,31.154913552856446L245.493106640625,31.154913552856446L245.493106640625,35.69401355285645ZM235.18530664062502,43.491913552856445L236.227706640625,43.491913552856445Q236.922606640625,43.608313552856444,236.922606640625,42.793513552856446L236.922606640625,33.48261355285645L235.18530664062502,33.48261355285645L235.18530664062502,43.491913552856445ZM226.383196640625,42.793513552856446L227.309736640625,37.55621355285645L231.131716640625,37.55621355285645L229.973536640625,44.65571355285644Q229.510266640625,46.750713552856446,226.730656640625,46.750713552856446L224.530123640625,46.750713552856446L224.530123640625,43.491913552856445L225.456666640625,43.491913552856445Q226.151566640625,43.608313552856444,226.383196640625,42.793513552856446ZM245.493106640625,43.491913552856445L246.535406640625,43.491913552856445Q247.346106640625,43.491913552856445,247.346106640625,42.793513552856446L247.346106640625,39.069213552856446L245.493106640625,39.069213552856446L245.493106640625,43.491913552856445ZM262.286606640625,24.171763552856447L262.286606640625,19.749086552856447L266.571806640625,19.749086552856447L266.571806640625,43.14271355285645Q266.340206640625,46.16881355285645,263.328906640625,46.51791355285644L254.411006640625,46.51791355285644L254.411006640625,43.02631355285645L261.360006640625,43.02631355285645Q262.40240664062503,43.25911355285645,262.286606640625,41.978813552856444L262.286606640625,28.128893552856447L254.526806640625,28.128893552856447L254.526806640625,24.171763552856447L262.286606640625,24.171763552856447ZM268.540706640625,43.25911355285645L268.540706640625,19.749086552856447L272.825906640625,19.749086552856447L272.825906640625,24.288153552856446L280.701506640625,24.288153552856446L280.701506640625,28.245283552856446L272.825906640625,28.245283552856446L272.825906640625,42.09521355285645Q272.594306640625,43.25911355285645,273.520906640625,43.02631355285645L280.585706640625,43.02631355285645L280.585706640625,46.51791355285644L271.552006640625,46.51791355285644Q268.540706640625,46.40151355285644,268.540706640625,43.25911355285645ZM290.198506640625,20.796563552856444L296.800106640625,20.796563552856444L296.800106640625,19.632699552856444L301.317006640625,19.632699552856444L301.317006640625,20.680173552856445L308.961006640625,20.680173552856445L308.961006640625,25.219243552856447L310.119106640625,25.219243552856447L310.119106640625,28.361673552856445L309.076806640625,28.361673552856445L309.076806640625,29.874713552856445Q309.076806640625,33.01711355285644,305.602306640625,32.900713552856445L301.664506640625,32.900713552856445L301.664506640625,34.18101355285644L309.540006640625,34.18101355285644L309.540006640625,37.090613552856446L301.664506640625,37.090613552856446L301.664506640625,38.48731355285645L309.540006640625,38.48731355285645L309.540006640625,41.39691355285645L301.548706640625,41.39691355285645L301.548706640625,42.444413552856446L296.915906640625,42.444413552856446L296.915906640625,41.39691355285645L290.198506640625,41.39691355285645L290.198506640625,38.48731355285645L296.915906640625,38.48731355285645L296.915906640625,37.090613552856446L290.198506640625,37.090613552856446L290.198506640625,34.18101355285644L296.915906640625,34.18101355285644L296.915906640625,32.900713552856445L290.198506640625,32.900713552856445L290.198506640625,29.641913552856444L296.915906640625,29.641913552856444L296.915906640625,28.478053552856444L289.966906640625,28.478053552856444L289.966906640625,25.219243552856447L296.915906640625,25.219243552856447L296.915906640625,23.938993552856445L290.198506640625,23.938993552856445L290.198506640625,20.796563552856444ZM288.577106640625,19.516313552856445L288.577106640625,29.874713552856445Q288.577106640625,31.154913552856446,287.766406640625,31.969613552856444Q287.534706640625,32.31881355285645,287.534706640625,32.31881355285645Q287.534706640625,32.551613552856445,287.766406640625,32.900713552856445Q288.461306640625,33.71541355285645,288.577106640625,34.64651355285645L288.577106640625,41.04781355285645Q289.156206640625,42.67721355285644,292.399106640625,43.02631355285645L309.887506640625,43.02631355285645L309.887506640625,46.05241355285645L290.661806640625,46.05241355285645Q289.966906640625,46.05241355285645,289.040406640625,45.47041355285644Q288.461306640625,45.12131355285645,288.229706640625,45.12131355285645Q287.998006640625,45.12131355285645,287.650606640625,45.35401355285644Q286.608206640625,46.05241355285645,286.029106640625,46.05241355285645L283.712806640625,46.05241355285645L283.712806640625,43.02631355285645L284.29190664062503,43.02631355285645Q284.871006640625,43.02631355285645,284.986806640625,41.978813552856444L284.986806640625,34.879313552856445Q284.871006640625,34.18101355285644,284.407706640625,34.06461355285644L283.944406640625,34.06461355285644L283.944406640625,30.573013552856445L284.407706640625,30.573013552856445L284.523506640625,30.573013552856445Q284.986806640625,30.456613552856446,284.986806640625,29.991113552856447L284.986806640625,22.775133552856445L283.944406640625,22.775133552856445L283.944406640625,19.516313552856445L288.577106640625,19.516313552856445ZM303.865006640625,25.219243552856447L303.865006640625,23.822603552856446L301.548706640625,23.822603552856446L301.548706640625,25.219243552856447L303.865006640625,25.219243552856447ZM303.980806640625,29.176373552856447L303.980806640625,28.478053552856444L301.432806640625,28.478053552856444L301.432806640625,29.641913552856444L303.401706640625,29.641913552856444Q303.865006640625,29.758313552856446,303.980806640625,29.176373552856447ZM323.322306640625,36.39231355285645L323.322306640625,32.784313552856446L339.652306640625,32.784313552856446L339.652306640625,36.275913552856444L334.325306640625,41.86251355285644L335.714306640625,43.02631355285645Q335.946306640625,43.491913552856445,336.873306640625,43.37551355285645L340.000306640625,43.37551355285645L340.000306640625,46.51791355285644L335.251306640625,46.51791355285644Q333.977306640625,46.51791355285644,333.630306640625,46.05241355285645L331.777306640625,44.423013552856446L329.924306640625,46.05241355285645Q329.345306640625,46.63431355285644,327.839306640625,46.63431355285644L323.090706640625,46.63431355285644L323.090706640625,43.491913552856445L326.681306640625,43.491913552856445Q327.260306640625,43.491913552856445,327.72330664062497,43.14271355285645L328.881306640625,42.09521355285645L324.364706640625,37.207013552856445L329.57630664062503,37.207013552856445L331.545306640625,39.069213552856446L334.209306640625,36.39231355285645L323.322306640625,36.39231355285645ZM323.438106640625,29.059983552856444L324.248806640625,29.059983552856444Q324.596306640625,29.059983552856444,324.596306640625,28.710823552856446L324.596306640625,20.331017552856444L339.073306640625,20.331017552856444L339.073306640625,28.361673552856445Q339.073306640625,28.710823552856446,339.421306640625,28.710823552856446L340.000306640625,28.710823552856446L340.000306640625,31.969613552856444L338.031306640625,31.969613552856444Q335.020306640625,32.08601355285644,335.135306640625,29.758313552856446L335.135306640625,23.938993552856445L328.534306640625,23.938993552856445L328.534306640625,29.758313552856446Q328.534306640625,32.20241355285644,326.565306640625,32.08601355285644L323.438106640625,32.08601355285644L323.438106640625,29.059983552856444ZM317.994706640625,22.076813552856446L317.994706640625,19.865472552856446L321.700906640625,19.865472552856446L321.700906640625,21.960423552856444L322.859006640625,21.960423552856444L322.859006640625,25.684783552856445L321.816706640625,25.684783552856445L321.816706640625,27.663353552856446L322.974906640625,27.663353552856446L322.974906640625,31.154913552856446L321.932506640625,31.154913552856446L321.932506640625,44.53931355285644Q321.700906640625,46.40151355285644,319.500306640625,46.750713552856446L314.520206640625,46.750713552856446L314.520206640625,43.491913552856445L317.763106640625,43.491913552856445Q318.226306640625,43.608313552856444,318.226306640625,43.02631355285645L318.226306640625,38.254513552856444L317.647306640625,39.534713552856445Q317.184006640625,40.465813552856446,315.910006640625,40.34941355285645L313.825306640625,40.34941355285645L313.825306640625,37.323413552856444L314.636006640625,37.323413552856444Q315.099306640625,37.43981355285645,315.215106640625,37.090613552856446L318.110506640625,28.827213552856445L318.110506640625,25.801173552856447L313.825306640625,25.801173552856447L313.825306640625,22.076813552856446L317.994706640625,22.076813552856446Z" fill="#FFFFFF" fill-opacity="1"/></g><g><path d="M5.77397992035389,54.8146576940918L5.77397992035389,57.5790426940918L0.22363992035388947,57.5790426940918L0.22363992035388947,64.7822926940918L1.2300199203538895,64.7822926940918L1.2300199203538895,63.8155326940918L5.77397992035389,63.8155326940918L5.77397992035389,68.8637926940918L6.841349920353889,68.8637926940918L6.841349920353889,63.8155326940918L11.40053992035389,63.8155326940918L11.40053992035389,64.7056926940918L12.452639920353889,64.7056926940918L12.452639920353889,57.5790426940918L6.841349920353889,57.5790426940918L6.841349920353889,54.8146576940918L5.77397992035389,54.8146576940918ZM1.2300199203538895,62.804212694091795L1.2300199203538895,58.590362694091795L5.77397992035389,58.590362694091795L5.77397992035389,62.804212694091795L1.2300199203538895,62.804212694091795ZM11.40053992035389,62.804212694091795L6.841349920353889,62.804212694091795L6.841349920353889,58.590362694091795L11.40053992035389,58.590362694091795L11.40053992035389,62.804212694091795ZM27.91433992035389,62.7429126940918C28.49373992035389,63.2792226940918,29.16463992035389,64.0300526940918,29.484939920353888,64.5203926940918L30.18633992035389,64.0913426940918C29.866139920353888,63.60101269409179,29.17993992035389,62.8808226940918,28.58523992035389,62.3751626940918L27.91433992035389,62.7429126940918ZM22.30303992035389,64.7655926940918L22.30303992035389,65.6542926940918L30.76573992035389,65.6542926940918L30.76573992035389,64.7655926940918L26.87743992035389,64.7655926940918L26.87743992035389,62.038052694091796L30.049039920353888,62.038052694091796L30.049039920353888,61.133992694091795L26.87743992035389,61.133992694091795L26.87743992035389,58.8202026940918L30.41503992035389,58.8202026940918L30.41503992035389,57.900822694091794L22.53173992035389,57.900822694091794L22.53173992035389,58.8202026940918L25.91683992035389,58.8202026940918L25.91683992035389,61.133992694091795L22.97393992035389,61.133992694091795L22.97393992035389,62.038052694091796L25.91683992035389,62.038052694091796L25.91683992035389,64.7655926940918L22.30303992035389,64.7655926940918ZM20.18353992035389,55.541067694091794L20.18353992035389,68.89179269409179L21.22033992035389,68.89179269409179L21.22033992035389,68.1059926940918L31.69583992035389,68.1059926940918L31.69583992035389,68.89179269409179L32.77853992035389,68.89179269409179L32.77853992035389,55.541067694091794L20.18353992035389,55.541067694091794ZM21.22033992035389,67.1559926940918L21.22033992035389,56.49110269409179L31.69583992035389,56.49110269409179L31.69583992035389,67.1559926940918L21.22033992035389,67.1559926940918ZM42.18663992035389,61.7155526940918L42.18663992035389,67.47779269409179L40.20433992035389,67.47779269409179L40.20433992035389,68.42779269409179L53.21103992035389,68.42779269409179L53.21103992035389,67.47779269409179L47.27953992035389,67.47779269409179L47.27953992035389,63.5090726940918L51.76253992035389,63.5090726940918L51.76253992035389,62.574362694091796L47.27953992035389,62.574362694091796L47.27953992035389,58.9703226940918L46.21213992035389,58.9703226940918L46.21213992035389,67.47779269409179L43.19303992035389,67.47779269409179L43.19303992035389,61.7155526940918L42.18663992035389,61.7155526940918ZM46.62383992035389,54.6757926940918C45.12953992035389,57.0377026940918,42.36963992035389,59.18509269409179,39.53343992035389,60.3506026940918C39.79263992035389,60.5806826940918,40.08233992035389,60.9486826940918,40.23483992035389,61.209412694091796C42.65933992035389,60.1051926940918,44.97703992035389,58.372012694091794,46.62383992035389,56.347682694091795C48.60613992035389,58.6636226940918,50.74083992035389,60.0439026940918,53.10433992035389,61.209412694091796C53.24153992035389,60.9180326940918,53.53123992035389,60.565362694091796,53.790539920353886,60.36592269409179C51.33553992035389,59.261702694091795,49.06353992035389,57.9120726940918,47.18803992035389,55.611458694091795L47.52353992035389,55.120641694091795L46.62383992035389,54.6757926940918ZM72.17983992035388,58.4474226940918C71.56983992035389,60.1186026940918,70.4720399203539,62.3265626940918,69.61813992035388,63.7063526940918L70.45673992035388,64.1662926940918C71.32593992035389,62.740522694091794,72.37803992035388,60.62474269409179,73.12523992035389,58.87671269409179L72.17983992035388,58.4474226940918ZM60.40823992035389,58.6928326940918C61.23163992035389,60.394652694091796,62.16173992035389,62.6945526940918,62.54293992035389,64.02838269409179L63.56453992035389,63.6450626940918C63.13763992035389,62.3112326940918,62.17703992035389,60.0879526940918,61.36883992035389,58.401452694091795L60.40823992035389,58.6928326940918ZM68.09333992035388,55.0284636940918L68.09333992035388,67.0486926940918L65.4096399203539,67.0486926940918L65.4096399203539,55.0131396940918L64.38793992035389,55.0131396940918L64.38793992035389,67.0486926940918L60.05753992035389,67.0486926940918L60.05753992035389,68.07539269409179L73.46063992035388,68.07539269409179L73.46063992035388,67.0486926940918L69.11493992035389,67.0486926940918L69.11493992035389,55.0284636940918L68.09333992035388,55.0284636940918ZM83.18903992035389,67.8761926940918C85.03403992035389,67.8761926940918,86.80283992035389,66.4817926940918,86.80283992035389,64.0453826940918C86.80283992035389,61.5630426940918,85.29323992035388,60.4597726940918,83.44823992035388,60.4597726940918C82.74683992035389,60.4597726940918,82.22833992035389,60.6436526940918,81.70993992035389,60.9347926940918L82.0148399203539,57.5330726940918L86.25383992035388,57.5330726940918L86.25383992035388,56.4604526940918L80.91703992035389,56.4604526940918L80.56633992035388,61.670302694091795L81.2524399203539,62.099342694091796C81.8929399203539,61.670302694091795,82.38083992035389,61.4251326940918,83.14323992035389,61.4251326940918C84.59183992035389,61.4251326940918,85.53723992035388,62.421132694091796,85.53723992035388,64.0913426940918C85.53723992035388,65.7615926940918,84.43933992035389,66.8341926940918,83.08223992035389,66.8341926940918C81.75563992035389,66.8341926940918,80.9322399203539,66.2212926940918,80.2918399203539,65.5623926940918L79.66663992035389,66.3897926940918C80.4138399203539,67.1405926940918,81.45073992035388,67.8761926940918,83.18903992035389,67.8761926940918ZM96.68363992035388,67.8761926940918C98.7726399203539,67.8761926940918,100.0992399203539,65.9453926940918,100.0992399203539,62.0227326940918C100.0992399203539,58.145992694091795,98.7726399203539,56.261252694091795,96.68363992035388,56.261252694091795C94.57943992035389,56.261252694091795,93.26803992035389,58.145992694091795,93.26803992035389,62.0227326940918C93.26803992035389,65.9453926940918,94.57943992035389,67.8761926940918,96.68363992035388,67.8761926940918ZM96.68363992035388,66.86479269409179C95.35703992035388,66.86479269409179,94.45743992035389,65.3477926940918,94.45743992035389,62.0227326940918C94.45743992035389,58.743592694091795,95.35703992035388,57.2572526940918,96.68363992035388,57.2572526940918C97.99493992035389,57.2572526940918,98.8946399203539,58.743592694091795,98.8946399203539,62.0227326940918C98.8946399203539,65.3477926940918,97.99493992035389,66.86479269409179,96.68363992035388,66.86479269409179ZM109.93463992035389,67.8761926940918C112.02363992035389,67.8761926940918,113.3496399203539,65.9453926940918,113.3496399203539,62.0227326940918C113.3496399203539,58.145992694091795,112.02363992035389,56.261252694091795,109.93463992035389,56.261252694091795C107.82963992035388,56.261252694091795,106.51863992035389,58.145992694091795,106.51863992035389,62.0227326940918C106.51863992035389,65.9453926940918,107.82963992035388,67.8761926940918,109.93463992035389,67.8761926940918ZM109.93463992035389,66.86479269409179C108.60763992035389,66.86479269409179,107.70763992035388,65.3477926940918,107.70763992035388,62.0227326940918C107.70763992035388,58.743592694091795,108.60763992035389,57.2572526940918,109.93463992035389,57.2572526940918C111.2456399203539,57.2572526940918,112.14563992035389,58.743592694091795,112.14563992035389,62.0227326940918C112.14563992035389,65.3477926940918,111.2456399203539,66.86479269409179,109.93463992035389,66.86479269409179ZM126.76863992035389,56.5370726940918L131.3736399203539,56.5370726940918L131.3736399203539,58.5443926940918L126.76863992035389,58.5443926940918L126.76863992035389,56.5370726940918ZM125.8226399203539,55.6483296940918L125.8226399203539,59.4178026940918L128.59763992035388,59.4178026940918L128.59763992035388,60.858182694091795L125.50263992035389,60.858182694091795L125.50263992035389,64.91879269409179L128.59763992035388,64.91879269409179L128.59763992035388,67.27069269409179L124.80163992035389,67.5006926940918L124.93863992035389,68.49669269409179C126.89063992035389,68.35329269409179,129.6656399203539,68.1377926940918,132.3186399203539,67.9373926940918C132.5166399203539,68.3223926940918,132.6846399203539,68.6920926940918,132.7916399203539,68.9999926940918L133.6756399203539,68.5996926940918C133.34063992035388,67.6769926940918,132.5166399203539,66.2978926940918,131.7086399203539,65.2558926940918L130.86963992035388,65.6236926940918C131.1906399203539,66.0526926940918,131.5106399203539,66.5429926940918,131.8156399203539,67.0333926940918L129.57363992035388,67.1865926940918L129.57363992035388,64.91879269409179L132.7606399203539,64.91879269409179L132.7606399203539,60.858182694091795L129.57363992035388,60.858182694091795L129.57363992035388,59.4178026940918L132.36463992035388,59.4178026940918L132.36463992035388,55.6483296940918L125.8226399203539,55.6483296940918ZM126.41763992035389,61.731592694091795L128.59763992035388,61.731592694091795L128.59763992035388,64.0453826940918L126.41763992035389,64.0453826940918L126.41763992035389,61.731592694091795ZM129.57363992035388,61.731592694091795L131.8306399203539,61.731592694091795L131.8306399203539,64.0453826940918L129.57363992035388,64.0453826940918L129.57363992035388,61.731592694091795ZM120.31863992035389,59.0653726940918C120.19663992035389,60.4904226940918,119.96763992035389,62.359842694091796,119.73863992035389,63.5090726940918L120.34863992035389,63.5090726940918L123.4446399203539,63.524392694091794C123.26163992035389,66.2978926940918,123.03263992035389,67.4010926940918,122.7576399203539,67.6922926940918C122.6206399203539,67.8454926940918,122.4836399203539,67.8607926940918,122.2246399203539,67.8607926940918C121.96463992035389,67.8607926940918,121.29463992035389,67.8454926940918,120.59263992035389,67.7841926940918C120.7606399203539,68.0446926940918,120.8676399203539,68.4583926940918,120.8826399203539,68.7341926940918C121.58363992035389,68.79629269409179,122.2696399203539,68.79629269409179,122.6206399203539,68.7653926940918C123.06263992035389,68.7341926940918,123.3376399203539,68.6269926940918,123.5816399203539,68.3357926940918C124.02363992035389,67.8761926940918,124.2366399203539,66.5583926940918,124.4506399203539,63.0493826940918Q124.4656399203539,62.896152694091796,124.4806399203539,62.574362694091796L120.83663992035389,62.574362694091796C120.94363992035389,61.792882694091794,121.06563992035389,60.8735026940918,121.1566399203539,60.0154026940918L124.5726399203539,60.0154026940918L124.5726399203539,55.6483296940918L119.8916399203539,55.6483296940918L119.8916399203539,56.5983626940918L123.62763992035389,56.5983626940918L123.62763992035389,59.0653726940918L120.31863992035389,59.0653726940918Z" fill="#FFFFFF" fill-opacity="1"/></g><g><path d="M37.15346145629883,33.20001056335449L37.81591045629883,33.20001056335449L37.81591045629883,30.69639056335449L40.27849145629883,30.69639056335449L40.27849145629883,33.20001056335449L40.94814145629883,33.20001056335449L40.94814145629883,27.89609756335449L40.27849145629883,27.89609756335449L40.27849145629883,30.117520563354493L37.81591045629883,30.117520563354493L37.81591045629883,27.89609756335449L37.15346145629883,27.89609756335449L37.15346145629883,33.20001056335449ZM44.33959145629883,33.29408056335449C45.41247145629883,33.29408056335449,46.23333145629883,32.71521056335449,46.23333145629883,31.014770563354492L46.23333145629883,27.89609756335449L45.59248145629883,27.89609756335449L45.59248145629883,31.02924056335449C45.59248145629883,32.30276056335449,45.03804145629883,32.70797056335449,44.33959145629883,32.70797056335449C43.64834145629883,32.70797056335449,43.108301456298825,32.30276056335449,43.108301456298825,31.02924056335449L43.108301456298825,27.89609756335449L42.445851456298826,27.89609756335449L42.445851456298826,31.014770563354492C42.445851456298826,32.71521056335449,43.259511456298824,33.29408056335449,44.33959145629883,33.29408056335449ZM47.73106145629883,33.20001056335449L49.408761456298826,33.20001056335449C50.58966145629883,33.20001056335449,51.41056145629883,32.686260563354494,51.41056145629883,31.64429056335449C51.41056145629883,30.920700563354494,50.96406145629883,30.50102056335449,50.33766145629883,30.378010563354493L50.33766145629883,30.341830563354492C50.834461456298826,30.182640563354493,51.10806145629883,29.719540563354492,51.10806145629883,29.19132056335449C51.10806145629883,28.257892563354492,50.359261456298825,27.89609756335449,49.29356145629883,27.89609756335449L47.73106145629883,27.89609756335449L47.73106145629883,33.20001056335449ZM48.39346145629883,30.14646056335449L48.39346145629883,28.424318563354493L49.20716145629883,28.424318563354493C50.03516145629883,28.424318563354493,50.45286145629883,28.655866563354493,50.45286145629883,29.278150563354494C50.45286145629883,29.82085056335449,50.08566145629883,30.14646056335449,49.17836145629883,30.14646056335449L48.39346145629883,30.14646056335449ZM48.39346145629883,32.664550563354496L48.39346145629883,30.667450563354492L49.315161456298824,30.667450563354492C50.24406145629883,30.667450563354492,50.755261456298825,30.96412056335449,50.755261456298825,31.622590563354493C50.755261456298825,32.33894056335449,50.22246145629883,32.664550563354496,49.315161456298824,32.664550563354496L48.39346145629883,32.664550563354496ZM52.533761456298826,33.20001056335449L55.651661456298825,33.20001056335449L55.651661456298825,32.628370563354494L53.19626145629883,32.628370563354494L53.19626145629883,30.69639056335449L55.19796145629883,30.69639056335449L55.19796145629883,30.124750563354493L53.19626145629883,30.124750563354493L53.19626145629883,28.460497563354494L55.572461456298825,28.460497563354494L55.572461456298825,27.89609756335449L52.533761456298826,27.89609756335449L52.533761456298826,33.20001056335449ZM56.846861456298825,33.20001056335449L57.50936145629883,33.20001056335449L57.50936145629883,27.89609756335449L56.846861456298825,27.89609756335449L56.846861456298825,33.20001056335449ZM62.585761456298826,33.29408056335449C63.65856145629883,33.29408056335449,64.47946145629882,32.71521056335449,64.47946145629882,31.014770563354492L64.47946145629882,27.89609756335449L63.83866145629882,27.89609756335449L63.83866145629882,31.02924056335449C63.83866145629882,32.30276056335449,63.28416145629883,32.70797056335449,62.585761456298826,32.70797056335449C61.89446145629883,32.70797056335449,61.35446145629883,32.30276056335449,61.35446145629883,31.02924056335449L61.35446145629883,27.89609756335449L60.69196145629883,27.89609756335449L60.69196145629883,31.014770563354492C60.69196145629883,32.71521056335449,61.505661456298824,33.29408056335449,62.585761456298826,33.29408056335449ZM65.97716145629883,33.20001056335449L66.60366145629882,33.20001056335449L66.60366145629882,30.41419056335449C66.60366145629882,29.857030563354492,66.55326145629883,29.292630563354493,66.52446145629882,28.75716956335449L66.55326145629883,28.75716956335449L67.12206145629882,29.849790563354492L69.04456145629882,33.20001056335449L69.72866145629882,33.20001056335449L69.72866145629882,27.89609756335449L69.09496145629883,27.89609756335449L69.09496145629883,30.652970563354494C69.09496145629883,31.202900563354493,69.14536145629883,31.80348056335449,69.18866145629883,32.331700563354495L69.15266145629883,32.331700563354495L68.58376145629883,31.23908056335449L66.65406145629882,27.89609756335449L65.97716145629883,27.89609756335449L65.97716145629883,33.20001056335449ZM71.25516145629882,33.20001056335449L71.91766145629883,33.20001056335449L71.91766145629883,27.89609756335449L71.25516145629882,27.89609756335449L71.25516145629882,33.20001056335449ZM74.53136145629882,33.20001056335449L75.20106145629883,33.20001056335449L75.20106145629883,28.460497563354494L76.79956145629882,28.460497563354494L76.79956145629882,27.89609756335449L72.93286145629884,27.89609756335449L72.93286145629884,28.460497563354494L74.53136145629882,28.460497563354494L74.53136145629882,33.20001056335449ZM77.82206145629883,33.20001056335449L80.93986145629883,33.20001056335449L80.93986145629883,32.628370563354494L78.48446145629883,32.628370563354494L78.48446145629883,30.69639056335449L80.48626145629882,30.69639056335449L80.48626145629882,30.124750563354493L78.48446145629883,30.124750563354493L78.48446145629883,28.460497563354494L80.86066145629883,28.460497563354494L80.86066145629883,27.89609756335449L77.82206145629883,27.89609756335449L77.82206145629883,33.20001056335449ZM82.13516145629882,33.20001056335449L83.48166145629884,33.20001056335449C85.07296145629883,33.20001056335449,85.93706145629884,32.208690563354494,85.93706145629884,30.529960563354493C85.93706145629884,28.836760563354492,85.07296145629883,27.89609756335449,83.45286145629882,27.89609756335449L82.13516145629882,27.89609756335449L82.13516145629882,33.20001056335449ZM82.79756145629884,32.65008056335449L82.79756145629884,28.438789563354494L83.39526145629883,28.438789563354494C84.64096145629883,28.438789563354494,85.25296145629883,29.18409056335449,85.25296145629883,30.529960563354493C85.25296145629883,31.868610563354494,84.64096145629883,32.65008056335449,83.39526145629883,32.65008056335449L82.79756145629884,32.65008056335449ZM88.84606145629883,33.20001056335449L89.50846145629882,33.20001056335449L89.50846145629882,27.89609756335449L88.84606145629883,27.89609756335449L88.84606145629883,33.20001056335449ZM91.02786145629884,33.20001056335449L91.65426145629883,33.20001056335449L91.65426145629883,30.41419056335449C91.65426145629883,29.857030563354492,91.60386145629883,29.292630563354493,91.57506145629883,28.75716956335449L91.60386145629883,28.75716956335449L92.17266145629883,29.849790563354492L94.09526145629883,33.20001056335449L94.77926145629883,33.20001056335449L94.77926145629883,27.89609756335449L94.14566145629882,27.89609756335449L94.14566145629882,30.652970563354494C94.14566145629882,31.202900563354493,94.19606145629882,31.80348056335449,94.23926145629883,32.331700563354495L94.20326145629883,32.331700563354495L93.63436145629882,31.23908056335449L91.70466145629882,27.89609756335449L91.02786145629884,27.89609756335449L91.02786145629884,33.20001056335449ZM97.27066145629882,33.20001056335449L98.04116145629882,33.20001056335449L99.71886145629882,27.89609756335449L99.04196145629882,27.89609756335449L98.19236145629883,30.76875056335449C98.01236145629883,31.391040563354494,97.88276145629882,31.897550563354493,97.68106145629883,32.51984056335449L97.65226145629883,32.51984056335449C97.45786145629883,31.897550563354493,97.32106145629882,31.391040563354494,97.14106145629883,30.76875056335449L96.28416145629882,27.89609756335449L95.58576145629883,27.89609756335449L97.27066145629882,33.20001056335449ZM100.51816145629883,33.20001056335449L103.63596145629883,33.20001056335449L103.63596145629883,32.628370563354494L101.18056145629883,32.628370563354494L101.18056145629883,30.69639056335449L103.18226145629883,30.69639056335449L103.18226145629883,30.124750563354493L101.18056145629883,30.124750563354493L101.18056145629883,28.460497563354494L103.55676145629883,28.460497563354494L103.55676145629883,27.89609756335449L100.51816145629883,27.89609756335449L100.51816145629883,33.20001056335449ZM106.29296145629883,33.29408056335449C107.39466145629883,33.29408056335449,108.08586145629883,32.628370563354494,108.08586145629883,31.78901056335449C108.08586145629883,31.000300563354493,107.61066145629883,30.63850056335449,106.99856145629883,30.37077056335449L106.24976145629883,30.045160563354493C105.83926145629883,29.87150056335449,105.37126145629883,29.67613056335449,105.37126145629883,29.155140563354493C105.37126145629883,28.684810563354493,105.76006145629883,28.38813856335449,106.35776145629883,28.38813856335449C106.84736145629883,28.38813856335449,107.23616145629883,28.576271563354492,107.56026145629883,28.880180563354493L107.90586145629882,28.45326156335449C107.53866145629883,28.06975956335449,106.98416145629882,27.802030563354492,106.35776145629883,27.802030563354492C105.40006145629883,27.802030563354492,104.69446145629882,28.38813856335449,104.69446145629882,29.20579056335449C104.69446145629882,29.980040563354493,105.27766145629883,30.35630056335449,105.76726145629883,30.56614056335449L106.52336145629883,30.89900056335449C107.02736145629883,31.123310563354494,107.40906145629883,31.296970563354492,107.40906145629883,31.84690056335449C107.40906145629883,32.36065056335449,106.99856145629883,32.70797056335449,106.30016145629882,32.70797056335449C105.75286145629883,32.70797056335449,105.22006145629882,32.44748056335449,104.84566145629883,32.04950056335449L104.44956145629882,32.51260056335449C104.90326145629882,32.99017056335449,105.54406145629883,33.29408056335449,106.29296145629883,33.29408056335449ZM110.13086145629883,33.20001056335449L110.80046145629883,33.20001056335449L110.80046145629883,28.460497563354494L112.39896145629884,28.460497563354494L112.39896145629884,27.89609756335449L108.53226145629883,27.89609756335449L108.53226145629883,28.460497563354494L110.13086145629883,28.460497563354494L110.13086145629883,33.20001056335449ZM113.42146145629883,33.20001056335449L114.01906145629883,33.20001056335449L114.01906145629883,30.262240563354492C114.01906145629883,29.80637056335449,113.97586145629883,29.162380563354493,113.93266145629883,28.699282563354494L113.96146145629884,28.699282563354494L114.38636145629883,29.907680563354493L115.38716145629883,32.664550563354496L115.83366145629883,32.664550563354496L116.82736145629883,29.907680563354493L117.25216145629882,28.699282563354494L117.28096145629883,28.699282563354494C117.24496145629882,29.162380563354493,117.19456145629883,29.80637056335449,117.19456145629883,30.262240563354492L117.19456145629883,33.20001056335449L117.81376145629883,33.20001056335449L117.81376145629883,27.89609756335449L117.01456145629882,27.89609756335449L116.00646145629882,30.732570563354493C115.88406145629882,31.094360563354492,115.77606145629883,31.470630563354494,115.63926145629883,31.839660563354492L115.61046145629882,31.839660563354492C115.48076145629882,31.470630563354494,115.36556145629883,31.094360563354492,115.22876145629883,30.732570563354493L114.22076145629883,27.89609756335449L113.42146145629883,27.89609756335449L113.42146145629883,33.20001056335449ZM119.34026145629883,33.20001056335449L122.45816145629882,33.20001056335449L122.45816145629882,32.628370563354494L120.00276145629883,32.628370563354494L120.00276145629883,30.69639056335449L122.00446145629883,30.69639056335449L122.00446145629883,30.124750563354493L120.00276145629883,30.124750563354493L120.00276145629883,28.460497563354494L122.37896145629882,28.460497563354494L122.37896145629882,27.89609756335449L119.34026145629883,27.89609756335449L119.34026145629883,33.20001056335449ZM123.65336145629882,33.20001056335449L124.27986145629883,33.20001056335449L124.27986145629883,30.41419056335449C124.27986145629883,29.857030563354492,124.22946145629882,29.292630563354493,124.20066145629883,28.75716956335449L124.22946145629882,28.75716956335449L124.79826145629883,29.849790563354492L126.72086145629883,33.20001056335449L127.40486145629883,33.20001056335449L127.40486145629883,27.89609756335449L126.77126145629883,27.89609756335449L126.77126145629883,30.652970563354494C126.77126145629883,31.202900563354493,126.82166145629883,31.80348056335449,126.86486145629883,32.331700563354495L126.82886145629882,32.331700563354495L126.25996145629883,31.23908056335449L124.33026145629883,27.89609756335449L123.65336145629882,27.89609756335449L123.65336145629882,33.20001056335449ZM130.02586145629883,33.20001056335449L130.69556145629883,33.20001056335449L130.69556145629883,28.460497563354494L132.29406145629883,28.460497563354494L132.29406145629883,27.89609756335449L128.42736145629883,27.89609756335449L128.42736145629883,28.460497563354494L130.02586145629883,28.460497563354494L130.02586145629883,33.20001056335449Z" fill="#FFFFFF" fill-opacity="1"/></g><g><g><rect x="11.436135292053223" y="30.220521926879883" width="10.165453910827637" height="0.8512822985649109" rx="0" fill="#FFFFFF" fill-opacity="1"/></g><g><rect x="11.22435474395752" y="0" width="10.165453910827637" height="1.276923418045044" rx="0" fill="#FFFFFF" fill-opacity="1"/></g><g><rect x="22.44870948791504" y="0" width="9.741893768310547" height="1.276923418045044" rx="0" fill="#FFFFFF" fill-opacity="1"/></g><g><rect x="0" y="0" width="10.165453910827637" height="1.276923418045044" rx="0" fill="#FFFFFF" fill-opacity="1"/></g><g><rect x="13.977498054504395" y="0.42564114928245544" width="5.082726955413818" height="30.646163940429688" rx="0" fill="#FFFFFF" fill-opacity="1"/></g><g><path d="M2.329583168029785,28.9436028881073C2.329583168029785,32.3487028881073,5.929843168029786,38.733302888107296,16.095283168029788,38.733302888107296C26.260783168029786,38.733302888107296,30.072783168029787,32.135902888107296,30.072783168029787,28.9436028881073L30.072783168029787,1.0641028881072998L24.778283168029784,1.0641028881072998L24.778283168029784,28.9436028881073C24.778283168029784,32.3487028881073,21.601583168029784,35.5410028881073,16.095283168029788,35.9667028881073C11.859693168029786,35.9667028881073,7.835873168029785,31.9231028881073,7.835873168029785,28.9436028881073L7.835873168029785,1.0641028881072998L2.329583168029785,1.0641028881072998L2.329583168029785,28.9436028881073Z" fill="#FFFFFF" fill-opacity="1"/></g></g><g><path d="M177.2721045654297,51.9983421875Q176.19490456542968,51.5479421875,175.18300456542968,51.0089421875Q174.1711145654297,50.4699421875,173.2351245654297,49.8478421875Q172.29913456542968,49.2258421875,171.44893456542968,48.5273421875Q170.59873456542968,47.8288421875,169.84328456542968,47.061142187499996Q169.2767945654297,46.485642187500005,168.7675645654297,45.8750421875Q168.2583445654297,45.2645421875,167.8093845654297,44.622742187499995Q167.3604245654297,43.9809421875,166.9744045654297,43.3116421875Q166.5883945654297,42.6423421875,166.26759456542968,41.9495421875Q165.9468045654297,41.256742187499995,165.6931315654297,40.544442187499996Q165.4394635654297,39.8322421875,165.2544255654297,39.1048421875Q165.06938856542968,38.3774421875,164.95407856542968,37.6391421875Q164.83876916542968,36.9007421875,164.7938712654297,36.1559421875Q164.7652651318297,35.6814421875,164.76535590712967,35.2057421875Q164.76544668242968,34.730042187500004,164.79423416542969,34.2542421875Q164.82302166542968,33.7785421875,164.88043656542968,33.303842187499995Q164.9378515654297,32.8292421875,165.0237555654297,32.356942187499996Q165.1096595654297,31.8845421875,165.2238445654297,31.4155421875Q165.33803056542968,30.9466421875,165.4802235654297,30.4822421875Q165.6224165654297,30.017742187499998,165.7922745654297,29.5589421875Q165.9621345654297,29.1002421875,166.15924456542967,28.6481421875Q166.35635456542968,28.1961421875,166.5802545654297,27.7519421875Q166.80414456542968,27.3078421875,167.0542745654297,26.872542187500002Q167.30441456542968,26.4372421875,167.58018456542968,26.0119421875Q167.8559545654297,25.5866421875,168.1567045654297,25.1723421875Q168.45744456542968,24.7580221875,168.7824445654297,24.3556821875Q169.1074445654297,23.953352187500002,169.45590456542968,23.563982187500002Q169.8043645654297,23.1746021875,170.17545456542967,22.7991121875Q170.54654456542968,22.4236221875,170.93936456542968,22.0629421875Q171.3321945654297,21.7022521875,171.7458045654297,21.3572321875Q172.1594145654297,21.0122021875,172.59281456542968,20.6836821875Q173.02621456542968,20.3551521875,173.4783545654297,20.0439121875Q173.9305045654297,19.7326821875,174.40030456542968,19.4394821875Q174.8701045654297,19.1462821875,175.3564045654297,18.8718321875Q175.84280456542967,18.5973721875,176.3444045654297,18.3423221875Q176.8461045654297,18.0872821875,177.3620045654297,17.8522521875Q177.8778045654297,17.6172221875,178.40650456542969,17.4027821875Q178.9352045654297,17.188342187499998,179.47560456542968,16.9950021875Q180.01600456542968,16.8016621875,180.56660456542969,16.6298921875Q181.1173045654297,16.4581221875,181.67700456542968,16.308341187499998Q182.23670456542968,16.158554187500002,182.8040045654297,16.0311121875Q183.37140456542969,15.9036691875,183.94500456542968,15.7988771875Q184.51860456542968,15.6940851875,185.09710456542967,15.6121961875Q185.6757045654297,15.5303071875,186.2577045654297,15.4715181875Q186.83970456542968,15.4127297875,187.4239045654297,15.3771830875Q188.13400456542968,15.3339729875,188.84480456542968,15.3252366375Q189.5557045654297,15.3165003175,190.26490456542967,15.3422688875Q190.97400456542968,15.3680374875,191.6790045654297,15.4282191875Q192.3839045654297,15.4884011875,193.0821045654297,15.5827821875Q193.7802045654297,15.6771621875,194.4692045654297,15.8054061875Q195.15810456542968,15.9336501875,195.83530456542968,16.0953011875Q196.51260456542968,16.2569511875,197.1757045654297,16.4514321875Q197.8389045654297,16.6459121875,198.4856045654297,16.8725421875Q199.13220456542967,17.0991621875,199.7602045654297,17.3571121875Q200.38810456542967,17.6150721875,200.9950045654297,17.9034321875Q201.6020045654297,18.1918021875,202.1857045654297,18.5095621875Q202.76950456542968,18.827322187500002,203.3281045654297,19.1733321875Q203.88660456542968,19.5193521875,204.4179045654297,19.8923921875Q204.94920456542968,20.2654321875,205.45150456542967,20.6641821875Q205.9537045654297,21.0629221875,206.42500456542967,21.4859421875Q206.8963045654297,21.908962187500002,207.3350045654297,22.3547521875Q207.9015045654297,22.9303521875,208.4108045654297,23.5408621875Q208.92000456542968,24.1513721875,209.3689045654297,24.793172187499998Q209.81790456542967,25.4349421875,210.2039045654297,26.1042421875Q210.5899045654297,26.7735421875,210.91070456542968,27.4664421875Q211.2315045654297,28.1592421875,211.48520456542968,28.8714421875Q211.7389045654297,29.5836421875,211.9239045654297,30.3111421875Q212.1089045654297,31.0385421875,212.2243045654297,31.7768421875Q212.33960456542968,32.515142187500004,212.3845045654297,33.2599421875Q212.41060456542968,33.6937421875,212.4128045654297,34.1285421875Q212.41490456542968,34.5633421875,212.3931045654297,34.9982421875Q212.37130456542968,35.4332421875,212.32560456542967,35.867442187500004Q212.27980456542969,36.3016421875,212.21020456542968,36.7342421875Q212.1406045654297,37.166842187499995,212.04730456542967,37.5970421875Q211.95400456542967,38.027142187500004,211.8372045654297,38.453942187500004Q211.7204045654297,38.880742187500005,211.58030456542969,39.3033421875Q211.4402045654297,39.725942187499996,211.27700456542968,40.1434421875Q211.1139045654297,40.5610421875,210.9282045654297,40.9726421875Q210.7424045654297,41.384342187499996,210.5343045654297,41.7892421875Q210.3262045654297,42.194242187499995,210.0963045654297,42.5916421875Q209.8663045654297,42.9889421875,209.6149045654297,43.3780421875Q209.36350456542968,43.7671421875,209.09130456542968,44.1470421875Q208.81900456542968,44.5270421875,208.52630456542968,44.8970421875Q208.2337045654297,45.2671421875,207.9212045654297,45.6265421875Q207.6088045654297,45.9859421875,207.27720456542968,46.3340421875Q206.94570456542968,46.6821421875,206.59560456542968,47.018142187500004Q206.2456045654297,47.3541421875,205.8778045654297,47.6774421875Q205.50990456542968,48.0007421875,205.1251045654297,48.3106421875Q204.74020456542968,48.6206421875,204.3391045654297,48.9165421875Q203.93800456542968,49.2124421875,203.5215045654297,49.4937421875Q203.10490456542968,49.7750421875,202.6737045654297,50.0411421875Q202.2426045654297,50.3073421875,201.79760456542968,50.5577421875Q201.3527045654297,50.8082421875,200.8950045654297,51.0424421875Q200.43720456542968,51.2766421875,199.9675045654297,51.4942421875Q199.4978045654297,51.7118421875,199.0172045654297,51.9122421875Q198.53650456542968,52.1127421875,198.0458045654297,52.2956421875Q197.5551045654297,52.4785421875,197.05540456542968,52.6435421875Q196.5557045654297,52.8086421875,196.0480045654297,52.9554421875Q195.5403045654297,53.1022421875,195.0256045654297,53.2305421875Q194.51080456542968,53.3588421875,193.99020456542968,53.4683421875Q193.4695045654297,53.5779421875,192.94390456542968,53.6684421875L192.94390456542968,46.0770421875Q193.31210456542968,45.946642187500004,193.67440456542968,45.8039421875Q194.0367045654297,45.6612421875,194.3923045654297,45.5065421875Q194.74790456542968,45.3518421875,195.09630456542968,45.1854421875Q195.44470456542967,45.0189421875,195.7851045654297,44.8410421875Q196.12560456542968,44.6631421875,196.4575045654297,44.474042187500004Q196.7895045654297,44.2850421875,197.1123045654297,44.0851421875Q197.43520456542967,43.8852421875,197.7484045654297,43.6749421875Q198.0615045654297,43.464642187500004,198.36450456542968,43.2442421875Q198.66740456542968,43.0238421875,198.9596045654297,42.7937421875Q199.2518045654297,42.5637421875,199.5327045654297,42.3243421875Q199.81360456542967,42.0850421875,200.08270456542968,41.8368421875Q200.35170456542969,41.5886421875,200.6086045654297,41.3320421875Q200.86540456542969,41.075542187500005,201.1095045654297,40.810942187500004Q201.3535045654297,40.5464421875,201.58440456542968,40.2744421875Q201.81540456542967,40.0024421875,202.0327045654297,39.7235421875Q202.2500045654297,39.444542187500005,202.45340456542968,39.1590421875Q202.6568045654297,38.8735421875,202.8458045654297,38.5821421875Q203.03480456542968,38.2907421875,203.20920456542967,37.9938421875Q203.3836045654297,37.6969421875,203.5429045654297,37.395042187499996Q203.7023045654297,37.093242187499996,203.84640456542968,36.7870421875Q203.9906045654297,36.4808421875,204.1192045654297,36.1707421875Q204.2478045654297,35.860642187500005,204.3606045654297,35.5473421875Q204.4735045654297,35.2339421875,204.5704045654297,34.9179421875Q204.66730456542967,34.6018421875,204.74800456542968,34.283542187500004Q204.8288045654297,33.9653421875,204.89330456542967,33.645442187499995Q204.95780456542968,33.3256421875,205.0059045654297,33.0047421875Q205.0541045654297,32.683842187500005,205.0857045654297,32.3625421875Q205.1174045654297,32.0412421875,205.13250456542968,31.7199421875Q205.14760456542967,31.3987421875,205.14620456542968,31.078242187500003Q205.1448045654297,30.7577421875,205.1268045654297,30.4384421875Q205.1088045654297,30.1191421875,205.07430456542968,29.8017421875Q205.03980456542968,29.484342187499998,204.9889045654297,29.1693421875Q204.89620456542968,28.5962421875,204.74950456542967,28.0338421875Q204.6029045654297,27.4713421875,204.4031045654297,26.9227421875Q204.20340456542968,26.3741421875,203.95170456542968,25.8425421875Q203.70000456542968,25.3110621875,203.39790456542968,24.7997821875Q203.0958045654297,24.288492187499997,202.7450045654297,23.8004521875Q202.39430456542968,23.3124121875,201.9969045654297,22.850492187500002Q201.5995045654297,22.3885721875,201.1579045654297,21.9555021875Q200.71630456542968,21.5224321875,200.2331045654297,21.1207621875Q199.8571045654297,20.8082521875,199.4574045654297,20.5160421875Q199.05770456542967,20.223822187499998,198.63580456542968,19.9529521875Q198.2139045654297,19.6820721875,197.77120456542968,19.4335021875Q197.32850456542968,19.1849221875,196.8666045654297,18.9595421875Q196.40480456542969,18.7341621875,195.9254045654297,18.5327821875Q195.4460045654297,18.3314021875,194.95080456542968,18.1547321875Q194.4556045654297,17.9780721875,193.9464045654297,17.8267521875Q193.43720456542968,17.6754321875,192.91570456542968,17.5500021875Q192.39430456542968,17.4245721875,191.8624045654297,17.3254721875Q191.3306045654297,17.2263821875,190.7903045654297,17.1539721875Q190.2501045654297,17.0815721875,189.7032045654297,17.0361121875Q189.15640456542968,16.9906521875,188.60500456542968,16.972312187500002Q188.05360456542968,16.9539621875,187.49960456542968,16.9627921875Q186.94560456542968,16.9716221875,186.39100456542968,17.0076021875Q185.8364045654297,17.0435721875,185.28310456542968,17.1065621875Q184.72980456542967,17.1695521875,184.1798045654297,17.2593421875Q183.72820456542968,17.3330721875,183.2801045654297,17.4246721875Q182.83190456542968,17.5162721875,182.3882045654297,17.6255321875Q181.9446045654297,17.7347921875,181.50660456542968,17.8614321875Q181.0685045654297,17.988082187499998,180.6371045654297,18.1318221875Q180.2057045654297,18.2755521875,179.7820045654297,18.4360321875Q179.35830456542968,18.5965021875,178.94330456542968,18.7733321875Q178.5284045654297,18.9501521875,178.12310456542968,19.1429121875Q177.71780456542967,19.3356621875,177.32320456542968,19.5438821875Q176.92870456542968,19.7521021875,176.54570456542967,19.9752721875Q176.1628045654297,20.1984521875,175.79240456542968,20.4360521875Q175.4220045654297,20.6736621875,175.0651045654297,20.925112187499998Q174.70815456542968,21.1765621875,174.36554456542967,21.4412621875Q174.0229345654297,21.7059521875,173.6954645654297,21.9832621875Q173.36799456542968,22.2605721875,173.0564445654297,22.5498121875Q172.7449045654297,22.839062187499998,172.4500445654297,23.1395421875Q172.1551745654297,23.4400321875,171.8777045654297,23.751042187499998Q171.60023456542967,24.062042187499998,171.3408145654297,24.3828221875Q171.0813945654297,24.7036021875,170.84066456542968,25.0333721875Q170.5999345654297,25.3631421875,170.37846456542968,25.7011421875Q170.1569945654297,26.039142187499998,169.9553245654297,26.3844421875Q169.75364456542968,26.729842187499997,169.5722545654297,27.081742187499998Q169.3908645654297,27.4336421875,169.23019456542968,27.7912421875Q169.06952456542967,28.148942187499998,168.92996456542969,28.5113421875Q168.7903945654297,28.8738421875,168.6722745654297,29.240342187499998Q168.55415456542968,29.6067421875,168.4577545654297,29.976342187500002Q168.36136456542968,30.3458421875,168.2869245654297,30.7175421875Q168.2124945654297,31.0893421875,168.1601945654297,31.4623421875Q168.1078945654297,31.8354421875,168.07786456542968,32.2088421875Q168.0478345654297,32.582342187500004,168.0401445654297,32.955242187500005Q168.0324445654297,33.328242187499995,168.0471045654297,33.6997421875Q168.06176456542968,34.0713421875,168.09874456542968,34.4406421875Q168.1357345654297,34.8099421875,168.1949445654297,35.1760421875Q168.2876245654297,35.749042187499995,168.4342745654297,36.311542187499995Q168.58091456542968,36.8739421875,168.78066456542967,37.4225421875Q168.9804145654297,37.971242187499996,169.2320845654297,38.502742187500004Q169.48376456542968,39.0342421875,169.78587456542968,39.545542187500004Q170.08799456542968,40.056842187499996,170.4387645654297,40.544842187499995Q170.78954456542968,41.032842187499995,171.1869045654297,41.4948421875Q171.5842745654297,41.9567421875,172.0258845654297,42.389742187500005Q172.4674945654297,42.8228421875,172.9507545654297,43.2245421875Q173.8948845654297,44.0092421875,174.9813045654297,44.6613421875Q176.0678045654297,45.3134421875,177.2721045654297,45.818242187500005L177.2721045654297,51.9983421875Z" fill-rule="evenodd" fill="#FFFFFF" fill-opacity="1"/></g><g><path d="M177.04831489746093,51.90404274291993L177.04831489746093,30.64616274291992L172.38914489746094,28.73078274291992L182.34281489746093,25.751292742919922L182.34281489746093,53.54034274291992Q179.56580489746094,52.98504274291992,177.04831489746093,51.90404274291993ZM191.79274489746095,53.843642742919926L187.63734489746093,53.843642742919926L187.63734489746093,29.369242742919923L184.46064489746095,29.369242742919923L184.46064489746095,25.11283274291992L194.83784489746094,22.133342742919922L199.07344489746094,28.092322742919922L193.14364489746094,28.092322742919922L193.14364489746094,53.633842742919924Q192.47144489746094,53.75444274291992,191.79274489746095,53.843642742919926Z" fill-rule="evenodd" fill="#FFFFFF" fill-opacity="1"/></g></g></svg>