<svg xmlns="http://www.w3.org/2000/svg" xmlns:xlink="http://www.w3.org/1999/xlink" fill="none" version="1.1" width="20" height="20" viewBox="0 0 20 20"><defs><clipPath id="master_svg0_71_20368"><rect x="0" y="0" width="20" height="20" rx="0"/></clipPath></defs><g clip-path="url(#master_svg0_71_20368)"><g><path d="M16.824941250000002,4.8216182375C17.66648125,4.4858139375,18.59068125,5.0691379375,18.64961125,5.9732859375L18.65227125,6.0572859375L18.66161125,10.5992859375C18.66359125,11.5063259375,17.77893125,12.1505659375,16.91627125,11.8702859375L16.83694125,11.8416159375L13.75427525,10.619285937499999C13.42194825,10.486965937499999,13.25326995,10.1159659375,13.37203365,9.7785559375C13.49079725,9.4411459375,13.85467425,9.2575959375,14.19660925,9.3626159375L14.24561025,9.3799559375L17.32828125,10.6019559375L17.31894125,6.0602859375L14.24694225,7.285615937499999C13.91418425,7.4190359375,13.53549325,7.265405937500001,13.38974765,6.9378559375C13.24400175,6.6103159375,13.38339535,6.2261559375,13.70527525,6.0682859375L13.75294225,6.0469459375L16.824941250000002,4.8216182375Z" fill="#0F62B9" fill-opacity="1" style="mix-blend-mode:passthrough"/></g><g><path d="M13.33203125,2.3330078125L2.66536125,2.3330078125C1.92898525,2.3330078125,1.332031536102,2.9299618125,1.332031536102,3.6663378125L1.332031536102,12.9997078125C1.332031536102,13.7360078125,1.92898525,14.3330078125,2.66536125,14.3330078125L13.33203125,14.3330078125C14.06843125,14.3330078125,14.66533125,13.7360078125,14.66533125,12.9997078125L14.66533125,3.6663378125C14.66533125,2.9299618125,14.06843125,2.333008003235,13.33203125,2.3330078125ZM2.66536125,3.6663378125L13.33203125,3.6663378125L13.33203125,12.9997078125L2.66536125,12.9997078125L2.66536125,3.6663378125Z" fill="#0F62B9" fill-opacity="1" style="mix-blend-mode:passthrough"/></g><g><path d="M4.7385931249999995,13.7018618125C4.899023125,13.3822342125,5.283083125,13.2461365125,5.608973125,13.3934234125C5.934873125,13.5407108125,6.0864931250000005,13.9189088125,5.952593125,14.2505278125L5.931253125,14.2978608125L4.264593125,17.631197812499998C4.104153125,17.9508178125,3.7201011250000002,18.0869178125,3.394207125,17.9396278125C3.068313225,17.7923478125,2.916692325,17.4141478125,3.050590325,17.0825278125L3.071923625,17.0351978125L4.7385931249999995,13.7018618125ZM10.370263125000001,13.4035278125C10.681483125,13.2478638125,11.060083125,13.3577560125,11.239593125,13.6558608125L11.264593125,13.7018618125L12.931263125,17.0351978125C13.093153125,17.3557478125,12.972103125,17.7469578125,12.657403125,17.9199878125C12.342703125,18.0930178125,11.947503125,17.9856578125,11.763593125,17.6771978125L11.738593125,17.631197812499998L10.071923125,14.2978608125C9.907353125,13.9685148125,10.040923124999999,13.5681168125,10.370263125000001,13.4035278125Z" fill="#0F62B9" fill-opacity="1" style="mix-blend-mode:passthrough"/></g><g><path d="M10,10.333984375L10,11.000650375C10,11.368844375,9.70152,11.667314375,9.33333,11.667314375L4.666667,11.667314375C4.298477,11.667314375,4,11.368844375,4,11.000650375L4,10.333984375L10,10.333984375Z" fill="#0D98FD" fill-opacity="1" style="mix-blend-mode:passthrough"/></g></g></svg>