<?xml version="1.0" encoding="UTF-8"?>
<svg width="30px" height="30px" viewBox="0 0 30 30" version="1.1" xmlns="http://www.w3.org/2000/svg" xmlns:xlink="http://www.w3.org/1999/xlink">
    <title>形状结合</title>
    <g id="页面-1" stroke="none" stroke-width="1" fill="none" fill-rule="evenodd">
        <g id="我的" transform="translate(-346.000000, -291.000000)" fill="#FFFFFF" fill-rule="nonzero">
            <g id="形状结合" transform="translate(346.000000, 291.000000)">
                <path d="M19.7614413,0.225157128 C20.7587816,0.223184358 21.5688895,1.03008669 21.5708661,2.02742691 C21.5726871,2.94633189 20.8841774,3.72007966 19.9712881,3.82503525 L19.7614431,3.83833526 L8.67807057,3.83833526 C6.30048655,3.83853008 4.33022957,5.68211787 4.17231923,8.0544468 L4.16345253,8.35148109 L4.16345253,20.9953942 C4.16345253,23.3894009 6.02545822,25.3474462 8.38104221,25.5011456 L8.6780765,25.5100123 L21.3219896,25.5100123 C23.7159963,25.5100123 25.6740416,23.6480066 25.827741,21.2924226 L25.8366077,20.9953883 L25.8366077,10.0745665 C25.8259664,9.07727787 26.6257984,8.26019177 27.6230871,8.24955269 C28.5534089,8.23962591 29.3390161,8.9381449 29.4379646,9.86324597 L29.449787,10.073091 L29.449787,20.9955403 C29.449787,25.3362055 26.0390139,28.9108659 21.703114,29.1144091 L21.3188904,29.1232758 L8.67957448,29.1232758 C4.33946786,29.1232758 0.765022299,25.7135167 0.560619718,21.3782355 L0.551753018,20.994012 L0.551753018,8.35433261 C0.551753018,4.014226 3.96165816,0.439823403 8.29696516,0.235549728 L8.68118873,0.22668303 L19.7630571,0.22668303 L19.7614413,0.225157128 Z M28.7389556,0.619743246 L29.20298,1.08376757 C29.7798791,1.66084285 29.7798791,2.59627792 29.2029801,3.1733532 L18.521581,13.8547523 C17.9445057,14.4316514 17.0090706,14.4316514 16.4319953,13.8547524 L15.967971,13.3907281 C15.3910719,12.8136528 15.3910719,11.8782178 15.9679709,11.3011425 L26.64937,0.619743426 C27.2264452,0.0428443173 28.1618803,0.0428443173 28.7389556,0.619743246 Z"></path>
            </g>
        </g>
    </g>
</svg>