<?xml version="1.0" encoding="UTF-8"?>
<svg width="40px" height="41px" viewBox="0 0 40 41" version="1.1" xmlns="http://www.w3.org/2000/svg" xmlns:xlink="http://www.w3.org/1999/xlink">
    <title>形状</title>
    <g id="页面-1" stroke="none" stroke-width="1" fill="none" fill-rule="evenodd">
        <g id="列表页" transform="translate(-685.000000, -112.000000)" fill="#FFFFFF" fill-rule="nonzero">
            <g id="编组" transform="translate(303.000000, 107.000000)">
                <g id="筛-选" transform="translate(382.000000, 5.000000)">
                    <path d="M20.8940302,33.4066841 C20.4505097,33.4066841 20.0431416,33.3056636 19.6505566,33.0994959 L16.2658162,31.2104325 L16.265816,31.2104324 C15.4310857,30.7648113 14.9123259,29.8930406 14.9188255,28.9468319 L14.9188255,18.1873718 L14.9188255,18.1873718 C14.9156451,18.0276275 14.8408667,17.8777629 14.7151409,17.7791645 L6.88371744,11.4984116 L6.79830509,11.3949236 C6.06730564,10.6623053 5.89812682,9.57484358 6.30468549,8.62045695 L6.30468551,8.62045689 C6.70233533,7.67809219 7.63265372,7.07184372 8.65534425,7.08863545 L29.7800391,7.08863545 C30.8009728,7.08863545 31.7200651,7.68331677 32.147966,8.62045689 L32.1479661,8.62045706 C32.56793,9.55357182 32.3862376,10.6476333 31.6872072,11.3949237 L31.5845275,11.4959575 L23.6537017,17.8464978 L23.6537018,17.8464978 C23.5356894,17.949381 23.4677542,18.0981421 23.4672845,18.254705 L23.4672845,30.8178351 L23.4672846,30.8178361 C23.4878471,32.2269531 22.3622785,33.385978 20.9531643,33.4066841 L20.8940283,33.4066841 L20.8940302,33.4066841 Z M8.22824934,9.96662004 L16.0268094,16.1972658 L16.0268094,16.1972658 C16.63897,16.6839012 16.996526,17.4225805 16.9984534,18.2045995 L16.9984534,28.9640596 C16.9984534,29.1505058 17.0797367,29.3369509 17.2505901,29.4240389 L20.6377669,31.2785957 L20.6377668,31.2785956 C20.8036108,31.3645128 21.0008559,31.3645131 21.1666997,31.2785957 L21.1666997,31.2785957 C21.3260579,31.1802372 21.4225723,31.005881 21.4213198,30.8186164 L21.4213198,18.2719451 C21.4213198,17.4908764 21.7613531,16.7557758 22.373243,16.2621562 L30.1890469,9.96578363 L30.1890469,9.96578362 C30.3067883,9.8078103 30.3261352,9.59720194 30.2391452,9.42042176 L30.2391452,9.42042183 C30.1542667,9.24321205 29.9756798,9.12999764 29.7791957,9.12867616 L8.65531294,9.12867616 L8.65531294,9.12867616 C8.45743712,9.12369315 8.27619007,9.23900586 8.19700931,9.42042183 L8.19700931,9.42042184 C8.10349805,9.59291949 8.11557386,9.8034645 8.22819434,9.96413782 L8.22819434,9.9657837 L8.22824934,9.96662004 Z M31.327428,20.6546686 L25.523059,20.6546686 L25.523059,20.6546686 C24.9599661,20.6533237 24.5035682,20.1976617 24.5013159,19.6345714 C24.5013159,19.071132 24.9612952,18.6128284 25.5214131,18.6128284 L31.3257821,18.6128284 C31.8892216,18.6128284 32.3499805,19.0727779 32.3499805,19.6329256 L32.3499805,19.6329253 C32.360991,20.1862161 31.9213865,20.6436751 31.3680931,20.6546846 C31.3545395,20.6549543 31.3409819,20.654949 31.3274285,20.6546685 L31.327428,20.6546686 Z M31.327428,24.5026097 L25.523059,24.5026097 L25.523059,24.5026097 C24.9590105,24.5012588 24.5022201,24.0441085 24.501316,23.4800573 C24.501316,22.9166178 24.9612952,22.4599601 25.5214132,22.4599601 L31.3257822,22.4599601 C31.8892216,22.4599601 32.3499805,22.920719 32.3499805,23.4783816 L32.3499805,23.4783823 C32.3623626,24.031646 31.9238933,24.4901906 31.3706296,24.5025726 C31.3562311,24.5028948 31.3418273,24.5029066 31.3274283,24.5026079 L31.327428,24.5026097 Z M31.327428,28.3324688 L25.523059,28.3324688 L25.5230591,28.3324688 C24.9593381,28.3311186 24.5026803,27.8744755 24.501316,27.3107546 C24.501316,26.748961 24.9612953,26.2906574 25.5214132,26.2906574 L31.3257822,26.2906574 C31.8892216,26.2906574 32.3499805,26.748961 32.3499805,27.3107546 C32.3499805,27.8741642 31.9048439,28.3308518 31.3274281,28.3308518 L31.3274281,28.3324688 L31.327428,28.3324688 Z" id="形状"></path>
                </g>
            </g>
        </g>
    </g>
</svg>