<?xml version="1.0" encoding="UTF-8"?>
<svg width="40px" height="40px" viewBox="0 0 40 40" version="1.1" xmlns="http://www.w3.org/2000/svg" xmlns:xlink="http://www.w3.org/1999/xlink">
    <title>编组备份 3</title>
    <g id="页面-1" stroke="none" stroke-width="1" fill="none" fill-rule="evenodd">
        <g id="登录页" transform="translate(-40.000000, -975.000000)" fill="#154BD0" fill-rule="nonzero">
            <g id="编组备份-3" transform="translate(40.000000, 935.000000)">
                <g id="编组-9" transform="translate(0.000000, 40.000000)">
                    <g id="验证码" transform="translate(3.000000, 1.000000)">
                        <path d="M16.200023,37.6579539 C10.5726399,37.6579539 0.0473808067,29.2168792 0.0473808067,21.29687 L0.0473808067,6.08209914 C0.0473808067,5.66525838 0.360012729,5.45683607 0.776856968,5.45683607 L1.71475158,5.45683607 C1.71475158,5.45683607 5.36212465,5.3526253 9.00951319,3.89367452 C12.7610955,2.43472607 15.2621439,0.663146077 15.2621439,0.663146077 L15.7831978,0.246305318 C15.8874085,0.142094549 16.0958297,0.142094549 16.2000385,0.142094549 C16.3042493,0.142094549 16.5126704,0.142094549 16.6168793,0.246305318 L17.1379331,0.663146077 C17.1379331,0.663146077 19.6389893,2.43472607 23.3905638,3.89367452 C27.0379369,5.35262298 30.6853254,5.45683607 30.6853254,5.45683607 L31.62322,5.45683607 C32.0400608,5.45683607 32.3526962,5.76946799 32.3526962,6.08209914 L32.3526962,21.29687 C32.3526962,29.2168792 21.8274371,37.6579539 16.200054,37.6579539 L16.200023,37.6579539 Z M29.8516362,7.85369847 C28.496897,7.7494877 25.5790078,7.43685771 22.5568746,6.1863277 C19.4305554,4.93580156 17.1379331,3.58106232 16.200023,2.95579925 C15.2621284,3.58106232 12.9694946,4.93580156 9.8431715,6.1863277 C6.8210615,7.43685384 3.90316459,7.74948924 2.54840989,7.85369847 L2.54840989,21.29687 C2.54840989,27.5495007 11.718953,35.1568861 16.200023,35.1568861 C17.971603,35.1568861 21.3063407,33.6979376 24.7452799,30.5716339 C27.9758083,27.5495239 29.8516362,24.1105615 29.8516362,21.29687 L29.8516362,7.85369847 L29.8516362,7.85369847 Z M14.9495278,23.7979377 C14.7411067,24.0063589 14.428474,24.2147785 14.1158425,24.2147785 C13.8032105,24.2147785 13.4905794,24.1105677 13.2821571,23.7979377 L9.53057477,20.0463554 C9.00952092,19.5253016 9.00952092,18.7958293 9.53057477,18.2747754 C10.0516286,17.7537216 10.7811009,17.7537216 11.3021548,18.2747754 L14.1158425,21.0884631 L21.3063832,13.7937015 C21.8274371,13.2726477 22.5569094,13.2726477 23.0779632,13.7937015 C23.5990171,14.3147554 23.5990171,15.0442277 23.0779632,15.5652815 L14.949551,23.7979145 L14.9495278,23.7979377 Z" id="形状"></path>
                    </g>
                </g>
            </g>
        </g>
    </g>
</svg>