<?xml version="1.0" encoding="UTF-8"?>
<svg width="40px" height="40px" viewBox="0 0 40 40" version="1.1" xmlns="http://www.w3.org/2000/svg" xmlns:xlink="http://www.w3.org/1999/xlink">
    <title>编组备份 2</title>
    <g id="页面-1" stroke="none" stroke-width="1" fill="none" fill-rule="evenodd">
        <g id="登录页" transform="translate(-40.000000, -855.000000)" fill="#154BD0" fill-rule="nonzero">
            <g id="编组备份-2" transform="translate(40.000000, 815.000000)">
                <g id="编组-6" transform="translate(0.000000, 40.000000)">
                    <g id="密-码" transform="translate(4.000000, 0.000000)">
                        <path d="M27.0587888,16.9446432 C28.6532127,16.9446432 29.9454233,18.2368538 29.9454233,19.8291933 L29.9454233,33.2869441 C29.9454233,34.881368 28.6532127,36.1714942 27.0608732,36.1714942 L5.91027204,36.1714942 C4.31793253,36.1714942 3.02572193,34.8792836 3.02572193,33.2869441 L3.02572193,19.8291933 C3.02572193,18.2347693 4.31793253,16.9446432 5.91027204,16.9446432 L27.0608732,16.9446432 M27.0608732,14.0600791 L5.91027204,14.0600791 L5.91027183,14.0600791 C2.72408461,14.0600791 0.1411561,16.643006 0.1411561,19.8292087 L0.1411561,33.2869596 L0.1411561,33.2868682 C0.142255987,36.4714274 2.72352383,39.0527742 5.9080675,39.053973 L27.060757,39.053973 L27.060757,39.053973 C30.2461283,39.053973 32.8287126,36.4723284 32.8298727,33.2869456 L32.8298727,19.8291948 L32.8298727,19.8291948 C32.8298727,16.6430076 30.2469597,14.0600791 27.060757,14.0600791 L27.0608732,14.0600791 Z M16.4855726,3.48479245 L16.4855723,3.48479245 C20.2012554,3.48479245 23.2134036,6.4969483 23.2134036,10.2126237 L23.2134036,14.0600814 L9.75979031,14.0600814 L9.75979031,10.2147081 L9.75979031,10.2149473 C9.75850739,6.49926415 12.7696224,3.48607189 16.4853017,3.48479245 C16.4866913,3.48479245 16.488081,3.48479245 16.4894707,3.48479245 M16.4894707,0.60232987 L16.4894708,0.60232987 C11.1804349,0.601310524 6.8754381,4.90361417 6.87315646,10.21265 L6.87315646,16.9446579 L26.1000232,16.9446579 L26.1000232,10.21265 L26.1000232,10.214734 C26.1000232,4.9064329 21.7980041,0.602557578 16.489703,0.600275934 L16.4855346,0.600275934 L16.489703,0.600275934 L16.4894707,0.60232987 Z M16.4894707,30.8859639 L16.4894707,30.8859639 C15.6940744,30.8871143 15.0483462,30.2432544 15.0471922,29.4478581 C15.0471922,29.4464676 15.0471922,29.4450771 15.0471922,29.4436867 L15.0471922,23.674571 L15.0471922,23.6745712 C15.0471922,22.8785987 15.6924541,22.2333383 16.4884266,22.2333383 C17.2843991,22.2333383 17.9296594,22.8785987 17.9296594,23.6745712 C17.9296594,23.6745712 17.9296594,23.6745712 17.9296594,23.6745712 L17.9296594,29.4415986 C17.9296594,30.2377683 17.2835522,30.8838756 16.4894669,30.8838756 L16.4894707,30.8859639 Z" id="形状"></path>
                    </g>
                </g>
            </g>
        </g>
    </g>
</svg>