<?xml version="1.0" encoding="UTF-8"?>
<svg width="40px" height="40px" viewBox="0 0 40 40" version="1.1" xmlns="http://www.w3.org/2000/svg" xmlns:xlink="http://www.w3.org/1999/xlink">
    <title>编组备份</title>
    <g id="页面-1" stroke="none" stroke-width="1" fill="none" fill-rule="evenodd">
        <g id="登录页" transform="translate(-40.000000, -735.000000)" fill="#154BD0" fill-rule="nonzero">
            <g id="编组备份" transform="translate(40.000000, 695.000000)">
                <g id="编组-5" transform="translate(0.000000, 40.000000)">
                    <g id="公司" transform="translate(0.000000, 1.000000)">
                        <path d="M3.30200617,33.6080426 L3.30200617,10.2220154 C3.30200617,9.29801431 3.85200681,8.44001331 4.71000781,8.02201283 L20.1100257,0.630004224 C21.8260277,-0.183996723 23.8280301,1.00400466 23.8280301,2.83000678 L23.8280301,10.2220154 C24.2900306,10.2220154 24.7520311,10.3320155 25.1920316,10.5960158 L35.4660436,16.756023 C36.2140445,17.1960235 36.676045,17.9880244 36.676045,18.8460254 L36.676045,33.6080426 L37.9520465,33.6080426 C38.6560473,33.6080426 39.228048,34.1580432 39.228048,34.840044 C39.228048,35.5220448 38.6560473,36.0720455 37.9520465,36.0720455 L2.02600468,36.0720455 C1.32200387,36.0720455 0.7500032,35.5220448 0.7500032,34.840044 C0.7500032,34.1580432 1.32200387,33.6080426 2.02600468,33.6080426 L3.30200617,33.6080426 Z M24.4880308,33.6080426 L33.4640413,33.6080426 C33.8160417,33.6080426 34.102042,33.3220423 34.102042,32.9920419 L34.102042,19.1760258 C34.102042,18.9560255 33.9920419,18.7580253 33.7940417,18.6480252 L23.8280301,12.6640182 L23.8280301,32.9700419 C23.8500301,33.3440423 24.1360304,33.6080426 24.4880308,33.6080426 L24.4880308,33.6080426 Z M6.51400991,33.6080426 L20.6380263,33.6080426 C20.9900268,33.6080426 21.2760271,33.3220423 21.2760271,32.9920419 L21.2760271,3.84200796 C21.2760271,3.51200758 20.9900268,3.22600724 20.6380263,3.22600724 C20.5280262,3.22600724 20.4400261,3.24800727 20.352026,3.29200732 L6.22800957,10.0460152 C6.00800932,10.1560153 5.87600916,10.3540155 5.87600916,10.5960158 L5.87600916,32.9920419 C5.87600916,33.3440423 6.1620095,33.6080426 6.51400991,33.6080426 Z M12.9380174,12.0700175 L14.2140189,12.0700175 C14.9180197,12.0700175 15.4900204,12.6200182 15.4900204,13.302019 L15.4900204,14.5340204 C15.4900204,15.2160212 14.9180197,15.7660218 14.2140189,15.7660218 L12.9380174,15.7660218 C12.2340166,15.7660218 11.6620159,15.2160212 11.6620159,14.5340204 L11.6620159,13.302019 C11.6620159,12.6200182 12.2340166,12.0700175 12.9380174,12.0700175 Z M28.3380353,23.1580304 L29.6140368,23.1580304 C30.3180376,23.1580304 30.8900383,23.7080311 30.8900383,24.3900319 L30.8900383,25.6220333 C30.8900383,26.3040341 30.3180376,26.8540347 29.6140368,26.8540347 L28.3380353,26.8540347 C27.6340345,26.8540347 27.0620338,26.3040341 27.0620338,25.6220333 L27.0620338,24.3900319 C27.0620338,23.7080311 27.6340345,23.1580304 28.3380353,23.1580304 Z M12.9380174,19.4620261 L14.2140189,19.4620261 C14.9180197,19.4620261 15.4900204,20.0120268 15.4900204,20.6940276 L15.4900204,21.926029 C15.4900204,22.6080298 14.9180197,23.1580304 14.2140189,23.1580304 L12.9380174,23.1580304 C12.2340166,23.1580304 11.6620159,22.6080298 11.6620159,21.926029 L11.6620159,20.6940276 C11.6620159,20.0120268 12.2340166,19.4620261 12.9380174,19.4620261 Z M12.9380174,26.8320347 L14.2140189,26.8320347 C14.9180197,26.8320347 15.4900204,27.3820354 15.4900204,28.0640361 L15.4900204,29.2960376 C15.4900204,29.9780384 14.9180197,30.528039 14.2140189,30.528039 L12.9380174,30.528039 C12.2340166,30.528039 11.6620159,29.9780384 11.6620159,29.2960376 L11.6620159,28.0640361 C11.6620159,27.4040354 12.2340166,26.8320347 12.9380174,26.8320347 Z" id="形状"></path>
                    </g>
                </g>
            </g>
        </g>
    </g>
</svg>