<?xml version="1.0" encoding="UTF-8"?>
<svg width="40px" height="40px" viewBox="0 0 40 40" version="1.1" xmlns="http://www.w3.org/2000/svg" xmlns:xlink="http://www.w3.org/1999/xlink">
    <title>编组</title>
    <g id="页面-1" stroke="none" stroke-width="1" fill="none" fill-rule="evenodd">
        <g id="登录页" transform="translate(-40.000000, -615.000000)" fill="#154BD0" fill-rule="nonzero">
            <g id="编组" transform="translate(40.000000, 575.000000)">
                <g id="账号" transform="translate(0.000000, 40.000000)">
                    <path d="M35.812544,39.2070792 L4.1875072,39.2070792 C2.28901671,39.2070792 0.7500032,37.6680657 0.7500032,35.7695752 C0.7500032,30.0741467 5.3670867,25.4570632 11.0625152,25.4570632 L28.937536,25.4570632 C34.6329645,25.4570632 39.250048,30.0741467 39.250048,35.7695752 C39.250048,37.6680657 37.7110345,39.2070792 35.812544,39.2070792 Z M28.937536,28.2070664 L11.0625152,28.2070664 C6.8858619,28.2070664 3.5000064,31.5929219 3.5000064,35.7695752 C3.5000064,36.1492475 3.80779191,36.457076 4.1875072,36.457076 L35.812544,36.457076 C36.1922593,36.457076 36.5000448,36.1492475 36.5000448,35.7695752 C36.5000448,31.5929219 33.1141893,28.2070664 28.937536,28.2070664 Z M20.0000256,22.7929976 C13.9248818,22.7929976 9.0000128,17.8681286 9.0000128,11.7929848 C9.0000128,5.71784101 13.9248818,0.792972 20.0000256,0.792972 C26.0751694,0.792972 31.0000384,5.71784101 31.0000384,11.7929848 C31.0000384,17.8681286 26.0751694,22.7929976 20.0000256,22.7929976 Z M20.0000256,3.5429752 C15.443657,3.5429752 11.750016,7.23661622 11.750016,11.7929848 C11.750016,16.3493534 15.443657,20.0429944 20.0000256,20.0429944 C24.5563942,20.0429944 28.2500352,16.3493534 28.2500352,11.7929848 C28.2500352,7.23661622 24.5563942,3.5429752 20.0000256,3.5429752 Z" id="形状"></path>
                </g>
            </g>
        </g>
    </g>
</svg>