<svg xmlns="http://www.w3.org/2000/svg" xmlns:xlink="http://www.w3.org/1999/xlink" fill="none" version="1.1" width="60" height="60" viewBox="0 0 60 60"><g><g><path d="M30,3.75C24.8083,3.75,19.7331,5.28954,15.4163,8.173919999999999C11.099499999999999,11.058309999999999,7.734970000000001,15.158,5.74817,19.9546C3.7613737,24.7511,3.241536,30.0291,4.254398,35.1211C5.26726,40.2131,7.76733,44.8904,11.43846,48.5616C15.1096,52.2327,19.7869,54.7327,24.8789,55.7456C29.9709,56.7585,35.2489,56.2386,40.0455,54.2518C44.842,52.265,48.9417,48.9005,51.8261,44.5837C54.7105,40.2669,56.25,35.1918,56.25,30C56.25,23.0381,53.4844,16.3613,48.5616,11.43845C43.6387,6.51562,36.9619,3.75,30,3.75ZM30,52.5C25.5499,52.5,21.1998,51.1804,17.4997,48.7081C13.7996,46.2357,10.91569,42.7217,9.212720000000001,38.6104C7.50975,34.498999999999995,7.06418,29.975,7.93234,25.6105C8.80051,21.2459,10.94343,17.236800000000002,14.0901,14.0901C17.236800000000002,10.94342,21.2459,8.8005,25.6105,7.93233C29.9751,7.06416,34.4991,7.50974,38.6104,9.212710000000001C42.7217,10.91568,46.2357,13.7996,48.7081,17.4997C51.1804,21.1998,52.5,25.5499,52.5,30C52.5,35.9674,50.1295,41.6903,45.9099,45.9099C41.6903,50.1295,35.9674,52.5,30,52.5ZM26.25,40.1512L16.875,30.7744L19.5244,28.125L26.25,34.8488L40.4719,20.625L43.125,23.2781L26.25,40.1512Z" fill-rule="evenodd" fill="#24B276" fill-opacity="1"/></g></g></svg>