<?xml version="1.0" encoding="UTF-8"?>
<svg width="44px" height="45px" viewBox="0 0 44 45" version="1.1" xmlns="http://www.w3.org/2000/svg" xmlns:xlink="http://www.w3.org/1999/xlink">
    <title>扫一扫</title>
    <g id="页面-1" stroke="none" stroke-width="1" fill="none" fill-rule="evenodd">
        <g id="首页" transform="translate(-560.000000, -109.000000)" fill="#FFFFFF" fill-rule="nonzero">
            <g id="编组" transform="translate(30.000000, 107.000000)">
                <g transform="translate(532.000000, 5.000000)" id="形状结合">
                    <path d="M2.20717582,15.7035407 C1.01451525,15.7035407 0.0603877158,14.7493993 0.0603877158,13.5567387 L0.0603877158,6.003231 C0.0603877158,2.66378231 2.76374983,-0.0395658779 6.10318459,-0.0395658779 L12.7820727,-0.0395658779 C13.9747333,-0.0395658779 14.9288608,0.914561654 14.9288608,2.10722223 C14.9288608,3.2998828 13.9747333,4.25401034 12.7820727,4.25401034 L6.10318459,4.25401034 C5.0695445,4.25401034 4.27443745,5.04911739 4.27443745,6.08275748 L4.27443745,13.6362652 C4.35394815,14.7494132 3.39981784,15.7035407 2.2071619,15.7035407 L2.20717582,15.7035407 Z M12.7025648,39.0796954 L6.10317067,39.0796954 C2.76372199,39.0796954 0.060373794,36.3763194 0.060373794,33.0368846 L0.060373794,27.1530757 C0.060373794,25.9604152 1.01450133,25.0062876 2.2071619,25.0062876 C3.39982248,25.0062876 4.35395001,25.9604152 4.35395001,27.1530757 L4.35395001,33.0368846 C4.35395001,34.0705247 5.14905706,34.8656318 6.18269715,34.8656318 L12.7820912,34.8656318 C13.9747518,34.8656318 14.9288793,35.8197593 14.9288793,37.0124199 C14.8493686,38.1255679 13.8952393,39.0796954 12.7025787,39.0796954 L12.7025648,39.0796954 Z M33.1367918,39.0796815 L26.1398349,39.0796815 C24.9471743,39.0796815 23.9930468,38.125554 23.9930468,36.9328934 C23.9930468,35.7402328 24.9471743,34.7861053 26.1398349,34.7861053 L33.1367918,34.7861053 C34.1704319,34.7861053 34.965539,33.9909982 34.965539,32.9573581 L34.965539,27.0735493 C34.965539,25.8808887 35.9196665,24.9267612 37.1123271,24.9267612 C38.3049876,24.9267612 39.2591152,25.8808887 39.2591152,27.0735493 L39.2591152,33.0368521 C39.1796045,36.3763008 36.4762405,39.0796815 33.1367779,39.0796815 L33.1367918,39.0796815 Z M37.0328145,15.5445388 C35.8401539,15.5445388 34.8860264,14.5904113 34.8860264,13.3977507 L34.8860264,6.0032774 C34.8860264,4.96963731 34.0909193,4.17453026 33.0572793,4.17453026 L26.4578852,4.17453026 C25.2652246,4.17453026 24.3110971,3.22040273 24.3110971,2.02774215 C24.3110971,0.835081577 25.2652246,-0.119045955 26.4578852,-0.119045955 L33.1367733,-0.119045955 C36.4762219,-0.119045955 39.1795701,2.58431616 39.1795701,5.92375092 L39.1795701,13.3182242 C39.1795701,14.5903973 38.2254426,15.5445388 37.032782,15.5445388 L37.0328145,15.5445388 Z M37.0328795,17.7708163 C38.22554,17.7708163 39.1796676,18.7249438 39.1796676,19.9176044 C39.1796676,21.110265 38.22554,22.0643925 37.0328795,22.0643925 L2.20722223,22.0643925 C1.01456165,22.0643925 0.0604341221,21.110265 0.0604341221,19.9176044 C0.0604341221,18.7249438 1.01456165,17.7708163 2.20722223,17.7708163 L37.0328795,17.7708163 Z"></path>
                </g>
            </g>
        </g>
    </g>
</svg>