<?xml version="1.0" encoding="UTF-8"?>
<svg width="44px" height="44px" viewBox="0 0 44 44" version="1.1" xmlns="http://www.w3.org/2000/svg" xmlns:xlink="http://www.w3.org/1999/xlink">
    <title>我的</title>
    <g id="页面-1" stroke="none" stroke-width="1" fill="none" fill-rule="evenodd">
        <g id="我的" transform="translate(-60.000000, -685.000000)" fill="#154BD0" fill-rule="nonzero" stroke="#333333" stroke-width="0.2">
            <g id="编组-11" transform="translate(60.000000, 685.000000)">
                <g id="设置" transform="translate(1.000000, 3.000000)">
                    <path d="M13.8326274,0.567528994 L28.1691116,0.567528994 L28.1691115,0.567528994 C30.2522613,0.56792478 32.1770332,1.67956699 33.2182678,3.48383506 L40.3865335,15.9028925 L40.3865334,15.9028923 C41.4278862,17.707151 41.4278862,19.9298337 40.3865336,21.7341065 L33.2182678,34.1535421 L33.2182677,34.1535423 C32.1770001,35.9577347 30.2522423,37.0694424 28.1691115,37.0694424 L13.8326272,37.0694424 L13.8326275,37.0694424 C11.7494777,37.0694424 9.82470579,35.9576071 8.78347122,34.153339 L1.61520545,21.7340925 L1.61520563,21.7340928 C0.573852896,19.9298342 0.573852896,17.7071514 1.61520528,15.9028786 L8.78347104,3.48363215 L8.7834709,3.48363239 C9.82468657,1.67936431 11.7494538,0.567528994 13.8326272,0.567528994 L13.8326274,0.567528994 Z M13.8326274,3.59273519 L13.8326274,3.59273519 C12.8303776,3.59273519 11.9043294,4.12767398 11.4033463,4.99573182 L4.23508056,17.4154037 L4.23508052,17.4154038 C3.73386107,18.2838775 3.73386107,19.3537315 4.2350805,20.2222053 L11.4035353,32.6412627 L11.4035352,32.6412625 C11.9044663,33.509396 12.8305239,34.0444624 13.8328163,34.0444624 L28.1693005,34.0444624 L28.1693006,34.0444624 C29.1715929,34.0444624 30.0976505,33.5094007 30.5985816,32.6412625 L37.7668474,20.222016 L37.7668475,20.2220159 C38.2680669,19.3535421 38.2680669,18.2836882 37.7668473,17.4152144 L30.5982034,4.99577884 L30.5982035,4.99577889 C30.0972203,4.12772104 29.1711722,3.59273519 28.1689224,3.59273519 L13.8324381,3.59273519 L13.8326274,3.59273519 Z M20.9000282,25.758354 C17.0018054,25.758354 13.8417024,22.598232 13.8417024,18.7000282 C13.8417024,14.8018054 17.0018243,11.6417024 20.9000282,11.6417024 C24.7982509,11.6417024 27.958354,14.8018243 27.958354,18.7000282 C27.958354,22.5982509 24.798232,25.758354 20.9000282,25.758354 Z M20.9000282,22.7333504 C23.1276408,22.7333504 24.9333646,20.9276266 24.9333646,18.700014 C24.9333646,16.4724014 23.1276408,14.6666775 20.9000282,14.6666775 C18.6724156,14.6666775 16.8666917,16.4724014 16.8666917,18.700014 C16.8666917,20.9276266 18.6724156,22.7333504 20.9000282,22.7333504 Z" id="形状"></path>
                </g>
            </g>
        </g>
    </g>
</svg>