<?xml version="1.0" encoding="utf-8"?>
<svg version="1.1" xmlns:xlink="http://www.w3.org/1999/xlink" width="22px" height="113px" xmlns="http://www.w3.org/2000/svg">
  <g transform="matrix(1 0 0 1 -165 -1814 )">
    <path d="M 21.6219931271478 6.79358717434843  C 21.8739977090493 7.54843019372083  22 8.4164996659988  22 9.39779559118233  C 22 10.3790915163663  21.8739977090493 11.2471609886438  21.6219931271478 12.0020040080162  L 6.76632302405494 56.5  L 21.6219931271478 100.997995991984  C 21.8739977090493 101.752839011356  22 102.620908483634  22 103.602204408818  C 22 104.583500334001  21.8739977090493 105.451569806279  21.6219931271478 106.206412825652  L 19.7319587628866 111.867735470942  C 19.4799541809851 112.622578490314  19.1901489117984 113  18.8625429553265 113  C 18.5349369988545 113  18.2451317296678 112.622578490314  17.9931271477664 111.867735470942  L 0.378006872852211 59.1042084168334  C 0.126002290950737 58.349365397462  0 57.481295925184  0 56.5  C 0 55.518704074816  0.126002290950737 54.650634602538  0.378006872852211 53.8957915831666  L 17.9931271477664 1.13226452905792  C 18.2451317296678 0.377421509685973  18.5349369988545 0  18.8625429553265 0  C 19.1901489117984 0  19.4799541809851 0.377421509685973  19.7319587628866 1.13226452905792  L 21.6219931271478 6.79358717434843  Z " fill-rule="nonzero" fill="#949494" stroke="none" transform="matrix(1 0 0 1 165 1814 )" />
  </g>
</svg>