<?xml version="1.0" encoding="UTF-8"?>
<svg width="88px" height="88px" viewBox="0 0 88 88" version="1.1" xmlns="http://www.w3.org/2000/svg" xmlns:xlink="http://www.w3.org/1999/xlink">
    <title>椭圆形备份</title>
    <g id="页面-1" stroke="none" stroke-width="1" fill="none" fill-rule="evenodd">
        <g id="温湿度备份" transform="translate(-74.000000, -504.000000)">
            <g id="编组-10" transform="translate(30.000000, 466.000000)">
                <g id="编组-3" transform="translate(44.000000, 38.000000)">
                    <circle id="椭圆形备份" fill="#FFFFFF" cx="44" cy="44" r="44"></circle>
                    <path d="M23.4800061,30.2800138 C23.4800061,29.4000126 24.1400069,28.7400119 24.8000077,28.9600123 L24.8000077,28.9600123 L64.6200712,28.9600123 C65.280072,28.9600123 65.9400727,29.4000111 65.9400727,30.2800138 C65.9400727,30.9400146 65.5000739,31.6000154 64.6200712,31.6000154 L64.6200712,31.6000154 L63.3000697,31.6000154 L63.3000697,57.3400453 L64.6200712,57.3400247 C65.5000724,57.3400247 65.9400727,58.2200274 65.9400727,58.8800282 C65.9400727,59.540029 65.5000739,60.2000297 64.6200712,60.2000297 L64.6200712,60.2000297 L24.8000077,60.2000297 C24.1400069,60.2000297 23.4800061,59.1000302 23.4800061,58.4400294 C23.4800061,57.7800286 23.9200049,57.1200279 24.8000077,57.1200279 L24.8000077,57.1200279 L26.1200092,57.1200279 L26.1200092,31.6000154 L24.8000077,31.6000154 C24.1400069,31.6000154 23.4800061,30.9400146 23.4800061,30.2800138 Z M48.7800167,38.6399857 C46.5800124,38.6399857 44.6000101,39.2999865 43.5000105,40.83999 C42.4000074,42.1599916 41.960007,43.9199919 41.960007,46.1199962 C41.960007,48.3200004 42.400011,50.0800008 43.5000105,51.4000023 C44.8200275,52.9400058 46.580033,53.6000066 49.0000341,53.6000066 C50.5400376,53.6000066 51.8600392,53.1600078 52.9600387,52.280005 C54.0600434,51.4000023 54.9400426,50.0800008 55.160043,48.3200004 L55.160043,48.320002 L55.160043,47.6600012 L52.3000225,47.6600012 L52.3000225,47.8800016 C52.0800205,48.7600044 51.6400217,49.6400056 50.980021,50.0800059 C50.540017,50.5200063 49.6600194,50.7400067 48.7800167,50.7400067 C47.460007,50.7400067 46.3600156,50.3000079 45.7000148,49.4200052 C45.0400125,48.7600044 44.8200121,47.4400029 44.8200121,45.8999993 C44.8200121,44.3599958 45.040014,43.2599963 45.7000148,42.3799935 C46.3600156,41.4999923 47.460007,41.059992 48.7800167,41.059992 C49.6600194,41.059992 50.3200202,41.2799924 50.980021,41.7199928 C51.4200197,41.9399896 51.8600201,42.5999903 52.0800205,43.4799931 L52.0800205,43.4799931 L52.0800205,43.6999935 L54.9400256,43.6999935 L54.9400256,43.4799931 C54.7200236,41.9399896 54.0600228,40.83999 52.9600233,39.9599873 C51.8600185,39.0799861 50.540017,38.6399857 48.7800167,38.6399857 Z M38.2200405,35.5599993 C36.2400382,35.5599993 34.7000347,37.1000029 34.7000347,39.0800052 C34.7000347,41.0599993 36.2400382,42.600011 38.2200405,42.600011 C40.2000347,42.600011 41.7400463,41.0599993 41.7400463,39.0800052 C41.7400463,37.1000029 40.2000347,35.5599993 38.2200405,35.5599993 Z M38.2200405,37.5400223 C39.1000417,37.5400223 39.540042,38.420025 39.540042,39.0800258 C39.540042,39.7400266 38.8800413,40.4000273 38.2200405,40.4000273 C37.5600397,40.4000273 36.9000389,39.5200246 36.9000389,38.8600238 C36.9000389,38.200023 37.5600397,37.5400223 38.2200405,37.5400223 Z" id="形状结合" fill="#0AC1A6" fill-rule="nonzero"></path>
                </g>
            </g>
        </g>
    </g>
</svg>