<?xml version="1.0" encoding="UTF-8"?>
<svg width="25px" height="25px" viewBox="0 0 25 25" version="1.1" xmlns="http://www.w3.org/2000/svg" xmlns:xlink="http://www.w3.org/1999/xlink">
    <title>形状</title>
    <g id="页面-1" stroke="none" stroke-width="1" fill="none" fill-rule="evenodd">
        <g id="温湿度备份" transform="translate(-284.000000, -346.000000)" fill="#FF6B4D" fill-rule="nonzero">
            <g id="编组-9" transform="translate(30.000000, 206.000000)">
                <g id="编组-14" transform="translate(244.580877, 132.395829)">
                    <g id="编组-15" transform="translate(0.419123, 0.604171)">
                        <g id="编组-18" transform="translate(9.000000, 7.000000)">
                            <path d="M12.502617,7.45795014 C9.13503917,7.45795014 6.40480548,10.1875883 6.40480548,13.5551661 L6.40480548,21.0469921 L18.687189,21.0469921 L18.687189,13.5551661 C18.687189,10.1875612 15.957578,7.45795014 12.589973,7.45795014 L12.502617,7.45795014 Z M5.42355965,11.1097396 C5.53184103,10.5720684 5.18301258,10.0485279 4.6453414,9.94024655 L1.76992946,9.3632151 C1.23225829,9.25555634 0.70809522,9.60435772 0.600436462,10.1420289 L0.600436422,10.1420291 C0.577652126,10.2557178 0.574748723,10.3724954 0.591855177,10.487176 C0.652763451,10.8882773 0.957900369,11.2266566 1.3786818,11.3115221 L4.25409374,11.8885535 C4.79236046,11.9962394 5.31590091,11.6480335 5.42355967,11.1097397 L5.42355965,11.1097396 Z M4.76466748,4.44778203 L6.59613867,6.7381497 C6.93876802,7.16632133 7.56382226,7.23586504 7.99261651,6.89320863 C8.42078814,6.55052514 8.49030478,5.9254709 8.14764837,5.49670372 L6.3156087,3.20690453 C5.9735749,2.77875997 5.34852066,2.70921626 4.91972641,3.05127713 C4.63180623,3.28137505 4.50630812,3.63818925 4.5579854,3.97775965 L4.55798537,3.97775947 C4.58402106,4.14998262 4.65535876,4.31219191 4.76469425,4.44778185 L4.76466748,4.44778203 Z M12.6705614,5.31400597 C13.2193044,5.32691852 13.6739508,4.89257485 13.6868363,4.34445453 L13.6800687,1.41241143 C13.6930083,0.864264034 13.2586647,0.409022059 12.7105443,0.396109505 C12.1617743,0.383196951 11.7065324,0.817540621 11.6935927,1.36566095 L11.7003603,4.2976499 C11.6991422,4.35674447 11.7028237,4.41518934 11.7114592,4.47179343 C11.7828166,4.93929827 12.1814815,5.30290713 12.6705614,5.31400597 L12.6705614,5.31400597 Z M17.2691361,7.11158509 C17.6807407,7.47394872 18.3088268,7.43399289 18.6711905,7.02238831 L20.6084526,4.82062188 C20.9708162,4.40842175 20.9308062,3.78093118 20.5192558,3.41856755 C20.1070556,3.05620393 19.4795651,3.0962139 19.1172014,3.50776434 L17.1793709,5.70958491 C16.9775615,5.93903314 16.9006546,6.23556169 16.943128,6.5160646 C16.9769118,6.73877232 17.0870339,6.95103088 17.2691361,7.11161216 L17.2691361,7.11158509 Z M24.5001664,10.7043611 C24.4177102,10.1617361 23.910845,9.78892333 23.3688155,9.87194807 L20.4694193,10.3130593 C19.9267942,10.3954885 19.5540085,10.9017852 19.6364106,11.4444102 C19.7188669,11.9869811 20.2257862,12.3597939 20.7683841,12.2773647 L23.6671849,11.835685 C24.2097828,11.7532558 24.5825685,11.246905 24.5001394,10.7043341 L24.5001664,10.7043611 Z M20.8563357,23.3200889 C20.8563357,24.1019887 20.2226731,24.7350558 19.4407191,24.7350558 L5.33991229,24.7350558 C4.55795833,24.7350558 3.92432279,24.1019887 3.92432279,23.3200889 C3.92432279,22.5381891 4.55795833,21.905122 5.33991229,21.905122 L19.4407462,21.905122 C20.2227002,21.905122 20.8563357,22.5381891 20.8563357,23.3200889 L20.8563357,23.3200889 Z" id="形状"></path>
                        </g>
                    </g>
                </g>
            </g>
        </g>
    </g>
</svg>