<?xml version="1.0" encoding="UTF-8"?>
<svg width="48px" height="62px" viewBox="0 0 48 62" version="1.1" xmlns="http://www.w3.org/2000/svg" xmlns:xlink="http://www.w3.org/1999/xlink">
    <title>形状结合</title>
    <g id="页面-1" stroke="none" stroke-width="1" fill="none" fill-rule="evenodd">
        <g id="力学室" transform="translate(-50.000000, -1268.000000)" fill-rule="nonzero">
            <g id="编组-3" transform="translate(30.000000, 1204.000000)">
                <g id="温湿度" transform="translate(20.000000, 64.000000)">
                    <path d="M18.765036,56.856946 C26.1487946,56.856946 32.1300516,50.8756891 32.1300516,43.4919305 L5.40002048,43.4919305 C5.40002048,50.8688141 11.3812774,56.856946 18.765036,56.856946 Z" id="路径" fill="#FF4D10"></path>
                    <path d="M18.4519095,0.16563008 C24.1787912,0.16563008 28.8606716,4.84751053 28.8606716,10.5743922 L28.8606716,10.5743922 L28.8606716,29.0544137 C33.480677,32.3269175 36.4919305,37.7031738 36.4919305,43.7944308 C36.4919305,53.7563174 28.4137961,61.8344518 18.4519095,61.8344518 C8.49002291,61.8344518 0.411888512,53.7563174 0.411888512,43.7944308 C0.411888512,37.7031738 3.42314202,32.3200425 8.04314739,29.0544137 L8.04314739,29.0544137 L8.04314739,10.5743922 C8.04314739,4.84751053 12.7250278,0.16563008 18.4519095,0.16563008 Z M18.4519095,4.18750976 C14.9250304,4.18750976 12.0650271,7.04751309 12.0650271,10.5743922 L12.0650271,10.5743922 L12.0650271,31.3162913 C7.5343968,33.633169 4.43376819,38.3494245 4.43376819,43.7944308 C4.43376819,51.5356899 10.7106505,57.8125722 18.4519095,57.8125722 C26.1931685,57.8125722 32.4700508,51.5356899 32.4700508,43.7875558 C32.4700508,38.3494245 29.3694222,33.633169 24.8387919,31.3094163 L24.8387919,31.3094163 L24.8387919,10.5743922 C24.8387919,7.04751309 21.9787886,4.18750976 18.4519095,4.18750976 Z M18.4519095,21.9250304 C19.5587858,21.9250304 20.4662868,22.8325315 20.4662868,23.9394077 L20.4662868,23.9394077 L20.4662868,36.7131726 C23.3194152,37.5725486 25.3956676,40.2194267 25.3819855,43.3544303 C25.3819855,47.1838098 22.274414,50.2913134 18.4450345,50.2913134 C14.615655,50.2913134 11.5081514,47.1838098 11.5081514,43.3544303 C11.5081514,40.2194267 13.5844038,37.5725486 16.4375322,36.7131726 L16.4375322,36.7131726 L16.4375322,23.9394077 C16.4375322,22.8325315 17.3450332,21.9250304 18.4519095,21.9250304 Z M18.4519095,40.4394269 C16.8431576,40.4394269 15.5369061,41.7456785 15.5369061,43.3544303 C15.5369061,44.9631822 16.8431576,46.2694337 18.4519095,46.2694337 C20.0606614,46.2694337 21.3669129,44.9631822 21.3669129,43.3544303 C21.3669129,41.7456785 20.0606614,40.4394269 18.4519095,40.4394269 Z M45.5738161,22.8875315 C46.6806924,22.8875315 47.5881934,23.7950326 47.5881934,24.9019089 C47.5881934,26.0087852 46.6806924,26.9162862 45.5738161,26.9162862 L34.4913032,26.9162862 C33.3844269,26.9162862 32.4769258,26.0087852 32.4769258,24.9019089 C32.4769258,23.7950326 33.3844269,22.8875315 34.4913032,22.8875315 L45.5738161,22.8875315 Z M45.5738161,14.6512719 C46.6806924,14.6512719 47.5881934,15.558773 47.5881934,16.6656493 C47.5881934,17.7725256 46.6806924,18.6800266 45.5738161,18.6800266 L34.4913032,18.6800266 C33.3844269,18.6800266 32.4769258,17.7725256 32.4769258,16.6656493 C32.4769258,15.558773 33.3844269,14.6512719 34.4913032,14.6512719 L45.5738161,14.6512719 Z M45.5738161,6.46313741 C46.6806924,6.46313741 47.5881934,7.37063846 47.5881934,8.47751475 C47.5881934,9.58439104 46.6806924,10.4918921 45.5738161,10.4918921 L34.4913032,10.4918921 C33.3844269,10.4918921 32.4769258,9.58439104 32.4769258,8.47751475 C32.4769258,7.37063846 33.3844269,6.46313741 34.4913032,6.46313741 L45.5738161,6.46313741 Z" id="形状结合" fill="#333333"></path>
                </g>
            </g>
        </g>
    </g>
</svg>