<?xml version="1.0" encoding="UTF-8"?>
<svg width="38px" height="44px" viewBox="0 0 38 44" version="1.1" xmlns="http://www.w3.org/2000/svg" xmlns:xlink="http://www.w3.org/1999/xlink">
    <title>湿度</title>
    <g id="页面-1" stroke="none" stroke-width="1" fill="none" fill-rule="evenodd">
        <g id="温湿度备份" transform="translate(-523.000000, -279.000000)" fill="#FFFFFF" fill-rule="nonzero">
            <g id="编组-9" transform="translate(30.000000, 206.000000)">
                <g id="湿度" transform="translate(493.000000, 73.000000)">
                    <path d="M15.5416388,-1.72019874e-05 C16.0388393,-1.72019874e-05 16.5096399,0.235400274 16.8330403,0.649000755 C18.2740419,2.4882029 30.9064395,18.865022 30.9064395,27.4296491 C30.9064395,36.5662769 24.0380486,44.0000512 15.6010388,44.0000512 C7.16402901,44.0000512 0.300021028,36.566234 0.300021028,27.4274147 C0.300021028,18.8694048 12.8180356,2.49257712 14.2480373,0.653383573 L14.2480373,0.653383558 C14.5540108,0.248422384 15.0297343,0.00731327529 15.5372388,-1.72019874e-05 L15.5394388,-1.72019874e-05 L15.5416388,-1.72019874e-05 Z M15.6010388,40.3326641 C22.1724293,40.3326641 27.5184355,34.5466574 27.5184355,27.4296491 C27.5184355,21.9296427 19.7964265,10.4236293 15.5482302,4.72343128 C11.3374253,10.4280551 3.68583356,21.9318341 3.68583356,27.4296491 C3.68583356,34.5466574 9.03183978,40.3326641 15.6010388,40.3326641 Z M33.0756764,-1.33160694e-15 C33.0756764,-1.33160694e-15 37.6340645,5.81900677 37.6340645,8.53381852 C37.6340645,11.2442217 35.6012621,13.4442071 33.095442,13.4442071 C30.5896391,13.4442071 28.5634359,11.2464045 28.5634359,8.53381852 C28.5612367,5.81901536 33.073442,-1.33160694e-15 33.073442,-1.33160694e-15 L33.0756764,-1.33160694e-15 Z M8.47303054,18.6626389 C9.42563165,17.028037 11.7444343,19.3050397 13.7090366,20.6030412 C15.8056391,21.9912428 16.6570401,22.5522434 19.6050435,21.9032427 C20.4564445,21.7162425 21.2066454,21.2652419 21.8446461,20.8054414 C22.4672468,20.3566409 24.2382489,21.2080419 24.5066492,22.0792429 C24.5506492,22.222243 25.19305,23.6170447 25.2414501,23.7688448 C25.7144506,25.2560466 25.7144506,25.7664472 25.7144506,26.8598484 C25.7144506,33.6754736 20.9052536,37.9632442 15.7506304,37.9632442 C10.5960072,37.9632442 5.63281005,32.6106208 5.63281005,25.79723 C5.63281005,22.345426 6.97921161,21.2278419 8.47301335,18.6626045 L8.47303054,18.6626389 Z" id="形状"></path>
                </g>
            </g>
        </g>
    </g>
</svg>