<?xml version="1.0" encoding="UTF-8"?>
<svg width="38px" height="44px" viewBox="0 0 38 44" version="1.1" xmlns="http://www.w3.org/2000/svg" xmlns:xlink="http://www.w3.org/1999/xlink">
    <title>编组 9</title>
    <g id="页面-1" stroke="none" stroke-width="1" fill="none" fill-rule="evenodd">
        <g id="温湿度备份" transform="translate(-275.000000, -279.000000)" fill="#FFFFFF" fill-rule="nonzero">
            <g id="编组-9" transform="translate(30.000000, 206.000000)">
                <g id="编组-16" transform="translate(245.000000, 73.000000)">
                    <g id="温度" transform="translate(1.000000, 0.000000)">
                        <path d="M13.5299815,3.17177635e-05 C17.8031298,0.371840744 21.0633549,3.98121565 21.0000214,8.27002181 L21.0000214,8.27002181 L20.9999997,19.000083 C21.023813,20.0738777 21.4650081,21.0961613 22.2300031,21.8500832 L22.2300031,21.8500832 L22.4824898,22.1132823 C24.7185077,24.5105409 25.969497,27.6685828 25.9756723,30.9557734 C25.9890554,38.1354731 20.1796736,43.9666505 12.9999738,43.9800893 L12.9999738,43.9800893 L12.5140485,43.9593485 C12.1866415,43.9356448 11.8533087,43.9000891 11.5199739,43.9000891 C8.67066982,43.5617399 6.01335461,42.2902244 3.96223465,40.283749 C-1.17013886,35.2631025 -1.26067412,27.0324289 3.75997234,21.9000635 L3.75997234,21.9000635 L3.9217361,21.7318166 C4.60030153,20.9851387 4.98550565,20.0142332 4.99997392,19.0000612 L4.99997392,19.0000612 L4.99997392,8.00004888 L4.99997392,8.00004888 L5.00378077,7.75086869 C5.1354321,3.44787187 8.66508771,3.17177635e-05 12.999991,3.17177635e-05 L12.999991,3.17177635e-05 Z M13.2699909,3.99999717 L12.9999905,3.99999717 C10.7908485,3.99999717 8.99998659,5.79085942 8.99998626,7.99999717 L8.99998626,7.99999717 L8.99998626,19.0000149 C8.98166866,21.1389759 8.11906141,23.1840803 6.59998972,24.6900293 L6.59998972,24.6900293 L6.35707971,24.9471476 C5.0906141,26.3415771 4.29147745,28.1009654 4.07742043,29.9784573 C3.51435728,34.9170333 7.06143172,39.3769842 12.0000078,39.9400431 L12.0000078,39.9400431 L12.3325587,39.9721476 C12.5545927,39.98952 12.7772213,39.9988272 13.0000043,40.0000426 L13.0000043,40.0000426 L13.3210938,39.9936825 C15.5639507,39.9092357 17.6990088,38.9891067 19.3024468,37.407567 C22.8412523,33.9171254 22.8804356,28.2187578 19.3899639,24.6799506 L19.3899639,24.6799506 L19.1779191,24.4615821 C17.7943318,22.9820025 17.0143133,21.0330143 16.9999961,18.9999476 L16.9999961,18.9999476 L16.9999964,8.27000019 C17.0450836,6.09729571 15.4290442,4.24730238 13.2699909,3.99999717 L13.2699909,3.99999717 Z M12.9999827,10.0003575 C14.1045559,10.0003575 14.999987,10.8957929 14.999987,12.0003575 L14.999987,12.0003575 L14.9999613,26.4297704 C16.1556845,26.9341682 17.078143,27.8566267 17.5825408,29.0123499 C18.6871097,31.5432165 17.5308494,34.4903434 14.9999613,35.5949123 C12.4690947,36.6994811 9.52196779,35.5432208 8.41739893,33.0123327 C7.31283006,30.4814661 8.46909039,27.5343392 10.9999785,26.4297704 L10.9999785,26.4297704 L10.9999784,11.9997731 C11.000305,10.895432 11.8956416,10.0003575 12.9999827,10.0003575 Z M31.0000213,16.0000342 C32.1043624,16.0001932 32.9995672,16.8954009 32.9997291,17.999742 C32.9998923,19.1043152 32.1045901,19.9998766 31.0000213,20.0000342 L31.0000213,20.0000342 L25.0000299,20.0000342 C23.8956888,19.9998795 23.0004839,19.1046718 23.0003221,18.0003307 C23.0001588,16.8957576 23.895461,16.0001961 25.0000299,16.0000342 L25.0000299,16.0000342 Z M28.9999912,10.0000042 C30.1043323,10.0001632 30.9995371,10.8953709 30.9996989,11.999712 C30.9998622,13.1042852 30.10456,13.9998466 28.9999912,14.0000042 L28.9999912,14.0000042 L24.9999869,14.0000042 C23.8956458,13.9998495 23.000441,13.1046418 23.0002791,12.0003007 C23.0001159,10.8957275 23.8954181,10.0001661 24.9999869,10.0000042 L24.9999869,10.0000042 Z M34.0000169,4.00000856 C35.1043581,4.00016755 35.9995629,4.89537523 35.9997247,5.99971636 C35.999888,7.10428952 35.1045858,7.99985091 34.0000169,8.00000856 L34.0000169,8.00000856 L24.9999869,8.00000856 C23.8956458,7.99985384 23.000441,7.10464616 23.0002791,6.00030503 C23.0001158,4.89573187 23.8954181,4.00017044 24.9999869,4.00000856 L24.9999869,4.00000856 Z" id="形状结合"></path>
                    </g>
                </g>
            </g>
        </g>
    </g>
</svg>