<?xml version="1.0" encoding="UTF-8"?>
<svg width="34px" height="34px" viewBox="0 0 34 34" version="1.1" xmlns="http://www.w3.org/2000/svg" xmlns:xlink="http://www.w3.org/1999/xlink">
    <title>形状</title>
    <g id="页面-1" stroke="none" stroke-width="1" fill="none" fill-rule="evenodd">
        <g id="菜单页" transform="translate(-586.000000, -115.000000)" fill="#FFFFFF" fill-rule="nonzero" stroke="#FFFFFF" stroke-width="0.8">
            <g id="管理员" transform="translate(586.000000, 115.000000)">
                <path d="M26.3850896,9.86156219 C26.3850896,5.1459392 22.5556414,1.31649099 17.8400184,1.31649099 C13.1243954,1.31649099 9.29494724,5.1459392 9.29494724,9.86156219 C9.29494724,12.963112 10.9406633,15.6532236 13.4092373,17.1723494 C7.17451946,19.0712521 2.64879107,24.862895 2.64879107,31.6989457 C2.64879107,32.236968 3.06022008,32.648397 3.59824239,32.648397 C4.1362647,32.648397 4.54769371,32.236968 4.54769371,31.6989457 C4.54769371,24.3565094 10.4976006,18.4066334 17.8400061,18.4066334 C22.555629,18.4066334 26.3850896,14.5771852 26.3850896,9.86156219 L26.3850896,9.86156219 Z M17.8400184,16.5077184 C14.1688157,16.5077184 11.1938623,13.5327711 11.1938623,9.86156219 C11.1938623,6.19035948 14.1688095,3.21540602 17.8400184,3.21540602 C21.5112211,3.21540602 24.4861746,6.19035329 24.4861746,9.86156219 C24.4861746,13.5327649 21.5112273,16.5077184 17.8400184,16.5077184 Z M28.1890264,21.9195906 L30.3094697,21.9195906 C30.847492,21.9195906 31.258921,21.5081616 31.258921,20.9701393 C31.258921,20.432117 30.847492,20.0206879 30.3094697,20.0206879 L28.1890264,20.0206879 L28.1890264,18.0901362 L30.3094697,18.0901362 C30.847492,18.0901362 31.258921,17.6787072 31.258921,17.1406849 C31.258921,16.6026626 30.847492,16.1912336 30.3094697,16.1912336 L27.2395751,16.1912336 C26.7015528,16.1912336 26.2901238,16.6026626 26.2901238,17.1406849 C26.2901238,17.2039815 26.2901238,17.2672785 26.3217722,17.3305751 C26.3217722,17.3938718 26.2901238,17.4571688 26.2901238,17.5204654 L26.2901238,24.4198144 C26.2901238,24.5147595 26.3217722,24.6413531 26.3534204,24.7362992 C24.5811111,25.1477282 23.2202215,26.7301491 23.2202215,28.6606947 C23.2202215,30.8760821 25.0241799,32.6800375 27.2395643,32.6800375 C29.4549517,32.6800375 31.258921,30.876079 31.258921,28.6606947 C31.258921,26.761792 29.9296758,25.1477375 28.1257081,24.7362992 C28.1573566,24.641354 28.1890048,24.5464089 28.1890051,24.4198144 L28.1890051,21.9195912 L28.1890264,21.9195906 Z M29.3600153,28.629045 L29.3600153,28.6293011 C29.3600153,29.8003889 28.4106598,30.7497443 27.239572,30.7497443 C26.0684842,30.7497443 25.1191288,29.8003889 25.1191288,28.6293011 C25.1191288,28.6291303 25.1191288,28.6289596 25.1191288,28.6287888 L25.1191288,28.6290446 C25.1191288,27.4579568 26.0684842,26.5086014 27.2395721,26.5086014 C28.4104588,26.5086014 29.3597307,27.4576443 29.3600153,28.6285311 L29.3600153,28.629045 Z" id="形状"></path>
            </g>
        </g>
    </g>
</svg>