<?xml version="1.0" encoding="UTF-8"?>
<svg width="96px" height="96px" viewBox="0 0 96 96" version="1.1" xmlns="http://www.w3.org/2000/svg" xmlns:xlink="http://www.w3.org/1999/xlink">
    <title>现场取样</title>
    <defs>
        <linearGradient x1="12.2225356%" y1="17.2208647%" x2="84.5297622%" y2="82.9415693%" id="linearGradient-1">
            <stop stop-color="#B4A7FF" offset="0%"></stop>
            <stop stop-color="#001CFF" offset="100%"></stop>
        </linearGradient>
    </defs>
    <g id="页面-1" stroke="none" stroke-width="1" fill="none" fill-rule="evenodd">
        <g id="首页" transform="translate(-51.000000, -1074.000000)">
            <g id="编组-9" transform="translate(51.000000, 1074.000000)">
                <rect id="矩形" fill="url(#linearGradient-1)" x="0" y="0" width="96" height="96" rx="24"></rect>
                <g id="取样" transform="translate(26.000000, 25.000000)" fill="#FFFFFF" fill-rule="nonzero" stroke="#FFFFFF">
                    <path d="M30.2500352,16.5000192 L42.9000499,34.1000397 C43.4500506,35.200041 44.0000512,36.5750426 44.0000512,37.9500442 C44.0000512,41.250048 42.075049,44.0000512 36.8500429,44.0000512 L7.15000832,44.0000512 C1.65000192,44.0000512 -1.22124675e-15,41.250048 -1.22124675e-15,37.9500442 C-1.22124675e-15,36.5750426 0.27500032,35.200041 1.10000128,34.1000397 L6.875008,25.5750298 L13.750016,16.5000192 C14.0250163,14.0250163 13.750016,11.2750131 13.750016,8.2500096 L13.750016,5.5 C13.750016,4.67500544 14.0250163,3.30000384 13.750016,2.7500032 C12.925015,2.7500032 11.0000128,3.02500352 11.0000128,1.92500224 L11.0000128,1.65000192 C11.0000128,0.82500096 11.8250138,2.4424935e-15 12.6500147,2.4424935e-15 L31.3500365,2.4424935e-15 C32.1750374,2.4424935e-15 33.0000384,0.82500096 33.0000384,1.65000192 L33.0000384,1.92500224 C33.0000384,3.02500352 31.0750362,2.7500032 30.2500352,2.7500032 C29.9750349,3.30000384 30.2500352,4.67500544 30.2500352,5.5 L30.2500352,16.5000192 Z M28.325033,18.7000218 C27.2250317,17.0500198 27.500032,11.8250138 27.500032,8.2500032 L27.500032,2.7500032 L16.5000192,2.7500032 L16.5000192,8.2500032 C16.5000192,12.1000141 16.7750195,16.7750195 15.4000179,18.7000218 L3.85000448,36.3000422 C3.57500416,36.8500429 3.30000384,37.4000435 3.30000384,37.9500442 C3.57500416,38.5000448 2.7500032,41.250048 5.5000064,41.250048 L38.5000448,41.250048 C39.8750464,41.250048 40.425047,38.5000448 40.425047,37.9500442 C40.425047,37.4000435 40.1500467,36.8500429 39.8750464,36.3000422 L28.325033,18.7000218 Z" id="形状" stroke-width="2"></path>
                    <path d="M31.7597733,36 L13.0821896,36 L13.0821896,34.1666667 C13.0821896,33.9833333 12.897263,34.35 13.0821896,34.1666667 L18.6299867,25 L26.0270496,25 L31.5748468,34.1666667 C31.7597733,34.35 32.3145531,36 31.7597733,36 Z" id="路径" stroke-width="1.296"></path>
                </g>
            </g>
        </g>
    </g>
</svg>