<?xml version="1.0" encoding="UTF-8"?>
<svg width="96px" height="96px" viewBox="0 0 96 96" version="1.1" xmlns="http://www.w3.org/2000/svg" xmlns:xlink="http://www.w3.org/1999/xlink">
    <title>报告批准</title>
    <defs>
        <linearGradient x1="0%" y1="0%" x2="100%" y2="100%" id="linearGradient-1">
            <stop stop-color="#FFF6B7" offset="0%"></stop>
            <stop stop-color="#F6416C" offset="100%"></stop>
        </linearGradient>
    </defs>
    <g id="页面-1" stroke="none" stroke-width="1" fill="none" fill-rule="evenodd">
        <g id="首页" transform="translate(-603.000000, -1247.000000)">
            <g id="编组-16" transform="translate(603.000000, 1247.000000)">
                <rect id="矩形备份-7" fill="url(#linearGradient-1)" x="0" y="0" width="96" height="96" rx="24"></rect>
                <g id="批准" transform="translate(25.000000, 25.000000)" fill="#FFFFFF" fill-rule="nonzero" stroke="#FFFFFF" stroke-width="1.1">
                    <path d="M24.2000282,-5.14672434e-06 L24.2000273,-5.14672434e-06 C32.5614679,-0.00544467493 40.3325129,4.30888119 44.7493016,11.4085644 L45.2056451,12.1725953 L46.0872163,13.7144821 L24.068641,33.565406 L12.0135766,20.6806398 L15.2287252,17.6729213 L24.3313862,27.4013327 L40.4417042,12.8778654 L40.0579607,12.3385498 L40.0579611,12.3385503 C36.494748,7.57071935 30.9734974,4.66156401 25.0262932,4.41824029 L24.2000371,4.40095604 L24.2000373,4.40095604 C13.2653113,4.40067235 4.40072757,13.2647835 4.40044398,24.1995095 C4.40016029,35.1342355 13.2642715,43.9988193 24.1989975,43.9991029 C34.8514056,43.9993793 43.5946583,35.571254 43.9852619,24.9260303 L43.9990905,24.2000295 L48.4000405,24.2000295 L48.4000405,24.2000295 C48.4000405,37.5653458 37.5653287,48.4000576 24.2000124,48.4000576 C10.834696,48.4000576 -1.5788641e-05,37.5653458 -1.5788641e-05,24.2000295 C-1.5788641e-05,10.8347131 10.834696,-5.14672434e-06 24.2000124,-5.14672434e-06 L24.2000282,-5.14672434e-06 Z" id="路径"></path>
                </g>
            </g>
        </g>
    </g>
</svg>