<?xml version="1.0" encoding="UTF-8"?>
<svg width="96px" height="96px" viewBox="0 0 96 96" version="1.1" xmlns="http://www.w3.org/2000/svg" xmlns:xlink="http://www.w3.org/1999/xlink">
    <title>样品入库</title>
    <defs>
        <linearGradient x1="15.4422427%" y1="8.31163971%" x2="86.2293738%" y2="87.6759143%" id="linearGradient-1">
            <stop stop-color="#FFC755" offset="0%"></stop>
            <stop stop-color="#FF7D35" offset="100%"></stop>
        </linearGradient>
    </defs>
    <g id="页面-1" stroke="none" stroke-width="1" fill="none" fill-rule="evenodd">
        <g id="首页" transform="translate(-235.000000, -1074.000000)">
            <g id="编组-10" transform="translate(235.000000, 1074.000000)">
                <rect id="矩形备份" fill="url(#linearGradient-1)" x="0" y="0" width="96" height="96" rx="24"></rect>
                <g id="入库" transform="translate(26.000000, 23.000000)" fill="#FFFFFF" fill-rule="nonzero" stroke="#FFFFFF">
                    <path d="M16.0325187,36.6217926 L2.43925284,36.6217926 L2.43925273,36.6217926 C1.09360742,36.6217926 0.0027498967,35.5309351 0.0027498967,34.1852898 C0.0027498967,32.8396445 1.09360742,31.7487869 2.43925273,31.7487869 L16.0325185,31.7487869 L12.8892649,28.6055333 L12.8892649,28.6055333 C12.0166889,27.5811485 12.1397558,26.0433553 13.1641414,25.1707793 C14.0746589,24.3951967 15.413498,24.3951967 16.3240197,25.1707793 L23.388778,32.2382875 L23.3887781,32.2382876 C24.4641754,33.0421007 24.6843347,34.5654993 23.8805216,35.6408967 C23.7720507,35.7860165 23.6476969,35.918555 23.5097765,36.0360438 L16.3240181,43.2218021 L16.3240181,43.2218022 C15.3718466,44.170506 13.8308824,44.1676916 12.8821785,43.2155202 C12.6564187,42.988935 12.4775379,42.7200685 12.3557634,42.4243013 L12.3557635,42.4243014 C11.9769527,41.5109179 12.1877374,40.4591663 12.8892641,39.7622983 L16.0325177,36.6217946 L16.0325187,36.6217926 Z M41.4150482,43.9285511 L31.6717869,43.9285511 L31.6717867,43.9285511 C30.3261414,43.9285511 29.2352839,42.8376936 29.2352839,41.4920483 C29.235284,40.146403 30.3261414,39.0555454 31.6717867,39.0555454 L38.9785453,39.0555454 L38.9785453,16.0380187 L21.9285254,5.39275628 L4.87575557,16.0627687 L4.87575557,22.0000256 L4.87575557,22.0000256 C4.87575557,23.3456709 3.78489805,24.4365284 2.43925273,24.4365284 C1.09360742,24.4365284 0.00273544598,23.3456709 0.00273544598,22.0000256 L0.00273544598,14.6987671 L0.00273544598,14.6987526 C-0.000141854654,13.8569895 0.432631206,13.0736382 1.14676407,12.6280088 L20.6360367,0.445494588 L20.6360369,0.445494479 C21.4258292,-0.0487842213 22.4284976,-0.0487842213 23.2182899,0.445494697 L42.7048126,12.6280089 C43.4198134,13.0707594 43.8543139,13.8545103 43.8515769,14.6960113 L43.8515769,41.4920425 C43.8515769,42.839544 42.7598127,43.9285511 41.4150611,43.9285511 L41.4150482,43.9285511 Z" id="形状"></path>
                </g>
            </g>
        </g>
    </g>
</svg>