<?xml version="1.0" encoding="UTF-8"?>
<svg width="56px" height="56px" viewBox="0 0 56 56" version="1.1" xmlns="http://www.w3.org/2000/svg" xmlns:xlink="http://www.w3.org/1999/xlink">
    <title>待入库</title>
    <g id="页面-1" stroke="none" stroke-width="1" fill="none" fill-rule="evenodd">
        <g id="首页" transform="translate(-48.000000, -434.000000)" fill="#2862F2">
            <g id="编组-17" transform="translate(48.000000, 434.000000)">
                <g id="待入库" transform="translate(3.000000, 2.000000)">
                    <path d="M36.432014,25.6880346 C38.044082,25.6880346 39.467874,26.0537128 40.8805239,26.6146235 L41.2335564,26.7588196 C42.6719942,27.4883211 43.9943837,28.4269546 45.1576427,29.5441335 C46.2475466,30.6149188 47.3395826,31.9024114 47.9939514,33.4002327 C49.4667947,36.2966887 49.3155627,39.791259 48.1254159,42.9221249 L47.9939511,43.2561399 C47.3038198,44.7741662 46.3426634,46.1536213 45.1576425,47.3268259 C44.0677385,48.6121923 42.7568748,49.4683964 41.2314299,50.1100194 C39.7038588,50.7537628 38.1784197,51.1829309 36.432015,51.1829309 C34.8219171,51.1829309 33.2118143,50.8172527 31.7721619,50.256342 L31.4158975,50.1121452 C29.9767161,49.3828238 28.6535946,48.4441787 27.489685,47.3268313 C26.399781,46.0414649 25.3077451,44.7560985 24.6533763,43.2561452 C23.9990075,41.5416165 23.5634724,40.0416632 23.5634724,38.3271346 C23.5634724,36.7370412 23.9390124,35.1451196 24.5165833,33.8966786 L24.6533763,33.6148314 C25.3435076,32.0968051 26.304664,30.7173499 27.4896849,29.5441453 C28.5795888,28.2587789 29.8904526,27.4025748 31.4158975,26.7609518 C33.1601702,26.1172084 34.6877413,25.6880346 36.432014,25.6880346 Z M22.8411471,0.192756082 C24.0840236,0.192756082 25.2036716,0.528839026 26.1979763,1.20445328 L42.2555142,11.6403686 C43.0819743,12.3266076 43.7724599,13.1594406 44.2951068,14.0984981 C44.8368729,15.063053 45.1194406,16.1423374 45.1513109,17.3384716 L45.1513109,26.8225773 C38.8302963,21.5777745 29.4543608,22.4502042 24.2095928,28.7712066 C19.7945092,34.0922343 19.6289185,41.7541873 23.8099928,47.2609583 L6.62642245,47.2609583 C4.81203634,47.1993458 3.30571594,46.5407286 2.10745543,45.2851063 C0.907068683,44.0273577 0.280323531,42.4487976 0.220835462,40.5494319 L0.220835462,17.3384537 C0.220835462,16.1465661 0.514026826,15.0630351 1.09615825,14.0984802 C1.68041358,13.1339253 2.45588472,12.3138381 3.42256584,11.6403507 L19.4821953,1.20443521 C20.4715911,0.532405923 21.6430529,0.179480172 22.8390187,0.192756082 L22.8411471,0.192756082 Z M35.5148355,32.0613948 C34.9129669,32.0617397 34.309587,32.6226274 34.2054829,33.2323824 L34.1884863,33.4172201 L34.1884863,41.3291333 C34.1884863,41.5543381 34.4094421,42.0068732 34.6303979,42.2320797 C34.8152356,42.421167 35.0000738,42.6102536 35.3123844,42.6676172 L35.5163437,42.6846138 L43.2625153,42.6846138 C43.9253831,42.6846138 44.8113313,42.2320798 44.8113313,41.5543405 C44.8113313,40.9382149 44.2631911,40.3220893 43.6640597,40.2158589 L43.483471,40.1988623 L36.8420696,40.1988623 L36.8420696,33.4172224 C36.8420696,32.7793496 36.2530091,32.1414742 35.6310754,32.0686372 L35.5148355,32.0613948 Z M10.92,29.12 L6.76,29.12 C5.89843579,29.12 5.2,29.8184358 5.2,30.68 L5.2,30.68 L5.2,34.84 C5.2,35.7015642 5.89843579,36.4 6.76,36.4 L6.76,36.4 L10.92,36.4 C11.7815642,36.4 12.48,35.7015642 12.48,34.84 L12.48,34.84 L12.48,30.68 C12.48,29.8184358 11.7815642,29.12 10.92,29.12 L10.92,29.12 Z M10.92,18.72 L6.76,18.72 C5.89843579,18.72 5.2,19.4184358 5.2,20.28 L5.2,20.28 L5.2,24.44 C5.2,25.3015642 5.89843579,26 6.76,26 L6.76,26 L10.92,26 C11.7815642,26 12.48,25.3015642 12.48,24.44 L12.48,24.44 L12.48,20.28 C12.48,19.4184358 11.7815642,18.72 10.92,18.72 L10.92,18.72 Z M21.32,18.72 L17.16,18.72 C16.2984358,18.72 15.6,19.4184358 15.6,20.28 L15.6,20.28 L15.6,24.44 C15.6,25.3015642 16.2984358,26 17.16,26 L17.16,26 L21.32,26 C22.1815642,26 22.88,25.3015642 22.88,24.44 L22.88,24.44 L22.88,20.28 C22.88,19.4184358 22.1815642,18.72 21.32,18.72 L21.32,18.72 Z" id="形状结合"></path>
                </g>
            </g>
        </g>
    </g>
</svg>