<?xml version="1.0" encoding="UTF-8"?>
<svg width="56px" height="57px" viewBox="0 0 56 57" version="1.1" xmlns="http://www.w3.org/2000/svg" xmlns:xlink="http://www.w3.org/1999/xlink">
    <title>报告审核</title>
    <g id="页面-1" stroke="none" stroke-width="1" fill="none" fill-rule="evenodd">
        <g id="首页" transform="translate(-48.000000, -709.000000)">
            <g id="编组-19" transform="translate(48.000000, 709.000000)">
                <g id="编组-7" transform="translate(7.000000, 5.000000)">
                    <path d="M33,-2.13162821e-14 C35.4300529,-2.17626755e-14 37.4,1.9699471 37.4,4.4 L37.400673,22.7401297 C35.0682563,21.1377668 32.2436417,20.2 29.2,20.2 C28.4776101,20.2 27.7675585,20.2528264 27.0734975,20.3548269 C27.3389533,20.0633472 27.5,19.6754809 27.5,19.25 C27.5,18.3387302 26.7612698,17.6 25.85,17.6 L8.25,17.6 C7.33873016,17.6 6.6,18.3387302 6.6,19.25 C6.6,20.1133083 7.26301544,20.821761 8.10763168,20.8939435 L8.25,20.9 L24.7365991,20.8999465 C21.6994817,21.8815299 19.1006401,23.8378649 17.3088618,26.4001641 L8.25,26.4 C7.33873016,26.4 6.6,27.1387302 6.6,28.05 C6.6,28.9133083 7.26301544,29.621761 8.10763168,29.6939435 L8.25,29.7 L15.585118,29.7000665 C15.0125609,31.2586654 14.7,32.9428314 14.7,34.7 C14.7,39.384674 16.9216034,43.5504647 20.3687362,46.2012982 L4.4,46.2 C1.9699471,46.2 -5.65458232e-14,44.2300529 -5.68434189e-14,41.8 L-5.68434189e-14,4.4 C-5.71410145e-14,1.9699471 1.9699471,-2.26462454e-14 4.4,-2.13162821e-14 L33,-2.13162821e-14 Z M28.5504971,25 C33.8218786,25 38.1009941,29.2502019 38.1009941,34.4111844 C38.1009941,36.1112723 37.6668786,37.6899229 36.8606761,39.086428 L36.8606761,39.086428 L41.0213898,43.2207436 C41.5795367,43.7064825 41.5795367,44.5565265 41.0213898,45.1029841 L41.0213898,45.1029841 L40.401229,45.7101568 C39.8430821,46.2566144 39.0368723,46.2566144 38.4787253,45.7101568 L38.4787253,45.7101568 L34.504057,41.7579901 C32.8916155,43.0330543 30.845084,43.7616644 28.6125,43.7616644 C23.3411184,43.7616644 19,39.6328713 19,34.4111844 C19,29.1894975 23.2791155,25 28.5504971,25 Z M28.6125256,28.5215918 C25.3876681,28.5215918 22.7209686,31.1324424 22.7209686,34.3504657 C22.7209686,37.568489 25.3876827,40.1793396 28.6125256,40.1793396 C31.837383,40.1793396 34.5040826,37.6292077 34.5040826,34.3504657 C34.5040826,31.1324424 31.8373684,28.5215918 28.6125256,28.5215918 Z M18.15,8.8 L8.25,8.8 C7.33873016,8.8 6.6,9.53873016 6.6,10.45 C6.6,11.3133083 7.26301544,12.021761 8.10763168,12.0939435 L8.25,12.1 L18.15,12.1 C19.0612698,12.1 19.8,11.3612698 19.8,10.45 C19.8,9.53873016 19.0612698,8.8 18.15,8.8 Z" id="形状结合" fill="#2862F2"></path>
                    <g id="审核" transform="translate(19.000000, 25.000000)"></g>
                </g>
            </g>
        </g>
    </g>
</svg>