<?xml version="1.0" encoding="UTF-8"?>
<svg width="56px" height="56px" viewBox="0 0 56 56" version="1.1" xmlns="http://www.w3.org/2000/svg" xmlns:xlink="http://www.w3.org/1999/xlink">
    <title>不合格试验</title>
    <g id="页面-1" stroke="none" stroke-width="1" fill="none" fill-rule="evenodd">
        <g id="首页" transform="translate(-48.000000, -846.000000)">
            <g id="编组-22" transform="translate(48.000000, 846.000000)">
                <g id="编组-7备份" transform="translate(7.000000, 5.000000)">
                    <path d="M29.5878169,22.8906528 C36.0837533,22.8906528 41.3463516,28.1532937 41.3463516,34.6491876 C41.3463516,41.145124 36.0772871,46.4077223 29.5878169,46.4077223 C23.0918805,46.4077223 17.8292822,41.1450815 17.8292822,34.6491876 C17.8292822,28.1532512 23.0983467,22.8906528 29.5878169,22.8906528 Z M33,-2.13162821e-14 C35.4300529,-2.17626755e-14 37.4,1.9699471 37.4,4.4 L37.4006175,22.1114051 C35.2790581,20.8952644 32.8207229,20.2 30.2,20.2 C29.0265926,20.2 27.8857396,20.3393816 26.793094,20.6024917 C27.2208855,20.305086 27.5,19.8101383 27.5,19.25 C27.5,18.3387302 26.7612698,17.6 25.85,17.6 L8.25,17.6 C7.33873016,17.6 6.6,18.3387302 6.6,19.25 C6.6,20.1133083 7.26301544,20.821761 8.10763168,20.8939435 L8.25,20.9 L25.7365991,20.8999465 C22.6994817,21.8815299 20.1006401,23.8378649 18.3088618,26.4001641 L8.25,26.4 C7.33873016,26.4 6.6,27.1387302 6.6,28.05 C6.6,28.9133083 7.26301544,29.621761 8.10763168,29.6939435 L8.25,29.7 L16.585118,29.7000665 C16.0125609,31.2586654 15.7,32.9428314 15.7,34.7 C15.7,39.384674 17.9216034,43.5504647 21.3687362,46.2012982 L4.4,46.2 C1.9699471,46.2 1.4951157e-13,44.2300529 1.49213975e-13,41.8 L1.49213975e-13,4.4 C1.48916379e-13,1.9699471 1.9699471,-2.26462454e-14 4.4,-2.13162821e-14 L33,-2.13162821e-14 Z M26.6433628,29.1282803 C25.8878718,28.3727893 24.6610106,28.3727893 23.9055196,29.1282803 C23.1500287,29.8837713 23.1500287,31.1106325 23.9055196,31.8661234 L23.9055196,31.8661234 L26.6885626,34.6491663 L23.9055196,37.4322093 C23.1500287,38.1877002 23.1500287,39.4145614 23.9055196,40.1700524 C24.2800347,40.5510251 24.777239,40.7382832 25.2744412,40.7382832 C25.7716445,40.7382832 26.2623895,40.5510257 26.6433628,40.1700524 L26.6433628,40.1700524 L29.4264057,37.3870094 L32.2094486,40.1700524 C32.5839636,40.5510251 33.081168,40.7382832 33.5783702,40.7382832 C34.0755734,40.7382832 34.5663184,40.5510257 34.9472917,40.1700524 C35.7027827,39.4145614 35.7027827,38.1877002 34.9472917,37.4322093 L34.9472917,37.4322093 L32.1642488,34.6491663 L34.9472917,31.8661234 C35.7027827,31.1106325 35.7027827,29.8837713 34.9472917,29.1282803 C34.1918008,28.3727893 32.9649396,28.3727893 32.2094486,29.1282803 L32.2094486,29.1282803 L29.4264057,31.9113232 Z M18.15,8.8 L8.25,8.8 C7.33873016,8.8 6.6,9.53873016 6.6,10.45 C6.6,11.3133083 7.26301544,12.021761 8.10763168,12.0939435 L8.25,12.1 L18.15,12.1 C19.0612698,12.1 19.8,11.3612698 19.8,10.45 C19.8,9.53873016 19.0612698,8.8 18.15,8.8 Z" id="形状结合" fill="#FE8E59"></path>
                    <g id="不合格" transform="translate(17.000000, 22.000000)"></g>
                </g>
            </g>
        </g>
    </g>
</svg>