<?xml version="1.0" encoding="UTF-8"?>
<svg width="56px" height="56px" viewBox="0 0 56 56" version="1.1" xmlns="http://www.w3.org/2000/svg" xmlns:xlink="http://www.w3.org/1999/xlink">
    <title>设备校验到期</title>
    <g id="页面-1" stroke="none" stroke-width="1" fill="none" fill-rule="evenodd">
        <g id="首页" transform="translate(-400.000000, -846.000000)" fill="#0FAFF1">
            <g id="编组-23" transform="translate(400.000000, 846.000000)">
                <g id="设备" transform="translate(2.000000, 4.000000)">
                    <path d="M40.1045155,27 C41.4859401,27 42.7071463,27.3111828 43.9178241,27.7895107 L44.24786,27.9239995 C45.489116,28.5534993 46.6302318,29.3634628 47.6340306,30.3274964 C48.57453,31.2514961 49.5168691,32.3624964 50.0815367,33.654993 C51.3491196,36.1477843 51.2226615,39.1539719 50.2031119,41.850155 L50.0815365,42.1598309 C49.4860087,43.4697628 48.6566081,44.6601192 47.6340304,45.6724984 C46.6935311,46.7816639 45.5623612,47.5204977 44.246025,48.0741656 C42.9278541,48.6296632 41.611523,49 40.1045163,49 C38.72478,49 37.3450394,48.6888172 36.1093408,48.2104893 L35.7760108,48.0759999 C34.5341131,47.4466555 33.3923657,46.636682 32.3880054,45.672503 C31.447506,44.5633374 30.5051669,43.4541719 29.9404993,42.1598355 C29.3758318,40.6803382 29,39.3860017 29,37.9065044 C29,36.5425036 29.3202371,35.1769437 29.8136291,34.1025399 L29.9404993,33.8401741 C30.5360271,32.5302422 31.3654277,31.3398858 32.3880054,30.3275066 C33.3285047,29.218341 34.4596746,28.4795073 35.7760107,27.9258394 C37.2811777,27.3703417 38.5993486,27 40.1045155,27 Z M45.4382914,16.3704725 C45.9088318,17.2000706 46.1805641,18.1259028 46.2341145,19.0753015 L46.2438574,19.3925421 C46.2638917,19.537952 46.2759851,19.6843457 46.2800838,19.8310717 L46.2805066,26.6150277 C44.4187965,25.5858252 42.2778117,25 40,25 C32.8202983,25 27,30.8202983 27,38 C27,40.1753123 27.5342883,42.2258349 28.4787947,44.0274976 L3.38000998,44.0267068 C1.80033295,44.0267068 0.520006656,42.482305 0.520006656,40.5661028 L0.520006656,19.8310787 L0.527156657,19.7226369 L0.537166515,19.6213412 C0.488127624,18.4827415 0.76813301,17.3541126 1.34368745,16.3704725 L45.4382914,16.3704725 Z M39.313,32.499 C38.7937001,32.4999836 38.2730319,32.9839836 38.1831984,33.5101521 L38.1685317,33.6696518 L38.1685317,40.4969826 C38.1685317,40.6913158 38.3591988,41.0818164 38.5498658,41.2761511 C38.7093659,41.4393179 38.8688664,41.6024841 39.1383653,41.6519842 L39.3143657,41.6666509 L45.9986882,41.6666509 C46.5706898,41.6666509 47.3351918,41.2761512 47.3351918,40.6913179 C47.3351918,40.1596521 46.8621909,39.6279864 46.3451888,39.5363183 L46.1893553,39.5216516 L40.4583605,39.5216516 L40.4583605,33.6696538 C40.4583605,33.1238089 39.9584852,32.5779618 39.4267807,32.5076082 L39.313,32.499 Z M6.49815225,23.9971483 C5.70548884,23.9971483 5.06290818,24.639729 5.06290818,25.4323924 L5.06290818,34.9647667 C5.06290818,35.7574302 5.70548884,36.4000108 6.49815225,36.4000108 C7.29081567,36.4000108 7.93339633,35.7574302 7.93339633,34.9647667 L7.93339633,25.4323924 C7.93339633,24.639729 7.29081567,23.9971483 6.49815225,23.9971483 Z M13.1710344,23.9971483 C12.3781072,23.9971483 11.7353127,24.6399428 11.7353127,25.43287 L11.7353127,34.9642891 C11.7353127,35.7572163 12.3781072,36.4000108 13.1710344,36.4000108 C13.9639616,36.4000108 14.606756,35.7572163 14.606756,34.9642891 L14.606756,25.43287 C14.606756,24.6399428 13.9639616,23.9971483 13.1710344,23.9971483 Z M40.648758,7.79997754 L44.4020376,14.4828334 L2.38289105,14.4828334 L6.14471711,7.79997754 L40.648758,7.79997754 Z M34.5178494,0.17332082 C35.6716652,0.240962142 36.7183315,0.871960431 37.3168374,1.86072279 L39.5752849,5.88379228 L7.21529682,5.88379228 L9.48138567,1.86072278 C10.0801318,0.872200618 11.126664,0.241285001 12.2803737,0.17332082 L34.5178494,0.17332082 Z" id="形状结合"></path>
                </g>
            </g>
        </g>
    </g>
</svg>