<?xml version="1.0" encoding="UTF-8"?>
<svg width="56px" height="56px" viewBox="0 0 56 56" version="1.1" xmlns="http://www.w3.org/2000/svg" xmlns:xlink="http://www.w3.org/1999/xlink">
    <title>待检测</title>
    <g id="页面-1" stroke="none" stroke-width="1" fill="none" fill-rule="evenodd">
        <g id="首页" transform="translate(-400.000000, -434.000000)">
            <g id="编组-13" transform="translate(400.000000, 434.000000)">
                <g id="检测" transform="translate(2.000000, 5.000000)">
                    <path d="M40.0307827,21.7000333 C41.5700837,21.7000333 42.9308558,22.0467804 44.2798962,22.5797751 L44.6476504,22.7296343 C46.0307636,23.431078 47.302292,24.3336102 48.4208103,25.4078207 C49.4687948,26.4374219 50.5188294,27.6753956 51.1480301,29.1156083 C52.5642257,31.9006622 52.4188103,35.260826 51.2744383,38.271274 L51.1480299,38.5924422 C50.4844421,40.0520829 49.5602533,41.378482 48.4208101,42.5065634 C47.3728255,43.7424926 46.1123796,44.5657658 44.6456057,45.182711 C43.1767873,45.801695 41.7100189,46.2143566 40.0307836,46.2143566 C38.4933638,46.2143566 36.9559392,45.8676095 35.5790185,45.3346148 L35.2075938,45.184755 C33.8237655,44.4834844 32.5515333,43.5809411 31.4323894,42.5065685 C30.3844048,41.2706393 29.3343703,40.0347101 28.7051695,38.5924473 C28.0759688,36.9438621 27.657185,35.5015993 27.657185,33.853014 C27.657185,32.3240781 28.0182811,30.7933842 28.5736378,29.5929602 L28.7051695,29.3219533 C29.3687573,27.8623126 30.2929462,26.5359134 31.4323894,25.407832 C32.4803739,24.1719028 33.7408198,23.3486296 35.2075937,22.7316845 C36.884779,22.1127004 38.3535974,21.7000333 40.0307827,21.7000333 Z M26.6711024,38.2948957 C27.3432249,40.3823838 28.492125,42.2559327 29.9895342,43.7872739 L7.43094403,43.786237 C7.05524006,43.786237 6.74472439,43.5070289 6.69558084,43.1447995 L6.68880575,43.0440947 C6.68880575,42.9039902 6.72846475,42.7667473 6.80319644,42.648238 L9.12668928,38.9638611 C9.3894777,38.5471504 9.84768274,38.2944022 10.3403335,38.2944022 L26.6711024,38.2948957 Z M39.149185,27.8280333 C38.5701604,27.8285959 37.9899875,28.367911 37.8898874,28.9542139 L37.8735446,29.1319424 L37.8735446,36.7395513 C37.8735446,36.9560943 38.086002,37.3912242 38.2984595,37.607769 C38.476188,37.7895836 38.6539171,37.9713977 38.9542158,38.026555 L39.1503305,38.0428979 L46.5985724,38.0428979 C47.2359453,38.0428979 48.0878185,37.6077691 48.0878185,36.9560966 C48.0878185,36.3636682 47.5607607,35.7712397 46.9846728,35.6690951 L46.8110298,35.6527522 L40.4250669,35.6527522 L40.4250669,29.1319446 C40.4250669,28.5210012 39.863079,27.9100553 39.2676559,27.8360736 L39.149185,27.8280333 Z M42.0545669,-2.06057393e-12 C43.1475424,-2.06057393e-12 44.0336066,0.886064168 44.0336066,1.9790397 L44.0338234,20.5898705 C42.7564772,20.2061767 41.4023162,20 40,20 C32.2680135,20 26,26.2680135 26,34 C26,34.7199488 26.0543439,35.4272049 26.1591535,36.1178901 L1.9790397,36.1174478 C0.886064168,36.1174478 1.27897692e-13,35.2313836 1.27897692e-13,34.1384081 L1.27897692e-13,1.9790397 C1.27897692e-13,0.886064168 0.886064168,-2.06057393e-12 1.9790397,-2.06057393e-12 L42.0545669,-2.06057393e-12 Z M17.6159146,9.3573451 L12.1074348,18.1160194 L7.80196099,18.1160194 C6.84167019,18.1160194 6.06077584,18.8969137 6.06077584,19.8572045 C6.06077584,20.8174953 6.83639534,21.5983897 7.79668099,21.5983897 L12.4820471,21.5983897 C13.4001236,21.5983897 14.3604144,21.0707603 14.8511095,20.2898659 L18.9560823,13.7683365 L23.4726067,26.7111062 C24.1426983,28.6105781 26.5961841,28.5208799 27.1818523,26.6372377 L28.9705214,20.8807935 L31.0230052,20.8807935 C31.983296,20.8807935 32.7641904,20.0998992 32.7641904,19.1396084 C32.7641904,18.1793175 31.983296,17.3984232 31.0282852,17.3984232 L28.2634956,17.3984232 L28.2635162,17.3931669 C27.1818729,17.3931669 26.1688181,18.137127 25.8469646,19.1712863 L25.2401868,21.134077 L21.2301871,9.75834506 C20.6392389,8.07520388 18.5550957,7.86414801 17.6159146,9.3573451 Z" id="形状结合" fill="#597EFF"></path>
                    <g transform="translate(6.000000, 8.000000)"></g>
                </g>
            </g>
        </g>
    </g>
</svg>