<?xml version="1.0" encoding="UTF-8"?>
<svg width="56px" height="56px" viewBox="0 0 56 56" version="1.1" xmlns="http://www.w3.org/2000/svg" xmlns:xlink="http://www.w3.org/1999/xlink">
    <title>标养到期</title>
    <g id="页面-1" stroke="none" stroke-width="1" fill="none" fill-rule="evenodd">
        <g id="首页" transform="translate(-400.000000, -564.000000)" fill="#F9A91D">
            <g id="编组-18" transform="translate(400.000000, 564.000000)">
                <g id="编组-8" transform="translate(7.000000, 0.000000)">
                    <path d="M32.3940639,35.8282813 C33.6270711,35.8282813 34.7182551,36.1037358 35.7990246,36.5281984 L36.123074,36.6598808 C37.2402044,37.2264307 38.2672086,37.9553978 39.1706276,38.8230281 C40.017077,39.6546278 40.8651822,40.6545281 41.373383,41.817775 C42.5106974,44.0543841 42.4010839,46.7502108 41.491248,49.1710138 L41.3733828,49.4721291 C40.8374078,50.6510678 40.0909473,51.7223886 39.1706274,52.6335298 C38.324178,53.6317788 37.3061251,54.2967292 36.1214225,54.7950303 C34.9350687,55.2949782 33.7503707,55.6282813 32.3940647,55.6282813 C31.1625645,55.6282813 29.9310606,55.3528268 28.8260066,54.9283642 L28.4984097,54.7966812 C27.3807018,54.2302713 26.3531291,53.5012951 25.4492048,52.633534 C24.6027554,51.635285 23.7546502,50.637036 23.2464494,49.4721332 C22.7382486,48.1405856 22.4,46.9756829 22.4,45.6441353 C22.4,44.4250596 22.6842243,43.2046001 23.1230377,42.2407501 L23.2464494,41.984438 C23.7824244,40.8054992 24.5288849,39.7341785 25.4492048,38.8230372 C26.2956542,37.8247882 27.3137071,37.1598378 28.4984097,36.6615367 C29.8530599,36.1615889 31.0394137,35.8282813 32.3940639,35.8282813 Z M32.4,11.6282813 C34.3882251,11.6282813 36,13.2400562 36,15.2282813 L36.0009859,34.5408581 C34.9960749,34.2717601 33.9397931,34.1282813 32.85,34.1282813 C26.1397403,34.1282813 20.7,39.5680216 20.7,46.2782813 C20.7,48.776104 21.453742,51.0978808 22.7461848,53.0285704 L3.6,53.0282813 C1.6117749,53.0282813 6.82364514e-13,51.4165064 6.82121026e-13,49.4282813 L6.82121026e-13,15.2282813 C6.81877539e-13,13.2400562 1.6117749,11.6282813 3.6,11.6282813 L32.4,11.6282813 Z M31.682,40.7772813 C31.2143301,40.7782666 30.7457287,41.2138665 30.6648786,41.6874182 L30.6516786,41.8309679 L30.6516786,47.9755656 C30.6516786,48.1504655 30.8232789,48.5019161 30.9948792,48.6768173 C31.1384293,48.8236674 31.2819798,48.970517 31.5245288,49.0150671 L31.6829292,49.0282671 L37.6988194,49.0282671 C38.2136209,49.0282671 38.9016726,48.6768174 38.9016726,48.1504674 C38.9016726,47.6719682 38.4759719,47.193469 38.0106699,47.1109678 L37.8704197,47.0977678 L32.7125244,47.0977678 L32.7125244,41.8309697 C32.7125244,41.3397093 32.2626367,40.8484469 31.7841027,40.7851286 L31.682,40.7772813 Z M12.4006214,19.4077295 C11.4784245,19.4077295 10.7164571,20.2086011 10.6459799,21.21776 L10.6406609,21.370622 L10.6406609,22.7378579 C10.6376647,23.7715004 9.83837772,24.6176085 8.82391085,24.6950942 L8.67758595,24.7008721 L7.31022837,24.7008721 C6.23041853,24.7008721 5.34733592,25.4922825 5.34733592,26.46065 C5.34733592,27.3829049 6.14859376,28.144875 7.15742163,28.2153523 L7.31022837,28.2206713 L8.67770768,28.2206713 C9.71124565,28.2237372 10.5572689,29.0228999 10.6348605,30.0372601 L10.6406549,30.1835699 L10.6406549,31.5448394 C10.6406549,32.624345 11.4321261,33.5077926 12.4004937,33.5077926 C13.3227485,33.5077926 14.0847739,32.7065348 14.1552564,31.6977069 L14.1605758,31.5449002 L14.1605758,30.1774817 C14.1635081,29.1438915 14.9627368,28.2977916 15.9771509,28.2203063 L16.1234683,28.2145284 L17.4911725,28.2145281 C18.5770655,28.2145281 19.4604522,27.4228744 19.4542198,26.4607724 C19.4542198,25.5385755 18.6529319,24.7765529 17.6441011,24.7060705 L17.4912942,24.7007511 L16.1235716,24.7007511 C15.0900452,24.6976794 14.2440437,23.8984943 14.166492,22.8841427 L14.1607034,22.7378343 L14.1607035,21.370622 C14.1607035,20.2906905 13.3689281,19.4077295 12.4006214,19.4077295 Z M10.6953354,-5.68434189e-14 C11.2693929,-5.68434189e-14 11.8151004,0.433038359 11.9594967,0.985651546 L11.9841603,1.10578465 L13.1422596,8.70210788 C13.2335546,9.27014711 12.8638854,9.74137269 12.3142215,9.80167815 L12.1937837,9.80819669 L2.8370742,9.80819669 C2.26295999,9.80819669 1.85433511,9.37484038 1.87698578,8.82223426 L1.88853751,8.70210788 L3.04663675,1.10578465 C3.13191361,0.537688647 3.64492977,0.0667772212 4.21302072,0.00651390217 L4.33546167,-5.68434189e-14 L10.6953354,-5.68434189e-14 Z" id="形状结合"></path>
                </g>
            </g>
        </g>
    </g>
</svg>