<?xml version="1.0" encoding="UTF-8"?>
<svg width="56px" height="56px" viewBox="0 0 56 56" version="1.1" xmlns="http://www.w3.org/2000/svg" xmlns:xlink="http://www.w3.org/1999/xlink">
    <title>留样</title>
    <g id="页面-1" stroke="none" stroke-width="1" fill="none" fill-rule="evenodd">
        <g id="首页" transform="translate(-48.000000, -564.000000)" fill="#14C288">
            <g id="编组-16" transform="translate(48.000000, 564.000000)">
                <g id="样品管理" transform="translate(2.000000, 2.000000)">
                    <path d="M40.814967,28.6 C42.3345341,28.6 43.6778609,28.9423011 45.0096065,29.4684618 L45.372646,29.6163994 C46.7380276,30.3088492 47.993255,31.1998091 49.0974337,32.2602461 C50.131983,33.2766457 51.168556,34.498746 51.7896904,35.9204924 C53.1877301,38.6698361 53.044179,41.9869158 51.914478,44.9587638 L51.7896901,45.2758139 C51.1346096,46.7167391 50.2222689,48.0261311 49.0974335,49.1397482 C48.0628842,50.3598303 46.8185973,51.1725475 45.3706275,51.7815821 C43.9206395,52.3926295 42.4726753,52.8 40.8149679,52.8 C39.297258,52.8 37.7795434,52.4576989 36.4202749,51.9315382 L36.0536118,51.7835999 C34.6875244,51.0913211 33.4316023,50.2003502 32.3268059,49.1397533 C31.2922566,47.9196712 30.2556836,46.6995891 29.6345493,45.275819 C29.013415,43.648372 28.6,42.2246019 28.6,40.5971549 C28.6,39.087823 28.9564668,37.5767557 29.5047038,36.3917236 L29.6345493,36.1241915 C30.2896298,34.6832664 31.2019705,33.3738743 32.3268059,32.2602572 C33.3613552,31.0401751 34.6056421,30.227458 36.0536118,29.6184233 C37.7092954,29.0073759 39.1592834,28.6 40.814967,28.6 Z M41.4739991,0.603569165 C42.6462447,1.05997981 43.469041,2.12429043 43.9394857,3.7931187 L48.4000563,16.2671928 L48.4002675,28.6481706 C46.1775508,27.2250584 43.5351268,26.4 40.7,26.4 C38.1796567,26.4 35.8116002,27.0520173 33.755307,28.1965756 L30.965199,28.1964165 L30.965199,26.2265365 L34.532279,26.2265365 C36.289199,26.2265365 36.289199,26.2265365 36.289199,24.4696165 C36.289199,22.8005425 36.289199,22.8005425 34.7035787,22.7170888 L34.532279,22.7126965 L33.893399,22.7126965 C34.026499,22.4464965 34.026499,22.4464965 34.266079,21.8874765 C34.558899,21.2485965 34.558899,21.2485965 34.718619,20.9291565 C35.570459,18.8794165 35.570459,18.8794165 33.600579,18.2671565 C31.630699,17.6815165 31.630699,17.6815165 31.098299,19.7046365 C30.714971,20.9611005 30.714971,20.9611005 30.2294222,22.1323805 L29.980259,22.7126965 L25.934019,22.7126965 L25.987259,22.6860765 C26.892339,22.3666365 26.892339,22.3666365 27.105299,21.5946565 C27.291639,20.8759165 27.291639,20.8759165 26.839099,19.9442165 C26.386559,19.0125165 26.386559,19.0125165 25.641199,18.6132165 C24.9549945,18.2582832 24.9549945,18.2582832 24.1636246,18.4712432 L23.964139,18.5333565 L23.884279,18.5599765 C23.218779,18.7729365 23.218779,18.7729365 23.005819,19.3053365 C22.792859,19.8377365 22.792859,19.8377365 23.112299,20.4766165 C23.559515,21.4136405 23.559515,21.4136405 23.8704366,22.2825173 L24.017379,22.7126965 L23.458359,22.7126965 C21.701439,22.7126965 21.701439,22.7126965 21.701439,24.4696165 C21.701439,26.1386905 21.701439,26.1386905 23.2870593,26.2221442 L23.458359,26.2265365 L27.105299,26.2265365 L27.105299,28.1964165 L24.230339,28.1964165 C22.500039,28.1964165 22.500039,28.1964165 22.500039,29.9267165 C22.500039,31.5957905 22.500039,31.5957905 24.0616347,31.6792442 L24.230339,31.6836365 L27.105299,31.6836365 L27.105299,33.6801365 L22.899339,33.6801365 C21.115799,33.6801365 21.115799,33.6801365 21.115799,35.4636765 C21.115799,37.1580395 21.115799,37.1580395 22.7254438,37.2427577 L22.899339,37.2472165 L26.8197455,37.2467671 C26.5455201,38.3526468 26.4,39.5093294 26.4,40.7 C26.4,43.5351268 27.2250584,46.1775508 28.6481706,48.4002675 L4.13112458,48.4000816 C3.08438135,48.4108637 2.0789106,48.0079916 1.33069341,47.2844458 L1.17437771,47.1245262 C0.437907522,46.3434089 0.0192328549,45.3157065 0.000198965588,44.242317 L0.000198965588,16.2672263 L4.46072725,2.42485761 C4.76093805,1.97354032 5.1240538,1.56740146 5.53907483,1.21873199 C6.26023094,0.508867649 7.38649647,0.106825774 8.91786669,0.0126063679 L39.4789573,0.0126063679 C39.6367406,-0.0498292321 40.3017536,0.147158052 41.4739991,0.603569165 Z M39.944,34.649 C39.3730701,34.649982 38.8003351,35.182382 38.7015182,35.7611673 L38.6853849,35.936617 L38.6853849,43.4466809 C38.6853849,43.6604474 38.8951187,44.0899981 39.1048524,44.3037662 C39.2803024,44.4832497 39.455753,44.6627325 39.7522019,44.7171826 L39.9458023,44.7333159 L47.298557,44.7333159 C47.9277588,44.7333159 48.7687109,44.3037663 48.7687109,43.6604497 C48.7687109,43.0756173 48.24841,42.490785 47.6797076,42.3899501 L47.5082908,42.3738168 L41.2041965,42.3738168 L41.2041965,35.9366192 C41.2041965,35.3335093 40.6494133,34.730397 40.0616236,34.6573638 L39.944,34.649 Z M16.750119,17.8412365 C15.005178,17.8412365 15.005178,17.8412365 14.9179309,19.4749059 L14.913339,19.6513965 L14.913339,22.7126965 L13.901779,22.7126965 C12.118239,22.7126965 12.118239,22.7126965 12.118239,24.4962365 C12.118239,26.1905995 12.118239,26.1905995 13.7278838,26.2753177 L13.901779,26.2797765 L14.913339,26.2797765 L14.913339,27.2380965 C13.928399,30.9116565 13.928399,30.9116565 12.384439,33.5470365 C11.931899,34.2125365 11.931899,34.2125365 11.891969,34.7715565 C11.852039,35.3305765 11.852039,35.3305765 12.198099,36.0759365 C12.836979,37.4601765 12.836979,37.4601765 13.449239,37.4069365 C14.008259,37.3536965 14.008259,37.3536965 14.753619,35.9428365 L14.833479,35.7365315 L14.913339,35.5435365 L14.913339,41.3200765 C14.913339,43.1302365 14.913339,43.1302365 16.750119,43.1302365 C18.469771,43.1302365 18.469771,43.1302365 18.5557536,41.4965671 L18.560279,41.3200765 L18.560279,32.0296965 C18.719999,32.4023765 18.719999,32.4023765 18.826479,32.5620965 C19.279019,33.6268965 19.279019,33.6268965 19.824729,33.7333765 C20.370439,33.8398565 20.370439,33.8398565 21.115799,32.9613965 C21.594959,32.4023765 21.594959,32.4023765 21.674819,32.0829365 C21.754679,31.6570165 21.754679,31.6570165 21.408619,31.1246165 C19.7439816,28.6897739 19.7439816,28.6897739 18.7054467,27.3448132 L18.560279,27.1582365 L18.560279,26.2797765 L19.119299,26.2797765 C20.902839,26.2797765 20.902839,26.2797765 20.902839,24.4962365 C20.902839,22.8018735 20.902839,22.8018735 19.2931941,22.7171554 L19.119299,22.7126965 L18.560279,22.7126965 L18.560279,19.6513965 C18.560279,17.8412365 18.560279,17.8412365 16.750119,17.8412365 Z M39.8085878,4.50362051 L8.26205504,4.50362051 L5.81979955,12.8182208 L42.5794769,12.8182208 L39.8085878,4.50362051 Z" id="形状结合"></path>
                </g>
            </g>
        </g>
    </g>
</svg>