<?xml version="1.0" encoding="UTF-8"?>
<svg width="56px" height="56px" viewBox="0 0 56 56" version="1.1" xmlns="http://www.w3.org/2000/svg" xmlns:xlink="http://www.w3.org/1999/xlink">
    <title>报告批准</title>
    <g id="页面-1" stroke="none" stroke-width="1" fill="none" fill-rule="evenodd">
        <g id="首页" transform="translate(-400.000000, -709.000000)" fill="#00B9B2">
            <g id="编组-20" transform="translate(400.000000, 709.000000)">
                <g id="报告审核" transform="translate(4.000000, 5.000000)">
                    <path d="M36.9453606,1.96533532 C36.3000281,1.32000282 35.4126905,0.916665862 34.5253578,0.916665862 L3.46863919,0.916665862 C2.5813064,0.916665862 1.69396889,1.23933306 1.04863638,1.96533532 C0.322635532,2.61066783 -3.3085976e-05,3.49800535 -3.3085976e-05,4.38533814 L-3.3085976e-05,41.8146993 C-3.3085976e-05,42.7020321 0.322634114,43.5893696 0.96796804,44.2347021 C1.61330055,44.8800346 2.50063807,45.2833716 3.38797086,45.2833716 L24.2806776,45.2833716 C23.7160087,44.3960388 23.4740084,43.3473693 23.3933448,42.2986998 L23.3933448,40.4433659 C23.3933448,38.9913642 23.9580137,37.5393625 25.0066784,36.4906931 C26.0553479,35.4420236 27.5073496,34.8773594 28.9593513,34.8773594 L29.4433518,34.8773594 L31.6213544,32.2960247 C29.7660205,30.4406908 29.0400196,27.6980193 29.6046838,25.1166987 C30.2500163,22.535364 32.1053549,20.4380251 34.6060072,19.6313748 C35.4126764,19.3893745 36.2193408,19.2280411 37.1066783,19.2280411 L37.7520108,19.2280411 L37.7520108,4.38534145 C37.9133442,3.49800866 37.5906775,2.61067114 36.9453417,1.96533863 L36.9453606,1.96533532 Z M6.93732565,10.8386632 C7.25999285,10.2739943 7.82465844,9.95133044 8.46999568,9.95133044 L17.2626883,9.95133044 C18.2306895,9.95133044 19.0373586,10.7579996 19.0373586,11.7260007 C19.0373586,12.6940019 18.2306895,13.5006711 17.2626883,13.5006711 L8.46999568,13.5006711 C7.82466317,13.5006711 7.25999427,13.1780039 6.93732565,12.6133383 C6.61465845,11.9680058 6.61465845,11.3226685 6.93732565,10.838668 L6.93732565,10.8386632 Z M22.5866614,33.9093772 L8.46996259,33.9093772 C7.82463008,33.9093772 7.25996118,33.5867053 6.93729256,33.0220397 C6.61462536,32.4573708 6.61462536,31.8120383 6.93729256,31.2473694 C7.25995976,30.6827005 7.82462536,30.3600366 8.46996259,30.3600366 L22.5866614,30.3600366 C23.5546626,30.3600366 24.3613317,31.1667058 24.3613317,32.1347069 C24.3613317,33.102708 23.5546626,33.8287089 22.5866614,33.9093772 L22.5866614,33.9093772 Z M25.2486645,23.6646829 L8.46996259,23.6646829 C7.82463008,23.6646829 7.25996118,23.342011 6.93729256,22.7773454 C6.61462536,22.2126765 6.61462536,21.567344 6.93729256,21.0026751 C7.25995976,20.4380062 7.82462536,20.1153423 8.46996259,20.1153423 L25.2486645,20.1153423 C26.2166657,20.1153423 27.0233348,20.9220114 27.0233348,21.8900126 C26.9426679,22.8580137 26.1360021,23.6646829 25.2486645,23.6646829 L25.2486645,23.6646829 Z M45.4153704,37.5393767 L43.6407001,37.5393767 L38.881377,31.73137 C41.2207115,30.9247008 42.6727132,28.5853663 42.2693809,26.084681 C41.8660473,23.6646782 39.7687098,21.8093442 37.2680575,21.8093442 C36.7033886,21.8093442 36.1387245,21.8900112 35.6547239,22.0513445 C33.5573897,22.7773454 32.1860516,24.7133476 32.1860516,26.8913501 C32.1860516,29.0693527 33.557385,31.0053549 35.6547239,31.7313558 L30.8954008,37.5393625 L29.1207305,37.5393625 C27.5073969,37.5393625 26.1360588,38.9106959 26.1360588,40.5240343 L26.1360588,42.2987046 C26.1360588,43.9120382 27.4267285,45.2833763 29.1207305,45.2833763 L45.4154319,45.2833763 C47.0287655,45.2833763 48.4001036,43.9120429 48.4001036,42.2987046 L48.4001036,40.5240343 C48.4001036,38.8300323 47.1094338,37.5393625 45.4154319,37.5393625 L45.4153704,37.5393767 Z" id="形状"></path>
                </g>
            </g>
        </g>
    </g>
</svg>