<svg xmlns="http://www.w3.org/2000/svg" xmlns:xlink="http://www.w3.org/1999/xlink" fill="none" version="1.1" width="113" height="128.6162109375" viewBox="0 0 113 128.6162109375"><defs><linearGradient x1="0.5" y1="0" x2="0.5" y2="1" id="master_svg0_3301_048834"><stop offset="0%" stop-color="#4DFF7C" stop-opacity="1"/><stop offset="100%" stop-color="#00CBA9" stop-opacity="1"/></linearGradient><filter id="master_svg1_3301_047961" filterUnits="objectBoundingBox" color-interpolation-filters="sRGB" x="-0.36" y="-0.28313432497290947" width="1.64" height="1.6471641713666503"><feFlood flood-opacity="0" result="BackgroundImageFix"/><feColorMatrix in="SourceAlpha" type="matrix" values="0 0 0 0 0 0 0 0 0 0 0 0 0 0 0 0 0 0 127 0"/><feOffset dy="1" dx="-1"/><feGaussianBlur stdDeviation="2"/><feColorMatrix type="matrix" values="0 0 0 0 0 0 0 0 0 0.5843137502670288 0 0 0 0 0.3294117748737335 0 0 0 1 0"/><feBlend mode="normal" in2="BackgroundImageFix" result="effect1_dropShadow"/><feBlend mode="normal" in="SourceGraphic" in2="effect1_dropShadow" result="shape"/></filter><filter id="master_svg2_3301_047962" filterUnits="objectBoundingBox" color-interpolation-filters="sRGB" x="-0.11728396074368487" y="-0.0790978504897224" width="1.2345679214873697" height="1.2372935514691672"><feFlood flood-opacity="0" result="BackgroundImageFix"/><feColorMatrix in="SourceAlpha" type="matrix" values="0 0 0 0 0 0 0 0 0 0 0 0 0 0 0 0 0 0 127 0"/><feOffset dy="2" dx="0"/><feGaussianBlur stdDeviation="1.5"/><feColorMatrix type="matrix" values="0 0 0 0 0 0 0 0 0 0.625 0 0 0 0 0.3546350300312042 0 0 0 1 0"/><feBlend mode="normal" in2="BackgroundImageFix" result="effect1_dropShadow"/><feBlend mode="normal" in="SourceGraphic" in2="effect1_dropShadow" result="shape"/></filter></defs><path d="M107.99998,29.718414L107.99998,120.40092C107.99998,124.94351,104.28937,128.61624,99.699959,128.61624L8.1066694,128.61624C3.517241,128.51961,-0.095714025,124.7502,0.0019333999,120.20763L0.0019333999,13.3119602C0.0019333999,8.7693777,3.7125359,5,8.3019648,5L83,5L107.99998,29.718414Z" fill="url(#master_svg0_3301_048834)" fill-opacity="1" style="mix-blend-mode:passthrough"/><path d="M107.99990844726562,29.723248L90.99990844726562,29.723248C86.24338844726563,29.723248,82.99990844726562,26.45854,82.99990844726562,21.811808L82.99990844726562,5L107.99990844726562,29.723248Z" fill="#C5FFE6" fill-opacity="1" style="mix-blend-mode:passthrough" filter="url(#master_svg1_3301_047961)"/><path d="M47.82239111804199,68.8026982373047L29.69326831804199,44.33244323730469L42.219733118041994,44.33244323730469L54.085623118041994,61.83481823730469L66.48976311804199,44.33244323730469L78.62477711804199,44.33244323730469L60.10420011804199,68.7790812373047L79.578939118042,94.76100523730469L66.93014711804199,94.76100523730469L53.865435118041994,76.24297723730469L40.80072111804199,94.90271723730469L28.421049118041992,94.90271723730469L47.82239111804199,68.8026982373047Z" fill="#FFFFFF" fill-opacity="1" style="mix-blend-mode:passthrough" filter="url(#master_svg2_3301_047962)"/></svg>