<svg xmlns="http://www.w3.org/2000/svg" xmlns:xlink="http://www.w3.org/1999/xlink" fill="none" version="1.1" width="16" height="16" viewBox="0 0 16 16"><defs><clipPath id="master_svg0_3210_028223"><rect x="0" y="0" width="16" height="16" rx="0"/></clipPath></defs><g clip-path="url(#master_svg0_3210_028223)"><g><path d="M2.5,4.5L2.49999994,13Q2.49999994,13.5,3.0000005,13.5L13,13.5Q13.5,13.5,13.5,13L13.5,5Q13.5,4.5,13,4.5L2.5,4.5ZM6.8580074,3.5L2.5,3.5L2.5,3.0000001000000003Q2.5,2.49999994,3.0000001000000003,2.49999994L5.716014899999999,2.5Q5.9349302999999995,2.5,6.0834169,2.66086006L6.8580074,3.5ZM8.218915899999999,3.5L6.8182206,1.982579812Q6.3727622,1.5,5.716014899999999,1.5L3.0000001000000003,1.4999998799999998Q2.37867981,1.4999998799999998,1.939339854,1.939339809Q1.5,2.3786796900000002,1.5,3.0000001000000003L1.5,4L1.4999998799999998,13Q1.4999998799999998,13.621321,1.939339966,14.060661Q2.37867898,14.5,3.0000005,14.5L13,14.5Q13.621323,14.5,14.060661,14.060661Q14.5,13.621323,14.5,13L14.5,5Q14.5,4.378678799999999,14.060661,3.9393399000000002Q13.621322,3.5,13,3.5L8.218915899999999,3.5ZM5,10.5L5,11.5L11,11.5L11,10.5L5,10.5Z" fill-rule="evenodd" fill="#0066EC" fill-opacity="1"/></g></g></svg>