<svg xmlns="http://www.w3.org/2000/svg" xmlns:xlink="http://www.w3.org/1999/xlink" fill="none" version="1.1" width="16" height="16" viewBox="0 0 16 16"><defs><clipPath id="master_svg0_3210_028209"><rect x="0" y="0" width="16" height="16" rx="0"/></clipPath></defs><g clip-path="url(#master_svg0_3210_028209)"><g><path d="M2,14C2,14.552285,2.44771528,15,3.0000001999999997,15L13,15C13.552285,15,14,14.552285,14,14L14,5L10,1L3.0000001000000003,1C2.44771528,1,2,1.44771528,2,2.0000001999999997L2,14ZM11.2928934,3.7071066L12.085787,4.500000200000001L11,4.500000200000001Q10.5,4.500000200000001,10.5,4L10.5,2.9142133L11.2928934,3.7071066ZM3.0000001000000003,2L9.5,2L9.5,4Q9.5,4.6213204999999995,9.9393396,5.0606604Q10.3786793,5.5,11,5.5L13,5.5L13,14L3,14L3.0000001000000003,2ZM5,9.5L8,9.5L8,8.5L5,8.5L5,9.5Z" fill-rule="evenodd" fill="#0066EC" fill-opacity="1"/></g><g><path d="M11,11.5L5,11.5L5,10.5L11,10.5L11,11.5Z" fill-rule="evenodd" fill="#0066EC" fill-opacity="1"/></g></g></svg>