<svg xmlns="http://www.w3.org/2000/svg" xmlns:xlink="http://www.w3.org/1999/xlink" fill="none" version="1.1" width="16" height="16" viewBox="0 0 16 16"><defs><clipPath id="master_svg0_3210_028235"><rect x="0" y="0" width="16" height="16" rx="0"/></clipPath></defs><g clip-path="url(#master_svg0_3210_028235)"><g><path d="M13.633333,6.5000005L13.698389,6.5000005Q14.437548,6.5000005,14.887872,7.0861459Q15.338196,7.6722922,15.147741,8.3864942L13.814409,13.386495Q13.517475,14.5,12.365055,14.5L0.5,14.5L0.49999987999999995,3.0000001000000003Q0.49999987999999995,2.37867981,0.939339809,1.939339854Q1.37867969,1.5,2.0000001000000003,1.5L4.7654476,1.5Q5.4172759,1.49999994,5.8620305,1.976522692L7.1356916,3.3411593Q7.2839432,3.5,7.5012197,3.5L12.133335,3.5Q12.754655,3.5,13.193995,3.9393399000000002Q13.633333,4.3786793,13.633333,5L13.633333,6.5000005ZM12.633333,6.5000005L12.633333,5Q12.633333,4.5,12.133335,4.5L7.5012197,4.5Q6.8493905,4.5,6.4046364,4.0234773L5.1309757,2.65884089Q4.9827242,2.5,4.7654476,2.5L2.0000001000000003,2.5Q1.49999994,2.5,1.49999994,3.0000001000000003L1.49999997,10.1844788L2.1855925000000003,7.6135063Q2.4825273,6.5000005,3.6349454,6.5000005L12.633333,6.5000005ZM1.65080595,13.5L12.365055,13.5Q12.749195,13.5,12.848173,13.128832L14.181505,8.1288319Q14.244989,7.8907642,14.094882,7.6953821Q13.944775,7.5,13.698389,7.5L3.6349454,7.5Q3.2508059,7.5,3.1518276,7.8711686L1.65080595,13.5Z" fill-rule="evenodd" fill="#0066EC" fill-opacity="1"/></g></g></svg>