<svg xmlns="http://www.w3.org/2000/svg" xmlns:xlink="http://www.w3.org/1999/xlink" fill="none" version="1.1" width="217" height="186" viewBox="0 0 217 186"><defs><linearGradient x1="0.9251821637153625" y1="0.9879999756813049" x2="0.40792229771614075" y2="1" id="master_svg0_810_98078"><stop offset="0%" stop-color="#E0E5EF" stop-opacity="0"/><stop offset="100%" stop-color="#E0E5EF" stop-opacity="1"/></linearGradient><linearGradient x1="0.9251821637153625" y1="0.9879999756813049" x2="0.40792229771614075" y2="1" id="master_svg1_810_98078"><stop offset="0%" stop-color="#E0E5EF" stop-opacity="0"/><stop offset="100%" stop-color="#E0E5EF" stop-opacity="1"/></linearGradient><linearGradient x1="0.9203914403915405" y1="0.9879999756813049" x2="0.4089598059654236" y2="1" id="master_svg2_810_98081"><stop offset="0%" stop-color="#E0E5EF" stop-opacity="0"/><stop offset="100%" stop-color="#E0E5EF" stop-opacity="1"/></linearGradient><linearGradient x1="1.4458807706832886" y1="0.6700169444084167" x2="0.29515963792800903" y2="0.6741976737976074" id="master_svg3_810_98085"><stop offset="0%" stop-color="#E0E5EF" stop-opacity="0"/><stop offset="100%" stop-color="#E0E5EF" stop-opacity="1"/></linearGradient><linearGradient x1="0.5" y1="0.9999999403953552" x2="0.9592013359069824" y2="-0.2895796298980713" id="master_svg4_810_98089"><stop offset="0%" stop-color="#A2ABB9" stop-opacity="1"/><stop offset="100%" stop-color="#E7EAF0" stop-opacity="1"/></linearGradient><linearGradient x1="0.6282235980033875" y1="-0.07520012557506561" x2="0.6282235980033875" y2="1" id="master_svg5_810_98062"><stop offset="0%" stop-color="#A2ABB9" stop-opacity="1"/><stop offset="100%" stop-color="#E7EAF0" stop-opacity="1"/></linearGradient><linearGradient x1="1" y1="0.5" x2="0.35094547271728516" y2="0.5" id="master_svg6_810_98074"><stop offset="0%" stop-color="#A2ABB9" stop-opacity="1"/><stop offset="100%" stop-color="#E7EAF0" stop-opacity="1"/></linearGradient></defs><g><g style="opacity:0.6015942096710205;"><path d="M107.248,0C127.643,0,146.449,6.71931,161.518,18.0383C161.518,18.0383,155.457,18.0388,155.457,18.0388C152.587,18.0388,150.262,20.3719,150.262,23.25C150.262,23.25,150.262,23.6509,150.262,23.6509C150.262,26.5289,152.587,28.8621,155.457,28.8621C155.457,28.8621,173.511,28.8618,173.511,28.8618C176.937,32.5644,180.048,36.5551,182.803,40.7928C182.803,40.7928,191.374,40.7928,191.374,40.7928C194.464,40.7928,196.969,43.3055,196.969,46.4049C196.969,46.4049,196.969,46.7181,196.969,46.7181C196.969,49.2788,195.26,51.4389,192.923,52.1125C192.923,52.1125,185.029,52.1121,185.029,52.1121C181.498,52.1121,178.635,54.9836,178.635,58.5259C178.635,58.5259,178.635,60.5302,178.635,60.5302C178.635,64.0724,181.498,66.944,185.029,66.944C185.029,66.944,212.165,66.944,212.165,66.944C214.943,67.6421,217,70.1629,217,73.1657C217,73.1657,217,73.5237,217,73.5237C217,77.0659,214.137,79.9375,210.606,79.9375C210.606,79.9375,196.547,79.937,196.547,79.937C196.826,82.7842,196.969,85.6709,196.969,88.5905C196.969,137.518,156.8,177.181,107.248,177.181C67.6134,177.181,33.9813,151.805,22.1069,116.61C22.1069,116.61,18.7397,116.61,18.7397,116.61C17.3785,116.61,16.275,115.503,16.275,114.138C16.275,113.096,16.9173,112.205,17.8263,111.841C17.8263,111.841,21.9797,111.841,21.9797,111.841C24.849,111.841,27.175,109.507,27.175,106.629C27.175,106.629,27.175,106.228,27.175,106.228C27.175,103.35,24.849,101.017,21.9797,101.017C21.9797,101.017,18.4027,101.017,18.4027,101.017C18.3996,100.996,18.3966,100.975,18.3936,100.953C18.3936,100.953,9.53284,100.952,9.53284,100.952C7.26414,100.952,5.425,99.1072,5.425,96.8315C5.425,94.5558,7.26414,92.711,9.53284,92.711C9.53284,92.711,17.6223,92.7117,17.6223,92.7117C17.5589,91.3458,17.5269,89.9718,17.5269,88.5905C17.5269,75.5104,20.3978,63.0923,25.5514,51.9172C25.5514,51.9172,11.1897,51.9182,11.1897,51.9182C5.00979,51.9182,0,46.8929,0,40.694C0,40.694,0,40.0676,0,40.0676C0,34.0856,4.66525,29.1966,10.5453,28.8617C10.5453,28.8617,61.1436,28.8621,61.1436,28.8621C63.3507,28.8621,65.14,27.0674,65.14,24.8534C65.14,22.6396,63.3507,20.8448,61.1436,20.8448C61.1436,20.8448,49.431,20.8444,49.431,20.8444C49.5285,20.7632,49.6262,20.6822,49.7241,20.6014C49.7241,20.6014,43.8988,20.6024,43.8988,20.6024C39.7053,20.6024,36.3058,17.1925,36.3058,12.9861C36.3058,12.9861,36.3058,12.561,36.3058,12.561C36.3058,8.35456,39.7053,4.94459,43.8988,4.94459C43.8988,4.94459,77.6207,4.94389,77.6207,4.94389C86.8958,1.74116,96.866,0,107.248,0Z" fill-rule="evenodd" fill="#F3F3FA" fill-opacity="1"/></g><g><g><path d="M53.56430736999512,131.23681811523437C53.61110736999512,131.42421811523437,53.66960736999512,131.62331811523438,53.73980736999512,131.8341181152344C53.73980736999512,131.8341181152344,53.880107369995116,132.39631811523438,53.880107369995116,132.39631811523438C53.92690736999512,132.58361811523437,53.950307369995116,132.73591811523437,53.950307369995116,132.85301811523436C53.950307369995116,133.50891811523437,53.774807369995116,134.08861811523437,53.42400736999512,134.59221811523437C53.073107369995114,135.09581811523438,52.61700736999512,135.46471811523438,52.055607369995116,135.69901811523437C51.84510736999512,135.72241811523438,51.62290736999512,135.73411811523437,51.38890736999512,135.73411811523437C51.201807369995116,135.75751811523438,50.99130736999511,135.76921811523437,50.75740736999512,135.76921811523437C50.75740736999512,135.76921811523437,50.090707369995116,135.76921811523437,50.090707369995116,135.76921811523437C50.090707369995116,135.76921811523437,44.617207369995114,135.83951811523437,44.617207369995114,135.83951811523437C44.617207369995114,135.83951811523437,44.617207369995114,141.70711811523438,44.617207369995114,141.70711811523438C44.617207369995114,142.57381811523436,44.63470736999512,143.44631811523436,44.66980736999512,144.32471811523436C44.70490736999512,145.20311811523436,44.745907369995116,145.99361811523437,44.79260736999512,146.69631811523436C44.839407369995115,147.53961811523436,44.89790736999512,148.3477181152344,44.96810736999512,149.12071811523438C44.96810736999512,149.12071811523438,39.91559736999512,149.12071811523438,39.91559736999512,149.12071811523438C39.91559736999512,149.12071811523438,40.02085736999511,147.75041811523437,40.02085736999511,147.75041811523437C40.04424736999512,147.2116181152344,40.06763736999512,146.4797181152344,40.09102736999512,145.55441811523437C40.11441736999512,144.62921811523438,40.126117369995114,143.39361811523437,40.126117369995114,141.8477181152344C40.126117369995114,141.8477181152344,40.126117369995114,136.47191811523436,40.126117369995114,136.47191811523436C39.728467369995116,136.82331811523437,39.284027369995115,136.99901811523438,38.79281736999512,136.99901811523438C38.39516736999512,136.99901811523438,38.050147369995116,136.90531811523437,37.75775736999512,136.71791811523437C37.465367369995114,136.53051811523437,37.22560736999512,136.27281811523437,37.03848736999512,135.94491811523437C37.03848736999512,135.94491811523437,33.07368736999512,135.73411811523437,33.07368736999512,135.73411811523437C32.301777369995115,135.54671811523437,31.658517369995117,135.15441811523436,31.143915369995117,134.55711811523437C30.629310369995117,133.95981811523438,30.372007369995117,133.25121811523437,30.372007369995117,132.43141811523438C30.372007369995117,132.29081811523437,30.383702969995117,132.1620181152344,30.407094069995118,132.04491811523437C30.430485169995116,131.92781811523437,30.465571969995118,131.81071811523438,30.512354369995116,131.69351811523438C30.512354369995116,131.69351811523438,31.38951736999512,129.65571811523438,31.38951736999512,129.65571811523438C31.436307369995117,129.14041811523438,31.582497369995117,128.6602181152344,31.828107369995116,128.21511811523436C32.073717369995116,127.77011811523437,32.38364736999512,127.38361811523437,32.75790736999512,127.05571811523437C32.75790736999512,127.05571811523437,38.266517369995114,116.83131811523438,38.266517369995114,116.83131811523438C38.266517369995114,116.83131811523438,38.30160736999512,116.83131811523438,38.30160736999512,116.83131811523438C38.746037369995115,116.01149811523437,39.272337369995114,115.30878811523438,39.880507369995115,114.72320111523437C40.48870736999512,114.13761211523438,41.27230736999512,113.84481811523438,42.231307369995115,113.84481811523438C43.07340736999512,113.84481811523438,43.827807369995114,114.06734211523438,44.494407369995116,114.51238911523437C45.161107369995115,114.95743811523438,45.658107369995115,115.54302811523438,45.985607369995115,116.26915811523438C45.985607369995115,116.26915811523438,50.40650736999512,124.94761811523438,50.40650736999512,124.94761811523438C51.201807369995116,125.22861811523438,51.85680736999512,125.72051811523437,52.37140736999512,126.42321811523438C52.88600736999511,127.12601811523437,53.143307369995114,127.93411811523437,53.143307369995114,128.84761811523438C53.143307369995114,129.22241811523438,53.08480736999512,129.62061811523438,52.967807369995114,130.04221811523436C52.967807369995114,130.04221811523436,53.56430736999512,131.23681811523437,53.56430736999512,131.23681811523437Z" fill="url(#master_svg0_810_98078)" fill-opacity="1"/></g><g><path d="M177.4501182220459,131.23682192993164C177.4969182220459,131.42422192993163,177.5554182220459,131.62332192993165,177.6255182220459,131.83412192993165C177.6255182220459,131.83412192993165,177.7659182220459,132.39632192993164,177.7659182220459,132.39632192993164C177.8127182220459,132.58362192993164,177.8361182220459,132.73592192993164,177.8361182220459,132.85302192993163C177.8361182220459,133.50892192993163,177.6606182220459,134.08862192993163,177.3098182220459,134.59222192993164C176.9589182220459,135.09582192993165,176.5028182220459,135.46472192993164,175.9414182220459,135.69902192993163C175.7309182220459,135.72242192993164,175.5086182220459,135.73412192993163,175.2747182220459,135.73412192993163C175.0876182220459,135.75752192993164,174.8771182220459,135.76922192993163,174.6432182220459,135.76922192993163C174.6432182220459,135.76922192993163,173.9765182220459,135.76922192993163,173.9765182220459,135.76922192993163C173.9765182220459,135.76922192993163,168.5030182220459,135.83952192993164,168.5030182220459,135.83952192993164C168.5030182220459,135.83952192993164,168.5030182220459,141.70712192993165,168.5030182220459,141.70712192993165C168.5030182220459,142.57382192993163,168.5205182220459,143.44632192993163,168.5556182220459,144.32472192993163C168.5907182220459,145.20312192993163,168.6317182220459,145.99362192993163,168.6784182220459,146.69632192993163C168.7252182220459,147.53962192993163,168.7837182220459,148.34772192993165,168.8539182220459,149.12072192993165C168.8539182220459,149.12072192993165,163.8014082220459,149.12072192993165,163.8014082220459,149.12072192993165C163.8014082220459,149.12072192993165,163.9066682220459,147.75042192993163,163.9066682220459,147.75042192993163C163.9300582220459,147.21162192993165,163.9534482220459,146.47972192993166,163.9768382220459,145.55442192993164C164.0002282220459,144.62922192993165,164.0119282220459,143.39362192993164,164.0119282220459,141.84772192993165C164.0119282220459,141.84772192993165,164.0119282220459,136.47192192993163,164.0119282220459,136.47192192993163C163.6142782220459,136.82332192993164,163.16984822204589,136.99902192993164,162.6786382220459,136.99902192993164C162.2809882220459,136.99902192993164,161.9359582220459,136.90532192993163,161.6435682220459,136.71792192993163C161.3511782220459,136.53052192993164,161.1114282220459,136.27282192993164,160.9242982220459,135.94492192993164C160.9242982220459,135.94492192993164,156.9594882220459,135.73412192993163,156.9594882220459,135.73412192993163C156.1875782220459,135.54672192993164,155.5443282220459,135.15442192993163,155.0297262220459,134.55712192993164C154.5151212220459,133.95982192993165,154.2578182220459,133.25122192993163,154.2578182220459,132.43142192993164C154.2578182220459,132.29082192993164,154.2695143220459,132.16202192993165,154.29290552204588,132.04492192993163C154.3162963220459,131.92782192993164,154.3513853220459,131.81072192993165,154.39816722204588,131.69352192993165C154.39816722204588,131.69352192993165,155.2753382220459,129.65572192993164,155.2753382220459,129.65572192993164C155.3221182220459,129.14042192993165,155.4683182220459,128.66022192993165,155.7139182220459,128.21512192993163C155.9595282220459,127.77012192993163,156.2694582220459,127.38362192993164,156.6437182220459,127.05572192993164C156.6437182220459,127.05572192993164,162.1523282220459,116.83132192993165,162.1523282220459,116.83132192993165C162.1523282220459,116.83132192993165,162.1874082220459,116.83132192993165,162.1874082220459,116.83132192993165C162.6318482220459,116.01150192993164,163.1581482220459,115.30879192993164,163.7663182220459,114.72320492993164C164.3745182220459,114.13761592993164,165.15811822204589,113.84482192993164,166.1171182220459,113.84482192993164C166.9592182220459,113.84482192993164,167.7136182220459,114.06734592993165,168.3802182220459,114.51239292993164C169.04681822204589,114.95744192993165,169.5439182220459,115.54303192993164,169.8714182220459,116.26916192993164C169.8714182220459,116.26916192993164,174.2923182220459,124.94762192993164,174.2923182220459,124.94762192993164C175.0876182220459,125.22862192993165,175.7426182220459,125.72052192993164,176.2572182220459,126.42322192993164C176.7718182220459,127.12602192993164,177.0291182220459,127.93412192993164,177.0291182220459,128.84762192993165C177.0291182220459,129.22242192993164,176.9706182220459,129.62062192993164,176.8536182220459,130.04222192993163C176.8536182220459,130.04222192993163,177.4501182220459,131.23682192993164,177.4501182220459,131.23682192993164Z" fill="url(#master_svg1_810_98078)" fill-opacity="1"/></g><g><path d="M162.74876984558105,135.09810977401733C162.78526984558107,135.24500977401732,162.83086984558105,135.40110977401733,162.88556984558105,135.56640977401733C162.88556984558105,135.56640977401733,162.99496984558107,136.00720977401733,162.99496984558107,136.00720977401733C163.03146984558106,136.15410977401734,163.04976984558107,136.27350977401733,163.04976984558107,136.36540977401734C163.04976984558107,136.87960977401733,162.91296984558105,137.33420977401732,162.63936984558106,137.72900977401733C162.36586984558105,138.12390977401733,162.01016984558106,138.41320977401733,161.57246984558105,138.59690977401732C161.40836984558106,138.61520977401733,161.23516984558105,138.62440977401732,161.05276984558105,138.62440977401732C160.90686984558107,138.64280977401734,160.74276984558105,138.65190977401733,160.56036984558105,138.65190977401733C160.56036984558105,138.65190977401733,160.04056984558105,138.65190977401733,160.04056984558105,138.65190977401733C160.04056984558105,138.65190977401733,155.77306984558106,138.70700977401734,155.77306984558106,138.70700977401734C155.77306984558106,138.70700977401734,155.77306984558106,143.30780977401733,155.77306984558106,143.30780977401733C155.77306984558106,143.98730977401732,155.78676984558106,144.67150977401732,155.81416984558106,145.36020977401733C155.84146984558106,146.04890977401735,155.87336984558107,146.66880977401735,155.90986984558106,147.21980977401734C155.94636984558105,147.88100977401734,155.99196984558105,148.51460977401734,156.04666984558105,149.12070977401734C156.04666984558105,149.12070977401734,152.10742984558107,149.12070977401734,152.10742984558107,149.12070977401734C152.10742984558107,149.12070977401734,152.18948984558105,148.04630977401735,152.18948984558105,148.04630977401735C152.20772984558104,147.62380977401733,152.22596984558106,147.04990977401732,152.24419984558105,146.32440977401734C152.26243984558104,145.59900977401733,152.27155984558107,144.63010977401734,152.27155984558107,143.41800977401732C152.27155984558107,143.41800977401732,152.27155984558107,139.20290977401734,152.27155984558107,139.20290977401734C151.96152984558105,139.47840977401734,151.61501984558106,139.61620977401734,151.23203984558106,139.61620977401734C150.92200984558104,139.61620977401734,150.65301984558104,139.54270977401734,150.42505984558105,139.39580977401732C150.19708984558105,139.24880977401733,150.01015984558106,139.04680977401733,149.86425984558105,138.78970977401733C149.86425984558105,138.78970977401733,146.77306984558106,138.62440977401732,146.77306984558106,138.62440977401732C146.17123984558106,138.47750977401734,145.66970984558105,138.16980977401732,145.26849584558104,137.70150977401732C144.86727784558104,137.23320977401733,144.66666984558105,136.67760977401733,144.66666984558105,136.03480977401733C144.66666984558105,135.92460977401734,144.67578780558105,135.82360977401734,144.69402494558105,135.73170977401733C144.71226214558106,135.63990977401733,144.73961604558104,135.54810977401735,144.77609084558105,135.45620977401734C144.77609084558105,135.45620977401734,145.45998184558104,133.85840977401733,145.45998184558104,133.85840977401733C145.49645584558107,133.45430977401733,145.61043684558106,133.07780977401734,145.80192984558104,132.72890977401732C145.99341984558106,132.37990977401734,146.23505984558105,132.07690977401734,146.52685984558104,131.81970977401733C146.52685984558104,131.81970977401733,150.82170984558104,123.80289977401733,150.82170984558104,123.80289977401733C150.82170984558104,123.80289977401733,150.84906984558106,123.80289977401733,150.84906984558106,123.80289977401733C151.19556984558105,123.16007977401733,151.60590984558107,122.60909977401734,152.08006984558105,122.14994177401734C152.55423984558107,121.69078777401734,153.16517984558106,121.46120977401733,153.91289984558105,121.46120977401733C154.56943984558106,121.46120977401733,155.15756984558107,121.63568877401734,155.67736984558104,121.98464577401734C156.19706984558104,122.33360377401733,156.58466984558106,122.79275977401733,156.83996984558107,123.36210977401734C156.83996984558107,123.36210977401734,160.28676984558106,130.16677977401733,160.28676984558106,130.16677977401733C160.90686984558107,130.38717977401734,161.41746984558105,130.77286977401732,161.81866984558104,131.32384977401733C162.21996984558106,131.87480977401734,162.42056984558104,132.50850977401734,162.42056984558104,133.22470977401733C162.42056984558104,133.51860977401734,162.37496984558106,133.83080977401733,162.28376984558105,134.16140977401733C162.28376984558105,134.16140977401733,162.74876984558105,135.09810977401733,162.74876984558105,135.09810977401733Z" fill="url(#master_svg2_810_98081)" fill-opacity="1"/></g></g><g><path d="M95.31215527496337,139.90086364746094C119.84105527496338,139.90086364746094,141.93005527496337,141.90789364746092,157.3700552749634,145.11363364746094C172.4710552749634,145.21445364746094,184.63005527496338,149.75167364746093,184.63005527496338,155.33406364746094C184.63005527496338,159.75816364746095,176.99305527496338,163.52586364746094,166.30605527496337,164.94896364746094C163.7560552749634,165.70596364746095,160.88505527496338,166.41946364746093,157.73105527496338,167.08246364746094C157.81305527496338,167.50486364746092,157.85405527496337,167.93166364746094,157.85405527496337,168.36206364746093C157.85405527496337,178.10326364746095,136.74205527496338,185.99996364746093,110.69795527496338,185.99996364746093C87.26675527496337,185.99996364746093,67.82695527496338,179.60816364746094,64.16245527496338,171.23186364746093C32.89745527496338,168.85046364746094,10.790055274963379,162.98896364746093,10.790055274963379,156.13576364746095C10.790055274963379,147.16948364746094,48.63185527496338,139.90086364746094,95.31215527496337,139.90086364746094Z" fill-rule="evenodd" fill="#E7EAF0" fill-opacity="1"/></g><g><path d="M133.8766485595703,159.66110621582033Q133.8766485595703,159.7250662158203,133.83734855957033,159.78895621582032Q133.7981485595703,159.8528462158203,133.7197485595703,159.9164962158203Q133.6413485595703,159.9801562158203,133.5240485595703,160.04342621582032Q133.4067485595703,160.1066962158203,133.2507485595703,160.16943621582033Q133.0947485595703,160.2321662158203,132.90054855957032,160.2942162158203Q132.70624855957033,160.3562662158203,132.47414855957032,160.4174762158203Q132.24204855957032,160.47868621582032,131.9726485595703,160.5389062158203Q131.70334855957032,160.59913621582032,131.3973485595703,160.65822621582032Q131.09134855957032,160.71732621582032,130.74954855957031,160.7751462158203Q130.4076485595703,160.8329662158203,130.03074855957033,160.8893762158203Q129.65384855957032,160.9457862158203,129.24284855957032,161.0006562158203Q128.83174855957031,161.05551621582032,128.38754855957032,161.10870621582032Q127.94334855957031,161.16188621582032,127.46704855957032,161.2132662158203Q126.9907485595703,161.2646362158203,126.48354855957031,161.3140862158203Q125.97634855957031,161.36352621582031,125.4393485595703,161.41092621582033Q124.9024485595703,161.4583162158203,124.33704855957032,161.5035462158203Q123.77174855957031,161.5487762158203,123.17924855957031,161.5917362158203Q122.58684855957031,161.63468621582032,121.96874855957032,161.6752662158203Q121.35074855957032,161.7158462158203,120.70854855957032,161.75394621582032Q120.06634855957032,161.7920462158203,119.40154855957032,161.8275862158203Q118.73674855957032,161.8631262158203,118.05094855957032,161.8960062158203Q117.36514855957032,161.92889621582032,116.66004855957031,161.9590462158203Q115.95484855957031,161.9891962158203,115.2320485595703,162.0165462158203Q114.50924855957031,162.04389621582033,113.7706485595703,162.0683762158203Q113.03194855957031,162.09284621582032,112.2791485595703,162.1143962158203Q111.52634855957032,162.13594621582033,110.76114855957032,162.1545162158203Q109.99604855957031,162.17308621582032,109.22044855957031,162.1886262158203Q108.44484855957032,162.20416621582032,107.66074855957032,162.2166462158203Q106.87654855957031,162.22912621582032,106.0856485595703,162.2385062158203Q105.29474855957031,162.2478962158203,104.49904855957031,162.2541662158203Q103.70334855957032,162.2604362158203,102.90474855957032,162.2635762158203Q102.10614855957031,162.2667162158203,101.3066485595703,162.2667162158203Q100.50704855957031,162.2667162158203,99.70844855957031,162.2635762158203Q98.90994855957031,162.2604362158203,98.11424855957031,162.2541662158203Q97.31854855957032,162.2478962158203,96.52764855957031,162.2385062158203Q95.73674855957032,162.22912621582032,94.95254855957032,162.2166462158203Q94.16834855957032,162.20416621582032,93.39274855957031,162.1886262158203Q92.61714855957031,162.17308621582032,91.8520485595703,162.1545162158203Q91.08694855957032,162.13594621582033,90.33414855957031,162.1143962158203Q89.58134855957032,162.09284621582032,88.8426485595703,162.0683762158203Q88.10394855957031,162.04389621582033,87.3811485595703,162.0165462158203Q86.65834855957031,161.9891962158203,85.95324855957031,161.9590462158203Q85.24814855957031,161.92889621582032,84.56234855957031,161.8960062158203Q83.87654855957031,161.8631262158203,83.21174855957031,161.8275862158203Q82.54694855957031,161.7920462158203,81.90474855957031,161.75394621582032Q81.26254855957032,161.7158462158203,80.64444855957031,161.6752662158203Q80.02634855957031,161.63468621582032,79.43394855957031,161.5917362158203Q78.84154855957031,161.5487762158203,78.27617855957031,161.5035462158203Q77.71080855957031,161.4583162158203,77.17386855957031,161.41092621582033Q76.63691855957032,161.36352621582031,76.12968855957031,161.3140862158203Q75.62246855957031,161.2646362158203,75.14617855957032,161.2132662158203Q74.66988855957031,161.16188621582032,74.22567855957031,161.10870621582032Q73.78147855957032,161.05551621582032,73.37042855957031,161.0006562158203Q72.95937855957031,160.9457862158203,72.58246855957032,160.8893762158203Q72.20556855957031,160.8329662158203,71.86371855957032,160.7751462158203Q71.52186855957031,160.71732621582032,71.21588855957032,160.65822621582032Q70.90991855957031,160.59913621582032,70.64055855957031,160.5389062158203Q70.37119855957032,160.47868621582032,70.13909855957031,160.4174762158203Q69.90700855957031,160.3562662158203,69.7127295595703,160.2942162158203Q69.51845555957031,160.2321662158203,69.36247155957031,160.16943621582033Q69.2064875595703,160.1066962158203,69.08916955957031,160.04342621582032Q68.97185155957031,159.9801562158203,68.89348155957032,159.9164962158203Q68.81511245957032,159.8528462158203,68.77588055957031,159.78895621582032Q68.73664855957031,159.7250662158203,68.73664855957031,159.66110621582033Q68.73664855957031,159.5971362158203,68.77588055957031,159.5332562158203Q68.81511245957032,159.46936621582032,68.89348155957032,159.40570621582032Q68.97185155957031,159.34205621582032,69.08916955957031,159.2787862158203Q69.2064875595703,159.2155062158203,69.36247155957031,159.15277621582032Q69.51845555957031,159.0900362158203,69.7127295595703,159.0279962158203Q69.90700855957031,158.9659462158203,70.13909855957031,158.90473621582032Q70.37119855957032,158.8435262158203,70.64055855957031,158.78330621582032Q70.90991855957031,158.7230762158203,71.21588855957032,158.6639762158203Q71.52186855957031,158.6048862158203,71.86371855957032,158.5470662158203Q72.20556855957031,158.4892362158203,72.58246855957032,158.4328262158203Q72.95937855957031,158.3764162158203,73.37042855957031,158.32155621582032Q73.78147855957032,158.2666862158203,74.22567855957031,158.2135062158203Q74.66988855957031,158.1603262158203,75.14617855957032,158.1089462158203Q75.62246855957031,158.05756621582032,76.12968855957031,158.00812421582032Q76.63691855957032,157.95867921582033,77.17386855957031,157.9112852158203Q77.71080855957031,157.8638902158203,78.27617855957031,157.8186612158203Q78.84154855957031,157.77343121582032,79.43394855957031,157.73047621582032Q80.02634855957031,157.6875202158203,80.64444855957031,157.6469422158203Q81.26254855957032,157.60636321582032,81.90474855957031,157.56826021582032Q82.54694855957031,157.5301572158203,83.21174855957031,157.4946202158203Q83.87654855957031,157.45908421582033,84.56234855957031,157.4261992158203Q85.24814855957031,157.3933152158203,85.95324855957031,157.36316321582032Q86.65834855957031,157.3330102158203,87.3811485595703,157.30566221582032Q88.10394855957031,157.2783142158203,88.8426485595703,157.25383621582031Q89.58134855957032,157.22935821582033,90.33414855957031,157.2078092158203Q91.08694855957032,157.1862602158203,91.8520485595703,157.16769321582032Q92.61714855957031,157.14912501582032,93.39274855957031,157.1335830158203Q94.16834855957032,157.11804101582032,94.95254855957032,157.1055622158203Q95.73674855957032,157.0930834158203,96.52764855957031,157.08369801582032Q97.31854855957032,157.0743125158203,98.11424855957031,157.0680429158203Q98.90994855957031,157.06177335582032,99.70844855957031,157.05863478582032Q100.50704855957031,157.0554962158203,101.3066485595703,157.0554962158203Q102.10614855957031,157.0554962158203,102.90474855957032,157.05863478582032Q103.70334855957032,157.06177335582032,104.49904855957031,157.0680429158203Q105.29474855957031,157.0743125158203,106.0856485595703,157.08369801582032Q106.87654855957031,157.0930834158203,107.66074855957032,157.1055622158203Q108.44484855957032,157.11804101582032,109.22044855957031,157.1335830158203Q109.99604855957031,157.14912501582032,110.76114855957032,157.16769321582032Q111.52634855957032,157.1862602158203,112.2791485595703,157.2078092158203Q113.03194855957031,157.22935821582033,113.7706485595703,157.25383621582031Q114.50924855957031,157.2783142158203,115.2320485595703,157.30566221582032Q115.95484855957031,157.3330102158203,116.66004855957031,157.36316321582032Q117.36514855957032,157.3933152158203,118.05094855957032,157.4261992158203Q118.73674855957032,157.45908421582033,119.40154855957032,157.4946202158203Q120.06634855957032,157.5301572158203,120.70854855957032,157.56826021582032Q121.35074855957032,157.60636321582032,121.96874855957032,157.6469422158203Q122.58684855957031,157.6875202158203,123.17924855957031,157.73047621582032Q123.77174855957031,157.77343121582032,124.33704855957032,157.8186612158203Q124.9024485595703,157.8638902158203,125.4393485595703,157.9112852158203Q125.97634855957031,157.95867921582033,126.48354855957031,158.00812421582032Q126.9907485595703,158.05756621582032,127.46704855957032,158.1089462158203Q127.94334855957031,158.1603262158203,128.38754855957032,158.2135062158203Q128.83174855957031,158.2666862158203,129.24284855957032,158.32155621582032Q129.65384855957032,158.3764162158203,130.03074855957033,158.4328262158203Q130.4076485595703,158.4892362158203,130.74954855957031,158.5470662158203Q131.09134855957032,158.6048862158203,131.3973485595703,158.6639762158203Q131.70334855957032,158.7230762158203,131.9726485595703,158.78330621582032Q132.24204855957032,158.8435262158203,132.47414855957032,158.90473621582032Q132.70624855957033,158.9659462158203,132.90054855957032,159.0279962158203Q133.0947485595703,159.0900362158203,133.2507485595703,159.15277621582032Q133.4067485595703,159.2155062158203,133.5240485595703,159.2787862158203Q133.6413485595703,159.34205621582032,133.7197485595703,159.40570621582032Q133.7981485595703,159.46936621582032,133.83734855957033,159.5332562158203Q133.8766485595703,159.5971362158203,133.8766485595703,159.66110621582033Z" fill="#D1D6E2" fill-opacity="1"/></g><g><path d="M159.60470217285157,38.60797914123535C159.60470217285157,40.98817914123535,157.38270217285157,42.89227914123535,154.57600217285156,42.89227914123535C154.57600217285156,42.89227914123535,139.02221217285157,42.89227914123535,139.02221217285157,42.89227914123535C136.21551217285156,42.70177914123535,133.87660217285156,40.89297914123535,133.87660217285156,38.41757914123535C133.87660217285156,36.799129141235355,134.92912217285155,35.37105914123535,136.44941217285157,34.60941914123535C136.33247217285157,34.32380914123535,136.21552217285156,34.03819914123535,136.21552217285156,33.75257914123535C136.21552217285156,32.13409914123535,137.73581217285155,30.70602914123535,139.72388217285157,30.70602914123535C140.54250217285156,30.70602914123535,141.24419217285157,30.991639141235353,141.82891217285157,31.372459141235353C143.23227217285157,29.18274914123535,145.80510217285155,27.65947914123535,148.84570217285156,27.65947914123535C153.05570217285157,27.65947914123535,156.44710217285157,30.610829141235353,156.44710217285157,34.22860914123535C156.44710217285157,34.22860914123535,156.44710217285157,34.60941914123535,156.44710217285157,34.60941914123535C158.31830217285156,35.27585914123535,159.60470217285157,36.799129141235355,159.60470217285157,38.60797914123535Z" fill="url(#master_svg3_810_98085)" fill-opacity="1"/></g><g><path d="M88.44517856445313,48.41696125537109Q86.48873856445313,48.45634425537109,84.41558856445313,48.6273282553711L84.43282856445313,48.836255455371095Q83.11295856445312,48.94512175537109,81.74541856445313,49.10750625537109L81.86333856445313,50.100534255371095Q83.89370856445312,49.859438255371096,85.81601856445313,49.738007255371095L85.80279856445313,49.528797255371096Q87.16087856445313,49.443017255371096,88.46537856445312,49.41675825537109L88.44517856445313,48.41696125537109ZM96.49847856445312,48.88183935537109Q94.56167856445313,48.59650825537109,92.47387856445313,48.4819782553711L92.46237856445313,48.691284255371095Q91.15167856445312,48.6193722553711,89.78097856445312,48.61506025537109L89.77777856445313,49.615056255371094Q91.82737856445313,49.62150225537109,93.73757856445312,49.78184425537109L93.75507856445313,49.572945255371096Q95.08757856445312,49.684780255371095,96.35267856445313,49.87116125537109L96.49847856445312,48.88183935537109ZM77.30400956445312,50.7691042553711L77.92644856445312,50.663554255371096L77.89139856445313,50.45683425537109Q79.24338856445313,50.232224255371094,80.55228856445312,50.055584255371095L80.41854856445312,49.064570255371095Q78.57199856445312,49.313771255371094,76.64170366445312,49.657169255371095L76.15009256445313,49.744626255371095L76.36016356445313,50.93471425537109L77.30400956445312,50.7691042553711ZM97.65227856445313,50.29872425537109Q99.65427856445312,50.667494255371096,101.47577856445312,51.23506425537109L101.53817856445312,51.034814255371096Q102.78247856445313,51.42254425537109,103.94337856445313,51.902514255371095L104.32547856445312,50.97839425537109Q102.49717856445312,50.222464255371094,100.47277856445312,49.688602255371094L100.41937856445313,49.89140725537109Q99.16437856445313,49.560433255371095,97.83337856445313,49.31527225537109L97.65227856445313,50.29872425537109ZM105.13117856445312,52.66020425537109Q106.93277856445312,53.52013425537109,108.51437856445312,54.6231742553711L108.63417856445312,54.4513642553711Q109.48627856445313,55.045734255371094,110.27557856445313,55.7102742553711L110.42527856445312,55.836614255371096L110.57287856445313,55.96202425537109L110.61237856445312,55.995634255371094L111.25987856445312,55.2335542553711L111.22037856445313,55.1999542553711L111.07017856445313,55.072374255371095L110.91967856445312,54.94532425537109Q109.53197856445313,53.77689425537109,107.95897856445313,52.816914255371096L107.84987856445312,52.99578425537109Q106.75147856445312,52.325534255371096,105.56187856445312,51.75773425537109L105.13117856445312,52.66020425537109ZM114.45707856445313,59.74927425537109L114.51157856445312,59.80087425537109L114.65557856445312,59.648974255371094L114.76227856445313,59.750074255371096L115.26227856445313,60.22727425537109L116.45477856445312,61.37837425537109L117.14927856445313,60.658874255371096L115.95257856445312,59.503674255371095L115.45017856445313,59.02437425537109L115.12417856445313,58.715354255371096L114.64777856445312,58.267084255371095L114.41667856445312,58.051824255371095L114.24617856445312,57.89299425537109L114.10357856445313,58.04613425537109L114.04467856445312,57.99130425537109L113.74127856445313,57.71112425537109L113.44177856445313,57.436694255371094L113.29277856445313,57.30098425537109L112.85107856445313,56.901974255371094L112.55757856445312,56.63970425537109L112.26507856445312,56.380684255371094L112.25547856445313,56.372274255371096L111.59597856445313,57.12396425537109L111.60207856445312,57.129324255371095L111.89127856445313,57.38538425537109L112.18077856445314,57.64406425537109L112.61937856445311,58.04026425537109L112.76617856445313,58.17397425537109L113.06287856445311,58.44581425537109L113.36297856445313,58.722964255371096L113.82247856445312,59.15107425537109L114.29497856445312,59.595674255371094L114.45707856445313,59.74927425537109ZM120.30527856445312,65.3120742553711L120.31487856445312,65.3205742553711L120.45447856445313,65.1646742553711Q121.47197856445312,66.0757742553711,122.39607856445312,66.8135742553711L123.02007856445312,66.03217425537109Q122.11297856445313,65.30787425537109,121.11287856445313,64.4117742553711L120.82077856445312,64.1484742553711L120.62357856445313,63.968774255371095L120.32047856445313,63.689874255371095L120.16287856445312,63.543274255371095L120.02427856445313,63.414374255371094L119.88187856445313,63.567474255371096L119.64717856445313,63.347674255371096L119.42467856445313,63.13777425537109L119.07667856445312,62.807174255371095L118.11257856445312,61.880374255371095L118.09877856445313,61.867074255371094L117.40367856445312,62.585874255371095L117.41957856445313,62.601274255371095L118.38797856445314,63.532174255371096L118.73847856445312,63.865174255371095L118.96357856445312,64.07757425537109L119.28907856445312,64.3824742553711L119.50007856445313,64.57837425537109L119.80807856445313,64.86177425537109L120.10847856445312,65.1348742553711L120.30527856445312,65.3120742553711ZM123.46967856445312,67.8961742553711Q125.18557856445312,69.14267425537109,126.92077856445312,70.01987425537109L127.01547856445313,69.8325742553711Q127.74987856445313,70.20377425537109,128.51157856445312,70.52367425537109Q128.95627856445313,70.7103742553711,129.4120785644531,70.87987425537109L129.7605785644531,69.9425742553711Q129.32437856445313,69.7803742553711,128.89877856445312,69.6016742553711Q127.52757856445312,69.0258742553711,126.24917856445313,68.2764742553711L126.14357856445312,68.4566742553711Q125.09797856445311,67.84307425537109,124.05747856445313,67.0871742553711L123.46967856445312,67.8961742553711ZM130.70477856445314,71.53827425537109Q132.57097856445313,72.10927425537109,134.6740785644531,72.4334742553711L134.70597856445312,72.22617425537109Q135.98197856445313,72.4228742553711,137.36197856445312,72.53177425537109L137.44067856445312,71.5348742553711Q135.36287856445313,71.37087425537109,133.5336785644531,71.00347425537109L133.49237856445313,71.20897425537109Q132.19297856445314,70.94787425537109,130.99737856445313,70.5819742553711L130.70477856445314,71.53827425537109ZM145.45777856445312,72.02497425537109Q143.44747856445312,71.76637425537109,141.42827856445314,71.6919742553711L141.42057856445314,71.9014742553711Q141.02027856445312,71.8867742553711,140.62007856445314,71.87927425537109L140.38137856445312,71.87557425537109Q139.54917856445311,71.8645742553711,138.7587785644531,71.8274742553711L138.71187856445312,72.82637425537109Q139.5191785644531,72.8642742553711,140.36557856445313,72.8753742553711L140.60147856445312,72.8791742553711Q141.6525785644531,72.89867425537109,142.70357856445312,72.96977425537109L142.7177785644531,72.7605742553711Q144.02587856445314,72.84897425537109,145.33017856445312,73.01677425537109L145.45777856445312,72.02497425537109ZM146.63247856445312,73.41657425537109Q148.58687856445312,73.7296742553711,150.50307856445312,74.21887425537109L150.5549785644531,74.0156742553711Q151.80987856445313,74.3359742553711,153.04167856445312,74.72997425537109L153.34637856445312,73.77757425537109Q151.4222785644531,73.1620742553711,149.44327856445312,72.7224742553711L149.39777856445312,72.9270742553711Q148.10257856445313,72.6393742553711,146.79067856445312,72.4291742553711L146.63247856445312,73.41657425537109ZM154.28627856445314,75.37157425537109Q156.15907856445313,76.0379742553711,157.94067856445312,76.8679742553711L158.0291785644531,76.6779742553711Q159.18397856445313,77.2159742553711,160.29307856445314,77.8191742553711L160.30357856445312,77.8248742553711L160.78127856445315,76.9463742553711L160.77087856445314,76.9407742553711Q159.01167856445312,75.98387425537109,157.14087856445315,75.18757425537109L157.05877856445312,75.3803742553711Q155.85947856445313,74.86997425537109,154.62157856445313,74.42947425537109L154.28627856445314,75.37157425537109ZM164.66807856445314,80.8899742553711L164.71147856445313,80.9232742553711L164.8391785644531,80.7567742553711Q164.93547856445312,80.83097425537109,165.03067856445313,80.9056742553711L165.25047856445312,81.07967425537109Q165.7852785644531,81.50767425537109,166.26857856445312,81.9386742553711L166.46047856445313,82.1117742553711Q166.59337856445313,82.2330742553711,166.72347856445313,82.35587425537109L167.41007856445313,81.6287742553711Q167.27377856445312,81.50007425537109,167.13027856445314,81.36917425537109L166.93417856445313,81.1922742553711Q166.4308785644531,80.7435742553711,165.87127856445312,80.2957742553711L165.64767856445314,80.11867425537109Q165.41987856445314,79.94007425537109,165.18167856445314,79.76077425537109L164.94337856445313,79.58317425537109L164.70097856445312,79.4060742553711L164.4546785644531,79.2296742553711L164.2356785644531,79.0755742553711L164.1149785644531,79.24717425537109L164.07947856445313,79.2221742553711L163.8264785644531,79.04797425537109L163.57067856445312,78.87517425537109L163.3110785644531,78.7031742553711L163.04797856445313,78.53217425537109L162.7811785644531,78.3620742553711L162.51087856445312,78.1930742553711L162.23717856445313,78.0252742553711L161.9600785644531,77.85867425537108L161.9446785644531,77.84947425537109L161.43317856445313,78.7087742553711L161.44477856445315,78.7156742553711L161.71447856445315,78.8777742553711L161.98077856445312,79.04107425537109L162.24367856445312,79.2053742553711L162.50307856445312,79.37067425537109L162.75887856445314,79.53687425537109L163.01097856445313,79.70387425537109L163.25937856445313,79.87157425537109L163.50297856445314,80.0392742553711L163.86347856445315,80.2934742553711L164.09807856445312,80.4630742553711L164.32867856445313,80.6330742553711L164.55507856445314,80.8032742553711L164.66807856445314,80.8899742553711ZM170.28637856445312,85.46927425537109Q170.17647856445313,85.17387425537109,170.01617856445313,84.8624742553711L169.83127856445313,84.9576742553711Q169.34077856445313,84.00087425537109,168.36717856445313,82.9079742553711L168.3443785644531,82.88267425537109L167.60257856445313,83.5532742553711L167.62047856445312,83.5731742553711Q168.80787856445312,84.90597425537109,169.1747785644531,85.9501742553711L169.34087856445313,86.4231742553711L170.4847785644531,86.01797425537109L170.28637856445312,85.46927425537109Z" fill-rule="evenodd" fill="#D1D6E2" fill-opacity="1"/></g><g transform="matrix(-0.8823480010032654,0.47059741616249084,0.46834689378738403,0.8835446834564209,117.4041925804595,-29.372032373030606)"><g><path d="M80.70925650634766,47.32723973388672C80.70925650634766,47.32723973388672,86.11605650634766,49.678739733886715,86.11605650634766,49.678739733886715C86.11605650634766,49.678739733886715,88.74685650634765,32.07353973388672,88.74685650634765,32.07353973388672C88.74685650634765,32.07353973388672,70.35135650634766,42.93623973388672,70.35135650634766,42.93623973388672C70.35135650634766,42.93623973388672,75.17818650634766,45.22553973388672,75.17818650634766,45.22553973388672C75.17818650634766,45.22553973388672,86.84115650634766,34.57077973388672,86.84115650634766,34.57077973388672C86.84115650634766,34.57077973388672,77.47744650634766,46.30763973388672,77.47744650634766,46.30763973388672C77.47744650634766,46.30763973388672,77.35313650634765,51.30193973388672,77.35313650634765,51.30193973388672C77.35313650634765,51.30193973388672,80.70925650634766,47.32723973388672,80.70925650634766,47.32723973388672Z" fill="url(#master_svg4_810_98089)" fill-opacity="1"/></g></g><g><g><path d="M128.27468005981444,149.1206686531067C128.27468005981444,149.1206686531067,76.33677005981446,149.1206686531067,76.33677005981446,149.1206686531067C72.35944005981446,149.1206686531067,69.13628005981445,145.8998686531067,69.13628005981445,141.9253686531067C69.13628005981445,141.9253686531067,69.13628005981445,70.93236865310669,69.13628005981445,70.93236865310669C69.13628005981445,66.9578986531067,72.35944005981446,63.73706865310669,76.33677005981446,63.73706865310669C76.33677005981446,63.73706865310669,128.27468005981444,63.73706865310669,128.27468005981444,63.73706865310669C132.25198005981446,63.73706865310669,135.47518005981445,66.9578986531067,135.47518005981445,70.93236865310669C135.47518005981445,70.93236865310669,135.47518005981445,141.9253686531067,135.47518005981445,141.9253686531067C135.47518005981445,145.8998686531067,132.25198005981446,149.1206686531067,128.27468005981444,149.1206686531067Z" fill="url(#master_svg5_810_98062)" fill-opacity="1"/></g><g><path d="M125.10351896667481,151.12500321807863C125.10351896667481,151.12500321807863,75.51159896667481,151.12500321807863,75.51159896667481,151.12500321807863C71.54857896667481,151.12500321807863,68.3370189666748,147.89110321807863,68.3370189666748,143.90060321807863C68.3370189666748,143.90060321807863,68.3370189666748,73.76749321807861,68.3370189666748,73.76749321807861C68.3370189666748,69.7769632180786,71.54857896667481,66.54310321807861,75.51159896667481,66.54310321807861C75.51159896667481,66.54310321807861,125.10351896667481,66.54310321807861,125.10351896667481,66.54310321807861C129.0665189666748,66.54310321807861,132.2781189666748,69.7769632180786,132.2781189666748,73.76749321807861C132.2781189666748,73.76749321807861,132.2781189666748,143.90280321807862,132.2781189666748,143.90280321807862C132.2781189666748,147.89110321807863,129.0665189666748,151.12500321807863,125.10351896667481,151.12500321807863Z" fill="#D1D6E2" fill-opacity="1"/></g><g><path d="M124.46982319335937,142.30607139434812C124.46982319335937,142.30607139434812,76.94453319335938,142.30607139434812,76.94453319335938,142.30607139434812C76.38405219335938,142.30607139434812,75.93002319335938,141.85167139434816,75.93002319335938,141.29067139434812C75.93002319335938,141.29067139434812,75.93002319335938,73.17049139434815,75.93002319335938,73.17049139434815C75.93002319335938,72.60956739434815,76.38405219335938,72.15517139434814,76.94453319335938,72.15517139434814C76.94453319335938,72.15517139434814,124.46982319335937,72.15517139434814,124.46982319335937,72.15517139434814C125.03032319335938,72.15517139434814,125.48432319335937,72.60956739434815,125.48432319335937,73.17049139434815C125.48432319335937,73.17049139434815,125.48432319335937,141.29067139434812,125.48432319335937,141.29067139434812C125.48222319335937,141.85167139434816,125.02812319335938,142.30607139434812,124.46982319335937,142.30607139434812Z" fill="#E7EAF0" fill-opacity="1"/></g><g><path d="M98.20248305053711,141.90517139434814C93.7759830505371,141.60337139434813,69.4287830505371,139.75077139434813,54.352932050537106,127.50687139434814C53.60758905053711,126.90027139434815,53.95642697053711,125.65427139434814,54.91194005053711,125.56697139434814C78.31008305053712,123.44157139434814,75.4608830505371,81.43574139434814,75.6255830505371,73.38152139434814C75.63858305053711,72.69851939434814,76.07188305053711,72.15517139434814,76.75008305053711,72.15517139434814C76.75008305053711,72.15517139434814,123.99488305053711,72.15517139434814,123.99488305053711,72.15517139434814C124.59718305053711,72.15517139434814,125.08468305053711,72.64614939434814,125.08468305053711,73.25278139434815C125.08468305053711,73.25278139434815,122.61038305053711,118.36157139434815,122.61038305053711,118.36157139434815C122.51938305053712,118.61037139434814,122.34598305053711,119.09257139434814,122.1748830505371,119.29337139434814C122.1748830505371,119.29337139434814,104.2454830505371,141.02727139434813,104.2454830505371,141.02727139434813C104.02228305053711,141.28917139434816,98.54488305053711,141.92857139434813,98.20248305053711,141.90517139434814Z" fill="#FFFFFF" fill-opacity="1"/></g><g><path d="M104.92960120605468,126.25421807006836C107.64476120605468,126.42539807006835,115.73406120605469,126.48823807006836,122.68696120605469,118.65517807006836C121.03926120605469,126.89559807006836,110.45906120605468,141.80337807006836,96.71086120605469,141.90517807006836C104.61043120605468,137.81857807006836,104.30850120605469,130.25197807006836,104.05834120605469,126.85875807006836C104.03031120605469,126.46006807006836,104.53495120605469,126.22821807006837,104.92960120605468,126.25421807006836Z" fill="url(#master_svg6_810_98074)" fill-opacity="1"/></g><g><g><path d="M87.51933933868408,82.57758712768555C87.51933933868408,82.57758712768555,117.09203933868409,82.57758712768555,117.09203933868409,82.57758712768555C117.75423933868409,82.57758712768555,118.29093933868408,83.11600312768554,118.29093933868408,83.78017712768555C118.29093933868408,84.44434712768555,117.75423933868409,84.98275712768555,117.09203933868409,84.98275712768555C117.09203933868409,84.98275712768555,87.51933933868408,84.98275712768555,87.51933933868408,84.98275712768555C86.85720333868409,84.98275712768555,86.32043933868408,84.44434712768555,86.32043933868408,83.78017712768555C86.32043933868408,83.11600312768554,86.85720333868409,82.57758712768555,87.51933933868408,82.57758712768555Z" fill="#D8D8D8" fill-opacity="1"/></g><g><path d="M86.72007872238159,90.59482860565186C86.72007872238159,90.59482860565186,116.2927787223816,90.59482860565186,116.2927787223816,90.59482860565186C116.9549787223816,90.59482860565186,117.4916787223816,91.13324460565185,117.4916787223816,91.79741860565186C117.4916787223816,92.46158860565185,116.9549787223816,92.99999860565185,116.2927787223816,92.99999860565185C116.2927787223816,92.99999860565185,86.72007872238159,92.99999860565185,86.72007872238159,92.99999860565185C86.0579427223816,92.99999860565185,85.52117872238159,92.46158860565185,85.52117872238159,91.79741860565186C85.52117872238159,91.13324460565185,86.0579427223816,90.59482860565186,86.72007872238159,90.59482860565186Z" fill="#D8D8D8" fill-opacity="1"/></g><g><path d="M85.9208181060791,98.61206245422363C85.9208181060791,98.61206245422363,99.5083181060791,98.61206245422363,99.5083181060791,98.61206245422363C100.1704181060791,98.61206245422363,100.7072181060791,99.15048245422363,100.7072181060791,99.81466245422364C100.7072181060791,100.47883245422364,100.1704181060791,101.01725245422364,99.5083181060791,101.01725245422364C99.5083181060791,101.01725245422364,85.9208181060791,101.01725245422364,85.9208181060791,101.01725245422364C85.2586821060791,101.01725245422364,84.7219181060791,100.47883245422364,84.7219181060791,99.81466245422364C84.7219181060791,99.15048245422363,85.2586821060791,98.61206245422363,85.9208181060791,98.61206245422363Z" fill="#D8D8D8" fill-opacity="1"/></g><g><path d="M105.5027590246582,99.81466245422364Q105.5027590246582,99.87374245422363,105.4969890246582,99.93253245422363Q105.4912090246582,99.99133245422364,105.47971902465821,100.04927245422363Q105.4682290246582,100.10721245422363,105.4511390246582,100.16375245422363Q105.4340390246582,100.22029245422364,105.4114990246582,100.27487245422363Q105.3889590246582,100.32945245422363,105.3611990246582,100.38155245422364Q105.3334290246582,100.43366245422364,105.3007090246582,100.48278245422364Q105.2679890246582,100.53190245422363,105.2306190246582,100.57757245422363Q105.1932590246582,100.62324245422363,105.1516090246582,100.66502245422363Q105.1099690246582,100.70679245422363,105.0644390246582,100.74427245422363Q105.0189090246582,100.78175245422364,104.9699390246582,100.81458245422363Q104.9209590246582,100.84740245422363,104.8690190246582,100.87525245422363Q104.8170790246582,100.90310245422363,104.7626590246582,100.92571245422363Q104.7082490246582,100.94832245422363,104.6518890246582,100.96547245422363Q104.5955190246582,100.98262245422363,104.5377590246582,100.99414245422363Q104.47998902465821,101.00567245422363,104.42137902465821,101.01146245422363Q104.3627590246582,101.01725245422364,104.3038690246582,101.01725245422364Q104.2449690246582,101.01725245422364,104.1863490246582,101.01146245422363Q104.1277390246582,101.00567245422363,104.0699720246582,100.99414245422363Q104.0122050246582,100.98262245422363,103.9558440246582,100.96547245422363Q103.8994820246582,100.94832245422363,103.8450670246582,100.92571245422363Q103.7906520246582,100.90310245422363,103.7387090246582,100.87525245422363Q103.6867660246582,100.84740245422363,103.6377940246582,100.81458245422363Q103.5888220246582,100.78175245422364,103.5432930246582,100.74427245422363Q103.49776502465821,100.70679245422363,103.4561170246582,100.66502245422363Q103.4144700246582,100.62324245422363,103.3771060246582,100.57757245422363Q103.33974102465821,100.53190245422363,103.3070190246582,100.48278245422364Q103.2742970246582,100.43366245422364,103.2465330246582,100.38155245422364Q103.2187690246582,100.32945245422363,103.19622952465821,100.27487245422363Q103.1736902246582,100.22029245422364,103.1565930246582,100.16375245422363Q103.1394959246582,100.10721245422363,103.1280054246582,100.04927245422363Q103.1165150246582,99.99133245422364,103.1107420346582,99.93253245422363Q103.1049690246582,99.87374245422363,103.1049690246582,99.81466245422364Q103.1049690246582,99.75558245422363,103.1107420346582,99.69678245422364Q103.1165150246582,99.63799245422364,103.1280054246582,99.58004245422363Q103.1394959246582,99.52209845422364,103.1565930246582,99.46556245422363Q103.1736902246582,99.40902645422364,103.19622952465821,99.35444445422364Q103.2187690246582,99.29986145422363,103.2465330246582,99.24775845422363Q103.2742970246582,99.19565445422363,103.3070190246582,99.14653145422363Q103.33974102465821,99.09740845422364,103.3771060246582,99.05173945422364Q103.4144700246582,99.00607045422363,103.4561170246582,98.96429445422363Q103.49776502465821,98.92251845422363,103.5432930246582,98.88503945422363Q103.5888220246582,98.84755945422363,103.6377940246582,98.81473645422363Q103.6867660246582,98.78191345422363,103.7387090246582,98.75406345422363Q103.7906520246582,98.72621345422364,103.8450670246582,98.70360455422363Q103.8994820246582,98.68099575422363,103.9558440246582,98.66384575422363Q104.0122050246582,98.64669585422364,104.0699720246582,98.63516995422363Q104.1277390246582,98.62364405422363,104.1863490246582,98.61785327422363Q104.2449690246582,98.61206245422363,104.3038690246582,98.61206245422363Q104.3627590246582,98.61206245422363,104.42137902465821,98.61785327422363Q104.47998902465821,98.62364405422363,104.5377590246582,98.63516995422363Q104.5955190246582,98.64669585422364,104.6518890246582,98.66384575422363Q104.7082490246582,98.68099575422363,104.7626590246582,98.70360455422363Q104.8170790246582,98.72621345422364,104.8690190246582,98.75406345422363Q104.9209590246582,98.78191345422363,104.9699390246582,98.81473645422363Q105.0189090246582,98.84755945422363,105.0644390246582,98.88503945422363Q105.1099690246582,98.92251845422363,105.1516090246582,98.96429445422363Q105.1932590246582,99.00607045422363,105.2306190246582,99.05173945422364Q105.2679890246582,99.09740845422364,105.3007090246582,99.14653145422363Q105.3334290246582,99.19565445422363,105.3611990246582,99.24775845422363Q105.3889590246582,99.29986145422363,105.4114990246582,99.35444445422364Q105.4340390246582,99.40902645422364,105.4511390246582,99.46556245422363Q105.4682290246582,99.52209845422364,105.47971902465821,99.58004245422363Q105.4912190246582,99.63799245422364,105.4969890246582,99.69678245422364Q105.5027590246582,99.75558245422363,105.5027590246582,99.81466245422364Z" fill="#D8D8D8" fill-opacity="1"/></g><g transform="matrix(0.9993908405303955,0.034979913383722305,-0.034819263964891434,0.9993905425071716,3.7442051885610965,-2.85878709770752)"><path d="M84.77350737228393,106.07044792175293C84.77350737228393,106.07044792175293,114.34620737228394,106.07044792175293,114.34620737228394,106.07044792175293C115.00840737228394,106.07044792175293,115.54510737228394,106.60886392175293,115.54510737228394,107.27303792175293C115.54510737228394,107.93720792175293,115.00840737228394,108.47561792175293,114.34620737228394,108.47561792175293C114.34620737228394,108.47561792175293,84.77350737228393,108.47561792175293,84.77350737228393,108.47561792175293C84.11137137228394,108.47561792175293,83.57460737228394,107.93720792175293,83.57460737228394,107.27303792175293C83.57460737228394,106.60886392175293,84.11137137228394,106.07044792175293,84.77350737228393,106.07044792175293Z" fill="#D8D8D8" fill-opacity="1"/></g><g transform="matrix(0.9975652098655701,0.06991658359766006,-0.06959671527147293,0.9975628852844238,8.099204301706934,-5.403880431267254)"><path d="M82.44670772758484,113.53097534179688C82.44670772758484,113.53097534179688,112.01989772758483,113.53097534179688,112.01989772758483,113.53097534179688C112.68199772758484,113.53097534179688,113.21879772758484,114.06938334179688,113.21879772758484,114.73354534179687C113.21879772758484,115.39770534179688,112.68199772758484,115.93611534179688,112.01989772758483,115.93611534179688C112.01989772758483,115.93611534179688,82.44670772758484,115.93611534179688,82.44670772758484,115.93611534179688C81.78456972758484,115.93611534179688,81.24779772758484,115.39770534179688,81.24779772758484,114.73354534179687C81.24779772758484,114.06938334179688,81.78456972758484,113.53097534179688,82.44670772758484,113.53097534179688Z" fill="#D8D8D8" fill-opacity="1"/></g><g transform="matrix(0.9925497770309448,0.12214583903551102,-0.12159345299005508,0.992542564868927,15.346986001785169,-8.689370843488092)"><path d="M79.75031859416961,121.40259552001953C79.75031859416961,121.40259552001953,93.33846859416961,121.40259552001953,93.33846859416961,121.40259552001953C94.00056859416962,121.40259552001953,94.53736859416962,121.94098652001954,94.53736859416962,122.60512552001953C94.53736859416962,123.26926552001953,94.00056859416962,123.80765552001954,93.33846859416961,123.80765552001954C93.33846859416961,123.80765552001954,79.75031859416961,123.80765552001954,79.75031859416961,123.80765552001954C79.08815659416962,123.80765552001954,78.55136859416962,123.26926552001953,78.55136859416962,122.60512552001953C78.55136859416962,121.94098652001954,79.08815659416962,121.40259552001953,79.75031859416961,121.40259552001953Z" fill="#D8D8D8" fill-opacity="1"/></g><g transform="matrix(0.9925498962402344,0.1221449077129364,-0.1215943843126297,0.9925423860549927,15.756274675149996,-10.901176792731178)"><path d="M99.19529952087402,124.85234223510743Q99.19529952087402,124.91142223510742,99.18952952087402,124.97021223510743Q99.18375952087402,125.02900223510743,99.17225952087402,125.08694223510741Q99.16076952087403,125.14488223510742,99.14367952087403,125.20141223510743Q99.12657952087402,125.25795223510742,99.10403952087403,125.31253223510743Q99.08149952087402,125.36711223510743,99.05372952087403,125.41921223510742Q99.02596952087403,125.47131223510742,98.99323952087403,125.52043223510742Q98.96051952087403,125.56955223510742,98.92314952087402,125.61521223510742Q98.88578952087403,125.66088223510742,98.84413952087402,125.70265223510742Q98.80248952087402,125.74443223510742,98.75695952087402,125.78190223510742Q98.71142952087402,125.81938223510743,98.66244952087402,125.85220223510743Q98.61347952087402,125.88502223510743,98.56152952087402,125.91287223510741Q98.50958952087403,125.94072223510742,98.45516952087402,125.96333223510742Q98.40074952087403,125.98593223510743,98.34438952087402,126.00308223510743Q98.28801952087403,126.02023223510743,98.23024952087403,126.03176223510742Q98.17248952087402,126.04328223510743,98.11386952087402,126.04907223510742Q98.05524952087403,126.05486223510742,97.99634952087402,126.05486223510742Q97.93744952087403,126.05486223510742,97.87882952087402,126.04907223510742Q97.82021952087402,126.04328223510743,97.76244652087402,126.03176223510742Q97.70467752087403,126.02023223510743,97.64831352087403,126.00308223510743Q97.59194852087403,125.98593223510743,97.53753152087403,125.96333223510742Q97.48311452087403,125.94072223510742,97.43116852087402,125.91287223510741Q97.37922352087402,125.88502223510743,97.33024852087402,125.85220223510743Q97.28127452087402,125.81938223510743,97.23574452087402,125.78190223510742Q97.19021352087402,125.74443223510742,97.14856452087402,125.70265223510742Q97.10691552087403,125.66088223510742,97.06954852087402,125.61521223510742Q97.03218252087402,125.56955223510742,96.99945952087403,125.52043223510742Q96.96673552087402,125.47131223510742,96.93897052087402,125.41921223510742Q96.91120452087402,125.36711223510743,96.88866422087402,125.31253223510743Q96.86612392087402,125.25795223510742,96.84902592087403,125.20141223510743Q96.83192802087402,125.14488223510742,96.82043702087402,125.08694223510741Q96.80894612087403,125.02900223510743,96.80317280087402,124.97021223510743Q96.79739952087402,124.91142223510742,96.79739952087402,124.85234223510743Q96.79739952087402,124.79327223510742,96.80317280087402,124.73447223510742Q96.80894612087403,124.67568223510742,96.82043702087402,124.61774323510743Q96.83192802087402,124.55980223510743,96.84902592087403,124.50327023510742Q96.86612392087402,124.44673823510742,96.88866422087402,124.39215823510742Q96.91120452087402,124.33757923510743,96.93897052087402,124.28547923510742Q96.96673552087402,124.23337823510742,96.99945952087403,124.18425823510742Q97.03218252087402,124.13513823510742,97.06954852087402,124.08947223510742Q97.10691552087403,124.04380523510743,97.14856452087402,124.00203223510742Q97.19021352087402,123.96025923510742,97.23574452087402,123.92278223510742Q97.28127452087402,123.88530423510743,97.33024852087402,123.85248323510743Q97.37922352087402,123.81966223510742,97.43116852087402,123.79181423510742Q97.48311452087403,123.76396623510742,97.53753152087403,123.74135873510743Q97.59194852087403,123.71875123510742,97.64831352087403,123.70160243510742Q97.70467752087403,123.68445353510742,97.76244652087402,123.67292833510743Q97.82021952087402,123.66140313510742,97.87882952087402,123.65561270510742Q97.93744952087403,123.64982223510742,97.99634952087402,123.64982223510742Q98.05524952087403,123.64982223510742,98.11386952087402,123.65561270510742Q98.17248952087402,123.66140313510742,98.23024952087403,123.67292833510743Q98.28801952087403,123.68445353510742,98.34438952087402,123.70160243510742Q98.40074952087403,123.71875123510742,98.45516952087402,123.74135873510743Q98.50958952087403,123.76396623510742,98.56152952087402,123.79181423510742Q98.61347952087402,123.81966223510742,98.66244952087402,123.85248323510743Q98.71142952087402,123.88530423510743,98.75695952087402,123.92278223510742Q98.80248952087402,123.96025923510742,98.84413952087402,124.00203223510742Q98.88578952087403,124.04380523510743,98.92314952087402,124.08947223510742Q98.96051952087403,124.13513823510742,98.99323952087403,124.18425823510742Q99.02596952087403,124.23337823510742,99.05372952087403,124.28547923510742Q99.08149952087402,124.33757923510743,99.10403952087403,124.39215823510742Q99.12657952087402,124.44673723510742,99.14367952087403,124.50327023510742Q99.16076952087403,124.55980223510743,99.17225952087402,124.61774323510743Q99.18375952087402,124.67568223510742,99.18952952087402,124.73447223510742Q99.19529952087402,124.79327223510742,99.19529952087402,124.85234223510743Z" fill="#D8D8D8" fill-opacity="1"/></g></g><g><g><path d="M91.11602547764778,66.54310512542725C91.11602547764778,66.54310512542725,111.89682547764778,66.54310512542725,111.89682547764778,66.54310512542725C111.89682547764778,66.54310512542725,111.89682547764778,73.75861512542724,111.89682547764778,73.75861512542724C111.89682547764778,73.75861512542724,91.11602547764778,73.75861512542724,91.11602547764778,73.75861512542724C91.11602547764778,73.75861512542724,91.11602547764778,66.54310512542725,91.11602547764778,66.54310512542725Z" fill="#ACB4C2" fill-opacity="1"/></g><g><path d="M92.31491488769531,63.73707056045532C92.31491488769531,63.73707056045532,113.09578488769532,63.73707056045532,113.09578488769532,63.73707056045532C113.09578488769532,63.73707056045532,111.49728488769532,66.54310056045531,111.49728488769532,66.54310056045531C111.49728488769532,66.54310056045531,90.71638488769531,66.54310056045531,90.71638488769531,66.54310056045531C90.71638488769531,66.54310056045531,92.31491488769531,63.73707056045532,92.31491488769531,63.73707056045532Z" fill-rule="evenodd" fill="#909AA9" fill-opacity="1"/></g><g><path d="M101.9060700680542,57.323280334472656C103.8924700680542,57.323280334472656,105.5027500680542,58.93853033447266,105.5027500680542,60.931040334472655C105.5027500680542,62.923540334472655,103.8924700680542,64.53879033447265,101.9060700680542,64.53879033447265C99.9196800680542,64.53879033447265,98.3093900680542,62.923540334472655,98.3093900680542,60.931040334472655C98.3093900680542,58.93853033447266,99.9196800680542,57.323280334472656,101.9060700680542,57.323280334472656ZM101.9060700680542,58.92673033447266C100.80252006805419,58.92673033447266,99.9079200680542,59.82409033447266,99.9079200680542,60.931040334472655C99.9079200680542,62.03798033447266,100.80252006805419,62.935340334472656,101.9060700680542,62.935340334472656C103.0096200680542,62.935340334472656,103.9042300680542,62.03798033447266,103.9042300680542,60.931040334472655C103.9042300680542,59.82409033447266,103.0096200680542,58.92673033447266,101.9060700680542,58.92673033447266Z" fill-rule="evenodd" fill="#A2ABB9" fill-opacity="1"/></g></g></g></g></svg>