<svg xmlns="http://www.w3.org/2000/svg" xmlns:xlink="http://www.w3.org/1999/xlink" fill="none" version="1.1" width="176" height="61" viewBox="0 0 176 61"><defs><linearGradient x1="88" y1="73.76925086975098" x2="88" y2="99.14188003540039" gradientUnits="userSpaceOnUse" id="master_svg0_808_000442"><stop offset="0%" stop-color="#FFFFFF" stop-opacity="0"/><stop offset="100%" stop-color="#FFFFFF" stop-opacity="0.30000001192092896"/></linearGradient></defs><g><g><path d="M9.614,7.22575C8.118,8.97166,5.5,10.842,1.936,12.162C2.508,12.558,3.344,13.438,3.718,14.054C5.5,13.262,7.04,12.382,8.404,11.414L13.926,11.414C12.958,12.404,11.704,13.262,10.296,14.01C9.614,13.416,8.8,12.8,8.096,12.338L6.116,13.592C6.688,14.01,7.348,14.538,7.92,15.066C5.874,15.836,3.63,16.408,1.386,16.738C1.826,17.31,2.376,18.388,2.618,19.07C8.976,17.86,15.246,15.11,18.128,10.006L16.39,8.99366L15.928,9.104L11.264,9.104C11.66,8.70628,12.078,8.30856,12.452,7.88884L9.614,7.22575ZM13.244,15.132C11.572,17.266,8.514,19.422,3.982,20.8537C4.532,21.3161,5.28,22.2854,5.588,22.9021C8.096,21.9771,10.208,20.8537,11.99,19.598L16.984,19.598C16.038,20.8097,14.806,21.8008,13.332,22.5938C12.628,21.9991,11.814,21.3824,11.132,20.8977L8.954,22.1531C9.548,22.5938,10.23,23.1665,10.824,23.7172C8.03,24.7085,4.708,25.2369,1.166,25.4792C1.584,26.1402,2.024,27.3076,2.2,28.0343C10.67,27.2193,17.908,24.8845,21.032,18.168L19.206,17.134L18.722,17.266L14.762,17.266C15.246,16.782,15.708,16.276,16.126,15.77L13.244,15.132ZM31.042,18.784C30.47,20.126,29.48,21.49,28.38,22.414C28.952,22.7,29.92,23.316,30.36,23.712C31.46,22.656,32.604,21.006,33.308,19.378L31.042,18.784ZM37.862,19.642C38.874,20.874,40.04,22.59,40.524,23.69L42.724,22.59C42.196,21.468,40.964,19.84,39.93,18.696L37.862,19.642ZM23.276,9.58284C24.552,10.4202,26.136,11.6546,26.84,12.536L28.754,10.7069C27.962,9.86919,26.334,8.70112,25.058,7.95175L23.276,9.58284ZM35.178,7.00369C33.594,9.34016,30.58,11.3239,27.786,12.426C28.424,12.998,29.128,13.8347,29.48,14.495C30.228,14.1427,30.976,13.7243,31.702,13.262L31.702,14.648L34.518,14.648L34.518,16.1L29.172,16.1L29.172,18.256L34.518,18.256L34.518,22.062C34.518,22.304,34.43,22.37,34.166,22.37C33.924,22.37,33.066,22.37,32.34,22.348C32.604,22.986,32.912,23.888,33,24.548C34.364,24.548,35.354,24.526,36.124,24.174C36.894,23.822,37.07,23.25,37.07,22.106L37.07,18.256L42.658,18.256L42.658,16.1L37.07,16.1L37.07,14.648L39.908,14.648L39.908,13.35C40.568,13.702,41.25,13.988,41.91,14.23C42.284,13.548,43.01,12.492,43.56,11.941C41.14,11.3239,38.588,10.0235,37.004,8.56878L37.4,8.01775L35.178,7.00369ZM38.478,12.514L32.824,12.514C33.814,11.809,34.76,11.0153,35.596,10.1559C36.454,11.0373,37.444,11.831,38.478,12.514ZM28.028,14.846L23.012,14.846L23.012,17.266L25.454,17.266L25.454,23.47C24.552,23.932,23.54,24.702,22.616,25.626L24.332,28.0061C25.278,26.682,26.334,25.318,27.016,25.318C27.5,25.318,28.226,25.978,29.106,26.528C30.624,27.386,32.406,27.65,35.09,27.65C37.444,27.65,40.942,27.54,42.592,27.408C42.636,26.704,43.032,25.428,43.318,24.702C41.074,25.032,37.444,25.23,35.178,25.23C32.802,25.23,30.866,25.12,29.436,24.24C28.82,23.888,28.402,23.58,28.028,23.36L28.028,14.846ZM49.258,7.33747C48.312,8.796,46.354,10.6,44.638,11.656C45.034,12.206,45.672,13.284,45.936,13.878C48.026,12.536,50.27,10.38,51.744,8.356L49.258,7.33747ZM52.624,8.4L52.624,10.776L59.994,10.776C57.772,13.152,54.164,15.176,50.732,16.232C51.26,16.76,51.964,17.772,52.316,18.41C54.45,17.662,56.606,16.628,58.542,15.33C60.434,16.254,62.678,17.442,63.8,18.278L65.252,16.166C64.196,15.462,62.348,14.516,60.632,13.746C62.106,12.47,63.36,11.018,64.262,9.368L62.37,8.28931L61.93,8.4L52.624,8.4ZM52.668,18.586L52.668,21.006L57.024,21.006L57.024,25.032L51.458,25.032L51.458,27.452L65.164,27.452L65.164,25.032L59.752,25.032L59.752,21.006L63.954,21.006L63.954,18.586L52.668,18.586ZM49.808,12.162C48.532,14.318,46.354,16.474,44.418,17.86C44.814,18.498,45.474,19.95,45.65,20.522C46.244,20.038,46.882,19.488,47.498,18.894L47.498,27.98L50.182,27.98L50.182,15.902C50.908,14.978,51.546,14.054,52.096,13.13L49.808,12.162ZM70.378,20.345L72.622,20.345L73.216,12.8155L73.326,9.53506L69.674,9.53506L69.784,12.8155L70.378,20.345ZM71.5,26.198C72.6,26.198,73.436,25.406,73.436,24.262C73.436,23.096,72.6,22.304,71.5,22.304C70.4,22.304,69.564,23.096,69.564,24.262C69.564,25.406,70.378,26.198,71.5,26.198ZM91.234,11.942L91.234,21.05L93.588,21.05L91.564,21.864C92.224,22.854,92.994,23.668,93.83,24.35C92.598,24.9,90.97,25.318,88.858,25.648C89.43,26.264,90.156,27.386,90.464,27.9831C93.016,27.474,94.974,26.77,96.426,25.912C99.616,27.32,103.664,27.65,108.482,27.738C108.636,26.858,109.12,25.736,109.604,25.142C105.116,25.164,101.464,25.076,98.604,24.152C99.44,23.228,99.946,22.172,100.232,21.05L107.316,21.05L107.316,11.942L100.562,11.942L100.562,10.666L108.702,10.666L108.702,8.312L89.32,8.312L89.32,10.666L97.79,10.666L97.79,11.942L91.234,11.942ZM93.742,17.486L97.79,17.486L97.79,18.168L97.768,18.916L93.742,18.916L93.742,17.486ZM100.54,18.916L100.562,18.19L100.562,17.486L104.698,17.486L104.698,18.916L100.54,18.916ZM93.742,14.076L97.79,14.076L97.79,15.506L93.742,15.506L93.742,14.076ZM100.562,14.076L104.698,14.076L104.698,15.506L100.562,15.506L100.562,14.076ZM97.372,21.05C97.108,21.754,96.712,22.392,96.074,22.986C95.282,22.458,94.578,21.82,93.94,21.05L97.372,21.05ZM115.17,7.38181C114.136,10.512,112.376,13.658,110.528,15.66C110.968,16.32,111.716,17.75,111.958,18.41C112.354,17.97,112.728,17.508,113.102,17.002L113.102,27.9463L115.61,27.9463L115.61,12.888C116.292,11.546,116.93,10.138,117.436,8.752L117.436,10.754L122.826,10.754L122.826,12.074L117.722,12.074L117.722,20.962L122.562,20.962C122.364,21.732,122.056,22.458,121.506,23.096C120.582,22.59,119.834,21.974,119.24,21.27L116.93,22.04C117.678,23.052,118.558,23.91,119.592,24.636C118.668,25.12,117.48,25.516,115.984,25.824C116.534,26.352,117.304,27.408,117.612,28.0044C119.416,27.452,120.846,26.77,121.924,25.956C124.19,26.99,126.896,27.562,130.086,27.826C130.416,27.1,131.098,25.956,131.692,25.362C128.634,25.208,125.972,24.812,123.794,24.086C124.498,23.14,124.916,22.084,125.158,20.962L130.438,20.962L130.438,12.074L125.422,12.074L125.422,10.754L130.966,10.754L130.966,8.444L117.546,8.444L117.656,8.15628L115.17,7.38181ZM120.164,17.398L122.826,17.398L122.826,18.168L122.804,19.026L120.164,19.026L120.164,17.398ZM125.422,17.398L127.864,17.398L127.864,19.026L125.4,19.026L125.422,18.19L125.422,17.398ZM120.164,13.988L122.826,13.988L122.826,15.594L120.164,15.594L120.164,13.988ZM125.422,13.988L127.864,13.988L127.864,15.594L125.422,15.594L125.422,13.988ZM140.712,20.368C140.404,22.964,139.59,25.23,138.006,26.616C138.556,26.946,139.568,27.672,140.008,28.0721C140.778,27.276,141.416,26.286,141.922,25.12C143.616,27.188,146.014,27.738,149.072,27.738L152.724,27.738C152.812,27.1,153.142,26.022,153.472,25.472C152.548,25.516,149.908,25.516,149.248,25.516C148.588,25.516,147.972,25.494,147.378,25.428L147.378,23.382L152.218,23.382L152.218,21.336L147.378,21.336L147.378,20.06L152.064,20.06L152.064,16.98L153.45,16.98L153.45,14.934L152.064,14.934L152.064,11.942L147.378,11.942L147.378,11.018L152.944,11.018L152.944,8.95L147.378,8.95L147.378,7.29244L144.936,7.29244L144.936,8.95L139.898,8.95L139.898,11.018L144.936,11.018L144.936,11.942L140.822,11.942L140.822,13.944L144.936,13.944L144.936,14.934L139.524,14.934L139.524,16.98L144.936,16.98L144.936,18.102L140.822,18.102L140.822,20.06L144.936,20.06L144.936,24.79C144.034,24.372,143.286,23.712,142.714,22.722C142.89,22.084,143,21.38,143.11,20.676L140.712,20.368ZM149.622,16.98L149.622,18.102L147.378,18.102L147.378,16.98L149.622,16.98ZM149.622,14.934L147.378,14.934L147.378,13.944L149.622,13.944L149.622,14.934ZM135.124,7.31444L135.124,11.48L132.814,11.48L132.814,13.9L135.124,13.9L135.124,17.706L132.462,18.366L133.034,20.896L135.124,20.302L135.124,25.186C135.124,25.472,135.036,25.56,134.772,25.56C134.508,25.582,133.738,25.582,132.924,25.538C133.254,26.242,133.54,27.342,133.606,27.98C135.036,27.98,136.004,27.892,136.664,27.474C137.346,27.078,137.544,26.396,137.544,25.186L137.544,19.598L139.656,18.96L139.326,16.584L137.544,17.068L137.544,13.9L139.546,13.9L139.546,11.48L137.544,11.48L137.544,7.31444L135.124,7.31444ZM158.378,20.345L160.622,20.345L161.216,12.8155L161.326,9.53506L157.674,9.53506L157.784,12.8155L158.378,20.345ZM159.5,26.198C160.6,26.198,161.436,25.406,161.436,24.262C161.436,23.096,160.6,22.304,159.5,22.304C158.4,22.304,157.564,23.096,157.564,24.262C157.564,25.406,158.378,26.198,159.5,26.198Z" fill="#FFFFFF" fill-opacity="1"/></g><g transform="matrix(1,0,0,-1,0,122)"><path d="M9.614,68.22575C8.118,69.97166,5.5,71.842,1.936,73.162C2.508,73.55799999999999,3.344,74.438,3.718,75.054C5.5,74.262,7.04,73.382,8.404,72.414L13.926,72.414C12.958,73.404,11.704,74.262,10.296,75.01C9.614,74.416,8.8,73.8,8.096,73.338L6.116,74.592C6.688,75.01,7.348,75.538,7.92,76.066C5.874,76.836,3.63,77.408,1.386,77.738C1.826,78.31,2.376,79.388,2.618,80.07C8.976,78.86,15.246,76.11,18.128,71.006L16.39,69.99366L15.928,70.104L11.264,70.104C11.66,69.70627999999999,12.078,69.30856,12.452,68.88884L9.614,68.22575ZM13.244,76.132C11.572,78.26599999999999,8.514,80.422,3.982,81.8537C4.532,82.3161,5.28,83.2854,5.588,83.9021C8.096,82.97710000000001,10.208,81.8537,11.99,80.598L16.984,80.598C16.038,81.80969999999999,14.806,82.8008,13.332,83.5938C12.628,82.9991,11.814,82.3824,11.132,81.8977L8.954,83.1531C9.548,83.5938,10.23,84.1665,10.824,84.71719999999999C8.03,85.7085,4.708,86.23689999999999,1.166,86.47919999999999C1.584,87.1402,2.024,88.30760000000001,2.2,89.0343C10.67,88.2193,17.908,85.8845,21.032,79.168L19.206,78.134L18.722,78.26599999999999L14.762,78.26599999999999C15.246,77.782,15.708,77.276,16.126,76.77L13.244,76.132ZM31.042,79.78399999999999C30.47,81.126,29.48,82.49,28.38,83.414C28.952,83.7,29.92,84.316,30.36,84.712C31.46,83.656,32.604,82.006,33.308,80.378L31.042,79.78399999999999ZM37.862,80.642C38.874,81.874,40.04,83.59,40.524,84.69L42.724,83.59C42.196,82.468,40.964,80.84,39.93,79.696L37.862,80.642ZM23.276,70.58284C24.552,71.4202,26.136,72.6546,26.84,73.536L28.754,71.7069C27.962,70.86919,26.334,69.70112,25.058,68.95175L23.276,70.58284ZM35.178,68.00369C33.594,70.34016,30.58,72.3239,27.786,73.426C28.424,73.998,29.128,74.8347,29.48,75.495C30.228,75.1427,30.976,74.7243,31.702,74.262L31.702,75.648L34.518,75.648L34.518,77.1L29.172,77.1L29.172,79.256L34.518,79.256L34.518,83.062C34.518,83.304,34.43,83.37,34.166,83.37C33.924,83.37,33.066,83.37,32.34,83.348C32.604,83.986,32.912,84.888,33,85.548C34.364,85.548,35.354,85.526,36.124,85.174C36.894,84.822,37.07,84.25,37.07,83.106L37.07,79.256L42.658,79.256L42.658,77.1L37.07,77.1L37.07,75.648L39.908,75.648L39.908,74.35C40.568,74.702,41.25,74.988,41.91,75.23C42.284,74.548,43.01,73.492,43.56,72.941C41.14,72.3239,38.588,71.0235,37.004,69.56878L37.4,69.01775L35.178,68.00369ZM38.478,73.514L32.824,73.514C33.814,72.809,34.76,72.0153,35.596,71.1559C36.454,72.0373,37.444,72.831,38.478,73.514ZM28.028,75.846L23.012,75.846L23.012,78.26599999999999L25.454,78.26599999999999L25.454,84.47C24.552,84.932,23.54,85.702,22.616,86.626L24.332,89.0061C25.278,87.682,26.334,86.318,27.016,86.318C27.5,86.318,28.226,86.97800000000001,29.106,87.52799999999999C30.624,88.386,32.406,88.65,35.09,88.65C37.444,88.65,40.942,88.53999999999999,42.592,88.408C42.636,87.70400000000001,43.032,86.428,43.318,85.702C41.074,86.032,37.444,86.23,35.178,86.23C32.802,86.23,30.866,86.12,29.436,85.24C28.82,84.888,28.402,84.58,28.028,84.36L28.028,75.846ZM49.258,68.33747C48.312,69.79599999999999,46.354,71.6,44.638,72.656C45.034,73.206,45.672,74.284,45.936,74.878C48.026,73.536,50.27,71.38,51.744,69.356L49.258,68.33747ZM52.624,69.4L52.624,71.776L59.994,71.776C57.772,74.152,54.164,76.176,50.732,77.232C51.26,77.76,51.964,78.77199999999999,52.316,79.41C54.45,78.662,56.606,77.628,58.542,76.33C60.434,77.254,62.678,78.44200000000001,63.8,79.27799999999999L65.252,77.166C64.196,76.462,62.348,75.516,60.632,74.746C62.106,73.47,63.36,72.018,64.262,70.368L62.37,69.28931L61.93,69.4L52.624,69.4ZM52.668,79.586L52.668,82.006L57.024,82.006L57.024,86.032L51.458,86.032L51.458,88.452L65.164,88.452L65.164,86.032L59.752,86.032L59.752,82.006L63.954,82.006L63.954,79.586L52.668,79.586ZM49.808,73.162C48.532,75.318,46.354,77.474,44.418,78.86C44.814,79.498,45.474,80.95,45.65,81.52199999999999C46.244,81.038,46.882,80.488,47.498,79.894L47.498,88.98L50.182,88.98L50.182,76.902C50.908,75.978,51.546,75.054,52.096,74.13L49.808,73.162ZM70.378,81.345L72.622,81.345L73.216,73.8155L73.326,70.53506L69.674,70.53506L69.784,73.8155L70.378,81.345ZM71.5,87.19800000000001C72.6,87.19800000000001,73.436,86.406,73.436,85.262C73.436,84.096,72.6,83.304,71.5,83.304C70.4,83.304,69.564,84.096,69.564,85.262C69.564,86.406,70.378,87.19800000000001,71.5,87.19800000000001ZM91.234,72.94200000000001L91.234,82.05L93.588,82.05L91.564,82.864C92.224,83.854,92.994,84.668,93.83,85.35C92.598,85.9,90.97,86.318,88.858,86.648C89.43,87.264,90.156,88.386,90.464,88.98310000000001C93.016,88.474,94.974,87.77,96.426,86.912C99.616,88.32,103.664,88.65,108.482,88.738C108.636,87.858,109.12,86.736,109.604,86.142C105.116,86.164,101.464,86.076,98.604,85.152C99.44,84.22800000000001,99.946,83.172,100.232,82.05L107.316,82.05L107.316,72.94200000000001L100.562,72.94200000000001L100.562,71.666L108.702,71.666L108.702,69.312L89.32,69.312L89.32,71.666L97.79,71.666L97.79,72.94200000000001L91.234,72.94200000000001ZM93.742,78.486L97.79,78.486L97.79,79.168L97.768,79.916L93.742,79.916L93.742,78.486ZM100.54,79.916L100.562,79.19L100.562,78.486L104.698,78.486L104.698,79.916L100.54,79.916ZM93.742,75.076L97.79,75.076L97.79,76.506L93.742,76.506L93.742,75.076ZM100.562,75.076L104.698,75.076L104.698,76.506L100.562,76.506L100.562,75.076ZM97.372,82.05C97.108,82.754,96.712,83.392,96.074,83.986C95.282,83.458,94.578,82.82,93.94,82.05L97.372,82.05ZM115.17,68.38181C114.136,71.512,112.376,74.658,110.528,76.66C110.968,77.32,111.716,78.75,111.958,79.41C112.354,78.97,112.728,78.508,113.102,78.002L113.102,88.94630000000001L115.61,88.94630000000001L115.61,73.888C116.292,72.54599999999999,116.93,71.138,117.436,69.752L117.436,71.754L122.826,71.754L122.826,73.074L117.722,73.074L117.722,81.962L122.562,81.962C122.364,82.732,122.056,83.458,121.506,84.096C120.582,83.59,119.834,82.974,119.24,82.27L116.93,83.03999999999999C117.678,84.05199999999999,118.558,84.91,119.592,85.636C118.668,86.12,117.48,86.51599999999999,115.984,86.824C116.534,87.352,117.304,88.408,117.612,89.0044C119.416,88.452,120.846,87.77,121.924,86.956C124.19,87.99,126.896,88.562,130.086,88.826C130.416,88.1,131.098,86.956,131.692,86.362C128.634,86.208,125.972,85.812,123.794,85.086C124.498,84.14,124.916,83.084,125.158,81.962L130.438,81.962L130.438,73.074L125.422,73.074L125.422,71.754L130.966,71.754L130.966,69.444L117.546,69.444L117.656,69.15628L115.17,68.38181ZM120.164,78.398L122.826,78.398L122.826,79.168L122.804,80.026L120.164,80.026L120.164,78.398ZM125.422,78.398L127.864,78.398L127.864,80.026L125.4,80.026L125.422,79.19L125.422,78.398ZM120.164,74.988L122.826,74.988L122.826,76.594L120.164,76.594L120.164,74.988ZM125.422,74.988L127.864,74.988L127.864,76.594L125.422,76.594L125.422,74.988ZM140.712,81.368C140.404,83.964,139.59,86.23,138.006,87.616C138.556,87.946,139.568,88.672,140.008,89.0721C140.778,88.276,141.416,87.286,141.922,86.12C143.616,88.188,146.014,88.738,149.072,88.738L152.724,88.738C152.812,88.1,153.142,87.02199999999999,153.472,86.47200000000001C152.548,86.51599999999999,149.908,86.51599999999999,149.248,86.51599999999999C148.588,86.51599999999999,147.972,86.494,147.378,86.428L147.378,84.382L152.218,84.382L152.218,82.336L147.378,82.336L147.378,81.06L152.064,81.06L152.064,77.98L153.45,77.98L153.45,75.934L152.064,75.934L152.064,72.94200000000001L147.378,72.94200000000001L147.378,72.018L152.944,72.018L152.944,69.95L147.378,69.95L147.378,68.29244L144.936,68.29244L144.936,69.95L139.898,69.95L139.898,72.018L144.936,72.018L144.936,72.94200000000001L140.822,72.94200000000001L140.822,74.944L144.936,74.944L144.936,75.934L139.524,75.934L139.524,77.98L144.936,77.98L144.936,79.102L140.822,79.102L140.822,81.06L144.936,81.06L144.936,85.78999999999999C144.034,85.372,143.286,84.712,142.714,83.72200000000001C142.89,83.084,143,82.38,143.11,81.676L140.712,81.368ZM149.622,77.98L149.622,79.102L147.378,79.102L147.378,77.98L149.622,77.98ZM149.622,75.934L147.378,75.934L147.378,74.944L149.622,74.944L149.622,75.934ZM135.124,68.31444L135.124,72.48L132.814,72.48L132.814,74.9L135.124,74.9L135.124,78.706L132.462,79.366L133.034,81.896L135.124,81.30199999999999L135.124,86.186C135.124,86.47200000000001,135.036,86.56,134.772,86.56C134.508,86.582,133.738,86.582,132.924,86.538C133.254,87.242,133.54,88.342,133.606,88.98C135.036,88.98,136.004,88.892,136.664,88.474C137.346,88.078,137.544,87.396,137.544,86.186L137.544,80.598L139.656,79.96000000000001L139.326,77.584L137.544,78.068L137.544,74.9L139.546,74.9L139.546,72.48L137.544,72.48L137.544,68.31444L135.124,68.31444ZM158.378,81.345L160.622,81.345L161.216,73.8155L161.326,70.53506L157.674,70.53506L157.784,73.8155L158.378,81.345ZM159.5,87.19800000000001C160.6,87.19800000000001,161.436,86.406,161.436,85.262C161.436,84.096,160.6,83.304,159.5,83.304C158.4,83.304,157.564,84.096,157.564,85.262C157.564,86.406,158.378,87.19800000000001,159.5,87.19800000000001Z" fill="url(#master_svg0_808_000442)" fill-opacity="1"/></g></g></svg>