<svg xmlns="http://www.w3.org/2000/svg" xmlns:xlink="http://www.w3.org/1999/xlink" fill="none" version="1.1" width="217" height="185.4537353515625" viewBox="0 0 217 185.4537353515625"><defs><linearGradient x1="0.9251821637153625" y1="0.9879999756813049" x2="0.40792229771614075" y2="1" id="master_svg0_810_98078"><stop offset="0%" stop-color="#E0E5EF" stop-opacity="0"/><stop offset="100%" stop-color="#E0E5EF" stop-opacity="1"/></linearGradient><linearGradient x1="0.9251821637153625" y1="0.9879999756813049" x2="0.40792229771614075" y2="1" id="master_svg1_810_98078"><stop offset="0%" stop-color="#E0E5EF" stop-opacity="0"/><stop offset="100%" stop-color="#E0E5EF" stop-opacity="1"/></linearGradient><linearGradient x1="0.9203914403915405" y1="0.9879999756813049" x2="0.4089598059654236" y2="1" id="master_svg2_810_98081"><stop offset="0%" stop-color="#E0E5EF" stop-opacity="0"/><stop offset="100%" stop-color="#E0E5EF" stop-opacity="1"/></linearGradient><linearGradient x1="1.4458807706832886" y1="0.6700169444084167" x2="0.29515963792800903" y2="0.6741976737976074" id="master_svg3_810_98085"><stop offset="0%" stop-color="#E0E5EF" stop-opacity="0"/><stop offset="100%" stop-color="#E0E5EF" stop-opacity="1"/></linearGradient><linearGradient x1="0.6651614904403687" y1="0.8458459377288818" x2="0.33659109473228455" y2="0.1442948579788208" id="master_svg4_810_99344"><stop offset="0%" stop-color="#C6D0E0" stop-opacity="1"/><stop offset="100%" stop-color="#FFFFFF" stop-opacity="1"/></linearGradient><linearGradient x1="0.7477150559425354" y1="0.806862473487854" x2="0.21677668392658234" y2="0.15235836803913116" id="master_svg5_810_99341"><stop offset="0%" stop-color="#B3BECE" stop-opacity="1"/><stop offset="100%" stop-color="#EFF2F6" stop-opacity="1"/></linearGradient><linearGradient x1="0.4985002875328064" y1="1.0006405115127563" x2="0.4985002875328064" y2="-0.0069305128417909145" id="master_svg6_810_99335"><stop offset="0%" stop-color="#B3BECE" stop-opacity="1"/><stop offset="100%" stop-color="#EFF2F6" stop-opacity="1"/></linearGradient><linearGradient x1="0.4962199330329895" y1="0.9998393654823303" x2="0.4962199330329895" y2="-0.005292375572025776" id="master_svg7_810_99332"><stop offset="0%" stop-color="#B3BECE" stop-opacity="1"/><stop offset="100%" stop-color="#EFF2F6" stop-opacity="1"/></linearGradient><linearGradient x1="0.49901044368743896" y1="0.9985201954841614" x2="0.4990053176879883" y2="-0.00902501493692398" id="master_svg8_810_99338"><stop offset="0%" stop-color="#B3BECE" stop-opacity="1"/><stop offset="100%" stop-color="#EFF2F6" stop-opacity="1"/></linearGradient><linearGradient x1="0.7168588638305664" y1="0.9297855496406555" x2="0.31219401955604553" y2="0.06238637864589691" id="master_svg9_810_99327"><stop offset="0%" stop-color="#C6D0E0" stop-opacity="1"/><stop offset="100%" stop-color="#FFFFFF" stop-opacity="1"/></linearGradient><linearGradient x1="0.7849063277244568" y1="0.8113237619400024" x2="0.25528064370155334" y2="0.15588636696338654" id="master_svga_810_99324"><stop offset="0%" stop-color="#B3BECE" stop-opacity="1"/><stop offset="100%" stop-color="#EFF2F6" stop-opacity="1"/></linearGradient><linearGradient x1="0.9976163506507874" y1="0.49366745352745056" x2="-0.3059506118297577" y2="0.49366745352745056" id="master_svgb_810_99314"><stop offset="0%" stop-color="#B3BECE" stop-opacity="1"/><stop offset="100%" stop-color="#EFF2F6" stop-opacity="1"/></linearGradient><linearGradient x1="0.9999622702598572" y1="0.5026302337646484" x2="-0.5223647952079773" y2="0.5026302337646484" id="master_svgc_810_99320"><stop offset="0%" stop-color="#B3BECE" stop-opacity="1"/><stop offset="100%" stop-color="#EFF2F6" stop-opacity="1"/></linearGradient><linearGradient x1="1.0001029968261719" y1="0.49635928869247437" x2="-0.2302049994468689" y2="0.49635928869247437" id="master_svgd_810_99317"><stop offset="0%" stop-color="#B3BECE" stop-opacity="1"/><stop offset="100%" stop-color="#EFF2F6" stop-opacity="1"/></linearGradient><linearGradient x1="0.5497000217437744" y1="1.0101826190948486" x2="0.3677845895290375" y2="-0.030858729034662247" id="master_svge_810_99309"><stop offset="0%" stop-color="#A7B1C1" stop-opacity="1"/><stop offset="100%" stop-color="#C6D0E0" stop-opacity="1"/></linearGradient><linearGradient x1="0.5481661558151245" y1="1.0118634700775146" x2="0.3692064881324768" y2="-0.05015098303556442" id="master_svgf_810_99306"><stop offset="0%" stop-color="#C6D0E0" stop-opacity="1"/><stop offset="100%" stop-color="#EFF2F6" stop-opacity="1"/></linearGradient><linearGradient x1="0.5000374913215637" y1="1" x2="0.5000374913215637" y2="-0.00037296611117199063" id="master_svgg_810_99289"><stop offset="0%" stop-color="#DFE2E5" stop-opacity="0"/><stop offset="100%" stop-color="#D7DCE2" stop-opacity="0.5"/></linearGradient><linearGradient x1="0.8204692006111145" y1="1.4484331607818604" x2="0.17999637126922607" y2="-0.26670926809310913" id="master_svgh_810_99259"><stop offset="0%" stop-color="#B3BECE" stop-opacity="1"/><stop offset="100%" stop-color="#EFF2F6" stop-opacity="1"/></linearGradient><linearGradient x1="0.6362639665603638" y1="-3.920435667037964" x2="0.3713670074939728" y2="5.3165364265441895" id="master_svgi_810_99265"><stop offset="0%" stop-color="#B3BECE" stop-opacity="1"/><stop offset="100%" stop-color="#D0D9E2" stop-opacity="1"/></linearGradient><linearGradient x1="-0.15586017072200775" y1="0.7302694916725159" x2="1.0180466175079346" y2="0.31762048602104187" id="master_svgj_810_99262"><stop offset="0%" stop-color="#C6D0E0" stop-opacity="1"/><stop offset="100%" stop-color="#D7DDE2" stop-opacity="1"/></linearGradient><linearGradient x1="1.1555341482162476" y1="0.7302694916725159" x2="-0.018381938338279724" y2="0.31762048602104187" id="master_svgk_810_99256"><stop offset="0%" stop-color="#A7B1C1" stop-opacity="1"/><stop offset="100%" stop-color="#C6D0E0" stop-opacity="1"/></linearGradient><linearGradient x1="0.7866683006286621" y1="2.2060277462005615" x2="0.2126268595457077" y2="-1.2435181140899658" id="master_svgl_810_99250"><stop offset="0%" stop-color="#B3BECE" stop-opacity="1"/><stop offset="100%" stop-color="#EFF2F6" stop-opacity="1"/></linearGradient><linearGradient x1="0.7882848978042603" y1="-1.2704938650131226" x2="0.21141204237937927" y2="2.1960666179656982" id="master_svgm_810_99253"><stop offset="0%" stop-color="#A7B1C1" stop-opacity="1"/><stop offset="100%" stop-color="#C6D0E0" stop-opacity="1"/></linearGradient><linearGradient x1="0.8855257630348206" y1="1.0059665441513062" x2="0.1563551127910614" y2="-0.02547461725771427" id="master_svgn_810_99293"><stop offset="0%" stop-color="#A7B1C1" stop-opacity="1"/><stop offset="100%" stop-color="#C6D0E0" stop-opacity="1"/></linearGradient><linearGradient x1="0.8855499625205994" y1="1.0349949598312378" x2="0.11446055769920349" y2="-0.03530485928058624" id="master_svgo_810_99296"><stop offset="0%" stop-color="#C6D0E0" stop-opacity="1"/><stop offset="100%" stop-color="#EFF2F6" stop-opacity="1"/></linearGradient><filter id="master_svgp_810_99371" filterUnits="objectBoundingBox" color-interpolation-filters="sRGB" x="0" y="0" width="36.44077682495117" height="36.44548797607422"><feFlood flood-opacity="0" result="BackgroundImageFix"/><feColorMatrix in="SourceAlpha" type="matrix" values="0 0 0 0 0 0 0 0 0 0 0 0 0 0 0 0 0 0 127 0"/><feOffset dy="1" dx="1"/><feGaussianBlur stdDeviation="0"/><feColorMatrix type="matrix" values="0 0 0 0 0.8368889689445496 0 0 0 0 0.8698620200157166 0 0 0 0 0.9226190447807312 0 0 0 1 0"/><feBlend mode="normal" in2="BackgroundImageFix" result="effect1_dropShadow"/><feBlend mode="normal" in="SourceGraphic" in2="effect1_dropShadow" result="shape"/></filter><filter id="master_svgq_810_99364" filterUnits="objectBoundingBox" color-interpolation-filters="sRGB" x="0" y="0" width="27.026819229125977" height="27.03028106689453"><feFlood flood-opacity="0" result="BackgroundImageFix"/><feColorMatrix in="SourceAlpha" type="matrix" values="0 0 0 0 0 0 0 0 0 0 0 0 0 0 0 0 0 0 127 0"/><feOffset dy="1" dx="1"/><feGaussianBlur stdDeviation="0"/><feColorMatrix type="matrix" values="0 0 0 0 0.7137255072593689 0 0 0 0 0.7529411911964417 0 0 0 0 0.8156862854957581 0 0 0 1 0"/><feBlend mode="normal" in2="BackgroundImageFix" result="effect1_dropShadow"/><feBlend mode="normal" in="SourceGraphic" in2="effect1_dropShadow" result="shape"/></filter><linearGradient x1="1.0207210779190063" y1="0.5" x2="0" y2="0.5" id="master_svgr_810_99366"><stop offset="0%" stop-color="#FFFFFF" stop-opacity="1"/><stop offset="100%" stop-color="#F5F9FF" stop-opacity="1"/></linearGradient></defs><g><g><g style="opacity:0.6015942096710205;"><path d="M107.248,0C127.643,0,146.449,6.69958,161.518,17.9853C161.518,17.9853,155.457,17.9858,155.457,17.9858C152.587,17.9858,150.262,20.3121,150.262,23.1817C150.262,23.1817,150.262,23.5814,150.262,23.5814C150.262,26.451,152.587,28.7773,155.457,28.7773C155.457,28.7773,173.511,28.777,173.511,28.777C176.937,32.4688,180.048,36.4477,182.803,40.673C182.803,40.673,191.374,40.673,191.374,40.673C194.464,40.673,196.969,43.1783,196.969,46.2686C196.969,46.2686,196.969,46.5809,196.969,46.5809C196.969,49.1341,195.26,51.2878,192.923,51.9595C192.923,51.9595,185.029,51.959,185.029,51.959C181.498,51.959,178.635,54.8221,178.635,58.354C178.635,58.354,178.635,60.3524,178.635,60.3524C178.635,63.8842,181.498,66.7474,185.029,66.7474C185.029,66.7474,212.165,66.7473,212.165,66.7473C214.943,67.4435,217,69.9569,217,72.9509C217,72.9509,217,73.3078,217,73.3078C217,76.8396,214.137,79.7027,210.606,79.7027C210.606,79.7027,196.547,79.7023,196.547,79.7023C196.826,82.5411,196.969,85.4193,196.969,88.3303C196.969,137.114,156.8,176.661,107.248,176.661C67.6134,176.661,33.9813,151.359,22.1069,116.267C22.1069,116.267,18.7397,116.267,18.7397,116.267C17.3785,116.267,16.275,115.164,16.275,113.802C16.275,112.764,16.9173,111.875,17.8263,111.512C17.8263,111.512,21.9797,111.512,21.9797,111.512C24.849,111.512,27.175,109.186,27.175,106.316C27.175,106.316,27.175,105.916,27.175,105.916C27.175,103.047,24.849,100.721,21.9797,100.721C21.9797,100.721,18.4027,100.721,18.4027,100.721C18.3996,100.699,18.3966,100.678,18.3936,100.657C18.3936,100.657,9.53284,100.656,9.53284,100.656C7.26414,100.656,5.425,98.8161,5.425,96.5471C5.425,94.2781,7.26414,92.4387,9.53284,92.4387C9.53284,92.4387,17.6223,92.4394,17.6223,92.4394C17.5589,91.0775,17.5269,89.7076,17.5269,88.3303C17.5269,75.2886,20.3978,62.907,25.5514,51.7647C25.5514,51.7647,11.1897,51.7657,11.1897,51.7657C5.00979,51.7657,0,46.7552,0,40.5745C0,40.5745,0,39.9499,0,39.9499C0,33.9855,4.66524,29.1109,10.5453,28.777C10.5453,28.777,61.1436,28.7773,61.1436,28.7773C63.3507,28.7773,65.14,26.9879,65.14,24.7805C65.14,22.5731,63.3507,20.7836,61.1436,20.7836C61.1436,20.7836,49.431,20.7832,49.431,20.7832C49.5285,20.7022,49.6262,20.6215,49.7241,20.5409C49.7241,20.5409,43.8988,20.5419,43.8988,20.5419C39.7053,20.5419,36.3058,17.142,36.3058,12.9479C36.3058,12.9479,36.3058,12.5241,36.3058,12.5241C36.3058,8.33002,39.7053,4.93007,43.8988,4.93007C43.8988,4.93007,77.6207,4.92937,77.6207,4.92937C86.8958,1.73605,96.866,0,107.248,0Z" fill-rule="evenodd" fill="#F3F3FA" fill-opacity="1"/></g><g><g><path d="M53.56430546264649,130.8513751586914C53.611105462646485,131.03817515869142,53.66960546264649,131.23677515869142,53.73980546264649,131.4469751586914C53.73980546264649,131.4469751586914,53.88010546264648,132.00747515869142,53.88010546264648,132.00747515869142C53.92690546264649,132.1942751586914,53.95030546264648,132.3460751586914,53.95030546264648,132.46287515869142C53.95030546264648,133.1167751586914,53.77480546264648,133.6947751586914,53.424005462646484,134.1969751586914C53.07310546264648,134.69907515869141,52.61700546264649,135.0668751586914,52.05560546264648,135.3004751586914C51.84510546264649,135.3237751586914,51.622905462646486,135.3354751586914,51.388905462646484,135.3354751586914C51.20180546264648,135.3588751586914,50.99130546264648,135.3705751586914,50.75740546264649,135.3705751586914C50.75740546264649,135.3705751586914,50.09070546264648,135.3705751586914,50.09070546264648,135.3705751586914C50.09070546264648,135.3705751586914,44.61720546264648,135.44057515869142,44.61720546264648,135.44057515869142C44.61720546264648,135.44057515869142,44.61720546264648,141.2909751586914,44.61720546264648,141.2909751586914C44.61720546264648,142.1550751586914,44.63470546264649,143.0250751586914,44.66980546264649,143.9008751586914C44.70490546264649,144.7766751586914,44.74590546264648,145.5648751586914,44.792605462646485,146.2654751586914C44.83940546264648,147.1062751586914,44.897905462646484,147.9120751586914,44.968105462646484,148.6827751586914C44.968105462646484,148.6827751586914,39.915595462646486,148.6827751586914,39.915595462646486,148.6827751586914C39.915595462646486,148.6827751586914,40.02085546264648,147.3164751586914,40.02085546264648,147.3164751586914C40.04424546264649,146.7792751586914,40.067635462646486,146.0494751586914,40.091025462646485,145.1269751586914C40.114415462646484,144.2044751586914,40.12611546264648,142.9724751586914,40.12611546264648,141.4310751586914C40.12611546264648,141.4310751586914,40.12611546264648,136.0711751586914,40.12611546264648,136.0711751586914C39.72846546264648,136.4214751586914,39.28402546264648,136.5966751586914,38.79281546264649,136.5966751586914C38.39516546264649,136.5966751586914,38.05014546264648,136.5032751586914,37.757755462646486,136.31637515869141C37.46536546264648,136.1295751586914,37.225605462646485,135.8726751586914,37.038485462646484,135.5456751586914C37.038485462646484,135.5456751586914,33.07368546264649,135.3354751586914,33.07368546264649,135.3354751586914C32.30177546264648,135.14867515869142,31.658515462646484,134.75747515869142,31.143913462646484,134.1618751586914C30.629308462646485,133.56637515869141,30.372005462646484,132.8598751586914,30.372005462646484,132.04247515869142C30.372005462646484,131.9023751586914,30.383701062646484,131.7738751586914,30.407092162646485,131.6570751586914C30.430483262646483,131.5403751586914,30.465570062646485,131.4235751586914,30.512352462646483,131.3067751586914C30.512352462646483,131.3067751586914,31.389515462646486,129.2749751586914,31.389515462646486,129.2749751586914C31.436305462646484,128.7611751586914,31.582495462646484,128.2823751586914,31.828105462646484,127.83857515869141C32.07371546264648,127.3948751586914,32.383645462646484,127.0094751586914,32.757905462646484,126.6825751586914C32.757905462646484,126.6825751586914,38.26651546264648,116.4882051586914,38.26651546264648,116.4882051586914C38.26651546264648,116.4882051586914,38.301605462646485,116.4882051586914,38.301605462646485,116.4882051586914C38.74603546264648,115.6707851586914,39.27233546264648,114.97014515869141,39.88050546264648,114.38627815869141C40.488705462646486,113.8024091586914,41.272305462646486,113.5104751586914,42.23130546264648,113.5104751586914C43.073405462646484,113.5104751586914,43.82780546264648,113.7323451586914,44.49440546264648,114.17608515869141C45.16110546264648,114.61982515869141,45.65810546264648,115.2036951586914,45.98560546264648,115.9276951586914C45.98560546264648,115.9276951586914,50.406505462646486,124.5806751586914,50.406505462646486,124.5806751586914C51.20180546264648,124.86087515869141,51.856805462646484,125.35137515869141,52.371405462646486,126.0519751586914C52.88600546264648,126.7525751586914,53.14330546264648,127.5583751586914,53.14330546264648,128.4691751586914C53.14330546264648,128.8428751586914,53.084805462646486,129.2398751586914,52.96780546264648,129.6602751586914C52.96780546264648,129.6602751586914,53.56430546264649,130.8513751586914,53.56430546264649,130.8513751586914Z" fill="url(#master_svg0_810_98078)" fill-opacity="1"/></g><g><path d="M177.4501010559082,130.85137897338868C177.4969010559082,131.03817897338868,177.5554010559082,131.23677897338868,177.62550105590822,131.44697897338867C177.62550105590822,131.44697897338867,177.76590105590822,132.0074789733887,177.76590105590822,132.0074789733887C177.8127010559082,132.19427897338866,177.83610105590822,132.34607897338867,177.83610105590822,132.46287897338868C177.83610105590822,133.11677897338868,177.66060105590822,133.69477897338868,177.3098010559082,134.19697897338867C176.9589010559082,134.69907897338868,176.5028010559082,135.06687897338867,175.94140105590822,135.30047897338866C175.7309010559082,135.32377897338867,175.5086010559082,135.33547897338866,175.2747010559082,135.33547897338866C175.0876010559082,135.35887897338867,174.8771010559082,135.37057897338866,174.6432010559082,135.37057897338866C174.6432010559082,135.37057897338866,173.97650105590822,135.37057897338866,173.97650105590822,135.37057897338866C173.97650105590822,135.37057897338866,168.50300105590821,135.44057897338868,168.50300105590821,135.44057897338868C168.50300105590821,135.44057897338868,168.50300105590821,141.29097897338866,168.50300105590821,141.29097897338866C168.50300105590821,142.15507897338867,168.5205010559082,143.02507897338867,168.5556010559082,143.90087897338867C168.5907010559082,144.77667897338867,168.6317010559082,145.56487897338866,168.6784010559082,146.26547897338867C168.7252010559082,147.10627897338867,168.7837010559082,147.91207897338867,168.8539010559082,148.68277897338868C168.8539010559082,148.68277897338868,163.8013910559082,148.68277897338868,163.8013910559082,148.68277897338868C163.8013910559082,148.68277897338868,163.9066510559082,147.31647897338866,163.9066510559082,147.31647897338866C163.9300410559082,146.77927897338867,163.9534310559082,146.04947897338866,163.9768210559082,145.12697897338867C164.0002110559082,144.20447897338866,164.0119110559082,142.97247897338866,164.0119110559082,141.43107897338868C164.0119110559082,141.43107897338868,164.0119110559082,136.07117897338867,164.0119110559082,136.07117897338867C163.6142610559082,136.42147897338867,163.1698310559082,136.59667897338866,162.6786210559082,136.59667897338866C162.2809710559082,136.59667897338866,161.93594105590822,136.50327897338866,161.6435510559082,136.31637897338868C161.3511610559082,136.12957897338867,161.1114110559082,135.87267897338867,160.9242810559082,135.54567897338868C160.9242810559082,135.54567897338868,156.9594710559082,135.33547897338866,156.9594710559082,135.33547897338866C156.1875610559082,135.14867897338868,155.5443110559082,134.7574789733887,155.0297090559082,134.16187897338867C154.5151040559082,133.56637897338868,154.2578010559082,132.85987897338867,154.2578010559082,132.04247897338868C154.2578010559082,131.90237897338866,154.2694971559082,131.77387897338866,154.2928883559082,131.65707897338868C154.3162791559082,131.54037897338867,154.3513681559082,131.42357897338866,154.3981500559082,131.30677897338867C154.3981500559082,131.30677897338867,155.2753210559082,129.27497897338867,155.2753210559082,129.27497897338867C155.3221010559082,128.76117897338867,155.4683010559082,128.28237897338866,155.7139010559082,127.83857897338868C155.9595110559082,127.39487897338867,156.2694410559082,127.00947897338867,156.6437010559082,126.68257897338867C156.6437010559082,126.68257897338867,162.1523110559082,116.48820897338867,162.1523110559082,116.48820897338867C162.1523110559082,116.48820897338867,162.1873910559082,116.48820897338867,162.1873910559082,116.48820897338867C162.6318310559082,115.67078897338867,163.1581310559082,114.97014897338867,163.7663010559082,114.38628197338868C164.3745010559082,113.80241297338867,165.1581010559082,113.51047897338867,166.1171010559082,113.51047897338867C166.9592010559082,113.51047897338867,167.7136010559082,113.73234897338867,168.3802010559082,114.17608897338867C169.0468010559082,114.61982897338868,169.5439010559082,115.20369897338867,169.8714010559082,115.92769897338867C169.8714010559082,115.92769897338867,174.2923010559082,124.58067897338867,174.2923010559082,124.58067897338867C175.0876010559082,124.86087897338868,175.7426010559082,125.35137897338868,176.2572010559082,126.05197897338867C176.7718010559082,126.75257897338867,177.0291010559082,127.55837897338867,177.0291010559082,128.46917897338867C177.0291010559082,128.84287897338868,176.97060105590822,129.23987897338867,176.8536010559082,129.66027897338867C176.8536010559082,129.66027897338867,177.4501010559082,130.85137897338868,177.4501010559082,130.85137897338868Z" fill="url(#master_svg1_810_98078)" fill-opacity="1"/></g><g><path d="M162.7487603088379,134.70129838638306C162.7852603088379,134.84779838638306,162.83086030883788,135.00349838638306,162.88556030883788,135.16829838638307C162.88556030883788,135.16829838638307,162.9949603088379,135.60779838638305,162.9949603088379,135.60779838638305C163.0314603088379,135.75429838638306,163.0496603088379,135.87329838638306,163.0496603088379,135.96489838638306C163.0496603088379,136.47759838638305,162.91296030883788,136.93089838638306,162.6393603088379,137.32459838638306C162.36586030883788,137.71829838638305,162.0101603088379,138.00669838638305,161.5724603088379,138.18979838638305C161.4083603088379,138.20809838638306,161.2351603088379,138.21729838638305,161.0527603088379,138.21729838638305C160.9068603088379,138.23559838638306,160.7427603088379,138.24479838638305,160.5603603088379,138.24479838638305C160.5603603088379,138.24479838638305,160.04056030883788,138.24479838638305,160.04056030883788,138.24479838638305C160.04056030883788,138.24479838638305,155.7730603088379,138.29969838638306,155.7730603088379,138.29969838638306C155.7730603088379,138.29969838638306,155.7730603088379,142.88689838638305,155.7730603088379,142.88689838638305C155.7730603088379,143.56449838638306,155.7867603088379,144.24659838638306,155.8141603088379,144.93329838638306C155.8414603088379,145.61999838638306,155.8733603088379,146.23809838638306,155.9098603088379,146.78739838638305C155.94636030883788,147.44669838638305,155.9919603088379,148.07839838638307,156.0466603088379,148.68269838638307C156.0466603088379,148.68269838638307,152.1074203088379,148.68269838638307,152.1074203088379,148.68269838638307C152.1074203088379,148.68269838638307,152.1894803088379,147.61149838638306,152.1894803088379,147.61149838638306C152.20772030883788,147.19029838638306,152.2259603088379,146.61799838638305,152.2441903088379,145.89469838638306C152.26243030883788,145.17139838638306,152.2715503088379,144.20539838638305,152.2715503088379,142.99679838638306C152.2715503088379,142.99679838638306,152.2715503088379,138.79409838638304,152.2715503088379,138.79409838638304C151.9615203088379,139.06879838638307,151.6150103088379,139.20619838638305,151.2320303088379,139.20619838638305C150.92200030883788,139.20619838638305,150.65301030883788,139.13289838638306,150.42505030883788,138.98639838638306C150.19708030883788,138.83989838638306,150.0101503088379,138.63849838638305,149.86425030883788,138.38209838638306C149.86425030883788,138.38209838638306,146.7730603088379,138.21729838638305,146.7730603088379,138.21729838638305C146.1712303088379,138.07079838638305,145.6697003088379,137.76409838638307,145.26848530883788,137.29709838638306C144.86726830883788,136.83009838638304,144.6666603088379,136.27619838638304,144.6666603088379,135.63529838638306C144.6666603088379,135.52539838638305,144.6757782688379,135.42469838638306,144.69401540883788,135.33309838638306C144.7122526088379,135.24159838638306,144.73960650883788,135.14999838638306,144.7760813088379,135.05839838638306C144.7760813088379,135.05839838638306,145.45997230883788,133.46529838638307,145.45997230883788,133.46529838638307C145.4964463088379,133.06239838638305,145.6104273088379,132.68699838638307,145.80192030883788,132.33909838638306C145.9934103088379,131.99109838638304,146.23505030883788,131.68899838638305,146.52685030883788,131.43259838638306C146.52685030883788,131.43259838638306,150.82170030883788,123.43930838638306,150.82170030883788,123.43930838638306C150.82170030883788,123.43930838638306,150.8490603088379,123.43930838638306,150.8490603088379,123.43930838638306C151.19556030883788,122.79837838638306,151.6059003088379,122.24901838638306,152.0800603088379,121.79120738638305C152.5542303088379,121.33340138638306,153.1651703088379,121.10449838638306,153.9129003088379,121.10449838638306C154.5694303088379,121.10449838638306,155.1575603088379,121.27846438638305,155.67736030883788,121.62639738638306C156.19706030883788,121.97432938638306,156.5846603088379,122.43213838638306,156.8399603088379,122.99981838638305C156.8399603088379,122.99981838638305,160.2867603088379,129.78449838638306,160.2867603088379,129.78449838638306C160.9068603088379,130.00424838638307,161.4174603088379,130.38880838638306,161.81866030883788,130.93816838638307C162.2199603088379,131.48749838638307,162.42056030883788,132.11929838638306,162.42056030883788,132.83349838638304C162.42056030883788,133.12649838638305,162.3749603088379,133.43779838638307,162.28376030883788,133.76739838638306C162.28376030883788,133.76739838638306,162.7487603088379,134.70129838638306,162.7487603088379,134.70129838638306Z" fill="url(#master_svg2_810_98081)" fill-opacity="1"/></g></g><g><path d="M95.31215527496337,139.489990234375C119.84105527496338,139.489990234375,141.93005527496337,141.491130234375,157.3700552749634,144.687450234375C172.4710552749634,144.787970234375,184.63005527496338,149.311870234375,184.63005527496338,154.877890234375C184.63005527496338,159.288990234375,176.99305527496338,163.045690234375,166.30605527496337,164.464590234375C163.7560552749634,165.219290234375,160.88505527496338,165.930690234375,157.73105527496338,166.591790234375C157.81305527496338,167.012990234375,157.85405527496337,167.438490234375,157.85405527496337,167.867590234375C157.85405527496337,177.580190234375,136.74205527496338,185.45369023437502,110.69795527496338,185.45369023437502C87.26675527496337,185.45369023437502,67.82695527496338,179.080590234375,64.16245527496338,170.728990234375C32.89745527496338,168.354590234375,10.790055274963379,162.510290234375,10.790055274963379,155.677190234375C10.790055274963379,146.73726023437501,48.63185527496338,139.489990234375,95.31215527496337,139.489990234375Z" fill-rule="evenodd" fill="#E7EAF0" fill-opacity="1"/></g><g><path d="M133.87664093017577,159.19219828125Q133.87664093017577,159.25596828125,133.8373409301758,159.31966828125Q133.79814093017578,159.38336828125,133.71974093017576,159.44683828125Q133.64134093017577,159.51030828125,133.52404093017577,159.57338828125Q133.40674093017577,159.63647828125,133.25074093017577,159.69902828125Q133.09474093017576,159.76157828125,132.9005409301758,159.82344828125Q132.7062409301758,159.88530828125,132.4741409301758,159.94633828125Q132.2420409301758,160.00736828125,131.97264093017577,160.06741828125Q131.70334093017578,160.12746828125,131.39734093017577,160.18638828125Q131.0913409301758,160.24530828125,130.74954093017578,160.30295828125Q130.40764093017577,160.36061828125,130.0307409301758,160.41685828125Q129.6538409301758,160.47310828125,129.2428409301758,160.52780828125Q128.83174093017578,160.58250828125,128.3875409301758,160.63553828125Q127.94334093017578,160.68856828125,127.46704093017578,160.73979828125Q126.99074093017578,160.79101828125,126.48354093017578,160.84031828125Q125.97634093017578,160.88961828125,125.43934093017577,160.93687828125Q124.90244093017577,160.98412828125,124.33704093017579,161.02922828125Q123.77174093017578,161.07431828125,123.17924093017578,161.11714828125Q122.58684093017578,161.15997828125,121.96874093017578,161.20043828125Q121.35074093017579,161.24089828125,120.70854093017579,161.27888828125Q120.06634093017578,161.31687828125,119.40154093017578,161.35231828125Q118.73674093017578,161.38774828125,118.05094093017578,161.42053828125Q117.36514093017578,161.45331828125,116.66004093017578,161.48338828125Q115.95484093017578,161.51344828125,115.23204093017577,161.54071828125Q114.50924093017578,161.56798828125,113.77064093017577,161.59238828125Q113.03194093017578,161.61679828125,112.27914093017577,161.63827828125Q111.52634093017579,161.65976828125,110.76114093017578,161.67827828125Q109.99604093017578,161.69679828125,109.22044093017578,161.71228828125Q108.44484093017579,161.72778828125,107.66074093017579,161.74022828125Q106.87654093017578,161.75266828125,106.08564093017577,161.76202828125Q105.29474093017578,161.77138828125,104.49904093017578,161.77763828125Q103.70334093017578,161.78388828125,102.90474093017579,161.78701828125Q102.10614093017578,161.79014828125,101.30664093017577,161.79014828125Q100.50704093017578,161.79014828125,99.70844093017578,161.78701828125Q98.90994093017578,161.78388828125,98.11424093017578,161.77763828125Q97.31854093017579,161.77138828125,96.52764093017578,161.76202828125Q95.73674093017578,161.75266828125,94.95254093017579,161.74022828125Q94.16834093017579,161.72778828125,93.39274093017578,161.71228828125Q92.61714093017578,161.69679828125,91.85204093017578,161.67827828125Q91.08694093017579,161.65976828125,90.33414093017578,161.63828828125Q89.58134093017578,161.61679828125,88.84264093017578,161.59238828125Q88.10394093017578,161.56798828125,87.38114093017577,161.54071828125Q86.65834093017578,161.51344828125,85.95324093017578,161.48338828125Q85.24814093017578,161.45331828125,84.56234093017578,161.42053828125Q83.87654093017578,161.38774828125,83.21174093017578,161.35231828125Q82.54694093017578,161.31687828125,81.90474093017578,161.27888828125Q81.26254093017579,161.24089828125,80.64444093017578,161.20043828125Q80.02634093017578,161.15997828125,79.43394093017578,161.11714828125Q78.84154093017578,161.07431828125,78.27617093017578,161.02922828125Q77.71080093017578,160.98412828125,77.17386093017578,160.93687828125Q76.63691093017579,160.88961828125,76.12968093017578,160.84031828125Q75.62246093017578,160.79101828125,75.14617093017578,160.73979828125Q74.66988093017578,160.68856828125,74.22567093017578,160.63553828125Q73.78147093017579,160.58250828125,73.37042093017578,160.52780828125Q72.95937093017578,160.47310828125,72.58246093017578,160.41685828125Q72.20556093017578,160.36061828125,71.86371093017578,160.30295828125Q71.52186093017578,160.24530828125,71.21588093017579,160.18638828125Q70.90991093017578,160.12746828125,70.64055093017578,160.06741828125Q70.37119093017579,160.00736828125,70.13909093017578,159.94633828125Q69.90700093017578,159.88530828125,69.71272193017577,159.82344828125Q69.51844793017578,159.76157828125,69.36246393017578,159.69902828125Q69.20647993017577,159.63647828125,69.08916193017578,159.57338828125Q68.97184393017578,159.51030828125,68.89347393017579,159.44683828125Q68.81510483017578,159.38336828125,68.77587293017578,159.31966828125Q68.73664093017578,159.25596828125,68.73664093017578,159.19219828125Q68.73664093017578,159.12841828125,68.77587293017578,159.06471828125Q68.81510483017578,159.00101828125,68.89347393017579,158.93754828125Q68.97184393017578,158.87407828125,69.08916193017578,158.81099828125Q69.20647993017577,158.74790828125,69.36246393017578,158.68535828125Q69.51844793017578,158.62280828125,69.71272193017577,158.56093828125Q69.90700093017578,158.49907828125,70.13909093017578,158.43804828125Q70.37119093017579,158.37701828125,70.64055093017578,158.31696828125Q70.90991093017578,158.25691828125,71.21588093017579,158.19799828125Q71.52186093017578,158.13907828125,71.86371093017578,158.08142828125Q72.20556093017578,158.02376828125,72.58246093017578,157.96752828125Q72.95937093017578,157.91127828125,73.37042093017578,157.85657828125Q73.78147093017579,157.80187828125,74.22567093017578,157.74884828125Q74.66988093017578,157.69581828125,75.14617093017578,157.64459828125Q75.62246093017578,157.59336828125,76.12968093017578,157.54406828125Q76.63691093017579,157.49476828125,77.17386093017578,157.44751328125Q77.71080093017578,157.40025828125,78.27617093017578,157.35516228125Q78.84154093017578,157.31006528125,79.43394093017578,157.26723528125Q80.02634093017578,157.22440628125,80.64444093017578,157.18394728125Q81.26254093017579,157.14348828125,81.90474093017578,157.10549628125Q82.54694093017578,157.06750528125,83.21174093017578,157.03207228125Q83.87654093017578,156.99664028125,84.56234093017578,156.96385328125Q85.24814093017578,156.93106528125,85.95324093017578,156.90100128125Q86.65834093017578,156.87093728125,87.38114093017577,156.84367028125Q88.10394093017578,156.81640228125,88.84264093017578,156.79199628125Q89.58134093017578,156.76758928125,90.33414093017578,156.74610428125Q91.08694093017579,156.72461828125,91.85204093017578,156.70610528125Q92.61714093017578,156.68759208125,93.39274093017578,156.67209578125Q94.16834093017579,156.65659938125,94.95254093017579,156.64415728125Q95.73674093017578,156.63171518125,96.52764093017578,156.62235718125Q97.31854093017579,156.61299928125,98.11424093017578,156.60674818125Q98.90994093017578,156.60049698125,99.70844093017578,156.59736763125Q100.50704093017578,156.59423828125,101.30664093017577,156.59423828125Q102.10614093017578,156.59423828125,102.90474093017579,156.59736763125Q103.70334093017578,156.60049698125,104.49904093017578,156.60674818125Q105.29474093017578,156.61299928125,106.08564093017577,156.62235718125Q106.87654093017578,156.63171518125,107.66074093017579,156.64415728125Q108.44484093017579,156.65659938125,109.22044093017578,156.67209578125Q109.99604093017578,156.68759208125,110.76114093017578,156.70610528125Q111.52634093017579,156.72461828125,112.27914093017577,156.74610428125Q113.03194093017578,156.76758928125,113.77064093017577,156.79199628125Q114.50924093017578,156.81640228125,115.23204093017577,156.84367028125Q115.95484093017578,156.87093728125,116.66004093017578,156.90100128125Q117.36514093017578,156.93106528125,118.05094093017578,156.96385328125Q118.73674093017578,156.99664028125,119.40154093017578,157.03207228125Q120.06634093017578,157.06750528125,120.70854093017579,157.10549628125Q121.35074093017579,157.14348828125,121.96874093017578,157.18394728125Q122.58684093017578,157.22440628125,123.17924093017578,157.26723528125Q123.77174093017578,157.31006528125,124.33704093017579,157.35516228125Q124.90244093017577,157.40025828125,125.43934093017577,157.44751328125Q125.97634093017578,157.49476828125,126.48354093017578,157.54406828125Q126.99074093017578,157.59336828125,127.46704093017578,157.64459828125Q127.94334093017578,157.69581828125,128.3875409301758,157.74884828125Q128.83174093017578,157.80187828125,129.2428409301758,157.85657828125Q129.6538409301758,157.91127828125,130.0307409301758,157.96752828125Q130.40764093017577,158.02376828125,130.74954093017578,158.08142828125Q131.0913409301758,158.13907828125,131.39734093017577,158.19799828125Q131.70334093017578,158.25691828125,131.97264093017577,158.31696828125Q132.2420409301758,158.37701828125,132.4741409301758,158.43804828125Q132.7062409301758,158.49907828125,132.9005409301758,158.56093828125Q133.09474093017576,158.62280828125,133.25074093017577,158.68535828125Q133.40674093017577,158.74790828125,133.52404093017577,158.81099828125Q133.64134093017577,158.87407828125,133.71974093017576,158.93754828125Q133.79814093017578,159.00101828125,133.8373409301758,159.06471828125Q133.87664093017577,159.12841828125,133.87664093017577,159.19219828125Z" fill="#D1D6E2" fill-opacity="1"/></g><g><path d="M159.60470217285157,38.494647070312496C159.60470217285157,40.867747070312504,157.38270217285157,42.7662470703125,154.57600217285156,42.7662470703125C154.57600217285156,42.7662470703125,139.02221217285157,42.7662470703125,139.02221217285157,42.7662470703125C136.21551217285156,42.5764470703125,133.87660217285156,40.7728470703125,133.87660217285156,38.3047470703125C133.87660217285156,36.691057070312496,134.92912217285155,35.2671770703125,136.44941217285157,34.5077770703125C136.33247217285157,34.2230070703125,136.21552217285156,33.9382270703125,136.21552217285156,33.6534570703125C136.21552217285156,32.0397270703125,137.73581217285155,30.6158570703125,139.72388217285157,30.6158570703125C140.54250217285156,30.6158570703125,141.24419217285157,30.9006270703125,141.82891217285157,31.2803270703125C143.23226217285156,29.0970470703125,145.80510217285155,27.5782470703125,148.84570217285156,27.5782470703125C153.05570217285157,27.5782470703125,156.44710217285157,30.5209270703125,156.44710217285157,34.1280770703125C156.44710217285157,34.1280770703125,156.44710217285157,34.5077770703125,156.44710217285157,34.5077770703125C158.31830217285156,35.1722570703125,159.60470217285157,36.691057070312496,159.60470217285157,38.494647070312496Z" fill="url(#master_svg3_810_98085)" fill-opacity="1"/></g></g><g><g><path d="M143.3283481201172,73.84011314453124C143.3283481201172,73.84011314453124,136.6208481201172,67.13178714453124,136.6208481201172,67.13178714453124C135.70024812011718,66.21103514453125,134.2272481201172,66.21103514453125,133.30661812011718,67.13178714453124C133.30661812011718,67.13178714453124,127.04632812011718,73.41920314453125,127.04632812011718,73.41920314453125C127.04632812011718,73.41920314453125,125.59962812011719,71.97230314453125,125.59962812011719,71.97230314453125C125.36288812011719,71.73554314453125,125.0209381201172,71.73554314453125,124.78420812011719,71.97230314453125C124.78420812011719,71.97230314453125,124.15292012011719,72.60367314453126,124.15292012011719,72.60367314453126C123.23229112011718,73.52443314453124,123.23229112011718,74.99763314453125,124.15292012011719,75.91838314453125C124.15292012011719,75.91838314453125,130.33428812011718,82.10052314453125,130.33428812011718,82.10052314453125C131.1760081201172,82.88982314453125,132.4648981201172,82.88982314453125,133.3592281201172,82.17952314453125C133.3855281201172,82.15322314453125,133.4381281201172,82.12692314453125,133.4644481201172,82.10052314453125C133.4644481201172,82.10052314453125,134.5954481201172,80.96932314453124,134.5954481201172,80.96932314453124C134.5954481201172,80.96932314453124,140.8557481201172,74.70825314453126,140.8557481201172,74.70825314453126C141.30294812011718,74.26103314453125,142.06574812011718,74.26103314453125,142.5129481201172,74.70825314453126C142.74964812011717,74.94501314453125,143.09154812011718,74.94501314453125,143.3283481201172,74.70825314453126C143.56504812011718,74.44518314453126,143.56504812011718,74.07688314453125,143.3283481201172,73.84011314453124ZM124.96833812011718,75.07655314453125C124.52117812011718,74.62933314453124,124.52117812011718,73.86642314453125,124.96833812011718,73.41920314453125C124.96833812011718,73.41920314453125,125.17876812011718,73.20874314453125,125.17876812011718,73.20874314453125C125.17876812011718,73.20874314453125,130.46580812011717,78.49652314453125,130.46580812011717,78.49652314453125C130.46580812011717,78.49652314453125,130.2553781201172,78.70692314453125,130.2553781201172,78.70692314453125C129.9660381201172,78.99632314453125,129.7556081201172,79.39092314453126,129.67669812011718,79.75922314453125C129.67669812011718,79.75922314453125,124.96833812011718,75.07655314453125,124.96833812011718,75.07655314453125Z" fill="url(#master_svg4_810_99344)" fill-opacity="1"/></g><g><path d="M143.3283481201172,73.84011314453124C143.3283481201172,73.84011314453124,136.6208481201172,67.13178714453124,136.6208481201172,67.13178714453124C135.70024812011718,66.21103514453125,134.2272481201172,66.21103514453125,133.30661812011718,67.13178714453124C133.30661812011718,67.13178714453124,127.04632812011718,73.41920314453125,127.04632812011718,73.41920314453125C127.04632812011718,73.41920314453125,125.59962812011719,71.97230314453125,125.59962812011719,71.97230314453125C125.36288812011719,71.73554314453125,125.0209381201172,71.73554314453125,124.78420812011719,71.97230314453125C124.78420812011719,71.97230314453125,124.15292012011719,72.60367314453126,124.15292012011719,72.60367314453126C123.23229112011718,73.52443314453124,123.23229112011718,74.99763314453125,124.15292012011719,75.91838314453125C124.15292012011719,75.91838314453125,130.33428812011718,82.10052314453125,130.33428812011718,82.10052314453125C131.1760081201172,82.88982314453125,132.4648981201172,82.88982314453125,133.3592281201172,82.17952314453125C133.3855281201172,82.15322314453125,133.4381281201172,82.12692314453125,133.4644481201172,82.10052314453125C133.4644481201172,82.10052314453125,134.5954481201172,80.96932314453124,134.5954481201172,80.96932314453124C134.5954481201172,80.96932314453124,140.8557481201172,74.70825314453126,140.8557481201172,74.70825314453126C141.30294812011718,74.26103314453125,142.06574812011718,74.26103314453125,142.5129481201172,74.70825314453126C142.74964812011717,74.94501314453125,143.09154812011718,74.94501314453125,143.3283481201172,74.70825314453126C143.56504812011718,74.44518314453126,143.56504812011718,74.07688314453125,143.3283481201172,73.84011314453124ZM132.72792812011718,81.15352314453125C132.2807681201172,81.60072314453124,131.54425812011718,81.62702314453125,131.09709812011718,81.17982314453126C130.64993812011718,80.73262314453125,130.67624812011718,79.99602314453125,131.12340812011718,79.54872314453125C131.12340812011718,79.54872314453125,131.75468812011718,78.91742314453126,131.75468812011718,78.91742314453126C131.99141812011717,78.68062314453125,131.99141812011717,78.33862314453125,131.75468812011718,78.10192314453126C131.75468812011718,78.10192314453126,127.91435812011719,74.26103314453125,127.91435812011719,74.26103314453125C127.91435812011719,74.26103314453125,134.17464812011718,67.99992314453125,134.17464812011718,67.99992314453125C134.6217481201172,67.55270314453125,135.3846481201172,67.55270314453125,135.8317481201172,67.99992314453125C135.8317481201172,67.99992314453125,141.0925481201172,73.26135314453126,141.0925481201172,73.26135314453126C140.6979481201172,73.34028314453126,140.32964812011718,73.55074314453125,140.0403481201172,73.84011314453124C140.0403481201172,73.84011314453124,133.7800481201172,80.10122314453125,133.7800481201172,80.10122314453125C133.7800481201172,80.10122314453125,132.72792812011718,81.15352314453125,132.72792812011718,81.15352314453125Z" fill="url(#master_svg5_810_99341)" fill-opacity="1"/></g><g><g><path d="M136.98913382026672,73.419204996109C136.98913382026672,73.419204996109,133.99050182026673,70.42018499610901,133.99050182026673,70.42018499610901C133.99050182026673,70.42018499610901,133.96420382026673,70.39387659610901,133.96420382026673,70.39387659610901C133.83268582026673,70.288647796109,133.64854982026674,70.288647796109,133.54333492026672,70.39387659610901C133.43812002026672,70.52541299610901,133.46442692026673,70.70956499610901,133.59594582026673,70.814793996109C133.59594582026673,70.814793996109,136.59457382026673,73.813814996109,136.59457382026673,73.813814996109C136.59457382026673,73.813814996109,136.62087382026672,73.84012499610901,136.62087382026672,73.84012499610901C136.75239382026672,73.945354996109,136.93652382026673,73.945354996109,137.04174382026673,73.84012499610901C137.1206538202667,73.70858499610901,137.1206538202667,73.52443499610901,136.98913382026672,73.419204996109Z" fill="url(#master_svg6_810_99335)" fill-opacity="1"/></g><g><path d="M133.70115809280395,75.05023552452087C133.70115809280395,75.05023552452087,131.43905109280396,72.78782162452087,131.43905109280396,72.78782162452087C131.43905109280396,72.78782162452087,131.41275309280397,72.76151282452088,131.41275309280397,72.76151282452088C131.30754009280395,72.68259142452088,131.14971209280395,72.70890176452087,131.04449849280397,72.81413032452087C130.93928459280394,72.91935852452087,130.93928459280394,73.10350752452088,131.04449849280397,73.18242852452087C131.04449849280397,73.18242852452087,133.30660809280394,75.44484552452087,133.30660809280394,75.44484552452087C133.30660809280394,75.44484552452087,133.33290809280396,75.47114552452088,133.33290809280396,75.47114552452088C133.43811809280396,75.55006552452087,133.59594809280395,75.52376552452087,133.70115809280395,75.41853552452088C133.80637809280395,75.31330552452087,133.80637809280395,75.12915552452087,133.70115809280395,75.05023552452087Z" fill="url(#master_svg7_810_99332)" fill-opacity="1"/></g><g><path d="M135.80547902153015,74.78717999267577C135.80547902153015,74.78717999267577,132.80683802153015,71.78815199267578,132.80683802153015,71.78815199267578C132.80683802153015,71.78815199267578,132.78054002153016,71.76185159267578,132.78054002153016,71.76185159267578C132.64902102153016,71.65662279267578,132.46488502153016,71.65662279267578,132.35967022153014,71.76185159267578C132.25445512153016,71.89338799267578,132.28076212153016,72.07753199267579,132.41228102153016,72.18276099267578C132.41228102153016,72.18276099267578,135.41091902153016,75.18178999267577,135.41091902153016,75.18178999267577C135.41091902153016,75.18178999267577,135.43721902153015,75.20808999267578,135.43721902153015,75.20808999267578C135.56873902153015,75.31331999267579,135.75286902153016,75.31331999267579,135.85808902153016,75.20808999267578C135.93699902153014,75.07654999267578,135.93699902153014,74.89240999267578,135.80547902153015,74.78717999267577Z" fill="url(#master_svg8_810_99338)" fill-opacity="1"/></g></g></g><g><g><g><path d="M49.87119488720703,80.07493189697266C49.87119488720703,80.07493189697266,54.84259188720703,75.10287189697266,54.84259188720703,75.10287189697266C55.52649188720703,74.41888489697266,56.60494188720703,74.41888489697266,57.28884188720703,75.10287189697266C57.28884188720703,75.10287189697266,61.91832188720703,79.73294189697266,61.91832188720703,79.73294189697266C61.91832188720703,79.73294189697266,62.99672188720703,78.65434189697265,62.99672188720703,78.65434189697265C63.180921887207035,78.47019189697265,63.44392188720703,78.47019189697265,63.601721887207034,78.65434189697265C63.601721887207034,78.65434189697265,64.04892188720703,79.10157189697266,64.04892188720703,79.10157189697266C64.73282188720702,79.78555189697266,64.73282188720702,80.86414189697265,64.04892188720703,81.54813189697265C64.04892188720703,81.54813189697265,59.47205188720703,86.12558189697266,59.47205188720703,86.12558189697266C58.84076188720703,86.70438189697265,57.89383188720703,86.73068189697265,57.23623188720703,86.17818189697266C57.209931887207034,86.15188189697265,57.18363188720703,86.15188189697265,57.15732188720703,86.12558189697266C57.15732188720703,86.12558189697266,56.31560188720703,85.28378189697266,56.31560188720703,85.28378189697266C56.31560188720703,85.28378189697266,51.68615188720703,80.65369189697266,51.68615188720703,80.65369189697266C51.370501887207034,80.33800189697266,50.79182188720703,80.33800189697266,50.44987588720703,80.65369189697266C50.26574988720703,80.83784189697266,50.002711887207035,80.83784189697266,49.84488988720703,80.65369189697266C49.68706748720703,80.52215189697266,49.68706908720703,80.25908189697266,49.87119488720703,80.07493189697266ZM63.44392188720703,80.96938189697266C63.75952188720703,80.65369189697266,63.75952188720703,80.07493189697266,63.44392188720703,79.73294189697266C63.44392188720703,79.73294189697266,63.28612188720703,79.57509189697265,63.28612188720703,79.57509189697265C63.28612188720703,79.57509189697265,59.36684188720703,83.49486189697265,59.36684188720703,83.49486189697265C59.36684188720703,83.49486189697265,59.52466188720703,83.65271189697266,59.52466188720703,83.65271189697266C59.73512188720703,83.86316189697266,59.89292188720703,84.15254189697265,59.97182188720703,84.44192189697266C59.97182188720703,84.44192189697266,63.44392188720703,80.96938189697266,63.44392188720703,80.96938189697266Z" fill="url(#master_svg9_810_99327)" fill-opacity="1"/></g><g><path d="M49.87119488720703,80.07493189697266C49.87119488720703,80.07493189697266,54.84259188720703,75.10287189697266,54.84259188720703,75.10287189697266C55.52649188720703,74.41888489697266,56.60494188720703,74.41888489697266,57.28884188720703,75.10287189697266C57.28884188720703,75.10287189697266,61.91832188720703,79.73294189697266,61.91832188720703,79.73294189697266C61.91832188720703,79.73294189697266,62.99672188720703,78.65434189697265,62.99672188720703,78.65434189697265C63.180921887207035,78.47019189697265,63.44392188720703,78.47019189697265,63.601721887207034,78.65434189697265C63.601721887207034,78.65434189697265,64.04892188720703,79.10157189697266,64.04892188720703,79.10157189697266C64.73282188720702,79.78555189697266,64.73282188720702,80.86414189697265,64.04892188720703,81.54813189697265C64.04892188720703,81.54813189697265,59.47205188720703,86.12558189697266,59.47205188720703,86.12558189697266C58.84076188720703,86.70438189697265,57.89383188720703,86.73068189697265,57.23623188720703,86.17818189697266C57.209931887207034,86.15188189697265,57.18363188720703,86.15188189697265,57.15732188720703,86.12558189697266C57.15732188720703,86.12558189697266,56.31560188720703,85.28378189697266,56.31560188720703,85.28378189697266C56.31560188720703,85.28378189697266,51.68615188720703,80.65369189697266,51.68615188720703,80.65369189697266C51.370501887207034,80.33800189697266,50.79182188720703,80.33800189697266,50.44987588720703,80.65369189697266C50.26574988720703,80.83784189697266,50.002711887207035,80.83784189697266,49.84488988720703,80.65369189697266C49.68706748720703,80.52215189697266,49.68706908720703,80.25908189697266,49.87119488720703,80.07493189697266ZM57.70970188720703,85.49418189697266C58.02535188720703,85.80988189697266,58.57772188720703,85.83618189697266,58.91967188720703,85.52048189697265C59.26162188720703,85.20488189697265,59.23532188720703,84.65238189697266,58.89337188720703,84.31039189697266C58.89337188720703,84.31039189697266,58.44621188720703,83.86317189697266,58.44621188720703,83.86317189697266C58.26208188720703,83.67902189697266,58.26208188720703,83.41594189697265,58.44621188720703,83.25810189697266C58.44621188720703,83.25810189697266,61.28702188720703,80.41693189697266,61.28702188720703,80.41693189697266C61.28702188720703,80.41693189697266,56.657551887207035,75.78686189697265,56.657551887207035,75.78686189697265C56.34191188720703,75.47117389697266,55.763231887207034,75.47117389697266,55.42128188720703,75.78686189697265C55.42128188720703,75.78686189697265,51.52833188720703,79.68032189697266,51.52833188720703,79.68032189697266C51.817671887207034,79.73293189697266,52.10701188720703,79.89078189697265,52.31744188720703,80.12754189697266C52.31744188720703,80.12754189697266,56.94689188720703,84.75758189697265,56.94689188720703,84.75758189697265C56.94689188720703,84.75758189697265,57.70970188720703,85.49418189697266,57.70970188720703,85.49418189697266Z" fill="url(#master_svga_810_99324)" fill-opacity="1"/></g></g><g><g><path d="M57.13102741653442,77.52314068998108C57.05211741653442,77.44421920998109,56.92059741653442,77.41791198998108,56.815377416534425,77.52314068998108C56.815377416534425,77.52314068998108,56.789077416534425,77.54944948998109,56.789077416534425,77.54944948998109C56.789077416534425,77.54944948998109,54.55326101653442,79.78555558998107,54.55326101653442,79.78555558998107C54.44804601653443,79.86448558998109,54.44804441653442,79.99601558998108,54.526955716534424,80.10124558998108C54.60586741653442,80.18016558998107,54.737384416534425,80.20646558998108,54.842600416534424,80.10124558998108C54.842600416534424,80.10124558998108,54.868905416534425,80.07493558998108,54.868905416534425,80.07493558998108C54.868905416534425,80.07493558998108,57.10472741653442,77.83882158998108,57.10472741653442,77.83882158998108C57.183637416534424,77.75990058998107,57.20993741653442,77.60206258998107,57.13102741653442,77.52314068998108Z" fill="url(#master_svgb_810_99314)" fill-opacity="1"/></g><g><path d="M58.97227715393066,79.3120261742035C58.89336715393066,79.23310456420349,58.76184715393067,79.20680217420349,58.709237153930665,79.25941657420348C58.709237153930665,79.25941657420348,58.709237153930665,79.2594101742035,58.682937153930666,79.28571737420349C58.682937153930666,79.28571737420349,56.999500453930665,80.9693820742035,56.999500453930665,80.9693820742035C56.92058945393067,81.02200207420348,56.92058945393067,81.1535320742035,56.999500453930665,81.2324620742035C57.078411153930666,81.3113820742035,57.209930153930664,81.33768207420349,57.262537153930666,81.2850720742035C57.262537153930666,81.2850720742035,57.262534153930666,81.2850620742035,57.28883815393066,81.25876207420349C57.28883815393066,81.25876207420349,58.97227715393066,79.5750980742035,58.97227715393066,79.5750980742035C59.05118715393066,79.52248407420349,59.05118715393066,79.3909480742035,58.97227715393066,79.3120261742035Z" fill="url(#master_svgc_810_99320)" fill-opacity="1"/></g><g><path d="M57.99903954679489,78.52281042262115C57.92012954679489,78.44388861262115,57.78860954679489,78.41758132262116,57.68339954679489,78.52281042262115C57.68339954679489,78.52281042262115,57.65709954679489,78.54911922262116,57.65709954679489,78.54911922262116C57.65709954679489,78.54911922262116,55.42127324679489,80.78523502262115,55.42127324679489,80.78523502262115C55.316058146794894,80.86415502262116,55.31605654679489,80.99569502262115,55.39496784679489,81.10092502262115C55.47387954679489,81.17984502262115,55.60539754679489,81.20615502262116,55.71061254679489,81.10092502262115C55.71061254679489,81.10092502262115,55.73691754679489,81.07461502262116,55.73691754679489,81.07461502262116C55.73691754679489,81.07461502262116,57.97273954679489,78.83850102262116,57.97273954679489,78.83850102262116C58.05164954679489,78.75957902262115,58.07794954679489,78.62803902262115,57.99903954679489,78.52281042262115Z" fill="url(#master_svgd_810_99317)" fill-opacity="1"/></g></g></g><g><g style="opacity:0.9800000190734863;"><path d="M129.07163060109616,53.84674501557946C129.17683060109616,53.76784501557946,129.22953060109614,53.66254501557946,129.22953060109614,53.531045015579465C129.22953060109614,53.39954501557946,129.25583060109616,53.11014501557946,129.15053060109616,53.057545015579464C127.30931060109616,51.952625015579464,126.59911060109616,50.71618501557946,126.04673060109616,49.47974501557946C125.70479060109615,48.66422501557946,125.36284060109615,47.90131501557946,124.73155060109616,47.32255501557946C124.02135060109616,46.66487501557946,123.07442060109615,46.349185015579465,121.73293060109616,46.32288501557946C121.20685060109615,46.32288501557946,120.62817060109616,46.349185015579465,119.99688060109615,46.40180501557946C119.65493060109615,44.77075501557946,119.89167060109615,43.37647501557946,119.89167060109615,43.37647501557946C119.89167060109615,43.37647501557946,119.81275060109616,42.90294501557946,119.81275060109616,42.90294501557946C119.81275060109616,42.90294501557946,118.41865560109615,43.35016701557946,118.41865560109615,43.35016701557946C118.36604760109616,45.13905501557946,118.76060060109616,46.66487501557946,119.20777060109616,47.76977501557946C119.47080060109616,48.48007501557946,119.81275060109616,49.137755015579465,120.20730060109615,49.690205015579465C120.25991060109615,49.76912501557946,120.28622060109615,49.79542501557946,120.28622060109615,49.79542501557946C122.28530060109615,52.531375015579464,125.54697060109615,53.47844501557946,125.54697060109615,53.47844501557946C122.02227060109615,53.39954501557946,119.04994060109615,50.768795015579464,118.02409960109615,47.45409501557946C117.68215160109615,48.453765015579464,117.52433060109615,49.37451501557946,117.52433060109615,50.21634501557946C117.55063430109615,51.163405015579464,117.78736460109616,52.00523501557946,118.26083160109616,52.74183501557946C119.26037060109616,54.26764501557946,121.28576060109616,55.18844501557946,123.75831060109616,55.24104501557946C125.78369060109615,55.293645015579465,127.78273060109615,54.76744501557946,129.07163060109616,53.84674501557946Z" fill="url(#master_svge_810_99309)" fill-opacity="1"/></g><g><path d="M128.99272694091798,53.34693416748047C129.09802694091798,53.26793416748047,129.15062694091796,53.162734167480465,129.15062694091796,53.03123416748047C129.15062694091796,52.89963416748047,129.07172694091798,52.79444416748047,128.96642694091798,52.74183416748047C127.12520694091796,51.63693416748047,126.49390694091797,50.21634416748047,125.96783694091798,48.97990416748047C125.62588694091797,48.16438416748047,125.28393694091797,47.40147416748047,124.65264694091798,46.82271416748047C123.94244694091797,46.16503416748047,122.99551694091797,45.84935416748047,121.65402694091797,45.82304416748047C121.12794694091797,45.82304416748047,120.54926694091797,45.84935416748047,119.91797694091797,45.90196416748047C119.57602694091797,44.270924167480466,119.81276694091797,42.87663896748047,119.81276694091797,42.87663896748047C119.81276694091797,42.87663896748047,118.33975194091796,42.85033416748047,118.33975194091796,42.85033416748047C118.28714494091797,44.63922416748047,118.68169694091797,46.16504416748047,119.12886694091797,47.26994416748047C119.39189694091797,47.98023416748047,119.73385694091797,48.63791416748047,120.12840694091797,49.19036416748047C120.18101694091797,49.26928416748047,120.20731694091796,49.295594167480466,120.20731694091796,49.295594167480466C122.20640694091797,52.03154416748047,125.46806694091796,52.978634167480465,125.46806694091796,52.978634167480465C121.94336694091797,52.89963416748047,118.97104694091797,50.268954167480466,117.94519594091797,46.95425416748047C117.60324794091797,47.953924167480466,117.44542694091797,48.87467416748047,117.44542694091797,49.716504167480466C117.47173064091797,50.663564167480466,117.70846894091797,51.50539416748047,118.18193594091797,52.24200416748047C119.18147694091797,53.76783416748047,121.20686694091796,54.68853416748047,123.67941694091797,54.74113416748047C125.70480694091796,54.82013416748047,127.70392694091797,54.29393416748047,128.99272694091798,53.34693416748047Z" fill="url(#master_svgf_810_99306)" fill-opacity="1"/></g></g><g><path d="M166.79126400756837,158.65450576171875C166.79126400756837,158.65450576171875,50.31826400756836,158.65450576171875,50.31826400756836,158.65450576171875C50.31826400756836,158.65450576171875,54.21121400756836,125.92840576171875,54.21121400756836,125.92840576171875C54.21121400756836,125.92840576171875,147.87866400756837,126.13887576171875,147.87866400756837,126.13887576171875C147.87866400756837,126.13887576171875,166.79126400756837,158.65450576171875,166.79126400756837,158.65450576171875Z" fill="url(#master_svgg_810_99289)" fill-opacity="1"/></g><g><g><path d="M147.8787553527832,111.48583826904297C147.8787553527832,111.48583826904297,141.56585535278322,91.99218826904297,141.56585535278322,91.99218826904297C141.2502553527832,91.15035626904297,140.4611553527832,90.57159246904297,139.5404553527832,90.59789965204297C139.5404553527832,90.59789965204297,62.470635352783205,90.59789965204297,62.470635352783205,90.59789965204297C61.576315352783205,90.57159246904297,60.7608953527832,91.15035626904297,60.44525535278321,91.99218826904297C60.44525535278321,91.99218826904297,54.132367252783204,111.48583826904297,54.132367252783204,111.48583826904297C54.079759852783205,111.66993826904297,54.0534553527832,111.85413826904298,54.0534553527832,112.03823826904296C54.0534553527832,112.03823826904296,54.0534553527832,123.71863826904297,54.0534553527832,123.71863826904297C54.1060627527832,124.84993826904297,55.0266923527832,125.71803826904298,56.157755352783205,125.66543826904297C56.157755352783205,125.66543826904297,145.85335535278318,125.66543826904297,145.85335535278318,125.66543826904297C146.40575535278322,125.66543826904297,146.9318553527832,125.45493826904297,147.3263553527832,125.08663826904296C147.72095535278322,124.74463826904297,147.9313553527832,124.24483826904296,147.9576553527832,123.71863826904297C147.9576553527832,123.71863826904297,147.9576553527832,112.03823826904296,147.9576553527832,112.03823826904296C147.9576553527832,111.88043826904297,147.9313553527832,111.66993826904297,147.8787553527832,111.48583826904297ZM64.0488653527832,94.51767826904297C64.0488653527832,94.51767826904297,137.9885553527832,94.51767826904297,137.9885553527832,94.51767826904297C137.9885553527832,94.51767826904297,143.0388553527832,110.11783826904298,143.0388553527832,110.11783826904298C143.0388553527832,110.11783826904298,133.2539553527832,110.11783826904298,133.2539553527832,110.11783826904298C132.1228553527832,110.06523826904296,131.2022553527832,110.95963826904297,131.1496553527832,112.06453826904297C131.1496553527832,112.06453826904297,131.1496553527832,114.01133826904297,131.1496553527832,114.01133826904297C131.1496553527832,114.01133826904297,70.91415535278321,114.01133826904297,70.91415535278321,114.01133826904297C70.91415535278321,114.01133826904297,70.91415535278321,112.06453826904297,70.91415535278321,112.06453826904297C70.8615553527832,110.93333826904296,69.9408553527832,110.06523826904296,68.8098553527832,110.11783826904298C68.8098553527832,110.11783826904298,59.024855352783206,110.11783826904298,59.024855352783206,110.11783826904298C59.024855352783206,110.11783826904298,64.0488653527832,94.51767826904297,64.0488653527832,94.51767826904297Z" fill="url(#master_svgh_810_99259)" fill-opacity="1"/></g><g><path d="M136.88378552093508,92.72878089474243C136.88378552093508,92.72878089474243,64.65384552093506,92.72878089474243,64.65384552093506,92.72878089474243C63.83843552093506,92.70247375474243,63.10192552093506,93.28123595474243,62.81258452093506,94.12306095474243C62.81258452093506,94.12306095474243,62.10238552093506,96.56963095474244,62.10238552093506,96.56963095474244C62.10238552093506,96.56963095474244,139.43528552093505,96.56963095474244,139.43528552093505,96.56963095474244C139.43528552093505,96.56963095474244,138.69878552093508,94.12306095474243,138.69878552093508,94.12306095474243C138.43568552093507,93.25492895474243,137.69918552093506,92.70247375474243,136.88378552093508,92.72878089474243Z" fill="url(#master_svgi_810_99265)" fill-opacity="1"/></g><g><path d="M141.9341150036621,116.82613173789977C141.9341150036621,116.82613173789977,145.2220750036621,116.82613173789977,145.2220750036621,116.82613173789977C145.2220750036621,116.82613173789977,145.2220750036621,114.16913173789978,145.2220750036621,114.16913173789978C145.1957750036621,113.98503173789979,145.16947500366211,113.80083173789978,145.14316500366212,113.61673173789978C145.14316500366212,113.61673173789978,138.8302850036621,94.12308173789978,138.8302850036621,94.12308173789978C138.5146350036621,93.28124873789979,137.7255250036621,92.70248593789978,136.80489560366212,92.72879312089978C136.80489560366212,92.72879312089978,136.7522850036621,92.72879312089978,136.7522850036621,92.72879312089978C136.7522850036621,92.72879312089978,136.80489560366212,96.62226173789978,136.80489560366212,96.62226173789978C136.80489560366212,96.62226173789978,141.9341150036621,116.82613173789977,141.9341150036621,116.82613173789977Z" fill="url(#master_svgj_810_99262)" fill-opacity="1"/></g><g><path d="M59.73505324836731,116.82613173789977C59.73505324836731,116.82613173789977,64.83796324836732,96.62226173789978,64.83796324836732,96.62226173789978C64.83796324836732,96.62226173789978,64.91688324836731,92.72879312089978,64.91688324836731,92.72879312089978C64.91688324836731,92.72879312089978,64.86427324836731,92.72879312089978,64.86427324836731,92.72879312089978C63.96994324836731,92.70248593789978,63.15453324836731,93.28124873789979,62.83889324836731,94.12308173789978C62.83889324836731,94.12308173789978,56.52600514836731,113.61673173789978,56.52600514836731,113.61673173789978C56.47339774836731,113.80083173789978,56.44709324836731,113.98503173789979,56.44709324836731,114.16913173789978C56.44709324836731,114.16913173789978,56.44709324836731,116.82613173789977,56.44709324836731,116.82613173789977C56.44709324836731,116.82613173789977,59.73505324836731,116.82613173789977,59.73505324836731,116.82613173789977Z" fill="url(#master_svgk_810_99256)" fill-opacity="1"/></g><g><path d="M147.8787634292662,111.48581563415527C147.8787634292662,111.48581563415527,147.4052634292662,110.03891563415527,147.4052634292662,110.03891563415527C147.4052634292662,110.03891563415527,143.0388634292662,110.09152523415527,143.0388634292662,110.09152523415527C143.0388634292662,110.09152523415527,133.25386342926623,110.09152523415527,133.25386342926623,110.09152523415527C132.1228634292662,110.03891081637528,131.20216342926622,110.93335463415528,131.1495634292662,112.03825563415528C131.1495634292662,112.03825563415528,131.1495634292662,113.98499563415527,131.1495634292662,113.98499563415527C131.1495634292662,113.98499563415527,70.91416342926621,113.98499563415527,70.91416342926621,113.98499563415527C70.91416342926621,113.98499563415527,70.91416342926621,112.03825563415528,70.91416342926621,112.03825563415528C70.88786342926622,111.09119563415527,70.20396342926621,110.27567563415528,69.33586342926621,110.09152523415527C69.33586342926621,110.09152523415527,54.57952642926622,110.09152523415527,54.57952642926622,110.09152523415527C54.57952642926622,110.09152523415527,54.18497132926621,111.48581563415527,54.18497132926621,111.48581563415527C54.13236392926621,111.66996563415528,54.106063429266214,111.85410563415527,54.106063429266214,112.03825563415528C54.106063429266214,112.03825563415528,54.106063429266214,123.71871563415527,54.106063429266214,123.71871563415527C54.158670829266214,124.84991563415528,55.07930042926621,125.71801563415528,56.210363429266216,125.66541563415527C56.210363429266216,125.66541563415527,145.9059634292662,125.66541563415527,145.9059634292662,125.66541563415527C146.45836342926623,125.66541563415527,146.9844634292662,125.45491563415527,147.3789634292662,125.08661563415528C147.77356342926623,124.74461563415528,147.98396342926623,124.24481563415527,148.01026342926622,123.71871563415527C148.01026342926622,123.71871563415527,148.01026342926622,112.03825563415528,148.01026342926622,112.03825563415528C147.95766342926623,111.88041563415527,147.9313634292662,111.66996563415528,147.8787634292662,111.48581563415527Z" fill="url(#master_svgl_810_99250)" fill-opacity="1"/></g><g><path d="M147.98396342926623,112.69595909118652C147.98396342926623,112.69595909118652,143.0388634292662,112.74857669118653,143.0388634292662,112.74857669118653C143.0388634292662,112.74857669118653,133.25386342926623,112.74857669118653,133.25386342926623,112.74857669118653C132.1228634292662,112.69596230173653,131.20216342926622,113.59040609118652,131.1495634292662,114.69530909118653C131.1495634292662,114.69530909118653,131.1495634292662,116.64203909118652,131.1495634292662,116.64203909118652C131.1495634292662,116.64203909118652,70.91416342926621,116.64203909118652,70.91416342926621,116.64203909118652C70.91416342926621,116.64203909118652,70.91416342926621,114.69530909118653,70.91416342926621,114.69530909118653C70.88786342926622,113.74824909118652,70.20396342926621,112.93272709118652,69.33586342926621,112.74857669118653C69.33586342926621,112.74857669118653,54.106063429266214,112.74857669118653,54.106063429266214,112.74857669118653C54.106063429266214,112.74857669118653,54.132367129266214,114.51115909118653,54.106063429266214,114.69530909118653C54.106063429266214,114.69530909118653,54.106063429266214,126.37575909118652,54.106063429266214,126.37575909118652C54.158670829266214,127.50695909118653,55.07930042926621,128.37505909118653,56.210363429266216,128.32245909118652C56.210363429266216,128.32245909118652,145.9059634292662,128.32245909118652,145.9059634292662,128.32245909118652C146.45836342926623,128.32245909118652,146.9844634292662,128.11195909118652,147.3789634292662,127.74365909118653C147.77356342926623,127.40165909118653,147.98396342926623,126.90185909118652,148.01026342926622,126.37575909118652C148.01026342926622,126.37575909118652,148.01026342926622,114.69530909118653,148.01026342926622,114.69530909118653C147.95766342926623,114.51115909118653,147.98396342926623,112.69595909118652,147.98396342926623,112.69595909118652Z" fill="url(#master_svgm_810_99253)" fill-opacity="1"/></g></g><g><g style="opacity:0.9800000190734863;"><path d="M113.18420885009766,105.06678441772462C113.18420885009766,105.06678441772462,111.02730885009765,107.22398441772461,111.02730885009765,107.22398441772461C110.29080885009765,107.96058441772462,109.23860885009765,108.32888441772461,108.18650885009765,108.22358441772461C108.18650885009765,108.22358441772461,75.35947885009766,104.38278441772461,75.35947885009766,104.38278441772461C73.72864885009766,104.19858441772462,68.52051385009766,102.88328441772461,68.36269155009765,101.2521844177246C68.36269155009765,101.2521844177246,68.36269155009765,58.08211441772461,68.36269155009765,58.08211441772461C68.25747675009765,57.05613441772461,68.62573385009766,56.05645441772461,69.36223885009765,55.319854417724606C69.36223885009765,55.319854417724606,71.54543885009765,53.13635441772461,71.54543885009765,53.13635441772461C72.20302885009765,52.47867441772461,73.07105885009766,52.13668441772461,73.99168885009766,52.13668441772461C73.99168885009766,52.13668441772461,110.71160885009766,52.13668441772461,110.71160885009766,52.13668441772461C112.63180885009766,52.13668441772461,114.15740885009765,53.68881441772461,114.15740885009765,55.58292441772461C114.15740885009765,55.58292441772461,114.15740885009765,102.6201844177246,114.15740885009765,102.6201844177246C114.18370885009766,103.54098441772462,113.81550885009766,104.40908441772461,113.18420885009766,105.06678441772462Z" fill="url(#master_svgn_810_99293)" fill-opacity="1"/></g><g><path d="M108.76519415356219,108.40781305389405C108.76519415356219,108.40781305389405,70.62481415356218,108.40781305389405,70.62481415356218,108.40781305389405C69.3622361535622,108.40781305389405,68.36269415356219,107.38181305389404,68.36269415356219,106.14531305389404C68.36269415356219,106.14531305389404,68.36269415356219,57.42443305389404,68.36269415356219,57.42443305389404C68.36269415356219,56.161688053894046,69.3885441535622,55.16201305389404,70.62481415356218,55.16201305389404C70.62481415356218,55.16201305389404,108.76519415356219,55.16201305389404,108.76519415356219,55.16201305389404C110.02779415356218,55.16201305389404,111.0272941535622,56.18799305389404,111.0272941535622,57.42443305389404C111.0272941535622,57.42443305389404,111.0272941535622,106.14531305389404,111.0272941535622,106.14531305389404C111.0272941535622,107.38181305389404,110.02779415356218,108.40781305389405,108.76519415356219,108.40781305389405Z" fill="url(#master_svgo_810_99296)" fill-opacity="1"/></g></g><g filter="url(#master_svgp_810_99371)"><path d="M75.57187406494141,60.57307815551758L71.8801040649414,60.57307815551758L71.8801040649414,64.26535815551757L73.8801040649414,64.26535815551757L73.8801040649414,62.57307815551758L75.57187406494141,62.57307815551758L75.57187406494141,60.57307815551758L75.57187406494141,60.57307815551758ZM75.57187406494141,94.01857815551759L73.8801040649414,94.01857815551759L73.8801040649414,92.32637815551757L71.8801040649414,92.32637815551757L71.8801040649414,96.01857815551759L75.57187406494141,96.01857815551759L75.57187406494141,94.01857815551759ZM103.6292040649414,96.01857815551759L103.6292040649414,94.01857815551759L105.3209040649414,94.01857815551759L105.3209040649414,92.32637815551757L107.3209040649414,92.32637815551757L107.3209040649414,96.01857815551759L103.6292040649414,96.01857815551759ZM103.6292040649414,62.57307815551758L103.6292040649414,60.57307815551758L107.3209040649414,60.57307815551758L107.3209040649414,64.26535815551757L105.3209040649414,64.26535815551757L105.3209040649414,62.57307815551758L103.6292040649414,62.57307815551758Z" fill-rule="evenodd" fill="#F4F8FF" fill-opacity="1"/></g><g filter="url(#master_svgq_810_99364)"><path d="M94.8825678955078,83.57860192871094L98.88666789550781,83.57860192871094L98.88666789550781,79.57390192871094L102.89076789550782,79.57390192871094L102.89076789550782,85.58090192871094L98.88666789550781,85.58090192871094L98.88666789550781,87.58320192871093L94.8825678955078,87.58320192871093L94.8825678955078,85.58090192871094L90.87836789550781,85.58090192871094L90.87836789550781,79.57390192871094L94.8825678955078,79.57390192871094L94.8825678955078,83.57860192871094ZM76.86396789550781,79.57390192871094L88.87636789550781,79.57390192871094L88.87636789550781,91.58790192871093L76.86396881197982,91.58790192871093L76.86396789550781,79.57390192871094ZM80.86809789550782,83.57860192871094L80.86809789550782,87.58320192871093L84.87221789550782,87.58320192871093L84.87221789550782,83.57860192871094L80.86809789550782,83.57860192871094ZM76.86396881197982,65.55760192871094L88.87636789550781,65.55760192871094L88.87636789550781,77.57160192871093L76.86396881197982,77.57160192871093L76.86396881197982,65.55760192871094ZM80.86809789550782,69.56226192871094L80.86809789550782,73.56691192871094L84.87221789550782,73.56691192871094L84.87221789550782,69.56226192871094L80.86809789550782,69.56226192871094ZM90.87836789550781,65.55760284530393L102.89076789550782,65.55760284530393L102.89076789550782,77.57160192871093L90.87836789550781,77.57160192871093L90.87836789550781,65.55760284530393ZM94.8825678955078,69.56226192871094L94.8825678955078,73.56691192871094L98.88666789550781,73.56691192871094L98.88666789550781,69.56226192871094L94.8825678955078,69.56226192871094ZM98.88666789550781,87.58320192871093L102.89076789550782,87.58320192871093L102.89076789550782,91.58790192871093L98.88666789550781,91.58790192871093L98.88666789550781,87.58320192871093ZM90.87836789550781,87.58320192871093L94.8825678955078,87.58320192871093L94.8825678955078,91.58790192871093L90.87836789550781,91.58790192871093L90.87836789550781,87.58320192871093Z" fill="url(#master_svgr_810_99366)" fill-opacity="1"/></g></g></svg>