<svg xmlns="http://www.w3.org/2000/svg" xmlns:xlink="http://www.w3.org/1999/xlink" fill="none" version="1.1" width="14" height="14" viewBox="0 0 14 14"><defs><clipPath id="master_svg0_2096_72036"><rect x="0" y="0" width="14" height="14" rx="0"/></clipPath><clipPath id="master_svg1_2096_72037"><rect x="0" y="0" width="14" height="14" rx="0"/></clipPath></defs><g clip-path="url(#master_svg0_2096_72036)"><g clip-path="url(#master_svg1_2096_72037)"><g><path d="M9.233161817314148,3.45868985226593C7.638521117314148,1.86404902226593,5.053097817314148,1.86404902226593,3.4584569173141477,3.45868985226593C1.8638160873141478,5.05333075226593,1.8638160873141478,7.63875405226593,3.4584569173141477,9.23339475226593C5.053097817314148,10.82803645226593,7.638521117314148,10.82803645226593,9.233161817314148,9.23339475226593C10.827803517314148,7.63875405226593,10.827803517314148,5.05333075226593,9.233161817314148,3.45868985226593ZM2.633499017314148,2.63373195226593C4.683751417314149,0.5834795822659302,8.007867717314149,0.5834795822659302,10.058119617314148,2.63373195226593C11.968950817314148,4.54456295226593,12.098891817314147,7.56189695226593,10.447941617314148,9.62321675226593C10.447941617314148,9.62321675226593,12.532993817314148,11.70826875226593,12.532993817314148,11.70826875226593C12.532993817314148,11.70826875226593,11.708035817314148,12.53322675226593,11.708035817314148,12.53322675226593C11.708035817314148,12.53322675226593,9.622983817314148,10.44817455226593,9.622983817314148,10.44817455226593C7.561664017314148,12.09912475226593,4.544330017314148,11.96918375226593,2.633499017314148,10.05835255226593C0.583246647314148,8.00810065226593,0.583246647314148,4.683984352265931,2.633499017314148,2.63373195226593Z" fill-rule="evenodd" fill="#FFFFFF" fill-opacity="1"/></g></g></g></svg>