<svg xmlns="http://www.w3.org/2000/svg" xmlns:xlink="http://www.w3.org/1999/xlink" fill="none" version="1.1" width="44" height="44" viewBox="0 0 44 44"><g><g></g><g><g><path d="M7.85786,39.14210190734863Q5.09026,36.37450190734863,3.57211,32.785201907348636Q1.999999821186,29.068301907348634,2.000000119209,25.000001907348633Q1.999999642372,20.931701907348632,3.57211,17.214801907348633Q5.09027,13.625461907348633,7.85786,10.857861907348632Q10.62546,8.090271907348633,14.2148,6.572111907348633Q17.9317,5.000001430511633,22,5.000001907348633Q26.0683,4.999999999998633,29.7852,6.572111907348633Q33.3745,8.090261907348633,36.1421,10.857861907348632Q38.9097,13.625451907348634,40.4279,17.214801907348633Q42,20.931701907348632,42,25.000001907348633Q42,29.068301907348634,40.4279,32.785201907348636Q38.9097,36.37450190734863,36.1421,39.14210190734863C35.9546,39.329701907348635,35.7002,39.435001907348635,35.435,39.435001907348635C34.8827,39.435001907348635,34.435,38.98730190734863,34.435,38.435001907348635C34.435,38.169801907348635,34.5404,37.915501907348634,34.7279,37.72790190734863Q37.2197,35.23620190734863,38.5859,32.006101907348636Q40,28.662801907348634,40,25.000001907348633Q40,21.337201907348632,38.5859,17.993901907348633Q37.2197,14.763821907348634,34.7279,12.272081907348632Q32.2361,9.780311907348633,29.0061,8.414121907348633Q25.6628,7.000001907348633,22,7.000001907348633Q18.3372,7.000001907348633,14.9939,8.414121907348633Q11.76384,9.780311907348633,9.272079999999999,12.272081907348632Q6.78032,14.763841907348633,5.4141200000000005,17.993901907348633Q4,21.337201907348632,4,25.000001907348633Q4,28.662801907348634,5.4141200000000005,32.006101907348636Q6.78031,35.23620190734863,9.272079999999999,37.72790190734863C9.45961,37.915501907348634,9.564969999999999,38.169801907348635,9.564969999999999,38.435001907348635C9.564969999999999,38.98730190734863,9.11726,39.435001907348635,8.564969999999999,39.435001907348635C8.29975,39.435001907348635,8.0454,39.329701907348635,7.85786,39.14210190734863Z" fill-rule="evenodd" fill="#62E03F" fill-opacity="1"/></g><g transform="matrix(0,1,-1,0,23.5,-0.5)"><path d="M16.5,12.5C16.5,12.73394,16.41798,12.96047,16.26822,13.14018L13.76832,16.14007C13.57823,16.36818,13.29678,16.5,13,16.5C12.447715,16.5,12,16.05228,12,15.5C12,15.26606,12.0820162,15.03953,12.231779,14.85982L14.73168,11.85993C14.92177,11.631823,15.20322,11.5,15.5,11.5C16.05228,11.5,16.5,11.947715,16.5,12.5Z" fill-rule="evenodd" fill="#62E03F" fill-opacity="1"/></g><g transform="matrix(0,1,1,0,20,-20)"><path d="M36,12C36,12.23871,35.914609999999996,12.46955,35.75926,12.65079L32.75959,16.1504L32.75959,16.1504C32.56927,16.37244,32.29192,16.5,32,16.5C31.447715,16.5,31,16.05228,31,15.5C31,15.261289999999999,31.0853922,15.03045,31.240743,14.84921L34.24063,11.349341C34.43073,11.127563,34.70808,11,35,11C35.552279999999996,11,36,11.447715,36,12Z" fill-rule="evenodd" fill="#62E03F" fill-opacity="1"/></g><g transform="matrix(0,-1,1,0,-7,71)"><path d="M37,40C37,40.23871,36.914609999999996,40.46955,36.75926,40.65079L33.75959,44.1504L33.75959,44.1504C33.56927,44.37244,33.29192,44.5,33,44.5C32.447715,44.5,32,44.052279999999996,32,43.5C32,43.26129,32.0853922,43.03045,32.240743,42.84921L35.24063,39.349341C35.43073,39.127563,35.70808,39,36,39C36.552279999999996,39,37,39.447715,37,40Z" fill-rule="evenodd" fill="#62E03F" fill-opacity="1"/></g><g><path d="M3.9999996423721313,24L7.999999642372131,24C8.552279642372131,24,8.999999642372131,24.447715,8.999999642372131,25C8.999999642372131,25.55228,8.552279642372131,26,7.999999642372131,26L3.9999996423721313,26C3.4477146423721314,26,2.9999996423721313,25.55228,2.9999996423721313,25C2.9999996423721313,24.447715,3.4477146423721314,24,3.9999996423721313,24Z" fill-rule="evenodd" fill="#62E03F" fill-opacity="1"/></g><g transform="matrix(0,1,-1,0,28.001007080078125,-18.001007080078125)"><path d="M24.001007080078125,5L28.001007080078125,5C28.553287080078125,5,29.001007080078125,5.447715,29.001007080078125,6C29.001007080078125,6.55228,28.553287080078125,7,28.001007080078125,7L24.001007080078125,7C23.448722080078124,7,23.001007080078125,6.55228,23.001007080078125,6C23.001007080078125,5.447715,23.448722080078124,5,24.001007080078125,5Z" fill-rule="evenodd" fill="#62E03F" fill-opacity="1"/></g><g><path d="M36,24L40,24C40.552279999999996,24,41,24.447715,41,25C41,25.55228,40.552279999999996,26,40,26L36,26C35.447715,26,35,25.55228,35,25C35,24.447715,35.447715,24,36,24Z" fill-rule="evenodd" fill="#62E03F" fill-opacity="1"/></g><g><path d="M40.56239964237213,39.498053740234376L40.56239964237213,39.498053740234376Q32.48099964237213,40.00309374023438,27.400499642372132,39.495033740234376Q25.139799642372132,39.268963740234376,24.04419964237213,38.953213740234375Q23.26849964237213,38.72964374023437,22.27299964237213,38.16185374023438Q21.03659964237213,37.456723740234374,19.648899642372132,36.936333740234375Q15.940399642372132,35.545663740234374,4.242539642372131,38.47014374023438C4.163219642372131,38.489973740234376,4.081759642372131,38.500003740234376,3.9999996423721313,38.500003740234376C3.4477146423721314,38.500003740234376,2.9999996423721313,38.05228374023437,2.9999996423721313,37.500003740234376C2.9999996423721313,37.04113374023437,3.3122966423721314,36.64115374023437,3.7574636423721315,36.52985374023437Q16.05959964237213,33.454333740234375,20.35109964237213,35.063671740234376Q21.88859964237213,35.64021374023437,23.26379964237213,36.42454374023438Q24.05189964237213,36.874013740234375,24.59809964237213,37.03143374023438Q25.519299642372133,37.296943740234376,27.59949964237213,37.50496374023437Q32.51869964237213,37.996883740234374,40.437599642372135,37.501943740234374C40.45839964237213,37.50065374023438,40.47919964237213,37.500003740234376,40.49999964237213,37.500003740234376C41.052299642372134,37.500003740234376,41.49999964237213,37.94771374023438,41.49999964237213,38.500003740234376C41.49999964237213,39.02806374023437,41.08939964237213,39.46511374023437,40.56239964237213,39.498053740234376Z" fill-rule="evenodd" fill="#62E03F" fill-opacity="1"/></g><g><path d="M22,30C24.209139999999998,30,26,28.209139999999998,26,26C26,23.79086,24.209139999999998,22,22,22C19.79086,22,18,23.79086,18,26C18,28.209139999999998,19.79086,30,22,30ZM22,24C23.10457,24,24,24.89543,24,26C24,27.10457,23.10457,28,22,28C20.89543,28,20,27.10457,20,26C20,24.89543,20.89543,24,22,24Z" fill-rule="evenodd" fill="#62E03F" fill-opacity="1"/></g><g><path d="M30.5,19C30.5,19.26522,30.39464,19.51957,30.20711,19.70711L25.20711,24.70711C25.01957,24.89464,24.76522,25,24.5,25C23.947715,25,23.5,24.55228,23.5,24C23.5,23.73478,23.605357,23.48043,23.792893,23.29289L23.792893,23.29289L28.79252,18.293268L28.79252,18.293268C28.98043,18.105357,29.23478,18,29.5,18C30.05228,18,30.5,18.447715,30.5,19Z" fill-rule="evenodd" fill="#62E03F" fill-opacity="1"/></g></g></g></svg>