<svg xmlns="http://www.w3.org/2000/svg" xmlns:xlink="http://www.w3.org/1999/xlink" fill="none" version="1.1" width="44" height="44" viewBox="0 0 44 44"><g><g></g><g><g><path d="M28.5,35L4.5,35Q3.2573600000000003,35,2.37868,34.121300000000005Q1.500000119209,33.242599999999996,1.500000119209,32L1.5,10Q1.5,8.75736,2.37868,7.87868Q3.2573600000000003,7.000000178814,4.5,7.000000119209L38.5,7Q39.7426,7,40.6213,7.87868Q41.5,8.75736,41.5,10L41.5,24C41.5,24.5523,41.0523,25,40.5,25C39.9477,25,39.5,24.5523,39.5,24L39.5,10Q39.5,9.58579,39.2071,9.29289Q38.9142,9,38.5,9L4.5,9Q4.085789999999999,9,3.79289,9.29289Q3.5,9.58579,3.5,10L3.5,32Q3.5,32.4142,3.79289,32.7071Q4.085789999999999,33,4.5,33L28.5,33C29.0523,33,29.5,33.4477,29.5,34C29.5,34.5523,29.0523,35,28.5,35Z" fill-rule="evenodd" fill="#65EBF9" fill-opacity="1"/></g><g><path d="M21.5,20.7825L4.07046,8.678677C3.90292,8.5623282,3.7039,8.5,3.5,8.5C2.947715,8.5,2.5,8.947715,2.5,9.5C2.5,9.82763,2.660495,10.13449,2.929604,10.32137L20.9296,22.8214C21.2726,23.0595,21.7274,23.0595,22.0704,22.8214L40.0704,10.32137C40.3395,10.13449,40.5,9.82763,40.5,9.5C40.5,8.947715,40.0523,8.5,39.5,8.5C39.2961,8.5,39.0971,8.5623282,38.9296,8.67863L21.5,20.7825Z" fill-rule="evenodd" fill="#65EBF9" fill-opacity="1"/></g><g><path d="M19,20C19,20.29094,18.8733,20.56745,18.6529,20.75741L4.15294,33.257400000000004C3.9714,33.4139,3.73969,33.5,3.5,33.5C2.947715,33.5,2.5,33.0523,2.5,32.5C2.5,32.2091,2.626703,31.9326,2.84706,31.7426L17.347099999999998,19.24259C17.5286,19.0860896,17.7603,19,18,19C18.5523,19,19,19.447715,19,20Z" fill-rule="evenodd" fill="#65EBF9" fill-opacity="1"/></g><g><path d="M34.5,37C38.9183,37,42.5,33.4183,42.5,29C42.5,24.58172,38.9183,21,34.5,21C30.08172,21,26.5,24.58172,26.5,29C26.5,33.4183,30.08172,37,34.5,37ZM34.5,23C37.8137,23,40.5,25.68629,40.5,29C40.5,32.3137,37.8137,35,34.5,35C31.18629,35,28.5,32.3137,28.5,29C28.5,25.68629,31.18629,23,34.5,23Z" fill-rule="evenodd" fill="#65EBF9" fill-opacity="1"/></g><g transform="matrix(0.7071067690849304,-0.7071067690849304,0.7071067690849304,0.7071067690849304,-11.951530703547064,29.045941143617597)"><path d="M30.085786819458008,28.949745178222656C29.533501819458007,28.949745178222656,29.085786819458008,29.397460178222655,29.085786819458008,29.949745178222656L29.085786819458008,33.949745178222656C29.085786819458008,34.50202517822265,29.533501819458007,34.949745178222656,30.085786819458008,34.949745178222656L37.08578681945801,34.949745178222656C37.638066819458004,34.949745178222656,38.08578681945801,34.50202517822265,38.08578681945801,33.949745178222656C38.08578681945801,33.39746517822266,37.638066819458004,32.949745178222656,37.08578681945801,32.949745178222656L31.085786819458008,32.949745178222656L31.085786819458008,29.949745178222656C31.085786819458008,29.397460178222655,30.638066819458007,28.949745178222656,30.085786819458008,28.949745178222656Z" fill-rule="evenodd" fill="#65EBF9" fill-opacity="1"/></g></g></g></svg>