<svg xmlns="http://www.w3.org/2000/svg" xmlns:xlink="http://www.w3.org/1999/xlink" fill="none" version="1.1" width="48.16813659667969" height="45.20063781738281" viewBox="0 0 48.16813659667969 45.20063781738281"><g><g></g><g><g transform="matrix(0.9659258127212524,0.2588190734386444,-0.2588190734386444,0.9659258127212524,3.05139755270352,-9.012667932233853)"><path d="M43.12267970703125,11.345256643066406Q40.52650970703125,8.647786643066407,37.15702970703125,7.1670023430664065C37.03021970703125,7.111273243066406,36.89321970703125,7.082496643066406,36.75469970703125,7.082496643066406C36.20241470703125,7.082496643066406,35.75469970703125,7.530211643066406,35.75469970703125,8.082496643066406C35.75469970703125,8.479196643066405,35.98919370703125,8.838386643066407,36.35236870703125,8.997986643066406Q39.35976970703125,10.319646643066406,41.68166970703125,12.732146643066407Q44.00745970703125,15.148696643066407,45.283609707031246,18.283596643066407Q46.60599970703125,21.532096643066406,46.60599970703125,25.092096643066405Q46.60599970703125,28.652096643066407,45.283609707031246,31.900696643066407Q44.00746970703125,35.035596643066405,41.68166970703125,37.452096643066405Q39.36021970703125,39.86419664306641,36.35354670703125,41.1857966430664L36.35236770703125,41.186296643066406C35.98919270703125,41.3458966430664,35.75469970703125,41.705096643066405,35.75469970703125,42.10179664306641C35.75469970703125,42.6540966430664,36.20241470703125,43.10179664306641,36.75469970703125,43.10179664306641C36.89321970703125,43.10179664306641,37.03021970703125,43.0729966430664,37.15702970703125,43.01729664306641L37.15826970703125,43.0166966430664Q40.52699970703125,41.535996643066404,43.12267970703125,38.83899664306641Q45.71496970703125,36.145596643066405,47.135999707031246,32.654796643066405Q48.60599970703125,29.043596643066405,48.60599970703125,25.092096643066405Q48.60599970703125,21.140696643066406,47.135999707031246,17.529496643066405Q45.71495970703125,14.038686643066406,43.12267970703125,11.345256643066406Z" fill-rule="evenodd" fill="#F67008" fill-opacity="1"/></g><g transform="matrix(-0.9659258127212524,-0.25881901383399963,0.25881901383399963,-0.9659258127212524,14.53822827030399,78.15026011205191)"><path d="M19.7814321484375,42.380893544921875Q17.185262148437502,39.68342354492187,13.8157821484375,38.202639244921876C13.6889721484375,38.146910144921875,13.5519721484375,38.118133544921875,13.4134521484375,38.118133544921875C12.8611671484375,38.118133544921875,12.4134521484375,38.56584854492188,12.4134521484375,39.118133544921875C12.4134521484375,39.51483354492188,12.6479461484375,39.874023544921876,13.0111211484375,40.03362354492187Q16.0185221484375,41.355283544921875,18.3404221484375,43.767783544921876Q20.666212148437502,46.18433354492188,21.9423621484375,49.31923354492187Q23.264752148437502,52.56773354492188,23.264752148437502,56.127733544921874Q23.264752148437502,59.687733544921876,21.9423621484375,62.93633354492188Q20.666222148437498,66.07123354492188,18.3404221484375,68.48773354492187Q16.0189721484375,70.89983354492188,13.0122991484375,72.22143354492187L13.0111201484375,72.22193354492188C12.6479451484375,72.38153354492187,12.4134521484375,72.74073354492188,12.4134521484375,73.13743354492188C12.4134521484375,73.68973354492186,12.8611671484375,74.13743354492188,13.4134521484375,74.13743354492188C13.5519721484375,74.13743354492188,13.6889721484375,74.10863354492187,13.8157821484375,74.05293354492187L13.8170221484375,74.05233354492188Q17.1857521484375,72.57163354492187,19.7814321484375,69.87463354492188Q22.3737221484375,67.18123354492187,23.7947521484375,63.69043354492187Q25.264752148437502,60.07923354492188,25.264752148437502,56.127733544921874Q25.264752148437502,52.176333544921874,23.7947521484375,48.56513354492188Q22.373712148437498,45.074323544921874,19.7814321484375,42.380893544921875Z" fill-rule="evenodd" fill="#F67008" fill-opacity="1"/></g></g><g><path d="M27.68535126953125,21.3598L29.54645126953125,4.610432Q29.56835126953125,4.4127356,29.51305126953125,4.221682Q29.45765126953125,4.030629,29.33345126953125,3.875305Q29.20915126953125,3.71998,29.03495126953125,3.624031Q28.86065126953125,3.528083,28.66295126953125,3.506116Q28.53845126953125,3.49228,28.414351269531252,3.509594Q28.29025126953125,3.526908,28.17425126953125,3.574303Q28.05835126953125,3.621698,27.95755126953125,3.696242Q27.856851269531248,3.770787,27.777651269531248,3.867873L12.27768626953125,22.8679Q12.15194826953125,23.022,12.09476526953125,23.2125Q12.03758126953125,23.403,12.05765826953125,23.6009Q12.07773426953125,23.7988,12.17201426953125,23.974Q12.266294269531251,24.1491,12.42042426953125,24.2749Q12.57647926953125,24.4022,12.76964926953125,24.4592Q12.96281806953125,24.5161,13.16298326953125,24.4939L20.868761269531248,23.6377L18.56383126953125,38.8502Q18.54908126953125,38.9476,18.55361126953125,39.046Q18.558131269531252,39.1443,18.58177126953125,39.24Q18.60540126953125,39.3356,18.64723126953125,39.4247Q18.68907126953125,39.5139,18.74749126953125,39.5932Q18.80592126953125,39.6725,18.87869126953125,39.7388Q18.95146126953125,39.8052,19.03578126953125,39.8561Q19.12010126953125,39.907,19.21273126953125,39.9405Q19.30536126953125,39.974,19.402741269531248,39.9887Q19.52652126953125,40.0075,19.65109126953125,39.9951Q19.77567126953125,39.9828,19.89336126953125,39.9401Q20.01105126953125,39.8975,20.11459126953125,39.8271Q20.21814126953125,39.7567,20.30114126953125,39.663L35.801151269531246,22.163Q35.866451269531254,22.0893,35.916151269531255,22.0042Q35.96575126953125,21.9192,35.99785126953125,21.8261Q36.03005126953125,21.733,36.04335126953125,21.6354Q36.05665126953125,21.5378,36.05075126953125,21.4395Q36.04475126953125,21.3412,36.01975126953125,21.2459Q35.99475126953125,21.1507,35.95155126953125,21.0621Q35.90845126953125,20.9736,35.84885126953125,20.8951Q35.78935126953125,20.8167,35.71555126953125,20.7514Q35.63655126953125,20.6814,35.544551269531254,20.6294Q35.45255126953125,20.5774,35.35175126953125,20.5458Q35.25095126953125,20.5142,35.145751269531246,20.5044Q35.04065126953125,20.494500000000002,34.93575126953125,20.5068L27.68535126953125,21.3598ZM27.184251269531252,7.75922L25.55865126953125,22.3896Q25.546051269531247,22.5032,25.55935126953125,22.6168Q25.57095126953125,22.7147,25.60125126953125,22.8083Q25.63165126953125,22.902,25.679751269531252,22.988Q25.72775126953125,23.074,25.79165126953125,23.1489Q25.85565126953125,23.2238,25.93295126953125,23.2849Q26.010251269531253,23.3459,26.09795126953125,23.3907Q26.18565126953125,23.4355,26.280451269531248,23.4623Q26.375251269531248,23.4891,26.47335126953125,23.4969Q26.57155126953125,23.5047,26.669351269531248,23.4932L32.56575126953125,22.7995L21.04836126953125,35.803L23.04127126953125,22.6498Q23.06095126953125,22.52,23.04643126953125,22.3896Q23.03556126953125,22.2917,23.00579126953125,22.1978Q22.976031269531248,22.1039,22.928521269531252,22.0176Q22.88101126953125,21.9314,22.81758126953125,21.856Q22.75415126953125,21.7807,22.67724126953125,21.7191Q22.60034126953125,21.6576,22.51290126953125,21.6123Q22.42547126953125,21.5669,22.33087126953125,21.5395Q22.236261269531248,21.5121,22.13814126953125,21.5037Q22.04001126953125,21.4952,21.94212126953125,21.5061L15.37436126953125,22.2359L27.184251269531252,7.75922Z" fill-rule="evenodd" fill="#F67008" fill-opacity="1"/></g></g></svg>