<svg xmlns="http://www.w3.org/2000/svg" xmlns:xlink="http://www.w3.org/1999/xlink" fill="none" version="1.1" width="38" height="44" viewBox="0 0 38 44"><g><g><path d="M38,8.7982807L38,41.07584C38,42.69273,36.694412,44.000004,35.07962,44.000004L2.8523469,44.000004C1.2375479,43.965603,-0.033677161,42.623924,0.00068027043,41.007038L0.00068027043,2.9585614C0.00068027043,1.3416734,1.3062627,0,2.9210618,0L29.247444,0L38,8.7982807Z" fill="#7D9BE0" fill-opacity="1" style="mix-blend-mode:passthrough"/></g><g><path d="M38,9L32.0267062,9C30.3531157,9,29,7.6627564,29,6.0087976L29,0L38,9Z" fill="#CCDCFF" fill-opacity="1" style="mix-blend-mode:passthrough"/></g><g><g><path d="M33.757755,33.00000020617676L5.20157,33.00000020617676C5.12108334,32.992025206176756,5.05112065,32.94018620617676,5.018707236,32.864509206176756C4.98629484,32.788835206176756,4.9965083504,32.70116620617676,5.045403704,32.63537820617676L13.2553062,24.15788170617676C13.4139519,24.036341206176758,13.6320906,24.036341206176758,13.7907352,24.15788170617676L18.609591,26.755824106176757C18.768238,26.87736460617676,18.986373,26.87736460617676,19.145020000000002,26.755824106176757L24.833946,20.716747146176758C25.007444,20.54302995317676,25.285118,20.54302995317676,25.458616,20.716747146176758L33.936229999999995,32.63537820617676C34.021260999999996,32.723991206176755,34.021260999999996,32.86581120617676,33.936229999999995,32.95442420617675L33.757755,33.00000020617676Z" fill="#FFFFFF" fill-opacity="1" style="mix-blend-mode:passthrough"/></g><g><path d="M11.626713887895649,19.2811215C11.625510856597948,20.540591,12.624692615397949,21.562243,13.857664845397949,21.562243C15.09063694539795,21.562243,16.08982084539795,20.540591,16.08861784539795,19.2811215C16.08982084539795,18.021652,15.09063694539795,17,13.857664845397949,17C12.624692615397949,17,11.62550881409795,18.0216541,11.626713887895649,19.2811215Z" fill="#FFFFFF" fill-opacity="1" style="mix-blend-mode:passthrough"/></g></g></g></svg>