<svg xmlns="http://www.w3.org/2000/svg" xmlns:xlink="http://www.w3.org/1999/xlink" fill="none" version="1.1" width="38" height="44" viewBox="0 0 38 44"><g><g><g><path d="M38,8.7982807L38,41.07584C38,42.69273,36.694412,44.000004,35.07962,44.000004L2.8523469,44.000004C1.2375479,43.965603,-0.033677161,42.623924,0.00068027043,41.007038L0.00068027043,2.9585614C0.00068027043,1.3416734,1.3062627,0,2.9210618,0L29.247444,0L38,8.7982807Z" fill="#A8A8A8" fill-opacity="1" style="mix-blend-mode:passthrough"/></g><g><path d="M38,9L32.0267062,9C30.3531157,9,29,7.6627564,29,6.0087976L29,0L38,9Z" fill="#CECECE" fill-opacity="1" style="mix-blend-mode:passthrough"/></g></g><g><path d="M17.1199999,24.856L20.863999800000002,24.856C20.6479998,21.592,24.656,21.3280001,24.656,17.7519999C24.656,14.487999,22.3280001,13,19.3280001,13C17.1680002,13,15.272,13.98399925,14,15.5439997L16.3520002,17.703999500000002C17.072,16.8639994,17.8399997,16.4559994,18.8239999,16.4559994C19.8559999,16.4559994,20.5759997,17.0079994,20.5759997,18.1359997C20.5759997,20.3199997,16.7119999,21.0879993,17.1199999,24.856ZM18.9920001,31.528C20.408,31.528,21.4400001,30.496,21.4400001,29.08C21.4400001,27.664,20.408,26.68,18.9920001,26.68C17.5759997,26.68,16.544000099999998,27.664,16.544000099999998,29.08C16.544000099999998,30.496,17.552,31.528,18.9920001,31.528Z" fill="#FFFFFF" fill-opacity="1"/></g></g></svg>