<svg xmlns="http://www.w3.org/2000/svg" xmlns:xlink="http://www.w3.org/1999/xlink" fill="none" version="1.1" width="113" height="130" viewBox="0 0 113 130"><defs><linearGradient x1="0.5" y1="0" x2="0.5" y2="1" id="master_svg0_3301_048943"><stop offset="0%" stop-color="#FF6666" stop-opacity="1"/><stop offset="100%" stop-color="#F05542" stop-opacity="1"/></linearGradient><filter id="master_svg1_3301_048924" filterUnits="objectBoundingBox" color-interpolation-filters="sRGB" x="-0.11728395199815671" y="-0.10266666979980478" width="1.2345679039963133" height="1.2346666738281251"><feFlood flood-opacity="0" result="BackgroundImageFix"/><feColorMatrix in="SourceAlpha" type="matrix" values="0 0 0 0 0 0 0 0 0 0 0 0 0 0 0 0 0 0 127 0"/><feOffset dy="1" dx="0"/><feGaussianBlur stdDeviation="2"/><feColorMatrix type="matrix" values="0 0 0 0 0.8214285969734192 0 0 0 0 0.029077118262648582 0 0 0 0 0.029077118262648582 0 0 0 1 0"/><feBlend mode="normal" in2="BackgroundImageFix" result="effect1_dropShadow"/><feBlend mode="normal" in="SourceGraphic" in2="effect1_dropShadow" result="shape"/></filter><filter id="master_svg2_3301_048925" filterUnits="objectBoundingBox" color-interpolation-filters="sRGB" x="-0.36" y="-0.28" width="1.64" height="1.64"><feFlood flood-opacity="0" result="BackgroundImageFix"/><feColorMatrix in="SourceAlpha" type="matrix" values="0 0 0 0 0 0 0 0 0 0 0 0 0 0 0 0 0 0 127 0"/><feOffset dy="1" dx="-1"/><feGaussianBlur stdDeviation="2"/><feColorMatrix type="matrix" values="0 0 0 0 0.8452380895614624 0 0 0 0 0.14805209636688232 0 0 0 0 0.05235988274216652 0 0 0 1 0"/><feBlend mode="normal" in2="BackgroundImageFix" result="effect1_dropShadow"/><feBlend mode="normal" in="SourceGraphic" in2="effect1_dropShadow" result="shape"/></filter></defs><path d="M107.99998,29.995115L107.99998,121.69273C107.99998,126.28616,104.28937,130.00002,99.699959,130.00002L8.1066694,130.00002C3.517241,129.90229,-0.095714025,126.09069,0.0019333999,121.49727L0.0019333999,13.4050045C0.0019333999,8.8115723,3.7125359,5,8.3019648,5L83,5L107.99998,29.995115Z" fill="url(#master_svg0_3301_048943)" fill-opacity="1" style="mix-blend-mode:passthrough"/><path d="M86.92104133630372,85.82065210107422C84.8724423363037,83.61886610107422,80.7752553363037,82.37119310107423,74.92213233630372,82.37119310107423C71.77607133630372,82.37119310107423,68.19104233630371,82.66476410107421,64.24017533630371,83.39869310107422C62.04525933630371,81.19690710107422,59.77717033630371,78.62816610107421,57.65541233630371,75.61906810107422C56.11897133630371,73.49067910107422,54.80201533630371,71.28889610107422,53.631391336303714,69.08711610107422C55.97264333630371,61.82124110107422,57.07010033630371,55.94982410107422,57.07010033630371,51.69304560107422C57.07010033630371,46.92251970107422,55.38732733630371,41.93181610107422,50.41216833630371,41.93181610107422C48.87572333630371,41.93181610107422,47.41244533630371,42.885921421074215,46.60763933630371,44.206989801074215C44.41271633630371,48.243588001074215,45.363849336303716,57.05071210107422,49.24154433630371,65.71105010107422C47.77826333630371,70.04122010107422,46.31497933630371,74.22460510107422,44.41271633630371,78.84834310107422C42.80310633630371,82.73815510107423,40.900840336303716,86.84814810107422,38.92541333630371,90.51778010107421C27.80447573630371,95.06813010107422,20.63439786630371,100.35240510107423,19.975921668303712,104.46239810107423C19.683265376303712,106.00363910107421,20.19541379630371,107.47149610107422,21.29287493630371,108.57238810107422C21.65869523630371,108.86595110107422,23.12197633630371,110.11363210107422,25.536390736303712,110.11363210107422C32.92596233630371,110.11363210107422,40.68135033630371,97.93044310107422,44.63220833630371,90.51777610107422C47.63193133630371,89.49028010107422,50.704824336303716,88.53617810107423,53.704549336303714,87.65546010107423C56.996935336303714,86.70135510107423,60.36247833630371,85.96743010107423,63.36221133630371,85.45367810107422C71.11760133630372,92.57277710107422,77.9950273363037,93.74706310107422,81.43373633630371,93.74706310107422C85.67725133630371,93.74706310107422,87.21369733630371,91.98563410107423,87.72584333630371,90.51778010107421C88.5306453363037,88.68296810107421,87.94534133630371,86.62796810107422,86.99419933630371,85.52708010107422L86.92104133630372,85.82065210107422ZM82.97017833630372,88.82975010107421C82.67752233630371,90.37100210107423,81.14107333630372,91.39849810107421,79.01931933630371,91.39849810107421C78.4340033363037,91.39849810107421,77.92186133630372,91.32511110107421,77.3365383363037,91.17832210107422C73.45884533630371,90.22421310107421,69.87380833630371,88.24260710107421,66.21560433630371,85.16011410107421C69.80064533630372,84.57297510107422,72.80037533630372,84.42618910107421,74.70263833630372,84.42618910107421C76.82439633630372,84.42618910107421,78.65350133630372,84.49958010107422,79.82412533630371,84.86654310107423C81.2142393363037,85.16011410107421,83.40916233630371,86.11422010107421,82.97017833630372,88.82975010107421ZM61.53310933630371,83.98583610107423C58.89920233630371,84.49958410107422,56.11896733630371,85.16011810107422,53.19240733630371,85.96743810107421C50.85115633630371,86.62796810107422,48.43674233630371,87.28850510107422,46.02232933630371,88.16922410107422C47.33927933630371,85.60047910107423,48.43674233630371,83.10512510107422,49.46104033630371,80.75656110107423C50.704830336303715,77.82085410107422,51.655962336303716,74.88514310107422,52.68026133630371,72.09622610107422C53.70455733630371,73.85764710107422,54.80201933630371,75.61907210107421,55.89947733630371,77.16032010107422C57.72857833630371,79.58227910107422,59.63084633630371,81.93084710107422,61.53310933630371,83.98583610107423ZM48.29041633630371,45.45466520107422C48.72940033630371,44.64734550107422,49.53420633630371,44.20698950107422,50.19268233630371,44.20698950107422C52.314439336303714,44.20698950107422,52.68026133630371,46.70234110107422,52.68026133630371,48.68394470107422C52.68026133630371,51.98661610107422,51.655962336303716,57.05071210107422,49.973190336303716,62.84873610107422C47.046627336303715,54.77553810107422,46.82713533630371,48.09680220107422,48.29041633630371,45.45466520107422ZM37.242641336303706,93.67366810107421C32.12115733630371,102.33401110107422,27.14600233630371,107.76507610107421,24.14627643630371,107.76507610107421C23.56096383630371,107.76507610107421,23.04881553630371,107.54489110107421,22.60983133630371,107.25132710107422C22.024518736303712,106.66418410107421,21.73186243630371,105.93026010107423,21.87819073630371,105.04954510107422C22.46350313630371,101.96705210107422,28.24346353630371,97.63688610107423,37.242641336303706,93.67366810107421Z" fill="#FFFFFF" fill-opacity="1" style="mix-blend-mode:passthrough" filter="url(#master_svg1_3301_048924)"/><path d="M107.99990844726562,30L90.99990844726562,30C86.24338844726563,30,82.99990844726562,26.698746,82.99990844726562,22L82.99990844726562,5L107.99990844726562,30Z" fill="#FFB6B9" fill-opacity="1" style="mix-blend-mode:passthrough" filter="url(#master_svg2_3301_048925)"/></svg>