<svg xmlns="http://www.w3.org/2000/svg" xmlns:xlink="http://www.w3.org/1999/xlink" fill="none" version="1.1" width="16" height="16" viewBox="0 0 16 16"><defs><clipPath id="master_svg0_3210_028254"><rect x="0" y="0" width="16" height="16" rx="0"/></clipPath></defs><g clip-path="url(#master_svg0_3210_028254)"><g><path d="M6.398339167826843,2.333695769515381C6.853020567826843,1.848701949515381,7.666667367826843,2.170459553515381,7.666667367826843,2.8352522295153806C7.666667367826843,2.8352522295153806,7.6666668678268435,5.000000209515381,7.6666668678268435,5.000000209515381C11.532658967826844,5.000000209515381,14.666667967826843,8.134007009515381,14.666667967826843,12.000000509515381C14.666667967826843,12.055173409515382,14.666027967826844,12.110201409515382,14.664754967826843,12.165078409515381C14.651192967826843,12.75025340951538,13.948398967826844,13.03614140951538,13.529441967826843,12.63143840951538C12.269501967826843,11.41436150951538,10.556089267826843,10.666667509515381,8.666666867826844,10.666667509515381C8.326842667826844,10.666667509515381,7.992993667826843,10.69083360951538,7.666667367826843,10.737470109515382C7.666667367826843,10.737470109515382,7.666667367826843,13.164748409515381,7.666667367826843,13.164748409515381C7.666667367826843,13.82954340951538,6.853022467826843,14.151295409515381,6.398341967826843,13.66630840951538C6.398341967826843,13.66630840951538,1.7273745578268431,8.68394230951538,1.7273745578268431,8.68394230951538C1.3667561788268432,8.29928350951538,1.3667569758268432,7.7007170095153805,1.7273737778268432,7.316058609515381C1.7273737778268432,7.316058609515381,6.398339167826843,2.333695769515381,6.398339167826843,2.333695769515381ZM6.333333867826843,4.352520709515381C6.333333867826843,4.352520709515381,2.9138215678268433,8.000000509515381,2.9138215678268433,8.000000509515381C2.9138215678268433,8.000000509515381,6.333333867826843,11.64748050951538,6.333333867826843,11.64748050951538C6.333333867826843,11.64748050951538,6.333333867826843,9.646605509515382,6.333333867826843,9.646605509515382C6.333333867826843,9.646605509515382,6.855717567826844,9.53080410951538,6.855717567826844,9.53080410951538C7.439356667826844,9.401423409515381,8.045451967826843,9.33333350951538,8.666666867826844,9.33333350951538C10.326583767826843,9.33333350951538,11.873786967826844,9.81913610951538,13.172934967826844,10.655743109515381C12.569416967826843,8.17501500951538,10.333115467826843,6.333333509515381,7.6666668678268435,6.333333509515381C7.464715867826843,6.333333509515381,7.265452767826844,6.34387160951538,7.069363467826843,6.364384609515381C7.069363467826843,6.364384609515381,6.333333867826843,6.441381909515381,6.333333867826843,6.441381909515381C6.333333867826843,6.441381909515381,6.333333867826843,4.352520709515381,6.333333867826843,4.352520709515381Z" fill-rule="evenodd" fill="#777777" fill-opacity="1"/></g></g></svg>