<svg xmlns="http://www.w3.org/2000/svg" xmlns:xlink="http://www.w3.org/1999/xlink" fill="none" version="1.1" width="109.755615234375" height="128" viewBox="0 0 109.755615234375 128"><defs><linearGradient x1="0.5" y1="0" x2="0.5" y2="1" id="master_svg0_3301_047737"><stop offset="0%" stop-color="#4A8DFF" stop-opacity="1"/><stop offset="100%" stop-color="#0066EC" stop-opacity="1"/></linearGradient><filter id="master_svg1_3301_047728" filterUnits="objectBoundingBox" color-interpolation-filters="sRGB" x="-0.20258999637702216" y="-0.11907089418769481" width="1.3241439942032354" height="1.3175223845005195"><feFlood flood-opacity="0" result="BackgroundImageFix"/><feColorMatrix in="SourceAlpha" type="matrix" values="0 0 0 0 0 0 0 0 0 0 0 0 0 0 0 0 0 0 127 0"/><feOffset dy="1" dx="-1"/><feGaussianBlur stdDeviation="1"/><feColorMatrix type="matrix" values="0 0 0 0 0 0 0 0 0 0.3019607961177826 0 0 0 0 0.7019608020782471 0 0 0 1 0"/><feBlend mode="normal" in2="BackgroundImageFix" result="effect1_dropShadow"/><feBlend mode="normal" in="SourceGraphic" in2="effect1_dropShadow" result="shape"/></filter><filter id="master_svg2_3301_047729" filterUnits="objectBoundingBox" color-interpolation-filters="sRGB" x="-0.07306595339210843" y="-0.04280867944408028" width="1.1461319067842168" height="1.1712347177763212"><feFlood flood-opacity="0" result="BackgroundImageFix"/><feColorMatrix in="SourceAlpha" type="matrix" values="0 0 0 0 0 0 0 0 0 0 0 0 0 0 0 0 0 0 127 0"/><feOffset dy="2" dx="0"/><feGaussianBlur stdDeviation="1"/><feColorMatrix type="matrix" values="0 0 0 0 0 0 0 0 0 0.303571492433548 0 0 0 0 0.7023809552192688 0 0 0 1 0"/><feBlend mode="normal" in2="BackgroundImageFix" result="effect1_dropShadow"/><feBlend mode="normal" in="SourceGraphic" in2="effect1_dropShadow" result="shape"/></filter></defs><path d="M107.99999,27.195074L107.99999,119.62625C107.99999,124.25644,104.28938,127.99999,99.699966,127.99999L8.1066694,127.99999C3.5172412,127.90148,-0.095714033,124.0594,0.0019334001,119.42923L0.0019334001,10.4722433C0.0019334001,5.8420641,3.7125361,2,8.3019648,2L83.124313,2L107.99999,27.195074Z" fill="url(#master_svg0_3301_047737)" fill-opacity="1" style="mix-blend-mode:passthrough"/><path d="M107.7556072006836,27.195074L91.3752499006836,27.195074C86.78582020068359,27.195074,83.0752182006836,23.451525,83.0752182006836,18.821344L83.0752182006836,2L107.7556072006836,27.195074Z" fill="#E5F0FF" fill-opacity="1" style="mix-blend-mode:passthrough" filter="url(#master_svg1_3301_047728)"/><path d="M35.874198899999996,96.719498L47.185677,96.719498L52.247719000000004,73.58042C52.935158,69.98661200000001,53.622595000000004,66.392805,54.31003,62.862047000000004L54.560011,62.862047000000004C55.059962999999996,66.392805,55.747402,69.98661200000001,56.497335,73.58042L61.684368,96.719498L73.18333100000001,96.719498L81.74506,50L72.99584999999999,50L69.308678,72.82382799999999C68.62124299999999,77.67862099999999,67.93380400000001,82.659512,67.246365,87.703453L66.933891,87.703453C65.933983,82.659512,65.05905899999999,77.615574,63.996658,72.82382799999999L58.622145,50L50.68536,50L45.373343,72.82382799999999C44.37343,77.67862099999999,43.373522,82.659512,42.436107,87.703453L42.186127,87.703453C41.498692,82.659512,40.748758,77.74167299999999,39.998826,72.82382799999999L36.4366474,50L27,50L35.874198899999996,96.719498Z" fill="#FFFFFF" fill-opacity="1" filter="url(#master_svg2_3301_047729)"/></svg>