<svg xmlns="http://www.w3.org/2000/svg" xmlns:xlink="http://www.w3.org/1999/xlink" fill="none" version="1.1" width="32" height="24" viewBox="0 0 32 24"><g><g><path d="M28.4766,14.8569Q28.4994,14.8841,28.5202,14.9128Q28.541,14.9415,28.5598,14.9716Q28.5785,15.0017,28.5951,15.0331Q28.6117,15.0645,28.6259,15.0969Q28.6402,15.1294,28.6522,15.1628Q28.6642,15.1962,28.6737,15.2303Q28.6833,15.2645,28.6904,15.2993Q28.6975,15.334,28.7022,15.3692Q28.7068,15.4043,28.709,15.4398Q28.7111,15.4752,28.7107,15.5106Q28.7103,15.5461,28.7075,15.5815Q28.7046,15.6168,28.6992,15.6519Q28.6938,15.6869,28.6859,15.7215Q28.6781,15.7561,28.6678,15.7901Q28.6575,15.824,28.6448,15.8572Q28.6322,15.8903,28.6172,15.9224Q28.6022,15.9546,28.585,15.9856Q28.5677,16.0166,28.5484,16.0463Q28.529,16.076,28.5075,16.1043Q28.4861,16.1326,28.4627,16.1592Q28.4393,16.1859,28.4141,16.2109Q28.3889,16.2358,28.362,16.2589Q28.3351,16.282,28.3066,16.3031Q28.2781,16.3243,28.2482,16.3433Q28.2182,16.3624,28.1871,16.3793Q28.1559,16.3962,28.1236,16.4108Q28.0912,16.4255,28.058,16.4378Q28.0247,16.4501,27.9907,16.46Q27.9566,16.47,27.9219,16.4775Q27.8873,16.4849,27.8521,16.49Q27.817,16.495,27.7816,16.4975Q27.7463,16.5,27.7108,16.5L4.28922,16.5Q4.25375,16.5,4.21836,16.4975Q4.18298,16.495,4.14786,16.49Q4.11275,16.4849,4.07807,16.4775Q4.0434,16.47,4.00934,16.46Q3.97529,16.4501,3.94202,16.4378Q3.90876,16.4255,3.87645,16.4108Q3.84414,16.3962,3.81295,16.3793Q3.78175,16.3624,3.75184,16.3433Q3.72192,16.3243,3.69343,16.3031Q3.66494,16.282,3.63802,16.2589Q3.6111,16.2358,3.58588,16.2109Q3.56067,16.1859,3.53728,16.1592Q3.5139,16.1326,3.49246,16.1043Q3.47103,16.076,3.45165,16.0463Q3.43227,16.0166,3.41504,15.9856Q3.39781,15.9546,3.38283,15.9224Q3.36784,15.8903,3.35518,15.8572Q3.34251,15.824,3.33222,15.7901Q3.32193,15.7561,3.31407,15.7215Q3.30621,15.6869,3.30082,15.6519Q3.29544,15.6168,3.29255,15.5815Q3.28966,15.5461,3.28928,15.5106Q3.2889,15.4752,3.29104,15.4398Q3.29318,15.4043,3.29782,15.3692Q3.30246,15.334,3.30958,15.2993Q3.3167,15.2645,3.32626,15.2303Q3.33583,15.1962,3.34779,15.1628Q3.35975,15.1294,3.37405,15.0969Q3.38835,15.0645,3.40491,15.0331Q3.42148,15.0017,3.44022,14.9716Q3.45896,14.9415,3.47979,14.9128Q3.50062,14.8841,3.52344,14.8569L15.2342,0.911888Q15.2693,0.870098,15.3087,0.832376Q15.3482,0.794653,15.3915,0.761446Q15.4348,0.728238,15.4814,0.69994Q15.5281,0.671642,15.5776,0.64859Q15.627,0.625537,15.6787,0.608004Q15.7304,0.59047,15.7837,0.578664Q15.8369,0.566858,15.8912,0.56092Q15.9454,0.554982,16,0.554982Q16.0546,0.554982,16.1088,0.56092Q16.1631,0.566858,16.2163,0.578664Q16.2696,0.59047,16.3213,0.608004Q16.373,0.625537,16.4224,0.64859Q16.4719,0.671642,16.5186,0.69994Q16.5652,0.728238,16.6085,0.761446Q16.6518,0.794653,16.6913,0.832376Q16.7307,0.870098,16.7658,0.911888L28.4766,14.8569Z" fill="#fff" fill-opacity="1"/></g><g><path d="M21.905,15.94926Q21.9235,15.97736,21.9401,16.00665Q21.956699999999998,16.03593,21.9713,16.06627Q21.9859,16.09661,21.9985,16.12786Q22.011,16.15911,22.0214,16.19114Q22.0318,16.22316,22.04,16.25581Q22.048299999999998,16.28846,22.054299999999998,16.32159Q22.060299999999998,16.35472,22.064,16.38818Q22.0678,16.42164,22.0693,16.45527Q22.0708,16.48891,22.07,16.52257Q22.0693,16.55623,22.0663,16.58976Q22.063200000000002,16.6233,22.058,16.65655Q22.0527,16.68981,22.0452,16.722630000000002Q22.0377,16.75546,22.028,16.7877Q22.0183,16.81995,22.006500000000003,16.85147Q21.9947,16.88299,21.9807,16.91365Q21.9668,16.9443,21.9509,16.973950000000002Q21.9349,17.0036,21.917,17.0321Q21.8991,17.0606,21.8793,17.087899999999998Q21.8595,17.115099999999998,21.837899999999998,17.140900000000002Q21.8163,17.166800000000002,21.793,17.1911Q21.7698,17.215400000000002,21.7449,17.2382Q21.720100000000002,17.2609,21.6937,17.2819Q21.6674,17.3029,21.639699999999998,17.322Q21.612099999999998,17.3412,21.583199999999998,17.3585Q21.554299999999998,17.375700000000002,21.5243,17.391Q21.494300000000003,17.4063,21.4633,17.4195Q21.432299999999998,17.4328,21.4006,17.4439Q21.3688,17.455,21.3363,17.464Q21.3039,17.4729,21.270899999999997,17.4797Q21.2379,17.4864,21.2045,17.491Q21.1712,17.4955,21.1376,17.497700000000002Q21.104,17.5,21.0703,17.5L10.9297,17.5Q10.89603,17.5,10.86243,17.497700000000002Q10.82884,17.4955,10.79547,17.491Q10.76211,17.4864,10.72912,17.4797Q10.69614,17.4729,10.66368,17.464Q10.63123,17.455,10.59944,17.4439Q10.56766,17.4328,10.5367,17.4195Q10.50574,17.4063,10.47574,17.391Q10.44574,17.375700000000002,10.41684,17.3585Q10.38793,17.3412,10.36025,17.322Q10.33258,17.3029,10.30625,17.2819Q10.27993,17.2609,10.25507,17.2382Q10.23022,17.215400000000002,10.206949999999999,17.1911Q10.183679999999999,17.166800000000002,10.1621,17.140900000000002Q10.14052,17.115099999999998,10.12073,17.0878Q10.10093,17.0606,10.08302,17.0321Q10.065100000000001,17.0036,10.04914,16.973950000000002Q10.03319,16.9443,10.01926,16.91365Q10.00533,16.88299,9.993500000000001,16.85147Q9.98166,16.81995,9.97198,16.7877Q9.96229,16.75546,9.95479,16.722630000000002Q9.9473,16.68981,9.942029999999999,16.65655Q9.93676,16.6233,9.93373,16.58976Q9.93071,16.55623,9.92995,16.52257Q9.92919,16.48891,9.9307,16.45527Q9.9322,16.42164,9.93597,16.38818Q9.93973,16.35472,9.94574,16.32159Q9.95175,16.28846,9.95997,16.25581Q9.96819,16.22316,9.97859,16.19114Q9.98899,16.15911,10.00152,16.12786Q10.014050000000001,16.09661,10.028649999999999,16.06627Q10.04326,16.03593,10.05987,16.00665Q10.07648,15.97736,10.09502,15.94926L15.16533,8.264990000000001Q15.19936,8.2134,15.23949,8.1664Q15.279620000000001,8.11941,15.325230000000001,8.0777Q15.370840000000001,8.036,15.421230000000001,8.00024Q15.471630000000001,7.964468,15.52605,7.935178Q15.58047,7.905888,15.63808,7.883521Q15.695689999999999,7.861155,15.75561,7.846052Q15.81554,7.830949,15.87687,7.823339Q15.9382,7.81573,16,7.81573Q16.061799999999998,7.81573,16.12313,7.823339Q16.18446,7.830949,16.24439,7.846052Q16.30431,7.861155,16.361919999999998,7.883521Q16.41953,7.905888,16.473950000000002,7.935178Q16.528370000000002,7.964468,16.57877,8.00024Q16.62916,8.036,16.674770000000002,8.0777Q16.72038,8.11941,16.76051,8.1664Q16.80064,8.2134,16.83467,8.264990000000001L21.905,15.94926Z" fill="#0066EC" fill-opacity="1"/></g><g><ellipse cx="16" cy="22" rx="2" ry="2" fill="#0066EC" fill-opacity="1"/></g></g></svg>