<svg xmlns="http://www.w3.org/2000/svg" xmlns:xlink="http://www.w3.org/1999/xlink" fill="none" version="1.1" width="16" height="16" viewBox="0 0 16 16"><defs><clipPath id="master_svg0_178_88620"><rect x="0" y="0" width="16" height="16" rx="0"/></clipPath></defs><g clip-path="url(#master_svg0_178_88620)"><g><path d="M8.46478875,1.62301084375C8.24022875,1.39844944375,7.87531875,1.39844944375,7.65075875,1.62301084375C7.482328750000001,1.7914318437499999,3.63671875,5.74932984375,3.63671875,8.75283984375C3.63671875,11.72828984375,5.46127875,13.80548984375,8.04373875,13.80548984375C10.62618875,13.80548984375,12.45075875,11.72828984375,12.45075875,8.75283984375C12.45075875,5.74932984375,8.60513875,1.7914318437499999,8.46478875,1.62301084375ZM7.95952875,11.95278984375C7.14548875,11.75638984375,6.52794875,11.33528984375,6.16303875,10.71774984375C5.43320875,9.45458984375,5.93846875,7.85458984375,5.96653875,7.77037984375L6.35952875,7.88265984375L6.7525087500000005,7.99493984375Q6.3314587499999995,9.34230984375,6.864788750000001,10.26862984375C7.117418750000001,10.68967984375,7.51039875,10.97037984375,8.09987875,11.11072984375L7.95952875,11.95278984375Z" fill="#519CFF" fill-opacity="1" style="mix-blend-mode:passthrough"/></g></g></svg>