<svg xmlns="http://www.w3.org/2000/svg" xmlns:xlink="http://www.w3.org/1999/xlink" fill="none" version="1.1" width="720" height="180" viewBox="0 0 720 180"><defs><linearGradient x1="0.5" y1="0" x2="0.5" y2="1" id="master_svg0_11_3676"><stop offset="0%" stop-color="#0657F1" stop-opacity="1"/><stop offset="100%" stop-color="#0284FE" stop-opacity="1"/></linearGradient><mask id="master_svg1_392_01283" style="mask-type:alpha" maskUnits="objectBoundingBox"><g><path d="M0 64C0 64 0 64 0 64L720 64C720 64 720 64 720 64L720 112C720 120.83655599729269 712.8365559972927 128 704 128L16 128C7.1634440027073065 128 0 120.83655599729269 0 112Z" fill="#FFFFFF" fill-opacity="1"/></g></mask><linearGradient x1="0.5" y1="0" x2="0.5" y2="1" id="master_svg2_20_1859"><stop offset="0%" stop-color="#FFFFFF" stop-opacity="0.20999999344348907"/><stop offset="100%" stop-color="#FFFFFF" stop-opacity="0"/></linearGradient><mask id="master_svg3_392_01270" style="mask-type:alpha" maskUnits="objectBoundingBox"><g><path d="M720 116C720 116 720 116 720 116L1440 116C1440 116 1440 116 1440 116L1440 164C1440 172.8365559972927 1432.8365559972926 180 1424 180L736 180C727.1634440027073 180 720 172.8365559972927 720 164Z" fill="#FFFFFF" fill-opacity="1"/></g></mask><linearGradient x1="0.5" y1="0" x2="0.5" y2="1" id="master_svg4_20_1859"><stop offset="0%" stop-color="#FFFFFF" stop-opacity="0.20999999344348907"/><stop offset="100%" stop-color="#FFFFFF" stop-opacity="0"/></linearGradient><linearGradient x1="0.5" y1="0.29215213656425476" x2="0.5" y2="0.7896021008491516" id="master_svg5_20_2131"><stop offset="0%" stop-color="#FFFFFF" stop-opacity="0.20000000298023224"/><stop offset="100%" stop-color="#FFFFFF" stop-opacity="0"/></linearGradient><clipPath id="master_svg6_392_01567"><rect x="330" y="123" width="230" height="22" rx="0"/></clipPath><mask id="master_svg7_392_01366" style="mask-type:alpha" maskUnits="objectBoundingBox"><g><path d="M639 0C639 0 639 0 639 0L704 0C712.8365559972927 0 720 7.1634440027073065 720 16L720 73C720 73 720 73 720 73L639 73C639 73 639 73 639 73Z" fill="#FFFFFF" fill-opacity="1"/></g></mask><radialGradient cx="0" cy="0" r="1" gradientUnits="userSpaceOnUse" id="master_svg8_11_3791" gradientTransform="translate(687 25) rotate(90) scale(46 46)"><stop offset="0%" stop-color="#D8D8D8" stop-opacity="0"/><stop offset="100%" stop-color="#FFFFFF" stop-opacity="0.1599999964237213"/></radialGradient><mask id="master_svg9_392_01360" style="mask-type:alpha" maskUnits="objectBoundingBox"><g><path d="M94 180C94 180 94 180 94 180L172 180C180.8365559972927 180 188 187.1634440027073 188 196L188 272C188 272 188 272 188 272L94 272C94 272 94 272 94 272Z" fill="#FFFFFF" fill-opacity="1"/></g></mask><radialGradient cx="0" cy="0" r="1" gradientUnits="userSpaceOnUse" id="master_svga_11_3791" gradientTransform="translate(168 195) rotate(90) scale(46 46)"><stop offset="0%" stop-color="#D8D8D8" stop-opacity="0"/><stop offset="100%" stop-color="#FFFFFF" stop-opacity="0.1599999964237213"/></radialGradient><linearGradient x1="0.5" y1="0" x2="0.5" y2="1" id="master_svgb_343_9050"><stop offset="0%" stop-color="#151863" stop-opacity="1"/><stop offset="100%" stop-color="#004F8E" stop-opacity="1"/></linearGradient><linearGradient x1="0.5" y1="0" x2="0.5" y2="0.9937711358070374" id="master_svgc_343_9091"><stop offset="0%" stop-color="#FCFFFE" stop-opacity="1"/><stop offset="100%" stop-color="#DBE5FF" stop-opacity="1"/></linearGradient><linearGradient x1="0.45262041687965393" y1="0.45145100355148315" x2="0.554271466079749" y2="0.5519866155615759" id="master_svgd_343_02793"><stop offset="0%" stop-color="#A6CDFF" stop-opacity="1"/><stop offset="53.75368595123291%" stop-color="#EDF5FF" stop-opacity="1"/><stop offset="58.687812089920044%" stop-color="#F1F7FF" stop-opacity="1"/><stop offset="100%" stop-color="#F1F7FF" stop-opacity="1"/></linearGradient><mask id="master_svge_392_01380" style="mask-type:alpha" maskUnits="objectBoundingBox"><g><path d="M58.32472180171967,143.29388601665497L112.71091180171967,88.88128601665497C114.47841180171966,87.11296201665496,117.34491180171966,87.11296201665496,119.11241180171967,88.88128601665497C120.87861180171967,90.64840601665497,120.87861180171967,93.51255601665497,119.11241180171967,95.27966601665497L64.72620180171967,149.69228601665498C62.958731801719665,151.460586016655,60.092191801719665,151.460586016655,58.32472180171967,149.69228601665498C56.55846680171967,147.92518601665498,56.55846680171967,145.06098601665497,58.32472180171967,143.29388601665497" fill="#FFFFFF" fill-opacity="1"/></g></mask><mask id="master_svgf_392_01384" style="mask-type:alpha" maskUnits="objectBoundingBox"><g><path d="M113.52956771850586,88.04023689174652L124.48266771850587,83.11998689174652L119.92723771850586,94.44238689174652L113.52956771850586,88.04023689174652Z" fill-rule="evenodd" fill="#FFFFFF" fill-opacity="1"/></g></mask></defs><g><g><rect x="0" y="0" width="720" height="180" rx="16" fill="url(#master_svg0_11_3676)" fill-opacity="1"/></g><g transform="matrix(1,0,0,-1,0,128)" mask="url(#master_svg1_392_01283)"><g><path d="M-0.98724365234375,138.99998447265625L733.9997563476562,144.00008447265625L733.9997563476562,87.50006447265625C680.9177563476562,66.80758447265625,608.2447563476562,85.06341447265625,544.6647563476563,101.03538447265625C519.1377563476562,107.44778447265625,495.07675634765627,113.49208447265624,474.33775634765624,116.49998447265625C472.80175634765624,116.72268447265625,471.29675634765624,116.94158447265625,469.81875634765623,117.15628447265625C401.61575634765626,127.06958447265626,393.00375634765624,128.32138447265623,280.11375634765625,96.99998447265625Q164.77775634765624,64.99998447265625,-0.98724365234375,138.99998447265625Z" fill="url(#master_svg2_20_1859)" fill-opacity="1"/></g></g><g><ellipse cx="42.5" cy="38.5" rx="4.5" ry="4.5" fill="#FFFFFF" fill-opacity="0.30000001192092896"/></g><g><ellipse cx="587.5" cy="20.5" rx="2.5" ry="2.5" fill="#FFFFFF" fill-opacity="0.30000001192092896"/></g><g><ellipse cx="182.5" cy="25.5" rx="2.5" ry="2.5" fill="#82ABF7" fill-opacity="1"/></g><g><ellipse cx="197" cy="125" rx="2" ry="2" fill="#82ABF7" fill-opacity="1"/></g><g><ellipse cx="64.5" cy="98.5" rx="1.5" ry="1.5" fill="#FFFFFF" fill-opacity="0.20000000298023224"/></g><g><ellipse cx="613" cy="81" rx="2" ry="2" fill="#FFFFFF" fill-opacity="0.30000001192092896"/></g><g><ellipse cx="213" cy="63" rx="2" ry="2" fill="#FFFFFF" fill-opacity="0.30000001192092896"/></g><g><ellipse cx="245" cy="131" rx="2" ry="2" fill="#FFFFFF" fill-opacity="0.30000001192092896"/></g><g><ellipse cx="692" cy="69" rx="1" ry="1" fill="#FFFFFF" fill-opacity="0.30000001192092896"/></g><g><ellipse cx="258" cy="93" rx="1" ry="1" fill="#FFFFFF" fill-opacity="0.30000001192092896"/></g><g transform="matrix(-1,0,0,1,1440,0)" mask="url(#master_svg3_392_01270)"><g><path d="M719.0127563476562,190.99998447265625L1453.9997563476563,196.00008447265625L1453.9997563476563,139.50006447265625C1400.9177563476562,118.80758447265625,1328.2447563476562,137.06341447265626,1264.6647563476563,153.03538447265626C1239.1377563476562,159.44778447265625,1215.0767563476563,165.49208447265624,1194.3377563476563,168.49998447265625C1192.8017563476562,168.72268447265625,1191.2967563476564,168.94158447265625,1189.8187563476563,169.15628447265624C1121.6157563476563,179.06958447265626,1113.0037563476562,180.32138447265623,1000.1137563476562,148.99998447265625Q884.7777563476562,116.99998447265625,719.0127563476562,190.99998447265625Z" fill="url(#master_svg4_20_1859)" fill-opacity="1"/></g><g><path d="M706.5,130L706.5,185.5L1450.973,198.5L1450.973,157.5Q1373.0839999999998,178,1232.284,148C1135.498,127.37815,1038.4769999999999,139.59588,961.816,149.2497C926.953,153.64,896.3,157.5,871.796,157.5Q793.4071,157.5,706.5,130Z" fill="url(#master_svg5_20_2131)" fill-opacity="1"/></g></g><g><path d="M140.818,60L148.612,60L148.612,58.578L142.474,58.578L142.474,53.772L147.478,53.772L147.478,52.35L142.474,52.35L142.474,48.21L148.414,48.21L148.414,46.806L140.818,46.806L140.818,60ZM151.42,60L158.85399999999998,60L158.85399999999998,58.578L153.076,58.578L153.076,46.806L151.42,46.806L151.42,60ZM161.194,60L162.76,60L162.76,53.07C162.76,51.684,162.63400000000001,50.28,162.562,48.948L162.63400000000001,48.948L164.056,51.666L168.862,60L170.572,60L170.572,46.806L168.988,46.806L168.988,53.664C168.988,55.032,169.114,56.525999999999996,169.222,57.84L169.132,57.84L167.71,55.122L162.886,46.806L161.194,46.806L161.194,60Z" fill="#3D3D3D" fill-opacity="1"/></g><g><g><g><g><rect x="102.28539657592773" y="18" width="100" height="134" rx="8" fill="#F8F8F9" fill-opacity="0.5"/></g><g><g><rect x="105" y="21" width="94" height="128" rx="6" fill="#F8F8F9" fill-opacity="1"/></g><g><ellipse cx="139.63158226013184" cy="29.452829360961914" rx="2.473684310913086" ry="2.4150938987731934" fill="#ADC3FF" fill-opacity="1"/></g><g><rect x="144.57894897460938" y="27.03773546218872" width="21.026317596435547" height="4.830187797546387" rx="2.4150938987731934" fill="#ADC3FF" fill-opacity="1"/></g></g><g><rect x="156.427001953125" y="52" width="36.2328987121582" height="12.05142879486084" rx="0" fill="#E1E9FF" fill-opacity="1"/></g><g><rect x="156.427001953125" y="68.8719482421875" width="36.2328987121582" height="12.05142879486084" rx="0" fill="#E1E9FF" fill-opacity="1"/></g><g><rect x="114" y="88" width="63" height="12" rx="0" fill="#E1E9FF" fill-opacity="1"/></g><g><rect x="114" y="109" width="32" height="12" rx="0" fill="#E1E9FF" fill-opacity="1"/></g><g><rect x="114" y="128.87313842773438" width="45.89500427246094" height="12.05142879486084" rx="0" fill="#E1E9FF" fill-opacity="1"/></g><g><rect x="90" y="52" width="60.38816833496094" height="28.923429489135742" rx="4" fill="#FFA900" fill-opacity="1"/></g><g><rect x="167" y="105" width="60.38816833496094" height="21.69257164001465" rx="4" fill="#6DE3D9" fill-opacity="1"/></g><g><rect x="97.24658203125" y="55.6153564453125" width="9.66210651397705" height="9.641141891479492" rx="2" fill="#FFFFFF" fill-opacity="1"/></g><g><rect x="97.24658203125" y="67.6668701171875" width="9.66210651397705" height="9.641141891479492" rx="2" fill="#FFFFFF" fill-opacity="1"/></g><g><rect x="109.32421875" y="55.6153564453125" width="33.81737518310547" height="3.6154286861419678" rx="1.8077143430709839" fill="#FFFFFF" fill-opacity="1"/></g><g><rect x="109.32421875" y="67.6668701171875" width="18.1164493560791" height="3.6154286861419678" rx="1.8077143430709839" fill="#FFFFFF" fill-opacity="1"/></g><g><rect x="109.32421875" y="61.64111328125" width="27.7785587310791" height="3.6154286861419678" rx="1.8077143430709839" fill="#FFFFFF" fill-opacity="1"/></g><g><ellipse cx="215.31054592132568" cy="115.84627103805542" rx="6.038817405700684" ry="6.02571439743042" fill="#FFFFFF" fill-opacity="1"/></g><g><rect x="173.038818359375" y="111.0257568359375" width="31.401845932006836" height="3.6154286861419678" rx="1.8077143430709839" fill="#FFFFFF" fill-opacity="1"/></g><g><rect x="173.038818359375" y="117.0513916015625" width="21.739742279052734" height="3.6154286861419678" rx="1.8077143430709839" fill="#FFFFFF" fill-opacity="1"/></g></g></g></g><g><path d="M143.91,46L148.56,46L148.56,44.76L145.39,44.76L145.39,42.78L147.98,42.78L147.98,41.54L145.39,41.54L145.39,39.83L148.45,39.83L148.45,38.59L143.91,38.59L143.91,46ZM150.06,46L154.55,46L154.55,44.76L151.54,44.76L151.54,38.59L150.06,38.59L150.06,46ZM155.84,46L157.25,46L157.25,43.03C157.25,42.18,157.12,41.25,157.06,40.45L157.11,40.45L157.86,42.04L159.99,46L161.5,46L161.5,38.59L160.1,38.59L160.1,41.55C160.1,42.39,160.22,43.37,160.3,44.14L160.25,44.14L159.5,42.54L157.35,38.59L155.84,38.59L155.84,46Z" fill="#ADC3FF" fill-opacity="1"/></g><g><rect x="577" y="147" width="62" height="4" rx="2" fill="#FFFFFF" fill-opacity="0.800000011920929"/></g><g transform="matrix(-1,0,0,1,644,0)"><rect x="322" y="20" width="62" height="4" rx="2" fill="#FFFFFF" fill-opacity="0.800000011920929"/></g><g><rect x="615" y="158" width="72" height="4" rx="2" fill="#FFFFFF" fill-opacity="0.800000011920929"/></g><g transform="matrix(-1,0,0,1,582,0)"><rect x="291" y="31" width="72" height="4" rx="2" fill="#FFFFFF" fill-opacity="0.800000011920929"/></g><g><g><path d="M258.576,54.916C260.228,55.784,262.384,57.156,263.448,58.08L265.408,55.532C264.288,54.6347,262.048,53.3979,260.424,52.639250000000004L258.576,54.916ZM256.98,62.896C258.548,63.736000000000004,260.62,65.05199999999999,261.544,66.004L263.476,63.456C262.468,62.56,260.396,61.356,258.8,60.628L256.98,62.896ZM257.736,76.22970000000001L260.648,78.05449999999999C261.88,75.3031,263.168,72.024,264.204,69.02799999999999L261.628,67.208C260.452,70.48400000000001,258.856,74.03999999999999,257.736,76.22970000000001ZM271.82,63.372C272.52,63.96,273.304,64.744,273.892,65.416L270.056,65.416L270.392,62.756L272.772,62.756L271.82,63.372ZM268.04,52.1895C267.088,55.308,265.408,58.528,263.56,60.544C264.344,60.964,265.772,61.86,266.444,62.391999999999996C266.78,61.972,267.116,61.495999999999995,267.452,60.992000000000004C267.34,62.391999999999996,267.172,63.903999999999996,266.976,65.416L264.064,65.416L264.064,68.44L266.556,68.44C266.248,70.624,265.912,72.668,265.576,74.292L277.252,74.292C277.14,74.712,277,74.992,276.86,75.16C276.552,75.524,276.3,75.608,275.824,75.608C275.264,75.608,274.172,75.608,272.94,75.49600000000001C273.416,76.25200000000001,273.724,77.456,273.78,78.24000000000001C275.124,78.3253,276.468,78.3253,277.308,78.184C278.26,78.044,278.96,77.792,279.604,76.896C279.94,76.44800000000001,280.248,75.636,280.472,74.292L282.544,74.292L282.544,71.436L280.836,71.436L281.06,68.44L283.244,68.44L283.244,65.416L281.228,65.416L281.424,61.3C281.452,60.879999999999995,281.48,59.872,281.48,59.872L268.18,59.872C268.516,59.284,268.852,58.696,269.188,58.052L282.488,58.052L282.488,55.028L270.56,55.028C270.812,54.3538,271.064,53.6792,271.288,53.004599999999996L268.04,52.1895ZM271.064,69.14C271.876,69.78399999999999,272.8,70.68,273.472,71.436L269.272,71.436L269.664,68.44L272.156,68.44L271.064,69.14ZM274.144,62.756L278.288,62.756L278.176,65.416L275.46,65.416L276.244,64.884C275.76800000000003,64.29599999999999,274.928,63.456,274.144,62.756ZM273.472,68.44L278.008,68.44C277.924,69.616,277.84,70.596,277.728,71.436L275.068,71.436L275.964,70.82C275.404,70.148,274.396,69.196,273.472,68.44ZM300.968,70.372C302.144,71.71600000000001,303.516,73.592,304.076,74.79599999999999L306.624,73.06C306.008,71.856,304.58,70.12,303.404,68.86L309.088,68.86L309.088,74.712C309.088,75.076,308.948,75.16,308.5,75.188C308.08,75.188,306.568,75.188,305.224,75.132C305.672,76.056,306.092,77.512,306.204,78.464C308.248,78.464,309.81600000000003,78.408,310.88,77.904C311.972,77.372,312.28,76.44800000000001,312.28,74.768L312.28,68.86L315.024,68.86L315.024,65.78L312.28,65.78L312.28,63.232L315.304,63.232L315.304,60.123999999999995L309.088,60.123999999999995L309.088,57.744L314.1,57.744L314.1,54.692L309.088,54.692L309.088,52.18994L305.896,52.18994L305.896,54.692L301.024,54.692L301.024,57.744L305.896,57.744L305.896,60.123999999999995L299.428,60.123999999999995L299.428,63.232L309.088,63.232L309.088,65.78L299.96,65.78L299.96,68.86L303.32,68.86L300.968,70.372ZM290.3,54.4111C290.104,57.828,289.628,61.495999999999995,288.872,63.736000000000004C289.544,64.01599999999999,290.776,64.604,291.336,64.996C291.672,63.876000000000005,291.98,62.448,292.23199999999997,60.879999999999995L293.772,60.879999999999995L293.772,66.844C292.064,67.292,290.524,67.684,289.29200000000003,67.964L289.992,71.38L293.772,70.232L293.772,78.5209L296.964,78.5209L296.964,69.252L299.4,68.496L299.148,65.388L296.964,65.976L296.964,60.879999999999995L299.12,60.879999999999995L299.12,57.66L296.964,57.66L296.964,52.21619L293.772,52.21619L293.772,57.66L292.68,57.66L292.932,54.9103L290.3,54.4111ZM331.32,58.584L331.32,68.356L334.148,68.356L334.148,66.844L336.892,66.844L336.892,68.3L339.916,68.3L339.916,66.844L342.94,66.844L342.94,67.768L340.36400000000003,67.768L340.36400000000003,69.42L329.304,69.42L329.304,72.136L333.28,72.136L331.824,73.2C333.056,74.292,334.54,75.86,335.18399999999997,76.924L337.592,75.104C336.976,74.236,335.828,73.088,334.736,72.136L340.36400000000003,72.136L340.36400000000003,75.356C340.36400000000003,75.664,340.252,75.77600000000001,339.88800000000003,75.77600000000001C339.524,75.77600000000001,338.20799999999997,75.77600000000001,337.08799999999997,75.72C337.48,76.532,337.872,77.652,337.984,78.464C339.88800000000003,78.464,341.26,78.464,342.26800000000003,78.072C343.304,77.624,343.556,76.896,343.556,75.44L343.556,72.136L347.616,72.136L347.616,69.42L343.556,69.42L343.556,68.356L345.908,68.356L345.908,58.584L339.916,58.584L339.916,57.464L347.36400000000003,57.464L347.36400000000003,54.972L345.628,54.972L346.272,54.16C345.432,53.544,343.808,52.676,342.576,52.144L341.12,53.88C341.736,54.188,342.43600000000004,54.58,343.08,54.972L339.916,54.972L339.916,52.2L336.892,52.2L336.892,54.972L329.892,54.972L329.892,57.464L336.892,57.464L336.892,58.584L331.32,58.584ZM336.892,63.82L336.892,64.856L334.148,64.856L334.148,63.82L336.892,63.82ZM339.916,63.82L342.94,63.82L342.94,64.856L339.916,64.856L339.916,63.82ZM336.892,61.804L334.148,61.804L334.148,60.796L336.892,60.796L336.892,61.804ZM339.916,61.804L339.916,60.796L342.94,60.796L342.94,61.804L339.916,61.804ZM324.29200000000003,52.2L324.29200000000003,59.256L321.24,59.256L321.24,62.308L324.29200000000003,62.308L324.29200000000003,78.49199999999999L327.596,78.49199999999999L327.596,62.308L330.396,62.308L330.396,59.256L327.596,59.256L327.596,52.2L324.29200000000003,52.2ZM355.31600000000003,54.6014C356.828,55.948499999999996,358.76,57.828,359.628,59.088L361.952,56.7902C361,55.583600000000004,358.984,53.7877,357.5,52.58106L355.31600000000003,54.6014ZM363.26800000000003,64.01599999999999L363.26800000000003,67.096L365.536,67.096L365.536,73.123L363.772,73.5714L363.8,73.54339999999999C363.492,72.899,363.128,71.5812,362.96,70.6844L360.468,72.2541L360.468,60.852000000000004L353.972,60.852000000000004L353.972,64.072L357.276,64.072L357.276,72.5639C357.276,73.7972,356.408,74.7221,355.764,75.11449999999999C356.324,75.7869,357.108,77.24430000000001,357.332,78.05709999999999C357.836,77.4967,358.676,76.9358,362.876,74.16159999999999L363.632,76.90780000000001C366.04,76.2074,369.06399999999996,75.33850000000001,371.892,74.4976L371.416,71.583L368.616,72.3399L368.616,67.096L370.716,67.096L370.716,64.01599999999999L363.26800000000003,64.01599999999999ZM371.024,52.424L371.13599999999997,57.604L362.428,57.604L362.428,60.796L371.248,60.796C371.724,71.71600000000001,373.012,78.268,376.54,78.324C377.688,78.324,379.284,77.25999999999999,379.984,71.828C379.452,71.52,377.91200000000003,70.596,377.352,69.896C377.24,72.416,377.016,73.816,376.652,73.788C375.672,73.76,374.916,68.21600000000001,374.58,60.796L379.648,60.796L379.648,57.604L377.548,57.604L379.62,56.26C379.116,55.224000000000004,377.91200000000003,53.656,376.876,52.507999999999996L374.63599999999997,53.88C375.56,55,376.596,56.512,377.1,57.604L374.496,57.604C374.44,55.924,374.44,54.188,374.44,52.424L371.024,52.424ZM389.336,54.048L389.336,57.519999999999996L408.6,57.519999999999996L408.6,54.048L389.336,54.048ZM388.58000000000004,77.512C390.092,76.952,392.08000000000004,76.84,406.22,75.74799999999999C406.86400000000003,76.84,407.424,77.848,407.81600000000003,78.71600000000001L411.092,76.72800000000001C409.692,74.096,407.004,70.092,404.68,66.98400000000001L401.572,68.608C402.41200000000003,69.812,403.336,71.156,404.23199999999997,72.52799999999999L393.03200000000004,73.2C394.964,70.96000000000001,396.924,68.21600000000001,398.548,65.388L411.48400000000004,65.388L411.48400000000004,61.916L386.144,61.916L386.144,65.388L393.788,65.388C392.192,68.384,390.31600000000003,71.072,389.56,71.884C388.664,72.94800000000001,388.076,73.564,387.264,73.76C387.712,74.824,388.356,76.756,388.58000000000004,77.512ZM419.716,54.6014C421.228,55.948499999999996,423.15999999999997,57.828,424.028,59.088L426.352,56.7902C425.4,55.583600000000004,423.384,53.7877,421.9,52.58106L419.716,54.6014ZM427.668,64.01599999999999L427.668,67.096L429.93600000000004,67.096L429.93600000000004,73.123L428.172,73.5714L428.2,73.54339999999999C427.892,72.899,427.528,71.5812,427.36,70.6844L424.868,72.2541L424.868,60.852000000000004L418.372,60.852000000000004L418.372,64.072L421.676,64.072L421.676,72.5639C421.676,73.7972,420.808,74.7221,420.164,75.11449999999999C420.724,75.7869,421.50800000000004,77.24430000000001,421.73199999999997,78.05709999999999C422.236,77.4967,423.076,76.9358,427.276,74.16159999999999L428.03200000000004,76.90780000000001C430.44,76.2074,433.464,75.33850000000001,436.29200000000003,74.4976L435.81600000000003,71.583L433.01599999999996,72.3399L433.01599999999996,67.096L435.116,67.096L435.116,64.01599999999999L427.668,64.01599999999999ZM435.424,52.424L435.536,57.604L426.828,57.604L426.828,60.796L435.648,60.796C436.124,71.71600000000001,437.41200000000003,78.268,440.94,78.324C442.08799999999997,78.324,443.68399999999997,77.25999999999999,444.384,71.828C443.852,71.52,442.312,70.596,441.752,69.896C441.64,72.416,441.416,73.816,441.052,73.788C440.072,73.76,439.31600000000003,68.21600000000001,438.98,60.796L444.048,60.796L444.048,57.604L441.948,57.604L444.02,56.26C443.51599999999996,55.224000000000004,442.312,53.656,441.276,52.507999999999996L439.036,53.88C439.96000000000004,55,440.996,56.512,441.5,57.604L438.89599999999996,57.604C438.84000000000003,55.924,438.84000000000003,54.188,438.84000000000003,52.424L435.424,52.424ZM449.76,71.29599999999999L450.32,73.928C452.392,73.452,454.856,72.836,457.264,72.276L457.012,69.812C454.324,70.4,451.63599999999997,70.96000000000001,449.76,71.29599999999999ZM462.108,66.22800000000001C462.724,68.328,463.39599999999996,71.072,463.592,72.864L466.308,72.108C466.028,70.344,465.356,67.628,464.656,65.556L462.108,66.22800000000001ZM466.952,65.444C467.4,67.544,467.904,70.288,468.01599999999996,72.108L470.704,71.66C470.536,69.868,470.03200000000004,67.208,469.528,65.08L466.952,65.444ZM451.58000000000004,57.912C451.46799999999996,61.076,451.188,65.276,450.824,67.824L458.10400000000004,67.824C457.824,72.752,457.51599999999996,74.79599999999999,457.012,75.328C456.73199999999997,75.608,456.48,75.664,456.03200000000004,75.664C455.5,75.664,454.324,75.636,453.092,75.524C453.53999999999996,76.28,453.876,77.4,453.932,78.212C455.276,78.2689,456.592,78.2689,457.348,78.184C458.244,78.072,458.88800000000003,77.848,459.476,77.12C460.31600000000003,76.14,460.68,73.396,461.01599999999996,66.396C461.044,66.032,461.072,65.19200000000001,461.072,65.19200000000001L458.916,65.19200000000001C459.252,62,459.58799999999997,57.1,459.784,53.236000000000004L450.488,53.236000000000004L450.488,56.064L456.844,56.064C456.676,59.2538,456.424,62.728,456.116,65.22L453.932,65.22C454.128,62.980000000000004,454.324,60.3196,454.43600000000004,58.0761L451.58000000000004,57.912ZM467.96000000000004,56.7863C469.13599999999997,58.1325,470.48,59.5343,471.908,60.768L464.46000000000004,60.768C465.72,59.5623,466.89599999999996,58.216499999999996,467.96000000000004,56.7863ZM467.456,51.87887C465.72,55.4681,462.584,58.7214,459.308,60.684C459.868,61.3284,460.848,62.7577,461.212,63.4302C462.164,62.7857,463.08799999999997,62.0289,464.012,61.188L464.012,63.596000000000004L472.692,63.596000000000004L472.692,61.44C473.53200000000004,62.14,474.4,62.784,475.24,63.344C475.548,62.42,476.192,60.852000000000004,476.752,60.0111C474.26,58.6929,471.488,56.3654,469.64,54.2064L470.368,52.88862L467.456,51.87887ZM461.408,74.432L461.408,77.288L475.996,77.288L475.996,74.432L472.63599999999997,74.432C473.784,71.996,475.044,68.72,476.052,65.892L473.028,65.248C472.356,68.048,471.03999999999996,71.856,469.86400000000003,74.432L461.408,74.432ZM492.376,66.28399999999999C493.048,68.412,493.692,71.184,493.88800000000003,73.004L496.632,72.248C496.352,70.456,495.68,67.74,494.98,65.612L492.376,66.28399999999999ZM497.724,65.444C498.172,67.544,498.648,70.316,498.788,72.108L501.504,71.688C501.336,69.868,500.832,67.208,500.3,65.108L497.724,65.444ZM498.452,51.87887C496.744,55.0477,493.94399999999996,58.0481,491.03200000000004,60.1231L491.03200000000004,57.268L488.82,57.268L488.82,52.18819L485.76800000000003,52.18819L485.76800000000003,57.268L482.464,57.268L482.464,60.376000000000005L485.51599999999996,60.376000000000005C484.872,63.512,483.584,67.208,482.156,69.28C482.632,70.176,483.36,71.688,483.668,72.696C484.452,71.464,485.152,69.72800000000001,485.76800000000003,67.768L485.76800000000003,78.50030000000001L488.82,78.50030000000001L488.82,65.444C489.324,66.508,489.8,67.544,490.08000000000004,68.27199999999999L492.012,66.032C491.56399999999996,65.276,489.548,62.28,488.82,61.328L488.82,60.376000000000005L490.696,60.376000000000005L489.688,61.019999999999996C490.276,61.692,491.256,63.120000000000005,491.62,63.792C492.572,63.120000000000005,493.524,62.364000000000004,494.448,61.524L494.448,63.596000000000004L504.38800000000003,63.596000000000004L504.38800000000003,61.328C505.368,62.084,506.348,62.756,507.3,63.344C507.608,62.448,508.308,60.936,508.868,60.0951C506.03999999999996,58.7214,502.82,56.2254,500.776,53.9259L501.336,52.97262L498.452,51.87887ZM499.068,56.4499C500.41200000000003,57.9081,502.00800000000004,59.422200000000004,503.65999999999997,60.768L495.26,60.768C496.60400000000004,59.450199999999995,497.91999999999996,57.9921,499.068,56.4499ZM491.06,74.432L491.06,77.372L507.748,77.372L507.748,74.432L503.49199999999996,74.432C504.808,71.968,506.264,68.608,507.384,65.724L504.472,65.08C503.632,67.936,502.12,71.828,500.748,74.432L491.06,74.432ZM522.14,53.684L522.14,72.108L524.6600000000001,72.108L524.6600000000001,56.092L529.504,56.092L529.504,71.94L532.136,71.94L532.136,53.684L522.14,53.684ZM537.288,52.67031L537.288,75.132C537.288,75.55199999999999,537.148,75.69200000000001,536.7280000000001,75.69200000000001C536.308,75.69200000000001,534.992,75.72,533.62,75.664C533.956,76.44800000000001,534.348,77.68,534.46,78.408C536.476,78.408,537.876,78.324,538.744,77.876C539.64,77.428,539.9200000000001,76.644,539.9200000000001,75.132L539.9200000000001,52.67031L537.288,52.67031ZM533.452,54.775999999999996L533.452,72.05199999999999L536,72.05199999999999L536,54.775999999999996L533.452,54.775999999999996ZM515.448,54.888C516.988,55.7564,519.088,57.0453,520.068,57.9137L522.1120000000001,55.196C521.048,54.356,518.9200000000001,53.1774,517.4359999999999,52.445L515.448,54.888ZM514.384,62.3964C515.896,63.2088,517.9680000000001,64.4697,518.976,65.2821L520.992,62.5924C519.8720000000001,61.807900000000004,517.744,60.6595,516.288,59.9591L514.384,62.3964ZM514.86,76.5167L517.884,78.2256C519.0319999999999,75.4798,520.236,72.2301,521.188,69.2043L518.472,67.4674C517.38,70.7452,515.924,74.3034,514.86,76.5167ZM525.808,57.6337L525.808,68.3639C525.808,71.5016,525.36,74.49940000000001,520.9639999999999,76.4887C521.384,76.90870000000001,522.168,77.9736,522.392,78.5336C524.94,77.3851,526.396,75.7603,527.236,73.9389C528.4680000000001,75.3118,529.924,77.1611,530.596,78.3096L532.7239999999999,76.9647C531.996,75.7603,530.428,73.9389,529.14,72.6225L527.348,73.68690000000001C528.076,71.9781,528.244,70.1287,528.244,68.39189999999999L528.244,57.6337L525.808,57.6337ZM546.976,66.62L546.976,69.924L558.092,69.924L558.092,74.432C558.092,74.992,557.8399999999999,75.188,557.2239999999999,75.21600000000001C556.552,75.21600000000001,554.2,75.21600000000001,552.1279999999999,75.132C552.6600000000001,76.02799999999999,553.304,77.512,553.5,78.464C556.356,78.4924,558.4,78.408,559.744,77.904C561.088,77.372,561.592,76.476,561.592,74.488L561.592,69.924L572.7080000000001,69.924L572.7080000000001,66.62L561.592,66.62L561.592,63.316L571.028,63.316L571.028,60.096000000000004L561.592,60.096000000000004L561.592,56.456C564.7,56.092,567.64,55.588,570.1600000000001,54.944L567.7239999999999,52.13394C563.104,53.3716,555.376,54.1031,548.6279999999999,54.384C548.9639999999999,55.14,549.356,56.484,549.4680000000001,57.352000000000004C552.212,57.24,555.1800000000001,57.072,558.092,56.82L558.092,60.096000000000004L548.908,60.096000000000004L548.908,63.316L558.092,63.316L558.092,66.62L546.976,66.62ZM580.352,62.391999999999996C581.9200000000001,63.007999999999996,583.992,64.044,585,64.77199999999999L586.456,62.336C585.392,61.635999999999996,583.2919999999999,60.712,581.752,60.208L580.352,62.391999999999996ZM579.008,67.46000000000001C580.604,68.048,582.704,69.056,583.74,69.78399999999999L585.196,67.208C584.1320000000001,66.508,582.004,65.64,580.4359999999999,65.136L579.008,67.46000000000001ZM587.94,62.812L587.94,71.156L590.992,71.156L590.992,69.392L594.044,69.392L594.044,71.044L597.096,71.044L597.096,69.392L600.568,69.392L600.568,70.344L598.188,70.344L598.188,71.968L586.652,71.968L587.184,71.184L585.168,69.168C583.376,71.71600000000001,581.192,74.51599999999999,579.7080000000001,76.168L582.088,78.268C583.572,76.392,585.168,74.18,586.596,72.05199999999999L586.596,74.152L589.9,74.152L588.752,74.852C589.816,75.74799999999999,590.9359999999999,77.00800000000001,591.356,77.96000000000001L593.764,76.44800000000001C593.4,75.72,592.644,74.88,591.832,74.152L598.188,74.152L598.188,75.72C598.188,76.02799999999999,598.048,76.112,597.684,76.112C597.376,76.112,596.144,76.14,595.052,76.084C595.4159999999999,76.756,595.864,77.73599999999999,596.004,78.49199999999999C597.8240000000001,78.49199999999999,599.1120000000001,78.49199999999999,600.092,78.128C601.072,77.73599999999999,601.352,77.148,601.352,75.832L601.352,74.152L604.8240000000001,74.152L604.8240000000001,71.968L601.352,71.968L601.352,71.044L603.76,71.044L603.76,62.812L597.096,62.812L597.096,61.972L604.432,61.972L604.432,60.012L603.088,60.012L603.816,59.2C603.116,58.724000000000004,601.744,58.08,600.736,57.716L600.092,58.388C599.8679999999999,57.884,599.476,57.24,599.028,56.624L604.796,56.624L604.796,54.272L596.48,54.272C596.704,53.824,596.9,53.376,597.068,52.928L593.96,52.172C593.456,53.6,592.644,55,591.664,56.204L591.664,54.272L585.448,54.272L586.008,53.04L582.956,52.172C582.06,54.384,580.4639999999999,56.652,578.784,58.108000000000004C579.54,58.528,580.856,59.367999999999995,581.5,59.872C582.3399999999999,59.032,583.264,57.884,584.076,56.624L584.4680000000001,56.624C585.168,57.604,585.896,58.92,586.204,59.760000000000005L588.948,58.891999999999996C588.668,58.248,588.164,57.408,587.6320000000001,56.624L591.3,56.624C590.8240000000001,57.156,590.3199999999999,57.632,589.788,58.024C590.6,58.36,592,59.088,592.672,59.592C593.512,58.808,594.38,57.772,595.136,56.624L595.864,56.624C596.5360000000001,57.519999999999996,597.1800000000001,58.612,597.46,59.34L600.0640000000001,58.444L599.308,59.228C599.812,59.452,600.4,59.732,600.932,60.012L597.096,60.012L597.096,59.004000000000005L594.044,59.004000000000005L594.044,60.012L586.932,60.012L586.932,61.972L594.044,61.972L594.044,62.812L587.94,62.812ZM594.044,67.03999999999999L594.044,67.964L590.992,67.964L590.992,67.03999999999999L594.044,67.03999999999999ZM594.044,65.612L590.992,65.612L590.992,64.66L594.044,64.66L594.044,65.612ZM597.096,67.03999999999999L600.568,67.03999999999999L600.568,67.964L597.096,67.964L597.096,67.03999999999999ZM597.096,65.612L597.096,64.66L600.568,64.66L600.568,65.612L597.096,65.612ZM626.1320000000001,52.2C625.6279999999999,56.484,624.5640000000001,60.6,622.688,63.147999999999996C623.4159999999999,63.568,624.816,64.548,625.376,65.05199999999999C626.44,63.512,627.308,61.495999999999995,628.008,59.2L633.7760000000001,59.2C633.4680000000001,60.964,633.104,62.728,632.796,63.96L635.4839999999999,64.604C636.1279999999999,62.56,636.828,59.424,637.36,56.624L635.12,56.092L634.616,56.204L628.736,56.204C628.988,55.056,629.184,53.852000000000004,629.352,52.647999999999996L626.1320000000001,52.2ZM628.26,61.748000000000005L628.26,63.064C628.26,66.62,627.784,72.19200000000001,622.352,76.28C623.136,76.78399999999999,624.312,77.848,624.844,78.548C627.504,76.476,629.1,74.03999999999999,630.052,71.632C631.2280000000001,74.628,632.9359999999999,77.00800000000001,635.456,78.49199999999999C635.904,77.624,636.94,76.336,637.668,75.664C634.2239999999999,74.012,632.2919999999999,70.26,631.3399999999999,65.92C631.424,64.912,631.452,63.988,631.452,63.147999999999996L631.452,61.748000000000005L628.26,61.748000000000005ZM612.524,67.32C612.7760000000001,67.068,613.8679999999999,66.9,614.848,66.9L617.508,66.9L617.508,69.896C615.0160000000001,70.232,612.692,70.53999999999999,610.928,70.736L611.6279999999999,74.124L617.508,73.172L617.508,78.436L620.504,78.436L620.504,72.668L623.7239999999999,72.108L623.556,69.056L620.504,69.476L620.504,66.9L623.2760000000001,66.9L623.304,63.876000000000005L620.504,63.876000000000005L620.504,59.984L617.508,59.984L617.508,63.876000000000005L615.604,63.876000000000005C616.332,62.224000000000004,617.06,60.376000000000005,617.732,58.416L623.556,58.416L623.556,55.252L618.74,55.252L619.356,52.9L616.108,52.256C615.912,53.263999999999996,615.688,54.272,615.4359999999999,55.252L611.3199999999999,55.252L611.3199999999999,58.416L614.512,58.416C613.924,60.236000000000004,613.392,61.692,613.1120000000001,62.28C612.552,63.512,612.104,64.268,611.488,64.464C611.852,65.248,612.356,66.70400000000001,612.524,67.32ZM651.248,65.78L651.248,69.056L658.836,69.056L658.836,78.49199999999999L662.2239999999999,78.49199999999999L662.2239999999999,69.056L669.448,69.056L669.448,65.78L662.2239999999999,65.78L662.2239999999999,60.936L668.104,60.936L668.104,57.632L662.2239999999999,57.632L662.2239999999999,52.564L658.836,52.564L658.836,57.632L656.54,57.632C656.8199999999999,56.568,657.1,55.504,657.3240000000001,54.412L654.076,53.768C653.46,57.184,652.284,60.768,650.7719999999999,62.980000000000004C651.5840000000001,63.316,653.012,64.1,653.684,64.576C654.3,63.568,654.8879999999999,62.308,655.4200000000001,60.936L658.836,60.936L658.836,65.78L651.248,65.78ZM649.1759999999999,52.312C647.7760000000001,56.316,645.396,60.32,642.904,62.84C643.492,63.68,644.4159999999999,65.5,644.7239999999999,66.34C645.284,65.724,645.844,65.05199999999999,646.404,64.324L646.404,78.464L649.596,78.464L649.596,59.34C650.6600000000001,57.38,651.6120000000001,55.336,652.3679999999999,53.32L649.1759999999999,52.312Z" fill="#FFFFFF" fill-opacity="1"/></g></g><g clip-path="url(#master_svg6_392_01567)"><g><g><rect x="330" y="123" width="54" height="22" rx="11" fill="#FFFFFF" fill-opacity="1"/></g><g><path d="M347.97,131.166L347.97,136.486L351.316,136.486C351.19,137.214,350.924,137.914,350.364,138.53C349.566,138.082,348.936,137.522,348.488,136.85L347.578,137.172C348.096,137.97,348.768,138.642,349.594,139.174C348.936,139.622,348.012,140.014,346.752,140.294C346.962,140.504,347.256,140.91,347.382,141.1635C348.768,140.77,349.776,140.28,350.518,139.692C352.002,140.42000000000002,353.836,140.84,355.95,141.036C356.076,140.742,356.342,140.308,356.58,140.056C354.522,139.93,352.702,139.58,351.26,138.978C351.89,138.222,352.198,137.368,352.338,136.486L355.76800000000003,136.486L355.76800000000003,131.166L352.45,131.166L352.45,129.99L356.258,129.99L356.258,129.038L347.592,129.038L347.592,129.99L351.414,129.99L351.414,131.166L347.97,131.166ZM348.95,134.218L351.414,134.218L351.414,134.904L351.4,135.674L348.95,135.674L348.95,134.218ZM352.45,134.218L354.746,134.218L354.746,135.674L352.436,135.674L352.45,134.918L352.45,134.218ZM348.95,131.992L351.414,131.992L351.414,133.42L348.95,133.42L348.95,131.992ZM352.45,131.992L354.746,131.992L354.746,133.42L352.45,133.42L352.45,131.992ZM346.598,128.29228C345.912,130.41,344.75,132.51,343.49,133.882C343.7,134.12,344.008,134.666,344.106,134.918C344.498,134.47,344.876,133.966,345.24,133.406L345.24,141.0927L346.248,141.0927L346.248,131.698C346.766,130.704,347.228,129.64,347.592,128.57381L346.598,128.29228ZM362.81,136.276C362.558,138.11,361.97,139.622,360.864,140.574C361.102,140.714,361.508,141.0082,361.676,141.178C362.29200000000003,140.588,362.782,139.818,363.146,138.908C364.126,140.56,365.596,140.994,367.766,140.994L370.23,140.994C370.258,140.742,370.412,140.294,370.552,140.07C370.062,140.084,368.144,140.084,367.808,140.084C367.346,140.084,366.912,140.056,366.506,140L366.506,138.124L369.684,138.124L369.684,137.27L366.506,137.27L366.506,136.038L369.558,136.038L369.558,134.05L370.552,134.05L370.552,133.182L369.558,133.182L369.558,131.292L366.506,131.292L366.506,130.354L370.216,130.354L370.216,129.486L366.506,129.486L366.506,128.23519L365.512,128.23519L365.512,129.486L362.04,129.486L362.04,130.354L365.512,130.354L365.512,131.292L362.656,131.292L362.656,132.132L365.512,132.132L365.512,133.182L361.844,133.182L361.844,134.05L365.512,134.05L365.512,135.212L362.656,135.212L362.656,136.038L365.512,136.038L365.512,139.776C364.63,139.454,363.95799999999997,138.852,363.51,137.788C363.622,137.35399999999998,363.72,136.892,363.79,136.402L362.81,136.276ZM368.578,134.05L368.578,135.212L366.506,135.212L366.506,134.05L368.578,134.05ZM368.578,133.182L366.506,133.182L366.506,132.132L368.578,132.132L368.578,133.182ZM359.338,128.24941L359.338,131.068L357.588,131.068L357.588,132.048L359.338,132.048L359.338,134.918L357.392,135.506L357.658,136.514L359.338,135.968L359.338,139.902C359.338,140.098,359.26800000000003,140.154,359.1,140.154C358.932,140.168,358.386,140.168,357.784,140.14C357.91,140.434,358.05,140.868,358.078,141.12C358.974,141.1342,359.506,141.09199999999998,359.842,140.924C360.192,140.77,360.318,140.476,360.318,139.902L360.318,135.64600000000002L361.858,135.142L361.704,134.176L360.318,134.61L360.318,132.048L361.83,132.048L361.83,131.068L360.318,131.068L360.318,128.24941L359.338,128.24941Z" fill="#046FF8" fill-opacity="1"/></g></g><g><g><rect x="414" y="123" width="54" height="22" rx="11" fill="#FFFFFF" fill-opacity="1"/></g><g><path d="M431.004,132.174L437.066,132.174L437.066,133.448L431.004,133.448L431.004,132.174ZM429.954,131.404L429.954,134.218L438.158,134.218L438.158,131.404L429.954,131.404ZM433.174,128.43162L433.58,129.696L427.826,129.696L427.826,130.62L440.118,130.62L440.118,129.696L434.742,129.696C434.588,129.24647,434.378,128.6565,434.182,128.19297L433.174,128.43162ZM428.344,135.002L428.344,141.1071L429.352,141.1071L429.352,135.88400000000001L438.62,135.88400000000001L438.62,140.014C438.62,140.168,438.55,140.224,438.382,140.224C438.214,140.224,437.556,140.238,436.954,140.21C437.08,140.434,437.234,140.756,437.29,141.008C438.186,141.008,438.788,141.008,439.166,140.882C439.544,140.742,439.67,140.518,439.67,140L439.67,135.002L428.344,135.002ZM430.934,136.71L430.934,140.2964L431.928,140.2964L431.928,139.594L436.884,139.594L436.884,136.71L430.934,136.71ZM431.928,137.494L435.932,137.494L435.932,138.81L431.928,138.81L431.928,137.494ZM443.366,131.60044C442.918,132.67909,442.218,133.82775,441.49,134.6264C441.7,134.7664,442.078,135.1026,442.23199999999997,135.2568C442.96,134.4162,443.758,133.08531,444.276,131.86644L443.366,131.60044ZM445.676,131.97866C446.306,132.73509,446.964,133.77175,447.23,134.4582L448.07,133.96797C447.79,133.29552999999999,447.104,132.28687,446.46,131.55822L445.676,131.97866ZM443.814,128.57162C444.22,129.09094,444.626,129.79269,444.822,130.284L441.812,130.284L441.812,131.236L448.182,131.236L448.182,130.284L445.004,130.284L445.774,129.93312C445.578,129.45580999999999,445.13,128.74006,444.682,128.22053L443.814,128.57162ZM442.932,134.9626C443.492,135.5091,444.08,136.1393,444.626,136.7837C443.842,138.1428,442.806,139.2355,441.532,140.0199C441.756,140.1881,442.134,140.5803,442.274,140.7766C443.464,139.9639,444.472,138.8993,445.284,137.5824C445.886,138.3528,446.404,139.0955,446.712,139.6837L447.552,139.0252C447.174,138.3528,446.53,137.4984,445.816,136.6437C446.20799999999997,135.8593,446.544,134.9906,446.81,134.066L445.816,133.88397C445.634,134.5844,445.396,135.2288,445.116,135.8453C444.654,135.3408,444.164,134.8364,443.716,134.4022L442.932,134.9626ZM450.198,131.768L452.536,131.768C452.256,133.64553,451.836,135.2426,451.164,136.5595C450.59,135.4106,450.156,134.1217,449.862,132.74887L450.198,131.768ZM450.03,128.22031C449.624,130.718,448.924,133.11309,447.776,134.6402C448,134.8222,448.35,135.2286,448.49,135.4386C448.77,135.0464,449.022,134.6122,449.26,134.13569999999999C449.61,135.3826,450.044,136.5315,450.576,137.5402C449.75,138.75900000000001,448.644,139.6977,447.16,140.3841C447.384,140.5663,447.748,140.9726,447.888,141.1688C449.23199999999997,140.4683,450.296,139.5857,451.122,138.4788C451.85,139.5857,452.73199999999997,140.4963,453.796,141.1128C453.964,140.8466,454.3,140.4683,454.538,140.2721C453.404,139.6837,452.48,138.745,451.724,137.5682C452.634,136.0271,453.194,134.1217,453.558,131.768L454.356,131.768L454.356,130.788L450.478,130.788C450.688,130.01647,450.856,129.2025,451.01,128.37475L450.03,128.22031Z" fill="#046FF8" fill-opacity="1"/></g></g><g><g><rect x="498" y="123" width="62" height="22" rx="11" fill="#FFFFFF" fill-opacity="1"/></g><g><path d="M509.596,129.178L509.596,130.214L514.244,130.214C514.202,131.208,514.16,132.272,513.992,133.322L508.728,133.322L508.728,134.344L513.796,134.344C513.222,136.752,511.864,139.006,508.546,140.266C508.812,140.476,509.12,140.8547,509.26,141.1226C512.872,139.678,514.272,137.088,514.86,134.344L515.154,134.344L515.154,139.16C515.154,140.434,515.546,140.798,517.002,140.798C517.296,140.798,519.298,140.798,519.62,140.798C520.964,140.798,521.3,140.21,521.44,137.97C521.132,137.9,520.67,137.718,520.418,137.522C520.348,139.44,520.236,139.762,519.55,139.762C519.116,139.762,517.436,139.762,517.1,139.762C516.386,139.762,516.246,139.664,516.246,139.16L516.246,134.344L521.314,134.344L521.314,133.322L515.042,133.322C515.196,132.272,515.266,131.222,515.294,130.214L520.516,130.214L520.516,129.178L509.596,129.178ZM522.63,139.258L522.826,140.28C524.156,139.944,525.92,139.51,527.614,139.09L527.516,138.18C525.71,138.6,523.862,139.006,522.63,139.258ZM522.896,134.078C523.106,133.98,523.442,133.89600000000002,525.276,133.644C524.632,134.582,524.03,135.324,523.764,135.60399999999998C523.316,136.108,522.98,136.444,522.672,136.5C522.77,136.752,522.924,137.172,522.994,137.39600000000002L522.994,137.452L523.008,137.438C523.316,137.27,523.848,137.13,527.628,136.36C527.614,136.15,527.6,135.758,527.628,135.478L524.506,136.052C525.612,134.82,526.69,133.30778,527.614,131.79381L526.76,131.26137C526.508,131.75181,526.2139999999999,132.24247,525.906,132.71891L523.974,132.91512C524.842,131.70981,525.696,130.16806,526.34,128.66831L525.374,128.21966C524.772,129.91562,523.708,131.75181,523.386,132.22847C523.064,132.70491,522.812,133.04134,522.56,133.09734C522.686,133.36378,522.84,133.868,522.896,134.078ZM528.146,141.1497C528.412,140.952,528.832,140.756,531.716,139.776C531.66,139.552,531.604,139.14600000000002,531.59,138.86599999999999L529.182,139.608L529.182,134.652L531.744,134.652C532.038,138.39,532.724,140.994,534.152,140.994C535.034,140.994,535.37,140.378,535.51,138.264C535.258,138.166,534.894,137.956,534.67,137.746C534.628,139.286,534.502,139.972,534.25,139.972C533.522,139.972,532.99,137.886,532.738,134.652L535.132,134.652L535.132,133.672L532.668,133.672C532.598,132.48069,532.57,131.14916,532.584,129.74741C533.438,129.57941,534.236,129.39719,534.922,129.18675L534.166,128.33187C532.752,128.79431,530.302,129.22897,528.188,129.52319L528.188,139.328C528.188,139.902,527.894,140.182,527.684,140.308C527.838,140.504,528.062,140.924,528.146,141.1497ZM531.674,133.672L529.182,133.672L529.182,130.28006C529.952,130.18206,530.764,130.06984,531.548,129.92962C531.562,131.24716,531.604,132.50869,531.674,133.672ZM548.138,130.26453C547.158,131.76341,545.814,133.15028,544.344,134.3129L544.344,128.48544L543.224,128.48544L543.224,135.1534C542.328,135.78379999999999,541.404,136.33,540.508,136.7782C540.774,136.9745,541.11,137.3387,541.278,137.5769C541.922,137.2407,542.58,136.8625,543.224,136.4422L543.224,138.8656C543.224,140.434,543.644,140.868,545.044,140.868C545.352,140.868,547.2139999999999,140.868,547.5360000000001,140.868C549.02,140.868,549.314,139.944,549.468,137.3247C549.146,137.2407,548.698,137.0165,548.418,136.8065C548.32,139.2018,548.222,139.818,547.48,139.818C547.074,139.818,545.492,139.818,545.156,139.818C544.484,139.818,544.344,139.664,544.344,138.8936L544.344,135.6718C546.15,134.3549,547.858,132.74406,549.146,130.93697L548.138,130.26453ZM540.382,128.23344C539.528,130.37653,538.1,132.46384,536.588,133.80872C536.812,134.0467,537.162,134.5932,537.288,134.8312C537.834,134.2989,538.38,133.6685,538.898,132.96806L538.898,141.1222L540.004,141.1222L540.004,131.32919C540.5360000000001,130.44675,541.026,129.49409,541.418,128.55566L540.382,128.23344Z" fill="#046FF8" fill-opacity="1"/></g></g></g><g mask="url(#master_svg7_392_01366)"><g><ellipse cx="687" cy="25" rx="46" ry="46" fill="url(#master_svg8_11_3791)" fill-opacity="1"/></g></g><g transform="matrix(-1,0,0,-1,188,360)" mask="url(#master_svg9_392_01360)"><g><ellipse cx="168" cy="195" rx="46" ry="46" fill="url(#master_svga_11_3791)" fill-opacity="1"/></g></g><g><g><path d="M97.97857666015625,162.74541224365234L97.97857666015625,165.36075724365233L103.62518666015625,165.36075724365233C104.27206666015626,164.74307724365235,103.90561666015626,164.41016724365235,103.62518666015625,164.05308724365236Q101.41956666015625,164.05330724365234,100.80187666015625,162.74541224365234Q99.27476666015625,161.98156224365235,97.97857666015625,162.74541224365234Z" fill-rule="evenodd" fill="#CDDBFF" fill-opacity="1"/></g><g transform="matrix(0.9901971220970154,0.1392277479171753,-0.1391182839870453,0.9903385639190674,23.227822773282583,-7.855902669950638)"><path d="M67.68007469177246,162.57741412304688L67.68007469177246,165.19250612304688L73.32723469177246,165.19250612304688C73.97418469177246,164.57488612304687,73.60769469177247,164.24200612304688,73.32723469177246,163.88495612304686Q71.12139469177247,163.88518612304688,70.50365469177247,162.57741412304688Q68.97639469177246,161.81363812304687,67.68007469177246,162.57741412304688Z" fill-rule="evenodd" fill="#CDDBFF" fill-opacity="1"/></g><g><path d="M67.0038890838623,121.35139178588867Q73.20693908386231,136.86991178588866,74.0039190838623,138.21451178588867Q74.91735908386231,144.99731178588868,67.65195808386231,162.74541178588868L70.5549090838623,163.25061178588868Q81.39358908386231,145.61571178588866,82.01688908386231,134.94661178588868Q93.05068908386231,141.03951178588866,97.9785890838623,162.74541178588868L100.7238890838623,162.74541178588868Q98.4623890838623,139.13631178588867,89.05208908386231,124.27761178588867Q87.7667890838623,121.54371178588868,86.4606890838623,118.92161178588867L67.0038890838623,121.35139178588867Z" fill-rule="evenodd" fill="url(#master_svgb_343_9050)" fill-opacity="1"/></g><g><path d="M72.57910992370606,96.39240453481445Q69.89660992370605,98.13017443481445,68.87659992370605,99.05541443481445Q64.07137992370606,103.71476443481446,67.00388992370605,121.35141443481446Q77.98439992370605,126.51911443481445,87.34689992370605,122.56061443481445Q86.73449992370605,113.33021443481445,86.57749992370606,108.78381443481445Q87.34559992370606,102.36444443481446,86.57749992370606,100.66338443481445Q84.43439992370605,96.86096543481446,82.03349992370605,96.37651443481445L72.57910992370606,96.39240453481445Z" fill-rule="evenodd" fill="url(#master_svgc_343_9091)" fill-opacity="1"/></g><g><path d="M75.85120569091796,93.9472599029541Q75.59787369091796,94.7908479029541,74.80089569091797,95.8681299029541C75.70479569091796,97.7664299029541,79.50746569091797,98.2838099029541,80.62602569091797,97.6146099029541C81.05811569091797,97.3560999029541,80.66505569091797,97.1922299029541,80.59640569091798,96.84237990295411Q80.54657569091796,96.5884599029541,80.62602569091797,95.8681299029541L75.85120569091796,93.9472599029541Z" fill-rule="evenodd" fill="#FFB9B7" fill-opacity="1"/></g><g><path d="M74.9381876940918,92.35268094013215Q76.0059676940918,91.80510094013214,76.0059676940918,93.45797094013214C76.0059676940918,95.11085094013214,80.26105769409179,96.79665094013214,81.9860476940918,95.26995094013213C83.7110476940918,93.74315094013214,84.6391176940918,92.54298094013214,83.7110476940918,86.38289094013214Q82.7829676940918,80.22281094013213,74.8135246940918,87.97563094013213C73.6772776940918,88.37627094013214,73.7536146940918,89.86655094013214,74.9381876940918,92.35268094013215Z" fill-rule="evenodd" fill="#FFD0B6" fill-opacity="1"/></g><g><path d="M76.00596719787598,93.4579861328125Q71.72756619787597,91.54658613281251,72.91206919787598,85.2597461328125Q72.91206919787598,81.9044051328125,83.71103719787598,82.6186371328125L83.71103719787598,86.3828961328125Q81.23933719787598,86.4501361328125,79.46318719787598,86.3828961328125Q78.31155719787597,87.0807661328125,76.89704719787598,89.9981261328125Q76.71497719787598,87.0003961328125,74.81352719787597,87.9756261328125Q74.22737719787598,88.8413561328125,76.00596719787598,93.4579861328125Z" fill-rule="evenodd" fill="#16024C" fill-opacity="1"/></g><g><path d="M74.80090207305908,95.86812686920166L72.84949207305908,96.37651586920165Q76.02952207305908,100.66338686920166,79.04081207305909,100.66338686920166Q79.97193207305908,99.34273686920166,80.21504207305908,98.26575686920167L81.94561207305908,99.55486686920166Q82.64020207305909,97.63585686920166,82.64020207305909,96.37651586920165C82.32744207305907,96.47588486920166,82.00078207305909,96.35500086920166,81.61517207305909,96.34706686920165Q81.28657207305908,96.34030586920166,80.52750207305908,96.37651586920165C80.68137207305908,97.16034686920166,80.75645207305908,97.38627686920167,80.21504207305908,97.62901686920166C78.17256207305908,97.63445686920166,76.15908207305908,97.82133686920166,74.80090207305908,95.86812686920166Z" fill-rule="evenodd" fill="#587AE7" fill-opacity="1"/></g><g><path d="M86.7679570814209,101.30050468444824L94.9922490814209,108.29742468444825L92.1036290814209,112.23500468444824L86.4606990814209,109.68246468444823L86.7679570814209,101.30050468444824Z" fill-rule="evenodd" fill="#A0CBFF" fill-opacity="1"/></g><g><g mask="url(#master_svge_392_01380)"><g><path d="M58.32472180171967,143.29388601665497L112.71091180171967,88.88128601665497C114.47841180171966,87.11296201665496,117.34491180171966,87.11296201665496,119.11241180171967,88.88128601665497C120.87861180171967,90.64840601665497,120.87861180171967,93.51255601665497,119.11241180171967,95.27966601665497L64.72620180171967,149.69228601665498C62.958731801719665,151.460586016655,60.092191801719665,151.460586016655,58.32472180171967,149.69228601665498C56.55846680171967,147.92518601665498,56.55846680171967,145.06098601665497,58.32472180171967,143.29388601665497" fill="url(#master_svgd_343_02793)" fill-opacity="1"/></g><g transform="matrix(0.6689512729644775,0.7433062791824341,-0.7429832816123962,0.6693099737167358,123.61219214368526,0.8618421164508732)"><rect x="60.804948806762695" y="139.28010737895966" width="12.607030868530273" height="1.9393997192382812" rx="0" fill="#151515" fill-opacity="1"/><rect x="60.804948806762695" y="139.28010737895966" width="12.607030868530273" height="1.9393997192382812" rx="0" fill-opacity="0" stroke-opacity="1" stroke="#151515" fill="none" stroke-width="0"/></g></g><g mask="url(#master_svgf_392_01384)"><g><path d="M113.52956771850586,88.04023689174652L124.48266771850587,83.11998689174652L119.92723771850586,94.44238689174652L113.52956771850586,88.04023689174652Z" fill-rule="evenodd" fill="#F5F5F5" fill-opacity="1"/></g><g transform="matrix(0.7191712856292725,0.6948328018188477,-0.6944838762283325,0.7195082306861877,88.73717663246303,-63.11031457128922)"><rect x="122.42411518096924" y="78.26959216594696" width="7.111308574676514" height="5.81848669052124" rx="0" fill="#151515" fill-opacity="1"/></g></g></g><g><path d="M66.83352114624023,101.7079862890625Q70.70487114624024,97.0196862890625,74.00393114624023,100.6633862890625Q75.67363114624024,105.3991862890625,71.35701114624024,110.9435462890625Q70.89808114624023,112.9513462890625,72.84949114624024,114.1366462890625Q74.80093114624023,115.3219462890625,82.64023114624024,118.73114628906251L81.28673114624024,121.7021462890625Q68.37451114624024,121.30304628906251,64.20723614624023,115.5295462890625Q62.515041146240236,110.6000462890625,66.83352114624023,101.7079862890625Z" fill-rule="evenodd" fill="#A0CBFF" fill-opacity="1"/></g><g><path d="M81.29977607727051,121.10774717041015Q81.75206707727051,121.48274717041015,82.1012740772705,122.13055717041016C82.9158560772705,122.55896717041016,86.02175607727051,122.44451717041015,87.16489607727051,122.44451717041015C88.30803607727051,122.44451717041015,87.7744160772705,122.13055717041016,88.41041607727051,122.13055717041016C89.0464060772705,122.13055717041016,88.8184860772705,122.13055717041016,88.8184860772705,122.13055717041016C88.8184860772705,122.13055717041016,88.35130607727051,121.70213717041015,88.8184860772705,121.70213717041015Q89.28567607727051,121.70213717041015,88.8184860772705,121.10774717041015Q87.5911860772705,120.77626717041015,87.7744160772705,120.56250717041016C89.0951160772705,120.56250717041016,88.18485607727051,120.78951717041015,88.8184860772705,120.56250717041016C88.8184860772705,119.42286807041016,87.11501607727051,119.90014917041016,87.7744160772705,119.90014917041016Q88.4338160772705,119.90014917041016,87.7744160772705,119.47403717041016Q84.60270607727051,119.47403717041016,84.0776960772705,119.47403717041016Q83.55269607727051,119.47403717041016,82.6401960772705,119.90014917041016L82.1012740772705,119.90014917041016L81.29977607727051,121.10774717041015Z" fill-rule="evenodd" fill="#FCD9AF" fill-opacity="1"/></g><g><path d="M99.21170965820312,114.5005646295166L97.10660145820313,112.90481462951661Q96.87959465820313,112.4865446295166,97.51937465820312,112.4865446295166Q98.05289965820313,112.8150346295166,98.84295965820313,113.4935546295166Q99.56112965820313,113.5000646295166,99.19238965820313,113.2509646295166Q98.82363965820312,113.0018546295166,97.83554965820312,111.9136146295166Q97.52167665820312,110.6844536295166,98.18231965820313,111.2990346295166Q98.84295965820313,111.9136146295166,99.53177965820312,112.7973746295166L99.78256965820313,112.4865446295166L98.84295965820313,111.0424946295166Q98.89162965820313,110.7372486295166,99.21170965820312,110.7372486295166Q99.53177965820312,110.7372486295166,100.34915965820312,112.4865446295166L100.69969965820313,111.9136146295166L99.53177965820312,110.3270676295166Q99.99860965820312,109.6116416295166,100.34915965820312,110.3270676295166Q100.69969965820313,111.0424946295166,101.01809965820313,111.9136146295166Q101.36343965820312,111.5555746295166,101.36343965820312,111.2990346295166C101.36343965820312,111.0424946295166,101.83937965820313,110.6844536295166,101.83937965820313,111.2990346295166Q101.83937965820313,111.9136146295166,101.83937965820313,112.90481462951661L101.36343965820312,113.4935546295166L100.69969965820313,114.5005646295166L99.21170965820312,114.5005646295166Z" fill-rule="evenodd" fill="#FCD9AF" fill-opacity="1"/></g></g><g><g><path d="M379.608,106.2903C381.736,107.0915,383.864,108.1973,385.16,109.191L385.896,108.24549999999999C384.568,107.3,382.328,106.1943,380.184,105.409L379.608,106.2903ZM374.84,99.088C375.704,99.6,376.728,100.4,377.192,100.96000000000001L377.96,100.096C377.464,99.52,376.424,98.8,375.56,98.32L374.84,99.088ZM373.24,101.584C374.152,102.08,375.224,102.88,375.736,103.456L376.472,102.544C375.944,101.984,374.856,101.248,373.96,100.784L373.24,101.584ZM372.44,96.384L372.44,99.632L373.64,99.632L373.64,97.504L384.344,97.504L384.344,99.632L385.592,99.632L385.592,96.384L380.104,96.384C379.864,95.82225,379.448,95.03575000000001,379.048,94.44175L377.864,94.811C378.152,95.2925,378.456,95.87049999999999,378.68,96.384L372.44,96.384ZM372.136,103.904L372.136,104.944L377.912,104.944C377.016,106.4988,375.368,107.5403,372.296,108.1812C372.552,108.4538,372.856,108.9185,372.984,109.239C376.584,108.4058,378.376,107.0115,379.288,104.944L385.96,104.944L385.96,103.904L379.656,103.904C380.12,102.352,380.23199999999997,100.496,380.296,98.304L379.048,98.304C378.984,100.576,378.888,102.416,378.376,103.904L372.136,103.904ZM394.584,100.768C395.432,102,396.52,103.696,397.032,104.672L398.088,104.064C397.544,103.088,396.44,101.456,395.576,100.24L394.584,100.768ZM392.184,101.568L392.184,105.216L389.448,105.216L389.448,101.568L392.184,101.568ZM392.184,100.496L389.448,100.496L389.448,96.992L392.184,96.992L392.184,100.496ZM388.296,95.904L388.296,107.6L389.448,107.6L389.448,106.304L393.304,106.304L393.304,95.904L388.296,95.904ZM399.224,94.635L399.224,97.76L394.04,97.76L394.04,98.944L399.224,98.944L399.224,107.47200000000001C399.224,107.792,399.096,107.904,398.776,107.904C398.424,107.936,397.24,107.936,395.992,107.888C396.168,108.24,396.36,108.78399999999999,396.44,109.12C398.04,109.12,399.064,109.104,399.64,108.896C400.216,108.70400000000001,400.44,108.352,400.44,107.47200000000001L400.44,98.944L402.392,98.944L402.392,97.76L400.44,97.76L400.44,94.635L399.224,94.635ZM404.984,95.696C405.864,96.48,406.984,97.568,407.48,98.272L408.36,97.424C407.8,96.752,406.68,95.696,405.81600000000003,94.95675L404.984,95.696ZM406.2,108.976L406.2,108.96000000000001C406.424,108.656,406.872,108.32,409.528,106.432C409.4,106.19200000000001,409.224,105.712,409.144,105.392L407.48,106.52799999999999L407.48,99.584L403.736,99.584L403.736,100.752L406.296,100.752L406.296,106.512C406.296,107.29599999999999,405.8,107.84,405.512,108.064C405.736,108.27199999999999,406.072,108.72,406.2,108.976ZM409.704,95.68L409.704,96.88L416.056,96.88L416.056,100.928L410.008,100.928L410.008,107.088C410.008,108.656,410.584,109.03999999999999,412.376,109.03999999999999C412.776,109.03999999999999,415.64,109.03999999999999,416.056,109.03999999999999C417.8,109.03999999999999,418.216,108.32,418.392,105.712C418.04,105.632,417.528,105.424,417.224,105.2C417.144,107.47200000000001,416.984,107.888,415.992,107.888C415.368,107.888,412.936,107.888,412.456,107.888C411.432,107.888,411.24,107.744,411.24,107.104L411.24,102.08L416.056,102.08L416.056,102.912L417.256,102.912L417.256,95.68L409.704,95.68ZM421.144,102.928C422.18399999999997,103.504,423.448,104.416,424.056,105.024L424.904,104.19200000000001C424.264,103.584,422.968,102.736,421.96,102.19200000000001L421.144,102.928ZM421.144,95.456L421.144,96.56L430.84000000000003,96.56L430.776,98.032L421.624,98.032L421.624,99.136L430.712,99.136L430.616,100.608L420.072,100.608L420.072,101.68L426.376,101.68L426.376,104.608C424.056,105.568,421.64,106.544,420.088,107.136L420.728,108.208C422.296,107.536,424.392,106.64,426.376,105.76L426.376,107.968C426.376,108.19200000000001,426.296,108.256,426.04,108.27199999999999C425.784,108.288,424.888,108.288,423.944,108.256C424.104,108.56,424.296,109.008,424.36,109.312C425.608,109.312,426.424,109.312,426.92,109.136C427.432,108.96000000000001,427.592,108.672,427.592,107.98400000000001L427.592,104.224C428.968,106.304,430.968,107.856,433.464,108.64C433.624,108.32,433.992,107.856,434.248,107.6C432.52,107.136,431.016,106.288,429.8,105.168C430.824,104.544,432.024,103.648,432.984,102.832L431.96,102.08C431.24,102.8,430.056,103.744,429.064,104.416C428.472,103.744,427.976,102.976,427.592,102.16L427.592,101.68L434.04,101.68L434.04,100.608L431.864,100.608C432.008,98.96000000000001,432.12,96.992,432.152,95.456L431.20799999999997,95.39175L431,95.456L421.144,95.456ZM441.91200000000003,95.344L441.91200000000003,103.856L443.06399999999996,103.856L443.06399999999996,96.4L447.91200000000003,96.4L447.91200000000003,103.856L449.096,103.856L449.096,95.344L441.91200000000003,95.344ZM435.688,106.4L435.96,107.568C437.48,107.104,439.512,106.496,441.416,105.936L441.272,104.816L439.176,105.44L439.176,101.392L440.856,101.392L440.856,100.272L439.176,100.272L439.176,96.768L441.176,96.768L441.176,95.648L435.88,95.648L435.88,96.768L438.024,96.768L438.024,100.272L436.12,100.272L436.12,101.392L438.024,101.392L438.024,105.776C437.144,106.01599999999999,436.344,106.24,435.688,106.4ZM444.872,97.76L444.872,100.848C444.872,103.36,444.36,106.384,440.312,108.464C440.552,108.64,440.93600000000004,109.0898,441.06399999999996,109.3318C443.72,107.936,444.984,106.032,445.56,104.112L445.56,107.488C445.56,108.576,445.976,108.864,447.096,108.864L448.568,108.864C449.944,108.864,450.13599999999997,108.224,450.28,105.696C449.976,105.632,449.592,105.456,449.304,105.216C449.224,107.504,449.128,107.952,448.568,107.952L447.256,107.952C446.808,107.952,446.68,107.84,446.68,107.376L446.68,103.584L445.704,103.584C445.928,102.656,445.992,101.728,445.992,100.88L445.992,97.76L444.872,97.76ZM457.576,101.056C457.72,100.928,458.23199999999997,100.864,458.968,100.864L460.104,100.864C459.432,102.624,458.28,104.08,456.808,105.03999999999999L456.616,104.112L454.904,104.752L454.904,99.6L456.664,99.6L456.664,98.464L454.904,98.464L454.904,94.749L453.76800000000003,94.749L453.76800000000003,98.464L451.8,98.464L451.8,99.6L453.76800000000003,99.6L453.76800000000003,105.168C452.93600000000004,105.472,452.18399999999997,105.744,451.576,105.936L451.976,107.152C453.352,106.608,455.15999999999997,105.888,456.84000000000003,105.216L456.808,105.072C457.06399999999996,105.232,457.496,105.55199999999999,457.672,105.744C459.20799999999997,104.624,460.52,102.944,461.24,100.864L462.584,100.864C461.576,104.288,459.784,106.944,457.06399999999996,108.576C457.336,108.736,457.8,109.072,457.992,109.2655C460.696,107.456,462.6,104.624,463.704,100.864L464.79200000000003,100.864C464.504,105.568,464.168,107.392,463.752,107.84C463.592,108.032,463.448,108.08,463.192,108.064C462.904,108.064,462.296,108.064,461.64,108C461.832,108.32,461.96,108.8,461.976,109.136C462.648,109.1685,463.304,109.1845,463.688,109.136C464.152,109.088,464.472,108.96000000000001,464.776,108.576C465.336,107.92,465.672,105.936,466.008,100.32C466.024,100.144,466.04,99.728,466.04,99.728L459.608,99.728C461.192,98.72,462.872,97.408,464.584,95.888L463.688,95.2155L463.432,95.312L457,95.312L457,96.44800000000001L462.152,96.44800000000001C460.76,97.712,459.20799999999997,98.8,458.68,99.136C458.056,99.536,457.464,99.872,457.06399999999996,99.92C457.224,100.224,457.48,100.784,457.576,101.056ZM474.488,99.52L474.488,100.56L479.91200000000003,100.56L479.91200000000003,99.52L474.488,99.52ZM473.352,102.32C473.8,103.536,474.248,105.136,474.376,106.19200000000001L475.368,105.904C475.224,104.88,474.776,103.29599999999999,474.296,102.08L473.352,102.32ZM476.456,101.872C476.744,103.088,477.016,104.672,477.096,105.728L478.104,105.55199999999999C478.008,104.512,477.72,102.96000000000001,477.4,101.744L476.456,101.872ZM469.86400000000003,94.5535L469.86400000000003,97.6L467.784,97.6L467.784,98.72L469.752,98.72C469.32,100.832,468.424,103.312,467.528,104.624C467.72,104.912,468.008,105.44,468.13599999999997,105.792C468.776,104.8,469.384,103.2,469.86400000000003,101.536L469.86400000000003,109.2685L470.968,109.2685L470.968,100.928C471.384,101.712,471.848,102.64,472.056,103.136L472.776,102.288C472.536,101.80799999999999,471.336,99.92,470.968,99.376L470.968,98.72L472.632,98.72L472.632,97.6L470.968,97.6L470.968,94.5535L469.86400000000003,94.5535ZM476.984,94.44125C475.896,96.70225,473.992,98.736,471.976,99.968C472.2,100.208,472.552,100.72,472.696,100.96000000000001C474.328,99.824,475.928,98.224,477.144,96.3815C478.376,97.984,480.216,99.712,481.832,100.784C481.96,100.464,482.23199999999997,99.984,482.456,99.696C480.824,98.736,478.824,96.97475,477.72,95.4195L478.04,94.82625L476.984,94.44125ZM472.488,107.44L472.488,108.512L482.008,108.512L482.008,107.44L479.06399999999996,107.44C479.896,105.936,480.856,103.76,481.528,102.032L480.472,101.744C479.91200000000003,103.456,478.904,105.904,478.04,107.44L472.488,107.44ZM490.776,106.52799999999999C491.592,107.328,492.536,108.44800000000001,492.984,109.168L493.76800000000003,108.624C493.304,107.936,492.344,106.848,491.528,106.064L490.776,106.52799999999999ZM487.992,95.488L487.992,105.536L488.93600000000004,105.536L488.93600000000004,96.416L492.408,96.416L492.408,105.488L493.384,105.488L493.384,95.488L487.992,95.488ZM496.872,94.7645L496.872,107.888C496.872,108.128,496.776,108.208,496.552,108.208C496.328,108.224,495.576,108.224,494.728,108.208C494.872,108.496,495.032,108.96000000000001,495.08,109.21600000000001C496.2,109.2323,496.88800000000003,109.2,497.304,109.024C497.704,108.848,497.86400000000003,108.544,497.86400000000003,107.888L497.86400000000003,94.7645L496.872,94.7645ZM494.68,96L494.68,105.584L495.64,105.584L495.64,96L494.68,96ZM490.13599999999997,97.55199999999999L490.13599999999997,103.216C490.13599999999997,105.152,489.81600000000003,107.152,487.144,108.512C487.32,108.656,487.624,109.056,487.736,109.2485C490.616,107.792,491.06399999999996,105.376,491.06399999999996,103.232L491.06399999999996,97.55199999999999L490.13599999999997,97.55199999999999ZM484.296,95.584C485.192,96.08,486.344,96.848,486.88800000000003,97.36L487.624,96.384C487.048,95.904,485.88,95.19875,485.016,94.73225L484.296,95.584ZM483.608,99.904C484.488,100.4,485.656,101.12,486.23199999999997,101.6L486.952,100.64C486.344,100.176,485.15999999999997,99.488,484.296,99.03999999999999L483.608,99.904ZM483.928,108.432L485.016,109.072C485.688,107.6,486.488,105.632,487.06399999999996,103.952L486.104,103.328C485.464,105.12,484.568,107.2,483.928,108.432ZM506.08799999999997,94.85825C505.8,95.4835,505.288,96.42975,504.88800000000003,96.991L505.672,97.37575C506.08799999999997,96.8465,506.632,96.04475,507.096,95.30725L506.08799999999997,94.85825ZM500.408,95.30725C500.824,95.98075,501.256,96.86275,501.4,97.424L502.312,97.023C502.168,96.44575,501.736,95.57975,501.288,94.9545L500.408,95.30725ZM505.56,103.84C505.192,104.6733,504.68,105.3783,504.072,105.987C503.464,105.6825,502.84000000000003,105.3783,502.248,105.1217C502.472,104.7372,502.728,104.3047,502.952,103.84L505.56,103.84ZM500.76,105.5545C501.544,105.8587,502.424,106.2593,503.224,106.6758C502.2,107.4128,500.96799999999996,107.9255,499.656,108.23C499.86400000000003,108.4543,500.12,108.8708,500.23199999999997,109.15899999999999C501.704,108.7585,503.06399999999996,108.13380000000001,504.216,107.2045C504.744,107.525,505.224,107.8293,505.592,108.1017L506.36,107.3167C505.99199999999996,107.0602,505.528,106.77199999999999,505,106.48349999999999C505.848,105.5705,506.52,104.449,506.91999999999996,103.056L506.264,102.784L506.072,102.832L503.448,102.832L503.8,102L502.728,101.80799999999999C502.616,102.128,502.456,102.48,502.296,102.832L500.12,102.832L500.12,103.84L501.8,103.84C501.464,104.481,501.096,105.0737,500.76,105.5545ZM503.11199999999997,94.5375L503.11199999999997,97.536L499.8,97.536L499.8,98.528L502.744,98.528C501.976,99.568,500.744,100.56,499.624,101.03999999999999C499.86400000000003,101.264,500.13599999999997,101.68,500.28,101.952C501.256,101.424,502.312,100.528,503.11199999999997,99.584L503.11199999999997,101.536L504.23199999999997,101.536L504.23199999999997,99.36C505,99.92,505.976,100.672,506.376,101.03999999999999L507.048,100.176C506.664,99.904,505.256,99.008,504.472,98.528L507.496,98.528L507.496,97.536L504.23199999999997,97.536L504.23199999999997,94.5375L503.11199999999997,94.5375ZM509.06399999999996,94.68175C508.664,97.504,507.94399999999996,100.19200000000001,506.696,101.872C506.952,102.032,507.416,102.416,507.608,102.608C508.024,102.016,508.376,101.312,508.696,100.528C509.048,102.096,509.512,103.55199999999999,510.10400000000004,104.8175C509.20799999999997,106.3395,507.96000000000004,107.509,506.216,108.358C506.44,108.5985,506.776,109.07900000000001,506.88800000000003,109.3353C508.52,108.4543,509.752,107.34870000000001,510.696,105.939C511.496,107.3008,512.488,108.39,513.736,109.143C513.928,108.83879999999999,514.28,108.4223,514.552,108.1978C513.208,107.477,512.152,106.3075,511.336,104.8335C512.184,103.184,512.7280000000001,101.184,513.08,98.784L514.168,98.784L514.168,97.664L509.608,97.664C509.832,96.76625,510.024,95.82025,510.168,94.85825L509.06399999999996,94.68175ZM511.94399999999996,98.784C511.688,100.624,511.304,102.224,510.728,103.584C510.12,102.144,509.672,100.512,509.368,98.784L511.94399999999996,98.784ZM522.744,104.19200000000001L522.744,109.3003L523.8,109.3003L523.8,108.64L528.7280000000001,108.64L528.7280000000001,109.2358L529.832,109.2358L529.832,104.19200000000001L526.744,104.19200000000001L526.744,102.208L530.328,102.208L530.328,101.168L526.744,101.168L526.744,99.408L529.768,99.408L529.768,95.264L521.3199999999999,95.264L521.3199999999999,100.096C521.3199999999999,102.64,521.1759999999999,106.128,519.512,108.592C519.784,108.7205,520.28,109.0748,520.504,109.268C521.832,107.312,522.28,104.592,522.424,102.208L525.608,102.208L525.608,104.19200000000001L522.744,104.19200000000001ZM522.488,96.304L528.616,96.304L528.616,98.352L522.488,98.352L522.488,96.304ZM522.488,99.408L525.608,99.408L525.608,101.168L522.472,101.168L522.488,100.096L522.488,99.408ZM523.8,107.648L523.8,105.216L528.7280000000001,105.216L528.7280000000001,107.648L523.8,107.648ZM517.672,94.572L517.672,97.792L515.672,97.792L515.672,98.912L517.672,98.912L517.672,102.416C516.84,102.672,516.072,102.896,515.4639999999999,103.056L515.784,104.24L517.672,103.632L517.672,107.776C517.672,108,517.592,108.064,517.4,108.064C517.208,108.08,516.5840000000001,108.08,515.896,108.064C516.04,108.384,516.2,108.88,516.232,109.168C517.24,109.1842,517.864,109.136,518.248,108.944C518.648,108.768,518.792,108.432,518.792,107.776L518.792,103.264L520.6320000000001,102.656L520.456,101.55199999999999L518.792,102.08L518.792,98.912L520.6,98.912L520.6,97.792L518.792,97.792L518.792,94.572L517.672,94.572Z" fill="#FFFFFF" fill-opacity="1"/></g><g><rect x="355" y="102" width="12" height="2" rx="0" fill="#FFFFFF" fill-opacity="1"/></g><g><rect x="535" y="102" width="12" height="2" rx="0" fill="#FFFFFF" fill-opacity="1"/></g></g></g></svg>