<svg xmlns="http://www.w3.org/2000/svg" xmlns:xlink="http://www.w3.org/1999/xlink" fill="none" version="1.1" width="16" height="16" viewBox="0 0 16 16"><g><g></g><g><g><rect x="2.5" y="5.928571462631226" width="11" height="7.571428298950195" rx="1.5" fill-opacity="0" stroke-opacity="1" stroke="#000000" fill="none" stroke-width="1"/></g><g><path d="M5.222080537368774,2.650652Q4.071428537368774,3.8013,4.071428537368774,5.428570000000001L5.071428537368774,5.428570000000001Q5.071428537368774,4.21552,5.929188537368774,3.35776Q6.786948537368774,2.5,7.999998537368775,2.5Q9.213058537368774,2.5,10.070808537368775,3.35776Q10.928568537368776,4.21552,10.928568537368776,5.428570000000001L11.928568537368776,5.428570000000001Q11.928568537368776,3.8013,10.777918537368773,2.650652Q9.627268537368774,1.5,7.999998537368775,1.5Q6.372728537368774,1.5,5.222080537368774,2.650652Z" fill-rule="evenodd" fill="#000000" fill-opacity="1"/></g><g transform="matrix(0,1,-1,0,16.857980251312256,0.8563055992126465)"><path d="M8.000837326049805,8.357142925262451L9.715127326049805,8.357142925262451Q9.764367326049804,8.357142925262451,9.812667326049805,8.366749925262452Q9.860967326049805,8.37635792526245,9.906467326049805,8.395202925262451Q9.951957326049804,8.41404892526245,9.992907326049805,8.441407925262451Q10.033857326049805,8.468767925262451,10.068677326049805,8.503589925262451Q10.103497326049805,8.538411925262452,10.130857326049805,8.579357925262451Q10.158217326049805,8.620303925262451,10.177067326049805,8.66580092526245Q10.195907326049804,8.711297925262452,10.205517326049804,8.759597825262452Q10.215127326049805,8.807897225262451,10.215127326049805,8.857142925262451Q10.215127326049805,8.906388625262451,10.205517326049804,8.95468802526245Q10.195907326049804,9.00298792526245,10.177067326049805,9.048484925262452Q10.158217326049805,9.093981925262451,10.130857326049805,9.134927925262451Q10.103497326049805,9.17587392526245,10.068677326049805,9.210695925262451Q10.033857326049805,9.245517925262451,9.992907326049805,9.272877925262451Q9.951957326049804,9.300236925262451,9.906467326049805,9.319082925262451Q9.860967326049805,9.337927925262452,9.812667326049805,9.34753592526245Q9.764367326049804,9.357142925262451,9.715127326049805,9.357142925262451L8.000837326049805,9.357142925262451Q7.9515916260498045,9.357142925262451,7.903292226049805,9.34753592526245Q7.854992326049805,9.337927925262452,7.809495326049805,9.319082925262451Q7.763998326049805,9.300236925262451,7.723052326049805,9.272877925262451Q7.682106326049805,9.245517925262451,7.647284326049805,9.210695925262451Q7.612462326049805,9.17587392526245,7.585102326049805,9.134927925262451Q7.557743326049804,9.093981925262451,7.5388973260498044,9.048484925262452Q7.520052326049805,9.00298792526245,7.510444326049805,8.95468802526245Q7.500837326049805,8.906388625262451,7.500837326049805,8.857142925262451Q7.500837326049805,8.807897225262451,7.510444326049805,8.759597825262452Q7.520052326049805,8.711297925262452,7.5388973260498044,8.66580092526245Q7.557743326049804,8.620303925262451,7.585102326049805,8.579357925262451Q7.612462326049805,8.538411925262452,7.647284326049805,8.503589925262451Q7.682106326049805,8.468767925262451,7.723052326049805,8.441407925262451Q7.763998326049805,8.41404892526245,7.809495326049805,8.395202925262451Q7.854992326049805,8.37635792526245,7.903292226049805,8.366749925262452Q7.9515916260498045,8.357142925262451,8.000837326049805,8.357142925262451Z" fill-rule="evenodd" fill="#151515" fill-opacity="1"/></g></g></g></svg>