<svg xmlns="http://www.w3.org/2000/svg" xmlns:xlink="http://www.w3.org/1999/xlink" fill="none" version="1.1" width="160" height="160" viewBox="0 0 160 160"><defs><linearGradient x1="0.5" y1="0" x2="0.5" y2="1" id="master_svg0_176_67074"><stop offset="0%" stop-color="#18E8FF" stop-opacity="1"/><stop offset="100%" stop-color="#1890FF" stop-opacity="1"/></linearGradient><clipPath id="master_svg1_464_40088"><rect x="52" y="33" width="56" height="56" rx="0"/></clipPath></defs><g><g><g><ellipse cx="80" cy="80" rx="80" ry="80" fill="url(#master_svg0_176_67074)" fill-opacity="1"/></g><g><path d="M39.392,114.744L48.416,114.744L48.416,116.424L39.392,116.424L39.392,114.744ZM39.392,111.6L48.416,111.6L48.416,113.232L39.392,113.232L39.392,111.6ZM37.136,110.064L37.136,117.96000000000001L50.768,117.96000000000001L50.768,110.064L37.136,110.064ZM33.632,119.28L33.632,121.29599999999999L54.44,121.29599999999999L54.44,119.28L33.632,119.28ZM42.8,99.735L42.8,102.624L33.32,102.624L33.32,104.616L40.496,104.616C38.504,106.70400000000001,35.552,108.55199999999999,32.744,109.488C33.224,109.944,33.872,110.76,34.208,111.312C37.4,110.03999999999999,40.64,107.688,42.8,104.952L42.8,109.32L45.056,109.32L45.056,104.952C47.263999999999996,107.616,50.528,109.92,53.744,111.12C54.08,110.544,54.751999999999995,109.70400000000001,55.232,109.27199999999999C52.328,108.36,49.328,106.632,47.336,104.616L54.704,104.616L54.704,102.624L45.056,102.624L45.056,99.735L42.8,99.735ZM64.352,115.008L74.048,115.008L74.048,116.424L64.352,116.424L64.352,115.008ZM64.352,113.52L64.352,112.152L74.048,112.152L74.048,113.52L64.352,113.52ZM64.352,117.912L74.048,117.912L74.048,119.4L64.352,119.4L64.352,117.912ZM75.72800000000001,99.888C71.792,100.608,64.664,100.944,58.784,100.968C58.976,101.424,59.192,102.19200000000001,59.216,102.696C61.208,102.696,63.344,102.648,65.50399999999999,102.576L65.096,103.968L59.072,103.968L59.072,105.72L64.44800000000001,105.72C64.256,106.2,64.03999999999999,106.68,63.824,107.16L57.367999999999995,107.16L57.367999999999995,109.008L62.816,109.008C61.328,111.432,59.336,113.568,56.696,115.032C57.152,115.488,57.8,116.304,58.111999999999995,116.832C59.647999999999996,115.92,60.992000000000004,114.816,62.168,113.568L62.168,122.088L64.352,122.088L64.352,121.152L74.048,121.152L74.048,122.088L76.304,122.088L76.304,110.4L64.592,110.4C64.88,109.944,65.144,109.488,65.408,109.008L78.632,109.008L78.632,107.16L66.32,107.16L66.92,105.72L77.288,105.72L77.288,103.968L67.544,103.968L68,102.456C71.384,102.264,74.624,101.976,77.12,101.52L75.72800000000001,99.888ZM95.432,114.672C94.75999999999999,115.8,93.896,116.712,92.768,117.432C91.256,117.048,89.672,116.688,88.112,116.352C88.544,115.848,89,115.27199999999999,89.456,114.672L95.432,114.672ZM84.392,117.432L84.464,117.456C86.384,117.84,88.256,118.27199999999999,90.032,118.72800000000001C87.8,119.47200000000001,84.944,119.856,81.416,120.048C81.77600000000001,120.576,82.16,121.392,82.304,122.03999999999999C87.00800000000001,121.656,90.608,120.96000000000001,93.27199999999999,119.544C96.176,120.36,98.72,121.152,100.616,121.872L102.632,120.21600000000001C100.712,119.568,98.192,118.824,95.408,118.104C96.488,117.168,97.328,116.03999999999999,97.952,114.672L102.944,114.672L102.944,112.752L90.824,112.752C91.208,112.176,91.568,111.6,91.856,111.024L93.08,111.024L93.08,106.824C95.312,109.032,98.6,110.88,101.72,111.816C102.056,111.24,102.704,110.376,103.184,109.944C100.496,109.29599999999999,97.664,108.048,95.648,106.536L102.608,106.536L102.608,104.616L93.08,104.616L93.08,102.384C95.768,102.144,98.312,101.80799999999999,100.352,101.352L98.696,99.768C95.12,100.56,88.52000000000001,100.992,83.024,101.112C83.24000000000001,101.568,83.456,102.384,83.50399999999999,102.864C85.832,102.84,88.352,102.744,90.824,102.576L90.824,104.616L81.344,104.616L81.344,106.536L88.328,106.536C86.312,108.144,83.432,109.464,80.744,110.16C81.2,110.592,81.824,111.408,82.136,111.936C85.28,110.976,88.592,109.08,90.824,106.824L90.824,110.664L89.624,110.352C89.21600000000001,111.12,88.712,111.936,88.16,112.752L81.08,112.752L81.08,114.672L86.744,114.672C86.024,115.608,85.28,116.496,84.584,117.21600000000001L84.344,117.432L84.392,117.432ZM113.576,110.352L113.936,112.512L118.472,111.816L118.472,118.224C118.472,120.864,119.072,121.632,121.304,121.632C121.736,121.632,123.824,121.632,124.28,121.632C126.344,121.632,126.896,120.36,127.136,116.64C126.512,116.496,125.6,116.088,125.072,115.68C124.952,118.752,124.856,119.496,124.088,119.496C123.656,119.496,121.976,119.496,121.64,119.496C120.872,119.496,120.752,119.304,120.752,118.248L120.752,111.456L127.04,110.496L126.704,108.408L120.752,109.29599999999999L120.752,103.224C122.504,102.792,124.16,102.312,125.528,101.736L123.584,100.008C121.304,101.064,117.248,102,113.624,102.55199999999999C113.912,103.032,114.248,103.896,114.344,104.4C115.664,104.208,117.08,103.992,118.472,103.70400000000001L118.472,109.632L113.576,110.352ZM108.128,99.744L108.128,104.472L105.008,104.472L105.008,106.584L108.128,106.584L108.128,111.408C106.856,111.72,105.68,112.008,104.72,112.224L105.344,114.408L108.128,113.64L108.128,119.328C108.128,119.664,107.984,119.76,107.672,119.78399999999999C107.36,119.78399999999999,106.328,119.78399999999999,105.272,119.76C105.56,120.336,105.872,121.248,105.944,121.824C107.6,121.824,108.68,121.776,109.376,121.416C110.096,121.08,110.36,120.504,110.36,119.328L110.36,113.01599999999999L113.384,112.152L113.096,110.064L110.36,110.80799999999999L110.36,106.584L113.216,106.584L113.216,104.472L110.36,104.472L110.36,99.744L108.128,99.744Z" fill="#FFFFFF" fill-opacity="1"/></g></g><g clip-path="url(#master_svg1_464_40088)"><g><path d="M95.8642,85.2981359375C95.2567,85.2981359375,94.8923,85.0551359375,93.3129,83.8402359375C92.4624,83.2327359375,90.7616,81.8963359375,90.1541,81.6533359375L88.45320000000001,81.6533359375C69.0146,82.0178359375,68.7716,81.7748359375,68.1641,81.2889359375C67.9211,81.1674359375,66.3418,79.8310359375,64.6409,78.4946359375C53.09918,69.5042259375,52.491722,68.7752759375,52.248739,68.1678159375C51.884264,67.0743959375,51.884264,65.8594759375,52.491722,64.8875459375C53.22067,63.7941259375,54.55708,63.3081559375,56.62243,63.3081559375C59.41674,63.3081559375,62.94,66.1024659375,65.7343,68.2893059375C66.7062,69.1397459375,68.1641,70.2331759375,68.6501,70.3546659375L79.9488,70.3546659375C80.3133,70.2331759375,80.6778,69.9901959375,80.9207,69.7472059375L79.4628,69.5042259375C78.00489999999999,69.26124593750001,76.6685,69.1397459375,75.9396,69.0182559375C73.8742,68.6537859375,72.1734,66.7099159375,72.1734,64.8875459375C72.1734,63.0651759375,73.3883,60.7568359375,76.6685,60.7568359375L87.6028,60.7568359375C91.85499999999999,60.7568359375,95.98570000000001,62.2147359375,99.26599999999999,65.0090359375C108.0133,72.4200359375,108.0133,72.90603593750001,108.0133,73.6349359375C108.0133,73.9994359375,107.89189999999999,74.3639359375,107.6489,74.7283359375C107.4059,74.9713359375,104.73310000000001,77.5226359375,102.18180000000001,80.0740359375C96.59309999999999,85.2981359375,96.4717,85.2981359375,95.8642,85.2981359375Z" fill="#FFFFFF" fill-opacity="1" style="mix-blend-mode:passthrough"/></g><g><path d="M58.5659303125,67.43954843750001C57.472511312500004,67.43954843750001,56.6220703125,66.5890484375,56.6220703125,65.4956484375L56.6220703125,42.6552384375C56.622070846558,39.3749584375,59.2948803125,36.7021484375,62.5751503125,36.7021484375L86.02297031250001,36.7021484375C89.30327031249999,36.7021484375,91.9760703125,39.3749584375,91.9760703125,42.6552384375L91.9760703125,61.4864484375C91.9760703125,62.579848437500004,91.1256703125,63.4302484375,90.0322703125,63.4302484375C88.9387703125,63.4302484375,88.0883703125,62.579848437500004,88.0883703125,61.4864484375L88.0883703125,42.6552384375C88.0883703125,41.5618084375,87.2379703125,40.7113684375,86.1444703125,40.7113684375L62.5751503125,40.7113684375C61.4817303125,40.7113684375,60.6312903125,41.5618084375,60.6312903125,42.6552384375L60.6312903125,65.4956484375C60.6312903125,66.5890484375,59.6593603125,67.43954843750001,58.5659303125,67.43954843750001Z" fill="#FFFFFF" fill-opacity="1" style="mix-blend-mode:passthrough"/></g><g><path d="M82.2577375,50.5517925L66.3422975,50.5517925C65.2488775,50.5517925,64.3984375,49.7013525,64.3984375,48.6079225C64.3984375,47.5145025,65.2488785,46.6640625,66.3422975,46.6640625L82.2577375,46.6640625C83.3511375,46.6640625,84.2015375,47.514503500000004,84.2015375,48.6079225C84.3230375,49.5798625,83.3511375,50.5517925,82.2577375,50.5517925Z" fill="#FFFFFF" fill-opacity="1" style="mix-blend-mode:passthrough"/></g></g></g></svg>