<svg xmlns="http://www.w3.org/2000/svg" xmlns:xlink="http://www.w3.org/1999/xlink" fill="none" version="1.1" width="88" height="88" viewBox="0 0 88 88"><defs><filter id="master_svg0_398_43305" filterUnits="objectBoundingBox" color-interpolation-filters="sRGB" x="0" y="0" width="1" height="1"><feFlood flood-opacity="0" result="BackgroundImageFix"/><feBlend mode="normal" in="SourceGraphic" in2="BackgroundImageFix" result="shape"/><feColorMatrix in="SourceAlpha" type="matrix" result="hardAlpha" values="0 0 0 0 0 0 0 0 0 0 0 0 0 0 0 0 0 0 127 0"/><feOffset dy="0" dx="0"/><feGaussianBlur stdDeviation="1"/><feComposite in2="hardAlpha" operator="arithmetic" k2="-1" k3="1"/><feColorMatrix type="matrix" values="0 0 0 0 1 0 0 0 0 1 0 0 0 0 1 0 0 0 1 0"/><feBlend mode="normal" in2="shape" result="effect1_innerShadow"/><feGaussianBlur in="BackgroundImageFix" stdDeviation="2"/><feComposite in2="SourceAlpha" operator="in" result="effect2_foregroundBlur"/><feBlend mode="normal" in="SourceGraphic" in2="effect2_foregroundBlur" result="shape"/></filter></defs><g><g></g><g><g><path d="M27.92681744293213,9.200000762939453L68.44572744293214,9.200000762939453C72.15992744293213,9.200000762939453,75.19922744293213,12.249300762939454,75.20002744293214,15.974680762939453L75.20002744293214,66.78590076293946C75.20002744293214,68.81850076293945,73.51162744293214,70.17360076293946,71.82322744293214,70.17360076293946C71.48582744293213,70.17360076293946,70.81032744293213,70.17360076293946,69.79752744293214,69.83440076293945L49.20022744293213,59.67210076293945C48.86212744293213,59.33290076293945,48.18662744293213,59.33290076293945,47.84922744293213,59.33290076293945C47.51112744293213,59.33290076293945,46.83562744293213,59.33290076293945,46.498227442932134,59.67210076293945L25.90104744293213,69.83440076293945C25.56366744293213,70.17360076293946,24.88816744293213,70.17360076293946,24.55078744293213,70.17360076293946C22.862407442932128,70.17360076293946,21.17402744293213,68.81850076293945,21.17402744293213,66.78590076293946L21.17402744293213,15.974680762939453C21.17402744293213,12.248570762939453,24.21266744293213,9.200000762939453,27.92681744293213,9.200000762939453Z" fill-rule="evenodd" fill="#0066EC" fill-opacity="1"/></g><g filter="url(#master_svg0_398_43305)"><path d="M19.552790190734864,17.826412200927734L60.071700190734866,17.826412200927734C63.785900190734864,17.826412200927734,66.82520019073486,20.875712200927733,66.82600019073487,24.601092200927734L66.82600019073487,75.41231220092774C66.82600019073487,77.44491220092773,65.13760019073487,78.80001220092774,63.449200190734864,78.80001220092774C63.11180019073486,78.80001220092774,62.43630019073486,78.80001220092774,61.42350019073486,78.46081220092773L40.826200190734866,68.29851220092773C40.48810019073486,67.95931220092774,39.81260019073486,67.95931220092774,39.47520019073487,67.95931220092774C39.13710019073486,67.95931220092774,38.46160019073486,67.95931220092774,38.12420019073487,68.29851220092773L17.527020190734863,78.46081220092773C17.189640190734863,78.80001220092774,16.514140190734864,78.80001220092774,16.176760190734864,78.80001220092774C14.488380190734864,78.80001220092774,12.800000190734863,77.44491220092773,12.800000190734863,75.41231220092774L12.800000190734863,24.601092200927734C12.800000190734863,20.874982200927732,15.838640190734864,17.826412200927734,19.552790190734864,17.826412200927734Z" fill-rule="evenodd" fill="#FFFFFF" fill-opacity="0.10000000149011612"/><path d="M17.527020190734863,78.46081220092773L38.12420019073487,68.29851220092773C38.46160019073486,67.95931220092774,39.13710019073486,67.95931220092774,39.47520019073487,67.95931220092774C39.81260019073486,67.95931220092774,40.48810019073486,67.95931220092774,40.826200190734866,68.29851220092773L61.42350019073486,78.46081220092773C62.43630019073486,78.80001220092774,63.11180019073486,78.80001220092774,63.449200190734864,78.80001220092774C65.13760019073487,78.80001220092774,66.82600019073487,77.44491220092773,66.82600019073487,75.41231220092774L66.82600019073487,24.601092200927734C66.82520019073486,20.875712200927733,63.785900190734864,17.826412200927734,60.071700190734866,17.826412200927734L19.552790190734864,17.826412200927734C15.838640190734864,17.826412200927734,12.800000190734863,20.874982200927732,12.800000190734863,24.601092200927734L12.800000190734863,75.41231220092774C12.800000190734863,77.44491220092773,14.488380190734864,78.80001220092774,16.176760190734864,78.80001220092774C16.514140190734864,78.80001220092774,17.189640190734863,78.80001220092774,17.527020190734863,78.46081220092773ZM61.613800190734864,77.99721220092773Q62.53350019073486,78.30001220092774,63.449200190734864,78.30001220092774Q64.57830019073486,78.30001220092774,65.42900019073485,77.50341220092773Q66.32600019073487,76.66351220092773,66.32600019073487,75.41231220092774L66.32600019073487,24.601192200927734Q66.32550019073486,22.013642200927734,64.48730019073486,20.169742200927736Q62.649600190734866,18.326412200927734,60.071700190734866,18.326412200927734L19.552790190734864,18.326411200927733Q16.97478019073486,18.326411200927733,15.137720190734864,20.169442200927733Q13.300000190734863,22.013122200927732,13.300000190734863,24.601092200927734L13.300000190734863,75.41231220092774Q13.300000190734863,76.66351220092773,14.196990190734864,77.50341220092773Q15.047720190734864,78.30001220092774,16.176760190734864,78.30001220092774Q16.981780190734863,78.30001220092774,17.172550190734864,78.10821220092774L17.231210190734863,78.04931220092774L37.83980019073486,67.88131220092774Q38.337700190734864,67.45931220092774,39.47520019073487,67.45931220092774Q40.612100190734864,67.45931220092774,41.11050019073487,67.88121220092773L61.613800190734864,77.99721220092773Z" fill-rule="evenodd" fill="#FFFFFF" fill-opacity="0.5"/></g><g><rect x="25.361040115356445" y="26.22722053527832" width="27.913421630859375" height="8.400805473327637" rx="4.200402736663818" fill="#FFFFFF" fill-opacity="1"/></g><g><rect x="25.361040115356445" y="40.22856330871582" width="27.913421630859375" height="8.400805473327637" rx="4.200402736663818" fill="#FFFFFF" fill-opacity="1"/></g></g></g></svg>