<svg xmlns="http://www.w3.org/2000/svg" xmlns:xlink="http://www.w3.org/1999/xlink" fill="none" version="1.1" width="88" height="88" viewBox="0 0 88 88"><defs><filter id="master_svg0_398_43449" filterUnits="objectBoundingBox" color-interpolation-filters="sRGB" x="0" y="0" width="1" height="1"><feFlood flood-opacity="0" result="BackgroundImageFix"/><feBlend mode="normal" in="SourceGraphic" in2="BackgroundImageFix" result="shape"/><feColorMatrix in="SourceAlpha" type="matrix" result="hardAlpha" values="0 0 0 0 0 0 0 0 0 0 0 0 0 0 0 0 0 0 127 0"/><feOffset dy="0" dx="0"/><feGaussianBlur stdDeviation="1"/><feComposite in2="hardAlpha" operator="arithmetic" k2="-1" k3="1"/><feColorMatrix type="matrix" values="0 0 0 0 1 0 0 0 0 1 0 0 0 0 1 0 0 0 1 0"/><feBlend mode="normal" in2="shape" result="effect1_innerShadow"/><feGaussianBlur in="BackgroundImageFix" stdDeviation="2"/><feComposite in2="SourceAlpha" operator="in" result="effect2_foregroundBlur"/><feBlend mode="normal" in="SourceGraphic" in2="effect2_foregroundBlur" result="shape"/></filter></defs><g><g></g><g><g><path d="M12.37923,39.134100000000004C9.660557,38.801100000000005,9.100466,35.2061,11.59559,34.1042L70.158,8.241916C72.14789999999999,7.363127,74.3358,9.01344,73.95689999999999,11.10743L63.5147,68.814C63.0696,71.2736,59.6906,71.8164,58.4565,69.6267L47.3065,49.8432C46.8191,48.9784,46.791,47.9285,47.2315,47.039L53.4726,34.435199999999995L41.8879,42.033C41.2945,42.4222,40.582300000000004,42.5884,39.8779,42.5022L12.37923,39.134100000000004Z" fill-rule="evenodd" fill="#0066EC" fill-opacity="1"/></g><g filter="url(#master_svg0_398_43449)"><path d="M16.37923,47.1225C13.660557,46.778999999999996,13.100466,43.0697,15.59559,41.932900000000004L74.158,15.249596C76.14789999999999,14.342908,78.3358,16.04561,77.95689999999999,18.20608L67.5147,77.74459999999999C67.06960000000001,80.2823,63.6906,80.8424,62.4565,78.5831L50.5274,56.7454L57.4726,42.2744L44.968900000000005,50.7353L16.37923,47.1225Z" fill-rule="evenodd" fill="#FFFFFF" fill-opacity="0.10000000149011612"/><path d="M50.5274,56.7454L57.0435,43.1685L57.4726,42.2744L56.6512,42.830200000000005L44.968900000000005,50.7353L16.37923,47.1225C13.660557,46.778999999999996,13.100466,43.0697,15.59559,41.932900000000004L74.158,15.249596C76.14789999999999,14.342908,78.3358,16.04561,77.95689999999999,18.20608L67.5147,77.74459999999999C67.06960000000001,80.2823,63.6906,80.8424,62.4565,78.5831L50.5274,56.7454ZM16.44191,46.6265L44.8447,50.2157L58.723,40.8245L51.0891,56.7306L62.8952,78.3434Q63.6507,79.7262,65.1997,79.4694Q66.7496,79.2125,67.0222,77.6582L77.4644,18.1197Q77.69659999999999,16.7956,76.6387,15.97224Q75.5823,15.150102,74.36529999999999,15.704592L15.80291,42.3879Q15.06734,42.723,14.730515,43.3982Q14.417261,44.0262,14.526632,44.7505Q14.635972,45.474599999999995,15.12028,45.981Q15.64092,46.5252,16.44191,46.6265Z" fill-rule="evenodd" fill="#FFFFFF" fill-opacity="0.5"/></g><g transform="matrix(-0.18464893102645874,0.982804536819458,-0.982804536819458,-0.18464893102645874,128.72563482876285,-9.640593224205077)"><rect x="68.36181640625" y="48.576171875" width="12.427242279052734" height="3.1206769943237305" rx="1.5603384971618652" fill="#FFFFFF" fill-opacity="1"/></g></g></g></svg>