<svg xmlns="http://www.w3.org/2000/svg" xmlns:xlink="http://www.w3.org/1999/xlink" fill="none" version="1.1" width="88" height="88" viewBox="0 0 88 88"><defs><filter id="master_svg0_398_43620" filterUnits="objectBoundingBox" color-interpolation-filters="sRGB" x="0" y="0" width="1" height="1"><feFlood flood-opacity="0" result="BackgroundImageFix"/><feBlend mode="normal" in="SourceGraphic" in2="BackgroundImageFix" result="shape"/><feColorMatrix in="SourceAlpha" type="matrix" result="hardAlpha" values="0 0 0 0 0 0 0 0 0 0 0 0 0 0 0 0 0 0 127 0"/><feOffset dy="0" dx="0"/><feGaussianBlur stdDeviation="1"/><feComposite in2="hardAlpha" operator="arithmetic" k2="-1" k3="1"/><feColorMatrix type="matrix" values="0 0 0 0 1 0 0 0 0 1 0 0 0 0 1 0 0 0 1 0"/><feBlend mode="normal" in2="shape" result="effect1_innerShadow"/><feGaussianBlur in="BackgroundImageFix" stdDeviation="2"/><feComposite in2="SourceAlpha" operator="in" result="effect2_foregroundBlur"/><feBlend mode="normal" in="SourceGraphic" in2="effect2_foregroundBlur" result="shape"/></filter></defs><g><g></g><g><g><path d="M69.9322,41.3988C69.9322,24.3373,56.0648,10.5,38.9661,10.5C21.8674,10.5,8,24.3373,8,41.3988C8,58.4603,21.8674,72.2976,38.9661,72.2976C45.5632,72.2976,51.6218,70.2825,56.6033,66.78960000000001L63.4034,73.5749C64.1841,74.35390000000001,65.44800000000001,74.35390000000001,66.2287,73.5749L67.167,72.6387C67.95009999999999,71.85730000000001,67.95009999999999,70.5886,67.167,69.8072L60.777,63.431C66.4317,57.6543,69.9322,49.9968,69.9322,41.3988Z" fill="#0066EC" fill-opacity="1"/></g><g filter="url(#master_svg0_398_43620)"><path d="M79.999995753479,43.91429458503723C79.999995753479,26.85279458503723,66.132595753479,13.015494585037231,49.033895753479,13.015494585037231C31.935195753479004,13.015494585037231,18.067795753479004,26.85279458503723,18.067795753479004,43.91429458503723C18.067795753479004,60.97579458503723,31.935195753479004,74.81309458503723,49.033895753479,74.81309458503723C55.630995753479006,74.81309458503723,61.689595753479004,72.79799458503723,66.671095753479,69.30509458503724L73.47119575347901,76.09039458503723C74.251895753479,76.86939458503724,75.51579575347901,76.86939458503724,76.29649575347901,76.09039458503723L77.234795753479,75.15419458503723C78.017895753479,74.37279458503724,78.017895753479,73.10409458503723,77.234795753479,72.32269458503723L70.844795753479,65.94649458503723C76.49949575347901,60.16979458503723,79.999995753479,52.51229458503723,79.999995753479,43.91429458503723Z" fill="#FFFFFF" fill-opacity="0.10000000149011612"/><path d="M71.196095753479,65.94379458503724Q75.44889575347901,61.53829458503723,77.772895753479,56.08639458503723Q80.249895753479,50.27529458503723,80.249995753479,43.91429458503723Q80.249895753479,37.57859458503723,77.796195753479,31.790994585037232Q75.426395753479,26.20139458503723,71.105495753479,21.88986458503723Q66.784795753479,17.578544585037232,61.183095753479,15.213834585037231Q55.383095753479004,12.765489585037232,49.033895753479,12.765491585037232Q42.684595753479,12.765494585037231,36.88469575347901,15.213834585037231Q31.282995753479003,17.578524585037233,26.962255753479006,21.88986458503723Q22.641505753479002,26.201294585037232,20.271575753479006,31.790994585037232Q17.817795753479004,37.578494585037234,17.817792753479004,43.91429458503723Q17.817795753479004,50.25009458503723,20.271575753479006,56.03769458503723Q22.641445753479005,61.62739458503723,26.962255753479006,65.93879458503723Q31.283095753479003,70.25019458503724,36.88469575347901,72.61479458503723Q42.684695753479005,75.06319458503722,49.033895753479,75.06309458503723Q58.787595753479,75.06299458503723,66.64249575347901,69.62969458503723L73.294595753479,76.26739458503724Q73.95329575347901,76.92459458503723,74.88389575347901,76.92459458503723Q75.814395753479,76.92469458503723,76.473095753479,76.26739458503724L77.41139575347901,75.33109458503723Q78.072095753479,74.67179458503723,78.072095753479,73.73839458503724Q78.072095753479,72.80499458503724,77.41139575347901,72.14569458503723L71.196095753479,65.94379458503724ZM77.31289575347901,55.89029458503723Q74.97889575347901,61.36579458503723,70.666095753479,65.77159458503723L70.492895753479,65.94859458503723L77.058195753479,72.49959458503723Q77.572095753479,73.01239458503723,77.572095753479,73.73839458503724Q77.572095753479,74.46439458503724,77.058195753479,74.97719458503724L76.119995753479,75.91339458503722Q75.607595753479,76.42459458503723,74.88389575347901,76.42459458503723Q74.160095753479,76.42459458503723,73.647795753479,75.91339458503722L66.699295753479,68.97999458503723L66.527595753479,69.10039458503724Q58.736795753479,74.56299458503723,49.033895753479,74.56309458503723Q42.785995753479,74.56299458503723,37.079195753479,72.15419458503723Q31.567295753479,69.82739458503724,27.315425753479005,65.58479458503723Q23.063705753479006,61.34229458503723,20.731915753479004,55.84249458503723Q18.317795753479004,50.14859458503723,18.317792753479004,43.91429458503723Q18.317795753479004,37.68009458503723,20.731915753479004,31.986094585037232Q23.063745753479004,26.486294585037232,27.315425753479005,22.243804585037232Q31.567195753479005,18.00127458503723,37.079195753479,15.674474585037231Q42.785895753479004,13.265494585037231,49.033895753479,13.265491585037232Q55.281995753479,13.265494585037231,60.988595753479004,15.674474585037231Q66.500695753479,18.001294585037233,70.75239575347901,22.243804585037232Q75.004095753479,26.48639458503723,77.33589575347901,31.986094585037232Q79.749895753479,37.68019458503723,79.749995753479,43.91429458503723Q79.749895753479,50.173094585037234,77.31289575347901,55.89029458503723Z" fill-rule="evenodd" fill="#FFFFFF" fill-opacity="0.5"/></g><g><path d="M66.91621455688477,45.93945668029785L60.992314556884764,45.93945668029785C59.91521455688476,45.93945668029785,58.83811455688476,45.26775668029785,58.43421455688477,44.192956680297854L56.95321455688477,40.16271668029785L51.29851455688477,52.656556680297854C50.89461455688476,53.59695668029785,49.95221455688477,54.26865668029785,48.87511455688477,54.26865668029785C47.798014556884766,54.26865668029785,46.85561455688477,53.59695668029785,46.45171455688477,52.656556680297854L42.81651455688477,44.86475668029785L40.93163455688477,49.566656680297854C40.52772455688476,50.64145668029785,39.585284556884766,51.31315668029785,38.373564556884766,51.31315668029785L31.911075765784766,51.31315668029785L31.911075765784766,45.93945668029785L36.62330455688477,45.93945668029785L40.12382455688476,37.20717668029785C40.52772455688476,36.26677668029785,41.470174556884764,35.595066680297855,42.54721455688477,35.46071668029785C43.62431455688477,35.46071668029785,44.566814556884765,35.99809668029785,45.105314556884764,37.07282668029785L48.87511455688477,45.26775668029785L54.664414556884765,32.236496680297854C55.068314556884765,31.296095680297853,56.14541455688477,30.62438249629785,57.22251455688476,30.62438249629785C58.29961455688476,30.62438249629785,59.24201455688477,31.296094680297852,59.64591455688476,32.37083668029785L62.877214556884766,40.70005668029785L66.91621455688477,40.70005668029785L66.91621455688477,45.93945668029785Z" fill="#FFFFFF" fill-opacity="1"/></g></g></g></svg>