<svg xmlns="http://www.w3.org/2000/svg" xmlns:xlink="http://www.w3.org/1999/xlink" fill="none" version="1.1" width="88" height="88" viewBox="0 0 88 88"><defs><filter id="master_svg0_398_43688" filterUnits="objectBoundingBox" color-interpolation-filters="sRGB" x="0" y="0" width="1" height="1"><feFlood flood-opacity="0" result="BackgroundImageFix"/><feBlend mode="normal" in="SourceGraphic" in2="BackgroundImageFix" result="shape"/><feColorMatrix in="SourceAlpha" type="matrix" result="hardAlpha" values="0 0 0 0 0 0 0 0 0 0 0 0 0 0 0 0 0 0 127 0"/><feOffset dy="0" dx="0"/><feGaussianBlur stdDeviation="1"/><feComposite in2="hardAlpha" operator="arithmetic" k2="-1" k3="1"/><feColorMatrix type="matrix" values="0 0 0 0 1 0 0 0 0 1 0 0 0 0 1 0 0 0 1 0"/><feBlend mode="normal" in2="shape" result="effect1_innerShadow"/><feGaussianBlur in="BackgroundImageFix" stdDeviation="2"/><feComposite in2="SourceAlpha" operator="in" result="effect2_foregroundBlur"/><feBlend mode="normal" in="SourceGraphic" in2="effect2_foregroundBlur" result="shape"/></filter></defs><g><g></g><g><g><path d="M13,64.0299L13,15Q13,14.87726,13.00602272,14.754660000000001Q13.0120454,14.632069999999999,13.0240764,14.50991Q13.0361073,14.38776,13.0541174,14.26635Q13.0721276,14.144929999999999,13.0960736,14.02455Q13.12002,13.904160000000001,13.149844,13.7851Q13.179668,13.66603,13.215298,13.54858Q13.250929,13.43112,13.29228,13.31555Q13.333631,13.19998,13.380602,13.08658Q13.427574,12.97318,13.480053,12.86222Q13.532533,12.75127,13.590394,12.64302Q13.648254,12.53477,13.711357,12.42949Q13.774459,12.32421,13.842652,12.22215Q13.910844,12.12009,13.983962,12.0215Q14.05708,11.92291,14.13495,11.82803Q14.21282,11.73315,14.29524,11.6422Q14.37767,11.55126,14.46447,11.46447Q14.55126,11.37767,14.6422,11.29524Q14.73315,11.21282,14.82803,11.13495Q14.92291,11.05708,15.0215,10.983962Q15.12009,10.910844,15.22215,10.842652Q15.32421,10.774459,15.42949,10.711357Q15.53477,10.648254,15.64302,10.590394Q15.75127,10.532533,15.86222,10.480053Q15.97318,10.427574,16.08658,10.380602Q16.19998,10.333631,16.31555,10.29228Q16.43112,10.250929,16.54858,10.215298Q16.66603,10.179668,16.7851,10.149844Q16.90416,10.12002,17.024549999999998,10.0960736Q17.14493,10.0721276,17.26635,10.0541174Q17.38776,10.0361073,17.509909999999998,10.0240764Q17.63207,10.0120454,17.75466,10.00602272Q17.87726,10,18,10L58.7536,10Q58.8763,10,58.9989,10.00602272Q59.1215,10.0120454,59.2436,10.0240764Q59.3658,10.0361073,59.4872,10.0541174Q59.6086,10.0721276,59.729,10.0960736Q59.8494,10.12002,59.9684,10.149844Q60.0875,10.179668,60.205,10.215298Q60.3224,10.250929,60.438,10.29228Q60.5536,10.333631,60.667,10.380602Q60.7804,10.427574,60.8913,10.480053Q61.0023,10.532533,61.1105,10.590394Q61.2188,10.648254,61.3241,10.711357Q61.4293,10.774459,61.5314,10.842652Q61.6335,10.910844,61.732,10.983962Q61.8306,11.05708,61.9255,11.13495Q62.0204,11.21282,62.1113,11.29524Q62.2023,11.37767,62.2891,11.46447Q62.3759,11.55126,62.4583,11.6422Q62.5407,11.73315,62.6186,11.82803Q62.6965,11.92291,62.7696,12.0215Q62.8427,12.12009,62.9109,12.22215Q62.9791,12.32421,63.0422,12.42949Q63.1053,12.53477,63.1632,12.64302Q63.221,12.75127,63.2735,12.86222Q63.326,12.97318,63.3729,13.08658Q63.4199,13.19998,63.4613,13.31555Q63.5026,13.43112,63.5383,13.54858Q63.5739,13.66603,63.6037,13.7851Q63.6335,13.904160000000001,63.6575,14.02455Q63.6814,14.144929999999999,63.6994,14.26635Q63.7174,14.38776,63.7295,14.50991Q63.7415,14.632069999999999,63.7475,14.754660000000001Q63.7536,14.87726,63.7536,15L63.7536,64.0299Q63.7536,64.1526,63.7475,64.2752Q63.7415,64.39779999999999,63.7295,64.52000000000001Q63.7174,64.6421,63.6994,64.7635Q63.6814,64.8849,63.6575,65.0053Q63.6335,65.1257,63.6037,65.2448Q63.5739,65.3638,63.5382,65.4813Q63.5026,65.5988,63.4613,65.71430000000001Q63.4199,65.82990000000001,63.3729,65.9433Q63.326,66.0567,63.2735,66.1676Q63.221,66.2786,63.1632,66.3869Q63.1053,66.49510000000001,63.0422,66.60040000000001Q62.9791,66.70570000000001,62.9109,66.8077Q62.8427,66.90979999999999,62.7696,67.0084Q62.6965,67.107,62.6186,67.20179999999999Q62.5407,67.2967,62.4583,67.3877Q62.3759,67.4786,62.2891,67.5654Q62.2023,67.6522,62.1113,67.7346Q62.0204,67.81710000000001,61.9255,67.8949Q61.8306,67.9728,61.732,68.0459Q61.6335,68.119,61.5314,68.18719999999999Q61.4293,68.25540000000001,61.3241,68.3185Q61.2188,68.38159999999999,61.1105,68.43950000000001Q61.0023,68.4973,60.8913,68.5498Q60.7804,68.6023,60.667,68.6493Q60.5536,68.6962,60.438,68.7376Q60.3224,68.7789,60.205,68.8146Q60.0875,68.8502,59.9685,68.88Q59.8494,68.9099,59.729,68.93379999999999Q59.6086,68.95779999999999,59.4872,68.97579999999999Q59.3658,68.9938,59.2436,69.0058Q59.1215,69.0178,58.9989,69.0239Q58.8763,69.0299,58.7536,69.0299L18,69.0299Q17.87726,69.0299,17.75466,69.0239Q17.63207,69.0178,17.509909999999998,69.0058Q17.38776,68.9938,17.26635,68.97579999999999Q17.14493,68.95779999999999,17.024549999999998,68.93379999999999Q16.90416,68.9099,16.7851,68.88Q16.66603,68.8502,16.54858,68.8146Q16.43112,68.7789,16.31555,68.7376Q16.19998,68.6962,16.08658,68.6493Q15.97318,68.6023,15.86222,68.5498Q15.75127,68.4973,15.64302,68.43950000000001Q15.53477,68.38159999999999,15.42949,68.3185Q15.32421,68.25540000000001,15.22215,68.18719999999999Q15.12009,68.119,15.0215,68.0459Q14.92291,67.9728,14.82803,67.8949Q14.73315,67.81710000000001,14.6422,67.7346Q14.55126,67.6522,14.46447,67.5654Q14.37767,67.4786,14.29524,67.3877Q14.21282,67.2967,14.13495,67.20179999999999Q14.05708,67.107,13.983962,67.0084Q13.910844,66.90979999999999,13.842652,66.8077Q13.774459,66.70570000000001,13.711357,66.60040000000001Q13.648254,66.49510000000001,13.590394,66.3869Q13.532533,66.2786,13.480053,66.1676Q13.427574,66.0567,13.380602,65.9433Q13.333631,65.82990000000001,13.29228,65.71430000000001Q13.250929,65.5988,13.215298,65.4813Q13.179668,65.3638,13.149844,65.2448Q13.12002,65.1257,13.0960736,65.0053Q13.0721276,64.8849,13.0541174,64.7635Q13.0361073,64.6421,13.0240764,64.52000000000001Q13.0120454,64.39779999999999,13.00602272,64.2752Q13,64.1526,13,64.0299Z" fill="#0066EC" fill-opacity="1"/></g><g filter="url(#master_svg0_398_43688)"><path d="M24.246440887451172,73.00001566162109L24.246440887451172,23.970115661621094Q24.246440887451172,23.847375661621093,24.252463607451173,23.724775661621095Q24.258486287451174,23.602185661621093,24.27051728745117,23.48002566162109Q24.282548187451173,23.357875661621094,24.30055828745117,23.236465661621093Q24.318568487451174,23.115045661621092,24.342514487451172,22.99466566162109Q24.366460887451172,22.874275661621095,24.396284887451174,22.755215661621094Q24.42610888745117,22.636145661621093,24.461738887451173,22.518695661621095Q24.49736988745117,22.401235661621094,24.538720887451174,22.285665661621096Q24.580071887451172,22.170095661621094,24.62704288745117,22.056695661621095Q24.67401488745117,21.943295661621093,24.726493887451173,21.832335661621094Q24.778973887451173,21.721385661621092,24.83683488745117,21.613135661621094Q24.894694887451173,21.504885661621095,24.95779788745117,21.399605661621095Q25.020899887451172,21.294325661621095,25.089092887451173,21.192265661621093Q25.157284887451173,21.090205661621095,25.23040288745117,20.991615661621093Q25.30352088745117,20.893025661621095,25.381390887451172,20.798145661621092Q25.459260887451173,20.703265661621092,25.54168088745117,20.612315661621093Q25.62411088745117,20.521375661621093,25.71091088745117,20.434585661621092Q25.79770088745117,20.347785661621092,25.88864088745117,20.265355661621093Q25.97959088745117,20.182935661621094,26.07447088745117,20.105065661621094Q26.169350887451174,20.027195661621093,26.26794088745117,19.954077661621092Q26.366530887451173,19.880959661621095,26.46859088745117,19.812767661621095Q26.570650887451173,19.744574661621094,26.675930887451173,19.681472661621093Q26.781210887451174,19.618369661621095,26.889460887451172,19.560509661621094Q26.99771088745117,19.502648661621095,27.108660887451173,19.450168661621095Q27.21962088745117,19.397689661621094,27.333020887451173,19.350717661621093Q27.446420887451172,19.303746661621094,27.561990887451174,19.262395661621095Q27.677560887451172,19.221044661621093,27.795020887451173,19.185413661621094Q27.91247088745117,19.149783661621093,28.031540887451172,19.119959661621095Q28.150600887451173,19.090135661621094,28.27099088745117,19.066189261621094Q28.39137088745117,19.042243261621095,28.51279088745117,19.024233061621093Q28.634200887451172,19.006222961621095,28.75635088745117,18.994192061621092Q28.87851088745117,18.982161061621095,29.001100887451173,18.976138381621094Q29.12370088745117,18.970115661621094,29.246440887451172,18.970115661621094L70.00004088745118,18.970115661621094Q70.12274088745117,18.970115661621094,70.24534088745116,18.976138381621094Q70.36794088745117,18.982161061621095,70.49004088745117,18.994192061621092Q70.61224088745118,19.006222961621095,70.73364088745117,19.024233061621093Q70.85504088745117,19.042243261621095,70.97544088745117,19.066189261621094Q71.09584088745117,19.090135661621094,71.21484088745117,19.119959661621095Q71.33394088745118,19.149783661621093,71.45144088745117,19.185413661621094Q71.56884088745117,19.221044661621093,71.68444088745117,19.262395661621095Q71.80004088745117,19.303746661621094,71.91344088745117,19.350717661621093Q72.02684088745117,19.397689661621094,72.13774088745117,19.450168661621095Q72.24874088745116,19.502648661621095,72.35694088745117,19.560509661621094Q72.46524088745117,19.618369661621095,72.57054088745117,19.681472661621093Q72.67574088745117,19.744574661621094,72.77784088745116,19.812767661621095Q72.87994088745117,19.880959661621095,72.97844088745117,19.954077661621092Q73.07704088745118,20.027195661621093,73.17194088745117,20.105065661621094Q73.26684088745117,20.182935661621094,73.35774088745117,20.265355661621093Q73.44874088745118,20.347785661621092,73.53554088745116,20.434585661621092Q73.62234088745117,20.521375661621093,73.70474088745118,20.612315661621093Q73.78714088745117,20.703265661621092,73.86504088745117,20.798145661621092Q73.94294088745117,20.893025661621095,74.01604088745117,20.991615661621093Q74.08914088745118,21.090205661621095,74.15734088745117,21.192265661621093Q74.22554088745117,21.294325661621095,74.28864088745118,21.399605661621095Q74.35174088745117,21.504885661621095,74.40964088745118,21.613135661621094Q74.46744088745118,21.721385661621092,74.51994088745117,21.832335661621094Q74.57244088745117,21.943295661621093,74.61934088745117,22.056695661621095Q74.66634088745117,22.170095661621094,74.70774088745117,22.285665661621096Q74.74904088745117,22.401235661621094,74.78474088745116,22.518695661621095Q74.82034088745118,22.636145661621093,74.85014088745118,22.755215661621094Q74.87994088745117,22.874275661621095,74.90394088745117,22.99466566162109Q74.92784088745117,23.115045661621092,74.94584088745117,23.236465661621093Q74.96384088745117,23.357875661621094,74.97594088745117,23.48002566162109Q74.98794088745117,23.602185661621093,74.99394088745117,23.724775661621095Q75.00004088745118,23.847375661621093,75.00004088745118,23.970115661621094L75.00004088745118,73.00001566162109Q75.00004088745118,73.1227156616211,74.99394088745117,73.24531566162109Q74.98794088745117,73.36791566162108,74.97594088745117,73.4901156616211Q74.96384088745117,73.6122156616211,74.94584088745117,73.73361566162109Q74.92784088745117,73.8550156616211,74.90394088745117,73.9754156616211Q74.87994088745117,74.09581566162109,74.85014088745118,74.21491566162109Q74.82034088745118,74.33391566162109,74.78464088745118,74.4514156616211Q74.74904088745117,74.56891566162109,74.70774088745117,74.6844156616211Q74.66634088745117,74.8000156616211,74.61934088745117,74.91341566162109Q74.57244088745117,75.0268156616211,74.51994088745117,75.13771566162109Q74.46744088745118,75.24871566162109,74.40964088745118,75.35701566162109Q74.35174088745117,75.4652156616211,74.28864088745118,75.5705156616211Q74.22554088745117,75.6758156616211,74.15734088745117,75.77781566162109Q74.08914088745118,75.87991566162108,74.01604088745117,75.97851566162109Q73.94294088745117,76.0771156616211,73.86504088745117,76.17191566162109Q73.78714088745117,76.2668156616211,73.70474088745118,76.35781566162109Q73.62234088745117,76.4487156616211,73.53554088745116,76.53551566162109Q73.44874088745118,76.62231566162109,73.35774088745117,76.7047156616211Q73.26684088745117,76.7872156616211,73.17194088745117,76.8650156616211Q73.07704088745118,76.9429156616211,72.97844088745117,77.0160156616211Q72.87994088745117,77.0891156616211,72.77784088745116,77.15731566162108Q72.67574088745117,77.2255156616211,72.57054088745117,77.2886156616211Q72.46524088745117,77.35171566162109,72.35694088745117,77.4096156616211Q72.24874088745116,77.46741566162109,72.13774088745117,77.5199156616211Q72.02684088745117,77.5724156616211,71.91344088745117,77.61941566162109Q71.80004088745117,77.6663156616211,71.68444088745117,77.7077156616211Q71.56884088745117,77.74901566162109,71.45144088745117,77.78471566162109Q71.33394088745118,77.8203156616211,71.21494088745118,77.85011566162109Q71.09584088745117,77.88001566162109,70.97544088745117,77.90391566162108Q70.85504088745117,77.92791566162109,70.73364088745117,77.94591566162109Q70.61224088745118,77.96391566162109,70.49004088745117,77.97591566162109Q70.36794088745117,77.98791566162109,70.24534088745116,77.99401566162109Q70.12274088745117,78.00001566162109,70.00004088745118,78.00001566162109L29.246440887451172,78.00001566162109Q29.12370088745117,78.00001566162109,29.001100887451173,77.99401566162109Q28.87851088745117,77.98791566162109,28.75635088745117,77.97591566162109Q28.634200887451172,77.96391566162109,28.51279088745117,77.94591566162109Q28.39137088745117,77.92791566162109,28.27099088745117,77.90391566162108Q28.150600887451173,77.88001566162109,28.031540887451172,77.85011566162109Q27.91247088745117,77.8203156616211,27.795020887451173,77.78471566162109Q27.677560887451172,77.74901566162109,27.561990887451174,77.7077156616211Q27.446420887451172,77.6663156616211,27.333020887451173,77.61941566162109Q27.21962088745117,77.5724156616211,27.108660887451173,77.5199156616211Q26.99771088745117,77.46741566162109,26.889460887451172,77.4096156616211Q26.781210887451174,77.35171566162109,26.675930887451173,77.2886156616211Q26.570650887451173,77.2255156616211,26.46859088745117,77.15731566162108Q26.366530887451173,77.0891156616211,26.26794088745117,77.0160156616211Q26.169350887451174,76.9429156616211,26.07447088745117,76.8650156616211Q25.97959088745117,76.7872156616211,25.88864088745117,76.7047156616211Q25.79770088745117,76.62231566162109,25.71091088745117,76.53551566162109Q25.62411088745117,76.4487156616211,25.54168088745117,76.35781566162109Q25.459260887451173,76.2668156616211,25.381390887451172,76.17191566162109Q25.30352088745117,76.0771156616211,25.23040288745117,75.97851566162109Q25.157284887451173,75.87991566162108,25.089092887451173,75.77781566162109Q25.020899887451172,75.6758156616211,24.95779788745117,75.5705156616211Q24.894694887451173,75.4652156616211,24.83683488745117,75.35701566162109Q24.778973887451173,75.24871566162109,24.726493887451173,75.13771566162109Q24.67401488745117,75.0268156616211,24.62704288745117,74.91341566162109Q24.580071887451172,74.8000156616211,24.538720887451174,74.6844156616211Q24.49736988745117,74.56891566162109,24.461738887451173,74.4514156616211Q24.42610888745117,74.33391566162109,24.396284887451174,74.21491566162109Q24.366460887451172,74.09581566162109,24.342514487451172,73.9754156616211Q24.318568487451174,73.8550156616211,24.30055828745117,73.73361566162109Q24.282548187451173,73.6122156616211,24.27051728745117,73.4901156616211Q24.258486287451174,73.36791566162108,24.252463607451173,73.24531566162109Q24.246440887451172,73.1227156616211,24.246440887451172,73.00001566162109Z" fill="#FFFFFF" fill-opacity="0.10000000149011612"/><path d="M24.246440887451172,23.970115661621094L24.246440887451172,73.00001566162109Q24.246440887451172,73.1227156616211,24.252463607451173,73.24531566162109Q24.258486287451174,73.36791566162108,24.27051728745117,73.4901156616211Q24.282548187451173,73.6122156616211,24.30055828745117,73.73361566162109Q24.318568487451174,73.8550156616211,24.342514487451172,73.9754156616211Q24.366460887451172,74.09581566162109,24.396284887451174,74.21491566162109Q24.42610888745117,74.33391566162109,24.461738887451173,74.4514156616211Q24.49736988745117,74.56891566162109,24.538720887451174,74.6844156616211Q24.580071887451172,74.8000156616211,24.62704288745117,74.91341566162109Q24.67401488745117,75.0268156616211,24.726493887451173,75.13781566162109Q24.778973887451173,75.24871566162109,24.83683488745117,75.35701566162109Q24.894694887451173,75.4652156616211,24.95779788745117,75.5705156616211Q25.020899887451172,75.6758156616211,25.089092887451173,75.77781566162109Q25.157284887451173,75.87991566162108,25.23040288745117,75.97851566162109Q25.30352088745117,76.0771156616211,25.381390887451172,76.17201566162109Q25.459260887451173,76.2668156616211,25.54168088745117,76.35781566162109Q25.62411088745117,76.4487156616211,25.71091088745117,76.53551566162109Q25.79770088745117,76.62231566162109,25.88864088745117,76.7047156616211Q25.97959088745117,76.7872156616211,26.07447088745117,76.8650156616211Q26.169350887451174,76.9429156616211,26.26794088745117,77.0160156616211Q26.366530887451173,77.0891156616211,26.46859088745117,77.15731566162108Q26.570650887451173,77.2255156616211,26.675930887451173,77.2886156616211Q26.781210887451174,77.35171566162109,26.889460887451172,77.4096156616211Q26.99771088745117,77.46741566162109,27.108660887451173,77.5199156616211Q27.21962088745117,77.5724156616211,27.333020887451173,77.61941566162109Q27.446420887451172,77.6664156616211,27.561990887451174,77.7077156616211Q27.677560887451172,77.74911566162109,27.795020887451173,77.78471566162109Q27.91247088745117,77.8203156616211,28.031540887451172,77.85011566162109Q28.150600887451173,77.88001566162109,28.27099088745117,77.90391566162108Q28.39137088745117,77.92791566162109,28.51279088745117,77.94591566162109Q28.634200887451172,77.96391566162109,28.75635088745117,77.97591566162109Q28.87851088745117,77.98791566162109,29.001100887451173,77.99401566162109Q29.12370088745117,78.00001566162109,29.246440887451172,78.00001566162109L70.00004088745118,78.00001566162109Q70.12274088745117,78.00001566162109,70.24534088745116,77.99401566162109Q70.36794088745117,77.98791566162109,70.49004088745117,77.97591566162109Q70.61224088745118,77.96391566162109,70.73364088745117,77.94591566162109Q70.85504088745117,77.92791566162109,70.97544088745117,77.90391566162108Q71.09584088745117,77.88001566162109,71.21484088745117,77.85011566162109Q71.33394088745118,77.8203156616211,71.45144088745117,77.78471566162109Q71.56884088745117,77.74911566162109,71.68444088745117,77.7077156616211Q71.80004088745117,77.6664156616211,71.91344088745117,77.61941566162109Q72.02684088745117,77.5724156616211,72.13774088745117,77.5199156616211Q72.24874088745116,77.46741566162109,72.35694088745117,77.4096156616211Q72.46524088745117,77.35171566162109,72.57054088745117,77.2886156616211Q72.67574088745117,77.2255156616211,72.77784088745116,77.15731566162108Q72.87994088745117,77.0891156616211,72.97844088745117,77.0160156616211Q73.07704088745118,76.9429156616211,73.17194088745117,76.8650156616211Q73.26684088745117,76.7872156616211,73.35774088745117,76.7047156616211Q73.44874088745118,76.62231566162109,73.53554088745116,76.53551566162109Q73.62234088745117,76.4487156616211,73.70474088745118,76.35781566162109Q73.78714088745117,76.2668156616211,73.86504088745117,76.17201566162109Q73.94294088745117,76.0771156616211,74.01604088745117,75.97851566162109Q74.08914088745118,75.87991566162108,74.15734088745117,75.77781566162109Q74.22554088745117,75.6758156616211,74.28864088745118,75.5705156616211Q74.35174088745117,75.4652156616211,74.40964088745118,75.35701566162109Q74.46744088745118,75.24871566162109,74.51994088745117,75.13781566162109Q74.57244088745117,75.0268156616211,74.61934088745117,74.91341566162109Q74.66634088745117,74.8000156616211,74.70774088745117,74.6844156616211Q74.74904088745117,74.56891566162109,74.78474088745116,74.4514156616211Q74.82034088745118,74.33391566162109,74.85014088745118,74.21491566162109Q74.87994088745117,74.09581566162109,74.90394088745117,73.9754156616211Q74.92784088745117,73.85511566162108,74.94584088745117,73.73361566162109Q74.96384088745117,73.6122156616211,74.97594088745117,73.4901156616211Q74.98794088745117,73.36791566162108,74.99394088745117,73.24531566162109Q75.00004088745118,73.1227156616211,75.00004088745118,73.00001566162109L75.00004088745118,23.970115661621094Q75.00004088745118,23.847375661621093,74.99394088745117,23.724775661621095Q74.98794088745117,23.602185661621093,74.97594088745117,23.48002566162109Q74.96384088745117,23.357875661621094,74.94584088745117,23.236465661621093Q74.92784088745117,23.115045661621092,74.90394088745117,22.99466566162109Q74.87994088745117,22.874275661621095,74.85014088745118,22.755215661621094Q74.82034088745118,22.636145661621093,74.78464088745118,22.518695661621095Q74.74904088745117,22.401235661621094,74.70774088745117,22.285665661621096Q74.66634088745117,22.170095661621094,74.61934088745117,22.056695661621095Q74.57244088745117,21.943295661621093,74.51994088745117,21.832335661621094Q74.46744088745118,21.721385661621092,74.40964088745118,21.613135661621094Q74.35174088745117,21.504885661621095,74.28864088745118,21.399605661621095Q74.22554088745117,21.294325661621095,74.15734088745117,21.192265661621093Q74.08914088745118,21.090205661621095,74.01604088745117,20.991615661621093Q73.94294088745117,20.893025661621095,73.86504088745117,20.798145661621092Q73.78714088745117,20.703265661621092,73.70474088745118,20.612315661621093Q73.62234088745117,20.521375661621093,73.53554088745116,20.434585661621092Q73.44874088745118,20.347785661621092,73.35774088745117,20.265355661621093Q73.26684088745117,20.182935661621094,73.17194088745117,20.105065661621094Q73.07704088745118,20.027195661621093,72.97844088745117,19.954077661621092Q72.87994088745117,19.880959661621095,72.77784088745116,19.812767661621095Q72.67574088745117,19.744574661621094,72.57054088745117,19.681472661621093Q72.46524088745117,19.618369661621095,72.35694088745117,19.560509661621094Q72.24874088745116,19.502648661621095,72.13774088745117,19.450168661621095Q72.02684088745117,19.397689661621094,71.91344088745117,19.350717661621093Q71.80004088745117,19.303746661621094,71.68444088745117,19.262395661621095Q71.56884088745117,19.221044661621093,71.45144088745117,19.185413661621094Q71.33394088745118,19.149783661621093,71.21494088745118,19.119959661621095Q71.09584088745117,19.090135661621094,70.97544088745117,19.066189261621094Q70.85504088745117,19.042243261621095,70.73364088745117,19.024233061621093Q70.61224088745118,19.006222961621095,70.49004088745117,18.994192061621092Q70.36794088745117,18.982161061621095,70.24534088745116,18.976138381621094Q70.12274088745117,18.970115661621094,70.00004088745118,18.970115661621094L29.246440887451172,18.970115661621094Q29.12370088745117,18.970115661621094,29.001100887451173,18.976138381621094Q28.87851088745117,18.982161061621095,28.75635088745117,18.994192061621092Q28.634200887451172,19.006222961621095,28.51279088745117,19.024233061621093Q28.39137088745117,19.042243261621095,28.27099088745117,19.066189261621094Q28.150600887451173,19.090135661621094,28.031540887451172,19.119959661621095Q27.91247088745117,19.149783661621093,27.795020887451173,19.185413661621094Q27.677560887451172,19.221044661621093,27.561990887451174,19.262395661621095Q27.446420887451172,19.303746661621094,27.333020887451173,19.350717661621093Q27.21962088745117,19.397689661621094,27.108660887451173,19.450168661621095Q26.99771088745117,19.502648661621095,26.889460887451172,19.560509661621094Q26.781210887451174,19.618369661621095,26.675930887451173,19.681472661621093Q26.570650887451173,19.744574661621094,26.46859088745117,19.812767661621095Q26.366530887451173,19.880959661621095,26.26794088745117,19.954077661621092Q26.169350887451174,20.027195661621093,26.07447088745117,20.105065661621094Q25.97959088745117,20.182935661621094,25.88864088745117,20.265355661621093Q25.79770088745117,20.347785661621092,25.71091088745117,20.434585661621092Q25.62411088745117,20.521375661621093,25.54168088745117,20.612315661621093Q25.459260887451173,20.703265661621092,25.381390887451172,20.798145661621092Q25.30352088745117,20.893025661621095,25.23040288745117,20.991615661621093Q25.157284887451173,21.090205661621095,25.089092887451173,21.192265661621093Q25.020899887451172,21.294325661621095,24.95779788745117,21.399605661621095Q24.894694887451173,21.504885661621095,24.83683488745117,21.613135661621094Q24.778973887451173,21.721385661621092,24.726493887451173,21.832335661621094Q24.67401488745117,21.943295661621093,24.62704288745117,22.056695661621095Q24.580071887451172,22.170095661621094,24.538720887451174,22.285665661621096Q24.49736988745117,22.401235661621094,24.461738887451173,22.518695661621095Q24.42610888745117,22.636145661621093,24.396284887451174,22.755215661621094Q24.366460887451172,22.874275661621095,24.342514487451172,22.99466566162109Q24.318568487451174,23.115045661621092,24.30055828745117,23.236465661621093Q24.282548187451173,23.357875661621094,24.27051728745117,23.48002566162109Q24.258486287451174,23.602185661621093,24.252463607451173,23.724775661621095Q24.246440887451172,23.847375661621093,24.246440887451172,23.970115661621094ZM26.064460887451173,76.1820156616211Q24.746440887451172,74.8640156616211,24.746440887451172,73.00001566162109L24.746440887451172,23.970115661621094Q24.746440887451172,22.106155661621095,26.064460887451173,20.788135661621094Q27.382480887451173,19.470115661621094,29.246440887451172,19.470115661621094L70.00004088745118,19.470115661621094Q71.86394088745118,19.470115661621094,73.18194088745116,20.788135661621094Q74.50004088745118,22.106165661621095,74.50004088745118,23.970115661621094L74.50004088745118,73.00001566162109Q74.50004088745118,74.8640156616211,73.18194088745116,76.1820156616211Q71.86394088745118,77.50001566162109,70.00004088745118,77.50001566162109L29.246440887451172,77.50001566162109Q27.382490887451173,77.50001566162109,26.064460887451173,76.1820156616211Z" fill-rule="evenodd" fill="#FFFFFF" fill-opacity="0.5"/></g><g><path d="M31.513429641723633,44.50312916259766L31.513429641723633,44.50312916259766Q31.513429641723633,44.38712916259766,31.524799441723633,44.271629162597655Q31.536169241723634,44.156229162597654,31.55879934172363,44.04242916259766Q31.581429441723632,43.92862916259766,31.615101641723633,43.817629162597655Q31.648774641723634,43.70662916259766,31.693164641723634,43.599529162597655Q31.73755564172363,43.492329162597656,31.792236641723633,43.390029162597656Q31.846917641723632,43.28772916259766,31.91136264172363,43.19122916259766Q31.975807641723634,43.094829162597655,32.04939664172363,43.005129162597655Q32.12298464172363,42.91552916259766,32.20500764172363,42.83342916259765Q32.28703064172363,42.75142916259766,32.376698641723635,42.67782916259766Q32.46636664172363,42.604229162597655,32.562819641723635,42.539829162597655Q32.65925964172363,42.47532916259766,32.76156964172363,42.42072916259765Q32.86386964172363,42.366029162597655,32.971039641723635,42.32162916259766Q33.078199641723636,42.277229162597656,33.189209641723636,42.24352916259765Q33.30020964172363,42.20992916259766,33.413979641723635,42.18722916259766Q33.52774964172363,42.164629162597656,33.64318964172363,42.153229162597654Q33.75862964172363,42.141929162597656,33.87462964172363,42.141929162597656L50.848429641723634,42.141929162597656Q50.96442964172363,42.141929162597656,51.079829641723634,42.153229162597654Q51.19532964172363,42.164629162597656,51.30902964172363,42.18722916259766Q51.42282964172364,42.20992916259766,51.53382964172363,42.24352916259765Q51.64482964172363,42.277229162597656,51.75202964172364,42.32162916259766Q51.859129641723634,42.366029162597655,51.96142964172363,42.42072916259765Q52.06372964172363,42.47532916259766,52.16022964172363,42.539829162597655Q52.256629641723634,42.604229162597655,52.34632964172363,42.67782916259766Q52.436029641723636,42.75142916259766,52.51802964172363,42.83342916259765Q52.60002964172364,42.91552916259766,52.673629641723636,43.005129162597655Q52.747229641723635,43.094829162597655,52.811629641723634,43.19122916259766Q52.87612964172364,43.28772916259766,52.93082964172363,43.390029162597656Q52.98552964172363,43.492329162597656,53.02982964172364,43.599529162597655Q53.07422964172363,43.70662916259766,53.10792964172363,43.817629162597655Q53.14162964172363,43.92862916259766,53.16422964172364,44.04242916259766Q53.186829641723634,44.156229162597654,53.19822964172363,44.271629162597655Q53.20962964172364,44.38712916259766,53.20962964172364,44.50312916259766L53.20962964172364,44.50312916259766Q53.20962964172364,44.619029162597656,53.19822964172363,44.73452916259765Q53.186829641723634,44.849929162597654,53.16422964172364,44.96372916259766Q53.14162964172363,45.077529162597656,53.10792964172363,45.18852916259766Q53.07422964172363,45.29952916259766,53.02982964172364,45.40662916259765Q52.98552964172363,45.51382916259766,52.93082964172363,45.61612916259766Q52.87612964172364,45.71842916259766,52.811629641723634,45.81492916259766Q52.747229641723635,45.91132916259765,52.673629641723636,46.00102916259766Q52.60002964172364,46.09062916259766,52.51802964172363,46.172729162597655Q52.436029641723636,46.254729162597656,52.34632964172363,46.328329162597655Q52.256629641723634,46.40192916259765,52.16022964172363,46.46632916259766Q52.06372964172363,46.530829162597655,51.96142964172363,46.585429162597656Q51.859129641723634,46.64012916259766,51.75202964172364,46.684529162597656Q51.64482964172363,46.72892916259766,51.53382964172363,46.762629162597655Q51.42282964172364,46.796229162597655,51.30902964172363,46.818929162597655Q51.19532964172363,46.84152916259765,51.079829641723634,46.852929162597654Q50.96442964172363,46.86422916259765,50.848429641723634,46.86422916259765L33.87462964172363,46.86422916259765Q33.75862964172363,46.86422916259765,33.64318964172363,46.852929162597654Q33.52774964172363,46.84152916259765,33.413979641723635,46.818929162597655Q33.30020964172363,46.796229162597655,33.189209641723636,46.762629162597655Q33.078199641723636,46.72892916259766,32.971039641723635,46.684529162597656Q32.86386964172363,46.64012916259766,32.76156964172363,46.585429162597656Q32.65925964172363,46.530829162597655,32.562819641723635,46.46632916259766Q32.46636664172363,46.40192916259765,32.376698641723635,46.328329162597655Q32.28703064172363,46.254729162597656,32.20500764172363,46.172729162597655Q32.12298464172363,46.09062916259766,32.04939664172363,46.00102916259766Q31.975807641723634,45.91132916259765,31.91136264172363,45.81492916259766Q31.846917641723632,45.71842916259766,31.792236641723633,45.61612916259766Q31.73755564172363,45.51382916259766,31.693164641723634,45.40662916259765Q31.648774641723634,45.29952916259766,31.615101641723633,45.18852916259766Q31.581429441723632,45.077529162597656,31.55879934172363,44.96372916259766Q31.536169241723634,44.849929162597654,31.524799441723633,44.73452916259765Q31.513429641723633,44.619029162597656,31.513429641723633,44.50312916259766ZM31.513429641723633,33.48452916259765L31.513429641723633,33.48452916259765Q31.513429641723633,33.36852916259765,31.524799441723633,33.253089162597654Q31.536169241723634,33.137649162597654,31.55879934172363,33.02387916259766Q31.581429441723632,32.91010916259766,31.615101641723633,32.79910916259766Q31.648774641723634,32.68809916259766,31.693164641723634,32.58093916259766Q31.73755564172363,32.473769162597655,31.792236641723633,32.371469162597656Q31.846917641723632,32.26915916259765,31.91136264172363,32.17271916259766Q31.975807641723634,32.076266162597655,32.04939664172363,31.986598162597655Q32.12298464172363,31.896930162597656,32.20500764172363,31.814907162597656Q32.28703064172363,31.732884162597657,32.376698641723635,31.659296162597656Q32.46636664172363,31.585707162597657,32.562819641723635,31.521262162597655Q32.65925964172363,31.456817162597655,32.76156964172363,31.402136162597657Q32.86386964172363,31.347455162597655,32.971039641723635,31.303064162597657Q33.078199641723636,31.258674162597657,33.189209641723636,31.225001162597657Q33.30020964172363,31.191328962597655,33.413979641723635,31.168698862597655Q33.52774964172363,31.146068762597658,33.64318964172363,31.134698962597657Q33.75862964172363,31.123329162597656,33.87462964172363,31.123329162597656L58.59702964172364,31.123329162597656Q58.71302964172364,31.123329162597656,58.828529641723634,31.134698962597657Q58.94392964172363,31.146068762597658,59.05772964172363,31.168698862597655Q59.171429641723634,31.191328962597655,59.28242964172363,31.225001162597657Q59.39342964172363,31.258674162597657,59.500629641723634,31.303064162597657Q59.60782964172363,31.347455162597655,59.71012964172363,31.402136162597657Q59.81242964172363,31.456817162597655,59.90882964172363,31.521262162597655Q60.005329641723634,31.585707162597657,60.09492964172363,31.659296162597656Q60.18462964172363,31.732884162597657,60.26662964172363,31.814907162597656Q60.34872964172364,31.896930162597656,60.42222964172363,31.986598162597655Q60.49582964172363,32.076266162597655,60.560329641723634,32.17271916259766Q60.62472964172363,32.26915916259765,60.67942964172363,32.371469162597656Q60.734129641723634,32.473769162597655,60.77852964172364,32.58093916259766Q60.82292964172363,32.68809916259766,60.85652964172363,32.79910916259766Q60.890229641723636,32.91010916259766,60.91282964172363,33.02387916259766Q60.93552964172363,33.137649162597654,60.94682964172363,33.253089162597654Q60.958229641723634,33.36852916259765,60.958229641723634,33.48452916259765L60.958229641723634,33.48452916259765Q60.958229641723634,33.60051916259766,60.94682964172363,33.715959162597656Q60.93552964172363,33.831399162597656,60.91282964172363,33.94516916259766Q60.890229641723636,34.05893916259765,60.85652964172363,34.16993916259766Q60.82292964172363,34.28094916259766,60.77852964172364,34.388119162597654Q60.734129641723634,34.495279162597654,60.67942964172363,34.59758916259766Q60.62472964172363,34.69988916259766,60.560329641723634,34.796339162597654Q60.49582964172363,34.892779162597655,60.42222964172363,34.98244916259765Q60.34872964172364,35.07211916259766,60.26662964172363,35.15413916259766Q60.18462964172363,35.236169162597655,60.09492964172363,35.309749162597655Q60.005329641723634,35.38333916259766,59.90882964172363,35.44778916259766Q59.81242964172363,35.512229162597656,59.71012964172363,35.56690916259765Q59.60782964172363,35.62158916259766,59.500629641723634,35.665989162597654Q59.39342964172363,35.710379162597654,59.28242964172363,35.744049162597655Q59.171429641723634,35.777719162597656,59.05772964172363,35.800349162597655Q58.94392964172363,35.822979162597655,58.828529641723634,35.834349162597654Q58.71302964172364,35.84571916259765,58.59702964172364,35.84571916259765L33.87462964172363,35.84571916259765Q33.75862964172363,35.84571916259765,33.64318964172363,35.834349162597654Q33.52774964172363,35.822979162597655,33.413979641723635,35.800349162597655Q33.30020964172363,35.777719162597656,33.189209641723636,35.744049162597655Q33.078199641723636,35.710379162597654,32.971039641723635,35.665989162597654Q32.86386964172363,35.62158916259766,32.76156964172363,35.56690916259765Q32.65925964172363,35.512229162597656,32.562819641723635,35.44778916259766Q32.46636664172363,35.38333916259766,32.376698641723635,35.309749162597655Q32.28703064172363,35.236169162597655,32.20500764172363,35.15413916259766Q32.12298464172363,35.07211916259766,32.04939664172363,34.98244916259765Q31.975807641723634,34.892779162597655,31.91136264172363,34.796339162597654Q31.846917641723632,34.69988916259766,31.792236641723633,34.59758916259766Q31.73755564172363,34.495279162597654,31.693164641723634,34.388119162597654Q31.648774641723634,34.28094916259766,31.615101641723633,34.16993916259766Q31.581429441723632,34.05893916259765,31.55879934172363,33.94516916259766Q31.536169241723634,33.831399162597656,31.524799441723633,33.715959162597656Q31.513429641723633,33.60051916259766,31.513429641723633,33.48452916259765Z" fill="#FFFFFF" fill-opacity="1"/></g></g></g></svg>