<svg xmlns="http://www.w3.org/2000/svg" xmlns:xlink="http://www.w3.org/1999/xlink" fill="none" version="1.1" width="200" height="200" viewBox="0 0 200 200"><g><g><rect x="0" y="0" width="200" height="200" rx="8" fill="#FFFFFF" fill-opacity="0.10000000149011612"/><rect x="0.5" y="0.5" width="199" height="199" rx="7.5" fill-opacity="0" stroke-opacity="1" stroke="#FFFFFF" fill="none" stroke-width="1"/></g><g><path d="M46.37693,26.0000645433C44.423230000000004,25.99170374,42.55378,26.795953,41.21521,28.22068C39.861928,29.61136,39.0725495,31.4555,39.000072235,33.39567L39.000072235,166.604C38.99121424,168.562,39.79324,170.436,41.21521,171.779C42.56758,173.184,44.42812,173.985,46.37693,174L154.623,174C156.577,174.007,158.446,173.203,159.785,171.779C161.183,170.419,161.981,168.556,162,166.604L162,67.9219L120.1753,26.0000645433L46.37693,26.0000645433Z" fill="#0067FF" fill-opacity="1"/></g><g><path d="M123.0975,127.7822C118.2984,127.4257,113.678,125.6435,109.94550000000001,122.43549999999999C102.6585,124.039,95.7261,126.3555,88.7945,129.208C83.2852,139.00979999999998,78.1306,144,73.68708,144C72.79819,144,71.73242,143.8222,71.02131,143.2871C69.06577,142.3964,68,140.4355,68,138.4755C68,136.8711,68.355554,132.416,85.2399,125.1084C89.151,117.9795,92.1714,110.6728,94.6603,103.0096C92.527,98.7323,87.9066,88.21668,91.1048,82.87088C92.1714,80.909986,94.3047,79.840646,96.61580000000001,80.0193143C98.3927,80.0193143,100.1696,80.909986,101.2362,82.33577C103.5473,85.54378,103.36959999999999,92.3162,100.3474,102.2967C103.1918,107.6357,106.9174,112.45609999999999,111.3669,116.5546C115.1002,115.8408,118.8317,115.3066,122.5641,115.3066C130.9179,115.48429999999999,132.16230000000002,119.40520000000001,131.9845,121.7226C131.9845,127.7822,126.1188,127.7822,123.0975,127.7822ZM73.33241,138.8311L73.86574,138.6533C76.35373,137.7626,78.3084,135.9804,79.7306,133.6631C77.06394,134.73239999999998,74.93151,136.5146,73.33241,138.832L73.33241,138.8311ZM96.9705,85.36601L96.4372,85.36601C96.2594,85.36601,95.9038,85.36601,95.7261,85.54379C95.015,88.57314,95.5483,91.7811,96.7927,94.6327C97.8594,91.6034,97.8594,88.39536,96.9705,85.36601ZM98.2149,111.2079L98.0372,111.5634L97.8594,111.3857C96.2594,115.48519999999999,94.4816,119.5839,92.527,123.5048L92.8825,123.327L92.8825,123.68260000000001C96.83500000000001,122.2496,100.8712,121.0592,104.9687,120.1181L104.7909,119.9404L105.32419999999999,119.9404C102.6576,117.2666,100.1696,114.2372,98.2149,111.2079ZM122.38640000000001,120.6533C120.7864,120.6533,119.36500000000001,120.6533,117.765,121.00880000000001C119.5428,121.90039999999999,121.3206,122.2568,123.0975,122.43549999999999C124.34190000000001,122.61330000000001,125.5863,122.43549999999999,126.65209999999999,122.07900000000001C126.65209999999999,121.54390000000001,125.941,120.6533,122.38640000000001,120.6533Z" fill="#FFFFFF" fill-opacity="1"/></g><g><path d="M161.8247,67.92179999999999L127.38652,67.92179999999999C123.3513,67.8252,120.101735,64.5712,120,60.5262L120,26L161.8247,67.92179999999999Z" fill="#4C94FF" fill-opacity="1"/></g></g></svg>