<svg xmlns="http://www.w3.org/2000/svg" xmlns:xlink="http://www.w3.org/1999/xlink" fill="none" version="1.1" width="32.99763107299805" height="33.005516052246094" viewBox="0 0 32.99763107299805 33.005516052246094"><g><path d="M6.09273,3.58426L8.15073,1.52626C8.25147,1.42435,8.28546,1.27402,8.23837,1.13869C8.19127,1.00336,8.0713,0.906611,7.92907,0.889257L0.420398,0.00259008C0.179208,-0.0255152,-0.0248816,0.179146,0.00389841,0.420257L0.889398,7.92893C0.906752,8.07116,1.00351,8.19113,1.13883,8.23823C1.27416,8.28532,1.42449,8.25133,1.5264,8.15059L3.57506,6.10076L9.8424,12.3634C9.98823,12.5093,10.2274,12.5093,10.3721,12.3634L12.3601,10.3801C12.5049,10.2337,12.5049,9.99798,12.3601,9.85159L6.09273,3.58426ZM22.6244,12.3634C22.7702,12.5093,23.0094,12.5093,23.1552,12.3634L29.4226,6.10076L31.4701,8.14943C31.5717,8.25081,31.7223,8.28538,31.858,8.23849C31.9937,8.1916,32.0908,8.07145,32.1082,7.92893L32.9949,0.424924C33.0238,0.183279,32.8189,-0.0216785,32.5772,0.00725734L25.0674,0.893924C24.9254,0.911655,24.8058,1.00855,24.7589,1.14381C24.7121,1.27907,24.7462,1.42918,24.8469,1.53092L26.9061,3.58892L20.6387,9.84692C20.4931,9.99345,20.4931,10.2301,20.6387,10.3766L22.6267,12.3634L22.6244,12.3634ZM32.1082,25.0766C32.0912,24.9339,31.9943,24.8134,31.8585,24.7662C31.7227,24.719,31.5719,24.7535,31.4701,24.8549L29.4226,26.9048L23.1552,20.6421C23.0085,20.4971,22.7724,20.4971,22.6256,20.6421L20.6376,22.6254C20.4919,22.7719,20.4919,23.0086,20.6376,23.1551L26.9049,29.4213L24.8469,31.4793C24.7455,31.5811,24.711,31.7319,24.7582,31.8677C24.8053,32.0034,24.9258,32.1004,25.0686,32.1174L32.5772,33.0029C32.8184,33.031,33.0225,32.8264,32.9937,32.5853L32.1082,25.0766ZM10.3732,20.6421C10.2263,20.4963,9.98932,20.4963,9.8424,20.6421L3.57507,26.9048L1.5264,24.8561C1.42466,24.7554,1.27455,24.7213,1.13929,24.7681C1.00403,24.8149,0.907131,24.9346,0.8894,25.0766L0.00273339,32.5806C-0.0262027,32.8222,0.178755,33.0272,0.4204,32.9983L7.93023,32.1116C8.07226,32.0939,8.19187,31.997,8.23869,31.8617C8.28551,31.7264,8.25141,31.5763,8.15073,31.4746L6.09273,29.4213L12.3601,23.1598C12.5057,23.0132,12.5057,22.7766,12.3601,22.6301L10.3721,20.6421L10.3732,20.6421Z" fill="#FFFFFF" fill-opacity="1" style="mix-blend-mode:passthrough"/></g></svg>