<svg xmlns="http://www.w3.org/2000/svg" xmlns:xlink="http://www.w3.org/1999/xlink" fill="none" version="1.1" width="24" height="24" viewBox="0 0 24 24"><defs><clipPath id="master_svg0_662_49570"><rect x="0" y="0" width="24" height="24" rx="0"/></clipPath></defs><g clip-path="url(#master_svg0_662_49570)"><g><path d="M17.013153125000002,11.50390625L7.049889125,11.50390625C6.679820125,11.50390625,6.376953125,11.80638925,6.376953125,12.17753725C6.376953125,12.54832625,6.679820125,12.85188625,7.049888125,12.85188625L17.015253125,12.85188625C17.386753125,12.85188625,17.688853125,12.54832625,17.688853125,12.17753725C17.688853125,11.80638925,17.386753125,11.50390625,17.013153125000002,11.50390625Z" fill="#707C8C" fill-opacity="1" style="mix-blend-mode:passthrough"/><path d="M17.668353125,12.83034625Q17.938853125,12.559206249999999,17.938853125,12.17753725Q17.938853125,11.79526925,17.667753125,11.52460435Q17.396553125,11.25390625,17.013153125000002,11.25390625L7.049889125,11.25390625Q6.668640125,11.25390625,6.397840325,11.52479275Q6.126953125,11.79576625,6.126953125,12.17753725Q6.126953125,12.55903625,6.397677325,12.83034625Q6.668635125,13.10188625,7.049888125,13.10188625L17.015253125,13.10188625Q17.397353125000002,13.10188625,17.668353125,12.83034625ZM17.314453125,11.87847825Q17.438853125,12.00264125,17.438853125,12.17753625Q17.438853125,12.35241725,17.314353125,12.47717325Q17.189953125000002,12.60188625,17.015253125,12.60188625L7.049888125,12.60188625Q6.876059125,12.60188625,6.751613125,12.47717325Q6.626953125,12.35224425,6.626953125,12.17753725Q6.626953125,12.00282625,6.751450125,11.87829025Q6.875794125,11.75390625,7.049889125,11.75390625L17.013153125000002,11.75390625Q17.189653125,11.75390625,17.314453125,11.87847825Z" fill-rule="evenodd" fill="#707C8C" fill-opacity="1"/></g><g><path d="M19.574490625,3.35498046875L4.267790625,3.35498046875C3.134657625,3.35498046875,2.212890625,4.27672346875,2.212890625,5.409520468749999L2.212890625,18.590580468749998C2.212890625,19.72378046875,3.134657625,20.64478046875,4.267790625,20.64478046875L19.574490625,20.64478046875C20.707590625,20.64478046875,21.629290625,19.72378046875,21.629290625,18.590580468749998L21.629290625,17.44018046875L21.629290625,16.99658046875L21.629290625,5.40950046875C21.629290625,4.27672346875,20.707590625,3.35498046875,19.574490625,3.35498046875ZM20.339590625,17.00148046875L20.339590625,17.44018046875L20.339590625,18.490180468749998C20.339590625,18.966980468750002,19.951490625,19.35508046875,19.473990625,19.35508046875L4.369680625,19.35508046875C3.892180625,19.35508046875,3.5040806250000003,18.966980468750002,3.5040806250000003,18.490180468749998L3.5040806250000003,5.51035046875C3.5040806250000003,5.03423046875,3.892180625,4.64578046875,4.369680625,4.64578046875L19.473990625,4.64578046875C19.951490625,4.64578046875,20.339590625,5.03423046875,20.339590625,5.51035046875L20.339590625,17.00148046875Z" fill="#707C8C" fill-opacity="1" style="mix-blend-mode:passthrough"/><path d="M21.879290625,16.99658046875L21.879290625,5.40950046875Q21.879290625,4.45633046875,21.203590625,3.78066146875Q20.527790625,3.10498046875,19.574490625,3.10498046875L4.267790625,3.10498046875Q3.314420625,3.10498046875,2.638650625,3.78066346875Q1.962890625,4.45634046875,1.962890625,5.409520468749999L1.962890625,18.590580468749998Q1.962890625,19.54398046875,2.638682625,20.21948046875Q3.3143506250000003,20.89478046875,4.267790625,20.89478046875L19.574490625,20.89478046875Q20.527890625,20.89478046875,21.203590625,20.21948046875Q21.879290625,19.54398046875,21.879290625,18.590580468749998L21.879290625,16.99658046875ZM20.850090625,4.13423646875Q21.379290625,4.66345046875,21.379290625,5.40950046875L21.379290625,18.590580468749998Q21.379290625,19.33678046875,20.850090625,19.86578046875Q20.320890625,20.39478046875,19.574490625,20.39478046875L4.267790625,20.39478046875Q3.521390625,20.39478046875,2.992149625,19.86578046875Q2.462890625,19.33678046875,2.462890625,18.590580468749998L2.462890625,5.409520468749999Q2.462890625,4.66346046875,2.9921816249999997,4.13424046875Q3.521510625,3.60498046875,4.267790625,3.60498046875L19.574490625,3.60498046875Q20.320690625,3.60498046875,20.850090625,4.13423646875ZM20.589590625,17.00148046875L20.589590625,5.51035046875Q20.589590625,5.04952046875,20.262590625,4.72270046875Q19.935490625,4.39578046875,19.473990625,4.3957904687500005L4.369680625,4.3957904687500005Q3.908180625,4.39578046875,3.581090625,4.72270046875Q3.2540806250000003,5.04953046875,3.2540806250000003,5.51035046875L3.2540806250000003,18.490180468749998Q3.2540806250000003,18.95138046875,3.581090625,19.27818046875Q3.9081006250000003,19.60508046875,4.369680625,19.60508046875L19.473990625,19.60508046875Q19.935590625,19.60508046875,20.262590625,19.27818046875Q20.589590625,18.95138046875,20.589590625,18.490180468749998L20.589590625,17.00148046875ZM19.909090625,5.07634046875Q20.089590625,5.25671046875,20.089590625,5.51035046875L20.089590625,18.490180468749998Q20.089590625,19.10508046875,19.473990625,19.10508046875L4.369680625,19.10508046875Q4.115130625,19.10508046875,3.934550625,18.92458046875Q3.7540806250000003,18.744180468750002,3.7540806250000003,18.490180468749998L3.7540806250000003,5.51035046875Q3.7540806250000003,4.8957904687500005,4.369680625,4.8957904687500005L19.473990625,4.8957904687500005Q19.728490625,4.8957904687500005,19.909090625,5.07634046875Z" fill-rule="evenodd" fill="#707C8C" fill-opacity="1"/></g><g><path d="M14.978383125,15.2236328125L7.049889125,15.2236328125C6.679820125,15.2236328125,6.376953125,15.5258278125,6.376953125,15.8965688125C6.376953125,16.2680528125,6.679820125,16.5701728125,7.051975125,16.5701728125L14.978383125,16.5701728125C15.349193125,16.5701728125,15.652013125,16.2680528125,15.652013125,15.8965688125C15.651993125,15.5258278125,15.349173125,15.2236328125,14.978383125,15.2236328125Z" fill="#707C8C" fill-opacity="1" style="mix-blend-mode:passthrough"/><path d="M15.630963125,16.5495228125Q15.902013125,16.278672812499998,15.902013125,15.8965688125L15.902013125,15.8965528125Q15.901993125,15.5149088125,15.630893125,15.2441772125Q15.359983125,14.9736328125,14.978383125,14.9736328125L7.049889125,14.9736328125Q6.668718125,14.9736328125,6.397929425,15.2442356125Q6.126953125,15.5150258125,6.126953125,15.8965688125Q6.126953125,16.2788828125,6.398324725,16.5496528125Q6.669448125,16.8201728125,7.051975125,16.8201728125L14.978383125,16.8201728125Q15.360113125,16.8201728125,15.630963125,16.5495228125ZM15.402013125,15.8965688125L15.402013125,15.8965848125Q15.402013125,16.0714608125,15.277543125,16.1958368125Q15.153113125,16.3201728125,14.978383125,16.3201728125L7.051975125,16.3201728125Q6.876231125,16.3201728125,6.751487125,16.1957068125Q6.626953125,16.0714488125,6.626953125,15.8965688125Q6.626953125,15.7222328125,6.751361125,15.5979108125Q6.875724125,15.4736328125,7.049889125,15.4736328125L14.978383125,15.4736328125Q15.153073125,15.4736328125,15.277583125,15.5979688125Q15.402003125,15.7222198125,15.402013125,15.8965688125Z" fill-rule="evenodd" fill="#707C8C" fill-opacity="1"/></g><g><path d="M17.015253125,7.783203125L7.049889125,7.783203125C6.679820125,7.783203125,6.376953125,8.085710125,6.376953125,8.456834125C6.376953125,8.827283125,6.679820125,9.129793124999999,7.049888125,9.129793124999999L17.015253125,9.129793124999999C17.386753125,9.129793124999999,17.688853125,8.827283125,17.688853125,8.456833125C17.688853125,8.085710125,17.386753125,7.783203125,17.015253125,7.783203125Z" fill="#707C8C" fill-opacity="1" style="mix-blend-mode:passthrough"/><path d="M17.668153125,9.109043125Q17.938853125,8.838363125,17.938853125,8.456833125Q17.938853125,8.074901125,17.668153125,7.804102925Q17.397353125000002,7.533203125,17.015253125,7.533203125L7.049889125,7.533203125Q6.668643125,7.533203125,6.397838225,7.804100725Q6.126953125,8.075079125,6.126953125,8.456834125Q6.126953125,8.838193125,6.397898725,9.109043125Q6.668745125,9.379793124999999,7.049888125,9.379793124999999L17.015253125,9.379793124999999Q17.397253125,9.379793124999999,17.668153125,9.109043125ZM17.314553125,8.157591125Q17.438853125,8.281956125,17.438853125,8.456833125Q17.438853125,8.631204125,17.314653125,8.755427125Q17.190253124999998,8.879793124999999,17.015253125,8.879793124999999L7.049888125,8.879793124999999Q6.875801125,8.879793124999999,6.751391125,8.755427125Q6.626953125,8.631031125,6.626953125,8.456834125Q6.626953125,8.282135125,6.751452125,8.157593125Q6.875800125,8.033203125,7.049889125,8.033203125L17.015253125,8.033203125Q17.190253124999998,8.033203125,17.314553125,8.157591125Z" fill-rule="evenodd" fill="#707C8C" fill-opacity="1"/></g></g></svg>