<svg xmlns="http://www.w3.org/2000/svg" xmlns:xlink="http://www.w3.org/1999/xlink" fill="none" version="1.1" width="24" height="24" viewBox="0 0 24 24"><defs><clipPath id="master_svg0_1026_73468"><rect x="0" y="0" width="24" height="24" rx="0"/></clipPath></defs><g clip-path="url(#master_svg0_1026_73468)"><g><path d="M12.011,0C6.49667,0,2.0242855,4.19315,2,9.42347L2.00238078,9.64093C2.0452378,11.4458,2.6238099999999998,13.1609,3.66143,14.6339L3.77333,14.7895L3.82429,14.8713L3.87143,14.9412C3.90333,14.9861,3.9371400000000003,15.0287,3.97476,15.0707L3.98333,15.0802L10.49381,23.2798C10.58652,23.3967,10.69281,23.5024,10.81048,23.5946L10.89429,23.6561C11.72163,24.2333,12.8591,24.0681,13.4852,23.2798L19.9957,15.0802L19.95,15.1294C20.031,15.0471,20.0929,14.9658,20.1543,14.8717L20.2143,14.7758C21.3438,13.2498,21.9762,11.3957,22,9.44002C22,4.20544,17.5143,0,12.011,0ZM12.011,1.89093C16.4862,1.89093,20.0952,5.27429,20.0952,9.4282C20.0776,10.9642,19.5735,12.4557,18.6543,13.6913L18.5533,13.8473C18.5648,13.8314,18.5777,13.8165,18.5919,13.8029L18.5229,13.8804L11.98953,22.1093L5.456189999999999,13.8804L5.41905,13.8369L5.3481000000000005,13.7253L5.40381,13.8199L5.39905,13.8152L5.4081,13.8275C4.4,12.4423,3.90476,10.9736,3.90476,9.4282C3.92381,5.26578,7.52381,1.89093,12.011,1.89093Z" fill="#707C8C" fill-opacity="1" style="mix-blend-mode:passthrough"/></g><g><path d="M12.00086,5C9.23924,4.999046326,7,7.2379,7,10C7,12.7621,9.23924,15.001,12.00086,15C14.76181,15,17,12.761420000000001,17,10C17,7.23858,14.76181,5.00000198682,12.00086,5ZM12.00086,7.22222C13.53472,7.22222,14.77816,8.46588,14.77816,10C14.77816,11.53412,13.53472,12.77778,12.00086,12.77778C10.467,12.77778,9.22357,11.53412,9.22357,10C9.22357,8.46588,10.467,7.22222,12.00086,7.22222Z" fill="#707C8C" fill-opacity="1" style="mix-blend-mode:passthrough"/></g></g></svg>