<svg xmlns="http://www.w3.org/2000/svg" xmlns:xlink="http://www.w3.org/1999/xlink" fill="none" version="1.1" width="24" height="24" viewBox="0 0 24 24"><defs><clipPath id="master_svg0_662_49684"><rect x="0" y="0" width="24" height="24" rx="0"/></clipPath></defs><g clip-path="url(#master_svg0_662_49684)"><g><path d="M18.6886265625,2.22119140625L6.0159765625,2.22119140625C3.6813665625,2.22119140625,1.7822265625,4.12033140625,1.7822265625,6.45494140625L1.7822265625,18.13759140625C1.7822265625,20.47219140625,3.6813665625,22.37139140625,6.0159765625,22.37139140625L15.7622265625,22.37139140625L22.9219265625,13.91559140625L22.9219265625,6.45494140625C22.9219265625,4.12033140625,21.0227265625,2.22119140625,18.6886265625,2.22119140625ZM3.4690265625,18.13759140625L3.4690265625,6.45494140625C3.4690265625,5.0505714062500005,4.6116065625000005,3.90799140625,6.0159765625,3.90799140625L18.6886265625,3.90799140625C20.0925265625,3.90799140625,21.2351265625,5.0505714062500005,21.2351265625,6.45494140625L21.2351265625,11.78674140625L17.6862265625,11.78674140625C15.3675265625,11.78674140625,13.4810265625,13.67319140625,13.4810265625,15.99189140625L13.4810265625,20.68459140625L6.0162065625,20.68459140625C4.6116065625000005,20.68479140625,3.4690265625,19.54219140625,3.4690265625,18.13759140625ZM15.1676265625,20.46349140625L15.1676265625,15.99189140625C15.1676265625,14.60349140625,16.2975265625,13.47329140625,17.6862265625,13.47329140625L21.0860265625,13.47329140625L15.1676265625,20.46349140625Z" fill="#707C8C" fill-opacity="1" style="mix-blend-mode:passthrough"/></g><g><path d="M7.3872263125,8.7500365625L14.6676153125,8.7500365625C15.1333253125,8.7500365625,15.5108953125,8.3722265625,15.5108953125,7.9067575625C15.5108953125,7.4412895625,15.1330853125,7.0634765625,14.6676153125,7.0634765625L7.3872263125,7.0634765625C6.9215233125,7.0634765625,6.5439453125,7.4412895625,6.5439453125,7.9067575625C6.5439453125,8.3722265625,6.9215233125,8.7500365625,7.3872263125,8.7500365625ZM10.216365312499999,11.453086562500001L7.3872263125,11.453086562500001C6.9215233125,11.453086562500001,6.5439453125,11.830896562500001,6.5439453125,12.296366562500001C6.5439453125,12.7620665625,6.9217583125,13.139646562500001,7.3872263125,13.139646562500001L10.2166053125,13.139646562500001C10.682305312499999,13.139646562500001,11.0598853125,12.761836562500001,11.0598853125,12.296366562500001C11.0598853125,11.830896562500001,10.6820753125,11.453086562500001,10.216365312499999,11.453086562500001Z" fill="#707C8C" fill-opacity="1" style="mix-blend-mode:passthrough"/></g></g></svg>