<svg xmlns="http://www.w3.org/2000/svg" xmlns:xlink="http://www.w3.org/1999/xlink" fill="none" version="1.1" width="24" height="24" viewBox="0 0 24 24"><g><g></g><g><g><path d="M23,12Q23,12.27,22.9867,12.5397Q22.9735,12.8095,22.947,13.0782Q22.9206,13.3469,22.8809,13.614Q22.8413,13.8811,22.7886,14.146Q22.736,14.4108,22.6703,14.6728Q22.6047,14.9347,22.5263,15.1931Q22.448,15.4515,22.357,15.7058Q22.266,15.96,22.1627,16.2095Q22.0593,16.459,21.9439,16.7031Q21.8284,16.947200000000002,21.7011,17.1854Q21.5738,17.4235,21.435,17.6551Q21.2962,17.8867,21.1462,18.1113Q20.9961,18.3358,20.8353,18.5527Q20.6744,18.7696,20.5031,18.9783Q20.3318,19.1871,20.1505,19.3871Q19.9691,19.5872,19.7782,19.7782Q19.5872,19.9691,19.3871,20.1505Q19.1871,20.3318,18.9783,20.5031Q18.7696,20.6744,18.5527,20.8353Q18.3358,20.9961,18.1113,21.1462Q17.8867,21.2962,17.6551,21.435Q17.4235,21.5738,17.1854,21.7011Q16.947200000000002,21.8284,16.7031,21.9439Q16.459,22.0593,16.2095,22.1627Q15.96,22.266,15.7058,22.357Q15.4515,22.448,15.1931,22.5263Q14.9347,22.6047,14.6728,22.6703Q14.4108,22.736,14.146,22.7886Q13.8811,22.8413,13.614,22.8809Q13.3469,22.9206,13.0782,22.947Q12.8095,22.9735,12.5397,22.9867Q12.27,23,12,23Q11.73,23,11.4603,22.9867Q11.1905,22.9735,10.92181,22.947Q10.65308,22.9206,10.38596,22.8809Q10.11885,22.8413,9.854,22.7886Q9.58916,22.736,9.32722,22.6703Q9.06527,22.6047,8.80687,22.5263Q8.54846,22.448,8.29421,22.357Q8.03996,22.266,7.79048,22.1627Q7.541,22.0593,7.29689,21.9439Q7.05279,21.8284,6.81464,21.7011Q6.57649,21.5738,6.34487,21.435Q6.11325,21.2962,5.88873,21.1462Q5.6642,20.9961,5.44731,20.8353Q5.23041,20.6744,5.02167,20.5031Q4.81293,20.3318,4.61285,20.1505Q4.41277,19.9691,4.221830000000001,19.7782Q4.03088,19.5872,3.84954,19.3871Q3.66819,19.1871,3.49688,18.9783Q3.32558,18.7696,3.16472,18.5527Q3.00386,18.3358,2.8538300000000003,18.1113Q2.70381,17.8867,2.56499,17.6551Q2.4261600000000003,17.4235,2.29887,17.1854Q2.17157,16.947200000000002,2.05612,16.7031Q1.940663,16.459,1.8373249999999999,16.2095Q1.733987,15.96,1.6430150000000001,15.7058Q1.5520429999999998,15.4515,1.473656,15.1931Q1.3952689999999999,14.9347,1.329656,14.6728Q1.264043,14.4108,1.211362,14.146Q1.158681,13.8811,1.1190579999999999,13.614Q1.079436,13.3469,1.052968,13.0782Q1.0265,12.8095,1.01325,12.5397Q1,12.27,1,12Q1,11.73,1.01325,11.4603Q1.0265,11.1905,1.052968,10.92181Q1.079436,10.65308,1.1190579999999999,10.38596Q1.158681,10.11885,1.211362,9.854Q1.264043,9.58916,1.329656,9.32722Q1.3952689999999999,9.06527,1.473656,8.80687Q1.5520429999999998,8.54846,1.6430150000000001,8.29421Q1.733987,8.03996,1.8373249999999999,7.79048Q1.940663,7.541,2.05612,7.29689Q2.17157,7.05279,2.29887,6.81464Q2.4261600000000003,6.57649,2.56499,6.34487Q2.70381,6.11325,2.8538300000000003,5.88873Q3.00386,5.6642,3.16472,5.44731Q3.32558,5.23041,3.49688,5.02167Q3.66819,4.81293,3.84954,4.61285Q4.03088,4.41277,4.221830000000001,4.221830000000001Q4.41277,4.03088,4.61285,3.84954Q4.81293,3.66819,5.02167,3.49688Q5.23041,3.32558,5.44731,3.16472Q5.6642,3.00386,5.88873,2.8538300000000003Q6.11325,2.70381,6.34487,2.56499Q6.57649,2.4261600000000003,6.81464,2.29887Q7.05279,2.17157,7.29689,2.05612Q7.541,1.940663,7.79048,1.8373249999999999Q8.03996,1.733987,8.29421,1.6430150000000001Q8.54846,1.5520429999999998,8.80687,1.473656Q9.06527,1.3952689999999999,9.32722,1.329656Q9.58916,1.264043,9.854,1.211362Q10.11885,1.158681,10.38596,1.1190579999999999Q10.65308,1.079436,10.92181,1.052968Q11.1905,1.0265,11.4603,1.01325Q11.73,1,12,1Q12.27,1,12.5397,1.01325Q12.8095,1.0265,13.0782,1.052968Q13.3469,1.079436,13.614,1.1190579999999999Q13.8811,1.158681,14.146,1.211362Q14.4108,1.264043,14.6728,1.329656Q14.9347,1.3952689999999999,15.1931,1.473656Q15.4515,1.5520429999999998,15.7058,1.6430150000000001Q15.96,1.733987,16.2095,1.8373249999999999Q16.459,1.940663,16.7031,2.05612Q16.947200000000002,2.17157,17.1854,2.29887Q17.4235,2.4261600000000003,17.6551,2.56499Q17.8867,2.70381,18.1113,2.8538300000000003Q18.3358,3.00386,18.5527,3.16472Q18.7696,3.32558,18.9783,3.49688Q19.1871,3.66819,19.3871,3.84954Q19.5872,4.03088,19.7782,4.221830000000001Q19.9691,4.41277,20.1505,4.61285Q20.3318,4.81293,20.5031,5.02167Q20.6744,5.23041,20.8353,5.44731Q20.9961,5.6642,21.1462,5.88873Q21.2962,6.11325,21.435,6.34487Q21.5738,6.57649,21.7011,6.81464Q21.8284,7.05279,21.9439,7.29689Q22.0593,7.541,22.1627,7.79048Q22.266,8.03996,22.357,8.29421Q22.448,8.54846,22.5263,8.80687Q22.6047,9.06527,22.6703,9.32722Q22.736,9.58916,22.7886,9.854Q22.8413,10.11885,22.8809,10.38596Q22.9206,10.65308,22.947,10.92181Q22.9735,11.1905,22.9867,11.4603Q23,11.73,23,12ZM21,12Q21,11.7791,20.9892,11.5584Q20.9783,11.3377,20.9567,11.1178Q20.935,10.89797,20.9026,10.67943Q20.8702,10.46088,20.8271,10.24419Q20.784,10.02749,20.7303,9.81318Q20.6766,9.59886,20.6125,9.38744Q20.5483,9.17601,20.4739,8.96799Q20.3995,8.75997,20.3149,8.55585Q20.2304,8.35173,20.1359,8.152000000000001Q20.0414,7.95228,19.9373,7.75743Q19.8331,7.56258,19.7196,7.37307Q19.606,7.18357,19.4832,6.99987Q19.3605,6.81616,19.2289,6.63871Q19.0973,6.46125,18.9571,6.29046Q18.8169,6.11967,18.6686,5.95597Q18.5202,5.79227,18.364,5.63604Q18.2077,5.47981,18.044,5.33144Q17.8803,5.18307,17.7095,5.04291Q17.5387,4.90274,17.3613,4.771129999999999Q17.1838,4.63952,17.0001,4.51677Q16.8164,4.39403,16.6269,4.2804400000000005Q16.4374,4.16686,16.2426,4.06271Q16.0477,3.95856,15.848,3.8641Q15.6483,3.76963,15.4441,3.68508Q15.24,3.60053,15.032,3.5261Q14.824,3.45167,14.6126,3.38754Q14.4011,3.3234,14.1868,3.26972Q13.9725,3.21604,13.7558,3.17293Q13.5391,3.12983,13.3206,3.09741Q13.102,3.06499,12.8822,3.04334Q12.6623,3.02168,12.4416,3.01084Q12.2209,3,12,3Q11.7791,3,11.5584,3.01084Q11.3377,3.02168,11.1178,3.04334Q10.89797,3.06499,10.67943,3.09741Q10.46088,3.12983,10.24419,3.17293Q10.02749,3.21604,9.81318,3.26972Q9.59886,3.3234,9.38744,3.38754Q9.17601,3.45167,8.96799,3.5261Q8.75997,3.60053,8.55585,3.68508Q8.35173,3.76963,8.152000000000001,3.8641Q7.95228,3.95856,7.75743,4.06271Q7.56258,4.16686,7.37307,4.2804400000000005Q7.18357,4.39403,6.99987,4.51677Q6.81616,4.63952,6.63871,4.771129999999999Q6.46125,4.90274,6.29046,5.04291Q6.11967,5.18307,5.95597,5.33144Q5.79227,5.47981,5.63604,5.63604Q5.47981,5.79227,5.33144,5.95597Q5.18307,6.11967,5.04291,6.29046Q4.90274,6.46125,4.771129999999999,6.63871Q4.63952,6.81616,4.51677,6.99987Q4.39403,7.18357,4.2804400000000005,7.37307Q4.16686,7.56258,4.06271,7.75743Q3.95856,7.95228,3.8641,8.152000000000001Q3.76963,8.35173,3.68508,8.55585Q3.60053,8.75997,3.5261,8.96799Q3.45167,9.17601,3.38754,9.38744Q3.3234,9.59886,3.26972,9.81318Q3.21604,10.02749,3.17293,10.24419Q3.12983,10.46088,3.09741,10.67943Q3.06499,10.89797,3.04334,11.1178Q3.02168,11.3377,3.01084,11.5584Q3,11.7791,3,12Q3,12.2209,3.01084,12.4416Q3.02168,12.6623,3.04334,12.8822Q3.06499,13.102,3.09741,13.3206Q3.12983,13.5391,3.17293,13.7558Q3.21604,13.9725,3.26972,14.1868Q3.3234,14.4011,3.38754,14.6126Q3.45167,14.824,3.5261,15.032Q3.60053,15.24,3.68508,15.4441Q3.76963,15.6483,3.8641,15.848Q3.95856,16.0477,4.06271,16.2426Q4.16686,16.4374,4.2804400000000005,16.6269Q4.39403,16.8164,4.51677,17.0001Q4.63952,17.1838,4.771129999999999,17.3613Q4.90274,17.5387,5.04291,17.7095Q5.18307,17.8803,5.33144,18.044Q5.47981,18.2077,5.63604,18.364Q5.79227,18.5202,5.95597,18.6686Q6.11967,18.8169,6.29046,18.9571Q6.46125,19.0973,6.63871,19.2289Q6.81616,19.3605,6.99987,19.4832Q7.18357,19.606,7.37307,19.7196Q7.56258,19.8331,7.75743,19.9373Q7.95228,20.0414,8.152000000000001,20.1359Q8.35173,20.2304,8.55585,20.3149Q8.75997,20.3995,8.96799,20.4739Q9.17601,20.5483,9.38744,20.6125Q9.59886,20.6766,9.81318,20.7303Q10.02749,20.784,10.24419,20.8271Q10.46088,20.8702,10.67943,20.9026Q10.89797,20.935,11.1178,20.9567Q11.3377,20.9783,11.5584,20.9892Q11.7791,21,12,21Q12.2209,21,12.4416,20.9892Q12.6623,20.9783,12.8822,20.9567Q13.102,20.935,13.3206,20.9026Q13.5391,20.8702,13.7558,20.8271Q13.9725,20.784,14.1868,20.7303Q14.4011,20.6766,14.6126,20.6125Q14.824,20.5483,15.032,20.4739Q15.24,20.3995,15.4441,20.3149Q15.6483,20.2304,15.848,20.1359Q16.0477,20.0414,16.2426,19.9373Q16.4374,19.8331,16.6269,19.7196Q16.8164,19.606,17.0001,19.4832Q17.1838,19.3605,17.3613,19.2289Q17.5387,19.0973,17.7095,18.9571Q17.8803,18.8169,18.044,18.6686Q18.2077,18.5202,18.364,18.364Q18.5202,18.2077,18.6686,18.044Q18.8169,17.8803,18.9571,17.7095Q19.0973,17.5387,19.2289,17.3613Q19.3605,17.1838,19.4832,17.0001Q19.606,16.8164,19.7196,16.6269Q19.8331,16.4374,19.9373,16.2426Q20.0414,16.0477,20.1359,15.848Q20.2304,15.6483,20.3149,15.4441Q20.3995,15.24,20.4739,15.032Q20.5483,14.824,20.6125,14.6126Q20.6766,14.4011,20.7303,14.1868Q20.784,13.9725,20.8271,13.7558Q20.8702,13.5391,20.9026,13.3206Q20.935,13.102,20.9567,12.8822Q20.9783,12.6623,20.9892,12.4416Q21,12.2209,21,12Z" fill="#707C8C" fill-opacity="1"/></g><g><path d="M12.541666984558105,8.792012251558106L12.541666984558105,13.291666984558105L16.124996984558106,13.291666984558105Q16.223486984558107,13.291666984558105,16.320086984558106,13.310876984558107Q16.416686984558105,13.330096984558105,16.507686984558106,13.367786984558105Q16.598676984558104,13.405476984558106,16.680566984558105,13.460196984558106Q16.762466984558106,13.514916984558106,16.832106984558106,13.584556984558105Q16.901746984558105,13.654206984558105,16.956466984558105,13.736096984558106Q17.011186984558105,13.817986984558106,17.048876984558106,13.908986984558105Q17.086566984558104,13.999976984558106,17.105786984558105,14.096576984558105Q17.124996984558106,14.193176984558106,17.124996984558106,14.291666984558105Q17.124996984558106,14.390156984558105,17.105786984558105,14.486756984558106Q17.086566984558104,14.583356984558105,17.048876984558106,14.674346984558106Q17.011186984558105,14.765346984558105,16.956466984558105,14.847236984558105Q16.901746984558105,14.929126984558106,16.832106984558106,14.998776984558106Q16.762466984558106,15.068416984558105,16.680566984558105,15.123136984558105Q16.598676984558104,15.177856984558105,16.507686984558106,15.215546984558106Q16.416686984558105,15.253236984558106,16.320086984558106,15.272446984558105Q16.223486984558107,15.291666984558105,16.124996984558106,15.291666984558105L11.541666984558105,15.291666984558105Q11.443175584558105,15.291666984558105,11.346576984558105,15.272446984558105Q11.249977984558106,15.253236984558106,11.158983984558105,15.215546984558106Q11.067988984558106,15.177856984558105,10.986096984558106,15.123136984558105Q10.904203984558105,15.068416984558105,10.834559984558105,14.998776984558106Q10.764915984558105,14.929126984558106,10.710197984558105,14.847236984558105Q10.655478984558105,14.765346984558105,10.617787984558106,14.674346984558106Q10.580096984558105,14.583356984558105,10.560881984558105,14.486756984558106Q10.541666984558105,14.390156984558105,10.541666984558105,14.291666984558105L10.541666984558105,8.791666984558105Q10.541666984558105,8.693175584558105,10.560881984558105,8.596576984558105Q10.580096984558105,8.499977984558106,10.617787984558106,8.408983984558105Q10.655478984558105,8.317988984558106,10.710196984558106,8.236096984558106Q10.764915984558105,8.154203984558105,10.834559984558105,8.084559984558105Q10.904203984558105,8.014915984558105,10.986096984558106,7.960196984558105Q11.067988984558106,7.905478984558106,11.158983984558105,7.867787984558105Q11.249977984558106,7.830096984558105,11.346576984558105,7.8108819845581055Q11.443175584558105,7.7916669845581055,11.541666984558105,7.7916669845581055Q11.640158384558106,7.7916669845581055,11.736756984558106,7.8108819845581055Q11.833355984558105,7.830096984558105,11.924349984558106,7.867787984558105Q12.015344984558105,7.905478984558106,12.097236984558105,7.960196984558105Q12.179129984558106,8.014915984558105,12.248773984558106,8.084559984558105Q12.318417984558106,8.154203984558105,12.373136984558105,8.236096984558106Q12.427854984558106,8.317988984558106,12.465545984558105,8.408983984558105Q12.503236984558106,8.499977984558106,12.522451984558106,8.596576984558105Q12.541666984558105,8.693175584558105,12.541666984558105,8.791666984558105L12.541666984558105,8.792012251558106Z" fill-rule="evenodd" fill="#707C8C" fill-opacity="1"/></g></g></g></svg>