<svg xmlns="http://www.w3.org/2000/svg" xmlns:xlink="http://www.w3.org/1999/xlink" fill="none" version="1.1" width="49" height="30" viewBox="0 0 49 30"><g><path d="M42.5377,19.1279Q42.5876,19.1808,42.6335,19.2372Q42.6795,19.2936,42.7212,19.3532Q42.7629,19.4128,42.8002,19.4753Q42.8374,19.5378,42.8701,19.6028Q42.9027,19.6678,42.9305,19.735Q42.9583,19.8022,42.9812,19.8713Q43.0041,19.9403,43.0219,20.0109Q43.0397,20.0814,43.0523,20.1531Q43.0649,20.2247,43.0723,20.2971Q43.0797,20.3694,43.0818,20.4422Q43.0839,20.5149,43.0807,20.5876Q43.0775,20.6602,43.069,20.7325Q43.0606,20.8047,43.0469,20.8762Q43.0332,20.9476,43.0144,21.0179Q42.9956,21.0882,42.9717,21.1569Q42.9478,21.2256,42.9189,21.2924Q42.8901,21.3592,42.8565,21.4237Q42.8229,21.4882,42.7847,21.5501Q42.7465,21.612,42.7039,21.671Q42.6614,21.73,42.6146,21.7857Q42.5678,21.8414,42.5171,21.8936Q42.4664,21.9458,42.4121,21.9941Q42.3577,22.0425,42.3,22.0868Q42.2423,22.1311,42.1815,22.171Q42.1208,22.211,42.0572,22.2465Q41.9937,22.2819,41.9278,22.3127Q41.8618,22.3434,41.7938,22.3693Q41.7259,22.3951,41.6562,22.416Q41.5865,22.4369,41.5154,22.4526Q41.4444,22.4683,41.3724,22.4789Q41.3005,22.4894,41.2279,22.4947Q41.1554,22.5,41.0826,22.5L7.9174,22.5Q7.84465,22.5,7.77209,22.4947Q7.69954,22.4894,7.62756,22.4789Q7.55558,22.4683,7.48456,22.4526Q7.41354,22.4369,7.34385,22.416Q7.27416,22.3951,7.20616,22.3693Q7.13817,22.3434,7.07224,22.3127Q7.00631,22.2819,6.94278,22.2465Q6.87926,22.211,6.81848,22.171Q6.7577,22.1311,6.69998,22.0868Q6.64226,22.0425,6.58791,21.9941Q6.53357,21.9458,6.48288,21.8936Q6.43219,21.8414,6.38542,21.7857Q6.33866,21.73,6.29606,21.671Q6.25347,21.612,6.21527,21.5501Q6.17707,21.4882,6.14348,21.4237Q6.10988,21.3592,6.08106,21.2924Q6.05224,21.2256,6.02834,21.1569Q6.00445,21.0882,5.98561,21.0179Q5.96678,20.9476,5.95309,20.8762Q5.93941,20.8047,5.93095,20.7325Q5.9225,20.6602,5.91931,20.5876Q5.91613,20.5149,5.91823,20.4422Q5.92034,20.3694,5.92772,20.2971Q5.9351,20.2247,5.94772,20.1531Q5.96034,20.0814,5.97813,20.0109Q5.99592,19.9403,6.01879,19.8713Q6.04166,19.8022,6.06948,19.735Q6.09731,19.6678,6.12994,19.6028Q6.16258,19.5378,6.19985,19.4753Q6.23713,19.4128,6.27884,19.3532Q6.32055,19.2936,6.36648,19.2372Q6.41242,19.1808,6.46232,19.1279L23.0449,1.54301Q23.1149,1.46886,23.192,1.40219Q23.2691,1.33553,23.3526,1.27705Q23.436,1.21857,23.525,1.16889Q23.614,1.1192,23.7076,1.07882Q23.8012,1.03843,23.8984,1.00777Q23.9956,0.977115,24.0955,0.956497Q24.1953,0.935879,24.2967,0.925517Q24.3981,0.915154,24.5,0.915154Q24.6019,0.915154,24.7033,0.925517Q24.8047,0.935879,24.9045,0.956497Q25.0044,0.977115,25.1016,1.00777Q25.1988,1.03843,25.2924,1.07882Q25.386,1.1192,25.475,1.16889Q25.564,1.21857,25.6474,1.27705Q25.7309,1.33553,25.808,1.40219Q25.8851,1.46886,25.9551,1.54301L42.5377,19.1279Z" fill="#D8D8D8" fill-opacity="1"/></g></svg>