<svg xmlns="http://www.w3.org/2000/svg" xmlns:xlink="http://www.w3.org/1999/xlink" fill="none" version="1.1" width="24" height="24" viewBox="0 0 24 24"><g><g></g><g><g><path d="M12,1L2.5,6.5L2.5,17.5L12,23L21.5,17.5L21.5,6.5L12,1ZM20.1635,16.726100000000002L12,21.4522L3.8364599999999998,16.726100000000002L3.8364599999999998,7.27391L12,2.5478199999999998L20.1635,7.27391L20.1635,16.726100000000002Z" fill="#707C8C" fill-opacity="1" style="mix-blend-mode:passthrough"/><path d="M21.7,17.6153L21.7,6.38469L21.6002,6.32691L12,0.7689L2.3,6.38469L2.3,17.6153L12,23.2311L21.7,17.6153ZM21.3,6.61531L21.3,17.3847L12,22.7689L2.7,17.3847L2.7,6.61531L12,1.2311L21.3,6.61531ZM20.3635,16.8414L20.3635,7.1586L12,2.31672L3.63646,7.1586L3.63646,16.8414L12,21.6833L20.3635,16.8414ZM19.9635,7.38922L19.9635,16.610799999999998L12,21.2211L4.03646,16.610799999999998L4.03646,7.38922L12,2.7789099999999998L19.9635,7.38922Z" fill-rule="evenodd" fill="#707C8C" fill-opacity="1"/></g><g><path d="M7.253769,8L6.5,9.13661L11.24623,11.52022L11.24623,16L12.75377,16L12.75377,11.52022L17.5,9.13661L16.7462,8L12,10.3847L7.253769,8Z" fill="#707C8C" fill-opacity="1" style="mix-blend-mode:passthrough"/><path d="M12,10.16087L7.1851009999999995,7.7416730000000005L6.208635,9.21409L11.046230000000001,11.64358L11.046230000000001,16.2L12.953769999999999,16.2L12.953769999999999,11.64358L17.7914,9.21409L16.8149,7.7416730000000005L12,10.16087ZM7.322437,8.258327L11.91021,10.563410000000001L12,10.60853L16.677599999999998,8.258327L17.2086,9.05913L12.55377,11.39686L12.55377,15.8L11.44623,15.8L11.44623,11.39686L6.791365,9.05913L7.322437,8.258327Z" fill-rule="evenodd" fill="#707C8C" fill-opacity="1"/></g></g></g></svg>