<svg xmlns="http://www.w3.org/2000/svg" xmlns:xlink="http://www.w3.org/1999/xlink" fill="none" version="1.1" width="24" height="24" viewBox="0 0 24 24"><g><g></g><g><g><path d="M11.99999600402832,12.44Q12.13875600402832,12.44,12.27733600402832,12.4331Q12.415926004028321,12.4262,12.55400600402832,12.4125Q12.69209600402832,12.3987,12.82934600402832,12.3781Q12.96659600402832,12.3575,13.102686004028321,12.3301Q13.23876600402832,12.3027,13.37336600402832,12.2686Q13.507956004028319,12.2345,13.64073600402832,12.1937Q13.77351600402832,12.1529,13.90415600402832,12.1056Q14.034796004028319,12.0583,14.16299600402832,12.0046Q14.29118600402832,11.9509,14.41661600402832,11.8908Q14.54204600402832,11.8308,14.66441600402832,11.7646Q14.78678600402832,11.6984,14.90579600402832,11.6262Q15.02480600402832,11.554,15.140176004028321,11.476Q15.25554600402832,11.398,15.366996004028321,11.3143Q15.47844600402832,11.2307,15.58569600402832,11.1416Q15.69295600402832,11.0525,15.79576600402832,10.95824Q15.898576004028321,10.86394,15.996686004028321,10.76465Q16.09480600402832,10.66536,16.187986004028318,10.56132Q16.28116600402832,10.45727,16.36922600402832,10.34873Q16.45722600402832,10.24018,16.53982600402832,10.1274Q16.62252600402832,10.01461,16.69962600402832,9.89786Q16.77672600402832,9.78111,16.84802600402832,9.66067Q16.91932600402832,9.54023,16.98472600402832,9.41639Q17.05022600402832,9.29255,17.109526004028318,9.16562Q17.16882600402832,9.03868,17.22192600402832,8.90895Q17.27502600402832,8.779219999999999,17.32172600402832,8.64701Q17.36852600402832,8.514800000000001,17.40882600402832,8.38043Q17.44902600402832,8.24606,17.48282600402832,8.10985Q17.51652600402832,7.97364,17.543526004028323,7.83592Q17.57062600402832,7.6982,17.591026004028322,7.5593Q17.61132600402832,7.4204,17.62492600402832,7.28066Q17.63852600402832,7.14092,17.64532600402832,7.00067Q17.652126004028318,6.86042,17.652126004028318,6.72Q17.652126004028318,6.57958,17.64532600402832,6.43933Q17.63852600402832,6.29908,17.62492600402832,6.15934Q17.61132600402832,6.0196,17.591026004028322,5.8807Q17.57062600402832,5.7418,17.543526004028323,5.60408Q17.51652600402832,5.46636,17.48282600402832,5.33015Q17.44902600402832,5.19394,17.40882600402832,5.05957Q17.36852600402832,4.9252,17.32172600402832,4.79299Q17.27502600402832,4.66078,17.22192600402832,4.5310500000000005Q17.16882600402832,4.40132,17.109526004028318,4.27438Q17.05022600402832,4.14745,16.98472600402832,4.02361Q16.91932600402832,3.89977,16.84802600402832,3.77933Q16.77672600402832,3.65889,16.69962600402832,3.54214Q16.62252600402832,3.42538,16.53982600402832,3.3126Q16.45722600402832,3.19982,16.36922600402832,3.09127Q16.28116600402832,2.98273,16.187986004028318,2.87868Q16.09480600402832,2.7746399999999998,15.996686004028321,2.67535Q15.898576004028321,2.57606,15.79576600402832,2.48176Q15.69295600402832,2.38746,15.58569600402832,2.29838Q15.47844600402832,2.2093,15.366996004028321,2.1256500000000003Q15.25554600402832,2.0420100000000003,15.140176004028321,1.963994Q15.02480600402832,1.885982,14.90579600402832,1.8137919999999998Q14.78678600402832,1.741603,14.66441600402832,1.6754099999999998Q14.54204600402832,1.609218,14.41661600402832,1.549181Q14.29118600402832,1.489145,14.16299600402832,1.435409Q14.034796004028319,1.381673,13.90415600402832,1.334368Q13.77351600402832,1.287062,13.64073600402832,1.2463009999999999Q13.507956004028319,1.20554,13.37336600402832,1.171421Q13.23876600402832,1.137302,13.102686004028321,1.109908Q12.96659600402832,1.082514,12.82934600402832,1.0619104Q12.69209600402832,1.0413067,12.55400600402832,1.0275434Q12.415926004028321,1.01378,12.27733600402832,1.00688999Q12.13875600402832,1,11.99999600402832,1Q11.86124600402832,1,11.72265600402832,1.00688999Q11.58407600402832,1.01378,11.44598600402832,1.0275434Q11.30790600402832,1.0413067,11.17065600402832,1.0619104Q11.03340600402832,1.082514,10.897316004028319,1.109908Q10.76122600402832,1.137302,10.62663600402832,1.171421Q10.492036004028321,1.20554,10.359256004028321,1.2463009999999999Q10.22648600402832,1.287062,10.095836004028321,1.334368Q9.965196004028321,1.381673,9.837006004028321,1.435409Q9.708816004028321,1.489145,9.58338600402832,1.549181Q9.45795600402832,1.609218,9.33558600402832,1.6754099999999998Q9.21321600402832,1.741603,9.09420600402832,1.8137919999999998Q8.97518600402832,1.885982,8.859816004028321,1.963994Q8.74445600402832,2.0420100000000003,8.63300600402832,2.1256500000000003Q8.52155600402832,2.2093,8.41429600402832,2.29838Q8.30704600402832,2.38746,8.20423600402832,2.48176Q8.10142600402832,2.57606,8.003306004028321,2.67535Q7.90519600402832,2.7746399999999998,7.812016004028321,2.87868Q7.71883600402832,2.98273,7.6308060040283205,3.09127Q7.54278600402832,3.19982,7.46013600402832,3.3126Q7.3774760040283205,3.42538,7.30038900402832,3.54214Q7.22330200402832,3.65889,7.15196900402832,3.77933Q7.08063500402832,3.89977,7.01522700402832,4.02361Q6.949820004028321,4.14745,6.89049500402832,4.27438Q6.83117100402832,4.40132,6.778072004028321,4.5310500000000005Q6.72497400402832,4.66078,6.678229004028321,4.79299Q6.63148500402832,4.9252,6.591207004028321,5.05957Q6.55092900402832,5.19394,6.51721500402832,5.33015Q6.48350000402832,5.46636,6.45643100402832,5.60408Q6.4293615040283205,5.7418,6.4090022040283205,5.8807Q6.388642904028321,6.0196,6.37504280402832,6.15934Q6.36144260402832,6.29908,6.354634294028321,6.43933Q6.34782600402832,6.57958,6.34782600402832,6.72Q6.34782600402832,6.86042,6.354634294028321,7.00067Q6.36144260402832,7.14092,6.37504280402832,7.28066Q6.388642904028321,7.4204,6.4090022040283205,7.5593Q6.4293615040283205,7.6982,6.45643100402832,7.83592Q6.48350000402832,7.97364,6.51721500402832,8.10985Q6.55092900402832,8.24606,6.591207004028321,8.38043Q6.63148500402832,8.514800000000001,6.678229004028321,8.64701Q6.72497400402832,8.779219999999999,6.778072004028321,8.90895Q6.83117100402832,9.03868,6.89049500402832,9.16562Q6.949820004028321,9.29255,7.01522700402832,9.41639Q7.08063500402832,9.54023,7.15196900402832,9.66067Q7.22330200402832,9.78111,7.30038900402832,9.89786Q7.3774760040283205,10.01462,7.46013600402832,10.1274Q7.54278600402832,10.24018,7.6308060040283205,10.34873Q7.71883600402832,10.45728,7.812016004028321,10.56132Q7.90519600402832,10.66536,8.003306004028321,10.76465Q8.10142600402832,10.86394,8.20423600402832,10.95824Q8.30704600402832,11.0525,8.41429600402832,11.1416Q8.52155600402832,11.2307,8.63300600402832,11.3143Q8.74445600402832,11.398,8.859816004028321,11.476Q8.97518600402832,11.554,9.09420600402832,11.6262Q9.21321600402832,11.6984,9.33558600402832,11.7646Q9.45795600402832,11.8308,9.58338600402832,11.8908Q9.708816004028321,11.9509,9.837006004028321,12.0046Q9.965196004028321,12.0583,10.095836004028321,12.1056Q10.22648600402832,12.1529,10.359256004028321,12.1937Q10.492036004028321,12.2345,10.62663600402832,12.2686Q10.76122600402832,12.3027,10.897316004028319,12.3301Q11.03340600402832,12.3575,11.17065600402832,12.3781Q11.30790600402832,12.3987,11.44598600402832,12.4125Q11.58407600402832,12.4262,11.72265600402832,12.4331Q11.86124600402832,12.44,11.99999600402832,12.44ZM14.574066004028321,4.0811Q15.65217600402832,5.17215,15.65217600402832,6.72Q15.65217600402832,8.26785,14.574066004028321,9.3589Q13.50578600402832,10.44,11.99999600402832,10.44Q10.49421600402832,10.44,9.42593600402832,9.3589Q8.34782600402832,8.26785,8.34782600402832,6.72Q8.34782600402832,5.17215,9.42593600402832,4.0811Q10.49421600402832,3,11.99999600402832,3Q13.50578600402832,3,14.574066004028321,4.0811Z" fill-rule="evenodd" fill="#707C8C" fill-opacity="1"/></g><g><path d="M4.2028300000000005,14.8453595803833Q1,18.2275495803833,1,22.999999580383303Q1,23.0984995803833,1.019215,23.1950995803833Q1.03843,23.291699580383302,1.076121,23.382699580383303Q1.113812,23.4736995803833,1.16853,23.5555995803833Q1.223249,23.6374995803833,1.2928929999999998,23.7070995803833Q1.362537,23.7766995803833,1.44443,23.8314995803833Q1.526322,23.8861995803833,1.617317,23.9238995803833Q1.7083110000000001,23.9615995803833,1.80491,23.9807995803833Q1.9015086,23.999999580383303,2,23.999999580383303Q2.0984914,23.999999580383303,2.19509,23.9807995803833Q2.291689,23.9615995803833,2.382683,23.9238995803833Q2.473678,23.8861995803833,2.55557,23.8314995803833Q2.637463,23.7766995803833,2.707107,23.7070995803833Q2.776751,23.6374995803833,2.83147,23.5555995803833Q2.8861879999999998,23.4736995803833,2.923879,23.382699580383303Q2.96157,23.291699580383302,2.980785,23.1950995803833Q3,23.0984995803833,3,22.999999580383303Q3,19.0242595803833,5.65503,16.2205395803833Q8.28812,13.4399995803833,12,13.4399995803833Q15.7119,13.4399995803833,18.345,16.2205395803833Q21,19.0242595803833,21,22.999999580383303Q21,23.0984995803833,21.0192,23.1950995803833Q21.0384,23.291699580383302,21.0761,23.382699580383303Q21.1138,23.4736995803833,21.1685,23.5555995803833Q21.2232,23.6374995803833,21.2929,23.7070995803833Q21.3625,23.7766995803833,21.4444,23.8314995803833Q21.5263,23.8861995803833,21.6173,23.9238995803833Q21.7083,23.9615995803833,21.8049,23.9807995803833Q21.9015,23.999999580383303,22,23.999999580383303Q22.0985,23.999999580383303,22.1951,23.9807995803833Q22.2917,23.9615995803833,22.3827,23.9238995803833Q22.4737,23.8861995803833,22.5556,23.8314995803833Q22.6375,23.7766995803833,22.7071,23.7070995803833Q22.7767,23.6374995803833,22.8315,23.5555995803833Q22.8862,23.4736995803833,22.9239,23.382699580383303Q22.9616,23.291699580383302,22.9808,23.1950995803833Q23,23.0984995803833,23,22.999999580383303Q23,18.2275595803833,19.7972,14.8453595803833Q16.572400000000002,11.4399995803833,12,11.4400005803833Q7.42761,11.4399995803833,4.2028300000000005,14.8453595803833Z" fill-rule="evenodd" fill="#707C8C" fill-opacity="1"/></g></g></g></svg>