<svg xmlns="http://www.w3.org/2000/svg" xmlns:xlink="http://www.w3.org/1999/xlink" fill="none" version="1.1" width="160" height="160" viewBox="0 0 160 160"><defs><linearGradient x1="0.5" y1="0" x2="0.5" y2="1" id="master_svg0_176_67074"><stop offset="0%" stop-color="#18E8FF" stop-opacity="1"/><stop offset="100%" stop-color="#1890FF" stop-opacity="1"/></linearGradient><clipPath id="master_svg1_464_40079"><rect x="50" y="29" width="60" height="60" rx="0"/></clipPath></defs><g><g><g><ellipse cx="80" cy="80" rx="80" ry="80" fill="url(#master_svg0_176_67074)" fill-opacity="1"/></g><g><path d="M44.96,102.336L49.976,102.336L49.976,104.424L44.96,104.424L44.96,102.336ZM42.992000000000004,100.68L42.992000000000004,106.08L52.064,106.08L52.064,100.68L42.992000000000004,100.68ZM42.416,108.648L45.056,108.648L45.056,110.976L42.416,110.976L42.416,108.648ZM49.832,108.648L52.568,108.648L52.568,110.976L49.832,110.976L49.832,108.648ZM35.552,99.7335L35.552,104.44800000000001L33.032,104.44800000000001L33.032,106.56L35.552,106.56L35.552,111.408C34.496,111.768,33.536,112.08,32.744,112.29599999999999L33.296,114.48L35.552,113.664L35.552,119.44800000000001C35.552,119.736,35.48,119.80799999999999,35.216,119.80799999999999C35,119.80799999999999,34.328,119.832,33.584,119.80799999999999C33.848,120.384,34.112,121.27199999999999,34.184,121.824C35.456,121.824,36.32,121.752,36.896,121.416C37.496,121.08,37.688,120.504,37.688,119.44800000000001L37.688,112.896L39.992,112.032L39.632,110.01599999999999L37.688,110.688L37.688,106.56L39.848,106.56L39.848,104.44800000000001L37.688,104.44800000000001L37.688,99.73425L35.552,99.7335ZM40.304,114.24L40.304,116.112L45.2,116.112C43.568,117.72,41.072,119.112,38.624,119.80799999999999C39.104,120.21600000000001,39.728,121.032,40.04,121.56C42.368,120.744,44.672,119.304,46.4,117.52799999999999L46.4,122.06700000000001L48.56,122.06700000000001L48.56,117.432C50.024,119.088,51.992000000000004,120.55199999999999,53.888000000000005,121.368C54.224000000000004,120.816,54.848,120.024,55.328,119.64C53.263999999999996,118.944,51.08,117.576,49.688,116.112L54.92,116.112L54.92,114.24L48.56,114.24L48.56,112.584L54.44,112.584L54.44,107.064L48.056,107.064L48.056,112.536L46.88,112.536L46.88,107.064L40.688,107.064L40.688,112.584L46.4,112.584L46.4,114.24L40.304,114.24ZM68.50399999999999,99.999C67.352,103.4876,65.432,106.992,63.296,109.2C63.8,109.56,64.688,110.352,65.024,110.76C66.2,109.464,67.328,107.76,68.336,105.888L69.68,105.888L69.68,122.0265L72.00800000000001,122.0265L72.00800000000001,116.376L78.944,116.376L78.944,114.24L72.00800000000001,114.24L72.00800000000001,111.024L78.608,111.024L78.608,108.936L72.00800000000001,108.936L72.00800000000001,105.888L79.184,105.888L79.184,103.70400000000001L69.44,103.70400000000001C69.896,102.6698,70.328,101.61112,70.712,100.5525L68.50399999999999,99.999ZM62.480000000000004,99.83063C61.184,103.3913,59.024,106.896,56.72,109.176C57.128,109.70400000000001,57.775999999999996,110.976,57.992000000000004,111.52799999999999C58.664,110.832,59.336,110.03999999999999,59.984,109.152L59.984,122.0025L62.288,122.0025L62.288,105.576C63.2,103.944,64.01599999999999,102.2126,64.688,100.50413L62.480000000000004,99.83063ZM90.632,100.872L90.632,113.64L92.816,113.64L92.816,102.84L99.728,102.84L99.728,113.64L102.008,113.64L102.008,100.872L90.632,100.872ZM95.12,104.496L95.12,108.792C95.12,112.536,94.424,117.19200000000001,88.328,120.36C88.78399999999999,120.696,89.52799999999999,121.584,89.792,122.0438C93.056,120.336,94.928,118.032,96.008,115.608L96.008,119.4C96.008,121.176,96.728,121.68,98.504,121.68L100.472,121.68C102.704,121.68,103.016,120.624,103.256,116.88C102.704,116.736,101.984,116.44800000000001,101.432,116.01599999999999C101.36,119.328,101.216,120,100.472,120L98.888,120C98.312,120,98.12,119.80799999999999,98.12,119.136L98.12,113.4L96.776,113.4C97.184,111.816,97.304,110.256,97.304,108.84L97.304,104.496L95.12,104.496ZM83.456,100.77563C84.24799999999999,101.688,85.112,102.936,85.52000000000001,103.824L81.416,103.824L81.416,105.888L86.888,105.888C85.52000000000001,108.816,83.168,111.6,80.816,113.184C81.128,113.64,81.608,114.84,81.77600000000001,115.488C82.616,114.864,83.456,114.096,84.27199999999999,113.232L84.27199999999999,121.9954L86.432,121.9954L86.432,112.08C87.2,113.112,88.01599999999999,114.264,88.44800000000001,115.008L89.888,113.208C89.456,112.70400000000001,87.848,110.832,86.96000000000001,109.848C88.03999999999999,108.21600000000001,88.976,106.416,89.624,104.568L88.424,103.728L88.01599999999999,103.824L85.832,103.824L87.464,102.816C87.032,101.952,86.12,100.70325,85.208,99.78563L83.456,100.77563ZM120.68,108.21600000000001C120.632,116.4004,120.44,118.99719999999999,114.728,120.5119C115.112,120.8966,115.64,121.6418,115.808,122.1229C122.072,120.3435,122.504,117.0255,122.528,108.21600000000001L120.68,108.21600000000001ZM121.4,118.1554C122.984,119.3336,125.024,121.0166,125.984,122.0749L127.328,120.6803C126.296,119.6224,124.208,118.0114,122.672,116.9051L121.4,118.1554ZM106.904,110.424C106.448,112.152,105.704,113.952,104.744,115.152C105.2,115.392,106.016,115.896,106.376,116.184C107.36,114.864,108.272,112.824,108.8,110.832L106.904,110.424ZM116.96,105.432L116.96,116.7611L118.856,116.7611L118.856,107.16L124.28,107.16L124.28,116.6887L126.272,116.6887L126.272,105.432L122.048,105.432L122.96,103.104L126.872,103.104L126.872,101.136L116.384,101.136L116.384,103.104L120.8,103.104C120.584,103.872,120.272,104.712,120.008,105.432L116.96,105.432ZM114.056,110.712C113.552,112.776,112.832,114.504,111.776,115.92L111.776,109.08L116.072,109.08L116.072,107.064L112.208,107.064L112.208,104.424L115.52,104.424L115.52,102.528L112.208,102.528L112.208,99.711L110.192,99.711L110.192,107.064L108.32,107.064L108.32,101.82975L106.496,101.82975L106.496,107.064L104.84,107.064L104.84,109.08L109.688,109.08L109.688,116.352L111.44,116.352C109.928,118.2278,107.816,119.526,104.96,120.3435C105.416,120.8002,105.896,121.5457,106.112,122.0989C111.704,120.2231,114.656,116.8571,116,111.144L114.056,110.712Z" fill="#FFFFFF" fill-opacity="1"/></g></g><g clip-path="url(#master_svg1_464_40079)"><g><path d="M109.72999999999999,47.8097265625C109.1,46.489726562499996,107.50999999999999,45.949726562500004,106.22,46.6097265625L96.95,51.3497265625L96.95,46.0097265625C96.95,41.5697265625,93.44,37.9697265625,89.12,37.9697265625L57.83,37.9697265625C53.51,37.9997260625,50,41.5997265625,50,46.0097265625L50,72.7697265625C50,77.20972656250001,53.51,80.7797265625,57.83,80.7797265625L89.12,80.7797265625C93.44,80.7797265625,96.95,77.17972656250001,96.95,72.7697265625L96.95,67.42972656250001L106.22,72.1697265625C106.58,72.3497265625,106.97,72.4397265625,107.39,72.4397265625C108.83,72.4397265625,110,71.23972656250001,110,69.7697265625L110,49.0097265625C110,48.5897265625,109.91,48.199726562500004,109.72999999999999,47.8097265625ZM80.96000000000001,60.8897265625C80.72,61.339726562500005,80.39,61.699726562500004,79.97,61.9397265625L69.56,68.3897265625C68.3,69.1697265625,66.71000000000001,68.6897265625,65.99,67.3097265625C65.75,66.8597265625,65.66,66.3797265625,65.66,65.8997265625L65.66,52.8797265625C65.66,51.2897265625,66.83,50.0297265625,68.27,50.0297265625C68.72,50.0297265625,69.17,50.1497265625,69.56,50.4197265625L80,56.959726562499995C81.26,57.7697265625,81.68,59.5097265625,80.96000000000001,60.8897265625Z" fill="#FFFFFF" fill-opacity="1" style="mix-blend-mode:passthrough"/></g></g></g></svg>