<svg xmlns="http://www.w3.org/2000/svg" xmlns:xlink="http://www.w3.org/1999/xlink" fill="none" version="1.1" width="330" height="286" viewBox="0 0 330 286"><defs><linearGradient x1="0.5" y1="0" x2="0.5" y2="1" id="master_svg0_105_2459"><stop offset="0%" stop-color="#00071F" stop-opacity="1"/><stop offset="100%" stop-color="#00071F" stop-opacity="0.6000000238418579"/></linearGradient><linearGradient x1="0.5" y1="0" x2="0.5" y2="1" id="master_svg1_107_8354"><stop offset="0%" stop-color="#4388FF" stop-opacity="0.20000000298023224"/><stop offset="100%" stop-color="#005EFF" stop-opacity="0.10000000149011612"/></linearGradient><linearGradient x1="0.5" y1="0" x2="0.5" y2="1" id="master_svg2_105_2459"><stop offset="0%" stop-color="#FFFFFF" stop-opacity="1"/><stop offset="100%" stop-color="#FFFFFF" stop-opacity="0.6000000238418579"/></linearGradient><mask id="master_svg3_191_04299" style="mask-type:alpha" maskUnits="userSpaceOnUse"><g><rect x="0" y="0" width="329.9999694824219" height="286" rx="16" fill="url(#master_svg2_105_2459)" fill-opacity="1"/></g></mask><filter id="master_svg4_191_04300" filterUnits="objectBoundingBox" color-interpolation-filters="sRGB" x="-306" y="-306" width="736.5918273925781" height="721.1292114257812"><feFlood flood-opacity="0" result="BackgroundImageFix"/><feBlend mode="normal" in="SourceGraphic" in2="BackgroundImageFix" result="shape"/><feGaussianBlur stdDeviation="76.5" result="effect1_foregroundBlur"/></filter></defs><g><g><g><rect x="0" y="0" width="330" height="286" rx="16" fill="url(#master_svg0_105_2459)" fill-opacity="1"/><rect x="2" y="2" width="326" height="282" rx="14" stroke="url(#master_svg1_107_8354)" fill-opacity="0" fill="none" stroke-width="4"/></g><g mask="url(#master_svg3_191_04299)"><g filter="url(#master_svg4_191_04300)"><ellipse cx="165.56121826171875" cy="17.205059051513672" rx="62.29591369628906" ry="54.564605712890625" fill="#FF980A" fill-opacity="1"/></g></g><g><path d="M113.188,221.5091C111.928,224.0308,109.624,227.0925,107.248,229.0382C107.86,229.4342,108.724,230.1548,109.156,230.6593C111.568,228.5336,113.98,225.4714,115.636,222.5897L113.188,221.5091ZM119.884,222.7337C122.26,225.0394,124.924,228.2816,126.112,230.4428L128.128,228.7856C126.904,226.69650000000001,124.132,223.5623,121.756,221.2926L119.884,222.7337ZM114.664,213.50419C115.78,214.83956,116.968,216.75263,117.508,218.052L108.4,218.052L108.4,220.572L128.164,220.572L128.164,218.052L117.688,218.052L119.956,216.96919C119.416,215.70580999999999,118.156,213.90131,116.932,212.52938L114.664,213.50419ZM121.36,227.8491C120.604,230.7313,119.38,233.289,117.76,235.5581C115.996,233.325,114.592,230.7673,113.62,227.9931L111.244,228.6416C112.432,231.9919,114.05199999999999,235.0541,116.068,237.6478C113.69200000000001,240.2055,110.668,242.2946,106.996,243.8797C107.572,244.3483,108.364,245.3569,108.724,245.9334C112.36,244.3123,115.384,242.2226,117.79599999999999,239.6649C120.316,242.2946,123.34,244.3483,126.904,245.6814C127.336,244.9249,128.128,243.8078,128.776,243.2677C125.176,242.1146,122.08,240.1335,119.56,237.57580000000002C121.53999999999999,234.9821,122.98,231.95589999999999,123.988,228.4976L121.36,227.8491ZM100.94800000000001,212.74594L100.94800000000001,220.392L96.268,220.392L96.268,222.912L100.48,222.912C99.436,227.8479,97.276,233.6484,95.08,236.6747C95.548,237.3227,96.232,238.5118,96.484,239.23239999999998C98.14,236.7467,99.76,232.6033,100.94800000000001,228.3885L100.94800000000001,245.8614L103.432,245.8614L103.432,227.8839C104.44,229.8296,105.592,232.2433,106.096,233.5039L107.716,231.45080000000002C107.068,230.3336,104.29599999999999,225.5423,103.432,224.3897L103.432,222.912L107.5,222.912L107.5,220.392L103.432,220.392L103.432,212.74538L100.94800000000001,212.74594ZM146.848,223.92L146.848,226.26L159.05200000000002,226.26L159.05200000000002,223.92L146.848,223.92ZM144.292,230.22C145.3,232.956,146.308,236.556,146.596,238.932L148.828,238.284C148.504,235.98,147.496,232.416,146.416,229.68L144.292,230.22ZM151.276,229.212C151.924,231.948,152.536,235.512,152.716,237.888L154.984,237.492C154.768,235.152,154.12,231.66,153.4,228.924L151.276,229.212ZM136.44400000000002,212.74538L136.44400000000002,219.6L131.764,219.6L131.764,222.12L136.192,222.12C135.22,226.872,133.204,232.452,131.188,235.404C131.62,236.052,132.268,237.24,132.55599999999998,238.032C133.996,235.8,135.364,232.2,136.44400000000002,228.456L136.44400000000002,245.85410000000002L138.928,245.85410000000002L138.928,227.088C139.864,228.852,140.90800000000002,230.94,141.376,232.056L142.996,230.148C142.45600000000002,229.068,139.756,224.82,138.928,223.596L138.928,222.12L142.672,222.12L142.672,219.6L138.928,219.6L138.928,212.74538L136.44400000000002,212.74538ZM152.464,212.49281C150.016,217.58006,145.732,222.156,141.196,224.928C141.7,225.468,142.492,226.62,142.816,227.16C146.488,224.60399999999998,150.088,221.004,152.824,216.85838C155.596,220.464,159.736,224.352,163.372,226.764C163.66,226.044,164.272,224.964,164.776,224.316C161.10399999999998,222.156,156.60399999999998,218.19319,154.12,214.69388L154.84,213.35906L152.464,212.49281ZM142.348,241.74L142.348,244.152L163.768,244.152L163.768,241.74L157.144,241.74C159.01600000000002,238.356,161.176,233.46,162.688,229.572L160.312,228.924C159.05200000000002,232.776,156.784,238.284,154.84,241.74L142.348,241.74ZM169.852,215.343C171.796,217.00238,174.244,219.3474,175.43200000000002,220.86L177.232,218.87831C176.07999999999998,217.3995,173.56,215.16244,171.57999999999998,213.57506L169.852,215.343ZM182.344,213.79163C183.56799999999998,215.63156,184.9,218.08463,185.404,219.636L187.888,218.58975C187.348,217.03838,185.98000000000002,214.69331,184.72,212.88994L182.344,213.79163ZM172.732,245.1746L172.732,245.1386C173.272,244.4169,174.244,243.62380000000002,180.076,239.0074C179.788,238.5028,179.392,237.4926,179.14,236.736L175.576,239.4399L175.576,224.064L167.44,224.064L167.44,226.692L173.01999999999998,226.692L173.01999999999998,239.7285C173.01999999999998,241.4959,171.904,242.6861,171.256,243.2267C171.724,243.62380000000002,172.48000000000002,244.5975,172.732,245.1746ZM195.736,212.63738C194.94400000000002,214.76588,193.612,217.65206,192.352,219.672L180.364,219.672L180.364,222.156L188.68,222.156L188.68,227.124L181.48000000000002,227.124L181.48000000000002,229.608L188.68,229.608L188.68,234.684L179.5,234.684L179.5,237.24L188.68,237.24L188.68,245.8597L191.38,245.8597L191.38,237.24L200.308,237.24L200.308,234.684L191.38,234.684L191.38,229.608L198.364,229.608L198.364,227.124L191.38,227.124L191.38,222.156L199.51600000000002,222.156L199.51600000000002,219.672L195.232,219.672C196.312,217.86863,197.5,215.59556,198.47199999999998,213.57506L195.736,212.63738ZM207.47199999999998,212.76L207.47199999999998,245.8614L209.92000000000002,245.8614L209.92000000000002,212.76L207.47199999999998,212.76ZM204.628,219.699C204.412,222.5098,203.836,226.5103,202.97199999999998,228.96L205.096,229.68C205.924,226.98,206.5,222.804,206.644,219.96L204.628,219.699ZM210.244,218.736C211,220.428,211.828,222.696,212.152,224.064L214.06,223.128C213.7,221.832,212.836,219.672,212.04399999999998,218.016L210.244,218.736ZM218.05599999999998,235.44L231.088,235.44L231.088,238.176L218.05599999999998,238.176L218.05599999999998,235.44ZM218.05599999999998,233.388L218.05599999999998,230.688L231.088,230.688L231.088,233.388L218.05599999999998,233.388ZM223.24,212.74819L223.24,215.568L214.024,215.568L214.024,217.656L223.24,217.656L223.24,219.96L214.888,219.96L214.888,221.94L223.24,221.94L223.24,224.424L212.94400000000002,224.424L212.94400000000002,226.512L236.488,226.512L236.488,224.424L225.904,224.424L225.904,221.94L234.508,221.94L234.508,219.96L225.904,219.96L225.904,217.656L235.408,217.656L235.408,215.568L225.904,215.568L225.904,212.74819L223.24,212.74819ZM215.536,228.6L215.536,245.8457L218.05599999999998,245.8457L218.05599999999998,240.228L231.088,240.228L231.088,242.82C231.088,243.252,230.908,243.39600000000002,230.44,243.43200000000002C229.936,243.46800000000002,228.208,243.46800000000002,226.372,243.39600000000002C226.696,244.04399999999998,227.056,245.052,227.164,245.736C229.72,245.736,231.34,245.736,232.348,245.304C233.356,244.90800000000002,233.644,244.188,233.644,242.856L233.644,228.6L215.536,228.6Z" fill="#EEF5FF" fill-opacity="1"/></g><g><g><ellipse cx="166" cy="104" rx="50" ry="50" fill="#FF980A" fill-opacity="1"/></g><g><g><path d="M188.06924149475097,104.43981445007324C188.06924149475097,90.87471445007324,177.05004149475099,79.87301445007324,163.46324149475097,79.87301445007324C149.876341494751,79.87301445007324,138.85714149475098,90.87471445007324,138.85714149475098,104.43981445007324C138.85714149475098,118.00491445007324,149.876341494751,129.00661445007324,163.46324149475097,129.00661445007324C168.70534149475097,129.00661445007324,173.51964149475097,127.40441445007323,177.47794149475098,124.62731445007324L182.59084149475098,129.73201445007325C183.37164149475097,130.51161445007324,184.63624149475098,130.51161445007324,185.41704149475098,129.73201445007325L185.58184149475096,129.56741445007324C186.364341494751,128.78611445007323,186.364341494751,127.51811445007324,185.58184149475096,126.73681445007324L180.79444149475097,121.95701445007325C185.28774149475097,117.36411445007325,188.06924149475097,111.27581445007324,188.06924149475097,104.43981445007324ZM177.37094149475098,107.21691445007325L172.66374149475098,107.21691445007325C171.80784149475096,107.21691445007325,170.95204149475097,106.68291445007324,170.63104149475097,105.82841445007324L169.454241494751,102.62401445007325L164.96094149475098,112.55751445007324C164.640041494751,113.30521445007324,163.89114149475097,113.83931445007323,163.03524149475098,113.83931445007323C162.17944149475096,113.83931445007323,161.43054149475097,113.30521445007324,161.10954149475097,112.55751445007324L158.22104149475098,106.36241445007325L156.72324149475097,110.10081445007324C156.40234149475097,110.95531445007325,155.65344149475098,111.48941445007324,154.690641494751,111.48941445007324L149.55544149475097,111.48941445007324L149.55544149475097,107.21691445007325L153.29984149475098,107.21691445007325L156.08134149475097,100.27411445007324C156.40234149475097,99.52641445007325,157.151241494751,98.99241445007324,158.00704149475098,98.88561445007323C158.86294149475097,98.88561445007323,159.611841494751,99.31281445007325,160.03974149475098,100.16731445007323L163.03524149475098,106.68291445007324L167.63554149475098,96.32211445007324C167.95644149475098,95.57441445007325,168.81234149475097,95.04031445007324,169.668241494751,95.04031445007324C170.52404149475097,95.04031445007324,171.27294149475097,95.57441445007325,171.593941494751,96.42891445007325L174.16154149475096,103.05121445007325L177.37094149475098,103.05121445007325L177.37094149475098,107.21691445007325Z" fill="#FFFFFF" fill-opacity="0.30000001192092896"/></g><g><path d="M194.0952157684326,101.42394149475098C194.0952157684326,87.85884149475098,183.07601576843263,76.85714149475098,169.48921576843262,76.85714149475098C155.90231576843263,76.85714149475098,144.88311576843262,87.85884149475098,144.88311576843262,101.42394149475098C144.88311576843262,114.98904149475098,155.90231576843263,125.99074149475098,169.48921576843262,125.99074149475098C174.7313157684326,125.99074149475098,179.5456157684326,124.38854149475097,183.50391576843262,121.61144149475098L188.61681576843262,126.71614149475099C189.39761576843262,127.49574149475097,190.66221576843262,127.49574149475097,191.44301576843262,126.71614149475099L191.6078157684326,126.55154149475098C192.39031576843263,125.77024149475098,192.39031576843263,124.50224149475098,191.6078157684326,123.72094149475097L186.8204157684326,118.94114149475098C191.31371576843262,114.34824149475098,194.0952157684326,108.25994149475098,194.0952157684326,101.42394149475098ZM183.39691576843262,104.20104149475098L178.68971576843262,104.20104149475098C177.8338157684326,104.20104149475098,176.9780157684326,103.66704149475098,176.65701576843261,102.81254149475097L175.48021576843263,99.60814149475098L170.98691576843262,109.54164149475098C170.66601576843263,110.28934149475097,169.9171157684326,110.82344149475097,169.06121576843262,110.82344149475097C168.2054157684326,110.82344149475097,167.4565157684326,110.28934149475097,167.1355157684326,109.54164149475098L164.24701576843262,103.34654149475098L162.7492157684326,107.08494149475098C162.4283157684326,107.93944149475098,161.67941576843262,108.47354149475098,160.71661576843263,108.47354149475098L155.5814157684326,108.47354149475098L155.5814157684326,104.20104149475098L159.32581576843262,104.20104149475098L162.1073157684326,97.25824149475098C162.4283157684326,96.51054149475098,163.17721576843263,95.97654149475098,164.03301576843262,95.86974149475097C164.8889157684326,95.86974149475097,165.63781576843263,96.29694149475098,166.06571576843263,97.15144149475097L169.06121576843262,103.66704149475098L173.66151576843262,93.30624149475098C173.98241576843262,92.55854149475098,174.8383157684326,92.02444149475097,175.69421576843263,92.02444149475097C176.55001576843262,92.02444149475097,177.2989157684326,92.55854149475098,177.61991576843263,93.41304149475098L180.1875157684326,100.03534149475098L183.39691576843262,100.03534149475098L183.39691576843262,104.20104149475098Z" fill="#FFFFFF" fill-opacity="1"/></g></g></g></g></g></svg>