<svg xmlns="http://www.w3.org/2000/svg" xmlns:xlink="http://www.w3.org/1999/xlink" fill="none" version="1.1" width="330" height="286" viewBox="0 0 330 286"><defs><linearGradient x1="0.5" y1="0" x2="0.5" y2="1" id="master_svg0_105_2459"><stop offset="0%" stop-color="#00071F" stop-opacity="1"/><stop offset="100%" stop-color="#00071F" stop-opacity="0.6000000238418579"/></linearGradient><linearGradient x1="0.5" y1="0" x2="0.5" y2="1" id="master_svg1_107_8354"><stop offset="0%" stop-color="#4388FF" stop-opacity="0.20000000298023224"/><stop offset="100%" stop-color="#005EFF" stop-opacity="0.10000000149011612"/></linearGradient><linearGradient x1="0.5" y1="0" x2="0.5" y2="1" id="master_svg2_105_2459"><stop offset="0%" stop-color="#FFFFFF" stop-opacity="1"/><stop offset="100%" stop-color="#FFFFFF" stop-opacity="0.6000000238418579"/></linearGradient><mask id="master_svg3_191_04284" style="mask-type:alpha" maskUnits="userSpaceOnUse"><g><rect x="0" y="0" width="329.9999694824219" height="286" rx="16" fill="url(#master_svg2_105_2459)" fill-opacity="1"/></g></mask><filter id="master_svg4_191_04285" filterUnits="objectBoundingBox" color-interpolation-filters="sRGB" x="-306" y="-306" width="736.5918273925781" height="721.1292114257812"><feFlood flood-opacity="0" result="BackgroundImageFix"/><feBlend mode="normal" in="SourceGraphic" in2="BackgroundImageFix" result="shape"/><feGaussianBlur stdDeviation="76.5" result="effect1_foregroundBlur"/></filter></defs><g><g><rect x="0" y="0" width="330" height="286" rx="16" fill="url(#master_svg0_105_2459)" fill-opacity="1"/><rect x="2" y="2" width="326" height="282" rx="14" stroke="url(#master_svg1_107_8354)" fill-opacity="0" fill="none" stroke-width="4"/></g><g mask="url(#master_svg3_191_04284)"><g filter="url(#master_svg4_191_04285)"><ellipse cx="165.56121826171875" cy="17.205059051513672" rx="62.29591369628906" ry="54.564605712890625" fill="#0066EC" fill-opacity="1"/></g></g><g><path d="M111.97200000000001,218.288L120.288,218.288L120.288,222.068L111.97200000000001,222.068L111.97200000000001,218.288ZM109.596,216.236L109.596,224.12L122.77199999999999,224.12L122.77199999999999,216.236L109.596,216.236ZM108.12,227.72L112.872,227.72L112.872,231.824L108.12,231.824L108.12,227.72ZM119.28,227.72L124.176,227.72L124.176,231.824L119.28,231.824L119.28,227.72ZM98.724,214.74538L98.724,222.032L94.656,222.032L94.656,224.552L98.724,224.552L98.724,232.436C97.068,233.012,95.556,233.516,94.332,233.912L95.016,236.504L98.724,235.1L98.724,244.712C98.724,245.144,98.616,245.252,98.22,245.252C97.896,245.252,96.816,245.288,95.592,245.252C95.952,245.936,96.276,247.052,96.384,247.664C98.22,247.664,99.408,247.59199999999998,100.2,247.196C100.992,246.764,101.28,246.07999999999998,101.28,244.712L101.28,234.128L104.844,232.76L104.412,230.348L101.28,231.5L101.28,224.552L104.628,224.552L104.628,222.032L101.28,222.032L101.28,214.74538L98.724,214.74538ZM114.816,233.84L114.816,236.576L105.312,236.576L105.312,238.844L113.124,238.844C110.64,241.508,106.716,243.812,102.972,244.964C103.512,245.46800000000002,104.304,246.44,104.664,247.088C108.336,245.756,112.188,243.272,114.816,240.32L114.816,247.9188L117.372,247.9188L117.372,240.14C119.64,242.876,122.988,245.43200000000002,126.048,246.764C126.47999999999999,246.11599999999999,127.23599999999999,245.18,127.812,244.676C124.644,243.56,121.188,241.292,118.992,238.844L127.23599999999999,238.844L127.23599999999999,236.576L117.372,236.576L117.372,233.84L126.444,233.84L126.444,225.74L117.12,225.74L117.12,233.84L115.068,233.84L115.068,225.74L105.996,225.74L105.996,233.84L114.816,233.84ZM147.936,215.17906C146.136,220.48344,143.22,225.704,139.98,229.088C140.59199999999998,229.52,141.636,230.456,142.06799999999998,230.924C143.904,228.90800000000002,145.668,226.28,147.216,223.364L149.7,223.364L149.7,247.8597L152.436,247.8597L152.436,239.096L163.272,239.096L163.272,236.54L152.436,236.54L152.436,231.068L162.804,231.068L162.804,228.584L152.436,228.584L152.436,223.364L163.632,223.364L163.632,220.772L148.512,220.772C149.268,219.18463,149.952,217.52469,150.528,215.86475L147.936,215.17906ZM139.26,214.88994C137.244,220.37544,133.86,225.776,130.296,229.268C130.8,229.88,131.59199999999998,231.356,131.88,231.968C133.10399999999998,230.708,134.292,229.268,135.44400000000002,227.684L135.44400000000002,247.8237L138.144,247.8237L138.144,223.436C139.548,220.988,140.844,218.31838,141.852,215.68419L139.26,214.88994ZM195.132,216.87387999999999C192.39600000000002,218.10013,187.824,219.36294,183.54000000000002,220.26463L183.54000000000002,214.88938L180.876,214.88938L180.876,225.128C180.876,228.26,181.99200000000002,229.052,186.168,229.052C187.03199999999998,229.052,193.656,229.052,194.55599999999998,229.052C198.12,229.052,199.01999999999998,227.864,199.416,223.04C198.66,222.89600000000002,197.50799999999998,222.464,196.93200000000002,222.068C196.716,225.956,196.392,226.60399999999998,194.412,226.60399999999998C192.97199999999998,226.60399999999998,187.392,226.60399999999998,186.312,226.60399999999998C183.97199999999998,226.60399999999998,183.54000000000002,226.352,183.54000000000002,225.128L183.54000000000002,222.5C188.22,221.5994,193.548,220.37263,197.184,218.89381L195.132,216.87387999999999ZM183.43200000000002,240.176L195.168,240.176L195.168,243.95600000000002L183.43200000000002,243.95600000000002L183.43200000000002,240.176ZM183.43200000000002,237.98L183.43200000000002,234.38L195.168,234.38L195.168,237.98L183.43200000000002,237.98ZM180.876,232.076L180.876,247.8536L183.43200000000002,247.8536L183.43200000000002,246.188L195.168,246.188L195.168,247.709L197.832,247.709L197.832,232.076L180.876,232.076ZM171.624,214.74538L171.624,222.032L166.584,222.032L166.584,224.588L171.624,224.588L171.624,232.328L166.11599999999999,233.84L166.90800000000002,236.468L171.624,235.064L171.624,244.712C171.624,245.216,171.40800000000002,245.36,170.94,245.39600000000002C170.47199999999998,245.39600000000002,168.99599999999998,245.39600000000002,167.34,245.36C167.664,246.07999999999998,168.06,247.196,168.168,247.844C170.57999999999998,247.88060000000002,172.01999999999998,247.772,172.99200000000002,247.376C173.928,246.94400000000002,174.252,246.224,174.252,244.676L174.252,234.272L179.04000000000002,232.796L178.716,230.276L174.252,231.572L174.252,224.588L178.536,224.588L178.536,222.032L174.252,222.032L174.252,214.74538L171.624,214.74538ZM212.412,228.44C213.312,229.772,214.248,231.572,214.572,232.796L216.84,232.004C216.44400000000002,230.816,215.50799999999998,229.016,214.536,227.756L212.412,228.44ZM217.488,214.74763L217.488,218.36L203.16,218.36L203.16,220.916L217.488,220.916L217.488,224.732L205.10399999999998,224.732L205.10399999999998,247.844L207.84,247.844L207.84,227.216L230.232,227.216L230.232,244.712C230.232,245.288,230.052,245.46800000000002,229.404,245.504C228.792,245.54,226.56,245.576,224.292,245.46800000000002C224.688,246.152,225.084,247.16,225.228,247.88C228.18,247.88,230.232,247.88,231.42,247.448C232.608,247.052,232.968,246.332,232.968,244.712L232.968,224.732L220.476,224.732L220.476,220.916L234.876,220.916L234.876,218.36L220.476,218.36L220.476,214.74763L217.488,214.74763ZM223.392,227.684C222.852,229.16,221.736,231.356,220.90800000000002,232.832L210.576,232.832L210.576,235.028L217.596,235.028L217.596,238.664L209.82,238.664L209.82,240.932L217.596,240.932L217.596,247.196L220.188,247.196L220.188,240.932L228.288,240.932L228.288,238.664L220.188,238.664L220.188,235.028L227.64,235.028L227.64,232.832L223.248,232.832C224.076,231.536,224.94,229.952,225.732,228.404L223.392,227.684Z" fill="#EEF5FF" fill-opacity="1"/></g><g><g><ellipse cx="166" cy="104" rx="50" ry="50" fill="#0066EC" fill-opacity="1"/></g><g><g><path d="M135.58202572998047,103.7096C133.47941072998046,103.4454,133.04623572998048,100.5921,134.97596572998046,99.7176L180.2681357299805,79.191997C181.80713572998047,78.494545,183.49923572998046,79.804318,183.20623572998048,81.46621L175.13023572998048,127.26509999999999C174.78603572998048,129.21710000000002,172.17263572998047,129.648,171.21813572998047,127.9101L161.99223572998048,111.1118L167.36363572998047,99.9803L157.69323572998047,106.4887L135.58202572998047,103.7096Z" fill-rule="evenodd" fill="#FFFFFF" fill-opacity="0.20000000298023224"/></g><g><path d="M144.1489221685791,104.18679627027512C142.0463071685791,103.92749627027511,141.6131321685791,101.12809627027511,143.5428621685791,100.27009627027512L188.83503216857912,80.13177127027511C190.3740321685791,79.44747827027511,192.0661321685791,80.73253827027511,191.7731321685791,82.36307627027512L183.69713216857912,127.29779627027511C183.35293216857912,129.2129962702751,180.7395321685791,129.6357962702751,179.7850321685791,127.93059627027512L171.32893216857912,112.82449627027512C170.8469321685791,111.96349627027512,170.8192321685791,110.92059627027511,171.2546321685791,110.03519627027512L175.9305321685791,100.52779627027512L167.1829321685791,106.30409627027512C166.5873321685791,106.69739627027512,165.8710321685791,106.86549627027512,165.1626321685791,106.77809627027511L144.1489221685791,104.18679627027512Z" fill-rule="evenodd" fill="#FFFFFF" fill-opacity="1"/></g></g></g></g></svg>