<svg xmlns="http://www.w3.org/2000/svg" xmlns:xlink="http://www.w3.org/1999/xlink" fill="none" version="1.1" width="330" height="286" viewBox="0 0 330 286"><defs><linearGradient x1="0.5" y1="0" x2="0.5" y2="1" id="master_svg0_105_2459"><stop offset="0%" stop-color="#00071F" stop-opacity="1"/><stop offset="100%" stop-color="#00071F" stop-opacity="0.6000000238418579"/></linearGradient><linearGradient x1="0.5" y1="0" x2="0.5" y2="1" id="master_svg1_107_8354"><stop offset="0%" stop-color="#4388FF" stop-opacity="0.20000000298023224"/><stop offset="100%" stop-color="#005EFF" stop-opacity="0.10000000149011612"/></linearGradient><linearGradient x1="0.5" y1="0" x2="0.5" y2="1" id="master_svg2_105_2459"><stop offset="0%" stop-color="#FFFFFF" stop-opacity="1"/><stop offset="100%" stop-color="#FFFFFF" stop-opacity="0.6000000238418579"/></linearGradient><mask id="master_svg3_191_04268" style="mask-type:alpha" maskUnits="userSpaceOnUse"><g><rect x="0" y="0" width="330" height="286" rx="16" fill="url(#master_svg2_105_2459)" fill-opacity="1"/></g></mask><filter id="master_svg4_191_04269" filterUnits="objectBoundingBox" color-interpolation-filters="sRGB" x="-306" y="-306" width="746.0306091308594" height="730.6728210449219"><feFlood flood-opacity="0" result="BackgroundImageFix"/><feBlend mode="normal" in="SourceGraphic" in2="BackgroundImageFix" result="shape"/><feGaussianBlur stdDeviation="76.5" result="effect1_foregroundBlur"/></filter></defs><g><g><rect x="0" y="0" width="330" height="286" rx="16" fill="url(#master_svg0_105_2459)" fill-opacity="1"/><rect x="2" y="2" width="326" height="282" rx="14" stroke="url(#master_svg1_107_8354)" fill-opacity="0" fill="none" stroke-width="4"/></g><g mask="url(#master_svg3_191_04268)"><g filter="url(#master_svg4_191_04269)"><ellipse cx="178.1037368774414" cy="18.70968246459961" rx="67.01530456542969" ry="59.33641052246094" fill="#0BFEFF" fill-opacity="1"/></g></g><g><path d="M97.392,217.064C99.3,218.756,101.712,221.168,102.828,222.716L104.664,220.808C103.512,219.332,101.1,216.992,99.156,215.40406L97.392,217.064ZM94.548,226.064L94.548,228.656L99.624,228.656L99.624,241.5896C99.624,243.2472,98.508,244.4369,97.824,244.86950000000002C98.328,245.4101,99.048,246.5272,99.3,247.1758C99.84,246.4552,100.812,245.7341,107.22,240.977C106.896,240.4364,106.464,239.4273,106.248,238.7062L102.252,241.6256L102.252,226.064L94.548,226.064ZM110.676,216.056L110.676,220.052C110.676,222.716,109.884,225.704,105.132,227.864C105.636,228.296,106.572,229.34,106.896,229.88C112.08,227.39600000000002,113.232,223.508,113.232,220.124L113.232,218.576L119.604,218.576L119.604,224.372C119.604,227.108,120.108,228.11599999999999,122.628,228.11599999999999C123.024,228.11599999999999,124.788,228.11599999999999,125.328,228.11599999999999C126.048,228.11599999999999,126.804,228.07999999999998,127.23599999999999,227.936C127.128,227.324,127.056,226.28,126.98400000000001,225.596C126.55199999999999,225.704,125.79599999999999,225.776,125.292,225.776C124.824,225.776,123.20400000000001,225.776,122.80799999999999,225.776C122.232,225.776,122.16,225.452,122.16,224.408L122.16,216.056L110.676,216.056ZM121.98,233.192C120.684,236.0754,118.74,238.45420000000001,116.364,240.3644C113.952,238.3822,112.044,235.9674,110.748,233.192L121.98,233.192ZM106.824,230.672L106.824,233.192L108.696,233.192L108.19200000000001,233.3726C109.632,236.6879,111.684,239.5713,114.24,241.9141C111.53999999999999,243.6438,108.444,244.83350000000002,105.276,245.5541C105.78,246.13060000000002,106.356,247.21179999999998,106.572,247.89690000000002C110.064,246.9598,113.376,245.5901,116.292,243.6078C119.02799999999999,245.6261,122.304,247.1037,126.012,248.0049C126.336,247.2477,127.092,246.16660000000002,127.668,245.5901C124.212,244.86950000000002,121.116,243.6078,118.488,241.9141C121.548,239.2473,123.996,235.7874,125.436,231.284L123.78,230.564L123.312,230.672L106.824,230.672ZM153.66,220.232C151.93200000000002,222.068,149.59199999999998,223.652,146.928,225.02C144.48,223.796,142.392,222.32,140.844,220.628L141.24,220.232L153.66,220.232ZM142.284,214.63963C140.484,217.784,136.95600000000002,221.38400000000001,131.736,223.832C132.348,224.264,133.176,225.164,133.608,225.812C135.624,224.768,137.388,223.58,138.936,222.32C140.412,223.832,142.14,225.164,144.12,226.316C139.728,228.152,134.76,229.412,130.07999999999998,230.06C130.548,230.672,131.088,231.86,131.304,232.61599999999999C136.524,231.752,142.06799999999998,230.204,146.964,227.828C151.464,229.988,156.792,231.392,162.336,232.112C162.696,231.356,163.416,230.24,164.02800000000002,229.628C158.916,229.052,153.984,227.972,149.808,226.316C153.228,224.3,156.144,221.816,158.088,218.828L156.324,217.71144L155.856,217.856L143.364,217.856C144.048,216.98863,144.66,216.12125,145.2,215.21788L142.284,214.63963ZM137.928,240.356L145.56,240.356L145.56,244.352L137.928,244.352L137.928,240.356ZM137.928,238.16L137.928,234.524L145.56,234.524L145.56,238.16L137.928,238.16ZM155.856,240.356L155.856,244.352L148.332,244.352L148.332,240.356L155.856,240.356ZM155.856,238.16L148.332,238.16L148.332,234.524L155.856,234.524L155.856,238.16ZM135.12,232.148L135.12,247.8884L137.928,247.8884L137.928,246.728L155.856,246.728L155.856,247.8159L158.772,247.8159L158.772,232.148L135.12,232.148ZM168.852,217.343C170.796,219.00238,173.244,221.3474,174.43200000000002,222.86L176.232,220.87831C175.07999999999998,219.3995,172.56,217.16244,170.57999999999998,215.57506L168.852,217.343ZM181.344,215.79163C182.56799999999998,217.63156,183.9,220.08463,184.404,221.636L186.888,220.58975C186.348,219.03838,184.98000000000002,216.69331,183.72,214.88994L181.344,215.79163ZM171.732,247.1746L171.732,247.1386C172.272,246.4169,173.244,245.62380000000002,179.076,241.0074C178.788,240.5028,178.392,239.4926,178.14,238.736L174.576,241.4399L174.576,226.064L166.44,226.064L166.44,228.692L172.01999999999998,228.692L172.01999999999998,241.7285C172.01999999999998,243.4959,170.904,244.6861,170.256,245.2267C170.724,245.62380000000002,171.48000000000002,246.5975,171.732,247.1746ZM194.736,214.63738C193.94400000000002,216.76588,192.612,219.65206,191.352,221.672L179.364,221.672L179.364,224.156L187.68,224.156L187.68,229.124L180.48000000000002,229.124L180.48000000000002,231.608L187.68,231.608L187.68,236.684L178.5,236.684L178.5,239.24L187.68,239.24L187.68,247.8597L190.38,247.8597L190.38,239.24L199.308,239.24L199.308,236.684L190.38,236.684L190.38,231.608L197.364,231.608L197.364,229.124L190.38,229.124L190.38,224.156L198.51600000000002,224.156L198.51600000000002,221.672L194.232,221.672C195.312,219.86863,196.5,217.59556,197.47199999999998,215.57506L194.736,214.63738ZM206.47199999999998,214.76L206.47199999999998,247.8614L208.92000000000002,247.8614L208.92000000000002,214.76L206.47199999999998,214.76ZM203.628,221.699C203.412,224.5098,202.836,228.5103,201.97199999999998,230.96L204.096,231.68C204.924,228.98,205.5,224.804,205.644,221.96L203.628,221.699ZM209.244,220.736C210,222.428,210.828,224.696,211.152,226.064L213.06,225.128C212.7,223.832,211.836,221.672,211.04399999999998,220.016L209.244,220.736ZM217.05599999999998,237.44L230.088,237.44L230.088,240.176L217.05599999999998,240.176L217.05599999999998,237.44ZM217.05599999999998,235.388L217.05599999999998,232.688L230.088,232.688L230.088,235.388L217.05599999999998,235.388ZM222.24,214.74819L222.24,217.568L213.024,217.568L213.024,219.656L222.24,219.656L222.24,221.96L213.888,221.96L213.888,223.94L222.24,223.94L222.24,226.424L211.94400000000002,226.424L211.94400000000002,228.512L235.488,228.512L235.488,226.424L224.904,226.424L224.904,223.94L233.508,223.94L233.508,221.96L224.904,221.96L224.904,219.656L234.408,219.656L234.408,217.568L224.904,217.568L224.904,214.74819L222.24,214.74819ZM214.536,230.6L214.536,247.8457L217.05599999999998,247.8457L217.05599999999998,242.228L230.088,242.228L230.088,244.82C230.088,245.252,229.908,245.39600000000002,229.44,245.43200000000002C228.936,245.46800000000002,227.208,245.46800000000002,225.372,245.39600000000002C225.696,246.04399999999998,226.056,247.052,226.164,247.736C228.72,247.736,230.34,247.736,231.348,247.304C232.356,246.90800000000002,232.644,246.188,232.644,244.856L232.644,230.6L214.536,230.6Z" fill="#EEF5FF" fill-opacity="1"/></g><g><g><ellipse cx="165" cy="106" rx="50" ry="50" fill="#009C9C" fill-opacity="1"/></g><g><g><path d="M145.64483179748535,86.64516162872314L174.67665179748536,86.64516162872314C177.33785179748534,86.64516162872314,179.51555179748536,88.82303162872314,179.51615179748535,91.48375162872314L179.51615179748535,127.77396162872314C179.51615179748535,129.22576162872315,178.30635179748535,130.19356162872316,177.09665179748535,130.19356162872316C176.85495179748534,130.19356162872316,176.37095179748536,130.19356162872316,175.64525179748534,129.95136162872313L160.88725179748536,122.69316162872315C160.64505179748534,122.45096162872315,160.16105179748536,122.45096162872315,159.91925179748534,122.45096162872315C159.67705179748535,122.45096162872315,159.19305179748534,122.45096162872315,158.95125179748536,122.69316162872315L144.19337179748536,129.95136162872313C143.95163179748536,130.19356162872316,143.46764179748536,130.19356162872316,143.22590179748536,130.19356162872316C142.01618179748536,130.19356162872316,140.80645179748535,129.22576162872315,140.80645179748535,127.77396162872314L140.80645179748535,91.48375162872314C140.80645179748535,88.82250162872315,142.98364179748535,86.64516162872314,145.64483179748535,86.64516162872314Z" fill-rule="evenodd" fill="#FFFFFF" fill-opacity="0.20000000298023224"/></g><g><path d="M183.5476196624756,81.80645179748535L154.5157996624756,81.80645179748535C151.85460966247558,81.80645179748535,149.6774196624756,83.98379179748535,149.6774196624756,86.64504179748535L149.6774196624756,122.93525179748535C149.6774196624756,124.38705179748536,150.8871496624756,125.35485179748535,152.0968696624756,125.35485179748535C152.3386096624756,125.35485179748535,152.8225996624756,125.35485179748535,153.0643396624756,125.11265179748534L167.8222196624756,117.85445179748535C168.06401966247557,117.61225179748536,168.54801966247558,117.61225179748536,168.79021966247558,117.61225179748536C169.0320196624756,117.61225179748536,169.51601966247557,117.61225179748536,169.7582196624756,117.85445179748535L184.51621966247558,125.11265179748534C185.2419196624756,125.35485179748535,185.72591966247558,125.35485179748535,185.96761966247558,125.35485179748535C187.17731966247558,125.35485179748535,188.38711966247558,124.38705179748536,188.38711966247558,122.93525179748535L188.38711966247558,86.64504179748535C188.3865196624756,83.98432179748535,186.20881966247558,81.80645179748535,183.5476196624756,81.80645179748535ZM175.68071966247558,108.98585179748535L162.3832196624756,108.98585179748535C160.38871966247558,108.98585179748535,159.0586096624756,107.65975179748536,159.0586096624756,105.67045179748536C159.0586096624756,103.68125179748534,160.3881196624756,102.35515179748535,162.3832196624756,102.35515179748535L175.68071966247558,102.35515179748535C177.6753196624756,102.35515179748535,179.0054196624756,103.68125179748534,179.0054196624756,105.67045179748536C179.0054196624756,107.65975179748536,177.6753196624756,108.98585179748535,175.68071966247558,108.98585179748535ZM175.68071966247558,96.02645179748535L162.3832196624756,96.02645179748535C160.38871966247558,96.02645179748535,159.0586096624756,94.70025179748535,159.0586096624756,92.71105179748535C159.0586096624756,90.72178179748535,160.3881196624756,89.39562179748535,162.3832196624756,89.39562179748535L175.68071966247558,89.39562179748535C177.6753196624756,89.39562179748535,179.0054196624756,90.72178179748535,179.0054196624756,92.71105179748535C179.0054196624756,94.70025179748535,177.6753196624756,96.02645179748535,175.68071966247558,96.02645179748535Z" fill="#FFFFFF" fill-opacity="1"/></g></g></g></g></svg>