<svg xmlns="http://www.w3.org/2000/svg" xmlns:xlink="http://www.w3.org/1999/xlink" fill="none" version="1.1" width="330" height="286" viewBox="0 0 330 286"><defs><linearGradient x1="0.5" y1="0" x2="0.5" y2="1" id="master_svg0_105_2459"><stop offset="0%" stop-color="#00071F" stop-opacity="1"/><stop offset="100%" stop-color="#00071F" stop-opacity="0.6000000238418579"/></linearGradient><linearGradient x1="0.5" y1="0" x2="0.5" y2="1" id="master_svg1_107_8354"><stop offset="0%" stop-color="#4388FF" stop-opacity="0.20000000298023224"/><stop offset="100%" stop-color="#005EFF" stop-opacity="0.10000000149011612"/></linearGradient><linearGradient x1="0.5" y1="0" x2="0.5" y2="1" id="master_svg2_105_2459"><stop offset="0%" stop-color="#FFFFFF" stop-opacity="1"/><stop offset="100%" stop-color="#FFFFFF" stop-opacity="0.6000000238418579"/></linearGradient><mask id="master_svg3_191_04313" style="mask-type:alpha" maskUnits="userSpaceOnUse"><g><rect x="0" y="0" width="329.9999694824219" height="286" rx="16" fill="url(#master_svg2_105_2459)" fill-opacity="1"/></g></mask><filter id="master_svg4_191_04314" filterUnits="objectBoundingBox" color-interpolation-filters="sRGB" x="-306" y="-306" width="736.5918273925781" height="727.3651657104492"><feFlood flood-opacity="0" result="BackgroundImageFix"/><feBlend mode="normal" in="SourceGraphic" in2="BackgroundImageFix" result="shape"/><feGaussianBlur stdDeviation="76.5" result="effect1_foregroundBlur"/></filter></defs><g><g><rect x="0" y="0" width="330" height="286" rx="16" fill="url(#master_svg0_105_2459)" fill-opacity="1"/><rect x="2" y="2" width="326" height="282" rx="14" stroke="url(#master_svg1_107_8354)" fill-opacity="0" fill="none" stroke-width="4"/></g><g mask="url(#master_svg3_191_04313)"><g filter="url(#master_svg4_191_04314)"><ellipse cx="165.56121826171875" cy="18.188201904296875" rx="62.29591369628906" ry="57.68258285522461" fill="#DB00B6" fill-opacity="1"/></g></g><g><path d="M61.392,217.064C63.3,218.756,65.712,221.168,66.828,222.716L68.664,220.808C67.512,219.332,65.1,216.992,63.156,215.40406L61.392,217.064ZM58.548,226.064L58.548,228.656L63.624,228.656L63.624,241.5896C63.624,243.2472,62.508,244.4369,61.824,244.86950000000002C62.328,245.4101,63.048,246.5272,63.3,247.1758C63.84,246.4552,64.812,245.7341,71.22,240.977C70.896,240.4364,70.464,239.4273,70.248,238.7062L66.252,241.6256L66.252,226.064L58.548,226.064ZM74.676,216.056L74.676,220.052C74.676,222.716,73.884,225.704,69.132,227.864C69.636,228.296,70.572,229.34,70.896,229.88C76.08,227.39600000000002,77.232,223.508,77.232,220.124L77.232,218.576L83.604,218.576L83.604,224.372C83.604,227.108,84.108,228.11599999999999,86.628,228.11599999999999C87.024,228.11599999999999,88.788,228.11599999999999,89.328,228.11599999999999C90.048,228.11599999999999,90.804,228.07999999999998,91.23599999999999,227.936C91.128,227.324,91.056,226.28,90.98400000000001,225.596C90.55199999999999,225.704,89.79599999999999,225.776,89.292,225.776C88.824,225.776,87.20400000000001,225.776,86.80799999999999,225.776C86.232,225.776,86.16,225.452,86.16,224.408L86.16,216.056L74.676,216.056ZM85.98,233.192C84.684,236.0754,82.74,238.45420000000001,80.364,240.3644C77.952,238.3822,76.044,235.9674,74.748,233.192L85.98,233.192ZM70.824,230.672L70.824,233.192L72.696,233.192L72.19200000000001,233.3726C73.632,236.6879,75.684,239.5713,78.24,241.9141C75.53999999999999,243.6438,72.444,244.83350000000002,69.276,245.5541C69.78,246.13060000000002,70.356,247.21179999999998,70.572,247.89690000000002C74.064,246.9598,77.376,245.5901,80.292,243.6078C83.02799999999999,245.6261,86.304,247.1037,90.012,248.0049C90.336,247.2477,91.092,246.16660000000002,91.668,245.5901C88.212,244.86950000000002,85.116,243.6078,82.488,241.9141C85.548,239.2473,87.996,235.7874,89.436,231.284L87.78,230.564L87.312,230.672L70.824,230.672ZM117.66,220.232C115.932,222.068,113.592,223.652,110.928,225.02C108.47999999999999,223.796,106.392,222.32,104.844,220.628L105.24000000000001,220.232L117.66,220.232ZM106.28399999999999,214.63963C104.48400000000001,217.784,100.956,221.38400000000001,95.73599999999999,223.832C96.348,224.264,97.176,225.164,97.608,225.812C99.624,224.768,101.388,223.58,102.936,222.32C104.412,223.832,106.14,225.164,108.12,226.316C103.72800000000001,228.152,98.75999999999999,229.412,94.08,230.06C94.548,230.672,95.088,231.86,95.304,232.61599999999999C100.524,231.752,106.068,230.204,110.964,227.828C115.464,229.988,120.792,231.392,126.336,232.112C126.696,231.356,127.416,230.24,128.02800000000002,229.628C122.916,229.052,117.98400000000001,227.972,113.80799999999999,226.316C117.22800000000001,224.3,120.144,221.816,122.088,218.828L120.324,217.71144L119.856,217.856L107.364,217.856C108.048,216.98863,108.66,216.12125,109.2,215.21788L106.28399999999999,214.63963ZM101.928,240.356L109.56,240.356L109.56,244.352L101.928,244.352L101.928,240.356ZM101.928,238.16L101.928,234.524L109.56,234.524L109.56,238.16L101.928,238.16ZM119.856,240.356L119.856,244.352L112.332,244.352L112.332,240.356L119.856,240.356ZM119.856,238.16L112.332,238.16L112.332,234.524L119.856,234.524L119.856,238.16ZM99.12,232.148L99.12,247.8884L101.928,247.8884L101.928,246.728L119.856,246.728L119.856,247.8159L122.772,247.8159L122.772,232.148L99.12,232.148ZM150.564,214.904L150.564,218.756L140.55599999999998,218.756L140.55599999999998,221.24L150.564,221.24L150.564,224.768L141.6,224.768L141.6,234.74L150.38400000000001,234.74C150.132,236.7228,149.59199999999998,238.5971,148.44,240.2913C146.53199999999998,238.9576,144.98399999999998,237.3354,143.868,235.4611L141.6,236.2183C142.93200000000002,238.5251,144.696,240.47129999999999,146.82,242.0936C145.164,243.6073,142.716,244.8689,139.224,245.7701C139.8,246.3466,140.55599999999998,247.3918,140.88,248.0049C144.624,246.8872,147.216,245.3735,149.05200000000002,243.6073C152.688,245.80610000000001,157.224,247.2477,162.372,247.9683C162.732,247.1758,163.416,246.1301,163.99200000000002,245.51749999999998C158.808,244.9409,154.272,243.6792,150.636,241.697C152.076,239.5702,152.724,237.2274,153.012,234.74L162.44400000000002,234.74L162.44400000000002,224.768L153.192,224.768L153.192,221.24L163.632,221.24L163.632,218.756L153.192,218.756L153.192,214.904L150.564,214.904ZM144.12,227.036L150.564,227.036L150.564,230.816L150.52800000000002,232.436L144.12,232.436L144.12,227.036ZM153.192,227.036L159.852,227.036L159.852,232.436L153.156,232.436L153.192,230.816L153.192,227.036ZM139.00799999999998,214.68575C136.88400000000001,220.16,133.392,225.488,129.756,228.944C130.224,229.59199999999998,130.98000000000002,230.996,131.268,231.608C132.636,230.24,133.96800000000002,228.656,135.228,226.892L135.228,248.0409L137.82,248.0409L137.82,222.968C139.224,220.556,140.51999999999998,218.036,141.52800000000002,215.48L139.00799999999998,214.68575ZM170.50799999999998,217.28L170.50799999999998,230.348C170.50799999999998,235.424,170.148,241.796,166.152,246.296C166.764,246.62,167.844,247.52,168.24,248.0645C171.012,245,172.236,240.86,172.776,236.828L181.812,236.828L181.812,247.55599999999998L184.548,247.55599999999998L184.548,236.828L194.268,236.828L194.268,244.208C194.268,244.856,194.016,245.072,193.296,245.108C192.612,245.144,190.164,245.18,187.644,245.072C188.004,245.792,188.436,246.98,188.58,247.664C191.964,247.7006,194.052,247.664,195.276,247.232C196.5,246.8,196.932,245.972,196.932,244.208L196.932,217.28L170.50799999999998,217.28ZM173.172,219.872L181.812,219.872L181.812,225.668L173.172,225.668L173.172,219.872ZM194.268,219.872L194.268,225.668L184.548,225.668L184.548,219.872L194.268,219.872ZM173.172,228.224L181.812,228.224L181.812,234.272L173.02800000000002,234.272C173.136,232.904,173.172,231.572,173.172,230.348L173.172,228.224ZM194.268,228.224L194.268,234.272L184.548,234.272L184.548,228.224L194.268,228.224ZM207.444,232.688L207.444,247.8547L210.18,247.8547L210.18,245.9L227.676,245.9L227.676,247.7821L230.556,247.7821L230.556,232.688L207.444,232.688ZM210.18,243.272L210.18,235.28L227.676,235.28L227.676,243.272L210.18,243.272ZM205.536,229.6612C206.94,229.1212,209.064,229.0486,229.8,227.9321C230.7,229.0486,231.456,230.0938,231.996,231.0309L234.3,229.3732C232.428,226.3464,228.216,221.9144,224.688,218.81563L222.564,220.25675C224.292,221.8064,226.164,223.7161,227.82,225.5538L209.316,226.4184C212.52,223.46359999999999,215.76,219.75219,218.64,215.78881L215.94,214.59969C213.096,219.06763,208.884,223.6441,207.588,224.8693C206.364,226.0584,205.464,226.8149,204.636,226.9949C204.96,227.7155,205.392,229.0852,205.536,229.6612ZM244.668,221.024L244.668,231.3206C244.668,235.9331,244.308,242.4552,238.332,246.0592C238.836,246.4552,239.52,247.2483,239.808,247.6809C246.144,243.53640000000001,246.828,236.6176,246.828,231.3206L246.828,221.024L244.668,221.024ZM245.964,240.3296C247.62,242.3113,249.564,245.0501,250.392,246.7798L252.228,245.3021C251.328,243.6809,249.312,241.0501,247.656,239.1039L245.964,240.3296ZM240.06,216.452L240.06,238.6359L242.184,238.6359L242.184,218.684L249.168,218.684L249.168,238.5273L251.328,238.5273L251.328,216.452L240.06,216.452ZM267.276,216.34344C265.476,219.944,262.416,223.436,259.212,225.668C259.824,226.136,260.76,227.144,261.192,227.648C264.39599999999996,225.128,267.70799999999997,221.204,269.796,217.136L267.276,216.34344ZM255,248.0769C255.576,247.60829999999999,256.62,247.1763,263.568,244.3295C263.424,243.7529,263.31600000000003,242.7078,263.31600000000003,241.9507L258.024,243.86090000000002L258.024,231.284L260.976,231.284C262.596,238.1313,265.548,243.9689,269.904,247.1043C270.336,246.4192,271.164,245.4826,271.74,245.01409999999998C267.744,242.4193,264.93600000000004,237.1942,263.46000000000004,231.284L271.02,231.284L271.02,228.764L258.024,228.764L258.024,215.47494L255.468,215.47494L255.468,228.764L252.264,228.764L252.264,231.284L255.468,231.284L255.468,243.5004C255.468,244.9421,254.532,245.5906,253.884,245.8786C254.316,246.4192,254.82,247.4643,255,248.0769Z" fill="#EEF5FF" fill-opacity="1"/></g><g><g><ellipse cx="172" cy="104" rx="50" ry="50" fill="#DB00B6" fill-opacity="1"/></g><g><path d="M147.7142848968506,125.19044716491699L147.7142848968506,86.61904716491699Q147.7142848968506,86.496307164917,147.7203076168506,86.373707164917Q147.7263302968506,86.25111716491699,147.7383612968506,86.128957164917Q147.75039219685058,86.00680716491699,147.76840229685058,85.885397164917Q147.78641249685057,85.763977164917,147.8103584968506,85.643597164917Q147.8343048968506,85.523207164917,147.8641288968506,85.40414716491699Q147.89395289685058,85.285077164917,147.92958289685058,85.167627164917Q147.9652138968506,85.05016716491699,148.0065648968506,84.934597164917Q148.04791589685058,84.81902716491699,148.0948868968506,84.70562716491699Q148.14185889685058,84.59222716491699,148.19433789685058,84.48126716491699Q148.2468178968506,84.370317164917,148.3046788968506,84.262067164917Q148.3625388968506,84.15381716491699,148.42564189685058,84.048537164917Q148.4887438968506,83.94325716491699,148.55693689685057,83.84119716491699Q148.62512889685058,83.739137164917,148.69824689685058,83.640547164917Q148.7713648968506,83.541957164917,148.8492348968506,83.44707716491699Q148.92710489685058,83.35219716491699,149.0095248968506,83.261247164917Q149.09195489685058,83.17030716491699,149.1787548968506,83.083517164917Q149.2655448968506,82.99671716491699,149.3564848968506,82.914287164917Q149.44743489685058,82.83186716491699,149.5423148968506,82.753997164917Q149.6371948968506,82.67612716491699,149.7357848968506,82.603009164917Q149.8343748968506,82.52989116491699,149.93643489685059,82.461699164917Q150.03849489685058,82.39350616491699,150.14377489685057,82.330404164917Q150.2490548968506,82.26730116491699,150.3573048968506,82.209441164917Q150.4655548968506,82.151580164917,150.5765048968506,82.09910016491699Q150.6874648968506,82.046621164917,150.80086489685058,81.99964916491699Q150.9142648968506,81.95267816491699,151.0298348968506,81.911327164917Q151.14540489685058,81.86997616491699,151.26286489685057,81.834345164917Q151.3803148968506,81.798715164917,151.4993848968506,81.768891164917Q151.61844489685058,81.73906716491699,151.7388348968506,81.71512076491699Q151.85921489685057,81.691174764917,151.98063489685057,81.67316456491699Q152.1020448968506,81.65515446491699,152.22419489685058,81.64312356491699Q152.34635489685058,81.631092564917,152.4689448968506,81.625069884917Q152.5915448968506,81.61904716491699,152.7142848968506,81.61904716491699L184.61908489685058,81.61904716491699Q184.7417848968506,81.61904716491699,184.8643848968506,81.625069884917Q184.98698489685057,81.631092564917,185.1090848968506,81.64312356491699Q185.23128489685058,81.65515446491699,185.35268489685058,81.67316456491699Q185.47408489685057,81.691174764917,185.5944848968506,81.71512076491699Q185.71488489685058,81.73906716491699,185.83398489685058,81.768891164917Q185.95298489685058,81.798715164917,186.0704848968506,81.834345164917Q186.1878848968506,81.86997616491699,186.3034848968506,81.911327164917Q186.4190848968506,81.95267816491699,186.53248489685058,81.99964916491699Q186.6458848968506,82.046621164917,186.75678489685058,82.09910016491699Q186.8677848968506,82.151580164917,186.97598489685058,82.209441164917Q187.0842848968506,82.26730116491699,187.1895848968506,82.330404164917Q187.2948848968506,82.39350616491699,187.3968848968506,82.461699164917Q187.49898489685057,82.52989116491699,187.59758489685058,82.603009164917Q187.69608489685058,82.67612716491699,187.7909848968506,82.753997164917Q187.8858848968506,82.83186716491699,187.97688489685058,82.914287164917Q188.06778489685058,82.99671716491699,188.1545848968506,83.083517164917Q188.24138489685058,83.17030716491699,188.32378489685058,83.261247164917Q188.4061848968506,83.35219716491699,188.4840848968506,83.44707716491699Q188.5619848968506,83.541957164917,188.63508489685057,83.640547164917Q188.70818489685058,83.739137164917,188.77638489685057,83.84119716491699Q188.8445848968506,83.94325716491699,188.90768489685058,84.048537164917Q188.9707848968506,84.15381716491699,189.0286848968506,84.262067164917Q189.08648489685058,84.370317164917,189.1389848968506,84.48126716491699Q189.1914848968506,84.59222716491699,189.2384848968506,84.70562716491699Q189.2853848968506,84.81902716491699,189.3267848968506,84.934597164917Q189.36808489685058,85.05016716491699,189.4037848968506,85.167627164917Q189.43938489685058,85.285077164917,189.46918489685058,85.40414716491699Q189.49898489685057,85.523207164917,189.52298489685057,85.643597164917Q189.5468848968506,85.763977164917,189.56488489685057,85.885397164917Q189.58298489685058,86.00680716491699,189.59498489685058,86.128957164917Q189.60698489685058,86.25111716491699,189.61298489685058,86.373707164917Q189.61908489685058,86.496307164917,189.61908489685058,86.61904716491699L189.61908489685058,125.19044716491699Q189.61908489685058,125.31324716491699,189.61298489685058,125.43584716491699Q189.60698489685058,125.558447164917,189.59498489685058,125.68054716491699Q189.58298489685058,125.802747164917,189.56488489685057,125.924147164917Q189.5468848968506,126.045547164917,189.52298489685057,126.16594716491699Q189.49898489685057,126.28634716491699,189.46918489685058,126.40534716491699Q189.43938489685058,126.52444716491699,189.4037848968506,126.64184716491698Q189.36808489685058,126.75934716491699,189.3267848968506,126.87494716491699Q189.2853848968506,126.99044716491699,189.2384848968506,127.103847164917Q189.1914848968506,127.21724716491698,189.1389848968506,127.328247164917Q189.08648489685058,127.43924716491699,189.0286848968506,127.547447164917Q188.9707848968506,127.65574716491699,188.90768489685058,127.76094716491698Q188.8445848968506,127.86624716491698,188.77638489685057,127.96834716491699Q188.70818489685058,128.070347164917,188.63508489685057,128.168947164917Q188.5619848968506,128.267547164917,188.4840848968506,128.362447164917Q188.4061848968506,128.457347164917,188.32378489685058,128.548247164917Q188.24138489685058,128.63924716491698,188.1545848968506,128.726047164917Q188.06778489685058,128.812747164917,187.97688489685058,128.895247164917Q187.8858848968506,128.977647164917,187.7909848968506,129.055547164917Q187.69608489685058,129.13334716491698,187.59758489685058,129.206547164917Q187.49898489685057,129.27964716491698,187.3968848968506,129.347847164917Q187.2948848968506,129.416047164917,187.1895848968506,129.47914716491698Q187.0842848968506,129.542247164917,186.97598489685058,129.600047164917Q186.8677848968506,129.657947164917,186.75678489685058,129.71044716491699Q186.6458848968506,129.762847164917,186.53248489685058,129.809847164917Q186.4190848968506,129.85684716491699,186.3034848968506,129.898147164917Q186.1878848968506,129.939547164917,186.0704848968506,129.975147164917Q185.95298489685058,130.01084716491698,185.83398489685058,130.040647164917Q185.71488489685058,130.070447164917,185.5944848968506,130.094347164917Q185.47408489685057,130.118347164917,185.35268489685058,130.136347164917Q185.23128489685058,130.154347164917,185.1090848968506,130.166347164917Q184.98698489685057,130.17844716491697,184.8643848968506,130.184447164917Q184.7417848968506,130.19044716491697,184.61908489685058,130.19044716491697L152.7142848968506,130.19044716491697Q152.5915448968506,130.19044716491697,152.4689448968506,130.184447164917Q152.34635489685058,130.17844716491697,152.22419489685058,130.166347164917Q152.1020448968506,130.154347164917,151.98063489685057,130.136347164917Q151.85921489685057,130.118347164917,151.7388348968506,130.094347164917Q151.61844489685058,130.070447164917,151.4993848968506,130.040647164917Q151.3803148968506,130.01084716491698,151.26286489685057,129.975147164917Q151.14540489685058,129.939547164917,151.0298348968506,129.898147164917Q150.9142648968506,129.85684716491699,150.80086489685058,129.809847164917Q150.6874648968506,129.762847164917,150.5765048968506,129.71044716491699Q150.4655548968506,129.657947164917,150.3573048968506,129.600047164917Q150.2490548968506,129.542247164917,150.14377489685057,129.47914716491698Q150.03849489685058,129.416047164917,149.93643489685059,129.347847164917Q149.8343748968506,129.27964716491698,149.7357848968506,129.206547164917Q149.6371948968506,129.13334716491698,149.5423148968506,129.055547164917Q149.44743489685058,128.977647164917,149.3564848968506,128.895247164917Q149.2655448968506,128.812747164917,149.1787548968506,128.726047164917Q149.09195489685058,128.63924716491698,149.0095248968506,128.548247164917Q148.92710489685058,128.457347164917,148.8492348968506,128.362447164917Q148.7713648968506,128.267547164917,148.69824689685058,128.168947164917Q148.62512889685058,128.070347164917,148.55693689685057,127.96834716491699Q148.4887438968506,127.86624716491698,148.42564189685058,127.76094716491698Q148.3625388968506,127.65574716491699,148.3046788968506,127.547447164917Q148.2468178968506,127.43924716491699,148.19433789685058,127.328247164917Q148.14185889685058,127.21724716491698,148.0948868968506,127.103847164917Q148.04791589685058,126.99044716491699,148.0065648968506,126.87494716491699Q147.9652138968506,126.75934716491699,147.92958289685058,126.64194716491699Q147.89395289685058,126.52444716491699,147.8641288968506,126.40534716491699Q147.8343048968506,126.28634716491699,147.8103584968506,126.16594716491699Q147.78641249685057,126.045547164917,147.76840229685058,125.924147164917Q147.75039219685058,125.802747164917,147.7383612968506,125.68054716491699Q147.7263302968506,125.558447164917,147.7203076168506,125.43584716491699Q147.7142848968506,125.31324716491699,147.7142848968506,125.19044716491699Z" fill="#FFFFFF" fill-opacity="0.30000001192092896"/></g><g><path d="M155.33333206176758,82.80952453613281L155.33333206176758,121.38092453613281Q155.33333206176758,121.50372453613281,155.33935478176758,121.62632453613281Q155.34537746176758,121.74892453613282,155.3574084617676,121.87102453613281Q155.36943936176758,121.99322453613281,155.38744946176757,122.11462453613282Q155.40545966176757,122.23602453613282,155.4294056617676,122.3564245361328Q155.4533520617676,122.47682453613281,155.48317606176758,122.59582453613281Q155.51300006176757,122.71492453613281,155.54863006176757,122.8323245361328Q155.5842610617676,122.94982453613281,155.62561206176758,123.06542453613281Q155.66696306176758,123.1809245361328,155.7139340617676,123.29432453613282Q155.76090606176757,123.4077245361328,155.81338506176758,123.51872453613282Q155.86586506176758,123.62972453613281,155.92372606176758,123.73792453613282Q155.9815860617676,123.84622453613281,156.04468906176757,123.9514245361328Q156.10779106176759,124.0567245361328,156.17598406176756,124.15882453613281Q156.24417606176758,124.26082453613282,156.31729406176757,124.35942453613282Q156.3904120617676,124.45802453613281,156.46828206176758,124.55292453613282Q156.54615206176757,124.64782453613282,156.62857206176758,124.73872453613282Q156.71100206176757,124.82972453613282,156.79780206176758,124.91652453613281Q156.8845920617676,125.00322453613282,156.97553206176758,125.08572453613282Q157.06648206176757,125.16812453613281,157.1613620617676,125.24602453613281Q157.25624206176758,125.3238245361328,157.35483206176758,125.39702453613282Q157.45342206176758,125.47012453613281,157.55548206176758,125.53832453613282Q157.65754206176757,125.60652453613281,157.76282206176757,125.66962453613282Q157.8681020617676,125.73272453613282,157.97635206176759,125.7905245361328Q158.08460206176758,125.84842453613281,158.1955520617676,125.9009245361328Q158.3065120617676,125.95332453613281,158.41991206176758,126.00032453613281Q158.5333120617676,126.0473245361328,158.64888206176758,126.08862453613281Q158.76445206176757,126.13002453613282,158.88191206176757,126.16562453613281Q158.99936206176758,126.20132453613282,159.11843206176758,126.23112453613281Q159.23749206176757,126.26092453613282,159.35788206176758,126.28482453613282Q159.47826206176757,126.30882453613282,159.59968206176757,126.32682453613282Q159.7210920617676,126.34482453613282,159.84324206176757,126.35682453613282Q159.96540206176758,126.36892453613281,160.08799206176758,126.37492453613281Q160.21059206176758,126.38092453613281,160.33333206176758,126.38092453613281L192.23813206176757,126.38092453613281Q192.36083206176758,126.38092453613281,192.4834320617676,126.37492453613281Q192.60603206176756,126.36892453613281,192.72813206176758,126.35682453613282Q192.85033206176757,126.34482453613282,192.97173206176757,126.32682453613282Q193.09313206176756,126.30882453613282,193.21353206176758,126.28482453613282Q193.33393206176757,126.26092453613282,193.45303206176757,126.23112453613281Q193.57203206176757,126.20132453613282,193.68953206176758,126.16562453613281Q193.80693206176758,126.13002453613282,193.92253206176758,126.08862453613281Q194.03813206176758,126.0473245361328,194.15153206176757,126.00032453613281Q194.26493206176758,125.95332453613281,194.37583206176757,125.9009245361328Q194.4868320617676,125.84842453613281,194.59503206176757,125.7905245361328Q194.70333206176758,125.73272453613282,194.80863206176758,125.66962453613282Q194.91393206176758,125.60652453613281,195.0159320617676,125.53832453613282Q195.11803206176756,125.47012453613281,195.21663206176757,125.39702453613282Q195.31513206176757,125.3238245361328,195.4100320617676,125.24602453613281Q195.5049320617676,125.16812453613281,195.59593206176757,125.08572453613282Q195.68683206176757,125.00322453613282,195.7736320617676,124.91652453613281Q195.86043206176757,124.82972453613282,195.94283206176758,124.73872453613282Q196.02523206176758,124.64782453613282,196.10313206176758,124.55292453613282Q196.18103206176758,124.45802453613281,196.25413206176756,124.35942453613282Q196.32723206176757,124.26082453613282,196.39543206176756,124.15882453613281Q196.46363206176758,124.0567245361328,196.52673206176758,123.9514245361328Q196.5898320617676,123.84622453613281,196.64773206176758,123.73792453613282Q196.70553206176757,123.62972453613281,196.75803206176758,123.51872453613282Q196.8105320617676,123.4077245361328,196.85753206176759,123.29432453613282Q196.90443206176758,123.1809245361328,196.9458320617676,123.06542453613281Q196.98713206176757,122.94982453613281,197.0228320617676,122.8324245361328Q197.05843206176758,122.71492453613281,197.08823206176757,122.59582453613281Q197.11803206176756,122.47682453613281,197.14203206176757,122.3564245361328Q197.1659320617676,122.23602453613282,197.18393206176756,122.11462453613282Q197.20203206176757,121.99322453613281,197.21403206176757,121.87102453613281Q197.22603206176757,121.74892453613282,197.23203206176757,121.62632453613281Q197.23813206176757,121.50372453613281,197.23813206176757,121.38092453613281L197.23813206176757,82.80952453613281Q197.23813206176757,82.68678453613282,197.23203206176757,82.56418453613281Q197.22603206176757,82.44159453613281,197.21403206176757,82.31943453613282Q197.20203206176757,82.19728453613281,197.18393206176756,82.07587453613282Q197.1659320617676,81.95445453613281,197.14203206176757,81.83407453613282Q197.11803206176756,81.71368453613282,197.08823206176757,81.59462453613281Q197.05843206176758,81.47555453613282,197.0228320617676,81.35810453613281Q196.98713206176757,81.2406445361328,196.9458320617676,81.12507453613281Q196.90443206176758,81.00950453613281,196.85753206176759,80.89610453613281Q196.8105320617676,80.78270453613281,196.75803206176758,80.6717445361328Q196.70553206176757,80.56079453613282,196.64773206176758,80.45254453613282Q196.5898320617676,80.34429453613281,196.52673206176758,80.23901453613281Q196.46363206176758,80.1337345361328,196.39543206176756,80.03167453613281Q196.32723206176757,79.92961453613282,196.25413206176756,79.83102453613282Q196.18103206176758,79.73243453613281,196.10313206176758,79.63755453613281Q196.02523206176758,79.54267453613281,195.94283206176758,79.45172453613282Q195.86043206176757,79.36078453613281,195.7736320617676,79.27399453613282Q195.68683206176757,79.18719453613281,195.59593206176757,79.10476453613282Q195.5049320617676,79.0223445361328,195.4100320617676,78.94447453613282Q195.31513206176757,78.86660453613281,195.21663206176757,78.79348653613282Q195.11803206176756,78.72036853613281,195.0159320617676,78.65217653613281Q194.91393206176758,78.5839835361328,194.80863206176758,78.52088153613282Q194.70333206176758,78.4577785361328,194.59503206176757,78.39991853613282Q194.4868320617676,78.34205753613281,194.37583206176757,78.28957753613281Q194.26493206176758,78.23709853613282,194.15153206176757,78.19012653613281Q194.03813206176758,78.14315553613281,193.92253206176758,78.10180453613282Q193.80693206176758,78.06045353613281,193.68953206176758,78.02482253613282Q193.57203206176757,77.98919253613282,193.45303206176757,77.95936853613281Q193.33393206176757,77.92954453613281,193.21353206176758,77.90559813613281Q193.09313206176756,77.88165213613281,192.97173206176757,77.86364193613281Q192.85033206176757,77.84563183613281,192.72813206176758,77.83360093613281Q192.60603206176756,77.82156993613282,192.4834320617676,77.81554725613282Q192.36083206176758,77.80952453613281,192.23813206176757,77.80952453613281L160.33333206176758,77.80952453613281Q160.21059206176758,77.80952453613281,160.08799206176758,77.81554725613282Q159.96540206176758,77.82156993613282,159.84324206176757,77.83360093613281Q159.7210920617676,77.84563183613281,159.59968206176757,77.86364193613281Q159.47826206176757,77.88165213613281,159.35788206176758,77.90559813613281Q159.23749206176757,77.92954453613281,159.11843206176758,77.95936853613281Q158.99936206176758,77.98919253613282,158.88191206176757,78.02482253613282Q158.76445206176757,78.06045353613281,158.64888206176758,78.10180453613282Q158.5333120617676,78.14315553613281,158.41991206176758,78.19012653613281Q158.3065120617676,78.23709853613282,158.1955520617676,78.28957753613281Q158.08460206176758,78.34205753613281,157.97635206176759,78.39991853613282Q157.8681020617676,78.4577785361328,157.76282206176757,78.52088153613282Q157.65754206176757,78.5839835361328,157.55548206176758,78.65217653613281Q157.45342206176758,78.72036853613281,157.35483206176758,78.79348653613282Q157.25624206176758,78.86660453613281,157.1613620617676,78.94447453613282Q157.06648206176757,79.0223445361328,156.97553206176758,79.10476453613282Q156.8845920617676,79.18719453613281,156.79780206176758,79.27399453613282Q156.71100206176757,79.36078453613281,156.62857206176758,79.45172453613282Q156.54615206176757,79.54267453613281,156.46828206176758,79.63755453613281Q156.3904120617676,79.73243453613281,156.31729406176757,79.83102453613282Q156.24417606176758,79.92961453613282,156.17598406176756,80.03167453613281Q156.10779106176759,80.1337345361328,156.04468906176757,80.23901453613281Q155.9815860617676,80.34429453613281,155.92372606176758,80.45254453613282Q155.86586506176758,80.56079453613282,155.81338506176758,80.6717445361328Q155.76090606176757,80.78270453613281,155.7139340617676,80.89610453613281Q155.66696306176758,81.00950453613281,155.62561206176758,81.12507453613281Q155.5842610617676,81.2406445361328,155.54863006176757,81.35810453613281Q155.51300006176757,81.47555453613282,155.48317606176758,81.59462453613281Q155.4533520617676,81.71368453613282,155.4294056617676,81.83407453613282Q155.40545966176757,81.95445453613281,155.38744946176757,82.07587453613282Q155.36943936176758,82.19728453613281,155.3574084617676,82.31943453613282Q155.34537746176758,82.44159453613281,155.33935478176758,82.56418453613281Q155.33333206176758,82.68678453613282,155.33333206176758,82.80952453613281ZM163.6738920617676,87.52388453613281Q163.57845206176756,87.52388453613281,163.48346206176757,87.53323453613281Q163.38847206176757,87.54259453613281,163.2948620617676,87.56121453613281Q163.20125206176758,87.57983453613281,163.10991206176757,87.60753453613282Q163.01857206176757,87.63524453613282,162.93039206176758,87.67177453613282Q162.84221206176758,87.70829453613281,162.75804206176758,87.75328453613281Q162.67386206176758,87.79828453613281,162.59450206176757,87.85132453613281Q162.5151420617676,87.9043245361328,162.4413620617676,87.96492453613281Q162.36758206176756,88.02542453613282,162.30008206176757,88.09292453613281Q162.23259206176758,88.16042453613281,162.17204206176757,88.23422453613281Q162.1114920617676,88.30802453613282,162.05846206176759,88.38732453613281Q162.00544206176758,88.46672453613282,161.96044206176757,88.55092453613281Q161.91545206176758,88.63502453613282,161.87893206176759,88.72322453613282Q161.8424020617676,88.81142453613282,161.81469206176757,88.90272453613281Q161.7869920617676,88.99412453613282,161.76837206176756,89.08772453613281Q161.74975206176757,89.18132453613282,161.74039206176758,89.27632453613282Q161.73104206176757,89.37132453613282,161.73104206176757,89.46672453613282Q161.73104206176757,89.56222453613282,161.74039206176758,89.65712453613281Q161.74975206176757,89.75212453613281,161.76837206176756,89.8457245361328Q161.7869920617676,89.9394245361328,161.81469206176757,90.03072453613281Q161.8424020617676,90.12202453613281,161.87893206176759,90.21022453613281Q161.91545206176758,90.29842453613281,161.96045206176757,90.38262453613281Q162.00544206176758,90.46672453613282,162.05846206176759,90.54612453613281Q162.1114920617676,90.62552453613282,162.17204206176757,90.69922453613282Q162.23259206176758,90.77302453613281,162.30008206176757,90.84052453613282Q162.36758206176756,90.90802453613281,162.4413620617676,90.96862453613281Q162.5151420617676,91.02912453613281,162.59450206176757,91.08212453613281Q162.67386206176758,91.13522453613281,162.75804206176758,91.18022453613281Q162.84221206176758,91.22522453613281,162.93039206176758,91.26172453613282Q163.01857206176757,91.2982245361328,163.10991206176757,91.32592453613282Q163.20125206176758,91.35362453613281,163.2948620617676,91.37222453613282Q163.38847206176757,91.39092453613281,163.48346206176757,91.40022453613281Q163.57845206176756,91.40962453613281,163.6738920617676,91.40962453613281L184.09933206176757,91.40962453613281Q184.19483206176758,91.40962453613281,184.28973206176758,91.40022453613281Q184.38473206176758,91.39092453613281,184.4783320617676,91.37222453613282Q184.57203206176757,91.35362453613281,184.66333206176756,91.32592453613282Q184.75463206176758,91.2982245361328,184.84283206176758,91.26172453613282Q184.93103206176758,91.22522453613281,185.01523206176756,91.18022453613281Q185.09933206176757,91.13522453613281,185.1787320617676,91.08212453613281Q185.25813206176758,91.02912453613281,185.33183206176759,90.96862453613281Q185.40563206176756,90.90802453613281,185.4731320617676,90.84052453613282Q185.54063206176758,90.77302453613281,185.60123206176758,90.69922453613282Q185.66173206176757,90.62552453613282,185.71473206176756,90.54612453613281Q185.7678320617676,90.46672453613282,185.81283206176758,90.38262453613281Q185.8577320617676,90.29842453613281,185.89433206176759,90.21022453613281Q185.93083206176757,90.12202453613281,185.95853206176758,90.03072453613281Q185.98623206176757,89.9394245361328,186.0048320617676,89.8457245361328Q186.02353206176758,89.75212453613281,186.03283206176758,89.65712453613281Q186.04223206176758,89.56222453613282,186.04223206176758,89.46672453613282Q186.04223206176758,89.37132453613282,186.03283206176758,89.27632453613282Q186.02353206176758,89.18132453613282,186.0048320617676,89.08772453613281Q185.98623206176757,88.99412453613282,185.95853206176758,88.90272453613281Q185.93083206176757,88.81142453613282,185.89433206176759,88.72322453613282Q185.8577320617676,88.63502453613282,185.81283206176758,88.55092453613281Q185.7678320617676,88.46672453613282,185.71473206176756,88.38732453613281Q185.66173206176757,88.30802453613282,185.60123206176758,88.23422453613281Q185.54063206176758,88.16042453613281,185.4731320617676,88.09292453613281Q185.40563206176756,88.02542453613282,185.33183206176759,87.96492453613281Q185.25813206176758,87.9043245361328,185.1787320617676,87.85132453613281Q185.09933206176757,87.79828453613281,185.01523206176756,87.75328453613281Q184.93103206176758,87.70829453613281,184.84283206176758,87.67177453613282Q184.75463206176758,87.63524453613282,184.66333206176756,87.60753453613282Q184.57203206176757,87.57983453613281,184.4783320617676,87.56121453613281Q184.38473206176758,87.54259453613281,184.28973206176758,87.53323453613281Q184.19483206176758,87.52388453613281,184.09933206176757,87.52388453613281L163.6738920617676,87.52388453613281ZM163.6738920617676,96.59072453613281Q163.57845206176756,96.59072453613281,163.48346206176757,96.60012453613281Q163.38847206176757,96.60952453613281,163.2948620617676,96.62812453613282Q163.20125206176758,96.64672453613281,163.10991206176757,96.67442453613282Q163.01857206176757,96.70212453613281,162.93039206176758,96.73862453613282Q162.84221206176758,96.77522453613281,162.75804206176758,96.82022453613281Q162.67386206176758,96.86522453613281,162.59450206176757,96.91822453613281Q162.5151420617676,96.97122453613281,162.4413620617676,97.03182453613282Q162.36758206176756,97.09232453613282,162.30008206176757,97.15982453613282Q162.23259206176758,97.22732453613281,162.17204206176757,97.30112453613282Q162.1114920617676,97.37492453613281,162.05846206176759,97.45422453613281Q162.00544206176758,97.5336245361328,161.96044206176757,97.61782453613282Q161.91545206176758,97.70192453613281,161.87893206176759,97.79012453613281Q161.8424020617676,97.87832453613281,161.81469206176757,97.96962453613281Q161.7869920617676,98.0610245361328,161.76837206176756,98.15462453613281Q161.74975206176757,98.24822453613281,161.74039206176758,98.34322453613281Q161.73104206176757,98.43822453613281,161.73104206176757,98.5336245361328Q161.73104206176757,98.62912453613282,161.74039206176758,98.72402453613282Q161.74975206176757,98.81902453613282,161.76837206176756,98.91262453613281Q161.7869920617676,99.00632453613281,161.81469206176757,99.09762453613281Q161.8424020617676,99.18892453613282,161.87893206176759,99.27712453613282Q161.91545206176758,99.36532453613282,161.96045206176757,99.44952453613281Q162.00544206176758,99.5336245361328,162.05846206176759,99.61302453613281Q162.1114920617676,99.69242453613282,162.17204206176757,99.76612453613282Q162.23259206176758,99.83992453613281,162.30008206176757,99.90742453613281Q162.36758206176756,99.97492453613282,162.4413620617676,100.03552453613281Q162.5151420617676,100.09602453613282,162.59450206176757,100.14902453613281Q162.67386206176758,100.20212453613281,162.75804206176758,100.24712453613282Q162.84221206176758,100.29202453613281,162.93039206176758,100.32862453613282Q163.01857206176757,100.36512453613281,163.10991206176757,100.39282453613282Q163.20125206176758,100.42052453613282,163.2948620617676,100.43912453613281Q163.38847206176757,100.45782453613282,163.48346206176757,100.46712453613281Q163.57845206176756,100.47652453613281,163.6738920617676,100.47652453613281L177.70163206176758,100.47652453613281Q177.79713206176757,100.47652453613281,177.89213206176757,100.46712453613281Q177.98713206176757,100.45782453613282,178.08073206176758,100.43912453613281Q178.1743320617676,100.42052453613282,178.26563206176758,100.39282453613282Q178.35703206176757,100.36512453613281,178.44513206176757,100.32862453613282Q178.53333206176757,100.29202453613281,178.61753206176758,100.24712453613282Q178.7017320617676,100.20212453613281,178.78103206176758,100.14902453613281Q178.86043206176757,100.09602453613282,178.93423206176757,100.03552453613281Q179.00803206176758,99.97492453613282,179.07543206176757,99.90742453613281Q179.14293206176757,99.83992453613281,179.2035320617676,99.76612453613282Q179.26403206176758,99.69242453613282,179.31713206176758,99.61302453613281Q179.37013206176758,99.5336245361328,179.41513206176757,99.44952453613281Q179.46013206176758,99.36532453613282,179.49663206176757,99.27712453613282Q179.5331320617676,99.18892453613282,179.56083206176757,99.09762453613281Q179.58853206176758,99.00632453613281,179.60723206176758,98.91262453613281Q179.62583206176757,98.81902453613282,179.6351320617676,98.72402453613282Q179.64453206176756,98.62912453613282,179.64453206176756,98.5336245361328Q179.64453206176756,98.43822453613281,179.6351320617676,98.34322453613281Q179.62583206176757,98.24822453613281,179.60723206176758,98.15462453613281Q179.58853206176758,98.0610245361328,179.56083206176757,97.96962453613281Q179.5331320617676,97.87832453613281,179.49663206176757,97.79012453613281Q179.46013206176758,97.70192453613281,179.41513206176757,97.61782453613282Q179.37013206176758,97.5336245361328,179.31713206176758,97.45422453613281Q179.26403206176758,97.37492453613281,179.2035320617676,97.30112453613282Q179.14293206176757,97.22732453613281,179.07543206176757,97.15982453613282Q179.00803206176758,97.09232453613282,178.93423206176757,97.03182453613282Q178.86043206176757,96.97122453613281,178.78103206176758,96.91822453613281Q178.7017320617676,96.86522453613281,178.61753206176758,96.82022453613281Q178.53333206176757,96.77522453613281,178.44513206176757,96.73862453613282Q178.35703206176757,96.70212453613281,178.26563206176758,96.67442453613282Q178.1743320617676,96.64672453613281,178.08073206176758,96.62812453613282Q177.98713206176757,96.60952453613281,177.89213206176757,96.60012453613281Q177.79713206176757,96.59072453613281,177.70163206176758,96.59072453613281L163.6738920617676,96.59072453613281ZM175.25323206176756,116.47422453613282C175.19513206176757,115.2912245361328,175.65493206176757,114.1423245361328,176.5100320617676,113.33382453613281L188.03873206176758,102.43232453613281C188.8216320617676,101.69192453613282,190.0434320617676,101.71292453613282,190.8011320617676,102.47982453613281L194.4725320617676,106.19592453613281C195.26763206176759,107.00072453613281,195.2456320617676,108.31222453613282,194.42403206176758,109.0892245361328L182.72733206176758,120.15012453613281C182.0298320617676,120.80972453613282,181.12113206176758,121.19322453613282,180.16733206176758,121.23062453613281L176.47793206176758,121.37532453613281C175.93363206176758,121.39672453613281,175.47373206176758,120.97062453613282,175.4467320617676,120.41992453613281L175.25323206176756,116.47422453613282Z" fill-rule="evenodd" fill="#FFFFFF" fill-opacity="1"/></g></g></g></svg>