<svg xmlns="http://www.w3.org/2000/svg" xmlns:xlink="http://www.w3.org/1999/xlink" fill="none" version="1.1" width="258" height="258" viewBox="0 0 258 258"><g><g><ellipse cx="129" cy="129" rx="129" ry="129" fill="#0066EC" fill-opacity="1"/></g><g><g><path d="M113.49931562500001,105.74931562500001C113.49931562500001,97.18891562499999,120.43891562499999,90.249315625,128.999315625,90.249315625C137.559715625,90.249315625,144.499315625,97.18891562499999,144.499315625,105.74931562500001C144.499315625,114.309715625,137.559715625,121.24931562500001,128.999315625,121.24931562500001C120.43891562499999,121.24931562500001,113.49931562500001,114.309715625,113.49931562500001,105.74931562500001ZM128.999315625,79.916015625C114.732015625,79.916015625,103.166015625,91.482015625,103.166015625,105.74931562500001C103.166015625,120.016715625,114.732015625,131.582715625,128.999315625,131.582715625C143.26671562500002,131.582715625,154.832715625,120.016715625,154.832715625,105.74931562500001C154.832715625,91.482015625,143.26671562500002,79.916015625,128.999315625,79.916015625ZM108.33271562499999,136.749315625C100.896715625,136.749315625,93.841215625,139.015215625,88.554285625,143.490615625C83.185385625,148.03541562499998,79.916015625,154.645315625,79.916015625,162.582715625C79.916015625,162.582715625,79.916015625,170.332715625,79.916015625,170.332715625C79.916015625,174.612915625,83.385815625,178.082715625,87.666015625,178.082715625C87.666015625,178.082715625,170.332715625,178.082715625,170.332715625,178.082715625C174.612915625,178.082715625,178.082715625,174.612915625,178.082715625,170.332715625C178.082715625,170.332715625,178.082715625,162.582715625,178.082715625,162.582715625C178.082715625,154.645315625,174.813315625,148.03541562499998,169.444415625,143.490615625C164.157515625,139.015215625,157.102015625,136.749315625,149.666015625,136.749315625C149.666015625,136.749315625,108.33271562499999,136.749315625,108.33271562499999,136.749315625ZM90.249315625,162.582715625C90.249315625,157.679415625,92.184715625,153.95601562500002,95.230615625,151.377615625C98.358515625,148.72981562500001,102.928015625,147.082715625,108.33271562499999,147.082715625C108.33271562499999,147.082715625,149.666015625,147.082715625,149.666015625,147.082715625C155.070715625,147.082715625,159.64011562500002,148.72981562500001,162.768115625,151.377615625C165.814015625,153.95601562500002,167.749315625,157.679415625,167.749315625,162.582715625C167.749315625,162.582715625,167.749315625,167.749315625,167.749315625,167.749315625C167.749315625,167.749315625,90.249315625,167.749315625,90.249315625,167.749315625C90.249315625,167.749315625,90.249315625,162.582715625,90.249315625,162.582715625Z" fill-rule="evenodd" fill="#FFFFFF" fill-opacity="1"/></g></g></g></svg>