<svg xmlns="http://www.w3.org/2000/svg" xmlns:xlink="http://www.w3.org/1999/xlink" fill="none" version="1.1" width="86" height="86" viewBox="0 0 86 86"><defs><clipPath id="master_svg0_954_55831"><rect x="0" y="0" width="86" height="86" rx="0"/></clipPath><linearGradient x1="0.5" y1="0" x2="0.5" y2="1" id="master_svg1_692_71122"><stop offset="0%" stop-color="#FFFFFF" stop-opacity="1"/><stop offset="100%" stop-color="#80FFF1" stop-opacity="1"/></linearGradient></defs><g clip-path="url(#master_svg0_954_55831)"><g><path d="M70.5637046875,9.5658175L58.6547046875,9.5658175L58.6547046875,15.2179675C58.6043046875,16.7716375,58.1424046875,17.9978375,57.2773046875,18.9048375C56.4039046875,19.8203375,55.2365046875,20.2990375,53.7584046875,20.3494375L32.2248046875,20.3494375C30.7383046875,20.2990375,29.5709046875,19.8203375,28.7059046875,18.9048375C27.8408046875,17.9978375,27.3789046875,16.763237500000002,27.3285046875,15.2179675L27.3285046875,9.5658175L15.4363246875,9.5658175C11.9593746875,9.5658175,9.1123046875,12.4128975,9.1123046875,15.8898375L9.1123046875,74.6453375C9.1123046875,78.1222375,11.9593746875,80.9693375,15.4363246875,80.9693375L70.5637046875,80.9693375C74.0406046875,80.9693375,76.8877046875,78.1222375,76.8877046875,74.6453375L76.8877046875,15.8898375C76.8877046875,12.4128875,74.0406046875,9.5658175,70.5637046875,9.5658175ZM50.1807046875,49.7019375C48.2994046875,51.5748375,45.7127046875,52.6414375,43.0000046875,52.6498375C40.2033046875,52.5406375,37.809804687500005,51.4992375,35.8277046875,49.5004375C33.8373046875,47.5099375,32.8211046875,45.0996375,32.7707046875,42.2945375C32.8211046875,39.5314375,33.7953046875,37.154737499999996,35.6766046875,35.1642375C37.557804687499996,33.165437499999996,40.0102046875,32.1240375,43.0084046875,32.0232375C46.0150046875,32.1240375,48.4590046875,33.173837500000005,50.3486046875,35.1726375C52.2131046875,37.1211375,53.2545046875,39.6658375,53.2545046875,42.3029375C53.1873046875,45.3179375,52.1627046875,47.7871375,50.1807046875,49.7019375ZM59.5533046875,66.6920375C58.9654046875,67.5066375,58.2600046875,67.9433375,57.4201046875,68.0021375L28.5799046875,68.0021375C27.7400046875,68.0021375,27.0430046875,67.6326375,26.4551046875,66.9103375C25.8672046875,66.1797375,25.6908046875,65.2306375,25.9092046875,64.0632375C26.5223046875,61.4933375,27.7316046875,59.4609375,29.5373046875,57.9828375C31.3514046875,56.4962375,33.3334046875,55.7152375,35.5002046875,55.6648375L36.5836046875,55.6648375C38.7588046875,56.7650375,40.9004046875,57.3277375,43.0084046875,57.3277375C45.1248046875,57.3277375,47.2664046875,56.7650375,49.4332046875,55.6648375L50.5166046875,55.6648375C52.6666046875,55.7152375,54.7158046875,56.5382375,56.3115046875,57.9828375C58.0080046875,59.4693375,59.2762046875,61.4933375,60.1076046875,64.0632375C60.3260046875,64.9787375,60.1244046875,65.9361375,59.5533046875,66.6920375ZM53.0697046875,7.1134775C52.2047046875,6.1728515,51.0121046875,5.7109375,49.4752046875,5.7109375L36.5248046875,5.7109375C34.9963046875,5.7109375,33.7953046875,6.1728515,32.9303046875,7.1134775C32.0652046875,8.045707499999999,31.6369046875,9.2970675,31.6369046875,10.842387500000001L31.6369046875,16.4525375L54.3631046875,16.4525375L54.3631046875,10.842387500000001C54.3631046875,9.2970675,53.9348046875,8.045707499999999,53.0697046875,7.1134775Z" fill="url(#master_svg1_692_71122)" fill-opacity="1" style="mix-blend-mode:passthrough"/></g></g></svg>