<svg xmlns="http://www.w3.org/2000/svg" xmlns:xlink="http://www.w3.org/1999/xlink" fill="none" version="1.1" width="70" height="70" viewBox="0 0 70 70"><defs><clipPath id="master_svg0_756_54116"><rect x="0" y="0" width="70" height="70" rx="0"/></clipPath><linearGradient x1="0.5" y1="0" x2="0.5" y2="1" id="master_svg1_692_71122"><stop offset="0%" stop-color="#FFFFFF" stop-opacity="1"/><stop offset="100%" stop-color="#80FFF1" stop-opacity="1"/></linearGradient><linearGradient x1="0.5" y1="0" x2="0.5" y2="1" id="master_svg2_692_71122"><stop offset="0%" stop-color="#FFFFFF" stop-opacity="1"/><stop offset="100%" stop-color="#80FFF1" stop-opacity="1"/></linearGradient></defs><g clip-path="url(#master_svg0_756_54116)"><g><path d="M33.24984375,50.96000625L33.319843750000004,50.99500625C33.319843750000004,47.53000625,34.334843750000005,44.17000625,36.25984375,41.30000625C36.18984375,40.63500625,36.32984375,39.93500625,36.67984375,39.37500625C38.21984375,37.41500625,39.37484375,35.175006249999996,40.07484375,32.76000625C41.89484375,31.29000625,43.08484375,29.12000625,43.36484375,26.77500625Q43.57484375,23.31000625,42.69984375,23.17000625C43.99484375,19.285006250000002,44.41484375,4.69003625,34.82484375,6.44003625C33.17984375,3.25503325,23.09984375,0.9450362499999998,18.40984375,8.99503625C15.85484375,13.26503625,15.36484375,18.480006250000002,17.00984375,23.17000625C17.00984375,23.48500625,16.37984375,22.85500625,16.16984375,24.92000625C16.06484375,27.16000625,16.65984375,29.36500625,17.91984375,31.18500625C18.33984375,31.71000625,18.93484375,32.13000625,19.56484375,32.37500625C20.15984375,34.930006250000005,21.34984375,37.34500625,23.02984375,39.37500625C23.34484375,41.05500625,22.50484375,42.73500625,20.96484375,43.47000625C11.79484375,45.15000625,3.46484375,50.05000625,3.46484375,55.44000625L3.46484375,59.53500625C3.46484375,65.27500624999999,17.25484375,66.53500625000001,29.67984375,66.53500625000001C33.42484375,66.50000625,37.13484375,66.22000625,40.80984375,65.69500625C36.08484375,62.26500625,33.28484375,56.80500625,33.24984375,50.96000625Z" fill="url(#master_svg1_692_71122)" fill-opacity="1" style="mix-blend-mode:passthrough"/></g><g><path d="M51.380009765625,36.015625C43.015009765625,36.015625,36.260009765625,42.805625,36.260009765625,51.135625C36.260009765625,59.500625,43.050009765625,66.255625,51.380009765625,66.255625C59.710009765625,66.255625,66.500009765625,59.465625,66.500009765625,51.135625C66.535009765625,42.770625,59.745009765625,36.01562767029,51.380009765625,36.015625ZM59.955009765625,52.885625000000005L42.840009765625,52.885625000000005L42.840009765625,49.420625L59.955009765625,49.420625L59.955009765625,52.885625000000005Z" fill="url(#master_svg2_692_71122)" fill-opacity="1" style="mix-blend-mode:passthrough"/></g></g></svg>