<svg xmlns="http://www.w3.org/2000/svg" xmlns:xlink="http://www.w3.org/1999/xlink" fill="none" version="1.1" width="60" height="60" viewBox="0 0 60 60"><defs><clipPath id="master_svg0_954_65977"><rect x="16" y="16" width="28" height="28" rx="0"/></clipPath></defs><g><g><ellipse cx="30" cy="30" rx="30" ry="30" fill="#40E7D5" fill-opacity="0.20000000298023224"/></g><g clip-path="url(#master_svg0_954_65977)"><g><path d="M37.437890625,39.5375L22.562890625,39.5375C21.425390625,39.5375,20.462890625,38.575,20.462890625,37.35L20.462890625,32.3625L39.537890625,32.3625L39.537890625,37.35C39.537890625,38.575,38.575390625,39.5375,37.437890625,39.5375ZM32.362890625,34.8125L22.825390625,34.8125L22.825390625,37.175L32.362890625,37.175L32.362890625,34.8125ZM37.175390625,34.8125L34.812890625,34.8125L34.812890625,37.175L37.175390625,37.175L37.175390625,34.8125ZM20.462890625,22.5625C20.462890625,21.3375,21.425390625,20.375,22.562890625,20.375L37.437890625,20.375C38.575390625,20.375,39.537890625,21.3375,39.537890625,22.5625L39.537890625,31.1375L20.462890625,31.1375L20.462890625,22.5625ZM24.312890625,29.125L26.062890625,26.15L30.087890625,28.8625L32.275390625,25.45L36.562890625,27.9L37.525390625,26.15L31.575390625,22.3875L29.562890625,25.8875L25.187890625,23.525L22.562890625,28.1625L24.312890625,29.125Z" fill="#40E7D5" fill-opacity="1" style="mix-blend-mode:passthrough"/></g></g></g></svg>