<svg xmlns="http://www.w3.org/2000/svg" xmlns:xlink="http://www.w3.org/1999/xlink" fill="none" version="1.1" width="70" height="70" viewBox="0 0 70 70"><defs><clipPath id="master_svg0_728_53199"><rect x="0" y="0" width="70" height="70" rx="0"/></clipPath><linearGradient x1="0.5" y1="0" x2="0.5" y2="1" id="master_svg1_692_71122"><stop offset="0%" stop-color="#FFFFFF" stop-opacity="1"/><stop offset="100%" stop-color="#80FFF1" stop-opacity="1"/></linearGradient></defs><g clip-path="url(#master_svg0_728_53199)"><g><path d="M64.04525625,62.494159375L30.36455625,62.494159375C29.47595625,62.494159375,28.75815625,61.769559375,28.75815625,60.874059375L28.75815625,57.107459375C28.75815625,49.478559375,33.32455625,42.710959375,40.38605625,39.867159375L40.80985625,39.696259375L40.44755625,39.409159375C37.77475625,37.290059375,36.236656249999996,34.131859375000005,36.236656249999996,30.734359375C36.236656249999996,24.650359375,41.15855625,19.701159375,47.20145625,19.701159375C53.24445625,19.701159375,58.15945625,24.650359375,58.15945625,30.734359375C58.15945625,34.131859375000005,56.62825625,37.290059375,53.95535625,39.409159375L53.59305625,39.696259375L54.01695625,39.867159375C61.07845625,42.710959375,65.64485625,49.478559375,65.64485625,57.107459375L65.64485625,60.874059375C65.65855625,61.769559375,64.93395625,62.494159375,64.04525625,62.494159375ZM32.26495625,27.610359375C31.66345625,31.472659375,32.27865625,35.642559375000005,34.73955625,38.595659375L35.149756249999996,38.923859375L34.66435625,39.115259375C28.64195625,41.548859375,25.66145625,46.935559375,24.53355625,53.156259375Q23.43975625,53.197259375,22.80405625,53.190459375C13.82161625,51.454059375,6.78743625,44.481459375,4.85970025,35.396459375C3.58821625,29.387659375,4.70247425,23.228559375,8.00423625,18.053759375C11.30598625,12.878909375,16.39195625,9.317379375,22.31865625,8.025390375C23.89775625,7.683593375,25.51785625,7.505859375,27.11755625,7.505859375C33.73465625,7.505859375,40.19465625,10.561519375,44.48075625,15.695309375Q44.69955625,16.071289375,45.06185625,16.734379375C38.16435625,16.768559375000002,33.010056250000005,22.845659375,32.26495625,27.610359375ZM27.20635625,18.381859374999998L24.06865625,18.381859374999998L24.06865625,30.351559375L16.890956250000002,37.583959375L19.21515625,39.306659374999995L27.20635625,31.253859375L27.20635625,18.381859374999998Z" fill="url(#master_svg1_692_71122)" fill-opacity="1" style="mix-blend-mode:passthrough"/></g></g></svg>