<svg xmlns="http://www.w3.org/2000/svg" xmlns:xlink="http://www.w3.org/1999/xlink" fill="none" version="1.1" width="60" height="60" viewBox="0 0 60 60"><defs><clipPath id="master_svg0_954_65985"><rect x="16" y="16" width="28" height="28" rx="0"/></clipPath></defs><g><g><ellipse cx="30" cy="30" rx="30" ry="30" fill="#40E7D5" fill-opacity="0.20000000298023224"/></g><g clip-path="url(#master_svg0_954_65985)"><g><path d="M37.9604,19C39.5517,19.000178757,40.8737,20.2271,40.9923,21.8138L41,22.040399999999998L41,31.4047C40.9999,32.995400000000004,39.773399999999995,34.3172,38.187,34.4363L37.9604,34.4451L22.0407,34.4451C20.44942,34.444900000000004,19.127399,33.218,19.00880087,31.6313L19,31.4047L19,22.040399999999998C19.000136599,20.44966,20.22655,19.127933,21.81298,19.00879999L22.0407,19L37.9593,19L37.9604,19ZM38.4279,39.603C38.7903,39.6014,39.0938,39.8772,39.1267,40.238C39.1596,40.5989,38.911100000000005,40.925,38.554500000000004,40.989000000000004L38.4279,41L21.57206,41C21.2099,41.001000000000005,20.90703,40.7251,20.8744,40.3644C20.84177,40.0038,21.09019,39.678,21.446649999999998,39.614000000000004L21.57206,39.603L38.4279,39.603ZM33.7459,36.323899999999995C34.1042,36.3288,34.4009,36.6036,34.4332,36.9604C34.4654,37.3172,34.222899999999996,37.6408,33.8713,37.709900000000005L33.7459,37.7209L26.25413,37.7209C25.89196,37.721900000000005,25.58909,37.446,25.556449999999998,37.085300000000004C25.52382,36.7247,25.77225,36.3989,26.128709999999998,36.334900000000005L26.25413,36.323899999999995L33.7459,36.323899999999995ZM25.632559999999998,25.7914L25.632559999999998,27.6603L30.041800000000002,27.6603L30.0385,30.1518L34.445499999999996,26.7231L30.0484,23.2988L30.045099999999998,25.790300000000002L25.63366,25.7914L25.632559999999998,25.7914Z" fill="#40E7D5" fill-opacity="1" style="mix-blend-mode:passthrough"/></g></g></g></svg>