<svg xmlns="http://www.w3.org/2000/svg" xmlns:xlink="http://www.w3.org/1999/xlink" fill="none" version="1.1" width="60" height="60" viewBox="0 0 60 60"><defs><clipPath id="master_svg0_954_65981"><rect x="18" y="18" width="24" height="24" rx="0"/></clipPath></defs><g><g><ellipse cx="30" cy="30" rx="30" ry="30" fill="#40E7D5" fill-opacity="0.20000000298023224"/></g><g clip-path="url(#master_svg0_954_65981)"><g><path d="M39.7316296875,32.318546874999996C39.4783296875,33.518546875,38.998329687500004,34.661246875,38.3183296875,35.685246875000004L39.7316296875,37.474546875L37.4423296875,39.745246875L35.639629687500005,38.342546875C34.6141296875,39.031346875,33.4613296875,39.508146875,32.2489296875,39.745246875L31.9729296875,41.999946875L28.7436296875,41.999946875L28.4676296875,39.745246875C27.2592996875,39.493546875,26.1087996875,39.017846875000004,25.0756296875,38.342546875L23.2742896875,39.745246875L20.9849596875,37.474546875L22.3982896875,35.685246875000004C21.7043996875,34.670146875,21.2235996875,33.524846875,20.9849596875,32.318546874999996L18.7129586875,32.042546875L18.7129586875,28.838546875L20.9849596875,28.565246875C21.1395896875,27.801086875,21.3904796875,27.059616875,21.7316296875,26.358576875L24.2956296875,28.307946875C23.5964796875,30.260046875,23.8978396875,32.430746875,25.1022896875,34.118546875C26.312869687499997,35.812646875,28.2681296875,36.816646875,30.3503296875,36.813246875000004C33.9049296875,36.813246875000004,36.778329687500005,33.962546875,36.778329687500005,30.435946875C36.7791296875,28.740546875,36.1017296875,27.115356875,34.8969296875,25.922576875C33.1796296875,24.219146875,30.6523296875,23.622216875,28.354329687499998,24.377236875L26.1302896875,21.945236875C26.8715896875,21.581186875,27.6573896875,21.315816875,28.4676296875,21.155906875L28.7436296875,18.901239875L31.9729296875,18.901239875L32.2489296875,21.155906875C33.4566296875,21.407716875,34.6065296875,21.882976875,35.639629687500005,22.557236875L37.4423296875,21.155906875L39.7316296875,23.426576875000002L38.3183296875,25.215906875C39.011629687500005,26.233236875,39.492929687499995,27.377236875,39.7316296875,28.581246874999998L42.0023296875,28.855946875L42.0023296875,32.061246875L39.7316296875,32.318546874999996ZM29.718329687500002,27.469236875C31.333129687499998,26.920216875,33.1172296875,27.488596875,34.116929687500004,28.870546875000002C34.9449296875,30.001246875,35.0823296875,31.491946875,34.4729296875,32.751946875L32.5583296875,30.094546875C32.2323296875,29.630846875,31.590529687500002,29.522346875,31.1303296875,29.853246875L29.7329296875,30.851946875C29.270329687500002,31.173446875,29.1604296875,31.811546874999998,29.4889296875,32.269246875L31.406329687499998,34.927946875C30.0074296875,35.097046875000004,28.627129687500002,34.492946875,27.8022896875,33.350546875C27.0008496875,32.230646875,26.8584996875,30.768046875,27.4289596875,29.514546875C27.3983096875,29.498746875000002,27.370759687499998,29.477546875,27.3476196875,29.451946875L18.4062916875,20.961236875C17.8684756875,20.429006875,17.8684756875,19.560146875,18.4062916875,19.027906875L19.0542896875,18.385238875C19.6010096875,17.868982875,20.4555696875,17.868982875,21.0022896875,18.385238875L29.556929687500002,27.291906875000002C29.6185296875,27.343446874999998,29.6728296875,27.403096875,29.718329687500002,27.469236875ZM20.7916296875,19.529236875C20.4572096875,19.188906875,19.9087096875,19.188906875,19.5742896875,19.529236875C19.2335696875,19.859306875,19.2335696875,20.405836875,19.5742896875,20.735906875C19.9074196875,21.079306875,20.4584996875,21.079306875,20.7916296875,20.735906875C21.1323496875,20.405836875,21.1323496875,19.859306875,20.7916296875,19.529236875Z" fill="#40E7D5" fill-opacity="1" style="mix-blend-mode:passthrough"/></g></g></g></svg>