<svg xmlns="http://www.w3.org/2000/svg" xmlns:xlink="http://www.w3.org/1999/xlink" fill="none" version="1.1" width="70" height="70" viewBox="0 0 70 70"><defs><clipPath id="master_svg0_728_53195"><rect x="0" y="0" width="70" height="70" rx="0"/></clipPath><linearGradient x1="0.5" y1="0" x2="0.5" y2="1" id="master_svg1_692_71122"><stop offset="0%" stop-color="#FFFFFF" stop-opacity="1"/><stop offset="100%" stop-color="#80FFF1" stop-opacity="1"/></linearGradient></defs><g clip-path="url(#master_svg0_728_53195)"><g><path d="M58.2336,55.796425C58.3386,56.785425,58.4086,57.415725,58.4611,57.678225C58.5049,58.229725,58.4086,58.711125,58.1723,59.069925C57.936,59.455125,57.3933,59.761425,56.518,59.971525C55.774,60.137825,54.7237,60.321625,53.3145,60.522925C51.914,60.706725,50.286,60.899325,48.4216,61.065625C46.5572,61.240725,44.5265,61.380725,42.2945,61.485725C40.0713,61.590825,37.7343,61.652025,35.2747,61.652025C32.8239,61.652025,30.4694,61.608325,28.2199,61.512025C25.9704,61.424525,23.9134,61.310725,22.0316,61.153125C20.1497,60.995625,18.4866,60.829325,17.0424,60.636725C15.5982,60.452925,14.4515,60.242825,13.6375,60.024025C13.4537,59.980225,13.2437,59.901525,12.9811,59.770225C12.7185,59.638925,12.4734,59.481325,12.2371,59.280025C12.0095,59.096225,11.8257,58.851125,11.6944,58.571025C11.5631,58.290925,11.5106,57.984625,11.5631,57.634525C11.6069,57.328125,11.7294,56.645425,11.922,55.595025C12.1233,54.535925,12.3509,53.406825,12.6047,52.198925C12.8585,50.991025,13.1036,49.853125,13.3137,48.802825C13.5325,47.734925,13.6813,47.078425,13.7688,46.824625C13.9439,46.299425,14.189,45.765525,14.5128,45.205325C14.8367,44.653925,15.3881,44.067425,16.1584,43.463525C16.5435,43.165925,17.2612,42.842025,18.2941,42.500725C19.3182,42.150625,20.4123,41.844225,21.5239,41.529125C22.6443,41.231525,23.7034,40.977725,24.6925,40.758825C25.6815,40.540025,26.338,40.391225,26.6356,40.303725C27.2833,40.181225,27.8522,40.014925000000005,28.3512,39.822325C28.8501,39.621025,29.0952,39.349625,29.0952,39.008325L29.0952,35.253325000000004C28.6225,34.859425,28.1674,34.430525,27.7297,33.957825C27.3358,33.572725,26.9594,33.108824999999996,26.5656,32.566125C26.1892,32.032225,25.8303,31.463325,25.5327,30.850625C24.9288,29.686425,24.5436,28.609825,24.3686,27.647025C24.1935,26.675425,24.0797,26.106525,24.0447,25.931425C24.0097,25.756425,23.8347,25.616325,23.5546,25.511325C23.2745,25.406225,23.0732,25.178725,22.9419,24.828625C22.5917,24.093325,22.4342,23.323124999999997,22.4517,22.500325C22.478,21.677525,22.5305,20.513424999999998,22.618,19.007925C22.7493,17.502395,23.0031,16.049415,23.362,14.675205C23.7296,13.292245000000001,24.5436,12.014325,25.7953,10.850195C26.443,10.298755,27.3008,9.826095,28.3862,9.467225C29.454,9.099611,30.5656,8.828271,31.686,8.653212C32.8151,8.4869069,33.883,8.390625,34.8983,8.390625C35.9137,8.390625,36.6839,8.4518954,37.2003,8.583189C37.7605,8.758247,38.2157,8.933305,38.5658,9.125869C38.9159,9.318433,39.1872,9.510995,39.3798,9.677305C39.5724,9.843605,39.7299,10.009915,39.8612,10.158715C39.9925,10.316265,40.1238,10.430055,40.2551,10.517585C40.4739,10.692635,40.754,10.736405,41.0954,10.675135000000001C41.463,10.631365,42.0582,10.675135000000001,42.9247,10.858945C43.9226,11.077765,44.7453,11.602945,45.3843,12.443215C46.032,13.283505,46.3996,14.333845,46.4872,15.585515000000001C46.4872,15.979395,46.5047,16.583345,46.5484,17.406115C46.5922,18.220135,46.6097,19.086624999999998,46.6097,19.997025C46.6097,20.898525,46.5747,21.721325,46.5134,22.456525C46.4434,23.200525,46.3296,23.646925,46.1546,23.813225C45.892,24.110825,45.6469,24.250925000000002,45.4106,24.233425C45.1742,24.207124999999998,45.0517,24.338425,45.0517,24.592225C45.0517,24.732325,45.0167,25.187425,44.9554,25.957725C44.8941,26.727925,44.7103,27.813325,44.4127,29.187525C44.2377,29.931525,43.9926,30.579225,43.6687,31.165725C43.3449,31.752125,43.0123,32.277325000000005,42.6622,32.749925000000005C42.2333,33.266425,41.8044,33.739025,41.3667,34.167925C41.323,34.736925,41.3055,35.270825,41.3055,35.787225L41.3055,37.143924999999996C41.3055,37.625325000000004,41.323,37.993025,41.3667,38.246825C41.4105,38.772025,41.5505,39.139624999999995,41.7606,39.349725C41.9794,39.568525,42.4083,39.761125,43.0648,39.936125000000004C43.2749,40.032425,43.6687,40.146225,44.2289,40.330025C44.7891,40.505025,45.4631,40.732625,46.2333,41.012725C47.0123,41.292825,47.8089,41.581725,48.6579,41.888025C49.5069,42.194425,50.3209,42.483225,51.0912,42.763325C51.8614,43.034625,52.5529,43.297225,53.1569,43.533625C53.7608,43.769925,54.216,43.953725,54.5136,44.085025C55.3714,44.513925,55.9491,44.977825,56.2291,45.450425C56.5005,45.931925,56.7631,46.535825,56.9731,47.271025C57.0607,47.656225,57.1745,48.365225,57.332,49.398025C57.4808,50.430825,57.6384,51.516225,57.8134,52.627825C57.9885,53.748225,58.1285,54.807325,58.2336,55.796425ZM69.7775,52.575425C69.8738,53.433125,69.9351,53.975825,69.9788,54.203425C70.0138,54.676025,69.9351,55.096225,69.7162,55.446325C69.5149,55.778925,69.0423,56.041525,68.2895,56.225325C67.6593,56.365425,66.7402,56.522925,65.5323,56.698025C64.5695,56.829325,63.5017,56.951825,62.3025,57.074325C62.2588,56.741725,62.1975,56.199125,62.1187,55.446325C62.0137,54.448525,61.8736,53.389425,61.6986,52.277825C61.5235,51.166125,61.366,50.080825,61.2172,49.047925C61.0596,48.023825,60.9458,47.306125,60.8583,46.921025C60.6482,46.177025,60.3944,45.573025,60.1143,45.100425C59.8342,44.627725,59.2565,44.163825,58.3987,43.734925C58.1011,43.603625,57.646,43.419825,57.042,43.183525C56.4381,42.955925,55.7466,42.693325,54.9763,42.413225C54.1973,42.133125,53.3921,41.844325,52.543,41.537925C51.7028,41.231625,50.8975,40.942725,50.1185,40.662625C49.3482,40.373825,48.6743,40.155024999999995,48.1141,39.979925C47.5539,39.796125,47.16,39.682325,46.9499,39.586025C46.2935,39.411024999999995,45.8558,39.218424999999996,45.6458,38.999625C45.4269,38.789525,45.2956,38.421925,45.2519,37.896725C45.2081,37.642925000000005,45.1906,37.266525,45.1906,36.793925L45.1906,35.437225C45.1906,34.920725000000004,45.2081,34.386825,45.2519,33.817925C45.6808,33.389025000000004,46.1097,32.916325,46.5473,32.399924999999996C46.8974,31.927225,47.23,31.393325,47.5539,30.815625C47.8778,30.220425,48.1141,29.572725,48.2979,28.837525C48.5955,27.463325,48.7793,26.377925,48.8406,25.607625C48.9106,24.828625,48.9369,24.382225,48.9369,24.242224999999998C48.9369,23.979625,49.0594,23.857125,49.2957,23.883325C49.5233,23.900824999999998,49.7771,23.760825,50.0397,23.463225C50.2235,23.296925,50.3373,22.841725,50.3986,22.106524999999998C50.4686,21.371225000000003,50.4949,20.548524999999998,50.4949,19.646925C50.4949,18.736625,50.4774,17.870085,50.4336,17.056075C50.3898,16.224545,50.3723,15.629345,50.3723,15.235465C50.2848,13.983805,49.9172,12.933444999999999,49.2695,12.093175C49.1732,11.961875,49.0769,11.848095,48.9719,11.734304999999999C49.1994,11.716795,49.427,11.716795,49.6546,11.716795C50.5211,11.716795,51.1863,11.769315,51.6327,11.883105C52.1142,12.040655000000001,52.508,12.189455,52.8056,12.355755C53.112,12.522065,53.3396,12.688365000000001,53.5059,12.828415C53.6722,12.977215000000001,53.8122,13.117265,53.926,13.248555C54.031,13.379845,54.1448,13.484885,54.2586,13.554905C54.4512,13.703705,54.6875,13.747475,54.9851,13.694955C55.309,13.651185,55.8254,13.694955,56.5694,13.852505C57.4272,14.036325,58.1362,14.491465,58.6876,15.217965C59.2478,15.944455,59.5629,16.846004999999998,59.6417,17.922605C59.6417,18.255215,59.6592,18.780425,59.6942,19.489325C59.7292,20.189625,59.7467,20.933625,59.7467,21.721325C59.7467,22.500425,59.7204,23.209325,59.6679,23.839525000000002C59.6154,24.478525,59.5191,24.872425,59.3616,25.012425C59.1427,25.266325,58.9239,25.388825,58.7226,25.371325C58.5213,25.345025,58.4162,25.458825,58.4162,25.677725C58.4162,25.791425,58.39,26.185325,58.3375,26.850525C58.2762,27.515825,58.1186,28.443625,57.8648,29.634025C57.716,30.272925,57.5059,30.833125,57.2258,31.340825C56.9458,31.839725,56.6569,32.294925,56.3593,32.706225C55.9829,33.152625,55.6153,33.564025,55.2389,33.931725C55.2039,34.413125,55.1864,34.877025,55.1864,35.323425L55.1864,36.496325C55.1864,36.916425000000004,55.2039,37.231525000000005,55.2389,37.450325C55.2827,37.905525,55.3965,38.220625,55.5803,38.404425C55.7641,38.597025,56.1405,38.754525,56.7007,38.912125C56.8845,38.999625,57.2259,39.095925,57.7073,39.253425C58.1887,39.402225,58.7751,39.594825,59.4316,39.839925C60.1056,40.076225,60.797,40.330025,61.5235,40.592625C62.25,40.855225,62.9503,41.109025,63.6155,41.345425C64.2895,41.581725,64.8847,41.809325,65.4011,42.010625C65.9262,42.211925,66.3114,42.369525,66.574,42.483225C67.3092,42.850925,67.8081,43.244825,68.0532,43.656125C68.2895,44.067525,68.5084,44.583925,68.6922,45.222925C68.7622,45.555525,68.8585,46.168225,68.9985,47.061025C69.1298,47.945125,69.2611,48.881625,69.4187,49.844425C69.5587,50.807325,69.6813,51.717625,69.7775,52.575425ZM0.209267,52.934225C0.112984,53.792025,0.051714,54.334725,0.00794949,54.562325C-0.027044,55.034925,0.0517318,55.455125,0.279308,55.805225C0.480622,56.137825,0.953278,56.400425,1.70603,56.584225C2.33624,56.724225,3.2553,56.881825,4.4632,57.056825C5.42601,57.188125,6.49387,57.310725,7.69302,57.433225C7.73678,57.100625,7.79805,56.557925,7.87683,55.805225C7.98186,54.807325,8.12191,53.748225,8.29697,52.636625C8.47203,51.525025,8.62958,50.439625,8.77838,49.406825C8.93593,48.382725,9.04972,47.665025,9.13725,47.279825C9.34732,46.535825,9.60115,45.940625,9.88125,45.459225C10.1613,44.986625,10.739,44.522725,11.5968,44.093825C11.8944,43.962525,12.3496,43.778725,12.9535,43.542325C13.5575,43.314825,14.2489,43.052225,15.0192,42.772125C15.7982,42.492025,16.6035,42.203225,17.4525,41.896825C18.2928,41.590425,19.098,41.301625,19.8771,41.021525C20.6473,40.732725,21.3213,40.522625,21.8815,40.338825C22.4417,40.155024999999995,22.8355,40.041225,23.0456,39.944925C23.7021,39.769825,24.1397,39.577325,24.3498,39.358525C24.5686,39.148425,24.6999,38.780825,24.7437,38.255624999999995C24.7874,38.001825,24.8049,37.625425,24.8049,37.152725000000004L24.8049,35.796025C24.8049,35.279624999999996,24.7874,34.745725,24.7437,34.176725000000005C24.3148,33.747825,23.8859,33.275225,23.4482,32.758825C23.0981,32.286125,22.7655,31.752225,22.4417,31.174525C22.1178,30.579325,21.8727,29.931625,21.6977,29.196325C21.4001,27.822125,21.2162,26.736825,21.155,25.966525C21.085,25.187525,21.0587,24.741125,21.0587,24.601125C21.0587,24.338525,20.9362,24.215925,20.6998,24.242224999999998C20.4722,24.259725,20.2184,24.119625,19.9558,23.822025C19.7808,23.655725,19.6582,23.200625000000002,19.597,22.465325C19.5269,21.730125,19.5007,20.907325,19.5007,20.005825C19.5007,19.095525000000002,19.5182,18.228965000000002,19.5619,17.414945C19.6057,16.583415000000002,19.6232,15.988225,19.6232,15.594335000000001C19.7107,14.342675,20.0784,13.292325,20.7261,12.452045C20.8224,12.320745,20.9186,12.206965,21.0237,12.093175C20.7961,12.075665,20.5685,12.075665,20.341,12.075665C19.4657,12.075665,18.8004,12.128185,18.354,12.241975C17.8726,12.399525,17.4788,12.548325,17.1812,12.714635000000001C16.8748,12.880935000000001,16.6472,13.047235,16.4809,13.187285C16.3234,13.336085,16.1833,13.476135,16.0695,13.607425C15.9557,13.729965,15.842,13.843755,15.7282,13.913775000000001C15.5356,14.062574999999999,15.2993,14.106345000000001,15.0017,14.053825C14.6778,14.010065,14.1614,14.053825,13.4174,14.211375C12.5596,14.395195000000001,11.8506,14.850335000000001,11.2992,15.576834999999999C10.739,16.294565,10.4239,17.204875,10.3451,18.281475C10.3451,18.614125,10.3276,19.139225,10.2926,19.848225C10.2576,20.548425,10.2401,21.292425,10.2401,22.080225C10.2401,22.859225000000002,10.2664,23.568224999999998,10.3189,24.198425C10.3714,24.837425,10.4677,25.231325,10.6252,25.371325C10.8528,25.625125,11.0629,25.747725,11.2642,25.730225C11.4655,25.703925,11.5705,25.817725,11.5705,26.036525C11.5705,26.150325,11.5968,26.544225,11.6493,27.209425C11.7018,27.874625,11.8681,28.802525,12.122,29.992825C12.2708,30.631825,12.4808,31.192025,12.7609,31.699725C13.041,32.198625,13.3299,32.653725,13.6275,33.065124999999995C14.0039,33.511525,14.3715,33.922925,14.7479,34.290525C14.7829,34.771924999999996,14.8004,35.235825,14.8004,35.682225L14.8004,36.855125C14.8004,37.275324999999995,14.7829,37.590424999999996,14.7479,37.809225C14.7041,38.264325,14.5903,38.579425,14.4065,38.763324999999995C14.2227,38.955825000000004,13.8463,39.113425,13.2861,39.270925C13.1023,39.358525,12.7609,39.454724999999996,12.2795,39.612325C11.7981,39.761125,11.2117,39.953725,10.5552,40.198724999999996C9.88124,40.435125,9.18975,40.688925,8.46326,40.951525C7.73677,41.214125,7.03654,41.467925,6.37132,41.704225C5.69734,41.940625,5.10214,42.168125,4.58572,42.369525C4.06054,42.570825,3.66666,42.728325,3.41283,42.842125C2.67759,43.209725,2.17867,43.603625,1.93359,44.015025C1.69726,44.426425,1.47844,44.942825,1.29463,45.581825C1.2246,45.914425,1.12832,46.527125,0.988275,47.419925C0.856982,48.303925,0.725688,49.240525,0.568136,50.203325C0.428089,51.166125,0.305548,52.076425,0.209267,52.934225ZM29.7166,45.433025L32.6313,53.065525L34.1718,46.282025L32.3075,43.367325L29.7166,45.433025ZM36.9815,46.343225L38.7321,53.074225L41.5943,45.441725L38.8722,43.498525L36.9815,46.343225Z" fill-rule="evenodd" fill="url(#master_svg1_692_71122)" fill-opacity="1" style="mix-blend-mode:passthrough"/></g></g></svg>