<svg xmlns="http://www.w3.org/2000/svg" xmlns:xlink="http://www.w3.org/1999/xlink" fill="none" version="1.1" width="60" height="60" viewBox="0 0 60 60"><defs><clipPath id="master_svg0_954_65989"><rect x="18" y="18" width="24" height="24" rx="0"/></clipPath></defs><g><g><ellipse cx="30" cy="30" rx="30" ry="30" fill="#40E7D5" fill-opacity="0.20000000298023224"/></g><g clip-path="url(#master_svg0_954_65989)"><g><path d="M23.615234832764,40.37890625L37.128734375,40.37890625L37.128734375,42.00052625L23.615234375,42.00052625L23.615234832764,40.37890625Z" fill="#40E7D5" fill-opacity="1" style="mix-blend-mode:passthrough"/></g><g><path d="M31.4930628125,38.0842485L32.8973828125,37.2734375L34.9244128125,40.7842475L33.5200828125,41.5950575L31.4930628125,38.0842485ZM25.8173828125,40.7845175L27.8444128125,37.273706665L29.2486028125,38.0845175L27.2215728125,41.595327499999996L25.8173828125,40.7845175Z" fill="#40E7D5" fill-opacity="1" style="mix-blend-mode:passthrough"/></g><g><path d="M32.97442375,28.10003Q32.97442375,28.24618,32.96010375,28.39163Q32.945783750000004,28.53708,32.91727375,28.680419999999998Q32.88877375,28.82377,32.84636375,28.963630000000002Q32.80394375,29.10349,32.74803375,29.23852Q32.69212375,29.37355,32.62324375,29.50244Q32.554373749999996,29.63134,32.47319375,29.75286Q32.39202375,29.874380000000002,32.29933375,29.98736Q32.20664375,30.10034,32.10332375,30.20369Q32.00001375,30.30703,31.88707375,30.39975Q31.77412375,30.49247,31.65264375,30.57367Q31.53115375,30.65487,31.40230375,30.72376Q31.27344375,30.792659999999998,31.13845375,30.84859Q31.00347375,30.904519999999998,30.86365375,30.94695Q30.72383375,30.98937,30.58053375,31.01789Q30.43723375,31.0464,30.29183375,31.06072Q30.14642375,31.07505,30.00031375,31.07505Q29.85421375,31.07505,29.70880375,31.06072Q29.56340375,31.0464,29.42009375,31.01789Q29.27679375,30.98937,29.13698375,30.94695Q28.99716375,30.904519999999998,28.86217375,30.84859Q28.72719375,30.792659999999998,28.598333750000002,30.72376Q28.46947375,30.65487,28.34799375,30.57367Q28.22650375,30.49247,28.11356375,30.39975Q28.00062075,30.30703,27.89730575,30.20369Q27.79399175,30.10034,27.70130175,29.98736Q27.60861075,29.874380000000002,27.52743775,29.75286Q27.44626375,29.63134,27.37738875,29.50244Q27.30851375,29.37355,27.25260075,29.23852Q27.19668775,29.10349,27.15427475,28.963630000000002Q27.11186135,28.82377,27.08335695,28.680419999999998Q27.05485255,28.53708,27.04053145,28.39163Q27.02621033,28.24618,27.02621033,28.10003Q27.02621033,27.953870000000002,27.04053145,27.808419999999998Q27.05485255,27.66297,27.08335695,27.51963Q27.11186135,27.37628,27.15427475,27.23642Q27.19668775,27.09656,27.25260075,26.96153Q27.30851375,26.8265,27.37738875,26.69761Q27.44626375,26.56871,27.52743775,26.44719Q27.60861075,26.32567,27.70130175,26.21269Q27.79399175,26.099711,27.89730575,25.996365Q28.00062075,25.893019,28.11356375,25.8003Q28.22650375,25.707581,28.34799375,25.626382Q28.46947375,25.545184,28.598333750000002,25.476287Q28.72719375,25.407391,28.86217375,25.35146Q28.99716375,25.29553,29.13698375,25.253104Q29.27679375,25.2106774,29.42009375,25.1821643Q29.56340375,25.1536511,29.70880375,25.1393256Q29.85421375,25.125,30.00031375,25.125Q30.14642375,25.125,30.29183375,25.1393256Q30.43723375,25.1536511,30.58053375,25.1821643Q30.72383375,25.2106774,30.86365375,25.253104Q31.00347375,25.29553,31.13845375,25.35146Q31.27344375,25.407391,31.40230375,25.476287Q31.53115375,25.545184,31.65264375,25.626382Q31.77412375,25.707581,31.88707375,25.8003Q32.00001375,25.893019,32.10332375,25.996365Q32.20664375,26.099711,32.29933375,26.21269Q32.39202375,26.32567,32.47319375,26.44719Q32.554373749999996,26.56871,32.62324375,26.69761Q32.69212375,26.8265,32.74803375,26.96153Q32.80394375,27.09656,32.84636375,27.23642Q32.88877375,27.37628,32.91727375,27.51963Q32.945783750000004,27.66297,32.96010375,27.808419999999998Q32.97442375,27.953870000000002,32.97442375,28.10003Z" fill="#40E7D5" fill-opacity="1" style="mix-blend-mode:passthrough"/></g><g><path d="M30.810739062499998,18L30.810739062499998,21.47838L29.189089062500003,21.47838L29.189089062500003,18C21.6499690625,18.605068,17.4058390625,26.95591,21.3610090625,33.402699999999996C25.316169062500002,39.8495,34.6836390625,39.8495,38.6388390625,33.402699999999996C42.5939390625,26.95591,38.349839062499996,18.605067,30.810739062499998,18ZM29.999939062499998,32.6946C27.4623790625,32.6946,25.4053090625,30.6375,25.4053090625,28.1C25.4053090625,25.56248,27.4623790625,23.50541,29.999939062499998,23.50541C32.5374390625,23.50541,34.594539062500004,25.56248,34.594539062500004,28.1C34.594539062500004,30.6375,32.5374390625,32.6946,29.999939062499998,32.6946Z" fill="#40E7D5" fill-opacity="1" style="mix-blend-mode:passthrough"/></g></g></g></svg>