<svg xmlns="http://www.w3.org/2000/svg" xmlns:xlink="http://www.w3.org/1999/xlink" fill="none" version="1.1" width="140" height="140" viewBox="0 0 140 140"><defs><radialGradient cx="0" cy="0" r="1" gradientUnits="userSpaceOnUse" id="master_svg0_692_70513" gradientTransform="translate(70 70) rotate(0) scale(70 70)"><stop offset="0%" stop-color="#40E7D5" stop-opacity="0"/><stop offset="100%" stop-color="#40E7D5" stop-opacity="1"/></radialGradient></defs><g><path d="M140,70Q140,71.7184,139.916,73.4347Q139.831,75.1511,139.663,76.8612Q139.495,78.5713,139.242,80.2711Q138.99,81.9709,138.655,83.6563Q138.32,85.3417,137.902,87.0086Q137.485,88.6755,136.986,90.3199Q136.487,91.9643,135.908,93.5823Q135.329,95.2002,134.672,96.7878Q134.014,98.3754,133.279,99.9288Q132.545,101.482,131.734,102.998Q130.924,104.513,130.041,105.987Q129.158,107.461,128.203,108.89Q127.248,110.319,126.225,111.699Q125.201,113.079,124.111,114.408Q123.021,115.736,121.867,117.009Q120.713,118.282,119.497,119.497Q118.282,120.713,117.009,121.867Q115.736,123.021,114.408,124.111Q113.079,125.201,111.699,126.225Q110.319,127.248,108.89,128.203Q107.461,129.158,105.987,130.041Q104.513,130.924,102.998,131.734Q101.482,132.545,99.9288,133.279Q98.3754,134.014,96.7878,134.672Q95.2002,135.329,93.5823,135.908Q91.9643,136.487,90.3199,136.986Q88.6755,137.485,87.0086,137.902Q85.3417,138.32,83.6563,138.655Q81.9709,138.99,80.2711,139.242Q78.5713,139.495,76.8612,139.663Q75.1511,139.831,73.4347,139.916Q71.7184,140,70,140Q68.2816,140,66.5653,139.916Q64.8489,139.831,63.1388,139.663Q61.4287,139.495,59.7289,139.242Q58.0291,138.99,56.3437,138.655Q54.6583,138.32,52.9914,137.902Q51.3245,137.485,49.6801,136.986Q48.0357,136.487,46.4177,135.908Q44.7998,135.329,43.2122,134.672Q41.6246,134.014,40.0711,133.279Q38.5177,132.545,37.0022,131.734Q35.4867,130.924,34.0128,130.041Q32.5389,129.158,31.1101,128.203Q29.6813,127.248,28.301,126.225Q26.9208,125.201,25.5925,124.111Q24.2641,123.021,22.9909,121.867Q21.7176,120.713,20.5025,119.497Q19.2874,118.282,18.1334,117.009Q16.9794,115.736,15.8893,114.408Q14.7991,113.079,13.7755,111.699Q12.7518,110.319,11.7971,108.89Q10.8424,107.461,9.959,105.987Q9.07556,104.513,8.26551,102.998Q7.45546,101.482,6.72075,99.9288Q5.98604,98.3754,5.32843,96.7878Q4.67083,95.2002,4.09191,93.5823Q3.513,91.9643,3.01418,90.3199Q2.51535,88.6755,2.09781,87.0086Q1.68027,85.3417,1.34503,83.6563Q1.00979,81.9709,0.757644,80.2711Q0.505502,78.5713,0.337069,76.8612Q0.168636,75.1511,0.084318,73.4347Q0,71.7184,0,70Q0,68.2816,0.084318,66.5653Q0.168636,64.8489,0.337069,63.1388Q0.505502,61.4287,0.757644,59.7289Q1.00979,58.0291,1.34503,56.3437Q1.68027,54.6583,2.09781,52.9914Q2.51535,51.3245,3.01418,49.6801Q3.513,48.0357,4.09191,46.4177Q4.67083,44.7998,5.32843,43.2122Q5.98604,41.6246,6.72075,40.0711Q7.45546,38.5177,8.26551,37.0022Q9.07556,35.4867,9.959,34.0128Q10.8424,32.5389,11.7971,31.1101Q12.7518,29.6813,13.7755,28.301Q14.7991,26.9208,15.8893,25.5925Q16.9794,24.2641,18.1334,22.9909Q19.2874,21.7176,20.5025,20.5025Q21.7176,19.2874,22.9909,18.1334Q24.2641,16.9794,25.5925,15.8893Q26.9208,14.7991,28.301,13.7755Q29.6813,12.7518,31.1101,11.7971Q32.5389,10.8424,34.0128,9.959Q35.4867,9.07556,37.0022,8.26551Q38.5177,7.45546,40.0711,6.72075Q41.6246,5.98604,43.2122,5.32843Q44.7998,4.67083,46.4177,4.09191Q48.0357,3.513,49.6801,3.01418Q51.3245,2.51535,52.9914,2.09781Q54.6583,1.68027,56.3437,1.34503Q58.0291,1.00979,59.7289,0.757644Q61.4287,0.505502,63.1388,0.337069Q64.8489,0.168636,66.5653,0.084318Q68.2816,0,70,0Q71.7184,0,73.4347,0.084318Q75.1511,0.168636,76.8612,0.337069Q78.5713,0.505502,80.2711,0.757644Q81.9709,1.00979,83.6563,1.34503Q85.3417,1.68027,87.0086,2.09781Q88.6755,2.51535,90.3199,3.01418Q91.9643,3.513,93.5823,4.09191Q95.2002,4.67083,96.7878,5.32843Q98.3754,5.98604,99.9288,6.72075Q101.482,7.45546,102.998,8.26551Q104.513,9.07556,105.987,9.959Q107.461,10.8424,108.89,11.7971Q110.319,12.7518,111.699,13.7755Q113.079,14.7991,114.408,15.8893Q115.736,16.9794,117.009,18.1334Q118.282,19.2874,119.497,20.5025Q120.713,21.7176,121.867,22.9909Q123.021,24.2641,124.111,25.5925Q125.201,26.9208,126.225,28.301Q127.248,29.6813,128.203,31.1101Q129.158,32.5389,130.041,34.0128Q130.924,35.4867,131.734,37.0022Q132.545,38.5177,133.279,40.0711Q134.014,41.6246,134.672,43.2122Q135.329,44.7998,135.908,46.4177Q136.487,48.0357,136.986,49.6801Q137.485,51.3245,137.902,52.9914Q138.32,54.6583,138.655,56.3437Q138.99,58.0291,139.242,59.7289Q139.495,61.4287,139.663,63.1388Q139.831,64.8489,139.916,66.5653Q140,68.2816,140,70ZM136,70Q136,68.3798,135.921,66.7615Q135.841,65.1433,135.682,63.5309Q135.523,61.9185,135.286,60.3158Q135.048,58.7131,134.732,57.124Q134.416,55.535,134.022,53.9633Q133.628,52.3917,133.158,50.8412Q132.688,49.2908,132.142,47.7653Q131.596,46.2398,130.976,44.7429Q130.356,43.246,129.663,41.7814Q128.971,40.3167,128.207,38.8878Q127.443,37.4589,126.61,36.0692Q125.777,34.6795,124.877,33.3324Q123.977,31.9852,123.012,30.6838Q122.047,29.3825,121.019,28.13Q119.991,26.8776,118.903,25.6771Q117.815,24.4766,116.669,23.3309Q115.523,22.1853,114.323,21.0972Q113.122,20.0092,111.87,18.9813Q110.618,17.9535,109.316,16.9883Q108.015,16.0231,106.668,15.123Q105.32,14.2229,103.931,13.3899Q102.541,12.557,101.112,11.7932Q99.6833,11.0294,98.2186,10.3367Q96.754,9.64398,95.2571,9.02395Q93.7602,8.40392,92.2347,7.85809Q90.7092,7.31226,89.1588,6.84194Q87.6083,6.37161,86.0367,5.97794Q84.465,5.58426,82.876,5.26817Q81.2869,4.95208,79.6842,4.71435Q78.0815,4.47662,76.4691,4.31781Q74.8567,4.159,73.2385,4.0795Q71.6202,4,70,4Q68.3798,4,66.7615,4.0795Q65.1433,4.159,63.5309,4.31781Q61.9185,4.47662,60.3158,4.71435Q58.7131,4.95208,57.124,5.26817Q55.535,5.58426,53.9633,5.97794Q52.3917,6.37161,50.8412,6.84194Q49.2908,7.31226,47.7653,7.85809Q46.2398,8.40392,44.7429,9.02395Q43.246,9.64398,41.7814,10.3367Q40.3167,11.0294,38.8878,11.7932Q37.4589,12.557,36.0692,13.3899Q34.6795,14.2229,33.3324,15.123Q31.9852,16.0231,30.6838,16.9883Q29.3825,17.9535,28.13,18.9813Q26.8776,20.0092,25.6771,21.0972Q24.4766,22.1853,23.3309,23.3309Q22.1853,24.4766,21.0972,25.6771Q20.0092,26.8776,18.9813,28.13Q17.9535,29.3825,16.9883,30.6838Q16.0231,31.9852,15.123,33.3324Q14.2229,34.6795,13.3899,36.0692Q12.557,37.4589,11.7932,38.8878Q11.0294,40.3167,10.3367,41.7814Q9.64398,43.246,9.02395,44.7429Q8.40392,46.2398,7.85809,47.7653Q7.31226,49.2908,6.84194,50.8412Q6.37161,52.3917,5.97794,53.9633Q5.58426,55.535,5.26817,57.124Q4.95208,58.7131,4.71435,60.3158Q4.47662,61.9185,4.31781,63.5309Q4.159,65.1433,4.0795,66.7615Q4,68.3798,4,70Q4,71.6202,4.0795,73.2385Q4.159,74.8567,4.31781,76.4691Q4.47662,78.0815,4.71435,79.6842Q4.95208,81.2869,5.26817,82.876Q5.58426,84.465,5.97794,86.0367Q6.37161,87.6083,6.84194,89.1588Q7.31226,90.7092,7.85809,92.2347Q8.40392,93.7602,9.02395,95.2571Q9.64398,96.754,10.3367,98.2186Q11.0294,99.6833,11.7932,101.112Q12.557,102.541,13.3899,103.931Q14.2229,105.32,15.123,106.668Q16.0231,108.015,16.9883,109.316Q17.9535,110.618,18.9813,111.87Q20.0092,113.122,21.0972,114.323Q22.1853,115.523,23.3309,116.669Q24.4766,117.815,25.6771,118.903Q26.8776,119.991,28.13,121.019Q29.3825,122.047,30.6838,123.012Q31.9852,123.977,33.3324,124.877Q34.6795,125.777,36.0692,126.61Q37.4589,127.443,38.8878,128.207Q40.3167,128.971,41.7814,129.663Q43.246,130.356,44.7429,130.976Q46.2398,131.596,47.7653,132.142Q49.2908,132.688,50.8412,133.158Q52.3917,133.628,53.9633,134.022Q55.535,134.416,57.124,134.732Q58.7131,135.048,60.3158,135.286Q61.9185,135.523,63.5309,135.682Q65.1433,135.841,66.7615,135.921Q68.3798,136,70,136Q71.6202,136,73.2385,135.921Q74.8567,135.841,76.4691,135.682Q78.0815,135.523,79.6842,135.286Q81.2869,135.048,82.876,134.732Q84.465,134.416,86.0367,134.022Q87.6083,133.628,89.1588,133.158Q90.7092,132.688,92.2347,132.142Q93.7602,131.596,95.2571,130.976Q96.754,130.356,98.2186,129.663Q99.6833,128.971,101.112,128.207Q102.541,127.443,103.931,126.61Q105.32,125.777,106.668,124.877Q108.015,123.977,109.316,123.012Q110.618,122.047,111.87,121.019Q113.122,119.991,114.323,118.903Q115.523,117.815,116.669,116.669Q117.815,115.523,118.903,114.323Q119.991,113.122,121.019,111.87Q122.047,110.618,123.012,109.316Q123.977,108.015,124.877,106.668Q125.777,105.32,126.61,103.931Q127.443,102.541,128.207,101.112Q128.971,99.6833,129.663,98.2186Q130.356,96.754,130.976,95.2571Q131.596,93.7602,132.142,92.2347Q132.688,90.7092,133.158,89.1588Q133.628,87.6083,134.022,86.0367Q134.416,84.465,134.732,82.876Q135.048,81.2869,135.286,79.6842Q135.523,78.0815,135.682,76.4691Q135.841,74.8567,135.921,73.2385Q136,71.6202,136,70Z" fill="url(#master_svg0_692_70513)" fill-opacity="1"/></g></svg>