<svg xmlns="http://www.w3.org/2000/svg" xmlns:xlink="http://www.w3.org/1999/xlink" fill="none" version="1.1" width="70" height="70" viewBox="0 0 70 70"><defs><clipPath id="master_svg0_728_53201"><rect x="0" y="0" width="70" height="70" rx="0"/></clipPath><linearGradient x1="0.5" y1="0" x2="0.5" y2="1" id="master_svg1_692_71122"><stop offset="0%" stop-color="#FFFFFF" stop-opacity="1"/><stop offset="100%" stop-color="#80FFF1" stop-opacity="1"/></linearGradient></defs><g clip-path="url(#master_svg0_728_53201)"><g><path d="M62.159559375,61.5534875L7.101929375,61.5534875C5.839059375,61.5476875,4.818359375,60.5223875,4.818359375,59.2594875C4.818359041214,57.9965875,5.839059375,56.9711875,7.101929375,56.9653875L7.8666293750000005,56.9653875L7.8666293750000005,12.613457499999999C7.8666293750000005,10.9241475,9.236089374999999,9.554687833786,10.925399375,9.5546875L33.865959375,9.5546875C35.555259375,9.554687833786,36.924759375,10.9241475,36.924759375,12.613457499999999L36.924759375,18.9695575C40.303159375,19.544597500000002,49.297459375,21.099987499999997,54.839859375,22.2622875C58.631259375,23.0575875,58.346759375,25.0809875,58.346759375,29.3081875L58.346759375,56.9653875L62.159459375,56.9653875C63.422359375,56.9711875,64.44305937499999,57.9965875,64.44305937499999,59.2594875C64.44305937499999,60.5223875,63.422359375,61.5476875,62.159559375,61.5534875ZM30.807259375,23.7487875C30.807259375,22.6668875,29.930159375,21.7896875,28.848159375,21.7896875L17.472659375,21.7896875C16.390659375,21.7896875,15.513459375,22.6668875,15.513459375,23.7487875L15.513459375,24.4186875C15.513459375,25.500687499999998,16.390659375,26.3777875,17.472659375,26.3777875L28.848159375,26.3777875C29.930159375,26.3777875,30.807259375,25.500687499999998,30.807259375,24.4186875L30.807259375,23.7487875ZM30.807259375,34.4544875C30.807259375,33.3724875,29.930159375,32.4953875,28.848159375,32.4953875L17.472659375,32.4953875C16.390659375,32.4953875,15.513459375,33.3724875,15.513459375,34.4544875L15.513459375,35.1243875C15.513459375,36.206387500000005,16.390659375,37.083487500000004,17.472659375,37.083487500000004L28.848159375,37.083487500000004C29.930159375,37.083487500000004,30.807259375,36.206387500000005,30.807259375,35.1243875L30.807259375,34.4544875ZM30.807259375,45.1601875C30.807259375,44.0781875,29.930159375,43.2009875,28.848159375,43.2009875L17.472659375,43.2009875C16.390659375,43.2009875,15.513459375,44.0780875,15.513459375,45.1601875L15.513459375,45.8299875C15.513459375,46.9119875,16.390659375,47.7891875,17.472659375,47.7891875L28.848159375,47.7891875C29.930159375,47.7891875,30.807259375,46.9119875,30.807259375,45.8299875L30.807259375,45.1601875ZM52.218559375,34.4544875C52.218659375,33.3724875,51.341459375,32.4953875,50.259459375,32.4953875L43.472059375,32.4953875C42.390059375,32.4953875,41.512959375,33.3724875,41.512959375,34.4544875L41.512959375,35.1243875C41.512859375,36.206387500000005,42.390059375,37.083487500000004,43.472059375,37.083487500000004L50.259459375,37.083487500000004C51.341459375,37.083487500000004,52.218559375,36.206387500000005,52.218559375,35.1243875L52.218559375,34.4544875ZM52.218559375,45.1601875C52.218659375,44.0781875,51.341459375,43.2009875,50.259459375,43.2009875L43.472059375,43.2009875C42.390059375,43.2008875,41.512959375,44.0780875,41.512959375,45.1601875L41.512959375,45.8299875C41.512859375,46.9119875,42.390059375,47.7891875,43.472059375,47.7891875L50.259459375,47.7891875C51.341459375,47.7891875,52.218559375,46.9120875,52.218559375,45.8299875L52.218559375,45.1601875Z" fill="url(#master_svg1_692_71122)" fill-opacity="1" style="mix-blend-mode:passthrough"/></g></g></svg>