<svg xmlns="http://www.w3.org/2000/svg" xmlns:xlink="http://www.w3.org/1999/xlink" fill="none" version="1.1" width="617" height="147" viewBox="0 0 617 147"><defs><clipPath id="master_svg0_772_65114"><rect x="0" y="0" width="617" height="147" rx="0"/></clipPath><linearGradient x1="0.5" y1="0" x2="0.5" y2="1" id="master_svg1_692_71122"><stop offset="0%" stop-color="#FFFFFF" stop-opacity="1"/><stop offset="100%" stop-color="#80FFF1" stop-opacity="1"/></linearGradient></defs><g clip-path="url(#master_svg0_772_65114)"><g><path d="M201.261,146.533L201.261,140.021L217.956,140.021C220.506,140.021,222.361,139.788,223.289,139.323C224.448,138.625,225.144,137.462,225.144,135.834C225.144,133.973,224.448,132.81,222.825,131.88C221.898,131.415,220.738,131.182,218.883,131.182L212.159,131.182C207.985,131.182,204.971,130.484,203.348,128.856C202.189,127.926,201.261,126.763,200.798,125.367C200.102,123.971,199.87,122.343,199.87,120.715C199.87,118.157,200.566,115.831,202.189,113.737C203.58,111.644,205.899,110.481,209.145,110.016C210.304,110.016,211.927,109.783,214.014,109.783L232.1,109.783L232.1,116.296L215.869,116.296C213.318,116.296,211.695,116.528,211,116.528C209.377,116.994,208.449,118.157,208.449,120.25C208.449,122.111,209.145,123.274,210.536,123.739C211.464,124.204,213.087,124.437,215.173,124.437L220.97,124.437C223.984,124.437,226.071,124.669,227.694,125.134C230.245,126.065,232.1,127.46,233.027,129.786C233.723,131.647,234.187,133.508,234.187,135.369C234.187,137.695,233.723,139.555,232.563,141.416C231.172,143.975,229.085,145.37,226.071,145.835C224.448,146.533,222.361,146.533,219.579,146.533L201.261,146.533ZM268.967,110.016L268.967,146.533L261.315,146.533L261.315,131.414L247.171,131.414L247.171,146.533L239.52,146.533L239.52,110.016L247.171,110.016L247.171,124.902L261.315,124.902L261.315,110.016L268.967,110.016ZM283.806,110.016L283.806,131.88C283.806,133.74,284.038,134.903,284.27,136.066C284.502,136.997,284.965,137.927,285.661,138.625C287.284,140.02,289.371,140.951,292.153,140.951C294.008,140.951,295.399,140.718,296.79,140.02C298.182,139.323,298.877,138.625,299.573,137.694C300.037,136.764,300.269,134.903,300.269,132.112L300.269,110.248L307.92,110.248L307.92,131.88C307.92,134.671,307.688,136.997,306.993,138.857C306.297,140.718,305.37,142.114,304.21,143.277C301.428,145.835,297.254,146.998,291.921,146.998C286.356,146.998,282.183,145.835,279.632,143.277C278.241,142.114,277.314,140.486,276.85,139.09C276.386,137.462,276.154,135.368,276.154,132.345L276.154,110.248L283.806,110.248L283.806,110.016ZM328.325,124.902L346.179,124.902L346.179,146.533L329.948,146.533C327.165,146.533,324.847,146.301,323.224,145.836C321.601,145.37,319.978,144.673,318.818,143.51C315.108,140.486,313.021,135.369,313.021,128.158C313.021,123.506,313.949,119.552,315.804,116.296C317.195,113.97,319.05,112.342,321.369,111.179C323.687,110.016,326.702,109.551,330.412,109.551L346.41,109.551L346.41,116.063L331.339,116.063C328.093,116.063,325.774,116.761,324.383,118.157C322.528,119.785,321.832,122.809,321.832,127.228C321.832,129.554,322.064,131.415,322.528,133.275C322.992,135.136,323.687,136.299,324.383,137.23C325.079,137.927,326.006,138.625,327.165,139.09C328.325,139.556,329.948,139.556,331.571,139.556L338.527,139.556L338.527,130.95L328.325,130.95L328.325,124.902ZM368.67,109.783C372.38,109.783,375.626,110.481,378.176,111.644C381.422,113.04,383.741,115.598,384.9,119.087C385.828,121.878,386.524,125.134,386.524,128.623C386.524,132.345,385.828,135.601,384.669,138.392C383.046,141.649,380.727,143.975,377.481,145.138C375.162,146.068,372.38,146.533,369.133,146.533C364.96,146.533,361.482,145.835,358.467,144.207C355.917,143.044,354.062,140.951,352.671,138.16C351.28,135.369,350.584,132.112,350.584,128.158C350.584,121.18,352.207,116.296,355.685,113.272C358.699,111.179,362.873,109.783,368.67,109.783ZM368.67,116.063C365.192,116.063,362.641,117.226,361.018,119.552C359.859,121.413,359.163,124.204,359.163,128.391C359.163,132.577,359.859,135.834,361.482,137.695C363.105,139.555,365.424,140.718,368.67,140.718C371.916,140.718,374.235,139.788,375.858,137.695C377.481,135.601,378.176,132.577,378.176,128.391C378.176,124.669,377.481,121.646,376.321,119.552C374.698,117.226,372.148,116.063,368.67,116.063ZM399.509,119.785L399.509,146.533L392.089,146.533L392.089,110.016L402.059,110.016L416.435,137.229L416.435,110.016L423.855,110.016L423.855,146.533L414.348,146.533L399.509,119.785ZM444.491,124.902L462.345,124.902L462.345,146.533L446.114,146.533C443.331,146.533,441.013,146.301,439.39,145.836C437.767,145.37,436.144,144.673,434.984,143.51C431.274,140.486,429.188,135.369,429.188,128.158C429.188,123.506,430.115,119.552,431.97,116.296C433.361,113.97,435.216,112.342,437.535,111.179C439.853,110.016,442.868,109.551,446.578,109.551L462.576,109.551L462.576,116.063L447.505,116.063C444.259,116.063,441.94,116.761,440.549,118.157C438.694,119.785,437.998,122.809,437.998,127.228C437.998,129.554,438.23,131.415,438.694,133.275C439.158,135.136,439.853,136.299,440.549,137.23C441.245,137.927,442.172,138.625,443.331,139.09C444.491,139.556,446.114,139.556,447.737,139.556L454.693,139.556L454.693,130.95L444.491,130.95L444.491,124.902ZM493.879,116.528L482.285,116.528L482.285,110.016L513.587,110.016L513.587,116.528L501.53,116.528L501.53,146.533L493.879,146.533L493.879,116.528ZM545.121,110.016L545.121,116.528L534.919,116.528C532.369,116.528,530.282,116.761,529.123,116.994C527.963,117.459,527.036,118.157,526.108,119.087C525.645,119.785,525.181,120.483,524.949,121.18C524.717,121.878,524.485,123.041,524.485,124.902L544.89,124.902L544.89,131.415L524.485,131.415C524.717,134.671,525.645,136.764,527.268,137.927C528.891,139.09,531.441,139.788,535.151,139.788L544.89,139.788L544.89,146.533L534.687,146.533C531.905,146.533,529.586,146.301,527.5,146.068C524.253,145.603,521.703,143.975,519.616,141.649C516.834,138.392,515.442,133.74,515.442,127.926C515.442,121.646,517.297,116.528,521.239,113.04C522.63,111.877,524.021,110.946,525.413,110.481C527.036,110.016,528.891,109.783,531.441,109.783L545.121,109.783L545.121,110.016ZM551.149,146.533L551.149,140.021L567.843,140.021C570.394,140.021,572.249,139.788,573.176,139.323C574.336,138.625,575.031,137.462,575.031,135.834C575.031,133.973,574.336,132.81,572.713,131.88C571.785,131.415,570.626,131.182,568.771,131.182L562.047,131.182C557.873,131.182,554.859,130.484,553.236,128.856C552.076,127.926,551.149,126.763,550.685,125.367C549.99,123.971,549.758,122.343,549.758,120.715C549.758,118.157,550.453,115.831,552.076,113.737C553.468,111.644,555.786,110.481,559.033,110.016C560.192,110.016,561.815,109.783,563.902,109.783L581.987,109.783L581.987,116.296L565.757,116.296C563.206,116.296,561.583,116.528,560.887,116.528C559.264,116.994,558.337,118.157,558.337,120.25C558.337,122.111,559.033,123.274,560.424,123.739C561.351,124.204,562.974,124.437,565.061,124.437L570.858,124.437C573.872,124.437,575.959,124.669,577.582,125.134C580.132,126.065,581.987,127.46,582.915,129.786C583.61,131.647,584.074,133.508,584.074,135.369C584.074,137.695,583.61,139.555,582.451,141.416C581.06,143.975,578.973,145.37,575.959,145.835C574.568,146.068,572.481,146.068,569.698,146.068L551.149,146.068L551.149,146.533ZM597.291,116.528L585.697,116.528L585.697,110.016L616.999,110.016L616.999,116.528L604.942,116.528L604.942,146.533L597.291,146.533L597.291,116.528ZM199.638,0L300.732,0L300.732,2.32595L300.732,8.14082L300.732,18.1424C300.732,20.2358,300.036,21.8639,298.645,23.4921C297.254,24.8877,295.399,25.5854,293.544,25.5854L288.675,25.5854L287.284,25.5854L199.638,25.5854L199.638,2.32595L199.638,0ZM199.638,39.3085L203.348,27.6788L218.187,27.6788L217.028,31.4003L300.732,31.4003L300.732,37.2152L300.732,39.3085L300.732,74.4304C300.732,76.9889,299.805,78.8497,298.181,80.7104C296.558,82.3386,294.472,83.269,291.921,83.269L278.705,83.269L281.255,75.826L284.501,75.826C285.197,75.826,285.661,75.5934,286.124,75.1282C286.588,74.663,286.82,74.1978,286.82,73.5L286.82,39.3085L214.477,39.3085L211.927,39.3085L199.638,39.3085ZM246.475,68.8481L246.475,74.1978L264.793,73.7326L264.561,70.9415L274.995,70.9415L276.618,83.269L266.184,83.269L265.952,81.8734L202.652,83.269L202.652,75.1282L232.795,74.4304L232.795,68.8481L202.652,68.8481L202.652,48.6123L202.652,44.193L232.795,44.193L232.795,41.1693L246.475,41.1693L246.475,44.193L276.618,44.193L276.618,48.6123L276.618,61.4051C276.618,63.4984,275.922,65.1266,274.531,66.7548C273.14,68.1503,271.285,68.8481,269.198,68.8481L264.561,68.8481L263.169,68.8481L246.475,68.8481ZM213.55,17.4446L229.781,17.4446L229.781,8.14082L213.55,8.14082L213.55,17.4446ZM232.795,60.7073L232.795,52.3339L216.332,52.3339L216.332,60.7073L232.795,60.7073ZM243.461,17.4446L258.068,17.4446L258.068,8.14082L243.461,8.14082L243.461,17.4446ZM246.475,52.3339L246.475,60.7073L259.923,60.7073C260.851,60.7073,261.546,60.4747,262.01,59.7769C262.474,59.3117,262.938,58.6139,262.938,57.6835L262.938,52.3339L246.475,52.3339ZM287.052,8.14082L271.517,8.14082L271.517,17.4446L277.545,17.4446L283.806,17.4446L284.501,17.4446C285.197,17.4446,285.661,17.212,286.124,16.7468C286.588,16.2816,286.82,15.8165,286.82,15.1187L286.82,11.3972L286.82,8.14082L287.052,8.14082ZM404.145,82.8052L307.225,82.8052L307.225,72.1059L347.801,72.1059L347.801,11.166L311.398,11.166L311.398,0.699219L400.204,0.699219L400.204,11.3986L363.8,11.3986L363.8,72.1059L404.377,72.1059L404.377,82.8052L404.145,82.8052ZM410.638,5.34968L423.39,5.34968L423.39,0L436.839,0L436.839,5.34968L449.591,5.34968L449.591,16.7468L436.839,16.7468L436.839,83.0364L423.39,83.0364L423.39,16.7468L410.638,16.7468L410.638,5.34968ZM410.638,83.0364L412.724,21.1661L421.767,21.1661L419.681,83.0364L410.638,83.0364ZM438.462,21.1661L447.505,21.1661L449.591,83.269L440.549,83.269L438.462,21.1661ZM511.5,25.818L507.095,25.818L507.095,33.2611L455.388,33.2611L455.388,25.818L450.055,25.818L462.576,0L472.314,0L479.039,0L498.979,0L511.5,25.818ZM511.964,83.5016L453.301,83.5016L453.301,73.7326L511.964,73.7326L511.964,83.5016ZM467.445,37.4478L472.778,70.7089L460.489,70.7089L455.156,37.4478L467.445,37.4478ZM473.938,10.2342L466.75,24.4225L494.574,24.4225L487.618,10.2342L473.938,10.2342ZM476.256,70.7089L470.691,37.4478L483.212,37.4478L488.545,70.7089L476.256,70.7089ZM497.356,37.913L509.645,37.913L503.153,70.7089L490.632,70.7089L497.356,37.913ZM516.833,19.3054L523.557,19.3054L516.833,0.232596L531.441,0.232596L540.484,26.0506L533.759,26.0506L540.484,45.1234L525.876,45.1234L516.833,19.3054ZM516.833,83.5016L525.876,50.4731L540.484,50.4731L531.441,83.5016L516.833,83.5016ZM576.191,1.39557C578.51,1.39557,580.597,2.32595,582.22,3.95411C583.843,5.58228,584.77,7.67563,584.77,10.0016L584.77,56.5206L572.713,56.5206L572.713,11.6297C572.713,10.932,572.481,10.2342,572.018,9.76899C571.554,9.3038,571.09,9.0712,570.394,9.0712L554.627,9.0712L554.627,56.5206L542.57,56.5206L542.57,1.39557L576.191,1.39557ZM564.83,66.057L557.41,82.8038L544.889,82.8038L557.874,51.6361L557.874,17.6772L569.467,17.6772L569.467,55.3576L566.916,61.1725L575.264,61.1725L585.234,82.3386L572.481,82.3386L564.83,66.057ZM588.248,3.95411L599.146,3.95411L599.146,71.6392L601.928,71.6392C602.856,71.6392,603.783,71.4066,604.479,70.7089C605.175,70.0111,605.406,69.0807,605.406,68.1503L605.406,0L617,0L617,70.2437C617,72.1044,616.768,73.7326,616.072,75.1282C615.377,76.5237,614.449,77.9193,613.29,79.0823C612.131,80.2453,610.739,81.1756,609.348,81.8734C607.725,82.5712,606.102,82.8038,604.479,82.8038L593.581,82.8038L598.219,72.1044L588.016,72.1044L588.016,3.95411L588.248,3.95411ZM154.424,0L15.9989,0C7.1879,0,0,7.21044,0,16.0491L0,130.951C0,139.79,7.1879,147,15.9989,147L154.424,147C163.235,147,170.423,139.79,170.423,130.951L170.423,16.0491C170.423,7.21044,163.235,0,154.424,0ZM15.9989,112.111L47.9966,112.111L47.9966,80.0127L15.9989,80.0127L15.9989,16.0491L154.424,16.0491L154.424,18.6076L18.5494,18.6076L18.5494,77.4541L50.5472,77.4541L50.5472,114.902L15.9989,114.902L15.9989,112.111ZM15.9989,117.46L53.3296,117.46L53.3296,74.8956L21.3318,74.8956L21.3318,21.3987L154.424,21.3987L154.424,23.9573L23.8824,23.9573L23.8824,72.1044L55.8801,72.1044L55.8801,120.252L15.9989,120.252L15.9989,117.46ZM15.9989,122.81L58.6625,122.81L58.6625,69.3133L26.6648,69.3133L26.6648,26.7484L154.424,26.7484L154.424,29.307L29.2153,29.307L29.2153,66.7548L61.2131,66.7548L61.2131,125.601L15.9989,125.601L15.9989,122.81ZM71.879,128.16L71.879,130.718L63.9955,130.718L15.9989,130.718L15.9989,128.16L63.9955,128.16L63.9955,64.1962L31.9977,64.1962L31.9977,32.0981L154.424,32.0981L154.424,40.0063L39.8812,40.0063L39.8812,56.0554L71.879,56.0554L71.879,128.16ZM154.424,80.0127L111.76,80.0127L111.76,112.111L135.643,112.111L135.643,96.0617L138.193,96.0617L138.193,114.669L109.21,114.669L109.21,77.4541L154.424,77.4541L154.424,80.0127ZM154.424,74.8956L106.427,74.8956L106.427,117.693L140.976,117.693L140.976,96.2943L143.758,96.2943L143.758,120.252L103.877,120.252L103.877,72.1044L154.424,72.1044L154.424,74.8956ZM154.424,69.5459L101.094,69.5459L101.094,123.043L146.309,123.043L146.309,96.0617L148.859,96.0617L148.859,125.601L98.5438,125.601L98.5438,66.7548L154.424,66.7548L154.424,69.5459ZM154.424,64.1962L95.7614,64.1962L95.7614,128.392L151.641,128.392L151.641,96.0617L154.192,96.0617L154.192,128.16L154.192,130.718L151.641,130.718L95.7614,130.718L90.4284,130.718L87.8779,130.718L87.8779,56.0554L154.424,56.0554L154.424,64.1962Z" fill="url(#master_svg1_692_71122)" fill-opacity="1" style="mix-blend-mode:passthrough"/></g></g></svg>