<svg xmlns="http://www.w3.org/2000/svg" xmlns:xlink="http://www.w3.org/1999/xlink" fill="none" version="1.1" width="84" height="84" viewBox="0 0 84 84"><defs><clipPath id="master_svg0_1185_90866"><rect x="0" y="0" width="84" height="84" rx="0"/></clipPath><linearGradient x1="0.5" y1="0" x2="0.5" y2="1" id="master_svg1_692_71122"><stop offset="0%" stop-color="#FFFFFF" stop-opacity="1"/><stop offset="100%" stop-color="#80FFF1" stop-opacity="1"/></linearGradient></defs><g clip-path="url(#master_svg0_1185_90866)"><g><path d="M59.4965,7.00000320435C65.0185,6.99806938,69.49600000000001,11.474,69.49600000000001,16.996000000000002L69.49600000000001,45.136C73.1053,47.6384,75.6327,51.4151,76.5695,55.706C77.5949,60.235,76.767,64.9859,74.27,68.90100000000001C71.7899,72.8275,67.8364,75.5931,63.2975,76.5765C58.7645,77.6069,54.0075,76.7693,50.099,74.2525C46.1794,71.7652,43.4161,67.8149,42.4235,63.28C41.3917,58.7481,42.2294,53.9916,44.7475,50.085C45.9831,48.1338,47.5983,46.4508,49.497,45.136L49.497,16.996000000000002C49.497,11.472629999999999,53.9766,6.99613636,59.5,7.00000320435L59.4965,7.00000320435ZM22.5505,57.9075L26.075,61.432L18.2735,69.2265L14.748999999999999,65.7055L22.5505,57.9075ZM61.9955,29.491L56.9975,29.491L56.9975,52.4335C53.5664,53.6553,51.5115,57.1681,52.1282,60.7577C52.7449,64.34729999999999,55.8543,66.97290000000001,59.4965,66.9795C63.6399,66.9853,67.0009,63.626,66.997,59.4825C66.997,56.231,64.89699999999999,53.4835,61.9955,52.4335L61.9955,29.491ZM43.75,19.25C44.338,19.25,44.9225,19.271,45.5,19.316499999999998L45.5,43.848C41.0405,47.8277,38.4934,53.5229,38.5,59.5C38.5,61.138,38.689,62.734,39.0425,64.25999999999999C27.6692,61.8259,19.9617,51.2075,21.1715,39.6397C22.3814,28.072,32.1192,19.278100000000002,43.75,19.25ZM16.999499999999998,39.487L16.999499999999998,44.4885L7,44.4885L7,39.487L16.999499999999998,39.487ZM18.2735,14.748999999999999L26.0995,22.54L22.5505,26.068L14.748999999999999,18.27L18.2735,14.748999999999999ZM44.499,7.00000320435L44.499,16.996000000000002L39.4975,16.996000000000002L39.4975,7.00000320435L44.499,7.00000320435Z" fill="url(#master_svg1_692_71122)" fill-opacity="1" style="mix-blend-mode:passthrough"/></g></g></svg>