<svg xmlns="http://www.w3.org/2000/svg" xmlns:xlink="http://www.w3.org/1999/xlink" fill="none" version="1.1" width="80" height="80" viewBox="0 0 80 80"><defs><clipPath id="master_svg0_1185_90858"><rect x="0" y="0" width="80" height="80" rx="0"/></clipPath><linearGradient x1="0.5" y1="0" x2="0.5" y2="1" id="master_svg1_692_71122"><stop offset="0%" stop-color="#FFFFFF" stop-opacity="1"/><stop offset="100%" stop-color="#80FFF1" stop-opacity="1"/></linearGradient></defs><g clip-path="url(#master_svg0_1185_90858)"><g><path d="M56.5223953125,32.917325Q56.5223953125,33.294125,55.7310953125,34.236125Q54.9397953125,35.178225,54.0353953125,36.459424999999996Q53.1309953125,37.740525000000005,52.3396953125,39.247825Q51.5483953125,40.755125,51.5483953125,42.337725Q51.5483953125,43.920325,52.3396953125,45.389925000000005Q53.1309953125,46.859525000000005,54.0353953125,48.065325Q54.9397953125,49.271125,55.7310953125,50.062525Q56.5223953125,50.853825,56.5223953125,51.079925L56.5223953125,58.993025Q56.5223953125,60.274225,55.5802953125,61.894525Q54.6382953125,63.514825,53.2440953125,64.946725Q51.8498953125,66.378625,50.1541953125,67.32072500000001Q48.4584953125,68.262725,46.9511953125,68.262725L9.4956153125,68.262725Q7.4608053125,68.262725,5.7651353125,67.546825Q4.069455312500001,66.830825,2.7882753125,65.54962499999999Q1.5070953125,64.26842500000001,0.7911473125,62.535125Q0.075195550919,60.801725,0.0751953125,58.766925L0.0751953125,26.285325Q0.0751953125,24.778055000000002,0.7534663125,23.157745Q1.4317353125,21.537425,2.6752353125,20.180885Q3.9187253125,18.824345,5.6144053125,17.919986Q7.3100853125,17.01562652588,9.3448953125,17.015625L46.8004953125,17.015625Q48.8352953125,17.015625,50.6063953125,17.731577Q52.3773953125,18.447525,53.6962953125,19.691025Q55.0150953125,20.934525,55.7686953125,22.667875000000002Q56.5223953125,24.401235,56.5223953125,26.360685L56.5223953125,32.917325ZM79.9603953125,25.833145000000002L79.9603953125,60.274225Q79.9603953125,61.932225,79.0936953125,63.213425Q78.2269953125,64.49452500000001,76.4936953125,64.49452500000001Q75.8907953125,64.49452500000001,74.9486953125,64.04242500000001Q74.0066953125,63.590225,73.0645953125,62.987325Q72.1225953125,62.384425,71.2935953125,61.781525Q70.4645953125,61.178525,70.0877953125,60.801725Q69.1080953125,59.972725,67.1108953125,57.937925Q65.1137953125,55.903125,63.0789953125,53.340825Q61.0441953125,50.778425,59.4991953125,48.065325Q57.9542953125,45.352225000000004,57.9542953125,43.091325Q57.9542953125,40.830425000000005,59.6122953125,37.928925Q61.2702953125,35.027525,63.6064953125,32.239025Q65.9427953125,29.450625000000002,68.5051953125,27.076625Q71.0674953125,24.702695,72.8008953125,23.496875Q73.4790953125,23.044695,74.6472953125,22.404115Q75.8153953125,21.763525,76.7197953125,21.763525Q78.7545953125,21.763525,79.3574953125,22.893975Q79.9603953125,24.024425,79.9603953125,25.682415L79.9603953125,25.833145000000002Z" fill="url(#master_svg1_692_71122)" fill-opacity="1" style="mix-blend-mode:passthrough"/></g></g></svg>