<svg xmlns="http://www.w3.org/2000/svg" xmlns:xlink="http://www.w3.org/1999/xlink" fill="none" version="1.1" width="84" height="84" viewBox="0 0 84 84"><defs><clipPath id="master_svg0_1185_90870"><rect x="0" y="0" width="84" height="84" rx="0"/></clipPath><linearGradient x1="0.5" y1="0" x2="0.5" y2="1" id="master_svg1_692_71122"><stop offset="0%" stop-color="#FFFFFF" stop-opacity="1"/><stop offset="100%" stop-color="#80FFF1" stop-opacity="1"/></linearGradient></defs><g clip-path="url(#master_svg0_1185_90870)"><g><path d="M75,9L9,9C7.35,9,6,10.35,6,12L6,63C6,64.65,7.35,66,9,66L75,66C76.65,66,78,64.65,78,63L78,12C78,10.35,76.65,9,75,9ZM54.15,46.65L49.8,50.85L41.85,42.45L33.45,50.4L29.25,46.05L37.65,38.1L29.7,29.7L34.05,25.5L42,33.9L50.4,25.95L54.6,30.3L46.2,38.25L54.15,46.65ZM64.5,69L19.5,69L19.5,75L64.5,75L64.5,69Z" fill="url(#master_svg1_692_71122)" fill-opacity="1" style="mix-blend-mode:passthrough"/></g></g></svg>