<svg xmlns="http://www.w3.org/2000/svg" xmlns:xlink="http://www.w3.org/1999/xlink" fill="none" version="1.1" width="84" height="84" viewBox="0 0 84 84"><defs><clipPath id="master_svg0_1185_90862"><rect x="0" y="0" width="84" height="84" rx="0"/></clipPath><linearGradient x1="0.5" y1="0" x2="0.5" y2="1" id="master_svg1_692_71122"><stop offset="0%" stop-color="#FFFFFF" stop-opacity="1"/><stop offset="100%" stop-color="#80FFF1" stop-opacity="1"/></linearGradient></defs><g clip-path="url(#master_svg0_1185_90862)"><g><path d="M31.557378125,18.753518749999998L52.442578125,18.753518749999998C55.330078125,18.753518749999998,57.676178125,16.407418749999998,57.676178125,13.51991875L57.676178125,13.49530875C57.676178125,10.60780875,55.330078125,8.26171875,52.442578125,8.26171875L31.557378125,8.26171875C28.669878125,8.26171875,26.323878125,10.60780875,26.323878125,13.49530875L26.323878125,13.51991875C26.323878125,16.407418749999998,28.669878125,18.753518749999998,31.557378125,18.753518749999998ZM64.89487812499999,13.437888749999999L61.154278125,13.437888749999999L61.154278125,13.50351875C61.154278125,18.318718750000002,57.249578125,22.231618750000003,52.426178125,22.231618750000003L31.573778125,22.231618750000003C26.758578125,22.231618750000003,22.845678125,18.32691875,22.845678125,13.50351875L22.845678125,13.437888749999999L19.105078125,13.437888749999999C14.470308124999999,13.437888749999999,10.705078125,17.19491875,10.705078125,21.83791875L10.705078125,67.75901875C10.705078125,72.39371875,14.462108125,76.15901875,19.105078125,76.15901875L64.89487812499999,76.15901875C69.529678125,76.15901875,73.294878125,72.40191875,73.294878125,67.75901875L73.294878125,21.83791875C73.28667812500001,17.19491875,69.529678125,13.437888749999999,64.89487812499999,13.437888749999999ZM56.691778125,56.20901875L27.308178125,56.20901875C26.151578125,56.20901875,25.208178125,55.26561875,25.208178125,54.10901875C25.208178125,52.95231875,26.151578125,52.00901875,27.308178125,52.00901875L56.691778125,52.00901875C57.848478125,52.00901875,58.791778125,52.95231875,58.791778125,54.10901875C58.791778125,55.26561875,57.856678125,56.20901875,56.691778125,56.20901875ZM56.814878125,39.41721875L27.185178125,39.41721875C26.094178125,39.41721875,25.208178125,38.47381875,25.208178125,37.317218749999995C25.208178125,36.16051875,26.094178125,35.21721875,27.185178125,35.21721875L56.823078125,35.21721875C57.914078125,35.21721875,58.799978125,36.16051875,58.799978125,37.317218749999995C58.791778125,38.47381875,57.905878125,39.41721875,56.814878125,39.41721875Z" fill="url(#master_svg1_692_71122)" fill-opacity="1" style="mix-blend-mode:passthrough"/></g></g></svg>