<svg xmlns="http://www.w3.org/2000/svg" xmlns:xlink="http://www.w3.org/1999/xlink" fill="none" version="1.1" width="400" height="400" viewBox="0 0 400 400"><defs><linearGradient x1="0.5" y1="0" x2="0.5" y2="1" id="master_svg0_772_88118"><stop offset="0%" stop-color="#40E7D5" stop-opacity="0.4000000059604645"/><stop offset="100%" stop-color="#0BFEFF" stop-opacity="0"/></linearGradient><linearGradient x1="1.4458807706832886" y1="0.6441398859024048" x2="0.29515736576740453" y2="0.6451867899665444" id="master_svg1_772_88276"><stop offset="0%" stop-color="#0BFEFF" stop-opacity="0"/><stop offset="100%" stop-color="#0BFEFF" stop-opacity="0.30000001192092896"/></linearGradient><linearGradient x1="1.4458807706832886" y1="0.6700169444084167" x2="0.295156189747561" y2="0.6714734963898366" id="master_svg2_772_88238"><stop offset="0%" stop-color="#0BFEFF" stop-opacity="0"/><stop offset="100%" stop-color="#40E7D5" stop-opacity="0.20000000298023224"/></linearGradient><linearGradient x1="0.9251821637153625" y1="0.9879999756813049" x2="0.4086787357900592" y2="1.0146567785910188" id="master_svg3_772_88584"><stop offset="0%" stop-color="#0BFEFF" stop-opacity="0"/><stop offset="100%" stop-color="#0BFEFF" stop-opacity="0.501960813999176"/></linearGradient><linearGradient x1="0.9251821637153625" y1="0.9879999756813049" x2="0.4086787357900592" y2="1.0146567785910188" id="master_svg4_772_88584"><stop offset="0%" stop-color="#0BFEFF" stop-opacity="0"/><stop offset="100%" stop-color="#0BFEFF" stop-opacity="0.501960813999176"/></linearGradient><linearGradient x1="0.9203914403915405" y1="0.9879999756813049" x2="0.4097495050059599" y2="1.0149583654578231" id="master_svg5_772_88592"><stop offset="0%" stop-color="#0BFEFF" stop-opacity="0"/><stop offset="100%" stop-color="#0BFEFF" stop-opacity="0.501960813999176"/></linearGradient><linearGradient x1="0.6282235980033875" y1="-0.07520012557506561" x2="0.6282235980033875" y2="1" id="master_svg6_772_88764"><stop offset="0%" stop-color="#0BFEFF" stop-opacity="0.5"/><stop offset="100%" stop-color="#0BFEFF" stop-opacity="0.20000000298023224"/></linearGradient><linearGradient x1="1" y1="0.5" x2="0.35094547271728516" y2="0.5" id="master_svg7_772_89228"><stop offset="0%" stop-color="#00ACAD" stop-opacity="1"/><stop offset="100%" stop-color="#A2FFFF" stop-opacity="1"/></linearGradient><linearGradient x1="0.5" y1="0.9999999403953552" x2="0.9253521033902415" y2="-0.30064936422079874" id="master_svg8_772_88286"><stop offset="0%" stop-color="#0BFFFF" stop-opacity="1"/><stop offset="100%" stop-color="#0BFEFF" stop-opacity="0.3019607961177826"/></linearGradient></defs><g><g></g><g><g style="opacity:0.6015942096710205;"><path d="M197.911,49C231.935,49,263.30600000000004,60.1748,288.445,78.9991C288.445,78.9991,278.333,79,278.333,79C273.547,79,269.66700000000003,82.8802,269.66700000000003,87.66669999999999C269.66700000000003,87.66669999999999,269.66700000000003,88.33330000000001,269.66700000000003,88.33330000000001C269.66700000000003,93.1198,273.547,97,278.333,97C278.333,97,308.452,96.9995,308.452,96.9995C314.166,103.15729999999999,319.356,109.79419999999999,323.953,116.8418C323.953,116.8418,338.251,116.8419,338.251,116.8419C343.406,116.8419,347.585,121.0205,347.585,126.1752C347.585,126.1752,347.585,126.6961,347.585,126.6961C347.585,130.9547,344.732,134.5471,340.834,135.6674C340.834,135.6674,327.667,135.6667,327.667,135.6667C321.776,135.6667,317,140.4423,317,146.3333C317,146.3333,317,149.667,317,149.667C317,155.558,321.776,160.333,327.667,160.333C327.667,160.333,372.934,160.333,372.934,160.333C377.568,161.494,381,165.687,381,170.68099999999998C381,170.68099999999998,381,171.276,381,171.276C381,177.167,376.224,181.943,370.333,181.943C370.333,181.943,346.88,181.942,346.88,181.942C347.346,186.677,347.585,191.478,347.585,196.333C347.585,277.703,280.574,343.667,197.911,343.667C131.793,343.667,75.6877,301.464,55.8788,242.932C55.8788,242.932,50.2616,242.932,50.2616,242.932C47.9908,242.932,46.15,241.091,46.15,238.82C46.15,237.088,47.2215,235.606,48.737899999999996,235C48.737899999999996,235,55.6667,235,55.6667,235C60.4531,235,64.33330000000001,231.12,64.33330000000001,226.333C64.33330000000001,226.333,64.33330000000001,225.667,64.33330000000001,225.667C64.33330000000001,220.88,60.4531,217,55.6667,217C55.6667,217,49.6994,217,49.6994,217C49.6943,216.965,49.6892,216.929,49.684200000000004,216.893C49.684200000000004,216.893,34.902699999999996,216.891,34.902699999999996,216.891C31.1181,216.891,28.05,213.823,28.05,210.039C28.05,206.254,31.1181,203.186,34.902699999999996,203.186C34.902699999999996,203.186,48.3975,203.187,48.3975,203.187C48.2919,200.916,48.2385,198.631,48.2385,196.333C48.2385,174.57999999999998,53.0277,153.928,61.625,135.3426C61.625,135.3426,37.6667,135.3442,37.6667,135.3442C27.35735,135.3442,19,126.9868,19,116.6775C19,116.6775,19,115.6357,19,115.6357C19,105.68719999999999,26.78257,97.5564,36.5916,96.99940000000001C36.5916,96.99940000000001,121,97,121,97C124.682,97,127.667,94.0152,127.667,90.33330000000001C127.667,86.6514,124.682,83.66669999999999,121,83.66669999999999C121,83.66669999999999,101.461,83.666,101.461,83.666C101.6236,83.5309,101.7866,83.3962,101.9498,83.2618C101.9498,83.2618,92.232,83.2636,92.232,83.2636C85.2364,83.2636,79.5654,77.5925,79.5654,70.5969C79.5654,70.5969,79.5654,69.8899,79.5654,69.8899C79.5654,62.8943,85.2364,57.223259999999996,92.232,57.223259999999996C92.232,57.223259999999996,148.487,57.2221,148.487,57.2221C163.96,51.8957,180.592,49,197.911,49Z" fill-rule="evenodd" fill="url(#master_svg0_772_88118)" fill-opacity="1"/></g><g><path d="M142.33426893310548,111.62431562500001C142.33426893310548,116.83271562499999,137.03736893310548,120.99931562500001,130.34646893310548,120.99931562500001C130.34646893310548,120.99931562500001,93.26766893310547,120.99931562500001,93.26766893310547,120.99931562500001C86.57671893310547,120.58271562499999,81.00096893310547,116.62431562500001,81.00096893310547,111.20771562499999C81.00096893310547,107.666015625,83.51005893310547,104.541015625,87.13429893310547,102.874315625C86.85550893310547,102.249315625,86.57672893310547,101.624315625,86.57672893310547,100.999315625C86.57672893310547,97.457685625,90.20096893310547,94.332685625,94.94036893310547,94.332685625C96.89186893310547,94.332685625,98.56456893310548,94.957685625,99.95856893310547,95.791015625C103.30396893310547,90.999345625,109.43736893310546,87.666015625,116.68576893310546,87.666015625C126.72216893310548,87.666015625,134.80706893310548,94.12435562499999,134.80706893310548,102.041015625C134.80706893310548,102.041015625,134.80706893310548,102.874315625,134.80706893310548,102.874315625C139.26766893310548,104.33271562499999,142.33426893310548,107.666015625,142.33426893310548,111.62431562500001Z" fill="url(#master_svg1_772_88276)" fill-opacity="1"/></g><g><path d="M296.5875382324219,105.87431562500001C296.5875382324219,109.83271562499999,292.8809382324219,112.99931562500001,288.1987382324219,112.99931562500001C288.1987382324219,112.99931562500001,262.2518682324219,112.99931562500001,262.2518682324219,112.99931562500001C257.56971823242185,112.682715625,253.66793823242188,109.67431562499999,253.66793823242188,105.557715625C253.66793823242188,102.866015625,255.42374823242187,100.491015625,257.95990823242187,99.224315625C257.7648182324219,98.749315625,257.56973823242186,98.274315625,257.56973823242186,97.799315625C257.56973823242186,95.107685625,260.1058782324219,92.732685625,263.42239823242187,92.732685625C264.78803823242185,92.732685625,265.95853823242186,93.207685625,266.93403823242187,93.841015625C269.2750382324219,90.199345625,273.56703823242185,87.666015625,278.6393382324219,87.666015625C285.6626382324219,87.666015625,291.32013823242187,92.574345625,291.32013823242187,98.591015625C291.32013823242187,98.591015625,291.32013823242187,99.224315625,291.32013823242187,99.224315625C294.4416382324219,100.332715625,296.5875382324219,102.866015625,296.5875382324219,105.87431562500001Z" fill="url(#master_svg2_772_88238)" fill-opacity="1"/></g><g><g><path d="M119.69046893310548,259.9243152587891C119.76846893310547,260.23601525878905,119.86606893310547,260.56711525878904,119.98306893310547,260.9177152587891C119.98306893310547,260.9177152587891,120.21726893310546,261.85261525878906,120.21726893310546,261.85261525878906C120.29526893310546,262.16421525878906,120.33426893310548,262.41741525878905,120.33426893310548,262.6122152587891C120.33426893310548,263.70301525878904,120.04166893310547,264.66711525878907,119.45636893310547,265.5047152587891C118.87096893310547,266.34221525878905,118.11006893310547,266.95571525878904,117.17356893310547,267.34531525878907C116.82236893310547,267.3842152587891,116.45166893310547,267.4037152587891,116.06146893310546,267.4037152587891C115.74926893310547,267.44271525878906,115.39816893310547,267.46221525878906,115.00786893310547,267.46221525878906C115.00786893310547,267.46221525878906,113.89576893310547,267.46221525878906,113.89576893310547,267.46221525878906C113.89576893310547,267.46221525878906,104.76486893310548,267.57901525878907,104.76486893310548,267.57901525878907C104.76486893310548,267.57901525878907,104.76486893310548,277.3373152587891,104.76486893310548,277.3373152587891C104.76486893310548,278.7787152587891,104.79416893310547,280.2298152587891,104.85266893310546,281.6906152587891C104.91116893310547,283.1514152587891,104.97946893310547,284.4662152587891,105.05746893310547,285.63481525878905C105.13556893310547,287.03721525878905,105.23306893310547,288.38121525878904,105.35016893310546,289.66671525878905C105.35016893310546,289.66671525878905,96.92156893310548,289.66671525878905,96.92156893310548,289.66671525878905C96.92156893310548,289.66671525878905,97.09716893310546,287.38781525878903,97.09716893310546,287.38781525878903C97.13626893310547,286.4918152587891,97.17526893310547,285.27451525878905,97.21426893310547,283.73571525878907C97.25326893310547,282.19701525878907,97.27276893310547,280.1421152587891,97.27276893310547,277.57111525878906C97.27276893310547,277.57111525878906,97.27276893310547,268.6308152587891,97.27276893310547,268.6308152587891C96.60946893310546,269.21511525878907,95.86806893310546,269.50731525878905,95.04856893310547,269.50731525878905C94.38526893310546,269.50731525878905,93.80966893310547,269.35151525878905,93.32186893310546,269.0398152587891C92.83416893310547,268.7282152587891,92.43416893310547,268.2997152587891,92.12196893310546,267.75431525878906C92.12196893310546,267.75431525878906,85.50790893310547,267.4037152587891,85.50790893310547,267.4037152587891C84.22021893310547,267.0921152587891,83.14712893310546,266.43961525878905,82.28866893310547,265.44621525878904C81.43020193310547,264.45291525878906,81.00096893310547,263.27451525878905,81.00096893310547,261.91101525878906C81.00096893310547,261.67731525878906,81.02047953310547,261.4630152587891,81.05950063310547,261.2683152587891C81.09852183310547,261.0735152587891,81.15705393310547,260.87871525878904,81.23509593310547,260.68391525878906C81.23509593310547,260.68391525878906,82.69838893310546,257.2948152587891,82.69838893310546,257.2948152587891C82.77642893310546,256.43781525878904,83.02030893310547,255.63921525878905,83.43003893310546,254.89911525878907C83.83975893310547,254.15891525878905,84.35678893310546,253.51621525878906,84.98112893310547,252.97081525878906C84.98112893310547,252.97081525878906,94.17056893310547,235.96681525878907,94.17056893310547,235.96681525878907C94.17056893310547,235.96681525878907,94.22916893310547,235.96681525878907,94.22916893310547,235.96681525878907C94.97056893310547,234.60338525878907,95.84856893310547,233.43472525878906,96.86306893310547,232.46083525878907C97.87766893310547,231.48695625878906,99.18486893310546,231.00001525878906,100.78466893310546,231.00001525878906C102.18946893310547,231.00001525878906,103.44786893310547,231.37009025878908,104.55996893310547,232.11024525878906C105.67206893310546,232.85039525878906,106.50126893310546,233.82427525878907,107.04756893310547,235.03188525878906C107.04756893310547,235.03188525878906,114.42256893310547,249.46481525878906,114.42256893310547,249.46481525878906C115.74926893310547,249.93231525878906,116.84186893310547,250.75031525878907,117.70036893310547,251.91901525878907C118.55886893310546,253.08771525878907,118.98806893310547,254.43161525878907,118.98806893310547,255.95091525878905C118.98806893310547,256.5742152587891,118.89056893310547,257.23641525878907,118.69536893310547,257.93761525878904C118.69536893310547,257.93761525878904,119.69046893310548,259.9243152587891,119.69046893310548,259.9243152587891Z" fill="url(#master_svg3_772_88584)" fill-opacity="1"/></g><g><path d="M326.35840716552735,259.9243152587891C326.4364071655273,260.23601525878905,326.5340071655273,260.56711525878904,326.65100716552735,260.9177152587891C326.65100716552735,260.9177152587891,326.88520716552733,261.85261525878906,326.88520716552733,261.85261525878906C326.96320716552736,262.16421525878906,327.00220716552735,262.41741525878905,327.00220716552735,262.6122152587891C327.00220716552735,263.70301525878904,326.70960716552736,264.66711525878907,326.12430716552734,265.5047152587891C325.53890716552735,266.34221525878905,324.77800716552736,266.95571525878904,323.84150716552733,267.34531525878907C323.4903071655273,267.3842152587891,323.1196071655273,267.4037152587891,322.72940716552733,267.4037152587891C322.4172071655273,267.44271525878906,322.06600716552737,267.46221525878906,321.6758071655273,267.46221525878906C321.6758071655273,267.46221525878906,320.5637071655273,267.46221525878906,320.5637071655273,267.46221525878906C320.5637071655273,267.46221525878906,311.4328071655273,267.57901525878907,311.4328071655273,267.57901525878907C311.4328071655273,267.57901525878907,311.4328071655273,277.3373152587891,311.4328071655273,277.3373152587891C311.4328071655273,278.7787152587891,311.4620071655273,280.2298152587891,311.52060716552734,281.6906152587891C311.5791071655273,283.1514152587891,311.64740716552734,284.4662152587891,311.7254071655274,285.63481525878905C311.8035071655273,287.03721525878905,311.90100716552735,288.38121525878904,312.01810716552734,289.66671525878905C312.01810716552734,289.66671525878905,303.5895071655273,289.66671525878905,303.5895071655273,289.66671525878905C303.5895071655273,289.66671525878905,303.76510716552735,287.38781525878903,303.76510716552735,287.38781525878903C303.8042071655274,286.4918152587891,303.84320716552736,285.27451525878905,303.88220716552735,283.73571525878907C303.92120716552733,282.19701525878907,303.94070716552733,280.1421152587891,303.94070716552733,277.57111525878906C303.94070716552733,277.57111525878906,303.94070716552733,268.6308152587891,303.94070716552733,268.6308152587891C303.27740716552734,269.21511525878907,302.53600716552734,269.50731525878905,301.71650716552733,269.50731525878905C301.05320716552734,269.50731525878905,300.47760716552733,269.35151525878905,299.98980716552734,269.0398152587891C299.5021071655273,268.7282152587891,299.10210716552734,268.2997152587891,298.7899071655273,267.75431525878906C298.7899071655273,267.75431525878906,292.17584716552733,267.4037152587891,292.17584716552733,267.4037152587891C290.88814716552736,267.0921152587891,289.81506716552735,266.43961525878905,288.9566071655273,265.44621525878904C288.09814016552735,264.45291525878906,287.66890716552734,263.27451525878905,287.66890716552734,261.91101525878906C287.66890716552734,261.67731525878906,287.68841856552734,261.4630152587891,287.72743986552734,261.2683152587891C287.7664605655273,261.0735152587891,287.82499616552735,260.87871525878904,287.90303816552733,260.68391525878906C287.90303816552733,260.68391525878906,289.36633716552734,257.2948152587891,289.36633716552734,257.2948152587891C289.4443771655273,256.43781525878904,289.68826716552735,255.63921525878905,290.09798716552734,254.89911525878907C290.50770716552734,254.15891525878905,291.02472716552734,253.51621525878906,291.64906716552736,252.97081525878906C291.64906716552736,252.97081525878906,300.83850716552735,235.96681525878907,300.83850716552735,235.96681525878907C300.83850716552735,235.96681525878907,300.89710716552736,235.96681525878907,300.89710716552736,235.96681525878907C301.63850716552736,234.60338525878907,302.51640716552737,233.43472525878906,303.53100716552734,232.46083525878907C304.5456071655274,231.48695625878906,305.85280716552734,231.00001525878906,307.45260716552735,231.00001525878906C308.8574071655273,231.00001525878906,310.1158071655274,231.37009025878908,311.22790716552737,232.11024525878906C312.34000716552737,232.85039525878906,313.1692071655273,233.82427525878907,313.71550716552736,235.03188525878906C313.71550716552736,235.03188525878906,321.09050716552736,249.46481525878906,321.09050716552736,249.46481525878906C322.4172071655273,249.93231525878906,323.5098071655273,250.75031525878907,324.3683071655273,251.91901525878907C325.22680716552736,253.08771525878907,325.65600716552734,254.43161525878907,325.65600716552734,255.95091525878905C325.65600716552734,256.5742152587891,325.55840716552734,257.23641525878907,325.3633071655273,257.93761525878904C325.3633071655273,257.93761525878904,326.35840716552735,259.9243152587891,326.35840716552735,259.9243152587891Z" fill="url(#master_svg4_772_88584)" fill-opacity="1"/></g><g><path d="M301.8321423217773,266.3467966812134C301.89294232177735,266.5910966812134,301.96904232177735,266.85079668121335,302.06024232177737,267.12569668121336C302.06024232177737,267.12569668121336,302.24284232177735,267.85869668121336,302.24284232177735,267.85869668121336C302.3036423217773,268.1030966812134,302.33404232177736,268.30159668121337,302.33404232177736,268.45429668121335C302.33404232177736,269.3095966812134,302.1059423217773,270.0655966812134,301.64954232177735,270.7222966812134C301.19324232177735,271.3789966812134,300.59994232177735,271.86009668121335,299.86984232177736,272.16549668121337C299.59594232177733,272.1959966812134,299.30694232177734,272.21129668121335,299.00274232177736,272.21129668121335C298.75934232177735,272.2418966812134,298.48554232177736,272.2570966812134,298.1813423217773,272.2570966812134C298.1813423217773,272.2570966812134,297.31424232177733,272.2570966812134,297.31424232177733,272.2570966812134C297.31424232177733,272.2570966812134,290.19524232177736,272.3487966812134,290.19524232177736,272.3487966812134C290.19524232177736,272.3487966812134,290.19524232177736,280.00019668121337,290.19524232177736,280.00019668121337C290.19524232177736,281.1302966812134,290.2180423217773,282.26809668121336,290.26364232177735,283.41349668121336C290.30934232177736,284.55889668121335,290.36254232177737,285.5897966812134,290.4234423217773,286.50609668121336C290.48424232177734,287.6056966812134,290.56034232177734,288.6594966812134,290.65154232177736,289.6674966812134C290.65154232177736,289.6674966812134,284.0801423217773,289.6674966812134,284.0801423217773,289.6674966812134C284.0801423217773,289.6674966812134,284.21704232177734,287.8805966812134,284.21704232177734,287.8805966812134C284.2474423217773,287.1780966812134,284.27784232177737,286.2235966812134,284.30834232177733,285.0170966812134C284.3387423217773,283.8105966812134,284.35394232177737,282.1993966812134,284.35394232177737,280.18339668121337C284.35394232177737,280.18339668121337,284.35394232177737,273.17349668121335,284.35394232177737,273.17349668121335C283.83674232177736,273.63159668121335,283.25874232177733,273.86069668121337,282.61984232177736,273.86069668121337C282.10264232177735,273.86069668121337,281.65388232177736,273.7384966812134,281.27360232177733,273.4941966812134C280.89331232177733,273.24979668121335,280.58145232177736,272.9137966812134,280.33807232177736,272.48619668121336C280.33807232177736,272.48619668121336,275.18133232177735,272.21129668121335,275.18133232177735,272.21129668121335C274.17737232177734,271.9669966812134,273.3407223217773,271.4552966812134,272.6714123217773,270.6764966812134C272.00209732177734,269.8975966812134,271.66744232177734,268.9735966812134,271.66744232177734,267.9044966812134C271.66744232177734,267.7212966812134,271.68265292177733,267.5532966812134,271.7130762217773,267.40059668121336C271.7434995217773,267.2477966812134,271.78913132177735,267.09509668121336,271.84997832177737,266.9423966812134C271.84997832177737,266.9423966812134,272.99084232177734,264.2849966812134,272.99084232177734,264.2849966812134C273.05169232177735,263.61299668121336,273.24183232177734,262.98689668121335,273.56128232177736,262.40649668121335C273.88072232177734,261.8261966812134,274.28384232177734,261.32219668121337,274.7706123217773,260.8945966812134C274.7706123217773,260.8945966812134,281.93534232177734,247.56191668121338,281.93534232177734,247.56191668121338C281.93534232177734,247.56191668121338,281.9809423217773,247.56191668121338,281.9809423217773,247.56191668121338C282.55894232177735,246.49285668121337,283.24354232177734,245.57652668121338,284.03454232177734,244.81291668121338C284.82554232177733,244.0493036812134,285.8446423217773,243.66749668121338,287.09204232177734,243.66749668121338C288.1872423217773,243.66749668121338,289.1684423217773,243.9576686812134,290.03554232177737,244.53801368121339C290.90254232177733,245.11835668121338,291.54904232177734,245.88196668121338,291.97494232177735,246.82884668121338C291.97494232177735,246.82884668121338,297.72494232177735,258.14559668121336,297.72494232177735,258.14559668121336C298.75934232177735,258.5120966812134,299.61124232177735,259.1535966812134,300.2805423217773,260.0698966812134C300.94984232177734,260.98619668121336,301.28454232177734,262.0399966812134,301.28454232177734,263.23119668121336C301.28454232177734,263.7199966812134,301.20844232177734,264.2391966812134,301.0563423217773,264.7889966812134C301.0563423217773,264.7889966812134,301.8321423217773,266.3467966812134,301.8321423217773,266.3467966812134Z" fill="url(#master_svg5_772_88592)" fill-opacity="1"/></g></g><g><path d="M189.33398056030273,274.33396911621094C230.25398056030272,274.33396911621094,267.10198056030276,277.6718291162109,292.8589805603027,283.0032391162109C318.0509805603027,283.17089911621093,338.33398056030273,290.71666911621094,338.33398056030273,300.00066911621093C338.33398056030273,307.35836911621095,325.5939805603027,313.6243691162109,307.7669805603027,315.99106911621095C303.51198056030273,317.24996911621093,298.72198056030277,318.43656911621093,293.4619805603027,319.53926911621096C293.5989805603027,320.24176911621095,293.6669805603027,320.9515691162109,293.6669805603027,321.66726911621095C293.6669805603027,337.86766911621095,258.44698056030273,351.00066911621093,215.00098056030274,351.00066911621093C175.91298056030274,351.00066911621093,143.48308056030274,340.37036911621095,137.36998056030274,326.4400691162109C85.21358056030274,322.47956911621094,48.333980560302734,312.7314691162109,48.333980560302734,301.33396911621094C48.333980560302734,286.42226911621094,111.46178056030274,274.33396911621094,189.33398056030273,274.33396911621094Z" fill-rule="evenodd" fill="#0BFEFF" fill-opacity="0.20000000298023224"/></g><g><path d="M253.66796893310547,307.1966365087891Q253.66796893310547,307.3030165087891,253.60196893310547,307.4092665087891Q253.53696893310547,307.51551650878906,253.40596893310547,307.62137650878907Q253.27496893310547,307.72724650878905,253.07996893310548,307.8324665087891Q252.88396893310545,307.9376965087891,252.62396893310546,308.04202650878904Q252.36296893310546,308.1463665087891,252.03896893310548,308.24955650878906Q251.71496893310547,308.35274650878904,251.32796893310547,308.4545365087891Q250.94096893310547,308.55633650878906,250.49196893310545,308.6564965087891Q250.04196893310547,308.75665650878904,249.53196893310547,308.8549365087891Q249.02096893310545,308.95321650878907,248.45096893310546,309.04937650878907Q247.88096893310546,309.14554650878904,247.25196893310547,309.23935650878906Q246.62296893310548,309.33317650878905,245.93796893310548,309.4244165087891Q245.25196893310547,309.5156665087891,244.51076893310545,309.60411650878905Q243.76976893310547,309.69256650878907,242.97526893310547,309.7780065087891Q242.18066893310547,309.8634465087891,241.33456893310546,309.94567650878906Q240.48836893310545,310.02790650878904,239.59266893310547,310.10672650878905Q238.69686893310546,310.1855565087891,237.75376893310545,310.26077650878904Q236.81056893310546,310.33599650878904,235.82236893310545,310.40742650878906Q234.83406893310547,310.47886650878905,233.8029689331055,310.5463565087891Q232.77196893310548,310.61383650878906,231.70056893310547,310.6772065087891Q230.62926893310546,310.74057650878905,229.52026893310546,310.79967650878905Q228.41126893310548,310.85877650878905,227.26716893310547,310.91346650878904Q226.1231689331055,310.96815650878904,224.94686893310546,311.01830650878907Q223.77056893310547,311.06844650878907,222.56476893310548,311.11392650878906Q221.35906893310545,311.15941650878904,220.12676893310547,311.2001265087891Q218.8944689331055,311.24082650878904,217.63866893310546,311.27666650878905Q216.38276893310547,311.31250650878906,215.10646893310548,311.3433865087891Q213.83006893310545,311.37426650878905,212.53616893310547,311.40011650878904Q211.24236893310547,311.42595650878906,209.93416893310547,311.44671650878905Q208.62596893310547,311.4674665087891,207.30666893310547,311.48307650878905Q205.98726893310547,311.49868650878904,204.65986893310549,311.5091165087891Q203.33246893310547,311.5195365087891,202.00026893310547,311.52475650878904Q200.66806893310547,311.52997650878905,199.33426893310548,311.52997650878905Q198.00046893310548,311.52997650878905,196.66826893310548,311.52475650878904Q195.33606893310548,311.5195365087891,194.00866893310547,311.5091165087891Q192.68126893310546,311.49868650878904,191.36196893310546,311.48307650878905Q190.04256893310549,311.4674665087891,188.7343689331055,311.44671650878905Q187.42616893310546,311.42595650878906,186.13236893310545,311.40011650878904Q184.83856893310548,311.37426650878905,183.56216893310545,311.3433865087891Q182.28576893310546,311.31250650878906,181.02996893310547,311.27666650878905Q179.77406893310547,311.24082650878904,178.54186893310546,311.2001265087891Q177.30956893310548,311.15941650878904,176.10376893310547,311.11392650878906Q174.89806893310546,311.06844650878907,173.72176893310547,311.01830650878907Q172.54546893310547,310.96815650878904,171.40136893310546,310.91346650878904Q170.25736893310545,310.85877650878905,169.14826893310547,310.79967650878905Q168.03926893310546,310.74057650878905,166.96796893310545,310.6772065087891Q165.89666893310547,310.61383650878906,164.86556893310546,310.5463565087891Q163.83456893310546,310.47886650878905,162.84626893310548,310.40742650878906Q161.85796893310547,310.33599650878904,160.91486893310548,310.26077650878904Q159.97166893310546,310.1855565087891,159.07596893310546,310.10672650878905Q158.18026893310548,310.02790650878904,157.33406893310547,309.94567650878906Q156.48786893310546,309.8634465087891,155.69336893310546,309.7780065087891Q154.89880893310547,309.69256650878907,154.15778893310548,309.60411650878905Q153.41675893310546,309.5156665087891,152.73104893310546,309.4244165087891Q152.04532893310548,309.33317650878905,151.41657893310546,309.23935650878906Q150.78782893310546,309.14554650878904,150.21754893310546,309.04937650878907Q149.64726893310547,308.95321650878907,149.13684893310545,308.8549365087891Q148.62641893310547,308.75665650878904,148.17707893310546,308.6564965087891Q147.72772893310548,308.55633650878906,147.34053893310548,308.4545365087891Q146.95335893310548,308.35274650878904,146.62926893310546,308.24955650878906Q146.30517893310548,308.1463665087891,146.04496893310548,308.04202650878904Q145.78475493310546,307.9376965087891,145.58904493310547,307.8324665087891Q145.39333493310548,307.72724650878905,145.26259893310547,307.62137650878907Q145.13186293310548,307.51551650878906,145.06641583310548,307.4092665087891Q145.00096893310547,307.3030165087891,145.00096893310547,307.1966365087891Q145.00096893310547,307.0902565087891,145.06641583310548,306.98400650878904Q145.13186293310548,306.87775650878905,145.26259893310547,306.77189650878904Q145.39333493310548,306.66602650878906,145.58904493310547,306.5608065087891Q145.78475493310546,306.4555765087891,146.04496893310548,306.3512465087891Q146.30517893310548,306.24690650878904,146.62926893310546,306.1437265087891Q146.95335893310548,306.04053650878905,147.34053893310548,305.9387365087891Q147.72772893310548,305.83693650878905,148.17706893310546,305.73677650878903Q148.62641893310547,305.6366165087891,149.13684893310545,305.5383365087891Q149.64726893310547,305.44005650878904,150.21754893310546,305.34389650878904Q150.78782893310546,305.24772650878907,151.41657893310546,305.15391650878905Q152.04532893310548,305.06009650878906,152.73104893310546,304.9688565087891Q153.41675893310546,304.87761650878906,154.15778893310548,304.78916650878904Q154.89880893310547,304.70071650878907,155.69336893310546,304.6152665087891Q156.48786893310546,304.5298265087891,157.33406893310547,304.44759650878905Q158.18026893310548,304.36536650878907,159.07596893310546,304.28654650878906Q159.97166893310546,304.20772650878905,160.91486893310548,304.13250650878905Q161.85796893310547,304.05728650878905,162.84626893310548,303.98584650878905Q163.83456893310546,303.91440650878906,164.86556893310546,303.8469195087891Q165.89666893310547,303.77943450878905,166.96796893310545,303.7160655087891Q168.03926893310546,303.65269650878906,169.14826893310547,303.59359650878906Q170.25736893310545,303.53449550878906,171.40136893310546,303.47980650878907Q172.54546893310547,303.42511750878907,173.72176893310547,303.3749715087891Q174.89806893310546,303.32482550878905,176.10376893310547,303.27934350878905Q177.30956893310548,303.23386150878906,178.54186893310546,303.19315250878907Q179.77406893310547,303.1524435087891,181.02996893310547,303.11660550878906Q182.28576893310546,303.08076850878905,183.56216893310545,303.0498885087891Q184.83856893310548,303.01900850878906,186.13236893310545,302.99316150878906Q187.42616893310546,302.96731350878906,188.7343689331055,302.9465604087891Q190.04256893310549,302.9258072087891,191.36196893310546,302.9101984087891Q192.68126893310546,302.89458950878907,194.00866893310547,302.88416270878906Q195.33606893310548,302.87373590878906,196.66826893310548,302.86851620878906Q198.00046893310548,302.86329650878906,199.33426893310548,302.86329650878906Q200.66806893310547,302.86329650878906,202.00026893310547,302.86851620878906Q203.33246893310547,302.87373590878906,204.65986893310549,302.88416270878906Q205.98726893310547,302.89458950878907,207.30666893310547,302.9101984087891Q208.62596893310547,302.9258072087891,209.93416893310547,302.9465604087891Q211.24236893310547,302.96731350878906,212.53616893310547,302.99316150878906Q213.83006893310545,303.01900850878906,215.10646893310548,303.0498885087891Q216.38276893310547,303.08076850878905,217.63866893310546,303.11660550878906Q218.8944689331055,303.1524435087891,220.12676893310547,303.19315250878907Q221.35906893310545,303.23386150878906,222.56476893310548,303.27934350878905Q223.77056893310547,303.32482550878905,224.94686893310546,303.3749715087891Q226.1231689331055,303.42511750878907,227.26716893310547,303.47980650878907Q228.41126893310548,303.53449550878906,229.52026893310546,303.59359650878906Q230.62926893310546,303.65269650878906,231.70056893310547,303.7160655087891Q232.77196893310548,303.77943450878905,233.8029689331055,303.8469195087891Q234.83406893310547,303.91440650878906,235.82236893310545,303.98584650878905Q236.81056893310546,304.05728650878905,237.75376893310545,304.13250650878905Q238.69686893310546,304.20772650878905,239.59266893310547,304.28654650878906Q240.48836893310545,304.36536650878907,241.33456893310546,304.44759650878905Q242.18066893310547,304.5298265087891,242.97526893310547,304.6152665087891Q243.76976893310547,304.70071650878907,244.51076893310545,304.78916650878904Q245.25196893310547,304.87761650878906,245.93796893310548,304.9688565087891Q246.62296893310548,305.06009650878906,247.25196893310547,305.15391650878905Q247.88096893310546,305.24772650878907,248.45096893310546,305.34389650878904Q249.02096893310545,305.44005650878904,249.53196893310547,305.5383365087891Q250.04196893310547,305.6366165087891,250.49196893310545,305.73677650878903Q250.94096893310547,305.83693650878905,251.32796893310547,305.9387365087891Q251.71496893310547,306.04053650878905,252.03896893310548,306.1437265087891Q252.36296893310546,306.24690650878904,252.62396893310546,306.3512465087891Q252.88396893310545,306.4555765087891,253.07996893310548,306.5608065087891Q253.27496893310547,306.66602650878906,253.40596893310547,306.77189650878904Q253.53696893310547,306.87775650878905,253.60196893310547,306.98400650878904Q253.66796893310547,307.0902565087891,253.66796893310547,307.1966365087891Z" fill="#0BFEFF" fill-opacity="0.5"/></g><g><g><path d="M249.65478092651367,292.66700172424316C249.65478092651367,292.66700172424316,163.01188092651367,292.66700172424316,163.01188092651367,292.66700172424316C156.37686092651367,292.66700172424316,150.99998092651367,287.3100017242432,150.99998092651367,280.70100172424316C150.99998092651367,280.70100172424316,150.99998092651367,162.63340172424316,150.99998092651367,162.63340172424316C150.99998092651367,156.02351172424318,156.37686092651367,150.66700172424316,163.01188092651367,150.66700172424316C163.01188092651367,150.66700172424316,249.65478092651367,150.66700172424316,249.65478092651367,150.66700172424316C256.2899809265137,150.66700172424316,261.6669809265137,156.02351172424318,261.6669809265137,162.63340172424316C261.6669809265137,162.63340172424316,261.6669809265137,280.70100172424316,261.6669809265137,280.70100172424316C261.6669809265137,287.3100017242432,256.2899809265137,292.66700172424316,249.65478092651367,292.66700172424316Z" fill="url(#master_svg6_772_88764)" fill-opacity="1"/></g><g><path d="M244.36545948791502,296.0005065841675C244.36545948791502,296.0005065841675,161.63615948791505,296.0005065841675,161.63615948791505,296.0005065841675C155.02499948791504,296.0005065841675,149.66745948791504,290.6215065841675,149.66745948791504,283.98550658416747C149.66745948791504,283.98550658416747,149.66745948791504,167.3483065841675,149.66745948791504,167.3483065841675C149.66745948791504,160.7116765841675,155.02499948791504,155.33350658416748,161.63615948791505,155.33350658416748C161.63615948791505,155.33350658416748,244.36545948791502,155.33350658416748,244.36545948791502,155.33350658416748C250.97645948791504,155.33350658416748,256.33445948791507,160.7116765841675,256.33445948791507,167.3483065841675C256.33445948791507,167.3483065841675,256.33445948791507,283.9895065841675,256.33445948791507,283.9895065841675C256.33445948791507,290.6215065841675,250.97645948791504,296.0005065841675,244.36545948791502,296.0005065841675Z" fill="#00ACAD" fill-opacity="1"/></g><g><path d="M243.30875358276367,281.3340017242432C243.30875358276367,281.3340017242432,164.02685358276366,281.3340017242432,164.02685358276366,281.3340017242432C163.09186658276369,281.3340017242432,162.33445358276367,280.57800172424317,162.33445358276367,279.6450017242432C162.33445358276367,279.6450017242432,162.33445358276367,166.35557172424316,162.33445358276367,166.35557172424316C162.33445358276367,165.42269872424316,163.09186658276369,164.66700172424316,164.02685358276366,164.66700172424316C164.02685358276366,164.66700172424316,243.30875358276367,164.66700172424316,243.30875358276367,164.66700172424316C244.24375358276367,164.66700172424316,245.00115358276366,165.42269872424316,245.00115358276366,166.35557172424316C245.00115358276366,166.35557172424316,245.00115358276366,279.6450017242432,245.00115358276366,279.6450017242432C244.99745358276368,280.57800172424317,244.24005358276366,281.3340017242432,243.30875358276367,281.3340017242432Z" fill="#2AD1D1" fill-opacity="1"/></g><g><path d="M199.48965349121096,280.66700172424316C192.10525349121093,280.16500172424315,151.48925349121095,277.0840017242432,126.33965449121094,256.7215017242432C125.09627049121094,255.71260172424314,125.67820279121094,253.64040172424316,127.27219349121094,253.49520172424315C166.30505349121094,249.96050172424316,161.55195349121095,180.10130172424317,161.82665349121095,166.70653172424318C161.84835349121093,165.57063472424318,162.57125349121094,164.66700172424316,163.70265349121092,164.66700172424316C163.70265349121092,164.66700172424316,242.51695349121093,164.66700172424316,242.51695349121093,164.66700172424316C243.52095349121095,164.66700172424316,244.33495349121094,165.48353772424318,244.33495349121094,166.49241172424317C244.33495349121094,166.49241172424317,240.20695349121092,241.51210172424317,240.20695349121092,241.51210172424317C240.05495349121094,241.92580172424317,239.76595349121095,242.72780172424316,239.47995349121095,243.06170172424316C239.47995349121095,243.06170172424316,209.57045349121094,279.2070017242432,209.57045349121094,279.2070017242432C209.19815349121092,279.64300172424316,200.06075349121093,280.70600172424315,199.48965349121096,280.66700172424316Z" fill="#7FE8E8" fill-opacity="1"/></g><g><path d="M210.71243786621093,254.63781525878906C215.24183786621094,254.92251525878908,228.73653786621094,255.02701525878905,240.33523786621095,242.00001525878906C237.58663786621094,255.70451525878906,219.93673786621093,280.49731525878906,197.00193786621094,280.66671525878905C210.18003786621094,273.87031525878905,209.67633786621093,261.28651525878905,209.25903786621095,255.64321525878907C209.21223786621093,254.98021525878906,210.05413786621094,254.59461525878908,210.71243786621093,254.63781525878906Z" fill="url(#master_svg7_772_89228)" fill-opacity="1"/></g><g><g><path d="M181.66813850402832,181.9997329711914C181.66813850402832,181.9997329711914,231.00143850402833,181.9997329711914,231.00143850402833,181.9997329711914C232.10603850402833,181.9997329711914,233.00143850402833,182.8951639711914,233.00143850402833,183.9997329711914C233.00143850402833,185.1043029711914,232.10603850402833,185.9997329711914,231.00143850402833,185.9997329711914C231.00143850402833,185.9997329711914,181.66813850402832,185.9997329711914,181.66813850402832,185.9997329711914C180.56356850402832,185.9997329711914,179.66813850402832,185.1043029711914,179.66813850402832,183.9997329711914C179.66813850402832,182.8951639711914,180.56356850402832,181.9997329711914,181.66813850402832,181.9997329711914Z" fill="#CBFFFF" fill-opacity="1"/></g><g><path d="M180.33317756652832,195.33323287963867C180.33317756652832,195.33323287963867,229.66647756652833,195.33323287963867,229.66647756652833,195.33323287963867C230.77107756652833,195.33323287963867,231.66647756652833,196.22866387963867,231.66647756652833,197.33323287963867C231.66647756652833,198.43780287963867,230.77107756652833,199.33323287963867,229.66647756652833,199.33323287963867C229.66647756652833,199.33323287963867,180.33317756652832,199.33323287963867,180.33317756652832,199.33323287963867C179.22860756652832,199.33323287963867,178.33317756652832,198.43780287963867,178.33317756652832,197.33323287963867C178.33317756652832,196.22866387963867,179.22860756652832,195.33323287963867,180.33317756652832,195.33323287963867Z" fill="#CBFFFF" fill-opacity="1"/></g><g><path d="M179.00065898895264,208.66673278808594C179.00065898895264,208.66673278808594,201.66735898895263,208.66673278808594,201.66735898895263,208.66673278808594C202.77185898895263,208.66673278808594,203.66735898895263,209.56216978808592,203.66735898895263,210.66675278808594C203.66735898895263,211.77132278808594,202.77185898895263,212.66676278808595,201.66735898895263,212.66676278808595C201.66735898895263,212.66676278808595,179.00065898895264,212.66676278808595,179.00065898895264,212.66676278808595C177.89608898895264,212.66676278808595,177.00065898895264,211.77132278808594,177.00065898895264,210.66675278808594C177.00065898895264,209.56216978808592,177.89608898895264,208.66673278808594,179.00065898895264,208.66673278808594Z" fill="#CBFFFF" fill-opacity="1"/></g><g><path d="M211.6676483154297,210.66674278808594Q211.6676483154297,210.76500278808595,211.6580183154297,210.86278278808595Q211.64838831542968,210.96056278808595,211.62921831542968,211.05693278808593Q211.61004831542968,211.15329278808593,211.5815283154297,211.24732278808594Q211.55300831542968,211.34134278808594,211.51540831542968,211.43212278808593Q211.47780831542968,211.52289278808593,211.43148831542968,211.60955278808595Q211.3851783154297,211.69620278808594,211.33058831542968,211.77789278808595Q211.2759983154297,211.85959278808593,211.2136683154297,211.93554278808594Q211.15133831542968,212.01149278808595,211.08185831542968,212.08097278808594Q211.0123883154297,212.15045278808594,210.93643831542968,212.21278278808595Q210.86048831542968,212.27511278808595,210.7787883154297,212.32970278808594Q210.69709831542968,212.38428278808593,210.6104383154297,212.43060278808593Q210.5237883154297,212.47692278808594,210.43301831542968,212.51452278808594Q210.34223831542968,212.55212278808594,210.24821831542968,212.58064278808592Q210.15419831542968,212.60916278808594,210.05782831542967,212.62833278808594Q209.9614683154297,212.64750278808594,209.8636883154297,212.65713278808593Q209.7658983154297,212.66676278808595,209.6676483154297,212.66676278808595Q209.56939831542968,212.66676278808595,209.47161831542968,212.65713278808593Q209.37383831542968,212.64750278808594,209.2774683154297,212.62833278808594Q209.1810983154297,212.60916278808594,209.0870783154297,212.58064278808592Q208.9930583154297,212.55212278808594,208.9022783154297,212.51452278808594Q208.81150831542968,212.47692278808594,208.72485831542969,212.43060278808593Q208.63820331542968,212.38428278808593,208.55650831542968,212.32970278808594Q208.47481331542969,212.27511278808595,208.39886231542968,212.21278278808595Q208.32291131542968,212.15045278808594,208.2534353154297,212.08097278808594Q208.1839593154297,212.01149278808595,208.1216273154297,211.93554278808594Q208.0592963154297,211.85959278808593,208.0047093154297,211.77789278808595Q207.9501223154297,211.69620278808594,207.90380631542968,211.60954278808595Q207.8574893154297,211.52289278808593,207.8198893154297,211.43212278808593Q207.7822893154297,211.34134278808594,207.7537677154297,211.24732278808594Q207.72524611542968,211.15329278808593,207.7060778154297,211.05693278808593Q207.68690941542968,210.96056278808595,207.67727886542968,210.86278278808595Q207.6676483154297,210.76500278808595,207.6676483154297,210.66674278808594Q207.6676483154297,210.56849278808593,207.67727886542968,210.47071278808593Q207.68690941542968,210.37293278808593,207.7060778154297,210.27656278808593Q207.72524611542968,210.18019278808595,207.7537677154297,210.08617278808595Q207.7822893154297,209.99215278808595,207.8198893154297,209.90137278808595Q207.8574893154297,209.81060278808593,207.90380631542968,209.72394278808594Q207.9501223154297,209.63729478808594,208.0047093154297,209.55559878808594Q208.0592963154297,209.47390378808595,208.1216273154297,209.39795178808595Q208.1839593154297,209.32199978808595,208.2534353154297,209.25252378808594Q208.32291131542968,209.18304678808593,208.39886231542968,209.12071578808593Q208.47481331542969,209.05838378808593,208.55650831542968,209.00379578808594Q208.63820331542968,208.94920878808594,208.72485831542969,208.90289178808592Q208.81150831542968,208.85657478808594,208.9022783154297,208.81897478808594Q208.9930583154297,208.78137478808594,209.0870783154297,208.75285278808593Q209.1810983154297,208.72433098808594,209.2774683154297,208.70516248808593Q209.37383831542968,208.68599398808593,209.47161831542968,208.67636340808593Q209.56939831542968,208.66673278808594,209.6676483154297,208.66673278808594Q209.7658983154297,208.66673278808594,209.8636883154297,208.67636340808593Q209.9614683154297,208.68599398808593,210.05782831542967,208.70516248808593Q210.15419831542968,208.72433098808594,210.24821831542968,208.75285278808593Q210.34223831542968,208.78137478808594,210.43301831542968,208.81897478808594Q210.5237883154297,208.85657478808594,210.6104383154297,208.90289178808592Q210.69709831542968,208.94920878808594,210.7787883154297,209.00379578808594Q210.86048831542968,209.05838378808593,210.93643831542968,209.12071478808593Q211.0123883154297,209.18304678808593,211.0818683154297,209.25252378808594Q211.15133831542968,209.32199978808595,211.2136683154297,209.39795178808595Q211.2759983154297,209.47390378808595,211.33058831542968,209.55559878808594Q211.3851783154297,209.63729478808594,211.43148831542968,209.72394278808594Q211.47780831542968,209.81060278808593,211.51540831542968,209.90137278808595Q211.55300831542968,209.99215278808595,211.5815283154297,210.08617278808595Q211.61004831542968,210.18019278808595,211.62921831542968,210.27656278808593Q211.64838831542968,210.37293278808593,211.6580183154297,210.47071278808593Q211.6676483154297,210.56849278808593,211.6676483154297,210.66674278808594Z" fill="#CBFFFF" fill-opacity="1"/></g><g transform="matrix(0.9993908405303955,0.03498826548457146,-0.03489942103624344,0.9993908405303955,7.821889858088184,-5.991326191126177)"><path d="M177.08712477020265,221.07054138183594C177.08712477020265,221.07054138183594,226.42158477020263,221.07054138183594,226.42158477020263,221.07054138183594C227.52608477020263,221.07054138183594,228.42158477020263,221.96597238183594,228.42158477020263,223.07054138183594C228.42158477020263,224.17511138183593,227.52608477020263,225.07054138183594,226.42158477020263,225.07054138183594C226.42158477020263,225.07054138183594,177.08712477020265,225.07054138183594,177.08712477020265,225.07054138183594C175.98253477020265,225.07054138183594,175.08708477020264,224.17511138183593,175.08708477020264,223.07054138183594C175.08708477020264,221.96597238183594,175.98253477020265,221.07054138183594,177.08712477020265,221.07054138183594Z" fill="#CBFFFF" fill-opacity="1"/></g><g transform="matrix(0.9975640773773193,0.06975658237934113,-0.06975634396076202,0.9975640773773193,16.70359994828334,-11.373993309392063)"><path d="M173.20573711395264,233.47777557373047C173.20573711395264,233.47777557373047,222.53903711395265,233.47777557373047,222.53903711395265,233.47777557373047C223.64363711395265,233.47777557373047,224.53903711395265,234.37320657373047,224.53903711395265,235.47777557373047C224.53903711395265,236.58234557373046,223.64363711395265,237.47777557373047,222.53903711395265,237.47777557373047C222.53903711395265,237.47777557373047,173.20573711395264,237.47777557373047,173.20573711395264,237.47777557373047C172.10116711395264,237.47777557373047,171.20573711395264,236.58234557373046,171.20573711395264,235.47777557373047C171.20573711395264,234.37320657373047,172.10116711395264,233.47777557373047,173.20573711395264,233.47777557373047Z" fill="#CBFFFF" fill-opacity="1"/></g><g transform="matrix(0.9925461411476135,0.12186913192272186,-0.12186955660581589,0.9925461411476135,31.29186964098932,-18.478451936871807)"><path d="M168.70622631907463,246.56908416748047C168.70622631907463,246.56908416748047,191.37292631907462,246.56908416748047,191.37292631907462,246.56908416748047C192.47742631907462,246.56908416748047,193.37292631907462,247.46452116748046,193.37292631907462,248.56910416748048C193.37292631907462,249.67367416748047,192.47742631907462,250.56911416748048,191.37292631907462,250.56911416748048C191.37292631907462,250.56911416748048,168.70622631907463,250.56911416748048,168.70622631907463,250.56911416748048C167.60165631907464,250.56911416748048,166.70622631907463,249.67367416748047,166.70622631907463,248.56910416748048C166.70622631907463,247.46452116748046,167.60165631907464,246.56908416748047,168.70622631907463,246.56908416748047Z" fill="#CBFFFF" fill-opacity="1"/></g><g transform="matrix(0.9925462603569031,0.12186820060014725,-0.12187046557664871,0.992546021938324,31.974355549341453,-22.159775976401193)"><path d="M201.1437225341797,252.305888203125Q201.1437225341797,252.404148203125,201.1340925341797,252.501928203125Q201.12446253417968,252.599708203125,201.10529253417968,252.696068203125Q201.08613253417968,252.792438203125,201.0576025341797,252.886458203125Q201.02908253417968,252.980478203125,200.99148253417968,253.071248203125Q200.95388253417968,253.162028203125,200.90757253417968,253.248678203125Q200.8612525341797,253.335328203125,200.80666253417968,253.417018203125Q200.7520825341797,253.498718203125,200.6897425341797,253.574668203125Q200.62741253417968,253.650618203125,200.5579425341797,253.720088203125Q200.4884625341797,253.789568203125,200.41251253417968,253.851898203125Q200.33656253417968,253.914228203125,200.2548625341797,253.968818203125Q200.17317253417968,254.023398203125,200.0865225341797,254.069718203125Q199.9998625341797,254.116038203125,199.90909253417968,254.153638203125Q199.81831253417968,254.191238203125,199.72429253417968,254.219758203125Q199.63027253417968,254.248278203125,199.53390253417967,254.267448203125Q199.4375425341797,254.286618203125,199.3397625341797,254.296248203125Q199.2419825341797,254.305878203125,199.1437225341797,254.305878203125Q199.04547253417968,254.305878203125,198.94769253417968,254.296248203125Q198.84991253417968,254.286618203125,198.7535425341797,254.267448203125Q198.6571725341797,254.248278203125,198.5631525341797,254.219758203125Q198.4691325341797,254.191238203125,198.3783525341797,254.153638203125Q198.28758253417968,254.116038203125,198.20093253417969,254.069718203125Q198.11427753417968,254.023398203125,198.03258253417968,253.968818203125Q197.95088753417969,253.914228203125,197.87493653417968,253.851898203125Q197.79898553417968,253.789568203125,197.7295095341797,253.720088203125Q197.6600335341797,253.650618203125,197.5977015341797,253.574668203125Q197.5353705341797,253.498718203125,197.4807835341797,253.417018203125Q197.4261965341797,253.335328203125,197.37988053417968,253.248678203125Q197.3335635341797,253.162028203125,197.2959635341797,253.071248203125Q197.2583635341797,252.980478203125,197.2298419341797,252.886458203125Q197.20132033417968,252.792438203125,197.1821520341797,252.696068203125Q197.16298363417968,252.599708203125,197.15335308417968,252.501928203125Q197.1437225341797,252.404148203125,197.1437225341797,252.305888203125Q197.1437225341797,252.207638203125,197.15335308417968,252.109858203125Q197.16298363417968,252.012078203125,197.1821520341797,251.915718203125Q197.20132033417968,251.819348203125,197.2298419341797,251.725328203125Q197.2583635341797,251.631308203125,197.2959635341797,251.540528203125Q197.3335635341797,251.449758203125,197.37988053417968,251.363108203125Q197.4261965341797,251.276454203125,197.4807835341797,251.19476020312499Q197.5353705341797,251.113066203125,197.5977015341797,251.037115203125Q197.6600335341797,250.961165203125,197.7295095341797,250.891689203125Q197.79898553417968,250.822214203125,197.87493653417968,250.759883203125Q197.95088753417969,250.697552203125,198.03258253417968,250.642966203125Q198.11427753417968,250.588380203125,198.20093253417969,250.542063203125Q198.28758253417968,250.495747203125,198.3783525341797,250.458148203125Q198.4691325341797,250.420548203125,198.5631525341797,250.392026803125Q198.6571725341797,250.363505503125,198.7535425341797,250.344337303125Q198.84991253417968,250.325169103125,198.94769253417968,250.315538663125Q199.04547253417968,250.305908203125,199.1437225341797,250.305908203125Q199.2419825341797,250.305908203125,199.3397625341797,250.315538663125Q199.4375425341797,250.325169103125,199.53390253417967,250.344337303125Q199.63027253417968,250.363505503125,199.72429253417968,250.392026803125Q199.81831253417968,250.420548203125,199.90909253417968,250.458148203125Q199.9998625341797,250.495747203125,200.0865225341797,250.542063203125Q200.17317253417968,250.588380203125,200.2548625341797,250.642966203125Q200.33656253417968,250.697552203125,200.41251253417968,250.759883203125Q200.4884625341797,250.822214203125,200.5579425341797,250.891689203125Q200.62741253417968,250.961165203125,200.6897425341797,251.037115203125Q200.7520825341797,251.113066203125,200.80666253417968,251.19476020312499Q200.8612525341797,251.276454203125,200.90757253417968,251.363108203125Q200.95388253417968,251.449758203125,200.99148253417968,251.540528203125Q201.02908253417968,251.631308203125,201.0576025341797,251.725328203125Q201.08613253417968,251.819348203125,201.10529253417968,251.915718203125Q201.12446253417968,252.012078203125,201.1340925341797,252.109858203125Q201.1437225341797,252.207638203125,201.1437225341797,252.305888203125Z" fill="#CBFFFF" fill-opacity="1"/></g></g><g><g><path d="M187.0012822735589,155.66602516174316C187.0012822735589,155.66602516174316,221.6679822735589,155.66602516174316,221.6679822735589,155.66602516174316C221.6679822735589,155.66602516174316,221.6679822735589,167.66602516174316,221.6679822735589,167.66602516174316C221.6679822735589,167.66602516174316,187.0012822735589,167.66602516174316,187.0012822735589,167.66602516174316C187.0012822735589,167.66602516174316,187.0012822735589,155.66602516174316,187.0012822735589,155.66602516174316Z" fill="#0BFEFF" fill-opacity="0.501960813999176"/></g><g><path d="M189.66690651123048,150.66700172424316C189.66690651123048,150.66700172424316,224.33353651123048,150.66700172424316,224.33353651123048,150.66700172424316C224.33353651123048,150.66700172424316,221.66693651123046,155.33367172424317,221.66693651123046,155.33367172424317C221.66693651123046,155.33367172424317,187.00023651123047,155.33367172424317,187.00023651123047,155.33367172424317C187.00023651123047,155.33367172424317,189.66690651123048,150.66700172424316,189.66690651123048,150.66700172424316Z" fill-rule="evenodd" fill="#0BFEFF" fill-opacity="0.501960813999176"/></g><g><path d="M205.66721869873047,140.00000762939453C208.98092869873048,140.00000762939453,211.66722869873047,142.68629762939455,211.66722869873047,146.00000762939453C211.66722869873047,149.31370762939454,208.98092869873048,152.00000762939453,205.66721869873047,152.00000762939453C202.35351869873048,152.00000762939453,199.66722869873047,149.31370762939454,199.66722869873047,146.00000762939453C199.66722869873047,142.68629762939455,202.35351869873048,140.00000762939453,205.66721869873047,140.00000762939453ZM205.66721869873047,142.66666762939454C203.82627869873048,142.66666762939454,202.33388869873048,144.15905762939454,202.33388869873048,146.00000762939453C202.33388869873048,147.84094762939452,203.82627869873048,149.33333762939452,205.66721869873047,149.33333762939452C207.50816869873046,149.33333762939452,209.00055869873046,147.84094762939452,209.00055869873046,146.00000762939453C209.00055869873046,144.15905762939454,207.50816869873046,142.66666762939454,205.66721869873047,142.66666762939454Z" fill-rule="evenodd" fill="#0BFEFF" fill-opacity="1"/></g></g></g><g><path d="M180.23835349121094,124.513293625Q178.27225349121093,124.552369625,176.23505349121095,124.671167625L176.29325349121095,125.669471625Q176.73715349121093,125.643584625,177.17765349121095,125.621519625L177.19515349121093,125.969703625Q179.22315349121095,125.868097625,181.17775349121092,125.847805625L181.16735349121095,124.847859625Q180.70835349121094,124.852624625,180.24525349121095,124.861829625L180.23835349121094,124.513293625ZM188.27885349121095,124.707609625Q186.31695349121094,124.566594625,184.27195349121092,124.518731625L184.24855349121094,125.518458625Q184.70615349121093,125.529168625,185.15955349121094,125.544596625L185.14765349121095,125.893002625Q187.17875349121093,125.962128625,189.12365349121094,126.126320625L189.20775349121095,125.129864625Q188.73335349121095,125.089812525,188.25395349121095,125.055347125L188.27885349121095,124.707609625ZM172.22945349121093,124.975388025Q170.25746349121093,125.158802625,168.22302349121094,125.412124625L168.34658349121094,126.404460625Q168.77744349121093,126.350810625,169.20543349121093,126.300330625L169.24628349121093,126.646610625Q171.27265349121095,126.407570625,173.23485349121094,126.239610625L173.14955349121095,125.243255625Q172.70725349121093,125.281113625,172.26175349121092,125.322550625L172.22945349121093,124.975388025ZM196.27365349121095,125.733461625Q194.32955349121093,125.363400625,192.28715349121094,125.103840625L192.16105349121094,126.095860625Q192.63025349121094,126.155500625,193.09415349121093,126.221040625L193.04545349121094,126.566320625Q195.06405349121093,126.851560625,196.98075349121095,127.249220625L197.18385349121093,126.270070625Q196.69935349121093,126.169540625,196.20845349121095,126.076100625L196.27365349121095,125.733461625ZM160.08846249121095,126.658430625L160.23641249121093,127.494020625L160.72885269121093,127.406830625L160.75526789121093,127.555770625Q161.03199349121093,127.506700625,161.30769049121093,127.458780625L161.36784049121093,127.802650625L161.57224349121094,127.766900625Q163.47810349121093,127.438220625,165.33334349121094,127.165670625L165.18799349121093,126.17629062500001Q164.76128349121095,126.238980625,164.33191349121094,126.304610625L164.27921349121092,125.959895625Q162.45367349121094,126.238950625,160.58063909121094,126.571140625L160.08846249121095,126.658430625ZM204.06925349121093,127.797200625Q202.18165349121094,127.140240625,200.17785349121095,126.613970625L199.92385349121093,127.581170625Q200.40545349121095,127.707660625,200.88015349121093,127.841820625L200.78525349121094,128.177570625Q202.74335349121094,128.730990625,204.58235349121094,129.415590625L204.93125349121095,128.478410625Q204.44685349121093,128.298110625,203.95455349121093,128.126770625L204.06925349121093,127.797200625ZM211.42175349121095,131.097050625Q209.67755349121094,130.112630625,207.80285349121095,129.275000625L207.39485349121094,130.188010625Q207.88495349121092,130.406990625,208.36585349121094,130.636190625L208.21575349121093,130.951180625Q210.01385349121094,131.808170625,211.68185349121094,132.808950625L212.19635349121094,131.951470625Q211.72825349121092,131.670620625,211.25025349121094,131.400860625L211.42175349121095,131.097050625ZM217.48865349121093,135.29254062500002Q216.21315349121093,134.22189062500001,214.84295349121095,133.25726062500001L214.26725349121094,134.074960625Q214.72775349121093,134.399120625,215.17725349121093,134.735550625L214.96835349121093,135.014640625Q215.81485349121095,135.648340625,216.62095349121094,136.324940625L217.11755349121094,136.743640625L217.60895349121094,137.161840625L217.85355349121093,137.371940625L218.07145349121095,137.559040625L218.72305349121095,136.800440625L218.50505349121093,136.613340625L218.26045349121094,136.403240625L217.81085349121093,136.020640625L218.03605349121094,135.754740625L217.98915349121094,135.715040625L217.73945349121095,135.503640625L217.48865349121093,135.29254062500002ZM221.17605349121095,138.495940625L221.11405349121094,138.44064062500001L220.44815349121095,139.186640625L220.51015349121093,139.241940625L220.99945349121094,139.683540625L221.24095349121095,139.903240625L220.99475349121093,140.149440625L221.00275349121094,140.157340625L221.50695349121094,140.617940625L222.00875349121094,141.079840625L222.77645349121093,141.792940625L223.56565349121092,142.533140625L223.83595349121094,142.788640625L223.97775349121093,142.92264062499999L224.66455349121094,142.195840625L224.52285349121092,142.061840625L224.25245349121093,141.806340625L223.71865349121094,141.305640625L223.95715349121093,141.051340625L223.69535349121094,140.805840625L222.92245349121094,140.088040625L222.16655349121095,139.393440625L221.66945349121093,138.941140625L221.17605349121095,138.495940625ZM228.29135349121094,145.190740625L226.86445349121095,143.817540625L226.17105349121096,144.538040625L227.02775349121094,145.362540625L226.78695349121094,145.612240625L227.29165349121092,146.098940625L228.77965349121092,147.533440625L229.58565349121093,148.305840625L229.71435349121094,148.429140625L230.40625349121092,147.707140625L230.27755349121094,147.583840625L229.56915349121095,146.904940625L229.81125349121095,146.653440625L228.29135349121094,145.190740625ZM232.89595349121095,149.580740625L232.64355349121092,149.346640625L231.96355349121092,150.079840625L232.21595349121094,150.313940625L232.47875349121094,150.557740625L232.90975349121095,150.953140625L232.67415349121094,151.210040625L232.75755349121096,151.286540625L233.25725349121092,151.739540625L233.58505349121094,152.033640625Q234.67505349121092,153.007240625,235.69425349121093,153.856640625L236.33445349121092,153.088440625Q235.89985349121093,152.726240625,235.45195349121093,152.340940625L235.67925349121094,152.076640625Q235.09375349121092,151.573040625,234.48445349121096,151.028740625L233.99595349121094,150.589540625L233.66565349121095,150.289540625L233.15875349121092,149.824540625L232.89595349121095,149.580740625ZM241.97985349121092,156.810940625Q240.38685349121096,155.806940625,238.74475349121093,154.562640625L238.14075349121094,155.359740625Q238.60485349121092,155.711440625,239.06545349121092,156.044440625L238.86105349121095,156.327040625Q240.55165349121094,157.549940625,242.22165349121093,158.539440625L242.73135349121094,157.679040625Q242.26365349121093,157.401940625,241.79395349121094,157.10584062499998L241.97985349121092,156.810940625ZM247.56735349121095,159.719540625Q246.46225349121096,159.256940625,245.40555349121092,158.73434062500002L244.96225349121096,159.630640625Q245.44385349121092,159.868940625,245.93525349121094,160.094940625L245.78955349121094,160.411840625Q246.40955349121094,160.696940625,247.04675349121095,160.963740625Q248.26455349121093,161.473540625,249.53355349121094,161.90634062499998L249.85635349121094,160.959940625Q249.37005349121094,160.794040625,248.89165349121095,160.616640625L249.01285349121093,160.289640625Q248.28115349121094,160.018340625,247.56735349121095,159.719540625ZM256.65115349121095,162.310340625Q254.64035349121093,161.963340625,252.77445349121092,161.473640625L252.52055349121093,162.440940625Q253.00015349121094,162.566740625,253.48885349121093,162.683340625L253.40795349121095,163.022540625Q255.31745349121093,163.478240625,257.37155349121093,163.794340625L257.52365349121095,162.806040625Q257.0539534912109,162.733740625,256.59185349121094,162.653940625L256.65115349121095,162.310340625ZM264.5029534912109,163.114440625Q262.4719534912109,163.029040625,260.58555349121093,162.840740625L260.4861534912109,163.835840625Q260.95795349121096,163.882940625,261.43995349121093,163.923740625L261.40995349121096,164.271240625Q263.32895349121094,164.433940625,265.39095349121095,164.496140625L265.4209534912109,163.496540625Q264.95095349121095,163.482340625,264.48795349121093,163.462940625L264.5029534912109,163.114440625ZM272.58495349121097,163.47754062500002Q270.57695349121093,163.294340625,268.56695349121094,163.221040625L268.5299534912109,164.220340625Q268.9929534912109,164.237240625,269.4569534912109,164.260040625L269.43895349121095,164.60834062499998Q271.42195349121096,164.706040625,273.3999534912109,164.912340625L273.50395349121095,163.917740625Q273.0289534912109,163.868240625,272.5529534912109,163.824840625L272.58495349121097,163.47754062500002ZM280.54795349121093,164.642340625Q278.5749534912109,164.243440625,276.58295349121096,163.952040625L276.4379534912109,164.94154062500002Q276.91995349121095,165.012040625,277.40095349121094,165.088940625L277.34595349121093,165.433240625Q279.31395349121095,165.747940625,281.26195349121093,166.169540625L281.4739534912109,165.192140625Q280.9769534912109,165.084740625,280.478953491211,164.984140625L280.54795349121093,164.642340625ZM288.3679534912109,166.671040625Q286.4379534912109,166.056140625,284.47295349121094,165.54674062499998L284.2219534912109,166.514740625Q284.7119534912109,166.641740625,285.1999534912109,166.775340625L285.1069534912109,167.111740625Q287.03695349121097,167.640540625,288.9279534912109,168.27284062500001L289.24495349121094,167.324540625Q288.7549534912109,167.160540625,288.26195349121093,167.003340625L288.3679534912109,166.671040625ZM295.89795349121096,169.539340625Q294.05495349121094,168.716540625,292.15695349121097,167.994340625L291.800953491211,168.928940625Q292.2849534912109,169.113240625,292.76595349121095,169.304140625L292.63795349121096,169.628240625Q294.5049534912109,170.369940625,296.3129534912109,171.210540625L296.73495349121094,170.303740625Q296.24695349121095,170.077140625,295.7559534912109,169.857640625L295.89795349121096,169.539340625ZM300.70595349121095,171.910540625Q300.11695349121095,171.591240625,299.5199534912109,171.282040625L299.05995349121093,172.170340625Q299.53695349121097,172.416640625,300.00795349121097,172.669840625L299.8419534912109,172.976740625L300.0629534912109,173.095740625L300.29995349121094,173.225240625L300.77595349121094,173.488340625Q301.478953491211,173.881740625,302.16295349121094,174.287740625L302.6159534912109,174.55884062500002L303.0629534912109,174.83184062499998L303.26795349121096,174.959740625L303.79695349121096,174.111040625L303.59095349121094,173.983140625L303.13695349121093,173.705540625L302.8809534912109,173.552240625L303.06095349121097,173.252540625Q301.9049534912109,172.560440625,300.70595349121095,171.910540625ZM306.81895349121095,175.696940625L306.42495349121094,175.42094062500001L305.85095349121093,176.239840625L306.24495349121094,176.515840625L306.64595349121095,176.802440625L306.8029534912109,176.916640625L306.598953491211,177.199340625L306.6159534912109,177.21114062499998L307.002953491211,177.495740625L307.38295349121097,177.780740625L307.75795349121097,178.067540625Q308.76395349121094,178.844640625,309.66695349121096,179.627540625L310.32195349121093,178.871840625Q309.89095349121095,178.497840625,309.43695349121094,178.125240625L309.65595349121094,177.854240625L309.16695349121096,177.458840625L308.79495349121095,177.165240625Q308.41695349121096,176.869640625,308.02395349121093,176.574940625L307.62895349121095,176.28144062500002L307.2269534912109,175.988740625L306.81895349121095,175.696940625ZM312.7669534912109,180.694240625L312.65595349121094,180.581740625L311.9429534912109,181.282840625L312.0539534912109,181.395440625Q312.43095349121097,181.784540625,312.77295349121096,182.16494062499999L312.5149534912109,182.39874062500002L312.54295349121094,182.429940625Q314.0439534912109,184.109640625,314.79195349121096,185.559440625L315.68095349121097,185.100840625Q315.3899534912109,184.537340625,314.997953491211,183.946240625L315.28695349121097,183.754340625Q314.31195349121094,182.287140625,312.7669534912109,180.694240625Z" fill-rule="evenodd" fill="#0BFEFF" fill-opacity="1"/></g><g transform="matrix(-0.8829475045204163,0.4694717228412628,0.46947142481803894,0.8829476237297058,236.96405145554388,-59.0818006707384)"><g><path d="M167.29961130371095,122.38539618530274C167.29961130371095,122.38539618530274,176.31301130371094,126.29879618530273,176.31301130371094,126.29879618530273C176.31301130371094,126.29879618530273,180.69891130371093,96.99999618530273,180.69891130371093,96.99999618530273C180.69891130371093,96.99999618530273,150.03221130371094,115.07779618530273,150.03221130371094,115.07779618530273C150.03221130371094,115.07779618530273,158.07887130371094,118.88759618530273,158.07887130371094,118.88759618530273C158.07887130371094,118.88759618530273,177.52181130371093,101.15591618530273,177.52181130371093,101.15591618530273C177.52181130371093,101.15591618530273,161.91191130371095,120.68839618530274,161.91191130371095,120.68839618530274C161.91191130371095,120.68839618530274,161.70471130371095,128.99999618530273,161.70471130371095,128.99999618530273C161.70471130371095,128.99999618530273,167.29961130371095,122.38539618530274,167.29961130371095,122.38539618530274Z" fill="url(#master_svg8_772_88286)" fill-opacity="1"/></g></g></g></g></svg>