<svg xmlns="http://www.w3.org/2000/svg" xmlns:xlink="http://www.w3.org/1999/xlink" fill="none" version="1.1" width="130" height="130" viewBox="0 0 130 130"><defs><clipPath id="master_svg0_749_80572"><rect x="0" y="0" width="130" height="130" rx="0"/></clipPath><linearGradient x1="0.5" y1="0" x2="0.5" y2="1" id="master_svg1_692_71122"><stop offset="0%" stop-color="#FFFFFF" stop-opacity="1"/><stop offset="100%" stop-color="#80FFF1" stop-opacity="1"/></linearGradient></defs><g clip-path="url(#master_svg0_749_80572)"><g><path d="M116.0721328125,13.927734375L13.928992812499999,13.927734375C11.3754228125,13.927734375,9.2861328125,16.017024375,9.2861328125,18.570594375L9.2861328125,97.499134375C9.2861328125,100.052734375,11.3754228125,102.142034375,13.928992812499999,102.142034375L116.0721328125,102.142034375C118.6251328125,102.142034375,120.7151328125,100.052734375,120.7151328125,97.499134375L120.7151328125,18.570594375C120.7151328125,16.017024375,118.6251328125,13.927734375,116.0721328125,13.927734375ZM83.8040328125,72.195634375L77.0718328125,78.695634375L64.7682328125,65.695634375L51.7682328125,77.999134375L45.2682328125,71.26703437500001L58.2682328125,58.963434375L45.9647328125,45.963434375L52.6968328125,39.463434375L65.00043281250001,52.463434375L78.0004328125,40.159834375L84.5004328125,46.892034375L71.50043281250001,59.195634375L83.8040328125,72.195634375ZM99.8218328125,106.784834375L30.1790328125,106.784834375L30.1790328125,116.070734375L99.8218328125,116.070734375L99.8218328125,106.784834375Z" fill="url(#master_svg1_692_71122)" fill-opacity="1" style="mix-blend-mode:passthrough"/></g></g></svg>