<svg xmlns="http://www.w3.org/2000/svg" xmlns:xlink="http://www.w3.org/1999/xlink" fill="none" version="1.1" width="130" height="130" viewBox="0 0 130 130"><defs><clipPath id="master_svg0_749_88651"><rect x="0" y="0" width="130" height="130" rx="0"/></clipPath><linearGradient x1="0.5" y1="0" x2="0.5" y2="1" id="master_svg1_692_71122"><stop offset="0%" stop-color="#FFFFFF" stop-opacity="1"/><stop offset="100%" stop-color="#80FFF1" stop-opacity="1"/></linearGradient></defs><g clip-path="url(#master_svg0_749_88651)"><g><path d="M116.0721328125,13.927734375L13.928992812499999,13.927734375C11.3754128125,13.927734375,9.2861328125,16.017024375,9.2861328125,18.570594375L9.2861328125,97.499134375C9.2861328125,100.052734375,11.3754128125,102.142034375,13.928992812499999,102.142034375L116.0721328125,102.142034375C118.6251328125,102.142034375,120.7151328125,100.052734375,120.7151328125,97.499134375L120.7151328125,18.570594375C120.7151328125,16.017024375,118.6251328125,13.927734375,116.0721328125,13.927734375ZM63.8397328125,76.374134375C62.9111328125,77.070634375,61.9825328125,77.534834375,60.8218328125,77.534834375C59.6611328125,77.534834375,58.5004328125,77.070634375,57.5718328125,76.14203437500001L39.6968328125,58.499134375L46.1968328125,51.999134375L61.0540328125,66.856334375L88.6790328125,44.106334375L94.7147328125,51.302734375L63.8397328125,76.374134375ZM99.8218328125,106.784834375L30.1790328125,106.784834375L30.1790328125,116.070734375L99.8218328125,116.070734375L99.8218328125,106.784834375Z" fill="url(#master_svg1_692_71122)" fill-opacity="1" style="mix-blend-mode:passthrough"/></g></g></svg>