<svg xmlns="http://www.w3.org/2000/svg" xmlns:xlink="http://www.w3.org/1999/xlink" fill="none" version="1.1" width="451" height="451" viewBox="0 0 451 451"><defs><linearGradient x1="1" y1="0.5" x2="0" y2="0.5" id="master_svg0_89_14875"><stop offset="0%" stop-color="#2B8EF3" stop-opacity="0.4000000059604645"/><stop offset="13.174065947532654%" stop-color="#2B8EF3" stop-opacity="0"/><stop offset="50%" stop-color="#2B8EF3" stop-opacity="0"/><stop offset="86.56392693519592%" stop-color="#2B8EF3" stop-opacity="0"/><stop offset="100%" stop-color="#2B8EF3" stop-opacity="0.4000000059604645"/></linearGradient></defs><g transform="matrix(0,1,-1,0,451,-451)"><path d="M902,225.5Q902,231.036,901.7280000000001,236.565Q901.457,242.094,900.914,247.603Q900.3720000000001,253.112,899.559,258.588Q898.7470000000001,264.064,897.6669999999999,269.493Q896.587,274.922,895.242,280.292Q893.8969999999999,285.662,892.29,290.959Q890.683,296.256,888.818,301.469Q886.953,306.681,884.835,311.795Q882.716,316.909,880.35,321.914Q877.983,326.918,875.373,331.8Q872.764,336.682,869.918,341.43Q867.072,346.178,863.996,350.781Q860.921,355.384,857.623,359.83Q854.326,364.276,850.8140000000001,368.556Q847.302,372.835,843.5840000000001,376.936Q839.867,381.038,835.953,384.953Q832.038,388.867,827.937,392.584Q823.835,396.302,819.556,399.814Q815.2760000000001,403.326,810.8299999999999,406.623Q806.384,409.921,801.781,412.996Q797.178,416.072,792.4300000000001,418.918Q787.682,421.764,782.8,424.373Q777.918,426.983,772.914,429.35Q767.909,431.716,762.7950000000001,433.835Q757.681,435.953,752.469,437.818Q747.256,439.683,741.9590000000001,441.29Q736.662,442.897,731.2919999999999,444.242Q725.922,445.587,720.4929999999999,446.667Q715.0640000000001,447.747,709.588,448.559Q704.112,449.372,698.6030000000001,449.914Q693.094,450.457,687.565,450.728Q682.0360000000001,451,676.5,451Q670.9639999999999,451,665.435,450.728Q659.906,450.457,654.3969999999999,449.914Q648.888,449.372,643.412,448.559Q637.936,447.747,632.5070000000001,446.667Q627.078,445.587,621.708,444.242Q616.338,442.897,611.0409999999999,441.29Q605.7429999999999,439.683,600.531,437.818Q595.319,435.953,590.205,433.835Q585.091,431.716,580.086,429.35Q575.082,426.983,570.2,424.373Q565.318,421.764,560.5699999999999,418.918Q555.822,416.072,551.219,412.996Q546.6161,409.921,542.1698,406.623Q537.7235000000001,403.326,533.4443,399.814Q529.1650999999999,396.302,525.0634,392.584Q520.9618,388.867,517.0474,384.953Q513.1331,381.038,509.4155,376.937Q505.698,372.835,502.1861,368.556Q498.6743,364.276,495.3767,359.83Q492.0791,355.384,489.0036,350.781Q485.9281,346.178,483.0822,341.43Q480.2363,336.682,477.6268,331.8Q475.0172,326.918,472.6504,321.914Q470.2836,316.909,468.1652,311.795Q466.0467,306.681,464.1818,301.469Q462.3169,296.256,460.70995,290.959Q459.10302,285.662,457.75795,280.292Q456.41288,274.922,455.33292,269.493Q454.25295,264.064,453.4407,258.588Q452.62844,253.112,452.08584,247.603Q451.543249,242.094,451.271625,236.565Q451,231.036,451,225.5Q451,219.964,451.271625,214.435Q451.543249,208.906,452.08584,203.397Q452.62844,197.888,453.4407,192.412Q454.25295,186.936,455.33292,181.507Q456.41288,176.078,457.75795,170.708Q459.10302,165.338,460.70995,160.041Q462.3169,154.743,464.1818,149.531Q466.0467,144.319,468.1652,139.205Q470.2836,134.091,472.6504,129.086Q475.0172,124.082,477.6268,119.2Q480.2363,114.318,483.0822,109.57Q485.9281,104.822,489.0036,100.219Q492.0791,95.6161,495.3767,91.1698Q498.6743,86.7235,502.1861,82.4443Q505.698,78.1651,509.4155,74.0634Q513.1331,69.9618,517.0474,66.0474Q520.9618,62.1331,525.0634,58.4155Q529.1650999999999,54.698,533.4443,51.1861Q537.7235000000001,47.6743,542.1698,44.3767Q546.6161,41.0791,551.219,38.0036Q555.822,34.9281,560.5699999999999,32.0822Q565.318,29.2363,570.2,26.6268Q575.082,24.0172,580.086,21.6504Q585.091,19.2836,590.205,17.1652Q595.319,15.0467,600.531,13.1818Q605.7429999999999,11.3169,611.0409999999999,9.70995Q616.338,8.10302,621.708,6.75795Q627.078,5.41288,632.5070000000001,4.33292Q637.936,3.25295,643.412,2.4407Q648.888,1.62844,654.3969999999999,1.08584Q659.906,0.543249,665.435,0.271625Q670.9639999999999,0,676.5,0Q682.0360000000001,0,687.565,0.271625Q693.094,0.543249,698.6030000000001,1.08584Q704.112,1.62844,709.588,2.4407Q715.0640000000001,3.25295,720.4929999999999,4.33292Q725.922,5.41288,731.2919999999999,6.75795Q736.662,8.10302,741.9590000000001,9.70995Q747.256,11.3169,752.469,13.1818Q757.681,15.0467,762.7950000000001,17.1652Q767.909,19.2836,772.914,21.6504Q777.918,24.0172,782.8,26.6268Q787.682,29.2363,792.4300000000001,32.0822Q797.178,34.9281,801.781,38.0036Q806.384,41.0791,810.8299999999999,44.3767Q815.2760000000001,47.6743,819.556,51.1861Q823.835,54.698,827.9359999999999,58.4155Q832.038,62.1331,835.953,66.0474Q839.867,69.9618,843.5840000000001,74.0634Q847.302,78.1651,850.8140000000001,82.4443Q854.326,86.7235,857.623,91.1698Q860.921,95.6161,863.996,100.219Q867.072,104.822,869.918,109.57Q872.764,114.318,875.373,119.2Q877.983,124.082,880.35,129.086Q882.716,134.091,884.835,139.205Q886.953,144.319,888.818,149.531Q890.683,154.743,892.29,160.041Q893.8969999999999,165.338,895.242,170.708Q896.587,176.078,897.6669999999999,181.507Q898.7470000000001,186.936,899.559,192.412Q900.3720000000001,197.888,900.914,203.397Q901.457,208.906,901.7280000000001,214.435Q902,219.964,902,225.5ZM901,225.5Q901,219.989,900.73,214.484Q900.4590000000001,208.98,899.919,203.495Q899.379,198.011,898.5699999999999,192.559Q897.761,187.107,896.6859999999999,181.702Q895.611,176.297,894.2719999999999,170.951Q892.933,165.605,891.3330000000001,160.331Q889.733,155.057,887.877,149.868Q886.02,144.679,883.9110000000001,139.588Q881.802,134.496,879.446,129.514Q877.0889999999999,124.532,874.491,119.671Q871.893,114.811,869.06,110.084Q866.227,105.357,863.165,100.774Q860.1030000000001,96.1921,856.8199999999999,91.7655Q853.537,87.3389,850.0409999999999,83.0787Q846.5450000000001,78.8185,842.844,74.735Q839.142,70.6515,835.245,66.7545Q831.348,62.8575,827.265,59.1565Q823.181,55.4554,818.921,51.9592Q814.6610000000001,48.4629,810.2339999999999,45.1799Q805.808,41.8969,801.225,38.8351Q796.643,35.7732,791.9159999999999,32.9399Q787.1890000000001,30.1066,782.329,27.5087Q777.4680000000001,24.9107,772.486,22.5544Q767.504,20.1981,762.412,18.089Q757.321,15.98,752.1320000000001,14.1234Q746.943,12.2667,741.669,10.6669Q736.395,9.06709,731.049,7.72798Q725.703,6.38888,720.298,5.3137Q714.893,4.23853,709.441,3.42987Q703.989,2.62122,698.505,2.08103Q693.02,1.54084,687.516,1.27042Q682.011,1,676.5,1Q670.989,1,665.484,1.27042Q659.98,1.54084,654.495,2.08103Q649.011,2.62122,643.559,3.42987Q638.107,4.23853,632.702,5.3137Q627.297,6.38888,621.951,7.72798Q616.605,9.06709,611.331,10.6669Q606.057,12.2667,600.8679999999999,14.1234Q595.679,15.98,590.588,18.089Q585.496,20.1981,580.514,22.5544Q575.532,24.9107,570.671,27.5087Q565.811,30.1066,561.0840000000001,32.9399Q556.357,35.7732,551.774,38.8351Q547.1921,41.8969,542.7655,45.1799Q538.3389,48.4629,534.0787,51.9591Q529.8185,55.4554,525.735,59.1565Q521.6514999999999,62.8575,517.7545,66.7545Q513.8575,70.6515,510.1565,74.735Q506.4554,78.8185,502.9592,83.0787Q499.4629,87.3389,496.1799,91.7655Q492.8969,96.1921,489.8351,100.774Q486.7732,105.357,483.9399,110.084Q481.1066,114.811,478.5087,119.671Q475.9107,124.532,473.5544,129.514Q471.1981,134.496,469.089,139.588Q466.98,144.679,465.1234,149.868Q463.2667,155.057,461.6669,160.331Q460.06709,165.605,458.72798,170.951Q457.38888,176.297,456.3137,181.702Q455.23853,187.107,454.42987,192.559Q453.62122,198.011,453.08103,203.495Q452.54084,208.98,452.27042,214.484Q452,219.989,452,225.5Q452,231.011,452.27042,236.516Q452.54084,242.02,453.08103,247.505Q453.62122,252.989,454.42987,258.441Q455.23853,263.893,456.3137,269.298Q457.38888,274.703,458.72798,280.049Q460.06709,285.395,461.6669,290.669Q463.2667,295.943,465.1234,301.132Q466.98,306.321,469.089,311.412Q471.1981,316.504,473.5544,321.486Q475.9107,326.468,478.5087,331.329Q481.1066,336.189,483.9399,340.916Q486.7732,345.643,489.8351,350.225Q492.8969,354.808,496.1799,359.234Q499.4629,363.661,502.9591,367.921Q506.4554,372.181,510.1565,376.265Q513.8575,380.348,517.7545,384.245Q521.6514999999999,388.142,525.735,391.844Q529.8185,395.545,534.0787,399.041Q538.3389,402.537,542.7655,405.82Q547.1921,409.103,551.774,412.165Q556.357,415.227,561.0840000000001,418.06Q565.811,420.893,570.671,423.491Q575.532,426.089,580.514,428.446Q585.496,430.802,590.588,432.911Q595.679,435.02,600.8679999999999,436.877Q606.057,438.733,611.331,440.333Q616.605,441.933,621.951,443.272Q627.297,444.611,632.702,445.686Q638.107,446.761,643.559,447.57Q649.011,448.379,654.495,448.919Q659.98,449.459,665.484,449.73Q670.989,450,676.5,450Q682.011,450,687.516,449.73Q693.02,449.459,698.505,448.919Q703.989,448.379,709.441,447.57Q714.893,446.761,720.298,445.686Q725.703,444.611,731.049,443.272Q736.395,441.933,741.669,440.333Q746.943,438.733,752.1320000000001,436.877Q757.321,435.02,762.412,432.911Q767.504,430.802,772.486,428.446Q777.4680000000001,426.089,782.329,423.491Q787.1890000000001,420.893,791.9159999999999,418.06Q796.643,415.227,801.225,412.165Q805.808,409.103,810.2339999999999,405.82Q814.6610000000001,402.537,818.921,399.041Q823.181,395.545,827.265,391.844Q831.348,388.142,835.245,384.245Q839.142,380.348,842.844,376.265Q846.5450000000001,372.181,850.0409999999999,367.921Q853.537,363.661,856.8199999999999,359.234Q860.1030000000001,354.808,863.165,350.225Q866.227,345.643,869.06,340.916Q871.893,336.189,874.491,331.329Q877.0889999999999,326.468,879.446,321.486Q881.802,316.504,883.9110000000001,311.412Q886.02,306.321,887.877,301.132Q889.733,295.943,891.3330000000001,290.669Q892.933,285.395,894.2719999999999,280.049Q895.611,274.703,896.6859999999999,269.298Q897.761,263.893,898.5699999999999,258.441Q899.379,252.989,899.919,247.505Q900.4590000000001,242.02,900.73,236.516Q901,231.011,901,225.5Z" fill="url(#master_svg0_89_14875)" fill-opacity="1"/></g></svg>