<svg xmlns="http://www.w3.org/2000/svg" xmlns:xlink="http://www.w3.org/1999/xlink" fill="none" version="1.1" width="140" height="140" viewBox="0 0 140 140"><defs><clipPath id="master_svg0_756_54128"><rect x="0" y="0" width="140" height="140" rx="0"/></clipPath><linearGradient x1="0.5" y1="0" x2="0.5" y2="1" id="master_svg1_692_71122"><stop offset="0%" stop-color="#FFFFFF" stop-opacity="1"/><stop offset="100%" stop-color="#80FFF1" stop-opacity="1"/></linearGradient><linearGradient x1="0.5" y1="0" x2="0.5" y2="1" id="master_svg2_692_71122"><stop offset="0%" stop-color="#FFFFFF" stop-opacity="1"/><stop offset="100%" stop-color="#80FFF1" stop-opacity="1"/></linearGradient></defs><g clip-path="url(#master_svg0_756_54128)"><g><path d="M50.283733984375004,92.486328125Q69.263033984375,116.585728125,89.653333984375,92.486328125L113.181233984375,99.724218125Q117.718933984375,100.85624812500001,118.413433984375,108.508428125L120.833833984375,123.801728125Q120.541833984375,126.491028125,117.427733984375,126.491028125L21.658963984375,126.491028125Q18.824782984375,126.346128125,19.105056184375,123.522828125L22.644703984375,102.97542812500001Q24.627123984375,100.152148125,27.887863984375002,99.278518125L50.283733984375004,92.486328125Z" fill="url(#master_svg1_692_71122)" fill-opacity="1" style="mix-blend-mode:passthrough"/></g><g><path d="M43.05810125,63.300315625Q79.74933125,66.145515625,97.45163124999999,63.300315625Q98.16943125,72.229415625,91.78333125,76.049415625Q89.67783125,92.194515625,70.26103125,96.450515625Q55.79753125,95.890015625,48.29033125,76.765815625C48.30123125,76.767115625,42.497561250000004,71.668915625,43.05810125,63.300315625ZM102.41453125,49.139015625L100.43073125000001,45.172815625Q98.92963125,29.622415625,88.26413124999999,20.290005625C87.75963125,28.211515625,85.68703124999999,35.941515625,82.15833125,43.044115625L79.45813125000001,43.044115625Q82.23623125,30.362115625,82.78583125,16.548005625000002C78.88663125,14.598405625,74.60733125,13.545666625,70.24873124999999,13.433557525C65.89013125,13.332385625,65.01653125,12.885315625,58.76433125,16.032585625Q58.20383125,28.949815625,61.05033125,43.033215625L58.787631250000004,43.033215625C56.34443125,40.792315625,53.298331250000004,28.602515625000002,51.639931250000004,21.230625625000002C46.97920125,25.902315625,42.58779125,33.341215625000004,40.08857125,45.172815625L37.95986325,47.862115625Q36.82919925,54.942715625,37.95986325,57.498015625Q78.62963125,61.889415625,102.41453125,57.498015625C102.41453125,57.496615625,102.83973125,49.844515625,102.41453125,49.139015625Z" fill="url(#master_svg2_692_71122)" fill-opacity="1" style="mix-blend-mode:passthrough"/></g></g></svg>