<svg xmlns="http://www.w3.org/2000/svg" xmlns:xlink="http://www.w3.org/1999/xlink" fill="none" version="1.1" width="140" height="140" viewBox="0 0 140 140"><defs><clipPath id="master_svg0_756_54139"><rect x="0" y="0" width="140" height="140" rx="0"/></clipPath><linearGradient x1="0.5" y1="0" x2="0.5" y2="1" id="master_svg1_756_61257"><stop offset="0%" stop-color="#FFFFFF" stop-opacity="1"/><stop offset="100%" stop-color="#EAFF74" stop-opacity="1"/></linearGradient></defs><g clip-path="url(#master_svg0_756_54139)"><g><path d="M111.539310546875,108.03885C105.203810546875,103.76525,96.673010546875,99.77425,87.527110546875,96.78105C86.662410546875,96.44845,85.614710546875,94.76885,86.911910546875,90.47865C89.090210546875,87.71825,98.868110546875,74.53135,98.868110546875,59.98095L98.868110546875,56.77155L41.315110546875005,56.77155L41.315110546875005,59.98095C41.315110546875005,67.63034999999999,42.412510546875,73.61665,44.807210546875,78.83825C47.052110546875,83.74375,50.195010546875,87.40235,53.321210546875,90.59495C53.969810546875,92.54065,53.936410546875,94.13695,53.238010546875,95.30115C52.689410546875,96.19905,51.824610546875,96.69785,51.541910546875,96.81435C42.662010546874995,99.99045,34.430610546875,104.04795,28.311110546875,108.25505C20.096340546875,113.87525,15.955810546875,119.59625,15.955810546875,125.25025L15.955810546875,132.06825L124.044810546875,132.06825L124.044810546875,125.25025C124.044810546875,119.41325,119.837810546875,113.62625,111.539310546875,108.03885L111.539310546875,108.03885ZM109.094910546875,51.69975C109.094910546875,47.30965,108.280110546875,44.13345,106.600610546875,42.02155C105.220410546875,40.258849999999995,103.490910546875,39.56045,102.277010546875,39.19455C101.578710546875,27.63735,93.363910546875,17.643340000000002,81.374410546875,14.034790000000001C80.426510546875,13.752189999999999,79.412010546875,13.90176,78.547410546875,14.41733C78.447610546875,14.46723,78.38101054687499,14.51713,78.28141054687501,14.58357C78.28141054687501,11.10818,75.53741054687501,8.28125,72.145210546875,8.28125L67.755110546875,8.28125C64.362910546875,8.28125,61.619010546875,11.10818,61.619010546875,14.58357L61.619010546875,14.633479999999999C61.519210546875,14.55035,61.436110546875,14.50045,61.336310546875,14.433869999999999C60.488210546875,13.90176,59.440610546875,13.76873,58.509410546875,14.051459999999999C46.553110546875004,17.643340000000002,38.321810546875,27.65405,37.656510546875,39.21125C36.459210546875,39.57715,34.729910546875004,40.27545,33.316410546875005,42.07145C31.636810546874997,44.20005,30.822110546875003,47.34285,30.822110546875003,51.69975L30.822110546875003,54.90905L109.061710546875,54.90905L109.094910546875,51.69975Z" fill="url(#master_svg1_756_61257)" fill-opacity="1" style="mix-blend-mode:passthrough"/></g></g></svg>