<svg xmlns="http://www.w3.org/2000/svg" xmlns:xlink="http://www.w3.org/1999/xlink" fill="none" version="1.1" width="70" height="70" viewBox="0 0 70 70"><defs><clipPath id="master_svg0_756_54121"><rect x="0" y="0" width="70" height="70" rx="0"/></clipPath><linearGradient x1="0.5" y1="0" x2="0.5" y2="1" id="master_svg1_692_71122"><stop offset="0%" stop-color="#FFFFFF" stop-opacity="1"/><stop offset="100%" stop-color="#80FFF1" stop-opacity="1"/></linearGradient></defs><g clip-path="url(#master_svg0_756_54121)"><g><path d="M14.220866796875,45.26654375C15.297166796875,45.26654375,16.371266796875,45.46334375,17.349066796875,45.85494375C17.447466796875,45.75644375,17.447466796875,45.65804375,17.545866796875,45.65804375L37.194066796875,26.20464375C38.563366796875,24.83524375,40.420566796875,24.44364375,42.181566796875,24.93364375Q42.277766796875,24.93364375,42.378466796875,25.02994375C42.962466796875,25.22684375,43.647166796875,25.51994375,44.134966796875,26.00774375C56.159666796875,33.14554375,64.469966796875,50.64334375,64.469966796875,65.11154375C64.469966796875,67.16554375,64.763066796875,68.04494375,64.469966796875,70.00054375L26.637166796875,70.00054375L26.637166796875,50.93654375L24.777766796875,52.79584375C24.462666796875,53.10954375,24.101066796875,53.37294375,23.705866796875,53.57684375C23.509066796875,55.42274375,21.944166796875,56.81834375,20.087766796875,56.80334375C18.359266796874998,56.80704375,16.876066796875,55.57264375,16.565866796875,53.87214375L16.471866796875,53.87214375L16.471866796875,53.08894375C16.462366796875,51.90504375,15.505466796875,50.94714375,14.321566796875,50.93654375C13.137566796875,50.94714375,12.180726796875,51.90504375,12.171226796875,53.08894375L12.171226796875,69.80584375L6.400606796875,69.80584375L6.400606796875,53.28364375C6.292456796874999,48.88894375,9.824866796875,45.26764375,14.220866796875,45.26654375ZM3.467164796875,9.58399375C3.762476796875,8.41149375,7.378416796875,6.94586375,8.553106796875,7.24118375L9.237786796875,7.43805375L12.656856796875,3.52242375C13.048416796875,3.12867375,14.905566796875,1.27586375,16.274966796875,0.39430375C18.230566796875,-0.78038425,33.676566796875,2.54461375,35.629966796875,5.57430375C36.511566796875,6.94367375,36.804666796875,8.40930375,36.999366796875,9.19243375L38.171866796875,15.15554375L38.856566796875,15.35244375C40.031266796875,15.64334375,42.378466796875,18.77154375,42.083066796875,19.94614375C41.813566796875,21.12234375,40.583566796875,21.80504375,39.442766796875,21.41184375L34.849066796875,20.23934375C33.716766796875,26.25524375,28.458166796875,30.61024375,22.336566796875,30.60154375C15.297166796875,30.60154375,9.627166796874999,24.93154375,9.627166796874999,17.99054375C9.627166796874999,16.52494375,9.920296796875,15.05934375,10.408106796875,13.78614375L4.9349767968750005,12.32054375C3.858729796875,11.92904375,3.075604796875,10.75654375,3.469354796875,9.58180375L3.467164796875,9.58399375ZM13.048416796875,3.03461375L12.656856796875,3.52461375C12.560596796875,3.71930375,12.560596796875,3.62086375,13.048416796875,3.03461375Z" fill="url(#master_svg1_692_71122)" fill-opacity="1" style="mix-blend-mode:passthrough"/></g></g></svg>