<svg xmlns="http://www.w3.org/2000/svg" xmlns:xlink="http://www.w3.org/1999/xlink" fill="none" version="1.1" width="60" height="60" viewBox="0 0 60 60"><defs><clipPath id="master_svg0_728_52920"><rect x="16" y="16" width="28" height="28" rx="0"/></clipPath></defs><g><g><ellipse cx="30" cy="30" rx="30" ry="30" fill="#40E7D5" fill-opacity="0.20000000298023224"/></g><g clip-path="url(#master_svg0_728_52920)"><g><path d="M20.4965385546875,25.051629375C20.4965385546875,27.665809375000002,22.6589085546875,29.784909374999998,25.326538554687502,29.784909374999998C27.994168554687498,29.784909374999998,30.1577685546875,27.665809375000002,30.1577685546875,25.051629375C30.1577685546875,22.437449375,27.9954685546875,20.318359375,25.326538554687502,20.318359375C22.6589085546875,20.318359375,20.4965385546875,22.437449375,20.4965385546875,25.051629375ZM31.702868554687498,27.463449375C31.702868554687498,29.633449374999998,33.4987685546875,31.392359374999998,35.7119685546875,31.392359374999998C37.9265685546875,31.392359374999998,39.7210685546875,29.633449374999998,39.7210685546875,27.463449375C39.7210685546875,25.293449375,37.9277685546875,23.534539375,35.7119685546875,23.534539375C33.4987685546875,23.534539375,31.702868554687498,25.293449375,31.702868554687498,27.463449375ZM17.2752685546875,37.870559375C17.2752685546875,39.251459374999996,20.0689085546875,39.251459374999996,23.5154485546875,39.251459374999996L27.3654685546875,39.251459374999996C27.2087885546875,38.889759375,27.1306985546875,38.498859374999995,27.1363585546875,38.104759375L27.1363585546875,37.777659375C27.1363585546875,35.364559375,28.393768554687497,33.244159375,30.2901685546875,31.994359375000002C29.4334685546875,31.579559375000002,28.494168554687498,31.363759375,27.5423685546875,31.363059375L23.5154485546875,31.363059375C20.0689085546875,31.363059375,17.2752685546875,34.099459375,17.2752685546875,37.475959375L17.2752685546875,37.870559375ZM29.0301685546875,38.104759375C29.0301685546875,39.250159374999996,31.3490685546875,39.250159374999996,34.2101685546875,39.250159374999996L37.552368554687504,39.250159374999996C40.4121685546875,39.250159374999996,42.729768554687496,39.208159375,42.729768554687496,38.104759375L42.729768554687496,37.777659375C42.729768554687496,34.975059375,40.4121685546875,32.703259375,37.552368554687504,32.703259375L34.2101685546875,32.703259375C31.3490685546875,32.703259375,29.0301685546875,34.975059375,29.0301685546875,37.777659375L29.0301685546875,38.104759375Z" fill="#40E7D5" fill-opacity="1" style="mix-blend-mode:passthrough"/></g></g></g></svg>