<svg xmlns="http://www.w3.org/2000/svg" xmlns:xlink="http://www.w3.org/1999/xlink" fill="none" version="1.1" width="24" height="28" viewBox="0 0 24 28"><g transform="matrix(0,-1,1,0,-28,28)"><path d="M25.0745,44.4413Q25.0934,44.4694,25.1103,44.4987Q25.1273,44.5279,25.1422,44.5583Q25.1572,44.5886,25.17,44.6199Q25.1829,44.6512,25.1936,44.6832Q25.2043,44.7153,25.2128,44.748000000000005Q25.2213,44.7808,25.2276,44.814Q25.2339,44.8472,25.238,44.8808Q25.242,44.9144,25.2437,44.9481Q25.2455,44.981899999999996,25.245,45.015699999999995Q25.2444,45.049499999999995,25.2416,45.0833Q25.2388,45.117000000000004,25.2337,45.150400000000005Q25.2286,45.183800000000005,25.2213,45.2168Q25.214,45.2498,25.2044,45.2823Q25.1949,45.3147,25.1832,45.3465Q25.1714,45.3782,25.1576,45.409Q25.1438,45.4399,25.1279,45.4698Q25.112,45.4996,25.0941,45.5283Q25.0763,45.557,25.0565,45.5845Q25.0367,45.6119,25.0152,45.638000000000005Q24.9936,45.664,24.9703,45.688500000000005Q24.947,45.7131,24.9221,45.736000000000004Q24.8972,45.7588,24.8709,45.78Q24.8445,45.8012,24.8167,45.820499999999996Q24.789,45.8398,24.76,45.857299999999995Q24.731,45.874700000000004,24.7009,45.890100000000004Q24.6708,45.9055,24.6397,45.918800000000005Q24.6086,45.9322,24.5767,45.9434Q24.5448,45.9546,24.5122,45.9637Q24.4797,45.9727,24.4465,45.9795Q24.4134,45.9863,24.3799,45.990899999999996Q24.3464,45.995400000000004,24.3126,45.997699999999995Q24.2789,46,24.2451,46L3.75492,46Q3.7211,46,3.68736,45.997699999999995Q3.65361,45.995400000000004,3.6201,45.990899999999996Q3.5866,45.9863,3.55347,45.9795Q3.52034,45.9727,3.48776,45.9637Q3.45517,45.9546,3.42326,45.9434Q3.39136,45.9322,3.36028,45.918800000000005Q3.32921,45.9055,3.29911,45.890100000000004Q3.26901,45.874700000000004,3.24002,45.857299999999995Q3.21102,45.8398,3.18328,45.820499999999996Q3.15553,45.8012,3.12915,45.78Q3.10277,45.7588,3.07788,45.736000000000004Q3.05299,45.7131,3.02971,45.688500000000005Q3.00642,45.664,2.98485,45.638000000000005Q2.96327,45.6119,2.94351,45.5845Q2.92374,45.557,2.90587,45.5283Q2.88801,45.4996,2.87212,45.4698Q2.85623,45.4399,2.8424,45.409Q2.82857,45.3782,2.81685,45.3465Q2.80513,45.3147,2.79559,45.2823Q2.78604,45.2498,2.77871,45.2168Q2.77137,45.183800000000005,2.76629,45.150400000000005Q2.7612,45.1169,2.75839,45.083200000000005Q2.75557,45.049499999999995,2.75504,45.015699999999995Q2.75451,44.981899999999996,2.75626,44.9481Q2.75802,44.9144,2.76205,44.8808Q2.76608,44.8472,2.77237,44.814Q2.77866,44.7808,2.78718,44.748000000000005Q2.7957,44.7153,2.80641,44.6832Q2.81713,44.6512,2.82998,44.6199Q2.84284,44.5886,2.85778,44.5583Q2.87272,44.5279,2.88967,44.4987Q2.90663,44.4694,2.92552,44.4413L13.1706,29.23133Q13.2048,29.18057,13.2449,29.13436Q13.285,29.08815,13.3305,29.04717Q13.376,29.0062,13.4261,28.971073Q13.4762,28.935948,13.5302,28.907198Q13.5843,28.878448,13.6414,28.856501Q13.6985,28.834554,13.7579,28.819738Q13.8173,28.804922,13.8781,28.797459Q13.9388,28.789995,14,28.789995Q14.0612,28.789995,14.1219,28.797458Q14.1827,28.804922,14.2421,28.819738Q14.3015,28.834554,14.3586,28.856501Q14.4157,28.878448,14.4698,28.907198Q14.5238,28.935948,14.5739,28.971073Q14.624,29.0062,14.6695,29.04717Q14.715,29.08815,14.7551,29.13436Q14.7952,29.18057,14.8294,29.23133L25.0745,44.4413Z" fill="#40E7D5" fill-opacity="1"/></g></svg>