<svg xmlns="http://www.w3.org/2000/svg" xmlns:xlink="http://www.w3.org/1999/xlink" fill="none" version="1.1" width="18" height="28" viewBox="0 0 18 28"><g transform="matrix(0,-1,1,0,-28,28)"><path d="M24.6262,39.8318Q24.6502,39.858599999999996,24.6723,39.887Q24.6943,39.9155,24.7143,39.9454Q24.7343,39.9754,24.752,40.0067Q24.7698,40.038,24.7852,40.070499999999996Q24.8007,40.103,24.8138,40.1365Q24.8269,40.1701,24.8375,40.2044Q24.8481,40.2388,24.8563,40.2739Q24.8644,40.309,24.87,40.3445Q24.8756,40.3801,24.8786,40.4159Q24.8816,40.4518,24.8821,40.4878Q24.8825,40.5238,24.8804,40.5597Q24.8782,40.5956,24.8735,40.631299999999996Q24.8688,40.667,24.8615,40.7022Q24.8542,40.7375,24.8444,40.7721Q24.8346,40.8068,24.8224,40.8406Q24.8101,40.8744,24.7955,40.9073Q24.7808,40.940200000000004,24.7638,40.9719Q24.7468,41.0037,24.7276,41.0341Q24.7084,41.0645,24.687,41.0935Q24.6656,41.1225,24.6423,41.1498Q24.6189,41.1772,24.5936,41.202799999999996Q24.5683,41.2284,24.5412,41.2521Q24.5141,41.275800000000004,24.4854,41.2975Q24.4567,41.3193,24.4265,41.3388Q24.3963,41.3584,24.3648,41.3758Q24.3333,41.3932,24.3006,41.4082Q24.2679,41.4233,24.2342,41.436Q24.2005,41.4486,24.166,41.4589Q24.1315,41.4691,24.0964,41.4768Q24.0612,41.4845,24.0256,41.4897Q23.99,41.4948,23.9541,41.4974Q23.9182,41.5,23.8822,41.5L4.11784,41.5Q4.08184,41.5,4.04594,41.4974Q4.01004,41.4948,3.97442,41.4897Q3.9388,41.4845,3.90364,41.4768Q3.86849,41.4691,3.83397,41.4589Q3.79946,41.4486,3.76577,41.436Q3.73208,41.4233,3.69939,41.4082Q3.6667,41.3932,3.63518,41.3758Q3.60366,41.3584,3.57347,41.3388Q3.54327,41.3193,3.51457,41.2975Q3.48586,41.275800000000004,3.45879,41.2521Q3.43172,41.2284,3.40643,41.202799999999996Q3.38113,41.1772,3.35774,41.1498Q3.33435,41.1225,3.31299,41.0935Q3.29163,41.0645,3.27241,41.0341Q3.25318,41.0037,3.2362,40.9719Q3.21921,40.940200000000004,3.20455,40.9073Q3.18989,40.8744,3.17763,40.8406Q3.16537,40.8068,3.15558,40.7721Q3.14578,40.7375,3.1385,40.7022Q3.13122,40.667,3.1265,40.631299999999996Q3.12177,40.5956,3.11962,40.5597Q3.11747,40.5238,3.11791,40.4878Q3.11835,40.4518,3.12138,40.4159Q3.1244,40.3801,3.13,40.3445Q3.1356,40.309,3.14373,40.2739Q3.15187,40.2388,3.16251,40.2044Q3.17315,40.1701,3.18623,40.1365Q3.19931,40.103,3.21477,40.070499999999996Q3.23023,40.038,3.24799,40.0067Q3.26574,39.9754,3.2857,39.9454Q3.30567,39.9155,3.32773,39.887Q3.34979,39.858599999999996,3.37384,39.8318L13.256,28.828411Q13.2911,28.789361,13.33,28.754196Q13.369,28.719032,13.4114,28.68814Q13.4539,28.657248,13.4993,28.630968Q13.5447,28.604688,13.5927,28.583309Q13.6406,28.561929,13.6905,28.545686Q13.7404,28.529443,13.7918,28.518514Q13.8431,28.507584,13.8953,28.50209Q13.9475,28.496595,14,28.496595Q14.0525,28.496595,14.1047,28.50209Q14.1569,28.507584,14.2082,28.518514Q14.2596,28.529443,14.3095,28.545686Q14.3594,28.561929,14.4073,28.583309Q14.4553,28.604688,14.5007,28.630968Q14.5461,28.657248,14.5886,28.68814Q14.631,28.719032,14.67,28.754196Q14.7089,28.789361,14.744,28.828411L24.6262,39.8318Z" fill="#40E7D5" fill-opacity="0.20000000298023224"/></g></svg>