<svg xmlns="http://www.w3.org/2000/svg" xmlns:xlink="http://www.w3.org/1999/xlink" fill="none" version="1.1" width="60.5" height="66" viewBox="0 0 60.5 66"><defs><filter id="master_svg0_772_68466" filterUnits="objectBoundingBox" color-interpolation-filters="sRGB" x="-0.25" y="-0.15" width="1.5" height="1.3"><feFlood flood-opacity="0" result="BackgroundImageFix"/><feColorMatrix in="SourceAlpha" type="matrix" values="0 0 0 0 0 0 0 0 0 0 0 0 0 0 0 0 0 0 127 0"/><feOffset dy="0" dx="0"/><feGaussianBlur stdDeviation="1.5"/><feColorMatrix type="matrix" values="0 0 0 0 0 0 0 0 0 0.4000000059604645 0 0 0 0 0.9254902005195618 0 0 0 1 0"/><feBlend mode="normal" in2="BackgroundImageFix" result="effect1_dropShadow"/><feBlend mode="normal" in="SourceGraphic" in2="effect1_dropShadow" result="shape"/></filter><linearGradient x1="1" y1="0.5" x2="0" y2="0.5" id="master_svg1_558_56262"><stop offset="0%" stop-color="#0BFFFF" stop-opacity="1"/><stop offset="100%" stop-color="#A8F6FF" stop-opacity="1"/></linearGradient><filter id="master_svg2_772_68467" filterUnits="objectBoundingBox" color-interpolation-filters="sRGB" x="-0.5000000596046519" y="-0.8333333830038736" width="2.0000001192093038" height="2.666666766007747"><feFlood flood-opacity="0" result="BackgroundImageFix"/><feColorMatrix in="SourceAlpha" type="matrix" values="0 0 0 0 0 0 0 0 0 0 0 0 0 0 0 0 0 0 127 0"/><feOffset dy="0" dx="0"/><feGaussianBlur stdDeviation="1"/><feColorMatrix type="matrix" values="0 0 0 0 0 0 0 0 0 0.4000000059604645 0 0 0 0 0.9254902005195618 0 0 0 1 0"/><feBlend mode="normal" in2="BackgroundImageFix" result="effect1_dropShadow"/><feBlend mode="normal" in="SourceGraphic" in2="effect1_dropShadow" result="shape"/></filter><linearGradient x1="1" y1="0.5" x2="0" y2="0.5" id="master_svg3_558_56262"><stop offset="0%" stop-color="#0BFFFF" stop-opacity="1"/><stop offset="100%" stop-color="#A8F6FF" stop-opacity="1"/></linearGradient></defs><g><g><path d="M0,0L0,66L9.5145,60.2913C9.8157,60.1106,10,59.7851,10,59.4338L10,6.56619C10,6.21493,9.8157,5.88942,9.5145,5.7087L0,0Z" fill="#40E7D5" fill-opacity="1"/></g><g><g filter="url(#master_svg0_772_68466)"><path d="M32,42.6669L43.6,33.000299999999996L32,23.3336L32,13.000260989L56,33.000299999999996L32,53.0003L32,42.6669Z" fill-rule="evenodd" fill="url(#master_svg1_558_56262)" fill-opacity="1"/></g><g transform="matrix(0,1,-1,0,65.79999780654907,-7.800001621246338)" filter="url(#master_svg2_772_68467)"><path d="M40.799999713897705,28.999998092651367L44.799999713897705,33.799998092651364L36.799999713897705,33.799998092651364L40.799999713897705,28.999998092651367Z" fill="url(#master_svg3_558_56262)" fill-opacity="1"/></g></g></g></svg>