<svg xmlns="http://www.w3.org/2000/svg" xmlns:xlink="http://www.w3.org/1999/xlink" fill="none" version="1.1" width="86" height="86" viewBox="0 0 86 86"><defs><clipPath id="master_svg0_954_55818"><rect x="0" y="0" width="86" height="86" rx="0"/></clipPath><linearGradient x1="0.5" y1="0" x2="0.5" y2="1" id="master_svg1_692_71122"><stop offset="0%" stop-color="#FFFFFF" stop-opacity="1"/><stop offset="100%" stop-color="#80FFF1" stop-opacity="1"/></linearGradient></defs><g clip-path="url(#master_svg0_954_55818)"><g><path d="M60.7861921875,24.23268125L60.7862921875,24.23268125C60.9817921875,24.23268125,61.1771921875,24.23258125,61.5680921875,24.03718125C61.5680921875,24.03718125,68.6044921875,19.93268125,71.7316921875,18.17348125C72.1226921875,17.97818125,72.3180921875,17.58718125,72.3180921875,17.19628125C72.3180921875,16.80528125,72.1226921875,16.41448125,71.7316921875,16.21898125L71.5362921875,16.02358125C71.1453921875,15.63268125,70.7544921875,15.43718125,70.3635921875,15.24168125C67.6271921875,13.67808125,65.08629218749999,12.11448125,62.3498921875,10.55078125C56.4862921875,7.22806125,50.4271921875,3.70987125,44.5635921875,0.38720224999999997C43.3908921875,-0.39469275000000004,42.2179921875,-0.39469275000000004,40.8498921875,0.38720224999999997C34.0089921875,4.10082125,27.3635921875,8.00988125,20.7180921875,11.72348125C18.9589921875,12.89628125,17.0044921875,13.87348125,15.2453921875,14.85078125C14.8544921875,15.04628125,14.4635921875,15.43718125,14.0726821875,15.63258125C13.8771721875,15.82808125,13.6817421875,15.82808125,13.4863021875,16.02348125C13.0953621875,16.21898125,12.8999321875,16.80528125,12.8999321875,17.19628125C12.8999321875,17.58718125,13.0953621875,17.97808125,14.0726821875,17.97808125C15.4408921875,18.95528125,24.0408921875,23.84168125,24.0408921875,23.84168125C24.4316921875,24.03718125,25.0180921875,24.03718125,25.4089921875,23.84168125C25.7998921875,23.45078125,25.9953921875,23.05988125,25.9953921875,22.66888125C25.9953921875,21.30078125,26.1908921875,20.12808125,26.3862921875,19.15078125C26.7771921875,17.97808125,27.3635921875,17.58718125,28.3408921875,17.00078125C30.4908921875,15.82808125,32.8362921875,15.04628125,35.9635921875,14.65528125C37.3317921875,14.45988125,42.2179921875,14.26438125,42.9998921875,14.26438125C46.1272921875,14.26438125,49.0589921875,14.45988125,51.7953921875,15.04628125C53.5544921875,15.43718125,55.1180921875,16.02348125,56.6816921875,16.80528125C57.0726921875,17.00078125,57.8544921875,17.58718125,58.4408921875,17.97808125C59.0271921875,18.36898125,59.2226921875,18.75988125,59.4180921875,19.54168125C59.6135921875,20.51898125,59.6135921875,21.30078125,59.6135921875,22.08258125L59.6135921875,22.86448125C59.6135921875,23.45078125,59.8089921875,23.84168125,60.1998921875,24.03718125C60.3952921875,24.23258125,60.5907921875,24.23268125,60.7861921875,24.23268125ZM58.8295921875,19.73588125C59.0249921875,20.90858125,59.0249921875,20.32218125,59.0249921875,21.49498125C59.2204921875,22.66778125,59.2204921875,25.40398125,59.2204921875,26.77228125L56.4839921875,25.99038125C56.0931921875,25.79498125,55.5067921875,25.59958125,55.1158921875,25.59958125C53.1613921875,25.20858125,51.0113921875,25.01318125,49.0567921875,24.81778125C46.1249921875,24.62218125,43.3886921875,24.62218125,40.6522921875,24.62218125C37.7204921875,24.62218125,34.5932921875,24.81778125,33.811392187500005,25.01318125C32.6386921875,25.01318125,31.4658921875,25.20858125,30.4886921875,25.40398125C28.9250921875,25.59958125,27.3613921875,25.99038125,25.9931921875,26.57678125L25.9931921875,26.38138125C25.9931921875,24.03588125,25.9931921875,21.88588125,26.5794921875,19.54038125C26.7750921875,18.56318125,27.3613921875,18.17218125,28.1431921875,17.97678125C30.4885921875,16.60858125,33.0294921875,16.02218125,35.5704921875,15.63138125C37.1340921875,15.43588125,38.6976921875,15.24038125,40.2613921875,15.24038125C43.9749921875,15.04498125,47.6886921875,15.24038125,51.4022921875,16.02218125C53.1613921875,16.21778125,54.7249921875,16.80408125,56.2886921875,17.58588125C56.8749921875,17.78128125,57.4613921875,18.17218125,58.0476921875,18.56318125C58.6340921875,18.75858125,58.6340921875,19.14958125,58.8295921875,19.73588125ZM21.1089921875,40.65148125C21.1089921875,40.65148125,19.740892187500002,42.01958125,17.981692187500002,42.01958125C16.2225921875,42.01958125,14.8544921875,40.65148125,14.8544921875,40.65148125C14.8544921875,35.56958125,16.4180921875,29.31508125,17.0044921875,27.16508125C16.4180921875,26.77418125,16.2225921875,26.38318125,16.2225921875,25.60148125C16.2225921875,24.81978125,16.8089921875,24.03788125,17.5908921875,23.84228125L17.5908921875,20.32418125L18.5680921875,20.91048125L18.5680921875,23.84238125C19.3498921875,24.03788125,19.936192187499998,24.81968125,19.936192187499998,25.60148125C19.936192187499998,26.18788125,19.5453921875,26.77418125,19.1544921875,27.16508125C19.5453921875,28.53318125,20.3271921875,31.46508125,20.7180921875,34.98318125C20.9135921875,36.74228125,21.1089921875,38.69688125,21.1089921875,40.65148125ZM23.6498921875,39.47878125L23.6498921875,41.62878125C23.8453921875,43.58328125,24.4317921875,45.53788125,25.7998921875,47.29688125C26.5817921875,48.27418125,26.9726921875,48.27418125,28.1453921875,47.88328125C28.5362921875,47.88328125,29.1226921875,49.64228125,29.3180921875,50.03328125C30.6861921875,53.16048125,33.0316921875,56.87418125,37.3316921875,58.43788125C40.2635921875,59.61048125,43.5862921875,59.80598125,46.5180921875,59.02418125C49.6453921875,58.04688125,52.1861921875,55.89688125,54.1408921875,53.16048125C55.8998921875,50.81508125,56.4862921875,49.25148125,56.8771921875,48.66508125C57.0726921875,48.46968125,57.0726921875,48.07868125,57.2680921875,48.07868125C57.4635921875,48.07868125,57.8544921875,48.27418125,58.0498921875,48.27418125C58.6362921875,48.27418125,59.0271921875,47.88328125,59.4179921875,47.49228125C60.5908921875,45.92868125,61.3726921875,43.97418125,61.5679921875,41.82418125L61.5679921875,39.67418125C61.5679921875,38.50148125,60.7862921875,37.52418125,59.4179921875,37.52418125L59.2226921875,37.52418125L59.0271921875,37.13328125C59.0271921875,37.13328125,59.0271921875,36.15598125,59.2226921875,35.76508125C59.2226921875,34.20148125,59.4180921875,32.44228125,59.6134921875,30.87868125C59.6134921875,30.29228125,59.8089921875,29.51058125,59.8089921875,28.92418125L55.7044921875,27.75148125C55.5089921875,27.75148125,53.7498921875,27.36048125,53.7498921875,27.36048125C52.7726921875,27.16508125,47.1044921875,26.77418125,41.6317921875,26.57868125C37.3317921875,26.57868125,33.227192187499995,26.96968125,32.249892187499995,27.16508125C31.8589921875,27.16508125,31.2726921875,27.36048125,31.0771921875,27.36048125C31.0771921875,27.36048125,27.9498921875,27.94688125,26.7771921875,28.53328125L25.6044921875,28.92418125C25.6044921875,30.48788125,25.7998921875,32.05148125,25.7998921875,33.61508125C25.7998921875,34.78788125,25.9953921875,36.15598125,25.9953921875,37.32868125L25.7998921875,37.32868125C24.4317921875,37.32868125,23.8453921875,38.50148125,23.6498921875,39.47878125ZM30.0998921875,36.15598125C33.6179921875,36.15598125,36.7453921875,35.96048125,39.4817921875,35.37418125C40.4589921875,35.17868125,41.6317921875,34.98328125,42.8044921875,34.78788125C46.3225921875,34.00598125,49.0589921875,32.63788125,51.4044921875,30.87868125C52.5771921875,32.24688125,54.1408921875,33.41968125,56.4862921875,34.39688125L56.6816921875,34.39688125L56.6816921875,35.37418125C56.4862921875,38.50148125,56.0953921875,42.60608125,55.5089921875,44.75598125C54.9226921875,47.29688125,50.6226921875,57.46048125,42.2180921875,57.26508125C40.8498921875,57.26508125,39.4816921875,56.87418125,38.3089921875,56.48318125C34.0089921875,55.11508125,31.6635921875,51.01048125,29.9044921875,45.53788125C29.1225921875,43.19228125,28.7316921875,40.45598125,28.7316921875,37.32868125C28.7316921875,36.74228125,28.7316921875,35.96058125,28.5362921875,35.37418125C29.1226921875,36.15598125,29.7089921875,36.15598125,30.0998921875,36.15598125L30.0998921875,36.15598125ZM48.6680921875,40.84858125C48.0194921875,40.84858125,47.4940921875,40.32208125,47.4953921875,39.67348125C47.4940921875,39.02488125,48.0194921875,38.49848125,48.6680921875,38.49848125C49.3166921875,38.49848125,49.8420921875,39.02488125,49.8408921875,39.67348125C49.8420921875,40.32208125,49.3166921875,40.84858125,48.6680921875,40.84858125ZM36.5498921875,40.84628125C35.9021921875,40.84628125,35.3771921875,40.32118125,35.3771921875,39.67348125C35.3771921875,39.02578125,35.9021921875,38.50078125,36.5498921875,38.50078125C37.1975921875,38.50078125,37.7226921875,39.02578125,37.7226921875,39.67348125C37.7226921875,40.32118125,37.1975921875,40.84628125,36.5498921875,40.84628125ZM42.6089921875,52.37808125C44.5635921875,52.37808125,46.3226921875,51.20528125,46.3226921875,51.20528125C46.3226921875,51.20528125,44.5634921875,51.79168125,42.6089921875,51.79168125C40.6544921875,51.79168125,38.8953921875,51.20528125,38.8953921875,51.20528125C38.8953921875,51.20528125,40.6543921875,52.37808125,42.6089921875,52.37808125ZM5.4726821875,85.99628125L80.5271921875,85.99628125C80.9179921875,85.99628125,81.5044921875,85.60528125,81.6998921875,85.40988125C81.8537921875,84.94818125,81.7653921875,84.00188125,81.7207921875,83.52488125C81.7087921875,83.39608125,81.6998921875,83.30148125,81.6998921875,83.25988125C81.5044921875,81.89178125,81.3089921875,80.32808125,80.7226921875,78.95988125C79.9408921875,77.00528125,78.7679921875,75.05078125,77.3998921875,73.29168125C75.6408921875,71.14168125,73.2953921875,68.99168125,70.5589921875,67.23258125C66.2589921875,64.30078125,55.7044921875,60.58718125,55.3135921875,60.58718125C54.7272921875,60.39168125,54.1408921875,60.78258125,53.9453921875,61.17348125C53.7498921875,61.17348125,50.6226921875,67.81888125,50.2316921875,68.60078125C50.2316921875,68.79628125,50.0362921875,68.99168125,50.0362921875,68.99168125L49.6453921875,68.60078125C49.2544921875,68.01448125,48.6680921875,67.03718125,48.0816921875,66.25528125C47.4953921875,65.27808125,46.9089921875,64.49628125,46.7135921875,64.30078125C46.1271921875,63.51898125,45.5408921875,63.12808125,44.7589921875,63.12808125C44.1725921875,63.12808125,43.3908921875,63.51898125,42.8044921875,64.10528125C42.8044921875,64.30078125,42.6089921875,64.30078125,42.4134921875,64.49628125L42.0226921875,64.10528125C41.6316921875,63.71448125,41.0453921875,63.12808125,40.0680921875,63.12808125C39.0908921875,63.12808125,38.5044921875,63.71448125,38.1135921875,64.30078125C37.9180921875,64.69168125,37.7226921875,65.08268125,37.3316921875,65.47348125C36.5498921875,66.25528125,35.7680921875,67.42818125,35.3771921875,68.01438125C34.7908921875,68.60078125,34.3998921875,68.79628125,34.3998921875,68.79628125C34.3998921875,68.79628125,34.2044921875,68.60078125,34.0089921875,68.20988125C33.227192187499995,66.45078125,32.0544921875,63.71448125,31.4680921875,62.15078125C30.8816921875,61.17348125,30.8816921875,61.17348125,30.8816921875,60.97808125C30.6862921875,60.58718125,30.0998921875,60.19628125,29.5135921875,60.39168125C29.3180921875,60.39168125,18.5680921875,64.10528125,14.2680921875,67.03718125C8.7953521875,70.55538125,6.4499221875,75.05078125,5.2771621875,78.37348125C4.1044921875,81.89168125,4.1044921875,84.62808125,4.1044921875,84.82348125C4.1044921875,85.40988125,4.6907871875,85.99628125,5.4726821875,85.99628125Z" fill-rule="evenodd" fill="url(#master_svg1_692_71122)" fill-opacity="1" style="mix-blend-mode:passthrough"/></g></g></svg>