<svg xmlns="http://www.w3.org/2000/svg" xmlns:xlink="http://www.w3.org/1999/xlink" fill="none" version="1.1" width="26.72916603088379" height="26.716140747070312" viewBox="0 0 26.72916603088379 26.716140747070312"><defs><clipPath id="master_svg0_195_41158"><rect x="0" y="0" width="26.72916603088379" height="26.716140747070312" rx="0"/></clipPath></defs><g clip-path="url(#master_svg0_195_41158)"><g><path d="M22.484536249999998,6.440781C23.60921625,5.992211,24.84437625,6.771419,24.92312625,7.9791799999999995L24.92669625,8.09139L24.93916625,14.158629999999999C24.94181625,15.37026,23.759496249999998,16.23084,22.60659625,15.85644L22.50057625,15.81815L18.38071825,14.18534C17.93657625,14.008600000000001,17.71114525,13.513010000000001,17.86986785,13.06229C18.02859025,12.61158,18.51489625,12.366399999999999,18.97187625,12.50668L19.03736625,12.52983L23.15722625,14.162189999999999L23.14474625,8.0954L19.03914625,9.73221C18.59443025,9.91043,18.08832525,9.705210000000001,17.89354175,9.267669999999999C17.69875825,8.83013,17.88505225,8.31697,18.31523125,8.10609L18.37893625,8.07759L22.484536249999998,6.440781Z" fill="#FFFFFF" fill-opacity="1" style="mix-blend-mode:passthrough"/></g><g><path d="M17.816796875,3.1171875L3.561236875,3.1171875C2.577100875,3.1171875,1.779297257364,3.9146025,1.779297257364,4.8982675L1.779297257364,17.3657875C1.779297257364,18.349487500000002,2.577100875,19.1468875,3.561236875,19.1468875L17.816796875,19.1468875C18.800896875,19.1468875,19.598696875,18.349487500000002,19.598696875,17.3657875L19.598696875,4.8982675C19.598696875,3.9146025,18.800896875,3.117187754785,17.816796875,3.1171875ZM3.561236875,4.8982675L17.816796875,4.8982675L17.816796875,17.3657875L3.561236875,17.3657875L3.561236875,4.8982675Z" fill="#FFFFFF" fill-opacity="1" style="mix-blend-mode:passthrough"/></g><g><path d="M6.33265875,18.303263875C6.54707875,17.876303775,7.06034875,17.694503875,7.49589875,17.891250475C7.93143875,18.087997875,8.13406875,18.593197875,7.9551187500000005,19.036176875L7.92660875,19.099406875L5.69917875,23.552096875C5.48476875,23.979056875,4.9714937500000005,24.160856875,4.53594975,23.964106875C4.10040625,23.767356875,3.89777175,23.262166875,4.07672035,22.819176875L4.10523145,22.755956875L6.33265875,18.303263875ZM13.85914875,17.904747975C14.27511875,17.696810875,14.78111875,17.843605775,15.02101875,18.241815875L15.05441875,18.303263875L17.28181875,22.755956875C17.49821875,23.184146875,17.33641875,23.706736875,16.91581875,23.937866875C16.49521875,24.168996875,15.96711875,24.025596874999998,15.72131875,23.613536875L15.68791875,23.552096875L13.46043875,19.099406875C13.24050875,18.659461875,13.41900875,18.124606875,13.85914875,17.904747975Z" fill="#FFFFFF" fill-opacity="1" style="mix-blend-mode:passthrough"/></g><g><path d="M13.364453125,13.8046875L13.364453125,14.6952255C13.364453125,15.1870575,12.965553125,15.5857675,12.473483125,15.5857675L6.236676125,15.5857675C5.744605125,15.5857675,5.345703125,15.1870575,5.345703125,14.6952255L5.345703125,13.8046875L13.364453125,13.8046875Z" fill="#FFFFFF" fill-opacity="1" style="mix-blend-mode:passthrough"/></g></g></svg>