<svg xmlns="http://www.w3.org/2000/svg" xmlns:xlink="http://www.w3.org/1999/xlink" fill="none" version="1.1" width="720" height="180" viewBox="0 0 720 180"><defs><linearGradient x1="0.5" y1="0" x2="0.5" y2="1" id="master_svg0_11_3676"><stop offset="0%" stop-color="#0657F1" stop-opacity="1"/><stop offset="100%" stop-color="#0284FE" stop-opacity="1"/></linearGradient><mask id="master_svg1_392_01283" style="mask-type:alpha" maskUnits="userSpaceOnUse"><g><path d="M0 64C0 64 0 64 0 64L720 64C720 64 720 64 720 64L720 112C720 120.83655599729269 712.8365559972927 128 704 128L16 128C7.1634440027073065 128 0 120.83655599729269 0 112Z" fill="#FFFFFF" fill-opacity="1"/></g></mask><linearGradient x1="0.5" y1="0" x2="0.5" y2="1" id="master_svg2_20_1859"><stop offset="0%" stop-color="#FFFFFF" stop-opacity="0.20999999344348907"/><stop offset="100%" stop-color="#FFFFFF" stop-opacity="0"/></linearGradient><mask id="master_svg3_392_01270" style="mask-type:alpha" maskUnits="userSpaceOnUse"><g><path d="M720 116C720 116 720 116 720 116L1440 116C1440 116 1440 116 1440 116L1440 164C1440 172.8365559972927 1432.8365559972926 180 1424 180L736 180C727.1634440027073 180 720 172.8365559972927 720 164Z" fill="#FFFFFF" fill-opacity="1"/></g></mask><linearGradient x1="0.5" y1="0" x2="0.5" y2="1" id="master_svg4_20_1859"><stop offset="0%" stop-color="#FFFFFF" stop-opacity="0.20999999344348907"/><stop offset="100%" stop-color="#FFFFFF" stop-opacity="0"/></linearGradient><linearGradient x1="0.5" y1="0.29215213656425476" x2="0.5" y2="0.7896021008491516" id="master_svg5_20_2131"><stop offset="0%" stop-color="#FFFFFF" stop-opacity="0.20000000298023224"/><stop offset="100%" stop-color="#FFFFFF" stop-opacity="0"/></linearGradient><clipPath id="master_svg6_392_01567"><rect x="322" y="123" width="230" height="22" rx="0"/></clipPath><mask id="master_svg7_392_01366" style="mask-type:alpha" maskUnits="userSpaceOnUse"><g><path d="M639 0C639 0 639 0 639 0L704 0C712.8365559972927 0 720 7.1634440027073065 720 16L720 73C720 73 720 73 720 73L639 73C639 73 639 73 639 73Z" fill="#FFFFFF" fill-opacity="1"/></g></mask><radialGradient cx="0" cy="0" r="1" gradientUnits="userSpaceOnUse" id="master_svg8_11_3791" gradientTransform="translate(687 25) rotate(90) scale(46 46)"><stop offset="0%" stop-color="#D8D8D8" stop-opacity="0"/><stop offset="100%" stop-color="#FFFFFF" stop-opacity="0.1599999964237213"/></radialGradient><mask id="master_svg9_392_01360" style="mask-type:alpha" maskUnits="userSpaceOnUse"><g><path d="M94 180C94 180 94 180 94 180L172 180C180.8365559972927 180 188 187.1634440027073 188 196L188 272C188 272 188 272 188 272L94 272C94 272 94 272 94 272Z" fill="#FFFFFF" fill-opacity="1"/></g></mask><radialGradient cx="0" cy="0" r="1" gradientUnits="userSpaceOnUse" id="master_svga_11_3791" gradientTransform="translate(168 195) rotate(90) scale(46 46)"><stop offset="0%" stop-color="#D8D8D8" stop-opacity="0"/><stop offset="100%" stop-color="#FFFFFF" stop-opacity="0.1599999964237213"/></radialGradient><linearGradient x1="0.5" y1="0" x2="0.5" y2="1" id="master_svgb_343_9050"><stop offset="0%" stop-color="#151863" stop-opacity="1"/><stop offset="100%" stop-color="#004F8E" stop-opacity="1"/></linearGradient><linearGradient x1="0.5" y1="0" x2="0.5" y2="0.9937711358070374" id="master_svgc_343_9091"><stop offset="0%" stop-color="#FCFFFE" stop-opacity="1"/><stop offset="100%" stop-color="#DBE5FF" stop-opacity="1"/></linearGradient><linearGradient x1="0.45262041687965393" y1="0.45145100355148315" x2="0.5543133020401001" y2="0.5519443154335022" id="master_svgd_343_02793"><stop offset="0%" stop-color="#A6CDFF" stop-opacity="1"/><stop offset="53.75368595123291%" stop-color="#EDF5FF" stop-opacity="1"/><stop offset="58.687812089920044%" stop-color="#F1F7FF" stop-opacity="1"/><stop offset="100%" stop-color="#F1F7FF" stop-opacity="1"/></linearGradient><mask id="master_svge_392_01380" style="mask-type:alpha" maskUnits="userSpaceOnUse"><g><path d="M58.324691801719666,143.29388601665497L112.71091180171967,88.88128601665497C114.47831180171966,87.11296201665496,117.34491180171966,87.11296201665496,119.11241180171967,88.88128601665497C120.87861180171967,90.64840601665497,120.87861180171967,93.51255601665497,119.11241180171967,95.27966601665497L64.72617180171966,149.69228601665498C62.95870180171966,151.460586016655,60.09216180171967,151.460586016655,58.324691801719666,149.69228601665498C56.55843580171967,147.92518601665498,56.55843580171967,145.06098601665497,58.324691801719666,143.29388601665497" fill="#FFFFFF" fill-opacity="1"/></g></mask><mask id="master_svgf_392_01384" style="mask-type:alpha" maskUnits="userSpaceOnUse"><g><path d="M113.52956771850586,88.04023689174652L124.48266771850587,83.11998689174652L119.92723771850586,94.44238689174652L113.52956771850586,88.04023689174652Z" fill-rule="evenodd" fill="#FFFFFF" fill-opacity="1"/></g></mask></defs><g><g><rect x="0" y="0" width="720" height="180" rx="16" fill="url(#master_svg0_11_3676)" fill-opacity="1"/></g><g transform="matrix(1,0,0,-1,0,128)" mask="url(#master_svg1_392_01283)"><g><path d="M-0.98724365234375,138.99998447265625L733.9997563476562,144.00008447265625L733.9997563476562,87.50006447265625C680.9177563476562,66.80758447265625,608.2447563476562,85.06341447265625,544.6647563476563,101.03538447265625C519.1377563476562,107.44778447265625,495.07675634765627,113.49208447265624,474.33775634765624,116.49998447265625C472.80175634765624,116.72268447265625,471.29675634765624,116.94158447265625,469.81875634765623,117.15628447265625C401.61575634765626,127.06958447265626,393.00375634765624,128.32138447265623,280.11375634765625,96.99998447265625Q164.77775634765624,64.99998447265625,-0.98724365234375,138.99998447265625Z" fill="url(#master_svg2_20_1859)" fill-opacity="1"/></g></g><g><ellipse cx="42.5" cy="38.5" rx="4.5" ry="4.5" fill="#FFFFFF" fill-opacity="0.30000001192092896"/></g><g><ellipse cx="587.5" cy="20.5" rx="2.5" ry="2.5" fill="#FFFFFF" fill-opacity="0.30000001192092896"/></g><g><ellipse cx="182.5" cy="25.5" rx="2.5" ry="2.5" fill="#82ABF7" fill-opacity="1"/></g><g><ellipse cx="197" cy="125" rx="2" ry="2" fill="#82ABF7" fill-opacity="1"/></g><g><ellipse cx="64.5" cy="98.5" rx="1.5" ry="1.5" fill="#FFFFFF" fill-opacity="0.20000000298023224"/></g><g><ellipse cx="613" cy="81" rx="2" ry="2" fill="#FFFFFF" fill-opacity="0.30000001192092896"/></g><g><ellipse cx="213" cy="63" rx="2" ry="2" fill="#FFFFFF" fill-opacity="0.30000001192092896"/></g><g><ellipse cx="245" cy="131" rx="2" ry="2" fill="#FFFFFF" fill-opacity="0.30000001192092896"/></g><g><ellipse cx="692" cy="69" rx="1" ry="1" fill="#FFFFFF" fill-opacity="0.30000001192092896"/></g><g><ellipse cx="258" cy="93" rx="1" ry="1" fill="#FFFFFF" fill-opacity="0.30000001192092896"/></g><g transform="matrix(-1,0,0,1,1440,0)" mask="url(#master_svg3_392_01270)"><g><path d="M719.0127563476562,190.99998447265625L1453.9997563476563,196.00008447265625L1453.9997563476563,139.50006447265625C1400.9177563476562,118.80758447265625,1328.2447563476562,137.06341447265626,1264.6647563476563,153.03538447265626C1239.1377563476562,159.44778447265625,1215.0767563476563,165.49208447265624,1194.3377563476563,168.49998447265625C1192.8017563476562,168.72268447265625,1191.2967563476564,168.94158447265625,1189.8187563476563,169.15628447265624C1121.6157563476563,179.06958447265626,1113.0037563476562,180.32138447265623,1000.1137563476562,148.99998447265625Q884.7777563476562,116.99998447265625,719.0127563476562,190.99998447265625Z" fill="url(#master_svg4_20_1859)" fill-opacity="1"/></g><g><path d="M706.5,185.5L1450.973,198.5L1450.973,157.5Q1373.0839999999998,178,1232.284,148C1135.498,127.37815,1038.4769999999999,139.59588,961.816,149.2497C926.953,153.64,896.3,157.5,871.796,157.5Q793.4071,157.5,706.5,130L706.5,185.5Z" fill="url(#master_svg5_20_2131)" fill-opacity="1"/></g></g><g><path d="M140.818,60L148.612,60L148.612,58.578L142.474,58.578L142.474,53.772L147.478,53.772L147.478,52.35L142.474,52.35L142.474,48.21L148.414,48.21L148.414,46.806L140.818,46.806L140.818,60ZM151.42,60L158.85399999999998,60L158.85399999999998,58.578L153.076,58.578L153.076,46.806L151.42,46.806L151.42,60ZM161.194,60L162.76,60L162.76,53.07C162.76,51.684,162.63400000000001,50.28,162.562,48.948L162.63400000000001,48.948L164.056,51.666L168.862,60L170.572,60L170.572,46.806L168.988,46.806L168.988,53.664C168.988,55.032,169.114,56.525999999999996,169.222,57.84L169.132,57.84L167.71,55.122L162.886,46.806L161.194,46.806L161.194,60Z" fill="#3D3D3D" fill-opacity="1"/></g><g><g><g><g><rect x="102.28539657592773" y="18" width="100" height="134" rx="8" fill="#F8F8F9" fill-opacity="0.5"/></g><g><g><rect x="105" y="21" width="94" height="128" rx="6" fill="#F8F8F9" fill-opacity="1"/></g><g><ellipse cx="139.63158226013184" cy="29.452829360961914" rx="2.473684310913086" ry="2.4150938987731934" fill="#ADC3FF" fill-opacity="1"/></g><g><rect x="144.57894897460938" y="27.03773546218872" width="21.026317596435547" height="4.830187797546387" rx="2.4150938987731934" fill="#ADC3FF" fill-opacity="1"/></g></g><g><rect x="156.427001953125" y="52" width="36.2328987121582" height="12.05142879486084" rx="0" fill="#E1E9FF" fill-opacity="1"/></g><g><rect x="156.427001953125" y="68.8719482421875" width="36.2328987121582" height="12.05142879486084" rx="0" fill="#E1E9FF" fill-opacity="1"/></g><g><rect x="114" y="88" width="63" height="12" rx="0" fill="#E1E9FF" fill-opacity="1"/></g><g><rect x="114" y="109" width="32" height="12" rx="0" fill="#E1E9FF" fill-opacity="1"/></g><g><rect x="114" y="128.87313842773438" width="45.89500427246094" height="12.05142879486084" rx="0" fill="#E1E9FF" fill-opacity="1"/></g><g><rect x="90" y="52" width="60.38816833496094" height="28.923429489135742" rx="4" fill="#FFA900" fill-opacity="1"/></g><g><rect x="167" y="105" width="60.38816833496094" height="21.69257164001465" rx="4" fill="#6DE3D9" fill-opacity="1"/></g><g><rect x="97.24658203125" y="55.6153564453125" width="9.66210651397705" height="9.641141891479492" rx="2" fill="#FFFFFF" fill-opacity="1"/></g><g><rect x="97.24658203125" y="67.6668701171875" width="9.66210651397705" height="9.641141891479492" rx="2" fill="#FFFFFF" fill-opacity="1"/></g><g><rect x="109.32421875" y="55.6153564453125" width="33.81737518310547" height="3.6154286861419678" rx="1.8077143430709839" fill="#FFFFFF" fill-opacity="1"/></g><g><rect x="109.32421875" y="67.6668701171875" width="18.1164493560791" height="3.6154286861419678" rx="1.8077143430709839" fill="#FFFFFF" fill-opacity="1"/></g><g><rect x="109.32421875" y="61.64111328125" width="27.7785587310791" height="3.6154286861419678" rx="1.8077143430709839" fill="#FFFFFF" fill-opacity="1"/></g><g><ellipse cx="215.31054592132568" cy="115.84627103805542" rx="6.038817405700684" ry="6.02571439743042" fill="#FFFFFF" fill-opacity="1"/></g><g><rect x="173.038818359375" y="111.0257568359375" width="31.401845932006836" height="3.6154286861419678" rx="1.8077143430709839" fill="#FFFFFF" fill-opacity="1"/></g><g><rect x="173.038818359375" y="117.0513916015625" width="21.739742279052734" height="3.6154286861419678" rx="1.8077143430709839" fill="#FFFFFF" fill-opacity="1"/></g></g></g></g><g><path d="M143.91,46L148.56,46L148.56,44.76L145.39,44.76L145.39,42.78L147.98,42.78L147.98,41.54L145.39,41.54L145.39,39.83L148.45,39.83L148.45,38.59L143.91,38.59L143.91,46ZM150.06,46L154.55,46L154.55,44.76L151.54,44.76L151.54,38.59L150.06,38.59L150.06,46ZM155.84,46L157.25,46L157.25,43.03C157.25,42.18,157.12,41.25,157.06,40.45L157.11,40.45L157.86,42.04L159.99,46L161.5,46L161.5,38.59L160.1,38.59L160.1,41.55C160.1,42.39,160.22,43.37,160.3,44.14L160.25,44.14L159.5,42.54L157.35,38.59L155.84,38.59L155.84,46Z" fill="#ADC3FF" fill-opacity="1"/></g><g><rect x="577" y="147" width="62" height="4" rx="2" fill="#FFFFFF" fill-opacity="0.800000011920929"/></g><g transform="matrix(-1,0,0,1,644,0)"><rect x="322" y="20" width="62" height="4" rx="2" fill="#FFFFFF" fill-opacity="0.800000011920929"/></g><g><rect x="615" y="158" width="72" height="4" rx="2" fill="#FFFFFF" fill-opacity="0.800000011920929"/></g><g transform="matrix(-1,0,0,1,582,0)"><rect x="291" y="31" width="72" height="4" rx="2" fill="#FFFFFF" fill-opacity="0.800000011920929"/></g><g><g><path d="M308.312,51.891999999999996C310.436,53.007999999999996,313.208,54.772,314.576,55.96L317.096,52.684C315.656,51.5303,312.776,49.9401,310.688,48.9648L308.312,51.891999999999996ZM306.26,62.152C308.276,63.232,310.94,64.924,312.128,66.148L314.612,62.872C313.316,61.72,310.652,60.172,308.6,59.236000000000004L306.26,62.152ZM307.232,79.2953L310.976,81.64150000000001C312.56,78.10390000000001,314.216,73.888,315.548,70.036L312.236,67.696C310.724,71.908,308.672,76.47999999999999,307.232,79.2953ZM325.34,62.763999999999996C326.24,63.519999999999996,327.248,64.52799999999999,328.004,65.392L323.072,65.392L323.504,61.972L326.564,61.972L325.34,62.763999999999996ZM320.48,48.3865C319.256,52.396,317.096,56.536,314.72,59.128C315.728,59.668,317.564,60.82,318.428,61.504000000000005C318.86,60.964,319.292,60.352000000000004,319.724,59.704C319.58,61.504000000000005,319.364,63.448,319.112,65.392L315.368,65.392L315.368,69.28L318.572,69.28C318.176,72.088,317.744,74.71600000000001,317.312,76.804L332.324,76.804C332.18,77.344,332,77.70400000000001,331.82,77.92C331.424,78.388,331.1,78.49600000000001,330.488,78.49600000000001C329.76800000000003,78.49600000000001,328.364,78.49600000000001,326.78,78.352C327.392,79.324,327.788,80.872,327.86,81.88C329.588,81.9897,331.316,81.9897,332.396,81.80799999999999C333.62,81.628,334.52,81.304,335.348,80.152C335.78,79.576,336.176,78.532,336.464,76.804L339.128,76.804L339.128,73.132L336.932,73.132L337.22,69.28L340.028,69.28L340.028,65.392L337.436,65.392L337.688,60.1C337.724,59.56,337.76,58.263999999999996,337.76,58.263999999999996L320.66,58.263999999999996C321.092,57.507999999999996,321.524,56.751999999999995,321.956,55.924L339.056,55.924L339.056,52.036L323.72,52.036C324.044,51.169200000000004,324.368,50.3018,324.656,49.4344L320.48,48.3865ZM324.368,70.18C325.412,71.00800000000001,326.6,72.16,327.464,73.132L322.064,73.132L322.568,69.28L325.772,69.28L324.368,70.18ZM328.328,61.972L333.656,61.972L333.512,65.392L330.02,65.392L331.028,64.708C330.416,63.952,329.336,62.872,328.328,61.972ZM327.464,69.28L333.296,69.28C333.188,70.792,333.08,72.05199999999999,332.936,73.132L329.516,73.132L330.668,72.34C329.948,71.476,328.652,70.25200000000001,327.464,69.28ZM362.81600000000003,71.76400000000001C364.328,73.49199999999999,366.092,75.904,366.812,77.452L370.08799999999997,75.22C369.296,73.672,367.46,71.44,365.948,69.82L373.256,69.82L373.256,77.344C373.256,77.812,373.076,77.92,372.5,77.956C371.96,77.956,370.016,77.956,368.288,77.884C368.864,79.072,369.404,80.944,369.548,82.168C372.176,82.168,374.192,82.096,375.56,81.44800000000001C376.964,80.76400000000001,377.36,79.576,377.36,77.416L377.36,69.82L380.88800000000003,69.82L380.88800000000003,65.86L377.36,65.86L377.36,62.584L381.248,62.584L381.248,58.588L373.256,58.588L373.256,55.528L379.7,55.528L379.7,51.604L373.256,51.604L373.256,48.387100000000004L369.152,48.387100000000004L369.152,51.604L362.888,51.604L362.888,55.528L369.152,55.528L369.152,58.588L360.836,58.588L360.836,62.584L373.256,62.584L373.256,65.86L361.52,65.86L361.52,69.82L365.84000000000003,69.82L362.81600000000003,71.76400000000001ZM349.1,51.2429C348.848,55.635999999999996,348.236,60.352000000000004,347.264,63.232C348.128,63.592,349.712,64.348,350.432,64.852C350.864,63.412,351.26,61.576,351.584,59.56L353.564,59.56L353.564,67.22800000000001C351.368,67.804,349.388,68.30799999999999,347.804,68.668L348.704,73.06L353.564,71.584L353.564,82.2411L357.668,82.2411L357.668,70.324L360.8,69.352L360.476,65.356L357.668,66.112L357.668,59.56L360.44,59.56L360.44,55.42L357.668,55.42L357.668,48.4208L353.564,48.4208L353.564,55.42L352.15999999999997,55.42L352.484,51.8847L349.1,51.2429ZM403.244,65.28399999999999L403.244,68.632L396.26,68.632L396.26,65.28399999999999L403.244,65.28399999999999ZM407.88800000000003,65.28399999999999L414.944,65.28399999999999L414.944,68.632L407.88800000000003,68.632L407.88800000000003,65.28399999999999ZM403.244,61.324L396.26,61.324L396.26,57.832L403.244,57.832L403.244,61.324ZM407.88800000000003,61.324L407.88800000000003,57.832L414.944,57.832L414.944,61.324L407.88800000000003,61.324ZM391.796,53.620000000000005L391.796,74.968L396.26,74.968L396.26,72.88L403.244,72.88L403.244,74.788C403.244,80.332,404.648,81.80799999999999,409.616,81.80799999999999C410.73199999999997,81.80799999999999,415.34000000000003,81.80799999999999,416.528,81.80799999999999C420.92,81.80799999999999,422.252,79.72,422.86400000000003,74.032C421.82,73.816,420.416,73.24000000000001,419.336,72.664L419.336,53.620000000000005L407.88800000000003,53.620000000000005L407.88800000000003,48.6019L403.244,48.6019L403.244,53.620000000000005L391.796,53.620000000000005ZM418.544,72.88C418.256,76.51599999999999,417.824,77.452,416.06,77.452C415.124,77.452,411.092,77.452,410.12,77.452C408.14,77.452,407.88800000000003,77.128,407.88800000000003,74.824L407.88800000000003,72.88L418.544,72.88ZM445.148,59.019999999999996L445.148,64.024L430.82,64.024L430.82,68.38L445.148,68.38L445.148,76.98400000000001C445.148,77.596,444.89599999999996,77.77600000000001,444.10400000000004,77.812C443.312,77.848,440.504,77.848,437.98400000000004,77.70400000000001C438.704,78.928,439.568,80.908,439.82,82.168C443.132,82.2046,445.616,82.096,447.38,81.412C449.108,80.72800000000001,449.648,79.50399999999999,449.648,77.092L449.648,68.38L463.688,68.38L463.688,64.024L449.648,64.024L449.648,61.288C453.788,59.019999999999996,458.144,55.78,461.24,52.792L457.928,50.234899999999996L456.956,50.488L434.41999999999996,50.488L434.41999999999996,54.736000000000004L452.168,54.736000000000004C450.044,56.32,447.452,57.94,445.148,59.019999999999996ZM474.272,51.64C476.324,53.476,479.024,56.14,480.212,57.832L483.308,54.772C481.94,53.152,479.168,50.668,477.152,48.967L474.272,51.64ZM471.96799999999996,59.452L471.96799999999996,63.592L477.224,63.592L477.224,74.68C477.224,76.624,476.18,78.02799999999999,475.38800000000003,78.676C476.072,79.324,477.224,80.908,477.62,81.81020000000001C478.26800000000003,81.01599999999999,479.41999999999996,80.044,485.61199999999997,75.544C485.18,74.71600000000001,484.568,72.916,484.31600000000003,71.76400000000001L481.50800000000004,73.708L481.50800000000004,59.452L471.96799999999996,59.452ZM485.46799999999996,50.74L485.46799999999996,55.024L499.076,55.024L499.076,62.367999999999995L486.224,62.367999999999995L486.224,75.72399999999999C486.224,80.368,487.736,81.628,492.56,81.628C493.568,81.628,498.248,81.628,499.328,81.628C503.79200000000003,81.628,505.052,79.864,505.592,73.636C504.368,73.312,502.496,72.592,501.488,71.836C501.236,76.66,500.948,77.488,499.004,77.488C497.88800000000003,77.488,493.964,77.488,493.028,77.488C491.012,77.488,490.688,77.23599999999999,490.688,75.688L490.688,66.436L499.076,66.436L499.076,68.2L503.432,68.2L503.432,50.74L485.46799999999996,50.74ZM516.1759999999999,68.38C518.444,69.676,521.36,71.656,522.692,73.024L525.752,70.072C524.2760000000001,68.70400000000001,521.288,66.868,519.056,65.752L516.1759999999999,68.38ZM516.356,50.164L516.356,54.123999999999995L537.38,54.123999999999995L537.308,56.032L517.544,56.032L517.544,59.884L537.092,59.884L536.984,61.828L514.196,61.828L514.196,65.572L527.66,65.572L527.66,71.25999999999999C522.5840000000001,73.24000000000001,517.292,75.22,513.8720000000001,76.372L516.248,80.25999999999999C519.56,78.928,523.664,77.164,527.66,75.4L527.66,78.064C527.66,78.568,527.444,78.712,526.8679999999999,78.712C526.328,78.74799999999999,524.24,78.74799999999999,522.512,78.64C523.088,79.684,523.736,81.232,523.988,82.348C526.7239999999999,82.3851,528.668,82.312,530.144,81.77199999999999C531.62,81.196,532.088,80.22399999999999,532.088,78.172L532.088,73.024C535.004,76.624,538.784,79.36,543.5360000000001,80.944C544.184,79.756,545.444,77.99199999999999,546.4159999999999,77.128C543.032,76.22800000000001,540.08,74.788,537.668,72.88C539.756,71.584,542.168,69.856,544.256,68.164L540.692,65.572L545.948,65.572L545.948,61.828L541.556,61.828C541.9159999999999,58.120000000000005,542.168,53.944,542.204,50.2L538.748,50.0194L537.956,50.164L516.356,50.164ZM532.088,65.572L540.44,65.572C539,67.048,536.804,68.884,534.86,70.288C533.78,69.064,532.844,67.768,532.088,66.328L532.088,65.572ZM569.096,59.812L569.096,71.72800000000001L562.4359999999999,71.72800000000001C565.028,68.344,567.2239999999999,64.24,568.844,59.812L569.096,59.812ZM573.668,59.812L573.812,59.812C575.432,64.20400000000001,577.556,68.344,580.148,71.72800000000001L573.668,71.72800000000001L573.668,59.812ZM569.096,48.4208L569.096,55.42L555.524,55.42L555.524,59.812L564.4159999999999,59.812C562.148,65.28399999999999,558.476,70.468,554.264,73.348C555.2719999999999,74.176,556.6759999999999,75.75999999999999,557.432,76.8423C558.8720000000001,75.7291,560.24,74.3948,561.5,72.88L561.5,76.12L569.096,76.12L569.096,82.25569999999999L573.668,82.25569999999999L573.668,76.12L581.156,76.12L581.156,72.988C582.344,74.3948,583.604,75.6571,584.972,76.7028C585.7280000000001,75.4765,587.2760000000001,73.7817,588.392,72.88C584.1800000000001,70.036,580.508,65.104,578.24,59.812L587.348,59.812L587.348,55.42L573.668,55.42L573.668,48.4208L569.096,48.4208Z" fill="#FFFFFF" fill-opacity="1"/></g></g><g clip-path="url(#master_svg6_392_01567)"><g><g><rect x="322" y="123" width="54" height="22" rx="11" fill="#FFFFFF" fill-opacity="1"/></g><g><path d="M339.97,131.166L339.97,136.486L343.316,136.486C343.19,137.214,342.924,137.914,342.364,138.53C341.566,138.082,340.936,137.522,340.488,136.85L339.578,137.172C340.096,137.97,340.768,138.642,341.594,139.174C340.936,139.622,340.012,140.014,338.752,140.294C338.962,140.504,339.256,140.91,339.382,141.1635C340.768,140.77,341.776,140.28,342.518,139.692C344.002,140.42000000000002,345.836,140.84,347.95,141.036C348.076,140.742,348.342,140.308,348.58,140.056C346.522,139.93,344.702,139.58,343.26,138.978C343.89,138.222,344.198,137.368,344.338,136.486L347.76800000000003,136.486L347.76800000000003,131.166L344.45,131.166L344.45,129.99L348.258,129.99L348.258,129.038L339.592,129.038L339.592,129.99L343.414,129.99L343.414,131.166L339.97,131.166ZM340.95,134.218L343.414,134.218L343.414,134.904L343.4,135.674L340.95,135.674L340.95,134.218ZM344.45,134.218L346.746,134.218L346.746,135.674L344.436,135.674L344.45,134.918L344.45,134.218ZM340.95,131.992L343.414,131.992L343.414,133.42L340.95,133.42L340.95,131.992ZM344.45,131.992L346.746,131.992L346.746,133.42L344.45,133.42L344.45,131.992ZM338.598,128.29228C337.912,130.41,336.75,132.51,335.49,133.882C335.7,134.12,336.008,134.666,336.106,134.918C336.498,134.47,336.876,133.966,337.24,133.406L337.24,141.0927L338.248,141.0927L338.248,131.698C338.766,130.704,339.228,129.64,339.592,128.57381L338.598,128.29228ZM354.81,136.276C354.558,138.11,353.97,139.622,352.864,140.574C353.102,140.714,353.508,141.0082,353.676,141.178C354.29200000000003,140.588,354.782,139.818,355.146,138.908C356.126,140.56,357.596,140.994,359.766,140.994L362.23,140.994C362.258,140.742,362.412,140.294,362.552,140.07C362.062,140.084,360.144,140.084,359.808,140.084C359.346,140.084,358.912,140.056,358.506,140L358.506,138.124L361.684,138.124L361.684,137.27L358.506,137.27L358.506,136.038L361.558,136.038L361.558,134.05L362.552,134.05L362.552,133.182L361.558,133.182L361.558,131.292L358.506,131.292L358.506,130.354L362.216,130.354L362.216,129.486L358.506,129.486L358.506,128.23519L357.512,128.23519L357.512,129.486L354.04,129.486L354.04,130.354L357.512,130.354L357.512,131.292L354.656,131.292L354.656,132.132L357.512,132.132L357.512,133.182L353.844,133.182L353.844,134.05L357.512,134.05L357.512,135.212L354.656,135.212L354.656,136.038L357.512,136.038L357.512,139.776C356.63,139.454,355.95799999999997,138.852,355.51,137.788C355.622,137.35399999999998,355.72,136.892,355.79,136.402L354.81,136.276ZM360.578,134.05L360.578,135.212L358.506,135.212L358.506,134.05L360.578,134.05ZM360.578,133.182L358.506,133.182L358.506,132.132L360.578,132.132L360.578,133.182ZM351.338,128.24941L351.338,131.068L349.588,131.068L349.588,132.048L351.338,132.048L351.338,134.918L349.392,135.506L349.658,136.514L351.338,135.968L351.338,139.902C351.338,140.098,351.26800000000003,140.154,351.1,140.154C350.932,140.168,350.386,140.168,349.784,140.14C349.91,140.434,350.05,140.868,350.078,141.12C350.974,141.1342,351.506,141.09199999999998,351.842,140.924C352.192,140.77,352.318,140.476,352.318,139.902L352.318,135.64600000000002L353.858,135.142L353.704,134.176L352.318,134.61L352.318,132.048L353.83,132.048L353.83,131.068L352.318,131.068L352.318,128.24941L351.338,128.24941Z" fill="#046FF8" fill-opacity="1"/></g></g><g><g><rect x="406" y="123" width="54" height="22" rx="11" fill="#FFFFFF" fill-opacity="1"/></g><g><path d="M423.004,132.174L429.066,132.174L429.066,133.448L423.004,133.448L423.004,132.174ZM421.954,131.404L421.954,134.218L430.158,134.218L430.158,131.404L421.954,131.404ZM425.174,128.43162L425.58,129.696L419.826,129.696L419.826,130.62L432.118,130.62L432.118,129.696L426.742,129.696C426.588,129.24647,426.378,128.6565,426.182,128.19297L425.174,128.43162ZM420.344,135.002L420.344,141.1071L421.352,141.1071L421.352,135.88400000000001L430.62,135.88400000000001L430.62,140.014C430.62,140.168,430.55,140.224,430.382,140.224C430.214,140.224,429.556,140.238,428.954,140.21C429.08,140.434,429.234,140.756,429.29,141.008C430.186,141.008,430.788,141.008,431.166,140.882C431.544,140.742,431.67,140.518,431.67,140L431.67,135.002L420.344,135.002ZM422.934,136.71L422.934,140.2964L423.928,140.2964L423.928,139.594L428.884,139.594L428.884,136.71L422.934,136.71ZM423.928,137.494L427.932,137.494L427.932,138.81L423.928,138.81L423.928,137.494ZM435.366,131.60044C434.918,132.67909,434.218,133.82775,433.49,134.6264C433.7,134.7664,434.078,135.1026,434.23199999999997,135.2568C434.96,134.4162,435.758,133.08531,436.276,131.86644L435.366,131.60044ZM437.676,131.97866C438.306,132.73509,438.964,133.77175,439.23,134.4582L440.07,133.96797C439.79,133.29552999999999,439.104,132.28687,438.46,131.55822L437.676,131.97866ZM435.814,128.57162C436.22,129.09094,436.626,129.79269,436.822,130.284L433.812,130.284L433.812,131.236L440.182,131.236L440.182,130.284L437.004,130.284L437.774,129.93312C437.578,129.45580999999999,437.13,128.74006,436.682,128.22053L435.814,128.57162ZM434.932,134.9626C435.492,135.5091,436.08,136.1393,436.626,136.7837C435.842,138.1428,434.806,139.2355,433.532,140.0199C433.756,140.1881,434.134,140.5803,434.274,140.7766C435.464,139.9639,436.472,138.8993,437.284,137.5824C437.886,138.3528,438.404,139.0955,438.712,139.6837L439.552,139.0252C439.174,138.3528,438.53,137.4984,437.816,136.6437C438.20799999999997,135.8593,438.544,134.9906,438.81,134.066L437.816,133.88397C437.634,134.5844,437.396,135.2288,437.116,135.8453C436.654,135.3408,436.164,134.8364,435.716,134.4022L434.932,134.9626ZM442.198,131.768L444.536,131.768C444.256,133.64553,443.836,135.2426,443.164,136.5595C442.59,135.4106,442.156,134.1217,441.862,132.74887L442.198,131.768ZM442.03,128.22031C441.624,130.718,440.924,133.11309,439.776,134.6402C440,134.8222,440.35,135.2286,440.49,135.4386C440.77,135.0464,441.022,134.6122,441.26,134.13569999999999C441.61,135.3826,442.044,136.5315,442.576,137.5402C441.75,138.75900000000001,440.644,139.6977,439.16,140.3841C439.384,140.5663,439.748,140.9726,439.888,141.1688C441.23199999999997,140.4683,442.296,139.5857,443.122,138.4788C443.85,139.5857,444.73199999999997,140.4963,445.796,141.1128C445.964,140.8466,446.3,140.4683,446.538,140.2721C445.404,139.6837,444.48,138.745,443.724,137.5682C444.634,136.0271,445.194,134.1217,445.558,131.768L446.356,131.768L446.356,130.788L442.478,130.788C442.688,130.01647,442.856,129.2025,443.01,128.37475L442.03,128.22031Z" fill="#046FF8" fill-opacity="1"/></g></g><g><g><rect x="490" y="123" width="62" height="22" rx="11" fill="#FFFFFF" fill-opacity="1"/></g><g><path d="M501.596,129.178L501.596,130.214L506.244,130.214C506.202,131.208,506.16,132.272,505.992,133.322L500.728,133.322L500.728,134.344L505.796,134.344C505.222,136.752,503.864,139.006,500.546,140.266C500.812,140.476,501.12,140.8547,501.26,141.1226C504.872,139.678,506.272,137.088,506.86,134.344L507.154,134.344L507.154,139.16C507.154,140.434,507.546,140.798,509.002,140.798C509.296,140.798,511.298,140.798,511.62,140.798C512.964,140.798,513.3,140.21,513.44,137.97C513.132,137.9,512.67,137.718,512.418,137.522C512.348,139.44,512.236,139.762,511.55,139.762C511.116,139.762,509.436,139.762,509.1,139.762C508.386,139.762,508.246,139.664,508.246,139.16L508.246,134.344L513.314,134.344L513.314,133.322L507.042,133.322C507.196,132.272,507.266,131.222,507.294,130.214L512.516,130.214L512.516,129.178L501.596,129.178ZM514.63,139.258L514.826,140.28C516.156,139.944,517.92,139.51,519.614,139.09L519.516,138.18C517.71,138.6,515.862,139.006,514.63,139.258ZM514.896,134.078C515.106,133.98,515.442,133.89600000000002,517.276,133.644C516.632,134.582,516.03,135.324,515.764,135.60399999999998C515.316,136.108,514.98,136.444,514.672,136.5C514.77,136.752,514.924,137.172,514.994,137.39600000000002L514.994,137.452L515.008,137.438C515.316,137.27,515.848,137.13,519.628,136.36C519.614,136.15,519.6,135.758,519.628,135.478L516.506,136.052C517.612,134.82,518.69,133.30778,519.614,131.79381L518.76,131.26137C518.508,131.75181,518.2139999999999,132.24247,517.906,132.71891L515.974,132.91512C516.842,131.70981,517.696,130.16806,518.34,128.66831L517.374,128.21966C516.772,129.91562,515.708,131.75181,515.386,132.22847C515.064,132.70491,514.812,133.04134,514.56,133.09734C514.686,133.36378,514.84,133.868,514.896,134.078ZM520.146,141.1497C520.412,140.952,520.832,140.756,523.716,139.776C523.66,139.552,523.604,139.14600000000002,523.59,138.86599999999999L521.182,139.608L521.182,134.652L523.744,134.652C524.038,138.39,524.724,140.994,526.152,140.994C527.034,140.994,527.37,140.378,527.51,138.264C527.258,138.166,526.894,137.956,526.67,137.746C526.628,139.286,526.502,139.972,526.25,139.972C525.522,139.972,524.99,137.886,524.738,134.652L527.132,134.652L527.132,133.672L524.668,133.672C524.598,132.48069,524.57,131.14916,524.584,129.74741C525.438,129.57941,526.236,129.39719,526.922,129.18675L526.166,128.33187C524.752,128.79431,522.302,129.22897,520.188,129.52319L520.188,139.328C520.188,139.902,519.894,140.182,519.684,140.308C519.838,140.504,520.062,140.924,520.146,141.1497ZM523.674,133.672L521.182,133.672L521.182,130.28006C521.952,130.18206,522.764,130.06984,523.548,129.92962C523.562,131.24716,523.604,132.50869,523.674,133.672ZM540.138,130.26453C539.158,131.76341,537.814,133.15028,536.344,134.3129L536.344,128.48544L535.224,128.48544L535.224,135.1534C534.328,135.78379999999999,533.404,136.33,532.508,136.7782C532.774,136.9745,533.11,137.3387,533.278,137.5769C533.922,137.2407,534.58,136.8625,535.224,136.4422L535.224,138.8656C535.224,140.434,535.644,140.868,537.044,140.868C537.352,140.868,539.2139999999999,140.868,539.5360000000001,140.868C541.02,140.868,541.314,139.944,541.468,137.3247C541.146,137.2407,540.698,137.0165,540.418,136.8065C540.32,139.2018,540.222,139.818,539.48,139.818C539.074,139.818,537.492,139.818,537.156,139.818C536.484,139.818,536.344,139.664,536.344,138.8936L536.344,135.6718C538.15,134.3549,539.858,132.74406,541.146,130.93697L540.138,130.26453ZM532.382,128.23344C531.528,130.37653,530.1,132.46384,528.588,133.80872C528.812,134.0467,529.162,134.5932,529.288,134.8312C529.834,134.2989,530.38,133.6685,530.898,132.96806L530.898,141.1222L532.004,141.1222L532.004,131.32919C532.5360000000001,130.44675,533.026,129.49409,533.418,128.55566L532.382,128.23344Z" fill="#046FF8" fill-opacity="1"/></g></g></g><g mask="url(#master_svg7_392_01366)"><g><ellipse cx="687" cy="25" rx="46" ry="46" fill="url(#master_svg8_11_3791)" fill-opacity="1"/></g></g><g transform="matrix(-1,0,0,-1,188,360)" mask="url(#master_svg9_392_01360)"><g><ellipse cx="168" cy="195" rx="46" ry="46" fill="url(#master_svga_11_3791)" fill-opacity="1"/></g></g><g><g><path d="M97.97857666015625,162.74541224365234L97.97857666015625,165.36075724365233L103.62518666015625,165.36075724365233C104.27206666015626,164.74307724365235,103.90561666015626,164.41016724365235,103.62518666015625,164.05308724365236Q101.41956666015625,164.05330724365234,100.80187666015625,162.74541224365234Q99.27476666015625,161.98156224365235,97.97857666015625,162.74541224365234Z" fill-rule="evenodd" fill="#CDDBFF" fill-opacity="1"/></g><g transform="matrix(0.9901971220970154,0.1392277479171753,-0.1391182839870453,0.9903385639190674,23.227822773282583,-7.855902669950638)"><path d="M67.68007469177246,162.57741412304688L67.68007469177246,165.19250612304688L73.32723469177246,165.19250612304688C73.97418469177246,164.57488612304687,73.60769469177247,164.24200612304688,73.32723469177246,163.88495612304686Q71.12139469177247,163.88518612304688,70.50365469177247,162.57741412304688Q68.97639469177246,161.81363812304687,67.68007469177246,162.57741412304688Z" fill-rule="evenodd" fill="#CDDBFF" fill-opacity="1"/></g><g><path d="M67.0038890838623,121.35139178588867Q73.20693908386231,136.86991178588866,74.0039190838623,138.21451178588867Q74.91735908386231,144.99731178588868,67.65195808386231,162.74541178588868L70.5549090838623,163.25061178588868Q81.39358908386231,145.61571178588866,82.01688908386231,134.94661178588868Q93.05068908386231,141.03951178588866,97.9785890838623,162.74541178588868L100.7238890838623,162.74541178588868Q98.4623890838623,139.13631178588867,89.05208908386231,124.27761178588867Q87.7667890838623,121.54371178588868,86.4606890838623,118.92161178588867L67.0038890838623,121.35139178588867Z" fill-rule="evenodd" fill="url(#master_svgb_343_9050)" fill-opacity="1"/></g><g><path d="M72.57910992370606,96.39240453481445Q69.89660992370605,98.13017443481445,68.87659992370605,99.05541443481445Q64.07137992370606,103.71476443481446,67.00388992370605,121.35141443481446Q77.98439992370605,126.51911443481445,87.34689992370605,122.56061443481445Q86.73449992370605,113.33021443481445,86.57749992370606,108.78381443481445Q87.34559992370606,102.36444443481446,86.57749992370606,100.66338443481445Q84.43439992370605,96.86096543481446,82.03349992370605,96.37651443481445L72.57910992370606,96.39240453481445Z" fill-rule="evenodd" fill="url(#master_svgc_343_9091)" fill-opacity="1"/></g><g><path d="M75.85120569091796,93.9472599029541Q75.59787369091796,94.7908479029541,74.80089569091797,95.8681299029541C75.70479569091796,97.7664299029541,79.50746569091797,98.2838099029541,80.62602569091797,97.6146099029541C81.05811569091797,97.3560999029541,80.66505569091797,97.1922299029541,80.59640569091798,96.84237990295411Q80.54657569091796,96.5884599029541,80.62602569091797,95.8681299029541L75.85120569091796,93.9472599029541Z" fill-rule="evenodd" fill="#FFB9B7" fill-opacity="1"/></g><g><path d="M74.9381876940918,92.35268094013215Q76.0059676940918,91.80510094013214,76.0059676940918,93.45797094013214C76.0059676940918,95.11085094013214,80.26105769409179,96.79665094013214,81.9860476940918,95.26995094013213C83.7110476940918,93.74315094013214,84.6391176940918,92.54298094013214,83.7110476940918,86.38289094013214Q82.7829676940918,80.22281094013213,74.8135246940918,87.97563094013213C73.6772776940918,88.37627094013214,73.7536146940918,89.86655094013214,74.9381876940918,92.35268094013215Z" fill-rule="evenodd" fill="#FFD0B6" fill-opacity="1"/></g><g><path d="M76.00596719787598,93.4579861328125Q71.72756619787597,91.54658613281251,72.91206919787598,85.2597461328125Q72.91206919787598,81.9044051328125,83.71103719787598,82.6186371328125L83.71103719787598,86.3828961328125Q81.23933719787598,86.4501361328125,79.46318719787598,86.3828961328125Q78.31155719787597,87.0807661328125,76.89704719787598,89.9981261328125Q76.71497719787598,87.0003961328125,74.81352719787597,87.9756261328125Q74.22737719787598,88.8413561328125,76.00596719787598,93.4579861328125Z" fill-rule="evenodd" fill="#16024C" fill-opacity="1"/></g><g><path d="M74.80090207305908,95.86812686920166L72.84949207305908,96.37651586920165Q76.02952207305908,100.66338686920166,79.04081207305909,100.66338686920166Q79.97193207305908,99.34273686920166,80.21504207305908,98.26575686920167L81.94561207305908,99.55486686920166Q82.64020207305909,97.63585686920166,82.64020207305909,96.37651586920165C82.32744207305907,96.47588486920166,82.00078207305909,96.35500086920166,81.61517207305909,96.34706686920165Q81.28657207305908,96.34030586920166,80.52750207305908,96.37651586920165C80.68137207305908,97.16034686920166,80.75645207305908,97.38627686920167,80.21504207305908,97.62901686920166C78.17256207305908,97.63445686920166,76.15908207305908,97.82133686920166,74.80090207305908,95.86812686920166Z" fill-rule="evenodd" fill="#587AE7" fill-opacity="1"/></g><g><path d="M86.7679570814209,101.30050468444824L94.9922490814209,108.29742468444825L92.1036290814209,112.23500468444824L86.4606990814209,109.68246468444823L86.7679570814209,101.30050468444824Z" fill-rule="evenodd" fill="#A0CBFF" fill-opacity="1"/></g><g><g mask="url(#master_svge_392_01380)"><g><path d="M58.324691801719666,143.29388601665497L112.71091180171967,88.88128601665497C114.47831180171966,87.11296201665496,117.34491180171966,87.11296201665496,119.11241180171967,88.88128601665497C120.87861180171967,90.64840601665497,120.87861180171967,93.51255601665497,119.11241180171967,95.27966601665497L64.72617180171966,149.69228601665498C62.95870180171966,151.460586016655,60.09216180171967,151.460586016655,58.324691801719666,149.69228601665498C56.55843580171967,147.92518601665498,56.55843580171967,145.06098601665497,58.324691801719666,143.29388601665497" fill="url(#master_svgd_343_02793)" fill-opacity="1"/></g><g transform="matrix(0.6689512729644775,0.7433062791824341,-0.7429832816123962,0.6693099737167358,123.61219214368526,0.8618421164508732)"><rect x="60.804948806762695" y="139.28010737895966" width="12.607030868530273" height="1.9393997192382812" rx="0" fill="#151515" fill-opacity="1"/><rect x="60.804948806762695" y="139.28010737895966" width="12.607030868530273" height="1.9393997192382812" rx="0" fill-opacity="0" stroke-opacity="1" stroke="#151515" fill="none" stroke-width="0"/></g></g><g mask="url(#master_svgf_392_01384)"><g><path d="M113.52956771850586,88.04023689174652L124.48266771850587,83.11998689174652L119.92723771850586,94.44238689174652L113.52956771850586,88.04023689174652Z" fill-rule="evenodd" fill="#F5F5F5" fill-opacity="1"/></g><g transform="matrix(0.7191712856292725,0.6948328018188477,-0.6944838762283325,0.7195082306861877,88.73717663246303,-63.11031457128922)"><rect x="122.42411518096924" y="78.26959216594696" width="7.111308574676514" height="5.81848669052124" rx="0" fill="#151515" fill-opacity="1"/></g></g></g><g><path d="M66.83352114624023,101.7079862890625Q70.70487114624024,97.0196862890625,74.00393114624023,100.6633862890625Q75.67363114624024,105.3991862890625,71.35701114624024,110.9435462890625Q70.89808114624023,112.9513462890625,72.84949114624024,114.1366462890625Q74.80093114624023,115.3219462890625,82.64023114624024,118.73114628906251L81.28673114624024,121.7021462890625Q68.37451114624024,121.30304628906251,64.20723614624023,115.5295462890625Q62.515041146240236,110.6000462890625,66.83352114624023,101.7079862890625Z" fill-rule="evenodd" fill="#A0CBFF" fill-opacity="1"/></g><g><path d="M81.29977607727051,121.10774717041015Q81.75206707727051,121.48274717041015,82.1012740772705,122.13055717041016C82.9158560772705,122.55896717041016,86.02175607727051,122.44451717041015,87.16489607727051,122.44451717041015C88.30803607727051,122.44451717041015,87.7744160772705,122.13055717041016,88.41041607727051,122.13055717041016C89.0464060772705,122.13055717041016,88.8184860772705,122.13055717041016,88.8184860772705,122.13055717041016C88.8184860772705,122.13055717041016,88.35130607727051,121.70213717041015,88.8184860772705,121.70213717041015Q89.28567607727051,121.70213717041015,88.8184860772705,121.10774717041015Q87.5911860772705,120.77626717041015,87.7744160772705,120.56250717041016C89.0951160772705,120.56250717041016,88.18485607727051,120.78951717041015,88.8184860772705,120.56250717041016C88.8184860772705,119.42286807041016,87.11501607727051,119.90014917041016,87.7744160772705,119.90014917041016Q88.4338160772705,119.90014917041016,87.7744160772705,119.47403717041016Q84.60270607727051,119.47403717041016,84.0776960772705,119.47403717041016Q83.55269607727051,119.47403717041016,82.6401960772705,119.90014917041016L82.1012740772705,119.90014917041016L81.29977607727051,121.10774717041015Z" fill-rule="evenodd" fill="#FCD9AF" fill-opacity="1"/></g><g><path d="M99.21170965820312,114.5005646295166L97.10660145820313,112.90481462951661Q96.87959465820313,112.4865446295166,97.51937465820312,112.4865446295166Q98.05289965820313,112.8150346295166,98.84295965820313,113.4935546295166Q99.56112965820313,113.5000646295166,99.19238965820313,113.2509646295166Q98.82363965820312,113.0018546295166,97.83554965820312,111.9136146295166Q97.52167665820312,110.6844536295166,98.18231965820313,111.2990346295166Q98.84295965820313,111.9136146295166,99.53177965820312,112.7973746295166L99.78256965820313,112.4865446295166L98.84295965820313,111.0424946295166Q98.89162965820313,110.7372486295166,99.21170965820312,110.7372486295166Q99.53177965820312,110.7372486295166,100.34915965820312,112.4865446295166L100.69969965820313,111.9136146295166L99.53177965820312,110.3270676295166Q99.99860965820312,109.6116416295166,100.34915965820312,110.3270676295166Q100.69969965820313,111.0424946295166,101.01809965820313,111.9136146295166Q101.36343965820312,111.5555746295166,101.36343965820312,111.2990346295166C101.36343965820312,111.0424946295166,101.83937965820313,110.6844536295166,101.83937965820313,111.2990346295166Q101.83937965820313,111.9136146295166,101.83937965820313,112.90481462951661L101.36343965820312,113.4935546295166L100.69969965820313,114.5005646295166L99.21170965820312,114.5005646295166Z" fill-rule="evenodd" fill="#FCD9AF" fill-opacity="1"/></g></g><g><g><path d="M371.608,106.2903C373.736,107.0915,375.864,108.1973,377.16,109.191L377.896,108.24549999999999C376.568,107.3,374.328,106.1943,372.184,105.409L371.608,106.2903ZM366.84,99.088C367.704,99.6,368.728,100.4,369.192,100.96000000000001L369.96,100.096C369.464,99.52,368.424,98.8,367.56,98.32L366.84,99.088ZM365.24,101.584C366.152,102.08,367.224,102.88,367.736,103.456L368.472,102.544C367.944,101.984,366.856,101.248,365.96,100.784L365.24,101.584ZM364.44,96.384L364.44,99.632L365.64,99.632L365.64,97.504L376.344,97.504L376.344,99.632L377.592,99.632L377.592,96.384L372.104,96.384C371.864,95.82225,371.448,95.03575000000001,371.048,94.44175L369.864,94.811C370.152,95.2925,370.456,95.87049999999999,370.68,96.384L364.44,96.384ZM364.136,103.904L364.136,104.944L369.912,104.944C369.016,106.4988,367.368,107.5403,364.296,108.1812C364.552,108.4538,364.856,108.9185,364.984,109.239C368.584,108.4058,370.376,107.0115,371.288,104.944L377.96,104.944L377.96,103.904L371.656,103.904C372.12,102.352,372.23199999999997,100.496,372.296,98.304L371.048,98.304C370.984,100.576,370.888,102.416,370.376,103.904L364.136,103.904ZM386.584,100.768C387.432,102,388.52,103.696,389.032,104.672L390.088,104.064C389.544,103.088,388.44,101.456,387.576,100.24L386.584,100.768ZM384.184,101.568L384.184,105.216L381.448,105.216L381.448,101.568L384.184,101.568ZM384.184,100.496L381.448,100.496L381.448,96.992L384.184,96.992L384.184,100.496ZM380.296,95.904L380.296,107.6L381.448,107.6L381.448,106.304L385.304,106.304L385.304,95.904L380.296,95.904ZM391.224,94.635L391.224,97.76L386.04,97.76L386.04,98.944L391.224,98.944L391.224,107.47200000000001C391.224,107.792,391.096,107.904,390.776,107.904C390.424,107.936,389.24,107.936,387.992,107.888C388.168,108.24,388.36,108.78399999999999,388.44,109.12C390.04,109.12,391.064,109.104,391.64,108.896C392.216,108.70400000000001,392.44,108.352,392.44,107.47200000000001L392.44,98.944L394.392,98.944L394.392,97.76L392.44,97.76L392.44,94.635L391.224,94.635ZM396.984,95.696C397.864,96.48,398.984,97.568,399.48,98.272L400.36,97.424C399.8,96.752,398.68,95.696,397.81600000000003,94.95675L396.984,95.696ZM398.2,108.976L398.2,108.96000000000001C398.424,108.656,398.872,108.32,401.528,106.432C401.4,106.19200000000001,401.224,105.712,401.144,105.392L399.48,106.52799999999999L399.48,99.584L395.736,99.584L395.736,100.752L398.296,100.752L398.296,106.512C398.296,107.29599999999999,397.8,107.84,397.512,108.064C397.736,108.27199999999999,398.072,108.72,398.2,108.976ZM401.704,95.68L401.704,96.88L408.056,96.88L408.056,100.928L402.008,100.928L402.008,107.088C402.008,108.656,402.584,109.03999999999999,404.376,109.03999999999999C404.776,109.03999999999999,407.64,109.03999999999999,408.056,109.03999999999999C409.8,109.03999999999999,410.216,108.32,410.392,105.712C410.04,105.632,409.528,105.424,409.224,105.2C409.144,107.47200000000001,408.984,107.888,407.992,107.888C407.368,107.888,404.936,107.888,404.456,107.888C403.432,107.888,403.24,107.744,403.24,107.104L403.24,102.08L408.056,102.08L408.056,102.912L409.256,102.912L409.256,95.68L401.704,95.68ZM413.144,102.928C414.18399999999997,103.504,415.448,104.416,416.056,105.024L416.904,104.19200000000001C416.264,103.584,414.968,102.736,413.96,102.19200000000001L413.144,102.928ZM413.144,95.456L413.144,96.56L422.84000000000003,96.56L422.776,98.032L413.624,98.032L413.624,99.136L422.712,99.136L422.616,100.608L412.072,100.608L412.072,101.68L418.376,101.68L418.376,104.608C416.056,105.568,413.64,106.544,412.088,107.136L412.728,108.208C414.296,107.536,416.392,106.64,418.376,105.76L418.376,107.968C418.376,108.19200000000001,418.296,108.256,418.04,108.27199999999999C417.784,108.288,416.888,108.288,415.944,108.256C416.104,108.56,416.296,109.008,416.36,109.312C417.608,109.312,418.424,109.312,418.92,109.136C419.432,108.96000000000001,419.592,108.672,419.592,107.98400000000001L419.592,104.224C420.968,106.304,422.968,107.856,425.464,108.64C425.624,108.32,425.992,107.856,426.248,107.6C424.52,107.136,423.016,106.288,421.8,105.168C422.824,104.544,424.024,103.648,424.984,102.832L423.96,102.08C423.24,102.8,422.056,103.744,421.064,104.416C420.472,103.744,419.976,102.976,419.592,102.16L419.592,101.68L426.04,101.68L426.04,100.608L423.864,100.608C424.008,98.96000000000001,424.12,96.992,424.152,95.456L423.20799999999997,95.39175L423,95.456L413.144,95.456ZM433.91200000000003,95.344L433.91200000000003,103.856L435.06399999999996,103.856L435.06399999999996,96.4L439.91200000000003,96.4L439.91200000000003,103.856L441.096,103.856L441.096,95.344L433.91200000000003,95.344ZM427.688,106.4L427.96,107.568C429.48,107.104,431.512,106.496,433.416,105.936L433.272,104.816L431.176,105.44L431.176,101.392L432.856,101.392L432.856,100.272L431.176,100.272L431.176,96.768L433.176,96.768L433.176,95.648L427.88,95.648L427.88,96.768L430.024,96.768L430.024,100.272L428.12,100.272L428.12,101.392L430.024,101.392L430.024,105.776C429.144,106.01599999999999,428.344,106.24,427.688,106.4ZM436.872,97.76L436.872,100.848C436.872,103.36,436.36,106.384,432.312,108.464C432.552,108.64,432.93600000000004,109.0898,433.06399999999996,109.3318C435.72,107.936,436.984,106.032,437.56,104.112L437.56,107.488C437.56,108.576,437.976,108.864,439.096,108.864L440.568,108.864C441.944,108.864,442.13599999999997,108.224,442.28,105.696C441.976,105.632,441.592,105.456,441.304,105.216C441.224,107.504,441.128,107.952,440.568,107.952L439.256,107.952C438.808,107.952,438.68,107.84,438.68,107.376L438.68,103.584L437.704,103.584C437.928,102.656,437.992,101.728,437.992,100.88L437.992,97.76L436.872,97.76ZM449.576,101.056C449.72,100.928,450.23199999999997,100.864,450.968,100.864L452.104,100.864C451.432,102.624,450.28,104.08,448.808,105.03999999999999L448.616,104.112L446.904,104.752L446.904,99.6L448.664,99.6L448.664,98.464L446.904,98.464L446.904,94.749L445.76800000000003,94.749L445.76800000000003,98.464L443.8,98.464L443.8,99.6L445.76800000000003,99.6L445.76800000000003,105.168C444.93600000000004,105.472,444.18399999999997,105.744,443.576,105.936L443.976,107.152C445.352,106.608,447.15999999999997,105.888,448.84000000000003,105.216L448.808,105.072C449.06399999999996,105.232,449.496,105.55199999999999,449.672,105.744C451.20799999999997,104.624,452.52,102.944,453.24,100.864L454.584,100.864C453.576,104.288,451.784,106.944,449.06399999999996,108.576C449.336,108.736,449.8,109.072,449.992,109.2655C452.696,107.456,454.6,104.624,455.704,100.864L456.79200000000003,100.864C456.504,105.568,456.168,107.392,455.752,107.84C455.592,108.032,455.448,108.08,455.192,108.064C454.904,108.064,454.296,108.064,453.64,108C453.832,108.32,453.96,108.8,453.976,109.136C454.648,109.1685,455.304,109.1845,455.688,109.136C456.152,109.088,456.472,108.96000000000001,456.776,108.576C457.336,107.92,457.672,105.936,458.008,100.32C458.024,100.144,458.04,99.728,458.04,99.728L451.608,99.728C453.192,98.72,454.872,97.408,456.584,95.888L455.688,95.2155L455.432,95.312L449,95.312L449,96.44800000000001L454.152,96.44800000000001C452.76,97.712,451.20799999999997,98.8,450.68,99.136C450.056,99.536,449.464,99.872,449.06399999999996,99.92C449.224,100.224,449.48,100.784,449.576,101.056ZM466.488,99.52L466.488,100.56L471.91200000000003,100.56L471.91200000000003,99.52L466.488,99.52ZM465.352,102.32C465.8,103.536,466.248,105.136,466.376,106.19200000000001L467.368,105.904C467.224,104.88,466.776,103.29599999999999,466.296,102.08L465.352,102.32ZM468.456,101.872C468.744,103.088,469.016,104.672,469.096,105.728L470.104,105.55199999999999C470.008,104.512,469.72,102.96000000000001,469.4,101.744L468.456,101.872ZM461.86400000000003,94.5535L461.86400000000003,97.6L459.784,97.6L459.784,98.72L461.752,98.72C461.32,100.832,460.424,103.312,459.528,104.624C459.72,104.912,460.008,105.44,460.13599999999997,105.792C460.776,104.8,461.384,103.2,461.86400000000003,101.536L461.86400000000003,109.2685L462.968,109.2685L462.968,100.928C463.384,101.712,463.848,102.64,464.056,103.136L464.776,102.288C464.536,101.80799999999999,463.336,99.92,462.968,99.376L462.968,98.72L464.632,98.72L464.632,97.6L462.968,97.6L462.968,94.5535L461.86400000000003,94.5535ZM468.984,94.44125C467.896,96.70225,465.992,98.736,463.976,99.968C464.2,100.208,464.552,100.72,464.696,100.96000000000001C466.328,99.824,467.928,98.224,469.144,96.3815C470.376,97.984,472.216,99.712,473.832,100.784C473.96,100.464,474.23199999999997,99.984,474.456,99.696C472.824,98.736,470.824,96.97475,469.72,95.4195L470.04,94.82625L468.984,94.44125ZM464.488,107.44L464.488,108.512L474.008,108.512L474.008,107.44L471.06399999999996,107.44C471.896,105.936,472.856,103.76,473.528,102.032L472.472,101.744C471.91200000000003,103.456,470.904,105.904,470.04,107.44L464.488,107.44ZM482.776,106.52799999999999C483.592,107.328,484.536,108.44800000000001,484.984,109.168L485.76800000000003,108.624C485.304,107.936,484.344,106.848,483.528,106.064L482.776,106.52799999999999ZM479.992,95.488L479.992,105.536L480.93600000000004,105.536L480.93600000000004,96.416L484.408,96.416L484.408,105.488L485.384,105.488L485.384,95.488L479.992,95.488ZM488.872,94.7645L488.872,107.888C488.872,108.128,488.776,108.208,488.552,108.208C488.328,108.224,487.576,108.224,486.728,108.208C486.872,108.496,487.032,108.96000000000001,487.08,109.21600000000001C488.2,109.2323,488.88800000000003,109.2,489.304,109.024C489.704,108.848,489.86400000000003,108.544,489.86400000000003,107.888L489.86400000000003,94.7645L488.872,94.7645ZM486.68,96L486.68,105.584L487.64,105.584L487.64,96L486.68,96ZM482.13599999999997,97.55199999999999L482.13599999999997,103.216C482.13599999999997,105.152,481.81600000000003,107.152,479.144,108.512C479.32,108.656,479.624,109.056,479.736,109.2485C482.616,107.792,483.06399999999996,105.376,483.06399999999996,103.232L483.06399999999996,97.55199999999999L482.13599999999997,97.55199999999999ZM476.296,95.584C477.192,96.08,478.344,96.848,478.88800000000003,97.36L479.624,96.384C479.048,95.904,477.88,95.19875,477.016,94.73225L476.296,95.584ZM475.608,99.904C476.488,100.4,477.656,101.12,478.23199999999997,101.6L478.952,100.64C478.344,100.176,477.15999999999997,99.488,476.296,99.03999999999999L475.608,99.904ZM475.928,108.432L477.016,109.072C477.688,107.6,478.488,105.632,479.06399999999996,103.952L478.104,103.328C477.464,105.12,476.568,107.2,475.928,108.432ZM498.08799999999997,94.85825C497.8,95.4835,497.288,96.42975,496.88800000000003,96.991L497.672,97.37575C498.08799999999997,96.8465,498.632,96.04475,499.096,95.30725L498.08799999999997,94.85825ZM492.408,95.30725C492.824,95.98075,493.256,96.86275,493.4,97.424L494.312,97.023C494.168,96.44575,493.736,95.57975,493.288,94.9545L492.408,95.30725ZM497.56,103.84C497.192,104.6733,496.68,105.3783,496.072,105.987C495.464,105.6825,494.84000000000003,105.3783,494.248,105.1217C494.472,104.7372,494.728,104.3047,494.952,103.84L497.56,103.84ZM492.76,105.5545C493.544,105.8587,494.424,106.2593,495.224,106.6758C494.2,107.4128,492.96799999999996,107.9255,491.656,108.23C491.86400000000003,108.4543,492.12,108.8708,492.23199999999997,109.15899999999999C493.704,108.7585,495.06399999999996,108.13380000000001,496.216,107.2045C496.744,107.525,497.224,107.8293,497.592,108.1017L498.36,107.3167C497.99199999999996,107.0602,497.528,106.77199999999999,497,106.48349999999999C497.848,105.5705,498.52,104.449,498.91999999999996,103.056L498.264,102.784L498.072,102.832L495.448,102.832L495.8,102L494.728,101.80799999999999C494.616,102.128,494.456,102.48,494.296,102.832L492.12,102.832L492.12,103.84L493.8,103.84C493.464,104.481,493.096,105.0737,492.76,105.5545ZM495.11199999999997,94.5375L495.11199999999997,97.536L491.8,97.536L491.8,98.528L494.744,98.528C493.976,99.568,492.744,100.56,491.624,101.03999999999999C491.86400000000003,101.264,492.13599999999997,101.68,492.28,101.952C493.256,101.424,494.312,100.528,495.11199999999997,99.584L495.11199999999997,101.536L496.23199999999997,101.536L496.23199999999997,99.36C497,99.92,497.976,100.672,498.376,101.03999999999999L499.048,100.176C498.664,99.904,497.256,99.008,496.472,98.528L499.496,98.528L499.496,97.536L496.23199999999997,97.536L496.23199999999997,94.5375L495.11199999999997,94.5375ZM501.06399999999996,94.68175C500.664,97.504,499.94399999999996,100.19200000000001,498.696,101.872C498.952,102.032,499.416,102.416,499.608,102.608C500.024,102.016,500.376,101.312,500.696,100.528C501.048,102.096,501.512,103.55199999999999,502.10400000000004,104.8175C501.20799999999997,106.3395,499.96000000000004,107.509,498.216,108.358C498.44,108.5985,498.776,109.07900000000001,498.88800000000003,109.3353C500.52,108.4543,501.752,107.34870000000001,502.696,105.939C503.496,107.3008,504.488,108.39,505.736,109.143C505.928,108.83879999999999,506.28,108.4223,506.552,108.1978C505.20799999999997,107.477,504.152,106.3075,503.336,104.8335C504.18399999999997,103.184,504.728,101.184,505.08000000000004,98.784L506.168,98.784L506.168,97.664L501.608,97.664C501.832,96.76625,502.024,95.82025,502.168,94.85825L501.06399999999996,94.68175ZM503.94399999999996,98.784C503.688,100.624,503.304,102.224,502.728,103.584C502.12,102.144,501.672,100.512,501.368,98.784L503.94399999999996,98.784ZM514.744,104.19200000000001L514.744,109.3003L515.8,109.3003L515.8,108.64L520.7280000000001,108.64L520.7280000000001,109.2358L521.832,109.2358L521.832,104.19200000000001L518.744,104.19200000000001L518.744,102.208L522.328,102.208L522.328,101.168L518.744,101.168L518.744,99.408L521.768,99.408L521.768,95.264L513.3199999999999,95.264L513.3199999999999,100.096C513.3199999999999,102.64,513.1759999999999,106.128,511.512,108.592C511.784,108.7205,512.28,109.0748,512.504,109.268C513.832,107.312,514.28,104.592,514.424,102.208L517.608,102.208L517.608,104.19200000000001L514.744,104.19200000000001ZM514.488,96.304L520.616,96.304L520.616,98.352L514.488,98.352L514.488,96.304ZM514.488,99.408L517.608,99.408L517.608,101.168L514.472,101.168L514.488,100.096L514.488,99.408ZM515.8,107.648L515.8,105.216L520.7280000000001,105.216L520.7280000000001,107.648L515.8,107.648ZM509.672,94.572L509.672,97.792L507.672,97.792L507.672,98.912L509.672,98.912L509.672,102.416C508.84000000000003,102.672,508.072,102.896,507.464,103.056L507.784,104.24L509.672,103.632L509.672,107.776C509.672,108,509.592,108.064,509.4,108.064C509.20799999999997,108.08,508.584,108.08,507.89599999999996,108.064C508.03999999999996,108.384,508.2,108.88,508.23199999999997,109.168C509.24,109.1842,509.86400000000003,109.136,510.248,108.944C510.648,108.768,510.79200000000003,108.432,510.79200000000003,107.776L510.79200000000003,103.264L512.6320000000001,102.656L512.456,101.55199999999999L510.79200000000003,102.08L510.79200000000003,98.912L512.6,98.912L512.6,97.792L510.79200000000003,97.792L510.79200000000003,94.572L509.672,94.572Z" fill="#FFFFFF" fill-opacity="1"/></g><g><rect x="347" y="102" width="12" height="2" rx="0" fill="#FFFFFF" fill-opacity="1"/></g><g><rect x="527" y="102" width="12" height="2" rx="0" fill="#FFFFFF" fill-opacity="1"/></g></g></g></svg>