<svg xmlns="http://www.w3.org/2000/svg" xmlns:xlink="http://www.w3.org/1999/xlink" fill="none" version="1.1" width="16" height="16" viewBox="0 0 16 16"><g><g></g><g><g><g><path d="M3.3571428656578064 4.5C3.3571428656578064 3.3954305003384135 4.25257336599622 2.5 5.357142865657806 2.5L6.357142865657806 2.5C7.461712365319393 2.5 8.357142865657806 3.3954305003384135 8.357142865657806 4.5L8.357142865657806 13.5C8.357142865657806 13.5 8.357142865657806 13.5 8.357142865657806 13.5L3.3571428656578064 13.5C3.3571428656578064 13.5 3.3571428656578064 13.5 3.3571428656578064 13.5Z" fill-opacity="0" stroke-opacity="1" stroke="#000000" fill="none" stroke-width="1"/></g><g><path d="M13.142859999999999,14.000001462631225L13.142859999999999,8.193861462631226C13.142859999999999,7.260061462631226,12.49668,6.450541462631225,11.5861,6.2435934626312255L9,5.655844462631226L8,5.428571462631226L8,14.000001462631225L13.142859999999999,14.000001462631225ZM9,13.000001462631225L12.142859999999999,13.000001462631225L12.142859999999999,8.193861462631226Q12.142859999999999,7.843681462631226,11.9244,7.570011462631225Q11.70594,7.296331462631226,11.36448,7.218731462631226L9,6.6813414626312255L9,13.000001462631225Z" fill-rule="evenodd" fill="#000000" fill-opacity="1"/></g><g><path d="M2,13.071428298950195L14,13.071428298950195Q14.0492,13.071428298950195,14.0975,13.081035298950196Q14.1458,13.090643298950194,14.1913,13.109488298950195Q14.2368,13.128334298950195,14.2778,13.155693298950196Q14.3187,13.183053298950195,14.3536,13.217875298950196Q14.3884,13.252697298950196,14.4157,13.293643298950196Q14.4431,13.334589298950196,14.4619,13.380086298950195Q14.4808,13.425583298950196,14.4904,13.473883198950196Q14.5,13.522182598950195,14.5,13.571428298950195Q14.5,13.620673998950195,14.4904,13.668973398950195Q14.4808,13.717273298950195,14.4619,13.762770298950196Q14.4431,13.808267298950195,14.4157,13.849213298950195Q14.3884,13.890159298950195,14.3536,13.924981298950195Q14.3187,13.959803298950195,14.2778,13.987163298950195Q14.2368,14.014522298950196,14.1913,14.033368298950196Q14.1458,14.052213298950196,14.0975,14.061821298950195Q14.0492,14.071428298950195,14,14.071428298950195L2,14.071428298950195Q1.9507543,14.071428298950195,1.9024549,14.061821298950195Q1.854155,14.052213298950196,1.8086579999999999,14.033368298950196Q1.763161,14.014522298950196,1.722215,13.987163298950195Q1.681269,13.959803298950195,1.646447,13.924981298950195Q1.611625,13.890159298950195,1.584265,13.849213298950195Q1.5569060000000001,13.808267298950195,1.53806,13.762770298950196Q1.519215,13.717273298950195,1.509607,13.668973398950195Q1.5,13.620673998950195,1.5,13.571428298950195Q1.5,13.522182598950195,1.509607,13.473883198950196Q1.519215,13.425583298950196,1.53806,13.380086298950195Q1.5569060000000001,13.334589298950196,1.584265,13.293643298950196Q1.611625,13.252697298950196,1.646447,13.217875298950196Q1.681269,13.183053298950195,1.722215,13.155693298950196Q1.763161,13.128334298950195,1.8086579999999999,13.109488298950195Q1.854155,13.090643298950194,1.9024549,13.081035298950196Q1.9507543,13.071428298950195,2,13.071428298950195Z" fill-rule="evenodd" fill="#151515" fill-opacity="1"/></g></g></g></g></svg>