<svg xmlns="http://www.w3.org/2000/svg" xmlns:xlink="http://www.w3.org/1999/xlink" fill="none" version="1.1" width="16" height="18" viewBox="0 0 16 18"><g><path d="M16,7.71429C16,3.45536,12.4167,0,8,0C3.58333,0,0,3.45536,0,7.71429C0,11.5875,2.96667,14.8018,6.83333,15.3482L6.75,16.7143L2.66667,16.7143L2.66667,18L13.3333,18L13.3333,16.7143L9.28333,16.7143L9.2,15.3482C13.05,14.7857,16,11.5875,16,7.71429ZM8,14.1429C4.31667,14.1429,1.33333,11.2661,1.33333,7.71429C1.33333,4.1625,4.31667,1.28571,8,1.28571C11.6833,1.28571,14.6667,4.1625,14.6667,7.71429C14.6667,11.2661,11.6833,14.1429,8,14.1429ZM8,2.89286C5.23333,2.89286,3,5.04643,3,7.71429C3,10.3821,5.23333,12.5357,8,12.5357C10.7667,12.5357,13,10.3821,13,7.71429C13,5.04643,10.7667,2.89286,8,2.89286ZM6,9C4.9,9,4,8.13214,4,7.07143C4,6.01072,4.9,5.14286,6,5.14286C7.1,5.14286,8,6.01072,8,7.07143C8,8.13214,7.1,9,6,9Z" fill="#FFFFFF" fill-opacity="1" style="mix-blend-mode:passthrough"/></g></svg>