<svg xmlns="http://www.w3.org/2000/svg" xmlns:xlink="http://www.w3.org/1999/xlink" fill="none" version="1.1" width="80" height="80" viewBox="0 0 80 80"><defs><mask id="master_svg0_411_15801" style="mask-type:alpha" maskUnits="objectBoundingBox"><g><rect x="0" y="0" width="80" height="80" rx="0" fill="#FFFFFF" fill-opacity="1"/></g></mask><filter id="master_svg1_411_15797" filterUnits="objectBoundingBox" color-interpolation-filters="sRGB" x="-5.336634240491688" y="-4.635329851331935" width="11.673268480983376" height="10.27065970266387"><feFlood flood-opacity="0" result="BackgroundImageFix"/><feBlend mode="normal" in="SourceGraphic" in2="BackgroundImageFix" result="shape"/><feGaussianBlur stdDeviation="8" result="effect1_foregroundBlur"/></filter><filter id="master_svg2_411_15799" filterUnits="objectBoundingBox" color-interpolation-filters="sRGB" x="-6.9258080762212995" y="-6.336602482228023" width="14.851616152442599" height="13.673204964456046"><feFlood flood-opacity="0" result="BackgroundImageFix"/><feBlend mode="normal" in="SourceGraphic" in2="BackgroundImageFix" result="shape"/><feGaussianBlur stdDeviation="7" result="effect1_foregroundBlur"/></filter><filter id="master_svg3_411_15796" filterUnits="objectBoundingBox" color-interpolation-filters="sRGB" x="-6.156301040518085" y="-5.28898879403849" width="13.31260208103617" height="11.57797758807698"><feFlood flood-opacity="0" result="BackgroundImageFix"/><feBlend mode="normal" in="SourceGraphic" in2="BackgroundImageFix" result="shape"/><feGaussianBlur stdDeviation="6.5" result="effect1_foregroundBlur"/></filter><linearGradient x1="0.5" y1="0" x2="0.5" y2="1" id="master_svg4_107_1209"><stop offset="0%" stop-color="#0076FF" stop-opacity="0"/><stop offset="100%" stop-color="#0076FF" stop-opacity="0.4000000059604645"/></linearGradient><linearGradient x1="0.5" y1="0" x2="0.5" y2="1" id="master_svg5_107_1192"><stop offset="65.13116955757141%" stop-color="#0066EC" stop-opacity="1"/><stop offset="100%" stop-color="#0BFCFF" stop-opacity="1"/></linearGradient><linearGradient x1="0.2820283770561218" y1="0.15137939155101776" x2="0.8729827795519812" y2="0.31794471303941396" id="master_svg6_107_1195"><stop offset="0%" stop-color="#1997F0" stop-opacity="1"/><stop offset="100%" stop-color="#005AD0" stop-opacity="1"/></linearGradient><linearGradient x1="0.5" y1="0.9762207269668579" x2="0.5" y2="0" id="master_svg7_107_1197"><stop offset="0%" stop-color="#BFDAFF" stop-opacity="1"/><stop offset="77.14285850524902%" stop-color="#BFDAFF" stop-opacity="0.019999999552965164"/></linearGradient><filter id="master_svg8_411_15795" filterUnits="objectBoundingBox" color-interpolation-filters="sRGB" x="-1.1440861059765146" y="-3.7394436799378767" width="3.2881722119530292" height="8.478887359875753"><feFlood flood-opacity="0" result="BackgroundImageFix"/><feBlend mode="normal" in="SourceGraphic" in2="BackgroundImageFix" result="shape"/><feGaussianBlur stdDeviation="7" result="effect1_foregroundBlur"/></filter></defs><g mask="url(#master_svg0_411_15801)"><g><g transform="matrix(0.9087623953819275,-0.4173140227794647,0.41491538286209106,0.9098600149154663,-22.950159972047864,20.451710406362793)" filter="url(#master_svg1_411_15797)"><ellipse cx="38.37805759906769" cy="66.54446625709534" rx="2.9981443881988525" ry="3.4517500400543213" fill="#0BFFFF" fill-opacity="1"/></g><g transform="matrix(0.9087623357772827,-0.4173140525817871,0.4149153530597687,0.9098600149154663,-12.851109970692463,34.80926841497495)" filter="url(#master_svg2_411_15799)"><ellipse cx="75.26504647731781" cy="49.288113594055176" rx="2.0214247703552246" ry="2.209385871887207" fill="#0BFFFF" fill-opacity="1"/></g><g transform="matrix(0.9087623953819275,-0.41731396317481995,0.41491538286209106,0.9098600149154663,-19.45147883547606,4.77228824615834)" filter="url(#master_svg3_411_15796)"><ellipse cx="3.361779570579529" cy="49.6134238243103" rx="2.1116576194763184" ry="2.4579367637634277" fill="#0BFFFF" fill-opacity="1"/></g><g><path d="M39.85395577526093,30.649856567382816L76.68505577526092,48.03825656738282L39.85395577526093,65.42675656738281L3.022955775260936,48.03825656738282L39.85395577526093,30.649856567382816Z" fill="#0C182C" fill-opacity="0.30000001192092896"/><path d="M75.51385577526092,47.48535656738281L39.85395577526093,30.649856567382812L4.194115775260926,47.48535656738281L3.0229557752609253,48.03825656738282L4.194115775260926,48.59115656738281L39.85395577526093,65.42675656738281L75.51385577526092,48.59115656738281L76.68505577526092,48.03825656738282L75.51385577526092,47.48535656738281ZM74.34265577526092,48.03825656738282L39.85395577526093,31.755696567382813L5.365285775260926,48.03825656738282L39.85395577526093,64.3208565673828L74.34265577526092,48.03825656738282Z" fill-rule="evenodd" fill="#0066EC" fill-opacity="0.3799999952316284"/></g><g><path d="M7.544602494392395,46.82051227929688Q7.609892494392395,46.790603279296874,7.6641224943923945,46.74352727929688Q7.718352494392395,46.69645127929687,7.7571424943923954,46.636013279296876Q7.795942494392395,46.575576279296875,7.816152494392395,46.50666427929688Q7.836362494392395,46.43775167929687,7.836362494392395,46.365936279296875Q7.836362494392395,46.316690579296875,7.826752494392395,46.26839117929688Q7.817152494392395,46.220091279296874,7.798302494392395,46.174594279296876Q7.779462494392395,46.12909727929687,7.752102494392395,46.08815127929687Q7.724742494392395,46.047205279296875,7.689912494392395,46.01238327929688Q7.655092494392395,45.97756127929687,7.614152494392394,45.95020127929688Q7.573202494392396,45.92284227929687,7.527702494392395,45.90399627929688Q7.482212494392395,45.88515127929688,7.433912494392395,45.87554327929688Q7.3856124943923955,45.865936279296875,7.336362494392395,45.865936279296875Q7.227292494392395,45.865936279296875,7.1281324943923945,45.91136027929687L3.478209494392395,47.58332627929688Q3.397147494392395,47.620456279296874,3.333917494392395,47.68332627929688Q3.270687494392395,47.74618627929687,3.233084494392395,47.827026279296874Q3.212315494392395,47.871686279296874,3.200656494392395,47.919526279296875Q3.188997494392395,47.96737627929687,3.186897494392395,48.01657627929688Q3.184797494392395,48.06577627929688,3.192335494392395,48.114436279296875Q3.199874494392395,48.163106279296876,3.216762494392395,48.20936627929687Q3.2336494943923952,48.25562627929688,3.259237494392395,48.29769627929687Q3.2848264943923953,48.33977627929688,3.318131494392395,48.376056279296876Q3.351436494392395,48.41232627929688,3.391178494392395,48.44140627929688Q3.430920494392395,48.47048627929688,3.475572494392395,48.49125627929688L7.789112494392395,50.49761627929688Q7.889392494392395,50.544256279296874,7.999982494392395,50.544256279296874Q8.049232494392395,50.544256279296874,8.097532494392395,50.53464627929687Q8.145832494392394,50.52504627929687,8.191332494392395,50.50619627929687Q8.236822494392396,50.48734627929687,8.277772494392394,50.459996279296874Q8.318712494392395,50.43263627929687,8.353542494392395,50.39780627929687Q8.388362494392396,50.36298627929688,8.415722494392394,50.32204627929688Q8.443082494392396,50.281096279296875,8.461922494392395,50.23559627929688Q8.480772494392395,50.19010627929688,8.490382494392396,50.14180627929687Q8.499982494392395,50.093506279296875,8.499982494392395,50.044256279296874Q8.499982494392395,49.97281627929687,8.479972494392396,49.90422627929688Q8.459972494392396,49.83563627929688,8.421552494392394,49.775406279296874Q8.383132494392395,49.715166279296874,8.329382494392394,49.668096279296876Q8.275632494392395,49.62102627929688,8.210852494392395,49.59089627929688L4.879452494392395,48.041366279296874L7.544602494392395,46.82051227929688L7.544602494392395,46.82051227929688Z" fill-rule="evenodd" fill="#0BFEFF" fill-opacity="1"/></g><g><path d="M36.41242218132782,62.96529246923828L39.84378918132782,64.53713846923829L42.94722918132782,62.97335146923828Q43.05336918132782,62.91986846923828,43.17221918132782,62.91986846923828Q43.22146918132782,62.91986846923828,43.26976918132782,62.929475469238284Q43.31806918132782,62.939083469238284,43.36355918132782,62.95792846923828Q43.40905918132782,62.97677446923828,43.45000918132782,63.00413346923828Q43.49094918132782,63.03149346923828,43.52576918132782,63.06631546923828Q43.56059918132782,63.10113746923828,43.58795918132782,63.14208346923828Q43.61531918132782,63.18302946923828,43.63415918132782,63.22852646923828Q43.65300918132782,63.27402346923828,43.662609181327824,63.32232336923828Q43.67221918132782,63.37062276923828,43.67221918132782,63.41986846923828Q43.67221918132782,63.48931246923828,43.65329918132782,63.55612846923828Q43.63436918132782,63.62294346923828,43.59795918132782,63.68207246923828Q43.56153918132782,63.74120246923828,43.51038918132782,63.78816846923828Q43.45922918132782,63.83513546923828,43.39721918132782,63.866384469238284L40.07910918132782,65.53834846923829Q39.97733918132782,65.58962846923828,39.86340918132782,65.59174846923828Q39.74947918132782,65.59386846923829,39.64587918132782,65.54640846923829L35.99595618132782,63.874444469238284Q35.93066518132782,63.84453546923828,35.87643118132782,63.797459469238284Q35.82219818132782,63.75038346923828,35.78340618132782,63.68994546923828Q35.744615181327816,63.62950846923828,35.72440218132782,63.560596469238284Q35.70418918132782,63.49168386923828,35.70418918132782,63.41986846923828Q35.70418918132782,63.37062276923828,35.71379618132782,63.32232336923828Q35.72340418132782,63.27402346923828,35.74224918132782,63.22852646923828Q35.76109518132782,63.18302946923828,35.78845418132782,63.14208346923828Q35.815814181327816,63.10113746923828,35.85063618132782,63.06631546923828Q35.88545818132782,63.03149346923828,35.92640418132782,63.00413346923828Q35.96735018132782,62.97677446923828,36.01284718132782,62.95792846923828Q36.05834418132782,62.939083469238284,36.10664408132782,62.929475469238284Q36.15494348132782,62.91986846923828,36.20418918132782,62.91986846923828Q36.31326018132782,62.91986846923828,36.41242218132782,62.96529246923828Z" fill-rule="evenodd" fill="#0BFEFF" fill-opacity="1"/></g><g><path d="M71.91925916301727,45.57811706713867L76.23279916301728,47.58447506713867Q76.31296916301727,47.621765067138675,76.37548916301728,47.68427506713867Q76.43800916301727,47.74679506713867,76.47528916301727,47.82696506713867Q76.51723916301728,47.91714506713867,76.52147916301728,48.016505067138674Q76.52571916301727,48.115875067138674,76.49161916301728,48.20929506713867Q76.45750916301728,48.302725067138674,76.39024916301727,48.37598506713867Q76.32297916301727,48.44924506713867,76.23279916301728,48.49119506713867L71.91945516301728,50.497455067138674L71.91925916301727,50.497545067138674Q71.81898216301727,50.54418506713867,71.70838916301727,50.54418506713867Q71.65914346301727,50.54418506713867,71.61084406301727,50.53458506713867Q71.56254416301728,50.52497506713867,71.51704716301727,50.50612506713867Q71.47155016301727,50.48728506713867,71.43060416301728,50.45992506713867Q71.38965816301727,50.43256506713867,71.35483616301727,50.39774506713867Q71.32001416301728,50.362925067138676,71.29265416301727,50.32197506713867Q71.26529516301727,50.28102506713867,71.24644916301727,50.23553506713867Q71.22760416301728,50.19003506713867,71.21799616301728,50.14173506713867Q71.20838916301727,50.09343506713867,71.20838916301727,50.04418506713867Q71.20838916301727,49.972745067138675,71.22839816301727,49.904155067138674Q71.24840716301728,49.83557506713867,71.28682316301727,49.77533506713867Q71.32524016301727,49.71509506713867,71.37898916301727,49.668035067138675Q71.43273816301728,49.62096506713867,71.49751916301727,49.59083506713867L71.49771416301728,49.59074506713867L74.83636916301727,48.03783506713867L71.49751916301727,46.48483306713867Q71.43273816301728,46.45470206713867,71.37898916301727,46.40763406713867Q71.32524016301727,46.36056606713867,71.28682316301727,46.30032906713867Q71.24840716301728,46.24009106713867,71.22839816301727,46.17150606713867Q71.20838916301727,46.102919967138675,71.20838916301727,46.03147506713867Q71.20838916301727,45.98222936713867,71.21799616301728,45.933929967138674Q71.22760416301728,45.88563006713867,71.24644916301727,45.84013306713867Q71.26529516301727,45.79463606713867,71.29265416301727,45.75369006713867Q71.32001416301728,45.71274406713867,71.35483616301727,45.677922067138674Q71.38965816301727,45.64310006713867,71.43060416301728,45.615740067138674Q71.47155016301727,45.58838106713867,71.51704716301727,45.56953506713867Q71.56254416301728,45.550690067138675,71.61084406301727,45.541082067138674Q71.65914346301727,45.53147506713867,71.70838916301727,45.53147506713867Q71.81898216301727,45.53147506713867,71.91925916301727,45.57811706713867Z" fill-rule="evenodd" fill="#0BFEFF" fill-opacity="1"/></g><g><rect x="8.825788378715515" y="10.6241455078125" width="61.766910552978516" height="34.55881881713867" rx="0" fill="url(#master_svg4_107_1209)" fill-opacity="1"/></g><g><path d="M39.85416079845429,30.649856567382816L70.7126607984543,45.363156567382816L39.85416079845429,60.07645656738281L8.995760798454294,45.363156567382816L39.85416079845429,30.649856567382816Z" fill="url(#master_svg5_107_1192)" fill-opacity="1"/></g><g><path d="M39.853428384208684,30.649856567382816L68.05742838420868,44.025556567382814L39.853428384208684,57.401256567382816L11.649528384208688,44.025556567382814L39.853428384208684,30.649856567382816Z" fill="url(#master_svg6_107_1195)" fill-opacity="1"/><path d="M66.89052838420868,43.47215656738281L39.853428384208684,30.649856567382812L12.81637838420868,43.47215656738281L11.64952838420868,44.025556567382814L12.81637838420868,44.57895656738281L39.853428384208684,57.401256567382816L66.89052838420868,44.57895656738281L68.05742838420868,44.025556567382814L66.89052838420868,43.47215656738281ZM65.72372838420867,44.025556567382814L39.853428384208684,31.756616567382814L13.98322838420868,44.025556567382814L39.853428384208684,56.29455656738281L65.72372838420867,44.025556567382814Z" fill-rule="evenodd" fill="url(#master_svg7_107_1197)" fill-opacity="1"/></g><g><path d="M41.72503421001434,20.297145046325685L53.159634210014346,40.359399046325684C53.86073421001434,41.588399046325684,52.98443421001434,43.125499046325686,51.58323421001434,43.124999046325684L43.44893421001434,43.124999046325684C42.89623421001434,43.124999046325684,42.490534210014346,42.63269904632568,42.54863421001434,42.07609904632568C42.62743421001434,41.32399904632568,42.440834210014344,40.56799904632568,42.02183421001435,39.941999046325684C41.81813421001434,39.63689904632568,41.81813421001434,39.23689904632568,42.02183421001435,38.93169904632568C42.364834210014344,38.417399046325684,42.565834210014344,37.79829904632568,42.565834210014344,37.13179904632568C42.565834210014344,36.46529904632568,42.36533421001434,35.84619904632568,42.02183421001435,35.33189904632568C41.818234210014346,35.02409904632569,41.819734210014346,34.62189904632568,42.02543421001434,34.31559904632569C42.41843421001434,33.724999046325685,42.60623421001434,33.01859904632568,42.559034210014346,32.30789904632569C42.44883421001434,30.588899046325686,40.95403421001434,29.294079046325685,39.253334210014344,29.294079046325685L35.019654210014345,29.294079046325685C34.31902421001434,29.294079046325685,33.881134210014345,28.525559046325682,34.231444210014345,27.911029046325684L38.57133421001434,20.297145046325685C39.27243421001434,19.067617046325683,41.02443421001434,19.067617046325683,41.72503421001434,20.297145046325685ZM27.607554210014342,31.24949904632568L39.367634210014344,31.24949904632568C40.11603421001434,31.251799046325683,40.722134210014346,31.863899046325685,40.724434210014344,32.61959904632568C40.722134210014346,33.37529904632568,40.11603421001434,33.987399046325685,39.367634210014344,33.98969904632568L27.607554210014342,33.98969904632568C26.859129210014345,33.987399046325685,26.252963220014344,33.37529904632568,26.250734210014343,32.61959904632568C26.252963210014343,31.863899046325685,26.859129210014345,31.251799046325683,27.607554210014342,31.24949904632568ZM27.607554210014342,35.81689904632569L39.367634210014344,35.81689904632569C40.11603421001434,35.81919904632568,40.722134210014346,36.431299046325684,40.724434210014344,37.18699904632568C40.722134210014346,37.94279904632568,40.11603421001434,38.554799046325684,39.367634210014344,38.55709904632568L27.607554210014342,38.55709904632568C26.859129210014345,38.554799046325684,26.252962500014345,37.94279904632568,26.250734210014343,37.18699904632568C26.252963210014343,36.431299046325684,26.859130210014342,35.81919904632568,27.607554210014342,35.81689904632569ZM27.607554210014342,40.38429904632568L39.367634210014344,40.38429904632568C40.11603421001434,40.386599046325685,40.722134210014346,40.99869904632568,40.724434210014344,41.75439904632569C40.722134210014346,42.51019904632568,40.11603421001434,43.12229904632568,39.367634210014344,43.12449904632568L27.607554210014342,43.12449904632568C26.859129210014345,43.12229904632568,26.252962500014345,42.51019904632568,26.250734210014343,41.75439904632569C26.252963920014345,40.99869904632568,26.859130210014342,40.386599046325685,27.607554210014342,40.38429904632568Z" fill-rule="evenodd" fill="#D4EAFF" fill-opacity="1"/></g><g filter="url(#master_svg8_411_15795)"><ellipse cx="39.70845401287079" cy="48.92730975151062" rx="12.236841201782227" ry="3.7438724040985107" fill="#0BF8FE" fill-opacity="1"/></g></g></g></svg>