<svg xmlns="http://www.w3.org/2000/svg" xmlns:xlink="http://www.w3.org/1999/xlink" fill="none" version="1.1" width="80" height="80" viewBox="0 0 80 80"><defs><mask id="master_svg0_411_15739" style="mask-type:alpha" maskUnits="objectBoundingBox"><g><rect x="0" y="0" width="80" height="80" rx="0" fill="#FFFFFF" fill-opacity="1"/></g></mask><filter id="master_svg1_411_15730" filterUnits="objectBoundingBox" color-interpolation-filters="sRGB" x="-5.336634240491688" y="-4.635329851331935" width="11.673268480983376" height="10.27065970266387"><feFlood flood-opacity="0" result="BackgroundImageFix"/><feBlend mode="normal" in="SourceGraphic" in2="BackgroundImageFix" result="shape"/><feGaussianBlur stdDeviation="8" result="effect1_foregroundBlur"/></filter><filter id="master_svg2_411_15725" filterUnits="objectBoundingBox" color-interpolation-filters="sRGB" x="-6.9258080762212995" y="-6.336602482228023" width="14.851616152442599" height="13.673204964456046"><feFlood flood-opacity="0" result="BackgroundImageFix"/><feBlend mode="normal" in="SourceGraphic" in2="BackgroundImageFix" result="shape"/><feGaussianBlur stdDeviation="7" result="effect1_foregroundBlur"/></filter><filter id="master_svg3_411_15729" filterUnits="objectBoundingBox" color-interpolation-filters="sRGB" x="-6.156301040518085" y="-5.28898879403849" width="13.31260208103617" height="11.57797758807698"><feFlood flood-opacity="0" result="BackgroundImageFix"/><feBlend mode="normal" in="SourceGraphic" in2="BackgroundImageFix" result="shape"/><feGaussianBlur stdDeviation="6.5" result="effect1_foregroundBlur"/></filter><filter id="master_svg4_411_15728" filterUnits="objectBoundingBox" color-interpolation-filters="sRGB" x="-0.27151020612772636" y="-0.5750951868487869" width="1.5430204122554527" height="2.1501903736975736"><feFlood flood-opacity="0" result="BackgroundImageFix"/><feColorMatrix in="SourceAlpha" type="matrix" values="0 0 0 0 0 0 0 0 0 0 0 0 0 0 0 0 0 0 127 0"/><feOffset dy="0" dx="0"/><feGaussianBlur stdDeviation="5"/><feColorMatrix type="matrix" values="0 0 0 0 0 0 0 0 0 0.4313725531101227 0 0 0 0 1 0 0 0 1 0"/><feBlend mode="normal" in2="BackgroundImageFix" result="effect1_dropShadow"/><feBlend mode="normal" in="SourceGraphic" in2="effect1_dropShadow" result="shape"/></filter><linearGradient x1="0.5" y1="0" x2="0.5" y2="1" id="master_svg5_107_1209"><stop offset="0%" stop-color="#0076FF" stop-opacity="0"/><stop offset="100%" stop-color="#0076FF" stop-opacity="0.4000000059604645"/></linearGradient><linearGradient x1="0.5" y1="0" x2="0.5" y2="1" id="master_svg6_107_1192"><stop offset="65.13116955757141%" stop-color="#0066EC" stop-opacity="1"/><stop offset="100%" stop-color="#0BFCFF" stop-opacity="1"/></linearGradient><linearGradient x1="0.2820283770561218" y1="0.15137939155101776" x2="0.8729827795519812" y2="0.31794471303941396" id="master_svg7_107_1195"><stop offset="0%" stop-color="#1997F0" stop-opacity="1"/><stop offset="100%" stop-color="#005AD0" stop-opacity="1"/></linearGradient><linearGradient x1="0.5" y1="0.9762207269668579" x2="0.5" y2="0" id="master_svg8_107_1197"><stop offset="0%" stop-color="#BFDAFF" stop-opacity="1"/><stop offset="77.14285850524902%" stop-color="#BFDAFF" stop-opacity="0.019999999552965164"/></linearGradient><filter id="master_svg9_411_15726" filterUnits="objectBoundingBox" color-interpolation-filters="sRGB" x="-1.1440861059765146" y="-3.7394436799378767" width="3.2881722119530292" height="8.478887359875753"><feFlood flood-opacity="0" result="BackgroundImageFix"/><feBlend mode="normal" in="SourceGraphic" in2="BackgroundImageFix" result="shape"/><feGaussianBlur stdDeviation="7" result="effect1_foregroundBlur"/></filter></defs><g mask="url(#master_svg0_411_15739)"><g><g><g transform="matrix(0.9087623953819275,-0.4173140227794647,0.41491538286209106,0.9098600149154663,-22.95018648355552,20.451716165963433)" filter="url(#master_svg1_411_15730)"><ellipse cx="38.37805759906769" cy="66.54453015327454" rx="2.9981443881988525" ry="3.4517500400543213" fill="#0BFFFF" fill-opacity="1"/></g><g transform="matrix(0.9087623357772827,-0.4173140525817871,0.4149153530597687,0.9098600149154663,-12.851136482198214,34.80927417457559)" filter="url(#master_svg2_411_15725)"><ellipse cx="75.26504647731781" cy="49.288177490234375" rx="2.0214247703552246" ry="2.209385871887207" fill="#0BFFFF" fill-opacity="1"/></g><g transform="matrix(0.9087623953819275,-0.41731396317481995,0.41491538286209106,0.9098600149154663,-19.451505346983716,4.7722940057589796)" filter="url(#master_svg3_411_15729)"><ellipse cx="3.361779570579529" cy="49.6134877204895" rx="2.1116576194763184" ry="2.4579367637634277" fill="#0BFFFF" fill-opacity="1"/></g><g filter="url(#master_svg4_411_15728)"><path d="M39.85395577526093,30.649920463562015L76.68505577526092,48.038320463562016L39.85395577526093,65.42682046356201L3.022955775260936,48.038320463562016L39.85395577526093,30.649920463562015Z" fill="#0C182C" fill-opacity="0.30000001192092896"/><path d="M75.51385577526092,47.48542046356201L39.85395577526093,30.64992046356201L4.194115775260926,47.48542046356201L3.0229557752609253,48.038320463562016L4.194115775260926,48.59122046356201L39.85395577526093,65.42682046356201L75.51385577526092,48.59122046356201L76.68505577526092,48.038320463562016L75.51385577526092,47.48542046356201ZM74.34265577526092,48.038320463562016L39.85395577526093,31.755760463562012L5.365285775260926,48.038320463562016L39.85395577526093,64.320920463562L74.34265577526092,48.038320463562016Z" fill-rule="evenodd" fill="#0066EC" fill-opacity="0.3799999952316284"/></g><g><path d="M7.544602494392395,46.82064484002686Q7.609892494392395,46.790735840026855,7.6641224943923945,46.74365984002686Q7.718352494392395,46.696583840026854,7.7571424943923954,46.636145840026856Q7.795942494392395,46.575708840026856,7.816152494392395,46.50679684002686Q7.836362494392395,46.437884240026854,7.836362494392395,46.366068840026855Q7.836362494392395,46.316823140026855,7.826752494392395,46.26852374002686Q7.817152494392395,46.220223840026854,7.798302494392395,46.17472684002686Q7.779462494392395,46.12922984002685,7.752102494392395,46.088283840026854Q7.724742494392395,46.047337840026856,7.689912494392395,46.01251584002686Q7.655092494392395,45.97769384002685,7.614152494392394,45.95033384002686Q7.573202494392396,45.92297484002685,7.527702494392395,45.90412884002686Q7.482212494392395,45.88528384002686,7.433912494392395,45.87567584002686Q7.3856124943923955,45.866068840026855,7.336362494392395,45.866068840026855Q7.227292494392395,45.866068840026855,7.1281324943923945,45.91149284002685L3.478209494392395,47.58345884002686Q3.397147494392395,47.620588840026855,3.333917494392395,47.68345884002686Q3.270687494392395,47.74631884002685,3.233084494392395,47.827158840026854Q3.212315494392395,47.871818840026855,3.200656494392395,47.919658840026855Q3.188997494392395,47.96750884002685,3.186897494392395,48.01670884002686Q3.184797494392395,48.06590884002686,3.192335494392395,48.114568840026855Q3.199874494392395,48.16323884002686,3.216762494392395,48.20949884002685Q3.2336494943923952,48.25575884002686,3.259237494392395,48.29782884002685Q3.2848264943923953,48.33990884002686,3.318131494392395,48.376188840026856Q3.351436494392395,48.41245884002686,3.391178494392395,48.44153884002686Q3.430920494392395,48.47061884002686,3.475572494392395,48.49138884002686L7.789112494392395,50.49774884002686Q7.889392494392395,50.544388840026855,7.999982494392395,50.544388840026855Q8.049232494392395,50.544388840026855,8.097532494392395,50.53477884002685Q8.145832494392394,50.525178840026854,8.191332494392395,50.50632884002685Q8.236822494392396,50.48747884002685,8.277772494392394,50.460128840026854Q8.318712494392395,50.43276884002685,8.353542494392395,50.39793884002685Q8.388362494392396,50.36311884002686,8.415722494392394,50.32217884002686Q8.443082494392396,50.281228840026856,8.461922494392395,50.23572884002686Q8.480772494392395,50.19023884002686,8.490382494392396,50.14193884002685Q8.499982494392395,50.093638840026856,8.499982494392395,50.044388840026855Q8.499982494392395,49.97294884002685,8.479972494392396,49.90435884002686Q8.459972494392396,49.83576884002686,8.421552494392394,49.775538840026854Q8.383132494392395,49.715298840026854,8.329382494392394,49.668228840026856Q8.275632494392395,49.62115884002686,8.210852494392395,49.59102884002686L4.879452494392395,48.041498840026854L7.544602494392395,46.82064484002686L7.544602494392395,46.82064484002686Z" fill-rule="evenodd" fill="#0BFEFF" fill-opacity="1"/></g><g><path d="M36.41242218132782,62.96535636541748L39.84378918132782,64.53720236541749L42.94722918132782,62.97341536541748Q43.05336918132782,62.91993236541748,43.17221918132782,62.91993236541748Q43.22146918132782,62.91993236541748,43.26976918132782,62.92953936541748Q43.31806918132782,62.93914736541748,43.36355918132782,62.95799236541748Q43.40905918132782,62.97683836541748,43.45000918132782,63.00419736541748Q43.49094918132782,63.03155736541748,43.52576918132782,63.06637936541748Q43.56059918132782,63.10120136541748,43.58795918132782,63.14214736541748Q43.61531918132782,63.18309336541748,43.63415918132782,63.22859036541748Q43.65300918132782,63.27408736541748,43.662609181327824,63.32238726541748Q43.67221918132782,63.37068666541748,43.67221918132782,63.41993236541748Q43.67221918132782,63.48937636541748,43.65329918132782,63.55619236541748Q43.63436918132782,63.62300736541748,43.59795918132782,63.68213636541748Q43.56153918132782,63.74126636541748,43.51038918132782,63.78823236541748Q43.45922918132782,63.83519936541748,43.39721918132782,63.86644836541748L40.07910918132782,65.53841236541749Q39.97733918132782,65.58969236541748,39.86340918132782,65.59181236541748Q39.74947918132782,65.59393236541749,39.64587918132782,65.54647236541749L35.99595618132782,63.87450836541748Q35.93066518132782,63.84459936541748,35.87643118132782,63.79752336541748Q35.82219818132782,63.75044736541748,35.78340618132782,63.69000936541748Q35.744615181327816,63.62957236541748,35.72440218132782,63.56066036541748Q35.70418918132782,63.49174776541748,35.70418918132782,63.41993236541748Q35.70418918132782,63.37068666541748,35.71379618132782,63.32238726541748Q35.72340418132782,63.27408736541748,35.74224918132782,63.22859036541748Q35.76109518132782,63.18309336541748,35.78845418132782,63.14214736541748Q35.815814181327816,63.10120136541748,35.85063618132782,63.06637936541748Q35.88545818132782,63.03155736541748,35.92640418132782,63.00419736541748Q35.96735018132782,62.97683836541748,36.01284718132782,62.95799236541748Q36.05834418132782,62.93914736541748,36.10664408132782,62.92953936541748Q36.15494348132782,62.91993236541748,36.20418918132782,62.91993236541748Q36.31326018132782,62.91993236541748,36.41242218132782,62.96535636541748Z" fill-rule="evenodd" fill="#0BFEFF" fill-opacity="1"/></g><g><path d="M71.91925916301727,45.57818096331787L76.23279916301728,47.58453896331787Q76.31296916301727,47.621828963317874,76.37548916301728,47.68433896331787Q76.43800916301727,47.74685896331787,76.47528916301727,47.82702896331787Q76.51723916301728,47.91720896331787,76.52147916301728,48.01656896331787Q76.52571916301727,48.11593896331787,76.49161916301728,48.20935896331787Q76.45750916301728,48.30278896331787,76.39024916301727,48.37604896331787Q76.32297916301727,48.44930896331787,76.23279916301728,48.49125896331787L71.91945516301728,50.49751896331787L71.91925916301727,50.49760896331787Q71.81898216301727,50.54424896331787,71.70838916301727,50.54424896331787Q71.65914346301727,50.54424896331787,71.61084406301727,50.53464896331787Q71.56254416301728,50.52503896331787,71.51704716301727,50.50618896331787Q71.47155016301727,50.48734896331787,71.43060416301728,50.45998896331787Q71.38965816301727,50.43262896331787,71.35483616301727,50.39780896331787Q71.32001416301728,50.362988963317875,71.29265416301727,50.32203896331787Q71.26529516301727,50.28108896331787,71.24644916301727,50.23559896331787Q71.22760416301728,50.19009896331787,71.21799616301728,50.14179896331787Q71.20838916301727,50.09349896331787,71.20838916301727,50.04424896331787Q71.20838916301727,49.972808963317874,71.22839816301727,49.904218963317874Q71.24840716301728,49.83563896331787,71.28682316301727,49.77539896331787Q71.32524016301727,49.71515896331787,71.37898916301727,49.668098963317874Q71.43273816301728,49.62102896331787,71.49751916301727,49.59089896331787L71.49771416301728,49.59080896331787L74.83636916301727,48.03789896331787L71.49751916301727,46.48489696331787Q71.43273816301728,46.45476596331787,71.37898916301727,46.40769796331787Q71.32524016301727,46.36062996331787,71.28682316301727,46.30039296331787Q71.24840716301728,46.24015496331787,71.22839816301727,46.17156996331787Q71.20838916301727,46.102983863317874,71.20838916301727,46.03153896331787Q71.20838916301727,45.98229326331787,71.21799616301728,45.93399386331787Q71.22760416301728,45.88569396331787,71.24644916301727,45.84019696331787Q71.26529516301727,45.79469996331787,71.29265416301727,45.75375396331787Q71.32001416301728,45.71280796331787,71.35483616301727,45.67798596331787Q71.38965816301727,45.64316396331787,71.43060416301728,45.61580396331787Q71.47155016301727,45.58844496331787,71.51704716301727,45.56959896331787Q71.56254416301728,45.550753963317874,71.61084406301727,45.541145963317874Q71.65914346301727,45.53153896331787,71.70838916301727,45.53153896331787Q71.81898216301727,45.53153896331787,71.91925916301727,45.57818096331787Z" fill-rule="evenodd" fill="#0BFEFF" fill-opacity="1"/></g><g><rect x="8.825788378715515" y="10.6242094039917" width="61.766910552978516" height="34.55881881713867" rx="0" fill="url(#master_svg5_107_1209)" fill-opacity="1"/></g><g><path d="M39.85416079845429,30.649920463562015L70.7126607984543,45.363220463562016L39.85416079845429,60.07652046356201L8.995760798454294,45.363220463562016L39.85416079845429,30.649920463562015Z" fill="url(#master_svg6_107_1192)" fill-opacity="1"/></g><g><path d="M39.853428384208684,30.649920463562015L68.05742838420868,44.025620463562014L39.853428384208684,57.401320463562016L11.649528384208688,44.025620463562014L39.853428384208684,30.649920463562015Z" fill="url(#master_svg7_107_1195)" fill-opacity="1"/><path d="M66.89052838420868,43.47222046356201L39.853428384208684,30.64992046356201L12.81637838420868,43.47222046356201L11.64952838420868,44.025620463562014L12.81637838420868,44.57902046356201L39.853428384208684,57.401320463562016L66.89052838420868,44.57902046356201L68.05742838420868,44.025620463562014L66.89052838420868,43.47222046356201ZM65.72372838420867,44.025620463562014L39.853428384208684,31.756680463562013L13.98322838420868,44.025620463562014L39.853428384208684,56.29462046356201L65.72372838420867,44.025620463562014Z" fill-rule="evenodd" fill="url(#master_svg8_107_1197)" fill-opacity="1"/></g><g filter="url(#master_svg9_411_15726)"><ellipse cx="39.70845401287079" cy="48.92737364768982" rx="12.236841201782227" ry="3.7438724040985107" fill="#0BF8FE" fill-opacity="1"/></g></g><g><path d="M36.81841213970184,18.12494134902954L42.30301213970184,21.24994134902954L42.30301213970184,26.974941349029542C39.89821213970184,27.30285134902954,37.67691213970184,28.42514134902954,36.00141213970184,30.15864134902954L31.333842139701844,27.49994134902954L31.333842139701844,21.24994134902954L36.81841213970184,18.12494134902954ZM52.01811213970184,36.87494134902954C52.01811213970184,41.70744134902954,48.04851213970184,45.62494134902954,43.15161213970184,45.62494134902954C38.25481213970184,45.62494134902954,34.28512213970184,41.70744134902954,34.28512213970184,36.87494134902954C34.28512213970184,32.042441349029545,38.25481213970184,28.12494134902954,43.15161213970184,28.12494134902954C48.04851213970184,28.12494134902954,52.01811213970184,32.042441349029545,52.01811213970184,36.87494134902954ZM34.709452139701845,31.78114134902954L30.48518213970184,29.37494134902954L25.000612139701843,32.49994134902954L25.000612139701843,38.74994134902954L30.48518213970184,41.87494134902954L33.37693213970184,40.22744134902954C33.14223213970185,39.351941349029545,33.021772139701845,38.45054134902954,33.01847213970184,37.54494134902954L30.48518213970184,38.98864134902954L27.533902139701844,37.306141349029545L27.533902139701844,33.94374134902954L30.48518213970184,32.26114134902954L33.43647213970184,33.94364134902954L33.43647213970184,34.557441349029546C33.72274213970184,33.576241349029544,34.15151213970184,32.64114134902954,34.709452139701845,31.78114134902954ZM44.29371213970184,33.97454134902954C44.29371213970184,33.28424134902954,43.72661213970184,32.72454134902954,43.02701213970184,32.72454134902954C42.32751213970184,32.72454134902954,41.76041213970184,33.28424134902954,41.76041213970184,33.97454134902954L41.76041213970184,37.099541349029536C41.76041213970184,37.43084134902954,41.89391213970184,37.748741349029544,42.13151213970184,37.983341349029544L44.031512139701846,39.858341349029544C44.528512139701846,40.33204134902954,45.318512139701845,40.32524134902954,45.80711213970184,39.84304134902954C46.29571213970185,39.360941349029545,46.30251213970185,38.58124134902954,45.82251213970184,38.090841349029546L44.29371213970184,36.58204134902954L44.29371213970184,33.97454134902954Z" fill-rule="evenodd" fill="#D4EAFF" fill-opacity="1"/></g></g></g></svg>