<svg xmlns="http://www.w3.org/2000/svg" xmlns:xlink="http://www.w3.org/1999/xlink" fill="none" version="1.1" width="80" height="80" viewBox="0 0 80 80"><defs><mask id="master_svg0_411_15757" style="mask-type:alpha" maskUnits="objectBoundingBox"><g><rect x="0" y="0" width="80" height="80" rx="0" fill="#FFFFFF" fill-opacity="1"/></g></mask><filter id="master_svg1_411_15750" filterUnits="objectBoundingBox" color-interpolation-filters="sRGB" x="-5.336634240491688" y="-4.635329851331935" width="11.673268480983376" height="10.27065970266387"><feFlood flood-opacity="0" result="BackgroundImageFix"/><feBlend mode="normal" in="SourceGraphic" in2="BackgroundImageFix" result="shape"/><feGaussianBlur stdDeviation="8" result="effect1_foregroundBlur"/></filter><filter id="master_svg2_411_15749" filterUnits="objectBoundingBox" color-interpolation-filters="sRGB" x="-6.9258080762212995" y="-6.336602482228023" width="14.851616152442599" height="13.673204964456046"><feFlood flood-opacity="0" result="BackgroundImageFix"/><feBlend mode="normal" in="SourceGraphic" in2="BackgroundImageFix" result="shape"/><feGaussianBlur stdDeviation="7" result="effect1_foregroundBlur"/></filter><filter id="master_svg3_411_15748" filterUnits="objectBoundingBox" color-interpolation-filters="sRGB" x="-6.156301040518085" y="-5.28898879403849" width="13.31260208103617" height="11.57797758807698"><feFlood flood-opacity="0" result="BackgroundImageFix"/><feBlend mode="normal" in="SourceGraphic" in2="BackgroundImageFix" result="shape"/><feGaussianBlur stdDeviation="6.5" result="effect1_foregroundBlur"/></filter><filter id="master_svg4_411_15747" filterUnits="objectBoundingBox" color-interpolation-filters="sRGB" x="-0.27151020612772636" y="-0.5750951868487869" width="1.5430204122554527" height="2.1501903736975736"><feFlood flood-opacity="0" result="BackgroundImageFix"/><feColorMatrix in="SourceAlpha" type="matrix" values="0 0 0 0 0 0 0 0 0 0 0 0 0 0 0 0 0 0 127 0"/><feOffset dy="0" dx="0"/><feGaussianBlur stdDeviation="5"/><feColorMatrix type="matrix" values="0 0 0 0 0 0 0 0 0 0.4313725531101227 0 0 0 0 1 0 0 0 1 0"/><feBlend mode="normal" in2="BackgroundImageFix" result="effect1_dropShadow"/><feBlend mode="normal" in="SourceGraphic" in2="effect1_dropShadow" result="shape"/></filter><linearGradient x1="0.5" y1="0" x2="0.5" y2="1" id="master_svg5_107_1209"><stop offset="0%" stop-color="#0076FF" stop-opacity="0"/><stop offset="100%" stop-color="#0076FF" stop-opacity="0.4000000059604645"/></linearGradient><linearGradient x1="0.5" y1="0" x2="0.5" y2="1" id="master_svg6_107_1192"><stop offset="65.13116955757141%" stop-color="#0066EC" stop-opacity="1"/><stop offset="100%" stop-color="#0BFCFF" stop-opacity="1"/></linearGradient><linearGradient x1="0.2820283770561218" y1="0.15137939155101776" x2="0.8729827795519812" y2="0.31794471303941396" id="master_svg7_107_1195"><stop offset="0%" stop-color="#1997F0" stop-opacity="1"/><stop offset="100%" stop-color="#005AD0" stop-opacity="1"/></linearGradient><linearGradient x1="0.5" y1="0.9762207269668579" x2="0.5" y2="0" id="master_svg8_107_1197"><stop offset="0%" stop-color="#BFDAFF" stop-opacity="1"/><stop offset="77.14285850524902%" stop-color="#BFDAFF" stop-opacity="0.019999999552965164"/></linearGradient><filter id="master_svg9_411_15746" filterUnits="objectBoundingBox" color-interpolation-filters="sRGB" x="-1.1440861059765146" y="-3.7394436799378767" width="3.2881722119530292" height="8.478887359875753"><feFlood flood-opacity="0" result="BackgroundImageFix"/><feBlend mode="normal" in="SourceGraphic" in2="BackgroundImageFix" result="shape"/><feGaussianBlur stdDeviation="7" result="effect1_foregroundBlur"/></filter></defs><g mask="url(#master_svg0_411_15757)"><g><g><g transform="matrix(0.9087623953819275,-0.4173140227794647,0.41491538286209106,0.9098600149154663,-22.95018648355552,20.451716165963433)" filter="url(#master_svg1_411_15750)"><ellipse cx="38.37805759906769" cy="66.54453015327454" rx="2.9981443881988525" ry="3.4517500400543213" fill="#0BFFFF" fill-opacity="1"/></g><g transform="matrix(0.9087623357772827,-0.4173140525817871,0.4149153530597687,0.9098600149154663,-12.851136482198214,34.80927417457559)" filter="url(#master_svg2_411_15749)"><ellipse cx="75.26504647731781" cy="49.288177490234375" rx="2.0214247703552246" ry="2.209385871887207" fill="#0BFFFF" fill-opacity="1"/></g><g transform="matrix(0.9087623953819275,-0.41731396317481995,0.41491538286209106,0.9098600149154663,-19.451505346983716,4.7722940057589796)" filter="url(#master_svg3_411_15748)"><ellipse cx="3.361779570579529" cy="49.6134877204895" rx="2.1116576194763184" ry="2.4579367637634277" fill="#0BFFFF" fill-opacity="1"/></g><g filter="url(#master_svg4_411_15747)"><path d="M39.85395577526093,30.649920463562015L76.68505577526092,48.038320463562016L39.85395577526093,65.42682046356201L3.022955775260936,48.038320463562016L39.85395577526093,30.649920463562015Z" fill="#0C182C" fill-opacity="0.30000001192092896"/><path d="M75.51385577526092,47.48542046356201L39.85395577526093,30.64992046356201L4.194115775260926,47.48542046356201L3.0229557752609253,48.038320463562016L4.194115775260926,48.59122046356201L39.85395577526093,65.42682046356201L75.51385577526092,48.59122046356201L76.68505577526092,48.038320463562016L75.51385577526092,47.48542046356201ZM74.34265577526092,48.038320463562016L39.85395577526093,31.755760463562012L5.365285775260926,48.038320463562016L39.85395577526093,64.320920463562L74.34265577526092,48.038320463562016Z" fill-rule="evenodd" fill="#0066EC" fill-opacity="0.3799999952316284"/></g><g><path d="M7.544602494392395,46.82064484002686Q7.609892494392395,46.790735840026855,7.6641224943923945,46.74365984002686Q7.718352494392395,46.696583840026854,7.7571424943923954,46.636145840026856Q7.795942494392395,46.575708840026856,7.816152494392395,46.50679684002686Q7.836362494392395,46.437884240026854,7.836362494392395,46.366068840026855Q7.836362494392395,46.316823140026855,7.826752494392395,46.26852374002686Q7.817152494392395,46.220223840026854,7.798302494392395,46.17472684002686Q7.779462494392395,46.12922984002685,7.752102494392395,46.088283840026854Q7.724742494392395,46.047337840026856,7.689912494392395,46.01251584002686Q7.655092494392395,45.97769384002685,7.614152494392394,45.95033384002686Q7.573202494392396,45.92297484002685,7.527702494392395,45.90412884002686Q7.482212494392395,45.88528384002686,7.433912494392395,45.87567584002686Q7.3856124943923955,45.866068840026855,7.336362494392395,45.866068840026855Q7.227292494392395,45.866068840026855,7.1281324943923945,45.91149284002685L3.478209494392395,47.58345884002686Q3.397147494392395,47.620588840026855,3.333917494392395,47.68345884002686Q3.270687494392395,47.74631884002685,3.233084494392395,47.827158840026854Q3.212315494392395,47.871818840026855,3.200656494392395,47.919658840026855Q3.188997494392395,47.96750884002685,3.186897494392395,48.01670884002686Q3.184797494392395,48.06590884002686,3.192335494392395,48.114568840026855Q3.199874494392395,48.16323884002686,3.216762494392395,48.20949884002685Q3.2336494943923952,48.25575884002686,3.259237494392395,48.29782884002685Q3.2848264943923953,48.33990884002686,3.318131494392395,48.376188840026856Q3.351436494392395,48.41245884002686,3.391178494392395,48.44153884002686Q3.430920494392395,48.47061884002686,3.475572494392395,48.49138884002686L7.789112494392395,50.49774884002686Q7.889392494392395,50.544388840026855,7.999982494392395,50.544388840026855Q8.049232494392395,50.544388840026855,8.097532494392395,50.53477884002685Q8.145832494392394,50.525178840026854,8.191332494392395,50.50632884002685Q8.236822494392396,50.48747884002685,8.277772494392394,50.460128840026854Q8.318712494392395,50.43276884002685,8.353542494392395,50.39793884002685Q8.388362494392396,50.36311884002686,8.415722494392394,50.32217884002686Q8.443082494392396,50.281228840026856,8.461922494392395,50.23572884002686Q8.480772494392395,50.19023884002686,8.490382494392396,50.14193884002685Q8.499982494392395,50.093638840026856,8.499982494392395,50.044388840026855Q8.499982494392395,49.97294884002685,8.479972494392396,49.90435884002686Q8.459972494392396,49.83576884002686,8.421552494392394,49.775538840026854Q8.383132494392395,49.715298840026854,8.329382494392394,49.668228840026856Q8.275632494392395,49.62115884002686,8.210852494392395,49.59102884002686L4.879452494392395,48.041498840026854L7.544602494392395,46.82064484002686L7.544602494392395,46.82064484002686Z" fill-rule="evenodd" fill="#0BFEFF" fill-opacity="1"/></g><g><path d="M36.41242218132782,62.96535636541748L39.84378918132782,64.53720236541749L42.94722918132782,62.97341536541748Q43.05336918132782,62.91993236541748,43.17221918132782,62.91993236541748Q43.22146918132782,62.91993236541748,43.26976918132782,62.92953936541748Q43.31806918132782,62.93914736541748,43.36355918132782,62.95799236541748Q43.40905918132782,62.97683836541748,43.45000918132782,63.00419736541748Q43.49094918132782,63.03155736541748,43.52576918132782,63.06637936541748Q43.56059918132782,63.10120136541748,43.58795918132782,63.14214736541748Q43.61531918132782,63.18309336541748,43.63415918132782,63.22859036541748Q43.65300918132782,63.27408736541748,43.662609181327824,63.32238726541748Q43.67221918132782,63.37068666541748,43.67221918132782,63.41993236541748Q43.67221918132782,63.48937636541748,43.65329918132782,63.55619236541748Q43.63436918132782,63.62300736541748,43.59795918132782,63.68213636541748Q43.56153918132782,63.74126636541748,43.51038918132782,63.78823236541748Q43.45922918132782,63.83519936541748,43.39721918132782,63.86644836541748L40.07910918132782,65.53841236541749Q39.97733918132782,65.58969236541748,39.86340918132782,65.59181236541748Q39.74947918132782,65.59393236541749,39.64587918132782,65.54647236541749L35.99595618132782,63.87450836541748Q35.93066518132782,63.84459936541748,35.87643118132782,63.79752336541748Q35.82219818132782,63.75044736541748,35.78340618132782,63.69000936541748Q35.744615181327816,63.62957236541748,35.72440218132782,63.56066036541748Q35.70418918132782,63.49174776541748,35.70418918132782,63.41993236541748Q35.70418918132782,63.37068666541748,35.71379618132782,63.32238726541748Q35.72340418132782,63.27408736541748,35.74224918132782,63.22859036541748Q35.76109518132782,63.18309336541748,35.78845418132782,63.14214736541748Q35.815814181327816,63.10120136541748,35.85063618132782,63.06637936541748Q35.88545818132782,63.03155736541748,35.92640418132782,63.00419736541748Q35.96735018132782,62.97683836541748,36.01284718132782,62.95799236541748Q36.05834418132782,62.93914736541748,36.10664408132782,62.92953936541748Q36.15494348132782,62.91993236541748,36.20418918132782,62.91993236541748Q36.31326018132782,62.91993236541748,36.41242218132782,62.96535636541748Z" fill-rule="evenodd" fill="#0BFEFF" fill-opacity="1"/></g><g><path d="M71.91925916301727,45.57818096331787L76.23279916301728,47.58453896331787Q76.31296916301727,47.621828963317874,76.37548916301728,47.68433896331787Q76.43800916301727,47.74685896331787,76.47528916301727,47.82702896331787Q76.51723916301728,47.91720896331787,76.52147916301728,48.01656896331787Q76.52571916301727,48.11593896331787,76.49161916301728,48.20935896331787Q76.45750916301728,48.30278896331787,76.39024916301727,48.37604896331787Q76.32297916301727,48.44930896331787,76.23279916301728,48.49125896331787L71.91945516301728,50.49751896331787L71.91925916301727,50.49760896331787Q71.81898216301727,50.54424896331787,71.70838916301727,50.54424896331787Q71.65914346301727,50.54424896331787,71.61084406301727,50.53464896331787Q71.56254416301728,50.52503896331787,71.51704716301727,50.50618896331787Q71.47155016301727,50.48734896331787,71.43060416301728,50.45998896331787Q71.38965816301727,50.43262896331787,71.35483616301727,50.39780896331787Q71.32001416301728,50.362988963317875,71.29265416301727,50.32203896331787Q71.26529516301727,50.28108896331787,71.24644916301727,50.23559896331787Q71.22760416301728,50.19009896331787,71.21799616301728,50.14179896331787Q71.20838916301727,50.09349896331787,71.20838916301727,50.04424896331787Q71.20838916301727,49.972808963317874,71.22839816301727,49.904218963317874Q71.24840716301728,49.83563896331787,71.28682316301727,49.77539896331787Q71.32524016301727,49.71515896331787,71.37898916301727,49.668098963317874Q71.43273816301728,49.62102896331787,71.49751916301727,49.59089896331787L71.49771416301728,49.59080896331787L74.83636916301727,48.03789896331787L71.49751916301727,46.48489696331787Q71.43273816301728,46.45476596331787,71.37898916301727,46.40769796331787Q71.32524016301727,46.36062996331787,71.28682316301727,46.30039296331787Q71.24840716301728,46.24015496331787,71.22839816301727,46.17156996331787Q71.20838916301727,46.102983863317874,71.20838916301727,46.03153896331787Q71.20838916301727,45.98229326331787,71.21799616301728,45.93399386331787Q71.22760416301728,45.88569396331787,71.24644916301727,45.84019696331787Q71.26529516301727,45.79469996331787,71.29265416301727,45.75375396331787Q71.32001416301728,45.71280796331787,71.35483616301727,45.67798596331787Q71.38965816301727,45.64316396331787,71.43060416301728,45.61580396331787Q71.47155016301727,45.58844496331787,71.51704716301727,45.56959896331787Q71.56254416301728,45.550753963317874,71.61084406301727,45.541145963317874Q71.65914346301727,45.53153896331787,71.70838916301727,45.53153896331787Q71.81898216301727,45.53153896331787,71.91925916301727,45.57818096331787Z" fill-rule="evenodd" fill="#0BFEFF" fill-opacity="1"/></g><g><rect x="8.825788378715515" y="10.6242094039917" width="61.766910552978516" height="34.55881881713867" rx="0" fill="url(#master_svg5_107_1209)" fill-opacity="1"/></g><g><path d="M39.85416079845429,30.649920463562015L70.7126607984543,45.363220463562016L39.85416079845429,60.07652046356201L8.995760798454294,45.363220463562016L39.85416079845429,30.649920463562015Z" fill="url(#master_svg6_107_1192)" fill-opacity="1"/></g><g><path d="M39.853428384208684,30.649920463562015L68.05742838420868,44.025620463562014L39.853428384208684,57.401320463562016L11.649528384208688,44.025620463562014L39.853428384208684,30.649920463562015Z" fill="url(#master_svg7_107_1195)" fill-opacity="1"/><path d="M66.89052838420868,43.47222046356201L39.853428384208684,30.64992046356201L12.81637838420868,43.47222046356201L11.64952838420868,44.025620463562014L12.81637838420868,44.57902046356201L39.853428384208684,57.401320463562016L66.89052838420868,44.57902046356201L68.05742838420868,44.025620463562014L66.89052838420868,43.47222046356201ZM65.72372838420867,44.025620463562014L39.853428384208684,31.756680463562013L13.98322838420868,44.025620463562014L39.853428384208684,56.29462046356201L65.72372838420867,44.025620463562014Z" fill-rule="evenodd" fill="url(#master_svg8_107_1197)" fill-opacity="1"/></g><g filter="url(#master_svg9_411_15746)"><ellipse cx="39.70845401287079" cy="48.92737364768982" rx="12.236841201782227" ry="3.7438724040985107" fill="#0BF8FE" fill-opacity="1"/></g></g><g><path d="M53.208834210014345,27.91022777282715L53.26823421001434,28.068587772827147L53.26823421001434,28.760057772827146L53.208834210014345,28.92632777282715C53.17643421001434,29.018697772827146,53.12773421001434,29.124267772827146,53.10343421001434,29.16121777282715C53.08183421001434,29.198167772827148,53.06023421001434,29.23511777282715,53.06023421001434,29.240397772827148C53.06023421001434,29.27998777282715,52.76033421001434,29.604607772827148,52.69273421001434,29.64155777282715C52.67653421001434,29.652117772827147,52.63873421001435,29.691697772827148,52.611634210014344,29.72864777282715L52.563034210014344,29.797267772827148L52.54683421001434,41.09045777282715L52.50903421001434,41.21455777282715C52.484734210014345,41.28315777282715,52.45493421001434,41.386057772827144,52.438734210014346,41.44675777282715C52.40633421001434,41.544457772827144,52.34143421001434,41.70275777282715,52.29553421001434,41.78455777282715C52.28473421001434,41.800457772827144,52.26043421001434,41.84525777282715,52.24153421001434,41.882257772827145C52.187434210014345,41.98255777282715,52.044234210014345,42.188357772827146,52.02803421001434,42.188357772827146C52.022634210014346,42.188357772827146,52.01183421001434,42.201557772827144,52.00643421001435,42.217457772827146C51.99833421001434,42.24385777282715,51.838934210014344,42.407457772827144,51.701134210014345,42.53415777282714C51.65243421001435,42.57895777282715,51.46873421001435,42.71095777282714,51.42013421001434,42.73465777282715C51.398434210014344,42.745257772827145,51.376834210014344,42.761057772827144,51.37143421001434,42.76635777282715C51.33903421001435,42.80855777282714,50.87423421001434,43.00655777282715,50.74723421001434,43.03025777282715C50.706734210014346,43.03825777282715,50.59863421001434,43.06195777282715,50.509534210014344,43.083057772827146L50.350134210014346,43.12005777282715L39.23933421001434,43.122657772827154C33.130084210014346,43.12525777282715,28.085404210014342,43.12005777282715,28.028664210014345,43.112157772827146C27.771974210014342,43.07515777282715,27.363964210014345,42.97225777282715,27.320734210014344,42.92995777282715C27.309924210014344,42.919457772827144,27.28831421001434,42.91415777282715,27.272104210014344,42.91415777282715C27.255884210014344,42.91415777282715,27.201847210014343,42.89305777282715,27.155912210014343,42.86405777282715C27.107276210014344,42.83765777282715,27.064043210014344,42.81385777282715,27.055937210014342,42.81385777282715C27.028917210014342,42.81385777282715,26.793841210014342,42.64495777282715,26.704674210014343,42.56055777282715C26.62091121001434,42.483957772827154,26.464194210014345,42.29925777282715,26.464194210014345,42.27815777282715C26.464194210014345,42.27545777282715,26.442578210014343,42.235857772827146,26.412855210014342,42.19105777282715C26.385835210014342,42.14875777282715,26.337199010014345,42.04325777282715,26.307476710014342,41.95615777282715L26.250734210014343,41.800457772827144L26.250734210014343,41.05875777282715L26.318284210014344,40.83715777282715C26.356112210014345,40.72095777282715,26.399345210014342,40.59165777282715,26.418259210014345,40.549457772827154C26.510128210014344,40.351457772827146,26.639825210014344,40.10075777282715,26.723588210014345,39.97145777282715C26.831669210014343,39.79725777282715,26.95596221001434,39.60455777282715,26.991088210014343,39.55445777282715L27.080255210014343,39.41455777282715C27.115381210014345,39.359157772827146,27.150507210014343,39.30375777282715,27.161316210014345,39.29315777282714C27.182932210014343,39.26415777282715,27.31262421001434,39.06615777282715,27.31262421001434,39.05825777282715C27.31262421001434,39.05035777282715,27.407204210014342,38.90785777282715,27.482854210014345,38.799657772827146C27.501774210014343,38.77325777282715,27.515284210014343,38.74685777282715,27.515284210014343,38.74425777282715C27.515284210014343,38.74155777282715,27.542304210014343,38.69145777282715,27.580134210014343,38.641257772827146C27.639574210014345,38.55415777282715,27.674704210014344,38.49875777282715,27.771974210014342,38.34565777282715C27.793594210014344,38.31135777282715,27.836824210014342,38.24275777282715,27.871944210014345,38.19265777282715C27.904374210014343,38.14245777282715,27.953004210014342,38.06595777282715,27.980024210014342,38.02365777282715C28.007054210014342,37.97885777282715,28.034074210014342,37.94455777282715,28.042174210014345,37.94455777282715C28.047584210014342,37.94455777282715,28.052984210014344,37.93395777282715,28.052984210014344,37.92345777282715C28.052984210014344,37.91285777282715,28.074604210014343,37.873257772827145,28.104324210014344,37.83635777282715C28.131344210014344,37.80205777282715,28.155664210014343,37.76505777282715,28.155664210014343,37.75975777282714C28.155664210014343,37.74925777282715,28.325884210014344,37.48525777282715,28.428564210014343,37.337557772827154C28.455584210014344,37.30055777282715,28.477204210014342,37.263657772827145,28.477204210014342,37.26095777282715C28.477204210014342,37.25565777282715,28.523134210014344,37.184457772827145,28.579874210014342,37.09995777282715C28.636624210014343,37.01815777282715,28.682554210014345,36.946857772827144,28.682554210014345,36.94165777282715C28.682554210014345,36.93895777282715,28.709574210014342,36.896757772827144,28.742004210014343,36.85455777282715C28.774424210014345,36.80965777282715,28.801444210014342,36.770057772827144,28.801444210014342,36.76475777282715C28.801444210014342,36.75955777282715,28.847374210014344,36.68825777282715,28.898714210014344,36.61175777282715C28.952754210014344,36.53255777282715,29.006794210014345,36.44805777282715,29.023014210014342,36.42435777282715C29.085154210014345,36.31875777282715,29.150004210014345,36.21845777282715,29.187834210014344,36.17625777282715C29.209454210014343,36.14985777282715,29.225664210014344,36.12345777282715,29.225664210014344,36.115557772827145C29.225664210014344,36.10495777282715,29.247274210014343,36.06535777282715,29.274304210014343,36.028457772827146C29.393184210014343,35.856957772827144,29.547204210014343,35.62205777282715,29.547204210014343,35.61675777282715C29.547204210014343,35.60885777282715,29.666094210014343,35.43195777282715,29.717434210014343,35.35545777282715C29.725534210014345,35.342257772827146,29.744454210014343,35.31585777282715,29.755264210014342,35.29735777282715C29.801194210014344,35.21825777282715,29.903874210014344,35.05725777282715,29.920084210014345,35.03875777282715C29.947104210014345,35.00975777282715,30.071394210014343,34.81445777282715,30.071394210014343,34.80385777282715C30.071394210014343,34.79855777282715,30.093014210014342,34.76425777282715,30.120034210014342,34.72735777282715C30.147054210014343,34.68775777282715,30.195694210014345,34.613857772827146,30.230814210014344,34.55845777282715C30.265944210014343,34.502957772827145,30.317284210014343,34.42645777282715,30.341604210014342,34.38945777282715C30.368624210014342,34.35255777282715,30.39023421001434,34.31555777282715,30.39023421001434,34.310357772827146C30.39023421001434,34.30245777282715,30.411854210014344,34.26805777282715,30.438874210014344,34.231157772827146C30.463194210014343,34.191557772827146,30.514524210014343,34.11765777282715,30.549654210014342,34.06225777282715C30.582074210014344,34.006857772827146,30.633414210014344,33.93295777282715,30.657734210014343,33.895957772827146C30.682054210014343,33.85905777282715,30.714474210014345,33.808857772827146,30.725284210014344,33.78515777282715C30.738794210014344,33.75875777282715,30.760414210014343,33.72445777282715,30.776624210014344,33.70855777282715C30.790134210014344,33.69015777282715,30.814454210014343,33.65845777282715,30.827964210014343,33.63465777282715C30.871194210014345,33.56345777282715,31.044124210014342,33.29155777282715,31.13329421001434,33.159657772827146C31.179224210014343,33.09365777282715,31.22516421001434,33.02505777282715,31.230564210014343,33.01185777282715C31.241374210014342,32.98805777282715,31.414304210014343,32.72415777282715,31.508874210014344,32.58695777282715C31.535894210014344,32.54995777282715,31.557514210014343,32.51035777282715,31.557514210014343,32.50505777282715C31.561764210014342,32.48845777282715,31.570104210014343,32.47305777282715,31.581824210014343,32.46025777282715C31.627764210014345,32.40485777282715,31.760164210014345,32.19895777282715,31.760164210014345,32.188357772827146C31.760164210014345,32.183157772827144,31.787184210014345,32.14355777282715,31.819604210014344,32.10125777282715C31.852034210014345,32.059057772827146,31.879054210014345,32.01945777282715,31.879054210014345,32.008957772827145C31.879054210014345,32.00105777282715,31.895264210014343,31.971957772827146,31.916884210014345,31.94555777282715C31.938494210014344,31.91915777282715,31.976324210014344,31.866457772827147,32.00064421001434,31.82415777282715C32.06819421001434,31.71335777282715,32.07900421001435,31.69745777282715,32.189784210014345,31.525957772827148C32.30056421001434,31.357057772827147,32.303274210014344,31.35175777282715,32.39243421001434,31.20665777282715C32.42486421001434,31.15385777282715,32.462684210014345,31.09835777282715,32.47619421001434,31.08525777282715C32.489704210014345,31.07205777282715,32.500514210014344,31.053557772827148,32.500514210014344,31.04565777282715C32.500514210014344,31.03765777282715,32.527534210014345,30.995457772827148,32.55996421001434,30.950557772827146C32.592384210014345,30.90835777282715,32.619404210014345,30.86615777282715,32.619404210014345,30.86085777282715C32.619404210014345,30.85035777282715,32.70316421001434,30.72095777282715,32.78963421001434,30.59958777282715C32.80854421001435,30.57319777282715,32.82205421001434,30.54944777282715,32.82205421001434,30.544167772827148C32.82205421001434,30.53624777282715,32.84367421001434,30.501937772827148,32.87069421001434,30.46498777282715C32.89771421001434,30.42540777282715,32.94635421001434,30.351507772827148,32.98147421001434,30.296077772827147C33.01660421001434,30.24065777282715,33.067944210014346,30.164117772827147,33.092254210014346,30.12716777282715C33.11928421001434,30.09022777282715,33.140894210014345,30.053277772827148,33.140894210014345,30.04799777282715C33.140894210014345,30.042717772827146,33.16251421001434,30.00576777282715,33.189534210014344,29.968817772827148C33.216554210014344,29.929227772827147,33.26519421001434,29.85533777282715,33.30031421001434,29.799907772827147C33.37597421001434,29.68378777282715,33.462434210014344,29.55445777282715,33.50567421001434,29.488477772827146C33.52188421001434,29.462087772827147,33.543494210014345,29.43041777282715,33.554304210014344,29.414587772827147C33.60564421001435,29.330127772827147,33.692114210014346,29.198167772827148,33.73534421001435,29.13746777282715C33.75966421001434,29.100517772827146,33.781274210014345,29.06620777282715,33.781274210014345,29.05828777282715C33.781274210014345,29.05300777282715,33.79478421001434,29.026617772827148,33.81370421001434,29.00286777282715C33.892054210014344,28.889377772827146,33.983924210014344,28.752137772827147,33.983924210014344,28.74422777282715C33.983924210014344,28.738947772827146,34.02175421001434,28.67824777282715,34.07039421001434,28.606987772827146C34.119024210014345,28.538367772827147,34.18117421001434,28.44335777282715,34.20549421001434,28.40112777282715L34.25413421001434,28.321947772827148L34.25413421001434,22.49983777282715L33.65698421001434,22.49455777282715L33.059834210014344,22.489277772827148L32.89771421001434,22.41274777282715C32.465394210014345,22.20160777282715,32.26003421001434,21.77141777282715,32.37622421001434,21.314831772827148C32.419454210014344,21.13800477282715,32.49511421001434,21.01132277282715,32.635614210014346,20.876722772827147C32.71938421001434,20.794906772827147,32.792334210014346,20.744761772827147,32.89771421001434,20.694616572827147L33.040924210014346,20.62335777282715L41.22263421001434,20.62335777282715L41.355034210014345,20.68142047282715C41.45503421001435,20.726286772827148,41.51713421001435,20.76851477282715,41.60903421001434,20.85560877282715C41.76303421001434,21.000765772827148,41.779234210014344,21.021878772827147,41.84143421001434,21.156479772827147C41.89813421001434,21.277882772827148,41.94143421001434,21.44415377282715,41.94143421001434,21.549721772827148C41.94143421001434,21.805727772827147,41.79003421001434,22.119797772827148,41.59013421001434,22.275507772827147C41.54693421001434,22.31245777282715,41.506334210014344,22.34412777282715,41.50093421001434,22.34940777282715C41.47933421001434,22.378437772827148,41.24963421001434,22.468167772827147,41.16593421001434,22.48136777282715C41.11453421001434,22.489287772827147,40.838934210014344,22.49719777282715,40.55253421001434,22.49719777282715L40.03103421001434,22.49719777282715L40.03103421001434,27.43780777282715L40.13913421001435,27.32960777282715C40.38503421001434,27.089437772827146,40.687634210014345,26.93899777282715,41.03893421001435,26.88357777282715C41.109134210014346,26.870377772827148,41.96303421001434,26.865107772827148,43.55723421001434,26.865107772827148C45.867434210014345,26.865107772827148,46.02273421001434,26.862987772827147,46.14813421001435,26.92314777282715C46.16283421001434,26.930187772827146,46.177134210014344,26.93807777282715,46.19433421001435,26.94691777282715C46.47543421001434,27.086797772827147,46.607834210014346,27.432537772827146,46.49703421001435,27.746597772827148C46.44563421001435,27.891757772827148,46.291634210014344,28.050107772827147,46.14573421001434,28.108177772827148L46.04843421001434,28.14511777282715L43.62473421001434,28.153037772827147C41.312634210014345,28.16198777282715,41.11653421001434,28.153877772827148,41.06783421001434,28.23464777282715C41.059034210014346,28.249217772827148,41.05503421001434,28.266667772827148,41.04433421001434,28.287637772827146C41.02273421001434,28.32722777282715,40.998434210014345,28.42223777282715,40.987534210014346,28.501417772827146C40.974034210014345,28.61226777282715,40.95513421001434,28.662407772827148,40.917334210014346,28.72310777282715C40.89553421001435,28.756587772827146,40.88213421001434,28.77564777282715,40.879634210014345,28.79600777282715C40.87573421001434,28.828607772827148,40.90003421001434,28.86458777282715,40.96323421001434,28.968557772827147C40.98483421001434,29.005507772827148,41.020034210014344,29.06356777282715,41.041634210014344,29.100517772827146C41.06323421001434,29.13746777282715,41.10103421001435,29.19552777282715,41.125334210014344,29.23247777282715C41.15243421001434,29.26942777282715,41.190234210014346,29.332767772827147,41.211834210014345,29.369717772827148C41.25363421001434,29.448547772827148,41.29963421001435,29.52518777282715,41.349634210014344,29.59932777282715C41.376634210014345,29.63891777282715,41.39563421001434,29.673227772827147,41.39563421001434,29.678507772827146C41.39563421001434,29.68378777282715,41.41723421001434,29.72073777282715,41.44693421001434,29.76031777282715C41.47393421001434,29.799907772827147,41.498234210014346,29.83685777282715,41.498234210014346,29.84213777282715C41.498234210014346,29.85005777282715,41.52523421001435,29.892287772827146,41.557734210014345,29.93978777282715C41.59013421001434,29.987297772827148,41.61713421001434,30.032157772827148,41.61713421001434,30.037437772827147C41.61713421001434,30.042717772827146,41.641434210014346,30.07966777282715,41.66853421001434,30.119257772827147C41.695534210014344,30.158847772827148,41.71983421001434,30.19842777282715,41.71983421001434,30.203707772827148C41.71983421001434,30.20898777282715,41.744134210014344,30.245937772827148,41.771134210014345,30.285527772827148C41.79823421001434,30.32511777282715,41.82253421001434,30.362067772827146,41.82253421001434,30.36734777282715C41.82253421001434,30.375257772827148,41.84953421001434,30.417487772827148,41.88193421001434,30.464997772827147C41.914334210014346,30.512497772827146,41.94143421001434,30.55736777282715,41.94143421001434,30.562647772827148C41.94143421001434,30.567917772827148,41.96303421001434,30.60486777282715,41.99273421001435,30.64445777282715C42.01973421001434,30.68405777282715,42.044034210014345,30.72365777282715,42.044034210014345,30.72895777282715C42.05353421001434,30.751657772827148,42.06623421001434,30.772957772827148,42.081934210014346,30.79225777282715C42.103534210014345,30.82125777282715,42.14133421001434,30.876757772827148,42.160234210014345,30.916257772827148C42.17753421001434,30.949957772827148,42.19843421001434,30.981857772827148,42.22243421001434,31.011357772827147C42.23593421001434,31.024457772827148,42.246734210014345,31.04295777282715,42.246734210014345,31.053557772827148C42.246734210014345,31.064057772827148,42.26293421001434,31.09575777282715,42.28453421001434,31.11955777282715L42.32233421001435,31.16705777282715L44.67853421001435,31.132757772827148C45.975534210014345,31.111557772827148,47.90473421001434,31.08525777282715,48.96933421001434,31.07205777282715C50.033934210014344,31.058857772827146,50.98233421001434,31.04295777282715,51.07693421001434,31.03765777282715L51.247134210014345,31.02715777282715L51.252534210014346,30.29872777282715L51.260634210014345,29.570297772827146L51.31473421001434,29.417227772827147C51.34443421001434,29.332767772827147,51.382234210014346,29.23775777282715,51.40113421001435,29.203447772827147C51.47953421001434,29.047737772827148,51.49573421001435,29.02397777282715,51.544434210014344,28.96063777282715C51.62543421001435,28.855077772827148,51.72543421001434,28.75214777282715,51.822734210014346,28.67296777282715C51.987534210014346,28.53044777282715,52.01993421001434,28.416957772827146,51.928034210014346,28.27444777282715C51.91413421001434,28.25276777282715,51.90383421001434,28.23471777282715,51.89013421001434,28.219697772827146C51.81893421001435,28.141407772827147,51.65753421001435,28.14511777282715,50.43113421001434,28.14511777282715C49.201734210014344,28.14511777282715,49.15583421001435,28.14248777282715,49.05313421001434,28.110807772827147C48.885634210014345,28.05802777282715,48.76943421001434,27.957737772827148,48.67753421001434,27.788827772827148C48.626234210014346,27.69645777282715,48.62353421001434,27.680617772827148,48.62353421001434,27.509067772827148C48.62353421001434,27.334887772827148,48.626234210014346,27.321687772827147,48.68023421001435,27.218757772827146C48.750534210014344,27.084157772827147,48.861234210014345,26.981227772827147,49.00443421001434,26.91524777282715L49.11523421001434,26.86509777282715L51.936134210014345,26.86509777282715L52.10103421001435,26.909967772827148C52.63873421001435,27.060407772827148,53.01433421001434,27.39822777282715,53.208834210014345,27.91022777282715ZM31.862754210014344,35.58525777282715C31.862854210014344,35.59835777282715,32.932624210014346,35.603557772827145,37.13183421001435,35.603557772827145C40.03643421001434,35.603557772827145,42.41693421001435,35.58505777282715,42.41693421001435,35.57715777282715C42.41693421001435,35.56925777282715,42.40883421001435,35.556057772827145,42.398034210014345,35.54545777282715C42.389934210014346,35.53755777282715,42.371034210014344,35.51385777282715,42.36023421001434,35.49535777282715C42.349434210014344,35.476857772827145,42.30883421001434,35.40825777282715,42.26563421001434,35.342257772827146C42.22243421001434,35.27895777282715,42.17643421001434,35.205057772827146,42.16293421001434,35.18125777282715C42.14943421001434,35.15755777282715,42.13323421001434,35.13375777282715,42.12783421001434,35.12845777282715C42.117034210014346,35.12055777282715,42.044034210014345,35.00445777282715,41.95223421001434,34.85665777282715C41.935934210014345,34.82495777282715,41.89813421001434,34.77215777282715,41.873834210014344,34.73525777282715C41.84683421001434,34.69565777282715,41.809034210014346,34.64025777282715,41.78733421001434,34.605957772827146C41.76303421001434,34.57165777282715,41.71983421001434,34.50035777282715,41.68473421001434,34.45015777282715C41.65223421001434,34.40265777282715,41.622534210014344,34.349957772827146,41.622534210014344,34.34195777282715C41.622534210014344,34.33405777282715,41.61173421001435,34.31555777282715,41.59823421001434,34.30505777282715C41.584734210014346,34.294457772827144,41.54963421001435,34.24175777282715,41.519834210014345,34.191557772827146C41.49013421001435,34.13875777282715,41.46043421001434,34.093957772827146,41.45503421001435,34.08865777282715C41.44423421001434,34.07805777282715,41.35233421001434,33.93555777282715,41.298334210014346,33.84315777282715C41.279434210014344,33.814157772827144,41.25773421001434,33.77985777282715,41.24963421001434,33.769257772827146C41.238834210014346,33.75875777282715,41.19563421001435,33.69535777282715,41.15243421001434,33.62675777282715C41.109134210014346,33.560757772827145,41.047034210014345,33.463157772827145,41.01463421001434,33.41295777282715C40.97943421001435,33.36545777282715,40.933534210014344,33.29425777282715,40.911934210014344,33.257257772827145C40.88763421001434,33.22035777282715,40.84703421001434,33.159657772827146,40.82003421001434,33.12265777282715C40.79303421001434,33.083057772827146,40.77143421001434,33.048757772827145,40.77143421001434,33.04615777282715C40.77143421001434,33.04085777282715,40.73083421001434,32.98015777282715,40.68223421001434,32.906257772827146C40.593034210014345,32.776957772827146,40.52553421001434,32.67405777282715,40.45253421001434,32.54995777282715C40.41203421001434,32.48395777282715,40.26613421001434,32.25965777282715,40.17963421001434,32.135657772827145C40.15263421001434,32.10125777282715,40.128334210014344,32.059057772827146,40.12293421001434,32.04585777282715C40.11753421001434,32.03265777282715,40.08243421001434,31.977257772827148,40.04453421001434,31.92185777282715C39.955434210014346,31.789857772827148,39.83923421001434,31.60775777282715,39.80953421001434,31.55235777282715C39.795934210014345,31.531257772827146,39.77973421001434,31.50745777282715,39.774334210014345,31.502157772827147C39.760834210014345,31.496957772827148,39.666234210014345,31.34645777282715,39.609534210014345,31.24885777282715C39.59873421001434,31.230357772827148,39.582534210014344,31.201357772827148,39.57173421001434,31.188157772827147C39.50413421001434,31.09575777282715,39.385234210014346,30.91105777282715,39.385234210014346,30.90045777282715C39.385234210014346,30.895157772827147,39.36093421001434,30.86085777282715,39.33393421001434,30.82655777282715C39.30423421001434,30.79225777282715,39.28263421001434,30.757957772827147,39.28263421001434,30.74735777282715C39.28263421001434,30.739457772827148,39.26093421001434,30.70515777282715,39.23123421001434,30.670857772827148C39.20423421001434,30.636557772827146,39.179934210014345,30.60222777282715,39.179934210014345,30.594317772827146C39.179934210014345,30.586397772827148,39.152934210014344,30.54680777282715,39.120434210014345,30.504577772827147C39.08803421001434,30.46234777282715,39.06103421001434,30.42276777282715,39.06103421001434,30.417487772827148C39.06103421001434,30.406927772827146,38.955634210014345,30.243297772827148,38.89083421001435,30.15356777282715C38.88273421001434,30.140367772827148,38.86373421001434,30.11133777282715,38.85293421001434,30.09285777282715C38.80703421001434,30.013687772827147,38.704334210014345,29.85533777282715,38.68813421001434,29.83421777282715C38.66113421001434,29.805187772827146,38.53683421001434,29.60988777282715,38.53683421001434,29.59932777282715C38.53683421001434,29.59668777282715,38.51523421001434,29.559737772827148,38.48823421001434,29.52278777282715C38.46113421001434,29.485837772827146,38.404434210014344,29.39874777282715,38.35853421001434,29.330127772827147C38.315234210014346,29.26414777282715,38.24233421001434,29.15329777282715,38.19633421001434,29.08467777282715C38.15313421001434,29.016057772827146,38.11533421001434,28.95799777282715,38.11533421001434,28.95007777282715C38.11533421001434,28.944807772827147,38.10453421001434,28.92896777282715,38.09103421001434,28.91840777282715C38.06943421001434,28.899937772827148,38.066734210014346,28.522527772827146,38.066734210014346,25.698567772827147L38.066734210014346,22.49719777282715L36.191484210014345,22.49719777282715L36.191484210014345,28.89465777282715L36.14014421001434,28.968557772827147C36.11312421001434,29.00814777282715,36.088804210014345,29.04508777282715,36.088804210014345,29.047727772827148C36.088804210014345,29.05300777282715,36.045574210014344,29.121627772827146,35.99153421001434,29.200807772827147C35.934794210014346,29.27997777282715,35.88074421001434,29.36443777282715,35.869944210014346,29.38555777282715C35.85642421001434,29.409307772827148,35.840214210014345,29.435697772827147,35.83211421001434,29.443617772827146C35.81589421001434,29.464727772827146,35.68890421001434,29.65474777282715,35.65107421001434,29.71809777282715C35.551104210014344,29.884367772827147,35.51057421001434,29.94770777282715,35.48895421001434,29.96353777282715C35.475444210014345,29.97409777282715,35.464634210014346,29.989937772827147,35.464634210014346,30.00048777282715C35.464634210014346,30.018967772827146,35.41600421001434,30.09285777282715,35.291704210014345,30.272327772827147C35.267394210014345,30.309277772827148,35.245774210014346,30.34358777282715,35.245774210014346,30.351507772827148C35.245774210014346,30.35677777282715,35.22686421001434,30.38845777282715,35.202544210014345,30.42012777282715C35.17822421001434,30.45179777282715,35.14580421001435,30.49929777282715,35.12958421001434,30.52569777282715C35.07824421001435,30.618067772827146,34.97286421001434,30.78165777282715,34.95935421001434,30.789657772827148C34.953954210014345,30.79485777282715,34.937744210014344,30.815957772827147,34.92423421001435,30.83975777282715C34.90261421001434,30.88195777282715,34.781024210014344,31.07995777282715,34.724284210014346,31.161757772827148C34.71077421001434,31.18285777282715,34.66483421001434,31.25415777282715,34.62160421001434,31.317457772827147C34.508124210014344,31.496957772827148,34.432464210014345,31.613057772827148,34.40274421001435,31.65525777282715C34.389234210014344,31.67635777282715,34.34599421001434,31.742357772827148,34.305474210014346,31.80575777282715C34.26764421001434,31.869057772827148,34.20549421001434,31.964057772827147,34.167664210014344,32.01945777282715L34.08930421001434,32.14355777282715C34.07849421001434,32.16465777282715,34.05147421001434,32.20685777282715,33.93529421001434,32.37845777282715C33.90556421001434,32.42325777282715,33.88125421001434,32.46555777282715,33.88125421001434,32.473457772827146C33.88125421001434,32.47875777282715,33.86504421001435,32.50775777282715,33.84342421001434,32.53415777282715C33.80559421001434,32.57635777282715,33.738044210014344,32.67665777282715,33.678594210014346,32.78225777282715C33.66508421001434,32.80595777282715,33.608344210014344,32.89305777282715,33.554304210014344,32.97485777282715C33.36516421001434,33.25995777282715,33.340844210014346,33.29685777282715,33.340844210014346,33.31005777282715C33.340844210014346,33.31795777282715,33.32733421001434,33.336457772827146,33.31112421001434,33.35495777282715C33.28410421001434,33.383957772827145,33.20844421001434,33.50005777282715,33.13819421001434,33.61625777282715C33.09496421001434,33.68485777282715,32.99228421001435,33.83795777282715,32.95175421001434,33.89065777282715C32.932844210014345,33.911757772827144,32.91662421001434,33.93815777282715,32.91662421001434,33.94615777282715C32.91662421001434,33.95135777282715,32.89231421001434,33.99625777282715,32.85988421001434,34.04115777282715C32.749104210014345,34.20215777282715,32.60589421001434,34.42115777282715,32.57887421001434,34.46605777282715C32.52213421001434,34.56105777282715,32.42215421001434,34.71935777282715,32.411354210014345,34.72735777282715C32.40594421001434,34.73255777282715,32.389734210014346,34.756357772827144,32.37622421001434,34.78015777282715C32.36001421001434,34.80385777282715,32.316774210014344,34.87775777282715,32.27354421001434,34.94105777282715C32.233014210014346,35.007057772827146,32.189784210014345,35.07305777282715,32.18167421001434,35.08885777282715C32.097914210014345,35.220857772827145,32.06278421001434,35.27625777282715,32.01955421001434,35.33435777282715C31.99253421001434,35.37125777282715,31.970924210014342,35.40825777282715,31.970924210014342,35.41355777282715C31.970924210014342,35.41875777282715,31.949304210014343,35.45575777282715,31.924984210014344,35.49265777282715C31.897964210014344,35.53225777282715,31.870944210014343,35.57455777282715,31.862844210014345,35.58505777282715L31.862754210014344,35.58525777282715ZM48.687834210014344,41.812057772827146C48.72233421001434,41.82975777282715,48.76743421001434,41.82685777282715,48.861234210014345,41.82685777282715C48.92213421001434,41.82685777282715,48.97403421001434,41.823857772827154,49.00403421001434,41.82215777282715C49.020034210014344,41.82125777282715,49.02973421001434,41.82075777282715,49.03153421001434,41.82115777282715C49.03133421001434,41.810757772827145,49.02593421001434,41.80035777282715,49.015334210014345,41.79515777282715C49.007234210014346,41.78985777282715,48.97203421001434,41.73705777282715,48.93963421001435,41.68165777282715C48.90453421001435,41.626257772827145,48.847734210014345,41.53645777282715,48.80993421001435,41.48105777282715C48.77483421001435,41.42565777282715,48.73163421001434,41.35705777282715,48.718034210014345,41.32795777282715C48.704534210014344,41.29895777282715,48.68563421001434,41.27255777282715,48.67753421001434,41.26725777282715C48.669434210014344,41.26205777282715,48.63163421001434,41.209257772827144,48.596434210014344,41.14855777282715C48.561334210014344,41.08785777282715,48.52083421001434,41.02185777282715,48.50733421001434,41.00075777282715L48.42893421001435,40.876657772827144C48.401934210014346,40.826557772827144,48.33433421001435,40.726257772827154,48.28573421001434,40.652357772827145C48.23713421001435,40.57845777282715,48.17493421001434,40.478157772827146,48.145234210014344,40.43335777282715C48.11823421001434,40.38575777282715,48.04253421001434,40.269657772827145,47.980434210014344,40.174657772827146C47.91553421001434,40.08225777282715,47.864234210014345,40.00045777282715,47.864234210014345,39.99255777282715C47.864234210014345,39.98725777282715,47.84803421001435,39.96085777282715,47.82643421001434,39.93185777282714C47.80483421001434,39.90545777282715,47.75073421001434,39.821057772827146,47.707534210014344,39.74975777282715C47.66153421001434,39.678457772827144,47.585934210014344,39.55445777282715,47.534634210014346,39.47795777282715C47.48593421001434,39.40135777282715,47.44543421001434,39.33015777282715,47.44273421001434,39.324857772827144C47.44273421001434,39.31955777282715,47.42923421001434,39.29845777282715,47.413034210014345,39.279957772827146C47.39403421001434,39.26415777282715,47.36973421001434,39.22715777282715,47.35893421001434,39.20345777282715C47.345434210014346,39.17705777282715,47.318434210014345,39.13745777282715,47.29953421001434,39.10845777282715C47.28063421001434,39.08205777282715,47.24273421001435,39.021357772827145,47.21573421001435,38.976457772827146C47.188734210014346,38.93155777282715,47.161734210014345,38.89195777282715,47.15633421001434,38.88675777282715C47.15093421001434,38.88145777282715,47.134734210014344,38.86035777282714,47.12113421001435,38.83655777282715C47.10763421001434,38.810157772827154,47.06443421001434,38.73895777282715,47.02123421001434,38.67295777282715C46.97793421001434,38.606957772827144,46.93473421001434,38.53305777282715,46.91853421001434,38.509357772827144C46.902334210014345,38.48555777282715,46.85903421001434,38.416957772827146,46.82123421001434,38.35885777282715C46.78343421001434,38.30085777282714,46.72663421001434,38.21375777282715,46.69693421001435,38.16355777282715C46.61053421001434,38.02895777282715,46.578034210014344,37.97885777282715,46.49973421001434,37.85475777282715C46.40693421001434,37.705057772827146,46.312434210014345,37.55635777282715,46.21603421001434,37.408757772827144C46.19433421001435,37.37975777282715,46.17813421001434,37.35335777282715,46.17813421001434,37.34805777282715C46.17813421001434,37.34275777282715,46.126834210014344,37.263657772827145,46.06743421001434,37.17385777282715C46.00523421001434,37.08145777282715,45.95663421001434,37.00235777282715,45.95663421001434,36.99445777282715C45.95663421001434,36.98645777282715,45.93223421001434,36.95215777282715,45.90523421001434,36.91785777282715C45.875534210014344,36.880957772827145,45.853934210014344,36.84395777282715,45.853934210014344,36.83865777282715C45.853934210014344,36.82815777282715,45.83503421001434,36.796457772827154,45.810734210014346,36.76475777282715C45.786334210014346,36.73315777282715,45.75393421001434,36.68565777282715,45.73773421001434,36.65925777282715C45.72153421001434,36.63285777282715,45.67833421001434,36.56155777282715,45.637734210014344,36.498257772827145C45.59993421001434,36.43755777282715,45.55673421001434,36.371557772827146,45.545934210014345,36.35305777282715C45.53783421001434,36.33455777282715,45.50533421001434,36.28705777282715,45.48103421001434,36.25015777282715C45.45403421001434,36.213157772827145,45.43243421001434,36.17625777282715,45.43243421001434,36.17095777282715C45.43243421001434,36.163057772827145,45.41083421001434,36.12875777282715,45.38643421001434,36.09175777282715C45.34053421001434,36.028457772827146,45.25403421001434,35.89385777282715,45.200034210014344,35.80675777282715C45.18923421001435,35.78825777282715,45.14603421001434,35.72225777282715,45.10813421001434,35.65895777282715C45.06763421001435,35.59825777282715,45.02983421001434,35.53495777282715,45.01903421001434,35.519057772827146C44.97033421001434,35.43725777282715,44.883934210014345,35.302657772827146,44.84063421001434,35.24195777282715C44.81363421001434,35.205057772827146,44.79203421001434,35.16805777282715,44.79203421001434,35.16275777282715C44.79203421001434,35.15755777282715,44.77043421001434,35.12055777282715,44.74613421001435,35.08365777282715C44.71903421001434,35.044057772827145,44.689334210014344,34.99915777282715,44.67853421001435,34.98065777282715C44.667734210014345,34.96225777282715,44.62723421001434,34.90155777282715,44.58933421001434,34.84085777282715C44.55153421001434,34.78005777282715,44.48133421001434,34.66925777282715,44.43263421001434,34.59275777282715C44.38403421001434,34.51615777282715,44.32993421001434,34.42905777282715,44.308334210014344,34.40005777282715C44.286734210014345,34.373657772827144,44.27053421001435,34.34465777282715,44.27053421001435,34.33935777282715C44.27053421001435,34.33405777282715,44.21923421001434,34.25485777282715,44.15973421001434,34.16515777282715C44.09763421001435,34.072757772827146,44.048934210014345,33.990957772827144,44.048934210014345,33.985657772827146C44.048934210014345,33.97775777282715,44.02463421001434,33.943457772827145,43.99763421001434,33.90915777282715C43.96793421001434,33.87225777282715,43.94633421001434,33.83265777282715,43.94633421001434,33.82205777282715C43.94633421001434,33.81155777282715,43.94093421001435,33.80095777282715,43.932734210014345,33.80095777282715C43.92463421001435,33.80095777282715,43.90843421001434,33.78515777282715,43.897634210014346,33.76395777282715C43.86793421001434,33.70855777282715,43.68693421001434,33.41825777282715,43.62473421001434,33.33115777282715C43.611234210014345,33.31005777282715,43.57073421001434,33.24675777282715,43.53553421001435,33.18865777282715C43.50043421001435,33.130557772827146,43.43563421001434,33.02505777282715,43.38963421001434,32.953757772827146C43.34373421001435,32.88255777282715,43.30593421001434,32.81915777282715,43.30593421001434,32.81125777282715C43.30593421001434,32.80335777282715,43.29513421001434,32.787457772827146,43.281634210014346,32.776957772827146C43.26803421001434,32.76635777282715,43.230234210014345,32.71095777282715,43.195134210014345,32.650257772827146C43.160034210014345,32.59215777282715,43.11943421001435,32.52625777282715,43.10593421001434,32.50505777282715C43.092434210014346,32.48395777282715,43.05463421001434,32.42325777282715,43.022234210014346,32.37045777282715C42.98973421001435,32.315057772827146,42.94923421001434,32.25175777282715,42.930334210014344,32.22265777282715C42.908734210014345,32.19635777282715,42.88443421001435,32.15935777282715,42.873634210014345,32.14085777282715C42.822234210014344,32.059057772827146,42.743934210014345,31.93505777282715,42.67363421001434,31.826857772827147C42.63043421001434,31.76615777282715,42.58713421001434,31.69485777282715,42.576334210014345,31.67115777282715C42.56553421001435,31.64735777282715,42.55203421001434,31.62625777282715,42.546634210014346,31.620957772827147C42.541234210014345,31.61565777282715,42.50883421001434,31.565557772827148,42.47363421001434,31.50745777282715C42.44223421001435,31.457457772827148,42.42443421001434,31.42905777282715,42.399334210014345,31.419557772827147C42.366134210014344,31.407057772827148,42.32043421001434,31.42775777282715,42.21433421001434,31.475757772827148C42.15753421001435,31.49955777282715,42.098134210014344,31.52065777282715,42.08463421001434,31.52065777282715C42.06023421001434,31.52065777282715,42.11433421001434,31.620957772827147,42.206234210014344,31.747657772827147C42.22783421001434,31.77665777282715,42.24403421001434,31.80305777282715,42.24403421001434,31.80835777282715C42.24403421001434,31.81365777282715,42.27103421001434,31.85585777282715,42.30073421001434,31.898057772827148C42.362934210014345,31.987857772827148,42.36833421001434,31.99835777282715,42.468234210014344,32.15675777282715C42.584434210014344,32.33615777282715,42.59253421001434,32.34935777282715,42.66553421001434,32.46285777282715C42.706034210014344,32.52355777282715,42.77633421001434,32.63445777282715,42.82493421001435,32.71095777282715C42.87353421001434,32.79015777282715,42.930334210014344,32.874557772827146,42.95193421001434,32.903657772827145C42.97353421001434,32.93005777282715,42.98973421001435,32.95905777282715,42.98973421001435,32.96435777282715C42.98973421001435,32.97225777282715,43.13023421001434,33.19395777282715,43.32213421001434,33.48165777282715C43.37073421001435,33.558157772827144,43.411334210014346,33.62415777282715,43.411334210014346,33.62945777282715C43.411334210014346,33.632057772827146,43.432934210014345,33.66895777282715,43.45723421001434,33.70595777282715C43.50043421001435,33.77195777282715,43.59503421001435,33.91445777282715,43.64093421001434,33.990957772827144C43.70853421001434,34.101857772827145,43.78953421001434,34.22585777282715,43.797634210014344,34.231157772827146C43.803034210014346,34.23645777282715,43.83013421001434,34.276057772827144,43.857134210014344,34.32085777282715C43.884134210014345,34.36575777282715,43.92193421001434,34.42645777282715,43.94093421001435,34.455457772827145C44.00843421001434,34.55845777282715,44.13813421001434,34.76425777282715,44.243534210014346,34.93585777282715C44.27053421001435,34.98065777282715,44.31103421001434,35.03875777282715,44.33263421001435,35.062457772827145C44.35433421001434,35.08885777282715,44.37053421001434,35.11525777282715,44.37053421001434,35.12315777282715C44.37053421001434,35.13905777282715,44.39753421001434,35.17865777282715,44.52723421001434,35.36605777282715C44.55153421001434,35.40295777282715,44.573134210014345,35.439857772827146,44.573134210014345,35.445157772827145C44.573134210014345,35.45045777282715,44.600134210014346,35.49535777282715,44.632634210014345,35.53755777282715C44.66503421001434,35.58245777282715,44.69203421001434,35.62465777282715,44.69203421001434,35.63255777282715C44.69203421001434,35.64045777282715,44.702834210014345,35.65895777282715,44.71633421001434,35.66955777282715C44.72713421001434,35.682757772827145,44.75963421001434,35.72755777282715,44.78663421001434,35.77245777282715C44.85143421001435,35.88065777282715,44.95143421001434,36.036357772827145,45.04333421001434,36.17095777282715C45.08113421001434,36.23165777282715,45.11353421001434,36.28185777282715,45.11353421001434,36.28705777282715C45.11353421001434,36.292357772827145,45.13243421001434,36.32665777282715,45.15953421001434,36.363657772827146C45.22703421001434,36.46395777282715,45.24323421001434,36.49295777282715,45.27843421001434,36.545757772827145C45.29193421001435,36.57215777282715,45.356734210014345,36.66975777282715,45.421634210014346,36.76475777282715C45.48373421001435,36.85985777282715,45.535034210014345,36.94425777282715,45.535034210014345,36.94955777282715C45.535034210014345,36.95745777282715,45.559434210014345,36.99175777282715,45.586434210014346,37.026057772827144C45.616134210014344,37.06305777282715,45.637734210014344,37.09995777282715,45.637734210014344,37.107857772827145C45.637734210014344,37.11585777282715,45.66203421001434,37.15015777282715,45.689134210014345,37.184457772827145C45.71883421001434,37.218757772827146,45.74043421001434,37.25565777282715,45.74043421001434,37.263657772827145C45.74043421001434,37.27155777282715,45.75663421001434,37.30055777282715,45.77823421001435,37.32695777282715C45.80253421001434,37.35335777282715,45.840434210014344,37.411357772827145,45.867434210014345,37.45625777282714C45.89443421001434,37.50115777282715,45.92143421001434,37.54075777282715,45.92683421001435,37.54595777282715C45.93223421001434,37.55125777282715,45.948534210014344,37.57235777282715,45.962034210014345,37.59615777282715C45.99173421001434,37.65155777282715,46.10793421001434,37.83105777282715,46.197034210014344,37.96565777282715C46.23223421001434,38.01845777282715,46.270034210014344,38.081757772827146,46.28083421001435,38.10555777282715C46.291634210014344,38.129257772827145,46.31323421001434,38.160957772827146,46.32943421001434,38.17945777282715C46.34573421001434,38.19785777282715,46.378134210014345,38.24535777282715,46.40243421001435,38.287657772827146C46.49973421001434,38.44595777282715,46.58883421001434,38.58325777282715,46.65373421001434,38.67825777282715C46.68073421001434,38.71515777282715,46.70233421001434,38.74945777282715,46.70233421001434,38.75475777282715C46.70233421001434,38.76005777282715,46.77533421001434,38.87875777282715,46.85363421001435,38.99495777282715C46.86173421001435,39.00815777282715,46.90503421001434,39.07415777282715,46.94823421001435,39.14275777282715L47.075234210014344,39.33535777282715C47.102234210014345,39.372357772827144,47.123834210014344,39.40925777282715,47.123834210014344,39.41715777282715C47.123834210014344,39.422457772827144,47.148234210014344,39.45945777282715,47.17523421001434,39.49375777282715C47.20493421001434,39.52805777282715,47.22653421001434,39.56495777282715,47.22653421001434,39.57025777282715C47.22653421001434,39.57555777282715,47.267034210014344,39.63885777282715,47.31573421001434,39.710157772827145C47.36433421001435,39.78145777282715,47.42653421001434,39.87645777282715,47.45353421001434,39.92125777282715C47.48053421001434,39.966157772827145,47.518334210014345,40.02685777282715,47.53723421001435,40.05585777282715C47.62373421001435,40.190457772827145,47.72373421001434,40.348857772827145,47.74803421001434,40.38845777282715C47.75813421001435,40.40695777282715,47.76993421001434,40.424657772827146,47.78313421001434,40.44125777282715C47.804734210014345,40.46235777282715,47.86693421001434,40.557357772827146,47.86693421001434,40.56785777282715C47.86693421001434,40.573157772827145,47.891234210014346,40.61015777282715,47.91823421001435,40.64445777282715C47.94803421001434,40.68135777282715,47.96963421001435,40.71835777282715,47.96963421001435,40.72365777282715C47.96963421001435,40.734157772827146,47.98853421001434,40.76585777282715,48.01283421001435,40.79755777282715C48.03983421001435,40.829157772827145,48.06953421001434,40.876657772827144,48.08583421001434,40.90305777282715C48.11283421001434,40.94795777282715,48.23713421001435,41.14585777282715,48.29113421001435,41.22775777282715C48.337034210014345,41.291057772827145,48.466734210014344,41.496957772827145,48.55593421001434,41.63945777282715C48.62333421001434,41.74585777282715,48.64883421001434,41.79205777282715,48.687834210014344,41.812057772827146ZM37.94453421001434,32.11735777282715C37.89043421001434,32.148957772827146,37.69593421001434,32.15955777282715,37.63913421001435,32.13315777282715C37.614834210014344,32.12255777282715,37.571634210014345,32.08565777282715,37.54193421001435,32.04865777282715C37.45273421001434,31.935157772827147,37.45273421001434,31.811157772827148,37.544634210014344,31.69505777282715C37.61213421001435,31.61055777282715,37.68243421001434,31.58685777282715,37.81213421001434,31.59735777282715C37.93093421001434,31.605257772827148,37.97153421001434,31.629057772827146,38.022834210014345,31.718757772827146C38.10123421001434,31.845457772827146,38.06063421001434,32.04605777282715,37.94453421001434,32.11735777282715ZM37.498634210014345,33.39735777282715C37.56893421001434,33.21255777282715,37.70403421001434,33.120257772827145,37.89583421001434,33.120257772827145C38.04173421001434,33.120257772827145,38.14983421001435,33.17295777282715,38.23093421001434,33.28115777282715C38.338934210014344,33.43695777282715,38.34443421001434,33.59265777282715,38.247134210014345,33.73515777282715C38.160634210014344,33.859157772827146,38.07963421001435,33.904057772827144,37.928234210014345,33.91465777282715C37.84183421001434,33.91985777282715,37.78233421001434,33.91465777282715,37.736434210014345,33.898757772827146C37.544634210014344,33.82755777282715,37.428434210014345,33.58205777282715,37.498634210014345,33.39735777282715ZM50.15283421001435,33.73235777282715C51.01483421001434,33.729657772827146,51.155334210014345,33.72445777282715,51.233634210014344,33.70065777282715C51.40923421001435,33.64785777282715,51.53893421001435,33.53705777282715,51.53893421001435,33.43675777282715C51.53893421001435,33.32065777282715,51.33363421001434,33.19395777282715,51.10123421001434,33.16225777282715C50.88243421001434,33.13325777282715,49.29093421001434,33.13855777282715,49.10443421001435,33.16755777282715C48.66403421001434,33.238857772827146,48.547834210014344,33.510657772827145,48.893734210014344,33.66375777282715C48.94323421001434,33.681457772827144,48.99373421001434,33.69635777282715,49.04503421001434,33.70855777282715C49.15313421001434,33.734957772827144,49.24493421001434,33.73765777282715,50.15283421001435,33.73235777282715ZM39.90613421001434,34.42395777282715C40.03583421001434,34.42395777282715,40.062834210014344,34.42925777282715,40.16553421001434,34.479457772827146C40.430334210014344,34.60875777282715,40.54653421001434,34.90165777282715,40.44113421001434,35.19195777282715C40.39793421001434,35.31865777282715,40.300634210014344,35.42955777282715,40.170934210014345,35.49815777282715C40.09533421001434,35.54035777282715,40.06013421001434,35.54825777282715,39.93043421001434,35.55095777282715C39.84673421001435,35.55095777282715,39.76563421001434,35.55095777282715,39.75213421001435,35.54565777282715C39.40353421001434,35.40845777282715,39.249534210014346,35.11015777282715,39.36843421001434,34.79085777282715C39.42253421001434,34.64305777282715,39.49813421001434,34.56125777282715,39.64133421001434,34.48735777282715C39.754834210014344,34.42925777282715,39.77373421001434,34.42395777282715,39.90613421001434,34.42395777282715ZM49.78263421001434,35.71705777282715C51.00663421001434,35.71705777282715,51.06613421001434,35.71705777282715,51.19313421001434,35.685357772827146C51.40113421001435,35.63255777282715,51.53893421001435,35.52705777282715,51.53893421001435,35.41875777282715C51.53893421001435,35.28945777282715,51.32553421001434,35.16275777282715,51.05803421001434,35.13635777282715C50.974234210014345,35.12845777282715,50.35283421001434,35.123257772827145,49.66373421001434,35.125857772827146L48.42083421001435,35.13115777282715L48.29383421001434,35.18655777282715C48.14253421001435,35.25515777282715,48.096634210014344,35.292157772827146,48.06143421001434,35.36865777282715C48.03983421001435,35.41875777282715,48.03983421001435,35.43195777282715,48.064134210014345,35.48475777282715C48.10203421001434,35.566557772827146,48.22363421001434,35.64045777282715,48.37763421001434,35.682757772827145C48.49923421001434,35.71435777282715,48.55863421001435,35.71705777282715,49.78263421001434,35.71705777282715ZM37.526234210014344,36.80965777282715C37.612734210014345,36.79385777282715,37.755934210014345,36.70145777282715,37.823534210014344,36.61435777282715C38.00993421001434,36.387357772827144,37.95053421001434,36.00995777282715,37.70463421001435,35.85425777282715C37.56683421001434,35.77245777282715,37.54793421001435,35.764557772827146,37.39663421001434,35.764557772827146C37.22363421001434,35.764557772827146,37.15343421001434,35.79355777282715,37.02373421001434,35.909657772827146C36.86433421001434,36.05745777282715,36.802134210014344,36.27125777282715,36.867034210014346,36.43755777282715C36.91833421001434,36.56685777282715,36.980434210014344,36.65395777282715,37.08313421001434,36.72525777282715C37.20743421001434,36.81495777282715,37.35063421001434,36.84395777282715,37.526234210014344,36.80965777282715ZM38.834034210014345,38.18995777282715C38.963734210014344,38.11605777282715,39.04483421001434,38.02365777282715,39.09613421001434,37.88645777282715C39.14753421001434,37.75185777282715,39.144834210014345,37.67795777282715,39.093434210014344,37.54075777282715C39.001634210014345,37.30585777282715,38.79623421001435,37.17655777282715,38.54223421001434,37.19235777282715C38.40713421001434,37.202857772827144,38.30443421001434,37.24775777282715,38.20723421001434,37.34275777282715C37.993734210014345,37.54595777282715,37.988334210014344,37.873257772827145,38.19093421001435,38.081757772827146C38.31253421001434,38.205857772827144,38.45573421001434,38.26385777282715,38.61523421001434,38.255957772827145C38.704334210014345,38.250657772827154,38.74493421001434,38.23745777282715,38.834034210014345,38.18995777282715Z" fill-rule="evenodd" fill="#D4EAFF" fill-opacity="1"/></g></g></g></svg>